<svg xmlns="http://www.w3.org/2000/svg" xmlns:xlink="http://www.w3.org/1999/xlink"><defs><style>
    .sprite-symbol-usage {display: none;}
    .sprite-symbol-usage:target {display: inline;}
  </style><symbol viewBox="0 0 8 6" fill="none" id="icon-arrow-down">
<path d="M4 5.5L7.03109 0.25H0.968911L4 5.5Z" fill="currentColor" />
</symbol><symbol viewBox="0 0 16 13" fill="none" id="icon-arrow-right">
<path d="M15.5 6.06218L5 12.1244V0L15.5 6.06218Z" fill="currentColor" />
<path d="M7.5 6.06218L0 10.3923V1.73205L7.5 6.06218Z" fill="currentColor" />
</symbol><symbol viewBox="0 0 257 919" fill="none" id="icon-attractions">
<path fill-rule="evenodd" clip-rule="evenodd" d="M-202 0C-171.767 0 -141.549 0 -111.316 0C-125.77 25.0875 -140.182 50.1511 -154.565 75.191C-155.961 77.0475 -157.356 77.0475 -158.751 75.191C-173.19 50.0892 -187.602 25.0255 -202 0Z" fill="url(#icon-attractions_paint0_linear_4184_40314)" fill-opacity="0.5" />
<path fill-rule="evenodd" clip-rule="evenodd" d="M-109.921 0C-79.6888 0 -49.4702 0 -19.2376 0C-33.6912 25.0875 -48.103 50.1511 -62.4868 75.191C-63.8819 77.0475 -65.2771 77.0475 -66.6722 75.191C-81.1118 50.0892 -95.5236 25.0255 -109.921 0Z" fill="url(#icon-attractions_paint1_linear_4184_40314)" fill-opacity="0.5" />
<path fill-rule="evenodd" clip-rule="evenodd" d="M-17.8427 0C12.3899 0 42.6085 0 72.841 0C58.3875 25.0875 43.9757 50.1511 29.5919 75.191C28.1967 77.0475 26.8016 77.0475 25.4065 75.191C10.9669 50.0892 -3.44489 25.0255 -17.8427 0Z" fill="url(#icon-attractions_paint2_linear_4184_40314)" fill-opacity="0.5" />
<path fill-rule="evenodd" clip-rule="evenodd" d="M74.236 0C104.469 0 134.687 0 164.92 0C150.466 25.0875 136.054 50.1511 121.671 75.191C120.275 77.0475 118.88 77.0475 117.485 75.191C103.073 50.1273 88.6478 25.0637 74.236 0Z" fill="url(#icon-attractions_paint3_linear_4184_40314)" fill-opacity="0.5" />
<path fill-rule="evenodd" clip-rule="evenodd" d="M166.316 0C196.549 0 226.767 0 257 0C242.546 25.0875 228.135 50.1511 213.751 75.191C212.356 77.0475 210.961 77.0475 209.565 75.191C195.154 50.1273 180.728 25.0637 166.316 0Z" fill="url(#icon-attractions_paint4_linear_4184_40314)" fill-opacity="0.5" />
<path fill-rule="evenodd" clip-rule="evenodd" d="M-202 76.5833C-171.767 76.5833 -141.549 76.5833 -111.316 76.5833C-125.77 101.671 -140.182 126.734 -154.565 151.774C-155.961 153.631 -157.356 153.631 -158.751 151.774C-173.19 126.673 -187.602 101.609 -202 76.5833Z" fill="url(#icon-attractions_paint5_linear_4184_40314)" fill-opacity="0.5" />
<path fill-rule="evenodd" clip-rule="evenodd" d="M-109.921 76.5833C-79.6888 76.5833 -49.4702 76.5833 -19.2376 76.5833C-33.6912 101.671 -48.103 126.734 -62.4868 151.774C-63.8819 153.631 -65.2771 153.631 -66.6722 151.774C-81.1118 126.673 -95.5236 101.609 -109.921 76.5833Z" fill="url(#icon-attractions_paint6_linear_4184_40314)" fill-opacity="0.5" />
<path fill-rule="evenodd" clip-rule="evenodd" d="M-17.8427 76.5833C12.3899 76.5833 42.6085 76.5833 72.841 76.5833C58.3875 101.671 43.9757 126.734 29.5919 151.774C28.1967 153.631 26.8016 153.631 25.4065 151.774C10.9669 126.673 -3.44489 101.609 -17.8427 76.5833Z" fill="url(#icon-attractions_paint7_linear_4184_40314)" fill-opacity="0.5" />
<path fill-rule="evenodd" clip-rule="evenodd" d="M74.236 76.5833C104.469 76.5833 134.687 76.5833 164.92 76.5833C150.466 101.671 136.054 126.734 121.671 151.774C120.275 153.631 118.88 153.631 117.485 151.774C103.073 126.711 88.6478 101.647 74.236 76.5833Z" fill="url(#icon-attractions_paint8_linear_4184_40314)" fill-opacity="0.5" />
<path fill-rule="evenodd" clip-rule="evenodd" d="M166.316 76.5833C196.549 76.5833 226.767 76.5833 257 76.5833C242.546 101.671 228.135 126.734 213.751 151.774C212.356 153.631 210.961 153.631 209.565 151.774C195.154 126.711 180.728 101.647 166.316 76.5833Z" fill="url(#icon-attractions_paint9_linear_4184_40314)" fill-opacity="0.5" />
<path fill-rule="evenodd" clip-rule="evenodd" d="M-202 153.167C-171.767 153.167 -141.549 153.167 -111.316 153.167C-125.77 178.254 -140.182 203.318 -154.565 228.358C-155.961 230.214 -157.356 230.214 -158.751 228.358C-173.19 203.256 -187.602 178.192 -202 153.167Z" fill="url(#icon-attractions_paint10_linear_4184_40314)" fill-opacity="0.5" />
<path fill-rule="evenodd" clip-rule="evenodd" d="M-109.921 153.167C-79.6888 153.167 -49.4702 153.167 -19.2376 153.167C-33.6912 178.254 -48.103 203.318 -62.4868 228.358C-63.8819 230.214 -65.2771 230.214 -66.6722 228.358C-81.1118 203.256 -95.5236 178.192 -109.921 153.167Z" fill="url(#icon-attractions_paint11_linear_4184_40314)" fill-opacity="0.5" />
<path fill-rule="evenodd" clip-rule="evenodd" d="M-17.8427 153.167C12.3899 153.167 42.6085 153.167 72.841 153.167C58.3875 178.254 43.9757 203.318 29.5919 228.358C28.1967 230.214 26.8016 230.214 25.4065 228.358C10.9669 203.256 -3.44489 178.192 -17.8427 153.167Z" fill="url(#icon-attractions_paint12_linear_4184_40314)" fill-opacity="0.5" />
<path fill-rule="evenodd" clip-rule="evenodd" d="M74.236 153.167C104.469 153.167 134.687 153.167 164.92 153.167C150.466 178.254 136.054 203.318 121.671 228.358C120.275 230.214 118.88 230.214 117.485 228.358C103.073 203.294 88.6478 178.23 74.236 153.167Z" fill="url(#icon-attractions_paint13_linear_4184_40314)" fill-opacity="0.5" />
<path fill-rule="evenodd" clip-rule="evenodd" d="M166.316 153.167C196.549 153.167 226.767 153.167 257 153.167C242.546 178.254 228.135 203.318 213.751 228.358C212.356 230.214 210.961 230.214 209.565 228.358C195.154 203.294 180.728 178.23 166.316 153.167Z" fill="url(#icon-attractions_paint14_linear_4184_40314)" fill-opacity="0.5" />
<path fill-rule="evenodd" clip-rule="evenodd" d="M-202 229.75C-171.767 229.75 -141.549 229.75 -111.316 229.75C-125.77 254.837 -140.182 279.901 -154.565 304.941C-155.961 306.798 -157.356 306.798 -158.751 304.941C-173.19 279.839 -187.602 254.776 -202 229.75Z" fill="url(#icon-attractions_paint15_linear_4184_40314)" fill-opacity="0.5" />
<path fill-rule="evenodd" clip-rule="evenodd" d="M-109.921 229.75C-79.6888 229.75 -49.4702 229.75 -19.2376 229.75C-33.6912 254.837 -48.103 279.901 -62.4868 304.941C-63.8819 306.798 -65.2771 306.798 -66.6722 304.941C-81.1118 279.839 -95.5236 254.776 -109.921 229.75Z" fill="url(#icon-attractions_paint16_linear_4184_40314)" fill-opacity="0.5" />
<path fill-rule="evenodd" clip-rule="evenodd" d="M-17.8427 229.75C12.3899 229.75 42.6085 229.75 72.841 229.75C58.3875 254.837 43.9757 279.901 29.5919 304.941C28.1967 306.798 26.8016 306.798 25.4065 304.941C10.9669 279.839 -3.44489 254.776 -17.8427 229.75Z" fill="url(#icon-attractions_paint17_linear_4184_40314)" fill-opacity="0.5" />
<path fill-rule="evenodd" clip-rule="evenodd" d="M74.236 229.75C104.469 229.75 134.687 229.75 164.92 229.75C150.466 254.837 136.054 279.901 121.671 304.941C120.275 306.798 118.88 306.798 117.485 304.941C103.073 279.877 88.6478 254.814 74.236 229.75Z" fill="url(#icon-attractions_paint18_linear_4184_40314)" fill-opacity="0.5" />
<path fill-rule="evenodd" clip-rule="evenodd" d="M166.316 229.75C196.549 229.75 226.767 229.75 257 229.75C242.546 254.837 228.135 279.901 213.751 304.941C212.356 306.798 210.961 306.798 209.565 304.941C195.154 279.877 180.728 254.814 166.316 229.75Z" fill="url(#icon-attractions_paint19_linear_4184_40314)" fill-opacity="0.5" />
<path fill-rule="evenodd" clip-rule="evenodd" d="M-202 306.333C-171.767 306.333 -141.549 306.333 -111.316 306.333C-125.77 331.421 -140.182 356.484 -154.565 381.524C-155.961 383.381 -157.356 383.381 -158.751 381.524C-173.19 356.423 -187.602 331.359 -202 306.333Z" fill="url(#icon-attractions_paint20_linear_4184_40314)" fill-opacity="0.5" />
<path fill-rule="evenodd" clip-rule="evenodd" d="M-109.921 306.333C-79.6888 306.333 -49.4702 306.333 -19.2376 306.333C-33.6912 331.421 -48.103 356.484 -62.4868 381.524C-63.8819 383.381 -65.2771 383.381 -66.6722 381.524C-81.1118 356.423 -95.5236 331.359 -109.921 306.333Z" fill="url(#icon-attractions_paint21_linear_4184_40314)" fill-opacity="0.5" />
<path fill-rule="evenodd" clip-rule="evenodd" d="M-17.8427 306.333C12.3899 306.333 42.6085 306.333 72.841 306.333C58.3875 331.421 43.9757 356.484 29.5919 381.524C28.1967 383.381 26.8016 383.381 25.4065 381.524C10.9669 356.423 -3.44489 331.359 -17.8427 306.333Z" fill="url(#icon-attractions_paint22_linear_4184_40314)" fill-opacity="0.5" />
<path fill-rule="evenodd" clip-rule="evenodd" d="M74.236 306.333C104.469 306.333 134.687 306.333 164.92 306.333C150.466 331.421 136.054 356.484 121.671 381.524C120.275 383.381 118.88 383.381 117.485 381.524C103.073 356.461 88.6478 331.397 74.236 306.333Z" fill="url(#icon-attractions_paint23_linear_4184_40314)" fill-opacity="0.5" />
<path fill-rule="evenodd" clip-rule="evenodd" d="M166.316 306.333C196.549 306.333 226.767 306.333 257 306.333C242.546 331.421 228.135 356.484 213.751 381.524C212.356 383.381 210.961 383.381 209.565 381.524C195.154 356.461 180.728 331.397 166.316 306.333Z" fill="url(#icon-attractions_paint24_linear_4184_40314)" fill-opacity="0.5" />
<path fill-rule="evenodd" clip-rule="evenodd" d="M-202 382.917C-171.767 382.917 -141.549 382.917 -111.316 382.917C-125.77 408.004 -140.182 433.068 -154.565 458.108C-155.961 459.964 -157.356 459.964 -158.751 458.108C-173.19 433.006 -187.602 407.942 -202 382.917Z" fill="url(#icon-attractions_paint25_linear_4184_40314)" fill-opacity="0.5" />
<path fill-rule="evenodd" clip-rule="evenodd" d="M-109.921 382.917C-79.6888 382.917 -49.4702 382.917 -19.2376 382.917C-33.6912 408.004 -48.103 433.068 -62.4868 458.108C-63.8819 459.964 -65.2771 459.964 -66.6722 458.108C-81.1118 433.006 -95.5236 407.942 -109.921 382.917Z" fill="url(#icon-attractions_paint26_linear_4184_40314)" fill-opacity="0.5" />
<path fill-rule="evenodd" clip-rule="evenodd" d="M-17.8427 382.917C12.3899 382.917 42.6085 382.917 72.841 382.917C58.3875 408.004 43.9757 433.068 29.5919 458.108C28.1967 459.964 26.8016 459.964 25.4065 458.108C10.9669 433.006 -3.44489 407.942 -17.8427 382.917Z" fill="url(#icon-attractions_paint27_linear_4184_40314)" fill-opacity="0.5" />
<path fill-rule="evenodd" clip-rule="evenodd" d="M74.236 382.917C104.469 382.917 134.687 382.917 164.92 382.917C150.466 408.004 136.054 433.068 121.671 458.108C120.275 459.964 118.88 459.964 117.485 458.108C103.073 433.044 88.6478 407.98 74.236 382.917Z" fill="url(#icon-attractions_paint28_linear_4184_40314)" fill-opacity="0.5" />
<path fill-rule="evenodd" clip-rule="evenodd" d="M166.316 382.917C196.549 382.917 226.767 382.917 257 382.917C242.546 408.004 228.135 433.068 213.751 458.108C212.356 459.964 210.961 459.964 209.565 458.108C195.154 433.044 180.728 407.98 166.316 382.917Z" fill="url(#icon-attractions_paint29_linear_4184_40314)" fill-opacity="0.5" />
<path fill-rule="evenodd" clip-rule="evenodd" d="M-202 459.5C-171.767 459.5 -141.549 459.5 -111.316 459.5C-125.77 484.588 -140.182 509.651 -154.565 534.691C-155.961 536.548 -157.356 536.548 -158.751 534.691C-173.19 509.589 -187.602 484.526 -202 459.5Z" fill="url(#icon-attractions_paint30_linear_4184_40314)" fill-opacity="0.5" />
<path fill-rule="evenodd" clip-rule="evenodd" d="M-109.921 459.5C-79.6888 459.5 -49.4702 459.5 -19.2376 459.5C-33.6912 484.588 -48.103 509.651 -62.4868 534.691C-63.8819 536.548 -65.2771 536.548 -66.6722 534.691C-81.1118 509.589 -95.5236 484.526 -109.921 459.5Z" fill="url(#icon-attractions_paint31_linear_4184_40314)" fill-opacity="0.5" />
<path fill-rule="evenodd" clip-rule="evenodd" d="M-17.8427 459.5C12.3899 459.5 42.6085 459.5 72.841 459.5C58.3875 484.588 43.9757 509.651 29.5919 534.691C28.1967 536.548 26.8016 536.548 25.4065 534.691C10.9669 509.589 -3.44489 484.526 -17.8427 459.5Z" fill="url(#icon-attractions_paint32_linear_4184_40314)" fill-opacity="0.5" />
<path fill-rule="evenodd" clip-rule="evenodd" d="M74.236 459.5C104.469 459.5 134.687 459.5 164.92 459.5C150.466 484.588 136.054 509.651 121.671 534.691C120.275 536.548 118.88 536.548 117.485 534.691C103.073 509.627 88.6478 484.564 74.236 459.5Z" fill="url(#icon-attractions_paint33_linear_4184_40314)" fill-opacity="0.5" />
<path fill-rule="evenodd" clip-rule="evenodd" d="M166.316 459.5C196.549 459.5 226.767 459.5 257 459.5C242.546 484.588 228.135 509.651 213.751 534.691C212.356 536.548 210.961 536.548 209.565 534.691C195.154 509.627 180.728 484.564 166.316 459.5Z" fill="url(#icon-attractions_paint34_linear_4184_40314)" fill-opacity="0.5" />
<path fill-rule="evenodd" clip-rule="evenodd" d="M-202 536.083C-171.767 536.083 -141.549 536.083 -111.316 536.083C-125.77 561.171 -140.182 586.234 -154.565 611.274C-155.961 613.131 -157.356 613.131 -158.751 611.274C-173.19 586.173 -187.602 561.109 -202 536.083Z" fill="url(#icon-attractions_paint35_linear_4184_40314)" fill-opacity="0.5" />
<path fill-rule="evenodd" clip-rule="evenodd" d="M-109.921 536.083C-79.6888 536.083 -49.4702 536.083 -19.2376 536.083C-33.6912 561.171 -48.103 586.234 -62.4868 611.274C-63.8819 613.131 -65.2771 613.131 -66.6722 611.274C-81.1118 586.173 -95.5236 561.109 -109.921 536.083Z" fill="url(#icon-attractions_paint36_linear_4184_40314)" fill-opacity="0.5" />
<path fill-rule="evenodd" clip-rule="evenodd" d="M-17.8427 536.083C12.3899 536.083 42.6085 536.083 72.841 536.083C58.3875 561.171 43.9757 586.234 29.5919 611.274C28.1967 613.131 26.8016 613.131 25.4065 611.274C10.9669 586.173 -3.44489 561.109 -17.8427 536.083Z" fill="url(#icon-attractions_paint37_linear_4184_40314)" fill-opacity="0.5" />
<path fill-rule="evenodd" clip-rule="evenodd" d="M74.236 536.083C104.469 536.083 134.687 536.083 164.92 536.083C150.466 561.171 136.054 586.234 121.671 611.274C120.275 613.131 118.88 613.131 117.485 611.274C103.073 586.211 88.6478 561.147 74.236 536.083Z" fill="url(#icon-attractions_paint38_linear_4184_40314)" fill-opacity="0.5" />
<path fill-rule="evenodd" clip-rule="evenodd" d="M166.316 536.083C196.549 536.083 226.767 536.083 257 536.083C242.546 561.171 228.135 586.234 213.751 611.274C212.356 613.131 210.961 613.131 209.565 611.274C195.154 586.211 180.728 561.147 166.316 536.083Z" fill="url(#icon-attractions_paint39_linear_4184_40314)" fill-opacity="0.5" />
<path fill-rule="evenodd" clip-rule="evenodd" d="M-202 612.667C-171.767 612.667 -141.549 612.667 -111.316 612.667C-125.77 637.754 -140.182 662.818 -154.565 687.858C-155.961 689.714 -157.356 689.714 -158.751 687.858C-173.19 662.756 -187.602 637.692 -202 612.667Z" fill="url(#icon-attractions_paint40_linear_4184_40314)" fill-opacity="0.5" />
<path fill-rule="evenodd" clip-rule="evenodd" d="M-109.921 612.667C-79.6888 612.667 -49.4702 612.667 -19.2376 612.667C-33.6912 637.754 -48.103 662.818 -62.4868 687.858C-63.8819 689.714 -65.2771 689.714 -66.6722 687.858C-81.1118 662.756 -95.5236 637.692 -109.921 612.667Z" fill="url(#icon-attractions_paint41_linear_4184_40314)" fill-opacity="0.5" />
<path fill-rule="evenodd" clip-rule="evenodd" d="M-17.8427 612.667C12.3899 612.667 42.6085 612.667 72.841 612.667C58.3875 637.754 43.9757 662.818 29.5919 687.858C28.1967 689.714 26.8016 689.714 25.4065 687.858C10.9669 662.756 -3.44489 637.692 -17.8427 612.667Z" fill="url(#icon-attractions_paint42_linear_4184_40314)" fill-opacity="0.5" />
<path fill-rule="evenodd" clip-rule="evenodd" d="M74.236 612.667C104.469 612.667 134.687 612.667 164.92 612.667C150.466 637.754 136.054 662.818 121.671 687.858C120.275 689.714 118.88 689.714 117.485 687.858C103.073 662.794 88.6478 637.73 74.236 612.667Z" fill="url(#icon-attractions_paint43_linear_4184_40314)" fill-opacity="0.5" />
<path fill-rule="evenodd" clip-rule="evenodd" d="M166.316 612.667C196.549 612.667 226.767 612.667 257 612.667C242.546 637.754 228.135 662.818 213.751 687.858C212.356 689.714 210.961 689.714 209.565 687.858C195.154 662.794 180.728 637.73 166.316 612.667Z" fill="url(#icon-attractions_paint44_linear_4184_40314)" fill-opacity="0.5" />
<path fill-rule="evenodd" clip-rule="evenodd" d="M-202 689.25C-171.767 689.25 -141.549 689.25 -111.316 689.25C-125.77 714.338 -140.182 739.401 -154.565 764.441C-155.961 766.298 -157.356 766.298 -158.751 764.441C-173.19 739.339 -187.602 714.276 -202 689.25Z" fill="url(#icon-attractions_paint45_linear_4184_40314)" fill-opacity="0.5" />
<path fill-rule="evenodd" clip-rule="evenodd" d="M-109.921 689.25C-79.6888 689.25 -49.4702 689.25 -19.2376 689.25C-33.6912 714.338 -48.103 739.401 -62.4868 764.441C-63.8819 766.298 -65.2771 766.298 -66.6722 764.441C-81.1118 739.339 -95.5236 714.276 -109.921 689.25Z" fill="url(#icon-attractions_paint46_linear_4184_40314)" fill-opacity="0.5" />
<path fill-rule="evenodd" clip-rule="evenodd" d="M-17.8427 689.25C12.3899 689.25 42.6085 689.25 72.841 689.25C58.3875 714.338 43.9757 739.401 29.5919 764.441C28.1967 766.298 26.8016 766.298 25.4065 764.441C10.9669 739.339 -3.44489 714.276 -17.8427 689.25Z" fill="url(#icon-attractions_paint47_linear_4184_40314)" fill-opacity="0.5" />
<path fill-rule="evenodd" clip-rule="evenodd" d="M74.236 689.25C104.469 689.25 134.687 689.25 164.92 689.25C150.466 714.338 136.054 739.401 121.671 764.441C120.275 766.298 118.88 766.298 117.485 764.441C103.073 739.377 88.6478 714.314 74.236 689.25Z" fill="url(#icon-attractions_paint48_linear_4184_40314)" fill-opacity="0.5" />
<path fill-rule="evenodd" clip-rule="evenodd" d="M166.316 689.25C196.549 689.25 226.767 689.25 257 689.25C242.546 714.338 228.135 739.401 213.751 764.441C212.356 766.298 210.961 766.298 209.565 764.441C195.154 739.377 180.728 714.314 166.316 689.25Z" fill="url(#icon-attractions_paint49_linear_4184_40314)" fill-opacity="0.5" />
<path fill-rule="evenodd" clip-rule="evenodd" d="M-202 765.833C-171.767 765.833 -141.549 765.833 -111.316 765.833C-125.77 790.921 -140.182 815.984 -154.565 841.024C-155.961 842.881 -157.356 842.881 -158.751 841.024C-173.19 815.923 -187.602 790.859 -202 765.833Z" fill="url(#icon-attractions_paint50_linear_4184_40314)" fill-opacity="0.5" />
<path fill-rule="evenodd" clip-rule="evenodd" d="M-109.921 765.833C-79.6888 765.833 -49.4702 765.833 -19.2376 765.833C-33.6912 790.921 -48.103 815.984 -62.4868 841.024C-63.8819 842.881 -65.2771 842.881 -66.6722 841.024C-81.1118 815.923 -95.5236 790.859 -109.921 765.833Z" fill="url(#icon-attractions_paint51_linear_4184_40314)" fill-opacity="0.5" />
<path fill-rule="evenodd" clip-rule="evenodd" d="M-17.8427 765.833C12.3899 765.833 42.6085 765.833 72.841 765.833C58.3875 790.921 43.9757 815.984 29.5919 841.024C28.1967 842.881 26.8016 842.881 25.4065 841.024C10.9669 815.923 -3.44489 790.859 -17.8427 765.833Z" fill="url(#icon-attractions_paint52_linear_4184_40314)" fill-opacity="0.5" />
<path fill-rule="evenodd" clip-rule="evenodd" d="M74.236 765.833C104.469 765.833 134.687 765.833 164.92 765.833C150.466 790.921 136.054 815.984 121.671 841.024C120.275 842.881 118.88 842.881 117.485 841.024C103.073 815.961 88.6478 790.897 74.236 765.833Z" fill="url(#icon-attractions_paint53_linear_4184_40314)" fill-opacity="0.5" />
<path fill-rule="evenodd" clip-rule="evenodd" d="M166.316 765.833C196.549 765.833 226.767 765.833 257 765.833C242.546 790.921 228.135 815.984 213.751 841.024C212.356 842.881 210.961 842.881 209.565 841.024C195.154 815.961 180.728 790.897 166.316 765.833Z" fill="url(#icon-attractions_paint54_linear_4184_40314)" fill-opacity="0.5" />
<path fill-rule="evenodd" clip-rule="evenodd" d="M-202 842.417C-171.767 842.417 -141.549 842.417 -111.316 842.417C-125.77 867.504 -140.182 892.568 -154.565 917.608C-155.961 919.464 -157.356 919.464 -158.751 917.608C-173.19 892.506 -187.602 867.442 -202 842.417Z" fill="url(#icon-attractions_paint55_linear_4184_40314)" fill-opacity="0.5" />
<path fill-rule="evenodd" clip-rule="evenodd" d="M-109.921 842.417C-79.6888 842.417 -49.4702 842.417 -19.2376 842.417C-33.6912 867.504 -48.103 892.568 -62.4868 917.608C-63.8819 919.464 -65.2771 919.464 -66.6722 917.608C-81.1118 892.506 -95.5236 867.442 -109.921 842.417Z" fill="url(#icon-attractions_paint56_linear_4184_40314)" fill-opacity="0.5" />
<path fill-rule="evenodd" clip-rule="evenodd" d="M-17.8427 842.417C12.3899 842.417 42.6085 842.417 72.841 842.417C58.3875 867.504 43.9757 892.568 29.5919 917.608C28.1967 919.464 26.8016 919.464 25.4065 917.608C10.9669 892.506 -3.44489 867.442 -17.8427 842.417Z" fill="url(#icon-attractions_paint57_linear_4184_40314)" fill-opacity="0.5" />
<path fill-rule="evenodd" clip-rule="evenodd" d="M74.236 842.417C104.469 842.417 134.687 842.417 164.92 842.417C150.466 867.504 136.054 892.568 121.671 917.608C120.275 919.464 118.88 919.464 117.485 917.608C103.073 892.544 88.6478 867.48 74.236 842.417Z" fill="url(#icon-attractions_paint58_linear_4184_40314)" fill-opacity="0.5" />
<path fill-rule="evenodd" clip-rule="evenodd" d="M166.316 842.417C196.549 842.417 226.767 842.417 257 842.417C242.546 867.504 228.135 892.568 213.751 917.608C212.356 919.464 210.961 919.464 209.565 917.608C195.154 892.544 180.728 867.48 166.316 842.417Z" fill="url(#icon-attractions_paint59_linear_4184_40314)" fill-opacity="0.5" />
<defs>




























































</defs>
</symbol><linearGradient id="icon-attractions_paint0_linear_4184_40314" x1="27.8312" y1="-128.602" x2="27.8312" y2="1175.6" gradientUnits="userSpaceOnUse">
<stop stop-color="#F0F6FA" />
<stop offset="1" stop-color="white" />
</linearGradient><linearGradient id="icon-attractions_paint1_linear_4184_40314" x1="27.8312" y1="-128.602" x2="27.8312" y2="1175.6" gradientUnits="userSpaceOnUse">
<stop stop-color="#F0F6FA" />
<stop offset="1" stop-color="white" />
</linearGradient><linearGradient id="icon-attractions_paint2_linear_4184_40314" x1="27.8312" y1="-128.602" x2="27.8312" y2="1175.6" gradientUnits="userSpaceOnUse">
<stop stop-color="#F0F6FA" />
<stop offset="1" stop-color="white" />
</linearGradient><linearGradient id="icon-attractions_paint3_linear_4184_40314" x1="27.8312" y1="-128.602" x2="27.8312" y2="1175.6" gradientUnits="userSpaceOnUse">
<stop stop-color="#F0F6FA" />
<stop offset="1" stop-color="white" />
</linearGradient><linearGradient id="icon-attractions_paint4_linear_4184_40314" x1="27.8312" y1="-128.602" x2="27.8312" y2="1175.6" gradientUnits="userSpaceOnUse">
<stop stop-color="#F0F6FA" />
<stop offset="1" stop-color="white" />
</linearGradient><linearGradient id="icon-attractions_paint5_linear_4184_40314" x1="27.8312" y1="-128.602" x2="27.8312" y2="1175.6" gradientUnits="userSpaceOnUse">
<stop stop-color="#F0F6FA" />
<stop offset="1" stop-color="white" />
</linearGradient><linearGradient id="icon-attractions_paint6_linear_4184_40314" x1="27.8312" y1="-128.602" x2="27.8312" y2="1175.6" gradientUnits="userSpaceOnUse">
<stop stop-color="#F0F6FA" />
<stop offset="1" stop-color="white" />
</linearGradient><linearGradient id="icon-attractions_paint7_linear_4184_40314" x1="27.8312" y1="-128.602" x2="27.8312" y2="1175.6" gradientUnits="userSpaceOnUse">
<stop stop-color="#F0F6FA" />
<stop offset="1" stop-color="white" />
</linearGradient><linearGradient id="icon-attractions_paint8_linear_4184_40314" x1="27.8312" y1="-128.602" x2="27.8312" y2="1175.6" gradientUnits="userSpaceOnUse">
<stop stop-color="#F0F6FA" />
<stop offset="1" stop-color="white" />
</linearGradient><linearGradient id="icon-attractions_paint9_linear_4184_40314" x1="27.8312" y1="-128.602" x2="27.8312" y2="1175.6" gradientUnits="userSpaceOnUse">
<stop stop-color="#F0F6FA" />
<stop offset="1" stop-color="white" />
</linearGradient><linearGradient id="icon-attractions_paint10_linear_4184_40314" x1="27.8312" y1="-128.602" x2="27.8312" y2="1175.6" gradientUnits="userSpaceOnUse">
<stop stop-color="#F0F6FA" />
<stop offset="1" stop-color="white" />
</linearGradient><linearGradient id="icon-attractions_paint11_linear_4184_40314" x1="27.8312" y1="-128.602" x2="27.8312" y2="1175.6" gradientUnits="userSpaceOnUse">
<stop stop-color="#F0F6FA" />
<stop offset="1" stop-color="white" />
</linearGradient><linearGradient id="icon-attractions_paint12_linear_4184_40314" x1="27.8312" y1="-128.602" x2="27.8312" y2="1175.6" gradientUnits="userSpaceOnUse">
<stop stop-color="#F0F6FA" />
<stop offset="1" stop-color="white" />
</linearGradient><linearGradient id="icon-attractions_paint13_linear_4184_40314" x1="27.8312" y1="-128.602" x2="27.8312" y2="1175.6" gradientUnits="userSpaceOnUse">
<stop stop-color="#F0F6FA" />
<stop offset="1" stop-color="white" />
</linearGradient><linearGradient id="icon-attractions_paint14_linear_4184_40314" x1="27.8312" y1="-128.602" x2="27.8312" y2="1175.6" gradientUnits="userSpaceOnUse">
<stop stop-color="#F0F6FA" />
<stop offset="1" stop-color="white" />
</linearGradient><linearGradient id="icon-attractions_paint15_linear_4184_40314" x1="27.8312" y1="-128.602" x2="27.8312" y2="1175.6" gradientUnits="userSpaceOnUse">
<stop stop-color="#F0F6FA" />
<stop offset="1" stop-color="white" />
</linearGradient><linearGradient id="icon-attractions_paint16_linear_4184_40314" x1="27.8312" y1="-128.602" x2="27.8312" y2="1175.6" gradientUnits="userSpaceOnUse">
<stop stop-color="#F0F6FA" />
<stop offset="1" stop-color="white" />
</linearGradient><linearGradient id="icon-attractions_paint17_linear_4184_40314" x1="27.8312" y1="-128.602" x2="27.8312" y2="1175.6" gradientUnits="userSpaceOnUse">
<stop stop-color="#F0F6FA" />
<stop offset="1" stop-color="white" />
</linearGradient><linearGradient id="icon-attractions_paint18_linear_4184_40314" x1="27.8312" y1="-128.602" x2="27.8312" y2="1175.6" gradientUnits="userSpaceOnUse">
<stop stop-color="#F0F6FA" />
<stop offset="1" stop-color="white" />
</linearGradient><linearGradient id="icon-attractions_paint19_linear_4184_40314" x1="27.8312" y1="-128.602" x2="27.8312" y2="1175.6" gradientUnits="userSpaceOnUse">
<stop stop-color="#F0F6FA" />
<stop offset="1" stop-color="white" />
</linearGradient><linearGradient id="icon-attractions_paint20_linear_4184_40314" x1="27.8312" y1="-128.602" x2="27.8312" y2="1175.6" gradientUnits="userSpaceOnUse">
<stop stop-color="#F0F6FA" />
<stop offset="1" stop-color="white" />
</linearGradient><linearGradient id="icon-attractions_paint21_linear_4184_40314" x1="27.8312" y1="-128.602" x2="27.8312" y2="1175.6" gradientUnits="userSpaceOnUse">
<stop stop-color="#F0F6FA" />
<stop offset="1" stop-color="white" />
</linearGradient><linearGradient id="icon-attractions_paint22_linear_4184_40314" x1="27.8312" y1="-128.602" x2="27.8312" y2="1175.6" gradientUnits="userSpaceOnUse">
<stop stop-color="#F0F6FA" />
<stop offset="1" stop-color="white" />
</linearGradient><linearGradient id="icon-attractions_paint23_linear_4184_40314" x1="27.8312" y1="-128.602" x2="27.8312" y2="1175.6" gradientUnits="userSpaceOnUse">
<stop stop-color="#F0F6FA" />
<stop offset="1" stop-color="white" />
</linearGradient><linearGradient id="icon-attractions_paint24_linear_4184_40314" x1="27.8312" y1="-128.602" x2="27.8312" y2="1175.6" gradientUnits="userSpaceOnUse">
<stop stop-color="#F0F6FA" />
<stop offset="1" stop-color="white" />
</linearGradient><linearGradient id="icon-attractions_paint25_linear_4184_40314" x1="27.8312" y1="-128.602" x2="27.8312" y2="1175.6" gradientUnits="userSpaceOnUse">
<stop stop-color="#F0F6FA" />
<stop offset="1" stop-color="white" />
</linearGradient><linearGradient id="icon-attractions_paint26_linear_4184_40314" x1="27.8312" y1="-128.602" x2="27.8312" y2="1175.6" gradientUnits="userSpaceOnUse">
<stop stop-color="#F0F6FA" />
<stop offset="1" stop-color="white" />
</linearGradient><linearGradient id="icon-attractions_paint27_linear_4184_40314" x1="27.8312" y1="-128.602" x2="27.8312" y2="1175.6" gradientUnits="userSpaceOnUse">
<stop stop-color="#F0F6FA" />
<stop offset="1" stop-color="white" />
</linearGradient><linearGradient id="icon-attractions_paint28_linear_4184_40314" x1="27.8312" y1="-128.602" x2="27.8312" y2="1175.6" gradientUnits="userSpaceOnUse">
<stop stop-color="#F0F6FA" />
<stop offset="1" stop-color="white" />
</linearGradient><linearGradient id="icon-attractions_paint29_linear_4184_40314" x1="27.8312" y1="-128.602" x2="27.8312" y2="1175.6" gradientUnits="userSpaceOnUse">
<stop stop-color="#F0F6FA" />
<stop offset="1" stop-color="white" />
</linearGradient><linearGradient id="icon-attractions_paint30_linear_4184_40314" x1="27.8312" y1="-128.602" x2="27.8312" y2="1175.6" gradientUnits="userSpaceOnUse">
<stop stop-color="#F0F6FA" />
<stop offset="1" stop-color="white" />
</linearGradient><linearGradient id="icon-attractions_paint31_linear_4184_40314" x1="27.8312" y1="-128.602" x2="27.8312" y2="1175.6" gradientUnits="userSpaceOnUse">
<stop stop-color="#F0F6FA" />
<stop offset="1" stop-color="white" />
</linearGradient><linearGradient id="icon-attractions_paint32_linear_4184_40314" x1="27.8312" y1="-128.602" x2="27.8312" y2="1175.6" gradientUnits="userSpaceOnUse">
<stop stop-color="#F0F6FA" />
<stop offset="1" stop-color="white" />
</linearGradient><linearGradient id="icon-attractions_paint33_linear_4184_40314" x1="27.8312" y1="-128.602" x2="27.8312" y2="1175.6" gradientUnits="userSpaceOnUse">
<stop stop-color="#F0F6FA" />
<stop offset="1" stop-color="white" />
</linearGradient><linearGradient id="icon-attractions_paint34_linear_4184_40314" x1="27.8312" y1="-128.602" x2="27.8312" y2="1175.6" gradientUnits="userSpaceOnUse">
<stop stop-color="#F0F6FA" />
<stop offset="1" stop-color="white" />
</linearGradient><linearGradient id="icon-attractions_paint35_linear_4184_40314" x1="27.8312" y1="-128.602" x2="27.8312" y2="1175.6" gradientUnits="userSpaceOnUse">
<stop stop-color="#F0F6FA" />
<stop offset="1" stop-color="white" />
</linearGradient><linearGradient id="icon-attractions_paint36_linear_4184_40314" x1="27.8312" y1="-128.602" x2="27.8312" y2="1175.6" gradientUnits="userSpaceOnUse">
<stop stop-color="#F0F6FA" />
<stop offset="1" stop-color="white" />
</linearGradient><linearGradient id="icon-attractions_paint37_linear_4184_40314" x1="27.8312" y1="-128.602" x2="27.8312" y2="1175.6" gradientUnits="userSpaceOnUse">
<stop stop-color="#F0F6FA" />
<stop offset="1" stop-color="white" />
</linearGradient><linearGradient id="icon-attractions_paint38_linear_4184_40314" x1="27.8312" y1="-128.602" x2="27.8312" y2="1175.6" gradientUnits="userSpaceOnUse">
<stop stop-color="#F0F6FA" />
<stop offset="1" stop-color="white" />
</linearGradient><linearGradient id="icon-attractions_paint39_linear_4184_40314" x1="27.8312" y1="-128.602" x2="27.8312" y2="1175.6" gradientUnits="userSpaceOnUse">
<stop stop-color="#F0F6FA" />
<stop offset="1" stop-color="white" />
</linearGradient><linearGradient id="icon-attractions_paint40_linear_4184_40314" x1="27.8312" y1="-128.602" x2="27.8312" y2="1175.6" gradientUnits="userSpaceOnUse">
<stop stop-color="#F0F6FA" />
<stop offset="1" stop-color="white" />
</linearGradient><linearGradient id="icon-attractions_paint41_linear_4184_40314" x1="27.8312" y1="-128.602" x2="27.8312" y2="1175.6" gradientUnits="userSpaceOnUse">
<stop stop-color="#F0F6FA" />
<stop offset="1" stop-color="white" />
</linearGradient><linearGradient id="icon-attractions_paint42_linear_4184_40314" x1="27.8312" y1="-128.602" x2="27.8312" y2="1175.6" gradientUnits="userSpaceOnUse">
<stop stop-color="#F0F6FA" />
<stop offset="1" stop-color="white" />
</linearGradient><linearGradient id="icon-attractions_paint43_linear_4184_40314" x1="27.8312" y1="-128.602" x2="27.8312" y2="1175.6" gradientUnits="userSpaceOnUse">
<stop stop-color="#F0F6FA" />
<stop offset="1" stop-color="white" />
</linearGradient><linearGradient id="icon-attractions_paint44_linear_4184_40314" x1="27.8312" y1="-128.602" x2="27.8312" y2="1175.6" gradientUnits="userSpaceOnUse">
<stop stop-color="#F0F6FA" />
<stop offset="1" stop-color="white" />
</linearGradient><linearGradient id="icon-attractions_paint45_linear_4184_40314" x1="27.8312" y1="-128.602" x2="27.8312" y2="1175.6" gradientUnits="userSpaceOnUse">
<stop stop-color="#F0F6FA" />
<stop offset="1" stop-color="white" />
</linearGradient><linearGradient id="icon-attractions_paint46_linear_4184_40314" x1="27.8312" y1="-128.602" x2="27.8312" y2="1175.6" gradientUnits="userSpaceOnUse">
<stop stop-color="#F0F6FA" />
<stop offset="1" stop-color="white" />
</linearGradient><linearGradient id="icon-attractions_paint47_linear_4184_40314" x1="27.8312" y1="-128.602" x2="27.8312" y2="1175.6" gradientUnits="userSpaceOnUse">
<stop stop-color="#F0F6FA" />
<stop offset="1" stop-color="white" />
</linearGradient><linearGradient id="icon-attractions_paint48_linear_4184_40314" x1="27.8312" y1="-128.602" x2="27.8312" y2="1175.6" gradientUnits="userSpaceOnUse">
<stop stop-color="#F0F6FA" />
<stop offset="1" stop-color="white" />
</linearGradient><linearGradient id="icon-attractions_paint49_linear_4184_40314" x1="27.8312" y1="-128.602" x2="27.8312" y2="1175.6" gradientUnits="userSpaceOnUse">
<stop stop-color="#F0F6FA" />
<stop offset="1" stop-color="white" />
</linearGradient><linearGradient id="icon-attractions_paint50_linear_4184_40314" x1="27.8312" y1="-128.602" x2="27.8312" y2="1175.6" gradientUnits="userSpaceOnUse">
<stop stop-color="#F0F6FA" />
<stop offset="1" stop-color="white" />
</linearGradient><linearGradient id="icon-attractions_paint51_linear_4184_40314" x1="27.8312" y1="-128.602" x2="27.8312" y2="1175.6" gradientUnits="userSpaceOnUse">
<stop stop-color="#F0F6FA" />
<stop offset="1" stop-color="white" />
</linearGradient><linearGradient id="icon-attractions_paint52_linear_4184_40314" x1="27.8312" y1="-128.602" x2="27.8312" y2="1175.6" gradientUnits="userSpaceOnUse">
<stop stop-color="#F0F6FA" />
<stop offset="1" stop-color="white" />
</linearGradient><linearGradient id="icon-attractions_paint53_linear_4184_40314" x1="27.8312" y1="-128.602" x2="27.8312" y2="1175.6" gradientUnits="userSpaceOnUse">
<stop stop-color="#F0F6FA" />
<stop offset="1" stop-color="white" />
</linearGradient><linearGradient id="icon-attractions_paint54_linear_4184_40314" x1="27.8312" y1="-128.602" x2="27.8312" y2="1175.6" gradientUnits="userSpaceOnUse">
<stop stop-color="#F0F6FA" />
<stop offset="1" stop-color="white" />
</linearGradient><linearGradient id="icon-attractions_paint55_linear_4184_40314" x1="27.8312" y1="-128.602" x2="27.8312" y2="1175.6" gradientUnits="userSpaceOnUse">
<stop stop-color="#F0F6FA" />
<stop offset="1" stop-color="white" />
</linearGradient><linearGradient id="icon-attractions_paint56_linear_4184_40314" x1="27.8312" y1="-128.602" x2="27.8312" y2="1175.6" gradientUnits="userSpaceOnUse">
<stop stop-color="#F0F6FA" />
<stop offset="1" stop-color="white" />
</linearGradient><linearGradient id="icon-attractions_paint57_linear_4184_40314" x1="27.8312" y1="-128.602" x2="27.8312" y2="1175.6" gradientUnits="userSpaceOnUse">
<stop stop-color="#F0F6FA" />
<stop offset="1" stop-color="white" />
</linearGradient><linearGradient id="icon-attractions_paint58_linear_4184_40314" x1="27.8312" y1="-128.602" x2="27.8312" y2="1175.6" gradientUnits="userSpaceOnUse">
<stop stop-color="#F0F6FA" />
<stop offset="1" stop-color="white" />
</linearGradient><linearGradient id="icon-attractions_paint59_linear_4184_40314" x1="27.8312" y1="-128.602" x2="27.8312" y2="1175.6" gradientUnits="userSpaceOnUse">
<stop stop-color="#F0F6FA" />
<stop offset="1" stop-color="white" />
</linearGradient><symbol viewBox="0 0 9 6" fill="none" id="icon-chevrone">
<path d="M7.33614 0.87301C7.53141 0.677748 7.84791 0.677748 8.04318 0.87301C8.23844 1.06827 8.23844 1.38478 8.04318 1.58004L4.50021 5.12301C4.30495 5.31827 3.98844 5.31827 3.79318 5.12301L0.250207 1.58004L0.185754 1.50192C0.05759 1.30784 0.0793435 1.04387 0.250207 0.87301C0.421071 0.702146 0.685035 0.680393 0.879113 0.808557L0.957238 0.87301L4.14669 4.06246L7.33614 0.87301Z" fill="currentColor" />
</symbol><symbol viewBox="0 0 13 13" fill="none" id="icon-date">
<path d="M2.09961 1.7002V0.5C2.09961 0.279086 2.27909 0.0996094 2.5 0.0996094C2.72091 0.0996094 2.90039 0.279086 2.90039 0.5V1.7002C2.90029 1.92102 2.72085 2.09961 2.5 2.09961C2.27915 2.09961 2.09971 1.92102 2.09961 1.7002ZM9.2998 1.7002V0.5C9.2998 0.279086 9.47928 0.0996094 9.7002 0.0996094C9.92102 0.0997149 10.0996 0.279151 10.0996 0.5V1.7002C10.0995 1.92095 9.92095 2.0995 9.7002 2.09961C9.47935 2.09961 9.29991 1.92102 9.2998 1.7002Z" fill="currentColor" />
<path d="M3.70605 8.94971L3.81641 8.96143C4.06702 9.01272 4.25586 9.23471 4.25586 9.50049C4.25567 9.76608 4.06688 9.98729 3.81641 10.0386L3.70605 10.0503H3.7002C3.39657 10.0503 3.1506 9.80407 3.15039 9.50049C3.15039 9.19673 3.39644 8.94971 3.7002 8.94971H3.70605ZM6.10254 8.94971L6.21387 8.96143C6.46441 9.01277 6.65332 9.23476 6.65332 9.50049C6.65314 9.76603 6.46427 9.98724 6.21387 10.0386L6.10254 10.0503H6.09766C5.79403 10.0503 5.54806 9.80407 5.54785 9.50049C5.54785 9.19673 5.7939 8.94971 6.09766 8.94971H6.10254ZM3.70605 6.55029L3.81641 6.56104C4.06706 6.6123 4.25586 6.83429 4.25586 7.1001C4.25586 7.36591 4.06706 7.5879 3.81641 7.63916L3.70605 7.6499H3.7002C3.39644 7.6499 3.15039 7.40385 3.15039 7.1001C3.15039 6.79634 3.39644 6.55029 3.7002 6.55029H3.70605ZM6.10254 6.55029L6.21387 6.56104C6.46445 6.61235 6.65332 6.83434 6.65332 7.1001C6.65332 7.36585 6.46445 7.58784 6.21387 7.63916L6.10254 7.6499H6.09766C5.7939 7.6499 5.54785 7.40385 5.54785 7.1001C5.54785 6.79634 5.7939 6.55029 6.09766 6.55029H6.10254ZM8.5 6.55029L8.61133 6.56104C8.86184 6.61241 9.0498 6.83439 9.0498 7.1001C9.0498 7.3658 8.86184 7.58779 8.61133 7.63916L8.5 7.6499H8.49512C8.19136 7.6499 7.94434 7.40385 7.94434 7.1001C7.94434 6.79634 8.19136 6.55029 8.49512 6.55029H8.5Z" fill="currentColor" />
<path d="M11.2002 3.75049L11.2705 3.75732C11.43 3.78996 11.5498 3.93096 11.5498 4.1001C11.5498 4.26924 11.43 4.41024 11.2705 4.44287L11.2002 4.44971H1C0.8067 4.44971 0.650391 4.2934 0.650391 4.1001C0.650391 3.9068 0.8067 3.75049 1 3.75049H11.2002Z" fill="currentColor" />
<path d="M11.4004 6.646C11.4004 5.32843 11.3997 4.37748 11.3096 3.65283C11.2205 2.93689 11.0503 2.50259 10.7559 2.18408C10.4654 1.87003 10.0757 1.69139 9.42773 1.59717C8.76468 1.50079 7.89127 1.50049 6.66992 1.50049H5.53027C4.30902 1.50049 3.43647 1.50081 2.77344 1.59717C2.12529 1.69137 1.73586 1.86998 1.44531 2.18408C1.15072 2.50261 0.980656 2.93675 0.891602 3.65283C0.801491 4.37748 0.800781 5.3284 0.800781 6.646V6.95459C0.800781 8.27203 0.801489 9.22316 0.891602 9.94775C0.980675 10.6637 1.15071 11.098 1.44531 11.4165C1.73584 11.7305 2.12539 11.9082 2.77344 12.0024C3.43648 12.0988 4.30898 12.1001 5.53027 12.1001H6.66992C7.89127 12.1001 8.76468 12.0988 9.42773 12.0024C10.0756 11.9082 10.4654 11.7305 10.7559 11.4165C11.0504 11.098 11.2205 10.6637 11.3096 9.94775C11.3997 9.22316 11.4004 8.27203 11.4004 6.95459V6.646ZM12.2002 6.95459C12.2002 8.25109 12.2012 9.26091 12.1035 10.0464C12.0048 10.8404 11.7993 11.4659 11.3428 11.9595C10.882 12.4576 10.2908 12.6856 9.54199 12.7944C8.80814 12.901 7.86664 12.8999 6.66992 12.8999H5.53027C4.33337 12.8999 3.39209 12.9011 2.6582 12.7944C1.90953 12.6856 1.31907 12.4574 0.858398 11.9595C0.401814 11.4659 0.19642 10.8404 0.0976562 10.0464C-2.82004e-05 9.26091 -1.62498e-07 8.25109 5.96611e-10 6.95459V6.646C-1.70749e-08 5.34941 -1.48192e-05 4.33973 0.0976562 3.5542C0.196407 2.76015 0.40181 2.13475 0.858398 1.64111C1.31908 1.14308 1.90948 0.915003 2.6582 0.806152C3.39209 0.699484 4.33337 0.699707 5.53027 0.699707H6.66992C7.86667 0.699707 8.80813 0.699535 9.54199 0.806152C10.2908 0.914992 10.882 1.14303 11.3428 1.64111C11.7992 2.13472 12.0048 2.76025 12.1035 3.5542C12.2012 4.33972 12.2002 5.34944 12.2002 6.646V6.95459Z" fill="currentColor" />
<path d="M11.501 3.69971L11.582 3.7085C11.7642 3.74591 11.9014 3.9069 11.9014 4.1001C11.9014 4.2933 11.7642 4.45429 11.582 4.4917L11.501 4.50049H0.701172C0.480258 4.50049 0.300781 4.32101 0.300781 4.1001C0.300781 3.87918 0.480258 3.69971 0.701172 3.69971H11.501Z" fill="currentColor" />
</symbol><symbol viewBox="0 0 14 15" fill="none" id="icon-date-2">
<path d="M13.5 11.001C13.4997 13.1177 11.7838 14.8338 9.66699 14.834H4.33301C2.21623 14.8338 0.500264 13.1177 0.5 11.001V6.16699H13.5V11.001ZM3.33398 10.501C3.05784 10.501 2.83398 10.7248 2.83398 11.001C2.83425 11.2769 3.058 11.501 3.33398 11.501H4.00098L4.10156 11.4902C4.32916 11.4436 4.50075 11.2423 4.50098 11.001C4.50098 10.7594 4.32933 10.5574 4.10156 10.5107L4.00098 10.501H3.33398ZM6.66699 10.501C6.391 10.5012 6.16699 10.7249 6.16699 11.001C6.16726 11.2768 6.39116 11.5008 6.66699 11.501H7.33398L7.43457 11.4902C7.66216 11.4436 7.83375 11.2423 7.83398 11.001C7.83398 10.7594 7.66233 10.5574 7.43457 10.5107L7.33398 10.501H6.66699ZM10.001 10.501C9.72483 10.501 9.50098 10.7248 9.50098 11.001C9.50124 11.2769 9.725 11.501 10.001 11.501H10.668L10.7686 11.4902C10.996 11.4434 11.1677 11.2422 11.168 11.001C11.168 10.7595 10.9962 10.5575 10.7686 10.5107L10.668 10.501H10.001ZM3.33398 7.83398C3.0579 7.83398 2.83407 8.05792 2.83398 8.33398C2.83425 8.6099 3.058 8.83398 3.33398 8.83398H4.00098L4.10156 8.82324C4.32914 8.77657 4.50075 8.57531 4.50098 8.33398C4.5009 8.09249 4.32927 7.89042 4.10156 7.84375L4.00098 7.83398H3.33398ZM6.66699 7.83398C6.39105 7.83416 6.16708 8.05803 6.16699 8.33398C6.16726 8.60979 6.39116 8.83381 6.66699 8.83398H7.33398L7.43457 8.82324C7.66216 8.77658 7.83375 8.57533 7.83398 8.33398C7.83391 8.09249 7.66228 7.89042 7.43457 7.84375L7.33398 7.83398H6.66699ZM10.001 7.83398C9.72489 7.83398 9.50107 8.05792 9.50098 8.33398C9.50124 8.6099 9.725 8.83398 10.001 8.83398H10.668L10.7686 8.82324C10.996 8.77645 11.1677 8.5752 11.168 8.33398C11.1679 8.09259 10.9961 7.89053 10.7686 7.84375L10.668 7.83398H10.001ZM9.5 3.33398L9.51074 3.43457C9.55738 3.66226 9.75855 3.83383 10 3.83398C10.2415 3.83383 10.4437 3.66236 10.4902 3.43457L10.5 3.33398V1.92578C12.0571 2.27114 13.2576 3.56282 13.4668 5.16699H0.533203C0.742353 3.56282 1.94292 2.27114 3.5 1.92578V3.33398L3.51074 3.43457C3.55738 3.66226 3.75855 3.83383 4 3.83398C4.24151 3.83383 4.44367 3.66236 4.49023 3.43457L4.5 3.33398V1.83398H9.5V3.33398ZM10 0.833984C10.276 0.83416 10.5 1.05795 10.5 1.33398V1.92578C10.2318 1.86629 9.95316 1.83401 9.66699 1.83398H9.5V1.33398C9.5 1.05795 9.72401 0.83416 10 0.833984ZM4 0.833984C4.27599 0.83416 4.5 1.05795 4.5 1.33398V1.83398H4.33301C4.04684 1.83401 3.76824 1.86629 3.5 1.92578V1.33398C3.5 1.05795 3.72401 0.83416 4 0.833984Z" fill="currentColor" />
</symbol><symbol viewBox="0 0 940 804" fill="none" id="icon-ekb">
<path d="M582.421 613.29H608.156C631.182 613.29 650.144 620.15 650.144 644.846C650.144 668.171 631.182 676.403 608.156 676.403H582.421V613.29ZM608.156 727.167C667.752 727.167 716.513 705.215 716.513 644.846C716.513 583.106 669.107 561.154 608.156 561.154H395.752V613.29H413.699L385.255 681.891L342.589 613.29H362.229V561.154H236.264V613.29H265.385L350.039 739.515C343.267 749.119 328.367 753.236 312.114 747.747L310.759 718.935H257.935V790.28C274.189 798.512 298.569 804 318.886 804C362.229 804 400.154 793.024 435.37 721.679L486.84 613.29H513.343V749.119H486.254V799.884H610.865V747.747H582.421V727.167H608.156ZM688.069 332.027V279.891H602.738L525.533 415.72V332.027H543.141V279.891H437.493V332.027H456.455V467.857H437.493V519.993H522.824L600.029 386.908V467.857H582.421V519.993H688.069V467.857H667.752V332.027H688.069ZM834.352 332.027H851.96V373.188H786.945V332.027H805.908V279.891H700.259V332.027H719.222V467.857H700.259V519.993H805.908V467.857H786.945V423.952H851.96V467.857H834.352V519.993H940V467.857H919.683V332.027H940V279.891H834.352V332.027ZM345.389 467.857H312.882V450.02H334.553C395.504 450.02 434.784 417.092 434.784 363.584C434.784 311.447 394.15 279.891 334.553 279.891H222.133V333.399H245.159V467.857H222.133V519.993H345.389V467.857ZM312.882 332.027H325.072C350.807 332.027 364.352 343.003 364.352 364.956C364.352 386.908 350.807 397.884 325.072 397.884H312.882V332.027ZM728.703 561.154V614.662H754.438V749.119H728.703V799.884H854.669V749.119H822.161V614.662H883.112V640.73H934.582V561.154H728.703ZM132.738 648.276H93.4582V613.29H155.764V633.87H211.297V561.154H0V613.29H24.3804V747.747H0V799.884H132.738C186.916 799.884 231.614 781.705 231.614 724.08C231.614 666.456 189.625 648.276 132.738 648.276ZM131.383 747.747H93.4582V697.669H131.383C150.346 697.669 166.599 702.128 166.599 722.708C166.599 743.288 151.7 747.747 131.383 747.747ZM727.158 186.594L656.725 0H523.988V52.1365H541.596L490.126 183.85C444.074 186.594 423.175 168.758 416.402 131.713C440.783 117.993 465.163 87.8089 465.163 52.1365H493.607V0H381.186V52.1365H401.503C401.503 78.2048 382.541 93.2969 351.388 93.2969H327.008V52.1365H350.034V0H230.84V52.1365H259.284V186.594H230.84V238.73H347.325V186.594H327.008V145.433H354.097C364.933 183.85 386.604 214.034 415.048 226.382C444.846 238.73 455.506 238.73 536.774 238.73H583.584V186.594H561.913L567.331 168.758H645.89L651.308 186.594H632.345V238.73H751.538V186.594H727.158ZM584.939 116.621L605.256 58.9966L626.927 116.621H584.939ZM211.297 159.154H158.473V186.594H93.4582V144.061H154.409V91.9249H93.4582V52.1365H158.473V79.5768H211.297V0H0V52.1365H25.7349V186.594H0V238.73H211.297V159.154ZM712.45 0V78.2048H762.565V52.1365H791.009V186.594H766.628V238.73H885.821V186.594H860.086V52.1365H888.53V78.2048H940V0H712.45ZM211.297 440.416H158.473V467.857H93.4582V425.324H154.409V373.188H93.4582V332.027H158.473V359.468H211.297V279.891H0V332.027H25.7349V467.857H0V519.993H211.297V440.416Z" fill="#F1F7F9" />
</symbol><symbol viewBox="0 0 24 24" fill="none" id="icon-eye">
<path d="M12 5C16.1759 5.00001 19.8086 7.31966 21.6767 10.7354C22.1077 11.5234 22.1077 12.4767 21.6767 13.2646C19.8086 16.6803 16.1759 19 12 19C7.82406 19 4.19131 16.6803 2.32321 13.2646C1.89227 12.4766 1.89226 11.5233 2.32321 10.7354C4.19132 7.31966 7.82405 5 12 5ZM12 7C8.58275 7 5.60886 8.89631 4.07809 11.6953C3.97416 11.8853 3.97417 12.1147 4.07809 12.3047C5.60885 15.1037 8.58276 17 12 17C15.4172 17 18.3911 15.1037 19.9218 12.3047C20.0258 12.1147 20.0258 11.8853 19.9218 11.6953C18.3911 8.89631 15.4172 7.00001 12 7Z" fill="currentColor" />
<path d="M14 12C14 10.8954 13.1046 10 12 10C10.8954 10 10 10.8954 10 12C10 13.1046 10.8954 14 12 14C13.1046 14 14 13.1046 14 12ZM16 12C16 14.2091 14.2091 16 12 16C9.79086 16 8 14.2091 8 12C8 9.79086 9.79086 8 12 8C14.2091 8 16 9.79086 16 12Z" fill="currentColor" />
</symbol><symbol viewBox="0 0 893 1518" fill="none" id="icon-lines">
<rect x="0.533203" y="108.911" width="28.0102" height="1300" fill="currentColor" />
<rect x="48.543" y="108.911" width="28.0102" height="1300" fill="currentColor" />
<rect x="96.5527" y="108.911" width="28.0102" height="1300" fill="currentColor" />
<rect x="144.564" y="108.911" width="28.0102" height="1300" fill="currentColor" />
<rect x="192.574" y="108.911" width="28.0102" height="1300" fill="currentColor" />
<rect x="240.584" y="108.911" width="28.0102" height="1300" fill="currentColor" />
<rect x="288.594" y="108.911" width="28.0102" height="1300" fill="currentColor" />
<rect x="336.605" y="108.911" width="28.0102" height="1300" fill="currentColor" />
<rect x="384.615" y="108.911" width="28.0102" height="1300" fill="currentColor" />
<rect x="432.625" y="108.911" width="28.0102" height="1300" fill="currentColor" />
<rect x="480.635" y="108.911" width="28.0102" height="1300" fill="currentColor" />
<rect x="528.646" y="108.911" width="28.0102" height="1300" fill="currentColor" />
<rect x="576.656" y="108.911" width="28.0102" height="1300" fill="currentColor" />
<rect x="624.666" y="108.911" width="28.0102" height="1300" fill="currentColor" />
<rect x="672.676" y="108.911" width="28.0102" height="1300" fill="currentColor" />
<rect x="720.688" y="108.911" width="28.0102" height="1300" fill="currentColor" />
<rect x="768.697" y="108.911" width="28.0102" height="1300" fill="currentColor" />
<rect x="816.707" y="108.911" width="28.0102" height="1300" fill="currentColor" />
<rect x="864.717" y="108.911" width="28.0102" height="1300" fill="currentColor" />
</symbol><symbol viewBox="0 0 16 17" fill="none" id="icon-location">
<path fill-rule="evenodd" clip-rule="evenodd" d="M2.16797 7.44455C2.16797 4.24904 4.78427 1.66748 8.00059 1.66748C11.2169 1.66748 13.8332 4.24904 13.8332 7.44455C13.8332 9.432 12.6742 11.3935 11.4459 12.8214C10.8243 13.5439 10.1645 14.154 9.58257 14.5878C9.29206 14.8043 9.01284 14.9831 8.76081 15.11C8.52454 15.229 8.25472 15.3325 8.00059 15.3325C7.74646 15.3325 7.47664 15.229 7.24037 15.11C6.98834 14.9831 6.70912 14.8043 6.41861 14.5878C5.83666 14.154 5.1769 13.5439 4.5553 12.8214C3.32697 11.3935 2.16797 9.432 2.16797 7.44455ZM7.99996 9.16752C6.89539 9.16752 5.99996 8.27209 5.99996 7.16752C5.99996 6.06295 6.89539 5.16752 7.99996 5.16752C9.10453 5.16752 9.99996 6.06295 9.99996 7.16752C9.99996 8.27209 9.10453 9.16752 7.99996 9.16752Z" fill="currentColor" />
</symbol><symbol viewBox="0 0 193 96" fill="none" id="icon-pick-your-route-1">
<path d="M128.15 6.59273C102.15 -0.907053 46.6502 -1.90739 24.6501 10.0927C2.6501 22.0927 0.850139 39.9926 1.65014 53.5926C2.65014 70.5926 10.6504 83.5928 24.6501 90.0928C42.7107 98.4782 132.65 92.5928 148.65 90.0928C164.65 87.5928 187.65 75.5926 191.15 56.5926C194.65 37.5926 154.151 14.0925 128.15 6.59273Z" fill="#F4F8FB" stroke="currentColor" stroke-width="2" stroke-dasharray="6 6" />
</symbol><symbol viewBox="0 0 192 96" fill="none" id="icon-pick-your-route-1-2">
<path d="M127.646 6.59273C101.646 -0.907053 46.1463 -1.90739 24.1462 10.0927C2.1462 22.0927 0.346233 39.9926 1.14623 53.5926C2.14623 70.5926 10.1465 83.5928 24.1462 90.0928C42.2068 98.4782 132.146 92.5928 148.146 90.0928C164.146 87.5928 187.146 75.5926 190.646 56.5926C194.146 37.5926 153.647 14.0925 127.646 6.59273Z" fill="#F4F8FB" stroke="currentColor" stroke-width="2" stroke-dasharray="6 6" />
</symbol><symbol viewBox="0 0 124 117" fill="none" id="icon-pick-your-route-2">
<path d="M119.504 35.5L120.398 35.0528L119.504 35.5ZM77.5985 112.914C77.0936 112.69 76.8659 112.099 77.0898 111.595L80.7384 103.367C80.9623 102.862 81.553 102.635 82.0579 102.859C82.5628 103.083 82.7905 103.673 82.5666 104.178L79.3234 111.491L86.6366 114.734C87.1414 114.958 87.3692 115.549 87.1453 116.054C86.9214 116.559 86.3306 116.787 85.8258 116.563L77.5985 112.914ZM1.4668 0.628906L2.24553 0.00155401C2.90516 0.820358 3.57027 1.59539 4.24052 2.32863L3.50242 3.00332L2.76433 3.67802C2.06509 2.91307 1.37293 2.10639 0.688061 1.25626L1.4668 0.628906ZM7.93062 7.2167L8.56396 6.44283C10.1852 7.76968 11.833 8.89103 13.5041 9.83184L13.0135 10.7032L12.5229 11.5746C10.7488 10.5758 9.00575 9.3888 7.29727 7.99057L7.93062 7.2167ZM18.6094 13.2048L18.9313 12.258C20.8366 12.9059 22.7727 13.3664 24.7366 13.6702L24.5838 14.6585L24.4309 15.6467C22.3608 15.3265 20.3109 14.8396 18.2875 14.1516L18.6094 13.2048ZM30.7124 15.1417L30.7223 14.1417C32.7124 14.1615 34.7265 14.0583 36.7614 13.8611L36.8579 14.8565L36.9543 15.8518C34.8605 16.0546 32.7746 16.1622 30.7024 16.1416L30.7124 15.1417ZM42.9549 14.0269L42.7872 13.0411C44.7764 12.7026 46.7783 12.3048 48.7909 11.8742L49.0001 12.8521L49.2093 13.83C47.1786 14.2644 45.1478 14.6682 43.1227 15.0127L42.9549 14.0269ZM55.0066 11.5033L54.7817 10.529C56.7794 10.0678 58.7867 9.60039 60.7911 9.15525L61.0079 10.1315L61.2247 11.1077C59.2307 11.5505 57.2346 12.0153 55.2316 12.4777L55.0066 11.5033ZM67.0393 8.88399L66.8554 7.90105C68.9033 7.51777 70.9502 7.18466 72.9907 6.93106L73.114 7.92342L73.2374 8.91579C71.2465 9.16323 69.241 9.48929 67.2233 9.86692L67.0393 8.88399ZM79.253 7.43321L79.223 6.43366C81.3254 6.37064 83.4184 6.42567 85.4959 6.63242L85.3969 7.62751L85.2978 8.62259C83.3171 8.42547 81.3111 8.37197 79.2829 8.43276L79.253 7.43321ZM91.4462 8.71521L91.7045 7.74916C93.7067 8.28456 95.6859 8.99806 97.6366 9.92037L97.2092 10.8244L96.7818 11.7285C94.9442 10.8596 93.0785 10.1869 91.1879 9.68127L91.4462 8.71521ZM102.511 13.9387L103.09 13.1236C104.729 14.2885 106.339 15.6295 107.918 17.1649L107.221 17.8818L106.524 18.5987C105.015 17.1316 103.484 15.8568 101.932 14.7538L102.511 13.9387ZM111.327 22.4263L112.108 21.8016C113.345 23.3481 114.56 25.0341 115.751 26.8692L114.912 27.4137L114.073 27.9581C112.915 26.1745 111.739 24.5426 110.546 23.0509L111.327 22.4263ZM118.046 32.7004L118.924 32.2233C119.42 33.1365 119.912 34.0794 120.398 35.0528L119.504 35.5L118.609 35.9472C118.133 34.9933 117.652 34.0704 117.167 33.1776L118.046 32.7004ZM119.504 35.5L120.398 35.0528C120.839 35.9347 121.227 36.9064 121.56 37.9547L120.607 38.2577L119.654 38.5607C119.348 37.5976 118.998 36.724 118.609 35.9472L119.504 35.5ZM121.801 44.0965L122.795 43.9842C123.01 45.8843 123.103 47.9233 123.066 50.0683L122.066 50.0509L121.066 50.0335C121.102 47.9675 121.012 46.0155 120.808 44.2089L121.801 44.0965ZM121.645 56.0039L122.638 56.1244C122.402 58.0669 122.068 60.0657 121.629 62.1016L120.652 61.8912L119.674 61.6808C120.1 59.7035 120.424 57.7646 120.652 55.8833L121.645 56.0039ZM119.147 67.6655L120.103 67.9585C119.524 69.8481 118.855 71.7539 118.091 73.6617L117.163 73.2902L116.234 72.9187C116.977 71.0631 117.628 69.2097 118.191 67.3725L119.147 67.6655ZM114.719 78.7296L115.614 79.1771C114.724 80.9541 113.749 82.7212 112.682 84.4666L111.829 83.9453L110.976 83.424C112.012 81.7278 112.96 80.0101 113.825 78.2822L114.719 78.7296ZM108.504 88.8963L109.31 89.4892C108.129 91.0932 106.863 92.6675 105.51 94.2021L104.76 93.5407L104.01 92.8792C105.323 91.3897 106.552 89.8612 107.699 88.3034L108.504 88.8963ZM100.615 97.8374L101.303 98.5631C99.8613 99.9299 98.3385 101.252 96.7322 102.522L96.112 101.738L95.4919 100.953C97.0506 99.7211 98.5282 98.4378 99.9273 97.1116L100.615 97.8374ZM91.2716 105.225L91.8195 106.061C90.161 107.147 88.4274 108.18 86.6164 109.152L86.1435 108.271L85.6705 107.39C87.43 106.445 89.1137 105.443 90.7237 104.388L91.2716 105.225ZM80.776 110.866L81.1734 111.784C80.2542 112.182 79.3177 112.565 78.3636 112.933L78.0039 112L77.6442 111.067C78.573 110.709 79.4844 110.336 80.3786 109.949L80.776 110.866Z" fill="currentColor" />
</symbol><symbol viewBox="0 0 243 121" fill="none" id="icon-pick-your-route-2-2">
<path d="M125.505 119.232L125.611 118.238L125.505 119.232ZM239.67 42.2462C240.213 42.1446 240.735 42.5024 240.837 43.0452L242.492 51.8918C242.593 52.4346 242.236 52.957 241.693 53.0586C241.15 53.1602 240.628 52.8024 240.526 52.2595L239.055 44.3959L231.191 45.867C230.648 45.9685 230.126 45.6108 230.025 45.0679C229.923 44.525 230.281 44.0026 230.824 43.9011L239.67 42.2462ZM0.962891 0.628906L1.88573 0.243714C2.2834 1.19644 2.67708 2.15081 3.06736 3.10646L2.14158 3.48454L1.21581 3.86261C0.827303 2.9113 0.435582 1.9617 0.0400543 1.0141L0.962891 0.628906ZM4.44249 9.21967L5.37255 8.85226C6.13046 10.7709 6.87961 12.6923 7.6245 14.6134L6.69213 14.9749L5.75976 15.3364C5.01571 13.4175 4.26822 11.5003 3.51243 9.58707L4.44249 9.21967ZM8.92027 20.7388L9.85306 20.3783C10.596 22.3011 11.3393 24.2208 12.0881 26.1356L11.1568 26.4997L10.2255 26.8639C9.47519 24.9453 8.73067 23.0226 7.98748 21.0992L8.92027 20.7388ZM13.4315 32.2456L14.3594 31.8727C15.127 33.7831 15.9045 35.6853 16.697 37.5769L15.7746 37.9633L14.8523 38.3497C14.0554 36.4475 13.2741 34.5361 12.5036 32.6184L13.4315 32.2456ZM18.2165 43.6389L19.1309 43.234C19.963 45.1134 20.8149 46.9791 21.6914 48.8287L20.7878 49.257L19.8841 49.6852C18.9994 47.8185 18.1404 45.937 17.3021 44.0437L18.2165 43.6389ZM23.5191 54.8004L24.4088 54.3439C25.3447 56.1683 26.3103 57.9734 27.3106 59.7568L26.4384 60.246L25.5662 60.7352C24.5529 58.9286 23.5756 57.1015 22.6293 55.2568L23.5191 54.8004ZM29.5729 65.57L30.4233 65.0439C31.498 66.7812 32.6122 68.494 33.7708 70.1796L32.9467 70.7461L32.1226 71.3125C30.9448 69.5989 29.8131 67.8592 28.7224 66.0961L29.5729 65.57ZM36.5789 75.7451L37.3718 75.1357C38.61 76.7466 39.8964 78.3285 41.2358 79.8789L40.4791 80.5326L39.7224 81.1864C38.3571 79.6061 37.0466 77.9946 35.7861 76.3545L36.5789 75.7451ZM44.6544 85.0819L45.3702 84.3836C46.7815 85.8303 48.2476 87.2449 49.7731 88.6248L49.1023 89.3664L48.4314 90.108C46.8744 88.6996 45.3783 87.2561 43.9385 85.7802L44.6544 85.0819ZM53.8122 93.3639L54.4349 92.5814C56.0097 93.8346 57.643 95.0542 59.3386 96.238L58.7662 97.058L58.1937 97.8779C56.4637 96.6701 54.7969 95.4255 53.1895 94.1464L53.8122 93.3639ZM63.9402 100.439L64.4616 99.5857C66.1737 100.632 67.9445 101.645 69.7773 102.622L69.3066 103.505L68.836 104.387C66.9691 103.391 65.1644 102.359 63.4188 101.292L63.9402 100.439ZM74.8366 106.259L75.2578 105.352C77.0735 106.195 78.9454 107.007 80.8763 107.785L80.5024 108.713L80.1285 109.64C78.1663 108.849 76.2627 108.024 74.4153 107.166L74.8366 106.259ZM86.2796 110.881L86.6087 109.936C88.498 110.595 90.4396 111.224 92.4358 111.822L92.1486 112.78L91.8615 113.738C89.8378 113.131 87.8682 112.493 85.9506 111.825L86.2796 110.881ZM98.0949 114.43L98.3429 113.461C100.287 113.959 102.279 114.429 104.321 114.872L104.109 115.849L103.898 116.826C101.832 116.379 99.8154 115.902 97.8469 115.398L98.0949 114.43ZM110.188 117.056L110.366 116.072C112.347 116.431 114.371 116.765 116.441 117.073L116.294 118.062L116.146 119.051C114.056 118.74 112.011 118.402 110.01 118.04L110.188 117.056ZM122.384 118.88L122.504 117.887C123.529 118.01 124.565 118.127 125.611 118.238L125.505 119.232L125.4 120.227C124.344 120.115 123.3 119.997 122.265 119.873L122.384 118.88ZM125.505 119.232L125.611 118.238C126.603 118.343 127.591 118.428 128.575 118.492L128.51 119.49L128.444 120.488C127.434 120.422 126.419 120.335 125.4 120.227L125.505 119.232ZM134.506 119.64L134.491 118.64C136.48 118.61 138.449 118.499 140.4 118.312L140.495 119.308L140.59 120.303C138.588 120.495 136.564 120.609 134.522 120.64L134.506 119.64ZM146.443 118.504L146.271 117.518C148.224 117.177 150.158 116.762 152.069 116.279L152.314 117.248L152.559 118.218C150.601 118.713 148.619 119.138 146.615 119.489L146.443 118.504ZM158.078 115.571L157.766 114.622C159.646 114.003 161.505 113.32 163.34 112.579L163.714 113.507L164.089 114.434C162.214 115.19 160.315 115.888 158.391 116.521L158.078 115.571ZM169.209 111.089L168.779 110.186C170.569 109.334 172.334 108.429 174.074 107.477L174.554 108.354L175.034 109.232C173.262 110.201 171.464 111.123 169.639 111.992L169.209 111.089ZM179.744 105.336L179.22 104.484C180.911 103.442 182.576 102.359 184.215 101.239L184.779 102.065L185.343 102.89C183.68 104.027 181.988 105.128 180.269 106.187L179.744 105.336ZM189.661 98.5689L189.061 97.7685C190.656 96.5742 192.223 95.349 193.761 94.0986L194.392 94.8745L195.023 95.6504C193.465 96.9168 191.877 98.1584 190.26 99.3694L189.661 98.5689ZM198.981 90.9995L198.323 90.2472C199.829 88.928 201.305 87.5888 202.749 86.2355L203.432 86.9652L204.116 87.6948C202.657 89.0627 201.164 90.4171 199.64 91.7518L198.981 90.9995ZM207.748 82.7906L207.042 82.0826C208.465 80.6631 209.853 79.2353 211.205 77.8058L211.931 78.4931L212.658 79.1803C211.293 80.6231 209.891 82.0647 208.454 83.4985L207.748 82.7906ZM216.005 74.0686L215.26 73.4011C216.613 71.8909 217.926 70.3866 219.195 68.8963L219.957 69.5448L220.718 70.1934C219.438 71.6958 218.114 73.2127 216.749 74.736L216.005 74.0686ZM223.789 64.937L223.013 64.3065C224.31 62.7102 225.554 61.1407 226.744 59.6086L227.534 60.222L228.324 60.8354C227.125 62.3782 225.872 63.9592 224.565 65.5676L223.789 64.937ZM231.162 55.4503L230.36 54.8531C231.613 53.1694 232.791 51.5523 233.889 50.0185L234.702 50.6008L235.515 51.1831C234.41 52.7258 233.226 54.3529 231.964 56.0476L231.162 55.4503ZM238.16 45.689L237.338 45.1195C237.937 44.2558 238.5 43.4358 239.029 42.6641L239.854 43.2291L240.679 43.7941C240.149 44.568 239.583 45.3911 238.982 46.2586L238.16 45.689Z" fill="currentColor" />
</symbol><symbol viewBox="0 0 16 13" fill="none" id="icon-polygon-arrow">
<path d="M8 13L16 -4.76837e-07H0L8 13Z" fill="currentColor" />
</symbol><symbol viewBox="0 0 24 24" fill="none" id="icon-search">
<path d="M18 11C18 7.13396 14.866 3.99996 11 3.99996C7.13401 3.99996 4 7.13396 4 11C4 14.8659 7.13401 18 11 18C14.866 18 18 14.8659 18 11ZM20 11C20 15.9705 15.9706 20 11 20C6.02944 20 2 15.9705 2 11C2 6.02939 6.02944 1.99996 11 1.99996C15.9706 1.99996 20 6.02939 20 11Z" fill="currentColor" />
<path d="M15.7929 16.2509C16.1834 15.8604 16.8164 15.8604 17.2069 16.2509L22.2069 21.2509C22.5975 21.6415 22.5975 22.2745 22.2069 22.665C21.8164 23.0555 21.1834 23.0555 20.7929 22.665L15.7929 17.665C15.4024 17.2745 15.4024 16.6415 15.7929 16.2509Z" fill="currentColor" />
</symbol><symbol viewBox="0 0 12 12" fill="none" id="icon-star">
<path d="M5.99919 8.63748L3.92419 9.88748C3.83252 9.94581 3.73669 9.97081 3.63669 9.96247C3.53669 9.95414 3.44919 9.92081 3.37419 9.86248C3.29919 9.80414 3.24085 9.73131 3.19919 9.64398C3.15752 9.55664 3.14919 9.45864 3.17419 9.34998L3.72419 6.98748L1.88669 5.39998C1.80335 5.32498 1.75135 5.23948 1.73069 5.14348C1.71002 5.04748 1.71619 4.95381 1.74919 4.86248C1.78219 4.77114 1.83219 4.69614 1.89919 4.63748C1.96619 4.57881 2.05785 4.54131 2.17419 4.52498L4.59919 4.31248L5.53669 2.08748C5.57835 1.98748 5.64302 1.91248 5.73069 1.86248C5.81835 1.81248 5.90785 1.78748 5.99919 1.78748C6.09052 1.78748 6.18002 1.81248 6.26769 1.86248C6.35535 1.91248 6.42002 1.98748 6.46169 2.08748L7.39919 4.31248L9.82419 4.52498C9.94085 4.54164 10.0325 4.57914 10.0992 4.63748C10.1659 4.69581 10.2159 4.77081 10.2492 4.86248C10.2825 4.95414 10.2889 5.04798 10.2682 5.14398C10.2475 5.23998 10.1954 5.32531 10.1117 5.39998L8.27419 6.98748L8.82419 9.34998C8.84919 9.45831 8.84085 9.55631 8.79919 9.64398C8.75752 9.73164 8.69919 9.80448 8.62419 9.86248C8.54919 9.92048 8.46169 9.95381 8.36169 9.96247C8.26169 9.97114 8.16585 9.94614 8.07419 9.88748L5.99919 8.63748Z" fill="currentColor" />
</symbol><symbol viewBox="0 0 364 80" fill="none" id="icon-wave">
<g>
<path d="M69.0584 76.8961C54.4048 77.1607 46.6029 69.541 40.8141 63.9554C35.6622 59.0217 33.1603 56.7739 27.3512 56.855C21.542 56.9361 19.0646 59.2534 14.0761 64.3487C8.50796 69.9727 0.905851 77.7674 -13.7477 78.032C-28.4013 78.2966 -36.2032 70.6769 -41.992 65.0914C-47.144 60.1577 -49.6459 57.9099 -55.4551 57.991C-61.2642 58.0721 -63.7415 60.3892 -68.73 65.4844C-74.2981 71.1084 -81.9002 78.9034 -96.5539 79.168C-111.208 79.4327 -119.009 71.8127 -124.798 66.2272C-129.95 61.2934 -132.452 59.0459 -138.261 59.127L-138.554 38.6079C-123.9 38.3433 -116.099 45.9631 -110.31 51.5486C-105.158 56.4824 -102.656 58.7302 -96.8467 58.649C-91.0376 58.5679 -88.5602 56.2507 -83.5717 51.1554C-78.0036 45.5314 -70.4015 37.7366 -55.7479 37.472C-41.0943 37.2074 -33.2925 44.8273 -27.5037 50.4128C-22.3517 55.3465 -19.8498 57.5941 -14.0406 57.513C-8.23145 57.4319 -5.75406 55.1147 -0.765492 50.0194C4.8026 44.3954 12.4047 36.6006 27.0583 36.3361C41.7119 36.0714 49.5138 43.6913 55.3026 49.2768C60.4545 54.2105 62.9565 56.4581 68.7656 56.377L69.0584 76.8961Z" fill="currentColor" />
<path d="M234.477 74.5501C219.823 74.8148 212.021 67.195 206.233 61.6095C201.081 56.6757 198.579 54.428 192.77 54.5091C186.96 54.5903 184.483 56.9074 179.495 62.0028C173.926 67.6267 166.324 75.4215 151.671 75.6861C137.017 75.9507 129.215 68.3309 123.427 62.7453C118.275 57.8117 115.773 55.564 109.963 55.6451C104.154 55.7262 101.677 58.0432 96.6885 63.1385C91.1204 68.7624 83.5183 76.5573 68.8647 76.822C54.2111 77.0866 46.4092 69.4668 40.6204 63.8812C35.4685 58.9475 32.9666 56.6998 27.1574 56.7809L26.8646 36.2619C41.5182 35.9972 49.3199 43.6171 55.1087 49.2027C60.2606 54.1365 62.7626 56.3841 68.5719 56.3029C74.381 56.2218 76.8583 53.9048 81.8468 48.8095C87.4149 43.1855 95.017 35.3907 109.671 35.126C124.324 34.8615 132.126 42.4812 137.915 48.0668C143.067 53.0005 145.569 55.2482 151.378 55.1671C157.187 55.086 159.664 52.7687 164.653 47.6734C170.221 42.0494 177.823 34.2547 192.477 33.9901C207.13 33.7255 214.932 41.3453 220.721 46.9309C225.873 51.8646 228.375 54.1122 234.184 54.0311L234.477 74.5501Z" fill="currentColor" />
<path d="M398.83 72.2096C384.176 72.4743 376.374 64.8545 370.586 59.2689C365.434 54.3351 362.932 52.0876 357.123 52.1687C351.313 52.2498 348.836 54.5668 343.848 59.6622C338.279 65.2862 330.677 73.0809 316.024 73.3455C301.37 73.6102 293.568 65.9905 287.78 60.4048C282.628 55.4712 280.126 53.2235 274.316 53.3046C268.507 53.3858 266.03 55.7028 261.041 60.7981C255.473 66.4221 247.871 74.2169 233.218 74.4815C218.564 74.7461 210.762 67.1262 204.973 61.5407C199.821 56.607 197.32 54.3594 191.51 54.4404L191.218 33.9214C205.871 33.6568 213.673 41.2767 219.462 46.8623C224.614 51.796 227.116 54.0436 232.925 53.9625C238.734 53.8815 241.211 51.5643 246.2 46.469C251.768 40.845 259.37 33.0502 274.023 32.7856C288.677 32.521 296.479 40.1407 302.268 45.7263C307.42 50.66 309.922 52.9076 315.731 52.8265C321.54 52.7454 324.017 50.4283 329.006 45.333C334.574 39.7091 342.176 31.9143 356.83 31.6497C371.483 31.385 379.285 39.0047 385.074 44.5903C390.226 49.5241 392.728 51.7717 398.537 51.6906L398.83 72.2096Z" fill="currentColor" />
<path d="M564.248 69.8636C549.595 70.1283 541.793 62.5085 536.004 56.9229C530.852 51.9892 528.35 49.7417 522.541 49.8227C516.732 49.9038 514.255 52.2208 509.266 57.3161C503.698 62.9401 496.096 70.7349 481.442 70.9996C466.789 71.2643 458.987 63.6445 453.198 58.0588C448.046 53.1251 445.544 50.8775 439.735 50.9585C433.926 51.0397 431.448 53.3568 426.46 58.4521C420.892 64.0761 413.29 71.871 398.636 72.1356C383.983 72.4002 376.181 64.7803 370.392 59.1947C365.24 54.261 362.738 52.0134 356.929 52.0945L356.636 31.5755C371.29 31.3109 379.091 38.9307 384.88 44.5162C390.032 49.4499 392.534 51.6977 398.343 51.6166C404.152 51.5355 406.63 49.2183 411.618 44.1229C417.186 38.499 424.789 30.7042 439.442 30.4396C454.096 30.175 461.898 37.7948 467.686 43.3804C472.838 48.314 475.34 50.5616 481.149 50.4805C486.959 50.3995 489.436 48.0823 494.424 42.9871C499.992 37.3631 507.595 29.5683 522.248 29.3036C536.902 29.039 544.704 36.6588 550.493 42.2443C555.644 47.1781 558.147 49.4256 563.956 49.3446L564.248 69.8636Z" fill="currentColor" />
<path d="M728.302 67.2927C713.648 67.5573 705.846 59.9375 700.057 54.352C694.905 49.4183 692.403 47.1706 686.594 47.2517C680.785 47.3328 678.308 49.65 673.319 54.7452C667.751 60.3692 660.149 68.164 645.495 68.4287C630.842 68.6933 623.04 61.0735 617.251 55.488C612.099 50.5542 609.597 48.3065 603.788 48.3876C597.979 48.4687 595.502 50.7857 590.513 55.8811C584.945 61.505 577.343 69.3 562.689 69.5646C548.036 69.8293 540.234 62.2094 534.445 56.6239C529.293 51.6902 526.791 49.4425 520.982 49.5236L520.689 29.0045C535.343 28.7399 543.145 36.3598 548.933 41.9453C554.085 46.879 556.587 49.1267 562.396 49.0456C568.206 48.9645 570.683 46.6473 575.671 41.5521C581.24 35.9281 588.842 28.1332 603.495 27.8686C618.149 27.6039 625.951 35.2238 631.74 40.8093C636.891 45.7431 639.393 47.9907 645.203 47.9096C651.012 47.8285 653.489 45.5114 658.478 40.4161C664.046 34.7921 671.648 26.9973 686.301 26.7327C700.955 26.468 708.757 34.0879 714.546 39.6734C719.698 44.6072 722.2 46.8548 728.009 46.7737L728.302 67.2927Z" fill="currentColor" />
<path d="M893.72 64.9467C879.066 65.2114 871.265 57.5916 865.476 52.0061C860.324 47.0723 857.822 44.8247 852.013 44.9058C846.204 44.9868 843.726 47.304 838.738 52.3992C833.17 58.0232 825.567 65.8181 810.914 66.0827C796.26 66.3474 788.459 58.7275 782.67 53.1419C777.518 48.2081 775.016 45.9606 769.207 46.0416C763.397 46.1227 760.92 48.4398 755.932 53.5352C750.364 59.1591 742.761 66.954 728.108 67.2186C713.454 67.4833 705.652 59.8635 699.864 54.2778C694.712 49.3442 692.21 47.0966 686.401 47.1776L686.108 26.6586C700.761 26.3939 708.563 34.0137 714.352 39.5993C719.504 44.533 722.006 46.7807 727.815 46.6996C733.624 46.6186 736.101 44.3014 741.09 39.2061C746.658 33.5822 754.26 25.7873 768.914 25.5226C783.567 25.258 791.369 32.8778 797.158 38.4634C802.31 43.3972 804.812 45.6447 810.621 45.5636C816.43 45.4826 818.908 43.1654 823.896 38.0701C829.464 32.4461 837.066 24.6514 851.72 24.3867C866.374 24.1221 874.175 31.7419 879.964 37.3275C885.116 42.2611 887.618 44.5088 893.427 44.4277L893.72 64.9467Z" fill="currentColor" />
<path d="M1058.07 62.6062C1043.42 62.8709 1035.62 55.2511 1029.83 49.6655C1024.68 44.7318 1022.17 42.4841 1016.37 42.5653C1010.56 42.6464 1008.08 44.9635 1003.09 50.0588C997.523 55.6827 989.92 63.4776 975.267 63.7422C960.613 64.0068 952.811 56.387 947.023 50.8014C941.871 45.8677 939.369 43.6201 933.56 43.7012C927.75 43.7823 925.273 46.0994 920.285 51.1946C914.716 56.8186 907.114 64.6135 892.461 64.8782C877.807 65.1428 870.005 57.523 864.216 51.9374C859.065 47.0036 856.563 44.756 850.753 44.8371L850.461 24.3181C865.114 24.0534 872.916 31.6732 878.705 37.2588C883.857 42.1925 886.359 44.4402 892.168 44.3591C897.977 44.278 900.454 41.9609 905.443 36.8656C911.011 31.2416 918.613 23.4468 933.267 23.1821C947.92 22.9175 955.722 30.5373 961.511 36.1229C966.663 41.0566 969.165 43.3043 974.974 43.2232C980.783 43.1421 983.261 40.8249 988.249 35.7296C993.817 30.1056 1001.42 22.3108 1016.07 22.0462C1030.73 21.7816 1038.53 29.4014 1044.32 34.987C1049.47 39.9207 1051.97 42.1683 1057.78 42.0872L1058.07 62.6062Z" fill="currentColor" />
<path d="M1223.49 60.2602C1208.84 60.5249 1201.04 52.9052 1195.25 47.3196C1190.1 42.3859 1187.59 40.1382 1181.78 40.2193C1175.98 40.3004 1173.5 42.6175 1168.51 47.7128C1162.94 53.3368 1155.34 61.1316 1140.69 61.3962C1126.03 61.6608 1118.23 54.041 1112.44 48.4555C1107.29 43.5218 1104.79 41.2741 1098.98 41.3552C1093.17 41.4363 1090.69 43.7534 1085.7 48.8487C1080.14 54.4727 1072.53 62.2675 1057.88 62.5321C1043.23 62.7968 1035.42 55.177 1029.63 49.5914C1024.48 44.6577 1021.98 42.41 1016.17 42.4911L1015.88 21.9721C1030.53 21.7075 1038.33 29.3272 1044.12 34.9128C1049.28 39.8465 1051.78 42.0942 1057.59 42.0131C1063.4 41.932 1065.87 39.6149 1070.86 34.5196C1076.43 28.8956 1084.03 21.1008 1098.69 20.8362C1113.34 20.5716 1121.14 28.1914 1126.93 33.777C1132.08 38.7107 1134.58 40.9583 1140.39 40.8772C1146.2 40.7961 1148.68 38.479 1153.67 33.3836C1159.24 27.7597 1166.84 19.965 1181.49 19.7003C1196.15 19.4357 1203.95 27.0555 1209.74 32.641C1214.89 37.5747 1217.39 39.8224 1223.2 39.7413L1223.49 60.2602Z" fill="currentColor" />
<path d="M1387.54 57.6893C1372.89 57.954 1365.09 50.3341 1359.3 44.7486C1354.15 39.8149 1351.65 37.5672 1345.84 37.6484C1340.03 37.7295 1337.55 40.0465 1332.56 45.1419C1326.99 50.7659 1319.39 58.5606 1304.74 58.8252C1290.08 59.0899 1282.28 51.4701 1276.49 45.8846C1271.34 40.9508 1268.84 38.7031 1263.03 38.7842C1257.22 38.8653 1254.74 41.1824 1249.76 46.2777C1244.19 51.9016 1236.59 59.6966 1221.93 59.9612C1207.28 60.2259 1199.48 52.606 1193.69 47.0205C1188.54 42.0868 1186.03 39.8391 1180.23 39.9202L1179.93 19.4012C1194.59 19.1366 1202.39 26.7564 1208.18 32.3419C1213.33 37.2756 1215.83 39.5233 1221.64 39.4422C1227.45 39.3611 1229.93 37.044 1234.91 31.9487C1240.48 26.3247 1248.08 18.5298 1262.74 18.2651C1277.39 18.0006 1285.19 25.6205 1290.98 31.2061C1296.13 36.1397 1298.64 38.3873 1304.45 38.3062C1310.25 38.2251 1312.73 35.9079 1317.72 30.8127C1323.29 25.1887 1330.89 17.394 1345.54 17.1294C1360.2 16.8647 1368 24.4845 1373.79 30.0701C1378.94 35.0038 1381.44 37.2514 1387.25 37.1704L1387.54 57.6893Z" fill="currentColor" />
<path d="M1552.96 55.3434C1538.31 55.608 1530.51 47.9882 1524.72 42.4026C1519.57 37.4689 1517.06 35.2212 1511.26 35.3024C1505.45 35.3834 1502.97 37.7007 1497.98 42.796C1492.41 48.42 1484.81 56.2147 1470.16 56.4793C1455.5 56.744 1447.7 49.1242 1441.91 43.5386C1436.76 38.6049 1434.26 36.3572 1428.45 36.4383C1422.64 36.5194 1420.16 38.8365 1415.17 43.9318C1409.61 49.5557 1402 57.3506 1387.35 57.6153C1372.7 57.8799 1364.9 50.2601 1359.11 44.6744C1353.95 39.7407 1351.45 37.4932 1345.64 37.5742L1345.35 17.0551C1360 16.7905 1367.81 24.4103 1373.6 29.9959C1378.75 34.9296 1381.25 37.1773 1387.06 37.0962C1392.87 37.0151 1395.34 34.698 1400.33 29.6027C1405.9 23.9788 1413.5 16.1839 1428.16 15.9192C1442.81 15.6546 1450.61 23.2745 1456.4 28.8601C1461.55 33.7938 1464.05 36.0414 1469.86 35.9603C1475.67 35.8792 1478.15 33.562 1483.14 28.4667C1488.71 22.8428 1496.31 15.048 1510.96 14.7834C1525.62 14.5187 1533.42 22.1385 1539.21 27.7241C1544.36 32.6578 1546.86 34.9055 1552.67 34.8244L1552.96 55.3434Z" fill="currentColor" />
<path d="M1717.32 53.0029C1702.66 53.2676 1694.86 45.6476 1689.07 40.0621C1683.92 35.1284 1681.42 32.8808 1675.61 32.9619C1669.8 33.043 1667.32 35.3601 1662.33 40.4555C1656.77 46.0794 1649.16 53.8741 1634.51 54.1388C1619.86 54.4034 1612.05 46.7837 1606.27 41.1981C1601.11 36.2643 1598.61 34.0166 1592.8 34.0977C1586.99 34.1788 1584.52 36.4959 1579.53 41.5913C1573.96 47.2153 1566.36 55.0102 1551.7 55.2748C1537.05 55.5394 1529.25 47.9196 1523.46 42.334C1518.31 37.4003 1515.81 35.1527 1510 35.2338L1509.7 14.7147C1524.36 14.4501 1532.16 22.0699 1537.95 27.6554C1543.1 32.5891 1545.6 34.8369 1551.41 34.7558C1557.22 34.6747 1559.7 32.3575 1564.69 27.2623C1570.25 21.6383 1577.86 13.8433 1592.51 13.5787C1607.16 13.314 1614.97 20.934 1620.75 26.5196C1625.91 31.4533 1628.41 33.7008 1634.22 33.6197C1640.03 33.5386 1642.5 31.2215 1647.49 26.1262C1653.06 20.5022 1660.66 12.7075 1675.32 12.4429C1689.97 12.1783 1697.77 19.7979 1703.56 25.3836C1708.71 30.3173 1711.21 32.565 1717.02 32.4839L1717.32 53.0029Z" fill="currentColor" />
<path d="M1882.73 50.6569C1868.08 50.9216 1860.28 43.3017 1854.49 37.7162C1849.34 32.7825 1846.84 30.5349 1841.03 30.616C1835.22 30.6971 1832.74 33.0142 1827.75 38.1095C1822.18 43.7335 1814.58 51.5282 1799.93 51.7928C1785.27 52.0574 1777.47 44.4377 1771.68 38.852C1766.53 33.9183 1764.03 31.6707 1758.22 31.7518C1752.41 31.8329 1749.93 34.15 1744.95 39.2453C1739.38 44.8693 1731.78 52.6642 1717.12 52.9288C1702.47 53.1934 1694.67 45.5737 1688.88 39.9881C1683.73 35.0544 1681.22 32.8067 1675.42 32.8878L1675.12 12.3688C1689.78 12.1041 1697.58 19.7238 1703.37 25.3094C1708.52 30.2431 1711.02 32.4908 1716.83 32.4098C1722.64 32.3286 1725.12 30.0115 1730.1 24.9162C1735.67 19.2922 1743.27 11.4974 1757.93 11.2327C1772.58 10.9681 1780.38 18.588 1786.17 24.1736C1791.32 29.1073 1793.83 31.3549 1799.64 31.2738C1805.44 31.1927 1807.92 28.8755 1812.91 23.7803C1818.48 18.1563 1826.08 10.3615 1840.73 10.097C1855.39 9.83235 1863.19 17.452 1868.98 23.0376C1874.13 27.9713 1876.63 30.219 1882.44 30.138L1882.73 50.6569Z" fill="currentColor" />
<path d="M2046.79 48.086C2032.13 48.3506 2024.33 40.7308 2018.54 35.1452C2013.39 30.2115 2010.89 27.964 2005.08 28.0451C1999.27 28.1262 1996.79 30.4433 1991.81 35.5386C1986.24 41.1626 1978.64 48.9572 1963.98 49.2218C1949.33 49.4865 1941.53 41.8667 1935.74 36.2811C1930.59 31.3474 1928.08 29.0997 1922.27 29.1808C1916.47 29.2619 1913.99 31.5791 1909 36.6744C1903.43 42.2983 1895.83 50.0932 1881.18 50.3578C1866.52 50.6225 1858.72 43.0027 1852.93 37.4171C1847.78 32.4834 1845.28 30.2358 1839.47 30.3169L1839.18 9.79781C1853.83 9.53318 1861.63 17.1529 1867.42 22.7385C1872.57 27.6722 1875.07 29.9199 1880.88 29.8388C1886.69 29.7577 1889.17 27.4406 1894.16 22.3453C1899.73 16.7213 1907.33 8.92639 1921.98 8.66175C1936.64 8.39719 1944.44 16.0171 1950.23 21.6027C1955.38 26.5364 1957.88 28.7839 1963.69 28.7028C1969.5 28.6217 1971.98 26.3046 1976.96 21.2093C1982.53 15.5853 1990.13 7.79065 2004.79 7.52602C2019.44 7.26138 2027.24 14.8811 2033.03 20.4666C2038.18 25.4003 2040.69 27.6481 2046.5 27.567L2046.79 48.086Z" fill="currentColor" />
<path d="M2212.21 45.74C2197.55 46.0046 2189.75 38.3847 2183.96 32.7992C2178.81 27.8654 2176.31 25.6179 2170.5 25.699C2164.69 25.7801 2162.21 28.0973 2157.22 33.1926C2151.66 38.8166 2144.05 46.6112 2129.4 46.8758C2114.75 47.1405 2106.94 39.5208 2101.16 33.9352C2096 29.0015 2093.5 26.7538 2087.69 26.8348C2081.88 26.916 2079.41 29.2331 2074.42 34.3284C2068.85 39.9523 2061.25 47.7472 2046.59 48.0119C2031.94 48.2765 2024.14 40.6568 2018.35 35.0712C2013.2 30.1375 2010.7 27.8898 2004.89 27.9709L2004.59 7.45178C2019.25 7.18715 2027.05 14.8069 2032.84 20.3925C2037.99 25.3263 2040.49 27.5739 2046.3 27.4928C2052.11 27.4117 2054.59 25.0946 2059.58 19.9993C2065.14 14.3753 2072.75 6.58044 2087.4 6.31587C2102.05 6.05124 2109.86 13.6712 2115.64 19.2567C2120.8 24.1904 2123.3 26.4379 2129.11 26.3568C2134.92 26.2757 2137.39 23.9585 2142.38 18.8633C2147.95 13.2393 2155.55 5.4447 2170.21 5.18006C2184.86 4.91543 2192.66 12.5351 2198.45 18.1207C2203.6 23.0544 2206.1 25.3021 2211.91 25.221L2212.21 45.74Z" fill="currentColor" />
<path d="M2376.56 43.3995C2361.91 43.6642 2354.1 36.0443 2348.31 30.4587C2343.16 25.525 2340.66 23.2774 2334.85 23.3585C2329.04 23.4396 2326.57 25.7567 2321.58 30.8521C2316.01 36.476 2308.41 44.2707 2293.75 44.5354C2279.1 44.8 2271.3 37.1803 2265.51 31.5948C2260.36 26.661 2257.85 24.4132 2252.05 24.4943C2246.24 24.5754 2243.76 26.8926 2238.77 31.9879C2233.2 37.6119 2225.6 45.4068 2210.95 45.6714C2196.29 45.936 2188.49 38.3162 2182.7 32.7306C2177.55 27.7969 2175.05 25.5493 2169.24 25.6304L2168.95 5.11134C2183.6 4.8467 2191.4 12.4665 2197.19 18.052C2202.34 22.9857 2204.85 25.2334 2210.65 25.1524C2216.46 25.0713 2218.94 22.7541 2223.93 17.6589C2229.5 12.0349 2237.1 4.23999 2251.75 3.97536C2266.41 3.71072 2274.21 11.3306 2280 16.9162C2285.15 21.8499 2287.65 24.0974 2293.46 24.0163C2299.27 23.9352 2301.75 21.6181 2306.74 16.5228C2312.3 10.8988 2319.91 3.10411 2334.56 2.83954C2349.21 2.5749 2357.01 10.1947 2362.8 15.7802C2367.96 20.7139 2370.46 22.9616 2376.27 22.8805L2376.56 43.3995Z" fill="currentColor" />
<path d="M2541.98 41.0537C2527.32 41.3183 2519.52 33.6984 2513.73 28.1127C2508.58 23.179 2506.08 20.9315 2500.27 21.0126C2494.46 21.0937 2491.98 23.4108 2487 28.5061C2481.43 34.1301 2473.83 41.9248 2459.17 42.1894C2444.52 42.454 2436.72 34.8343 2430.93 29.2487C2425.78 24.3149 2423.27 22.0673 2417.46 22.1484C2411.66 22.2295 2409.18 24.5466 2404.19 29.6419C2398.62 35.2659 2391.02 43.0608 2376.37 43.3255C2361.71 43.5901 2353.91 35.9703 2348.12 30.3847C2342.97 25.4509 2340.47 23.2034 2334.66 23.2845L2334.37 2.76538C2349.02 2.50074 2356.82 10.1204 2362.61 15.706C2367.76 20.6397 2370.26 22.8875 2376.07 22.8064C2381.88 22.7253 2384.36 20.4082 2389.35 15.3129C2394.92 9.68892 2402.52 1.89398 2417.17 1.62933C2431.82 1.3647 2439.63 8.98461 2445.42 14.5702C2450.57 19.5039 2453.07 21.7515 2458.88 21.6704C2464.69 21.5893 2467.17 19.2721 2472.15 14.1769C2477.72 8.55287 2485.32 0.758225 2499.98 0.493586C2514.63 0.228947 2522.43 7.84857 2528.22 13.4341C2533.37 18.3678 2535.88 20.6156 2541.69 20.5346L2541.98 41.0537Z" fill="currentColor" />
</g>
</symbol><symbol viewBox="0 0 1100 650" fill="none" id="icon-waves">
<path fill-rule="evenodd" clip-rule="evenodd" d="M-145 0C-133.733 0 -122.466 0 -111.199 0C98.5896 16.5101 265.154 109.26 388.491 278.25C404.744 302.1 419.578 326.884 432.995 352.6C446.569 354.399 458.587 350.831 469.05 341.898C496.937 315.499 527.734 311.744 561.439 330.633C568.528 335.84 575.288 341.473 581.719 347.53C606.488 359.181 627.895 354.675 645.941 334.012C675.572 313.831 705.241 313.831 734.95 334.012C742.865 343.226 752.629 349.61 764.244 353.163C774.708 354.649 784.848 353.522 794.665 349.783C804.316 343.891 813.33 337.131 821.706 329.506C847.956 314.835 873.87 315.399 899.448 331.196C900.495 332.535 900.87 334.037 900.575 335.702C900.575 341.71 900.575 347.718 900.575 353.726C900.76 357.5 900.572 361.255 900.011 364.991C871.854 337.406 844.25 337.97 817.199 366.681C788.984 383.888 760.817 383.888 732.697 366.681C726.208 360.19 719.073 354.558 711.29 349.783C687.912 340.325 668.006 345.206 651.575 364.428C624.358 382.873 596.191 384.374 567.072 368.934C561.152 365.272 555.893 360.766 551.299 355.416C532.991 342.186 514.212 341.435 494.964 353.163C488.102 360.027 480.592 366.036 472.43 371.187C463.859 374.73 455.222 377.921 446.516 380.763C450.54 388.804 453.92 397.064 456.656 405.546C459.491 405.259 462.121 404.319 464.543 402.73C494.671 372.19 528.095 368.059 564.819 390.338C592.198 418.029 619.615 418.029 647.068 390.338C672.782 373.266 699.448 371.763 727.063 385.832C735.225 390.983 742.736 396.992 749.597 403.856C768.039 413.935 786.066 413.184 803.679 401.603C832.653 372.717 864.952 368.399 900.575 388.648C900.575 389.023 900.575 389.4 900.575 389.775C900.575 395.782 900.575 401.791 900.575 407.799C900.575 412.68 900.575 417.562 900.575 422.444C895.968 419.534 891.836 415.966 888.181 411.742C870.581 400.105 852.554 399.353 834.1 409.489C825.283 417.93 815.518 425.064 804.805 430.893C771.937 443.622 743.394 437.238 719.176 411.742C701.565 400.134 683.538 399.384 665.095 409.489C640.923 435.192 612.005 442.703 578.339 432.019C566.569 426.257 556.053 418.748 546.792 409.489C522.768 396.721 501.736 400.475 483.697 420.754C478.444 424.884 472.811 428.451 466.796 431.456C469.215 437.968 471.844 444.352 474.683 450.607C501.792 430.386 530.334 428.321 560.312 444.411C566.233 448.073 571.491 452.579 576.086 457.929C595.279 471.796 614.809 472.173 634.674 459.055C664.083 429.885 696.757 425.756 732.697 446.664C740.93 455.659 750.694 462.418 761.991 466.941C777.622 470.274 791.892 467.27 804.805 457.929C824.517 436.851 848.553 429.341 876.914 435.399C885.4 437.765 893.287 441.333 900.575 446.101C900.575 451.358 900.575 456.614 900.575 461.872C900.575 467.504 900.575 473.137 900.575 478.77C900.575 479.145 900.575 479.521 900.575 479.896C893.941 473.831 886.805 468.385 879.167 463.562C865.075 457.99 851.178 458.365 837.48 464.688C830.767 469.52 824.383 474.777 818.326 480.459C790.983 498.237 763.191 498.987 734.95 482.712C728.519 476.655 721.759 471.022 714.67 465.815C700.334 458.559 685.687 457.807 670.729 463.562C660.906 471.506 650.766 479.016 640.308 486.092C612.677 499.085 586.387 496.832 561.439 479.333C541.199 457.117 518.29 453.737 492.71 469.194C489.028 472.682 485.648 476.249 482.57 479.896C484.084 486.328 485.774 492.712 487.64 499.047C522.59 483.874 553.199 490.07 579.466 517.634C604.146 530.499 625.929 526.743 644.814 506.369C668.61 489.523 694.149 486.52 721.43 497.357C731.652 502.471 740.666 509.23 748.471 517.634C766.075 527.323 783.727 527.323 801.425 517.634C830.24 488.027 862.914 482.958 899.448 502.426C900.199 506.343 900.951 510.099 901.701 513.692C905.981 514.799 910.487 515.175 915.222 514.818C922.891 522.116 932.092 525.495 942.826 524.957C947.973 524.983 953.043 524.419 958.036 523.267C964.795 520.639 971.179 517.447 977.19 513.692C987.33 515.193 997.471 515.193 1007.61 513.692C1010.24 513.692 1012.87 513.692 1015.5 513.692C1024.88 513.692 1034.28 513.692 1043.67 513.692C1046.67 513.692 1049.67 513.692 1052.68 513.692C1062.06 513.692 1071.46 513.692 1080.85 513.692C1085.97 517.57 1091.61 520.575 1097.75 522.704C1098.13 523.648 1098.88 524.024 1100 523.83C1100 532.467 1100 541.103 1100 549.74C1091.21 548.626 1082.95 545.81 1075.21 541.291C1068.5 536.46 1062.12 531.202 1056.06 525.52C1038.29 514.647 1020.26 514.271 1001.98 524.393C974.227 553.356 942.303 558.989 906.208 541.291C899.119 536.083 892.359 530.451 885.928 524.393C860.469 511.13 838.31 515.261 819.452 536.785C796.608 552.026 772.195 555.03 746.217 545.797C735.253 540.314 725.488 533.18 716.923 524.393C698.618 514.274 680.59 514.65 662.842 525.52C640.678 548.618 614.013 556.127 582.846 548.05C569.379 542.844 557.735 534.958 547.919 524.393C531.204 515.094 514.304 514.719 497.217 523.267C495.088 524.481 493.961 526.359 493.837 528.899C495.152 536.597 496.466 544.296 497.781 551.993C529.008 542.996 555.861 550.318 578.339 573.96C603.825 588.311 626.359 584.555 645.941 562.695C675.572 542.513 705.241 542.513 734.95 562.695C754.461 584.64 776.995 588.394 802.552 573.96C833.339 543.076 867.14 539.321 903.955 562.695C921.869 583.739 943.276 588.245 968.177 576.213C973.435 571.707 978.692 567.201 983.95 562.695C1020.69 539.651 1054.49 543.406 1085.35 573.96C1089.95 577.01 1094.83 579.451 1100 581.282C1100 589.919 1100 598.555 1100 607.192C1092.88 606.385 1086.12 604.319 1079.72 600.997C1069.26 593.921 1059.12 586.41 1049.3 578.466C1034.45 571.35 1019.8 571.726 1005.36 579.593C998.642 584.424 992.265 589.682 986.204 595.364C957.954 612.608 929.786 612.608 901.701 595.364C893.23 586.062 883.089 579.303 871.281 575.087C855.943 571.504 842.046 574.509 829.593 584.099C807.079 606.906 780.415 613.665 749.597 604.376C743.785 601.659 738.151 598.654 732.697 595.364C724.225 586.062 714.085 579.303 702.276 575.087C681.81 571.018 664.909 577.026 651.575 593.111C624.342 611.555 596.175 613.058 567.072 597.617C559.131 590.803 550.869 584.419 542.285 578.466C529.177 572.168 516.032 571.98 502.851 577.903C502.294 587.627 502.294 597.389 502.851 607.192C531.936 601.178 556.724 608.877 577.213 630.286C596.333 642.957 615.487 642.957 634.674 630.286C661.62 602.97 692.417 597.713 727.063 614.515C735.225 619.666 742.736 625.675 749.597 632.539C768.039 642.618 786.066 641.867 803.679 630.286C833.738 600.728 866.787 596.974 902.828 619.021C930.207 646.712 957.624 646.712 985.077 619.021C1013.97 600.384 1042.89 600.384 1071.83 619.021C1077.89 624.703 1084.27 629.96 1090.99 634.792C1093.63 635.746 1096.27 636.685 1098.87 637.608C1098.87 641.363 1098.87 645.119 1098.87 648.873C1088.36 648.873 1077.84 648.873 1067.33 648.873C1063.49 646.747 1060.11 643.93 1057.19 640.425C1031.95 625.185 1009.41 628.378 989.584 650C985.449 650 981.322 650 977.19 650C963.67 650 950.149 650 936.629 650C923.86 650 911.09 650 898.321 650C878.361 628.837 855.827 625.646 830.719 640.425C827.789 643.93 824.409 646.747 820.579 648.873C790.158 648.873 759.738 648.873 729.317 648.873C725.465 646.72 722.084 643.903 719.176 640.425C693.942 625.185 671.408 628.378 651.575 650C626.412 650 601.248 650 576.086 650C570.828 650 565.57 650 560.312 650C545.189 632.814 526.786 627.556 505.104 634.229C503.994 638.886 503.619 643.768 503.977 648.873C457.031 648.873 410.086 648.873 363.14 648.873C316.194 648.873 269.249 648.873 222.303 648.873C218.451 646.72 215.071 643.903 212.163 640.425C187.195 625.007 165.038 628.199 145.688 650C141.932 650 138.176 650 134.421 650C112.262 650 90.1044 650 67.9457 650C63.0637 650 58.1806 650 53.2986 650C35.8709 630.631 15.214 626.312 -8.66968 637.045C-14.4395 640.374 -19.3226 644.693 -23.3167 650C-28.575 650 -33.8325 650 -39.0905 650C-64.629 650 -90.1674 650 -115.706 650C-123.322 640.558 -133.087 634.549 -145 631.976C-145 623.339 -145 614.703 -145 606.066C-133.199 607.433 -122.308 611.376 -112.326 617.894C-106.692 622.775 -101.059 627.658 -95.4253 632.539C-80.9804 640.92 -65.9578 642.047 -50.3575 635.919C-40.7065 630.026 -31.6926 623.267 -23.3167 615.641C13.0846 597.507 45.3836 603.139 73.5792 632.539C98.4736 644.905 120.256 640.774 138.928 620.147C167.26 600.659 196.178 599.907 225.683 617.894C231.317 622.775 236.95 627.658 242.584 632.539C246.774 635.202 251.281 636.892 256.104 637.608C256.163 627.449 255.786 617.311 254.977 607.192C237.883 604.092 223.612 596.018 212.163 582.972C193.976 570.872 175.572 570.496 156.955 581.846C129.45 609.951 97.9023 615.584 62.3122 598.743C55.3053 594.294 48.9203 589.036 43.1584 582.972C24.9712 570.872 6.56776 570.496 -12.0498 581.846C-39.5551 609.951 -71.1027 615.584 -106.692 598.743C-114.615 593.276 -122.126 587.269 -129.226 580.719C-134.217 577.869 -139.475 575.803 -145 574.523C-145 565.886 -145 557.25 -145 548.614C-132.628 550.107 -121.361 554.425 -111.199 561.568C-105.142 567.251 -98.7579 572.508 -92.0452 577.34C-75.524 584.686 -59.3748 583.934 -43.5973 575.087C-13.3241 543.881 20.4768 539.375 57.8054 561.568C63.8625 567.251 70.2464 572.508 76.9593 577.34C93.462 584.626 109.612 583.876 125.407 575.087C155.647 543.888 189.448 539.382 226.81 561.568C233.516 568.466 241.028 574.286 249.344 579.029C248.633 568.411 246.568 557.897 243.147 547.487C230.538 542.018 219.458 534.32 209.909 524.393C184.492 511.143 162.335 515.274 143.434 536.785C120.622 552.079 96.2111 555.082 70.1991 545.797C60.2921 541.151 51.6548 534.769 44.2851 526.646C26.9339 515.293 8.90678 514.167 -9.79639 523.267C-19.0578 532.526 -29.5733 540.035 -41.3439 545.797C-62.2955 553.151 -82.9517 552.401 -103.312 543.544C-113.341 537.274 -122.731 530.14 -131.48 522.14C-135.769 520.021 -140.276 518.708 -145 518.198C-145 509.185 -145 500.173 -145 491.161C-126.167 494.003 -110.394 502.452 -97.6787 516.508C-82.3013 525.915 -66.1521 527.417 -49.2308 521.014C-40.6466 515.061 -32.3842 508.677 -24.4434 501.863C-2.86269 489.758 19.6712 487.88 43.1584 496.23C54.929 501.993 65.4444 509.502 74.7059 518.761C89.3394 526.115 104.362 526.866 119.774 521.014C129.596 513.07 139.737 505.559 150.195 498.484C170.526 489.604 191.182 488.854 212.163 496.23C218.579 498.904 224.401 502.471 229.627 506.932C226.04 495.449 221.534 484.184 216.106 473.137C202.768 460.777 187.183 456.834 169.348 461.309C160.591 464.812 153.079 470.068 146.814 477.08C118.165 498.467 88.4955 499.968 57.8054 481.586C49.3338 472.284 39.1935 465.525 27.3846 461.309C13.7651 457.682 0.995117 459.56 -10.9231 466.941C-34.8263 492.067 -63.3692 499.577 -96.552 489.471C-100.308 487.594 -104.063 485.717 -107.819 483.839C-115.33 477.831 -122.842 471.822 -130.353 465.815C-134.979 463.334 -139.862 461.644 -145 460.745C-145 452.108 -145 443.472 -145 434.835C-136.737 435.397 -128.85 437.462 -121.339 441.031C-110.882 448.107 -100.741 455.617 -90.9186 463.562C-75.1451 470.727 -59.7469 469.977 -44.724 461.309C-35.4629 452.05 -24.9471 444.54 -13.1765 438.778C7.38687 431.559 27.6674 432.311 47.6652 441.031C58.5569 448.917 69.4476 456.802 80.3394 464.688C103.917 472.218 123.822 466.585 140.054 447.79C155.909 436.688 173.56 431.619 193.009 432.582C186.709 422.161 179.573 412.397 171.602 403.293C159.935 407.999 149.795 414.947 141.181 424.133C113.927 440.816 86.5114 441.191 58.9321 425.26C51.4204 419.252 43.9099 413.243 36.3982 407.236C21.1314 400.201 6.10919 400.576 -8.66968 408.362C-15.3825 413.194 -21.7664 418.451 -27.8235 424.133C-64.4601 445.31 -97.5098 440.804 -126.973 410.615C-132.577 407.183 -138.586 404.742 -145 403.293C-145 394.656 -145 386.02 -145 377.383C-133.187 378.754 -122.295 382.697 -112.326 389.211C-103.215 399.073 -92.3239 406.207 -79.6516 410.615C-69.6023 411.923 -59.8377 410.797 -50.3575 407.236C-40.7065 401.343 -31.6926 394.584 -23.3167 386.958C13.0846 368.824 45.3836 374.456 73.5792 403.856C89.8521 413.214 106.377 413.589 123.154 404.983C130.243 399.775 137.003 394.142 143.434 388.085C147.371 386.306 151.126 384.24 154.701 381.889C150.211 376.837 145.518 371.955 140.618 367.244C115.029 382.571 88.927 383.51 62.3122 370.061C54.1504 364.909 46.6399 358.9 39.7783 352.036C22.2446 341.939 4.96898 342.316 -12.0498 353.163C-39.5551 381.268 -71.1027 386.901 -106.692 370.061C-114.615 364.594 -122.126 358.586 -129.226 352.036C-134.217 349.186 -139.475 347.12 -145 345.841C-145 337.204 -145 328.568 -145 319.931C-136.341 320.969 -128.078 323.41 -120.213 327.253C-110.216 333.567 -100.827 340.703 -92.0452 348.657C-75.5347 355.969 -59.3855 355.218 -43.5973 346.404C-13.3241 315.198 20.4768 310.692 57.8054 332.886C65.2788 341.491 74.2924 347.875 84.8461 352.036C97.3052 355.108 109.324 353.982 120.9 348.657C44.8822 282.814 -43.7513 249.207 -145 247.834C-145 165.223 -145 82.6112 -145 0Z" fill="#F4F8FB" />
</symbol></defs><use id="icon-arrow-down-usage" xlink:href="#icon-arrow-down" class="sprite-symbol-usage" /><use id="icon-arrow-right-usage" xlink:href="#icon-arrow-right" class="sprite-symbol-usage" /><use id="icon-attractions-usage" xlink:href="#icon-attractions" class="sprite-symbol-usage" /><use id="icon-chevrone-usage" xlink:href="#icon-chevrone" class="sprite-symbol-usage" /><use id="icon-date-usage" xlink:href="#icon-date" class="sprite-symbol-usage" /><use id="icon-date-2-usage" xlink:href="#icon-date-2" class="sprite-symbol-usage" /><use id="icon-ekb-usage" xlink:href="#icon-ekb" class="sprite-symbol-usage" /><use id="icon-eye-usage" xlink:href="#icon-eye" class="sprite-symbol-usage" /><use id="icon-lines-usage" xlink:href="#icon-lines" class="sprite-symbol-usage" /><use id="icon-location-usage" xlink:href="#icon-location" class="sprite-symbol-usage" /><use id="icon-pick-your-route-1-usage" xlink:href="#icon-pick-your-route-1" class="sprite-symbol-usage" /><use id="icon-pick-your-route-1-2-usage" xlink:href="#icon-pick-your-route-1-2" class="sprite-symbol-usage" /><use id="icon-pick-your-route-2-usage" xlink:href="#icon-pick-your-route-2" class="sprite-symbol-usage" /><use id="icon-pick-your-route-2-2-usage" xlink:href="#icon-pick-your-route-2-2" class="sprite-symbol-usage" /><use id="icon-polygon-arrow-usage" xlink:href="#icon-polygon-arrow" class="sprite-symbol-usage" /><use id="icon-search-usage" xlink:href="#icon-search" class="sprite-symbol-usage" /><use id="icon-star-usage" xlink:href="#icon-star" class="sprite-symbol-usage" /><use id="icon-wave-usage" xlink:href="#icon-wave" class="sprite-symbol-usage" /><use id="icon-waves-usage" xlink:href="#icon-waves" class="sprite-symbol-usage" /></svg>