<svg width="40" height="40" viewBox="0 0 40 40" fill="none" xmlns="http://www.w3.org/2000/svg">
<path d="M40 20C40 31.0457 31.0457 40 20 40C8.9543 40 0 31.0457 0 20C0 8.9543 8.9543 0 20 0C31.0457 0 40 8.9543 40 20Z" fill="#2AA7A4"/>
<path fill-rule="evenodd" clip-rule="evenodd" d="M11.4133 21.9973C10.3746 22.5907 9.78765 23.7445 9.91976 24.9335L10.2445 27.8559C10.3962 29.2213 11.5377 30.4622 13.1264 30.276C15.492 29.9989 19.8185 28.8114 24.4056 24.2244C28.9926 19.6373 30.1807 15.3103 30.4582 12.9444C30.6446 11.3555 29.4037 10.2137 28.0381 10.0619L25.116 9.73724C23.927 9.60513 22.7732 10.192 22.1798 11.2308L21.0031 13.2905C20.3321 14.4651 20.5302 15.9434 21.4867 16.8999L21.9119 17.3251C22.1654 17.5786 22.159 17.812 22.0997 17.9331C21.8268 18.4902 21.32 19.3096 20.406 20.2235C19.4921 21.1375 18.6727 21.6443 18.1156 21.9172C17.9945 21.9765 17.7611 21.9828 17.5077 21.7294L17.0824 21.3042C16.1259 20.3477 14.6476 20.1496 13.473 20.8206L11.4133 21.9973ZM11.9075 24.7126C11.8635 24.3163 12.0591 23.9317 12.4054 23.7339L14.4651 22.5572C14.8566 22.3335 15.3494 22.3996 15.6682 22.7184L16.0934 23.1436C16.7857 23.8359 17.9154 24.2423 18.9954 23.7133C19.7391 23.349 20.7417 22.7163 21.8203 21.6377C22.8988 20.5592 23.5315 19.5566 23.8958 18.8129C24.4248 17.7329 24.0184 16.6032 23.3261 15.9109L22.9009 15.4857C22.5821 15.1669 22.5161 14.6741 22.7397 14.2826L23.9164 12.2229C24.1142 11.8766 24.4988 11.681 24.8951 11.725L27.8172 12.0497C28.0528 12.0759 28.2337 12.1797 28.3417 12.3C28.4423 12.4122 28.4911 12.5472 28.4719 12.7114C28.2411 14.6783 27.2278 18.5738 22.9914 22.8101C18.755 27.0466 14.8601 28.0593 12.8936 28.2896C12.7296 28.3088 12.5946 28.2601 12.4825 28.1594C12.3622 28.0515 12.2584 27.8707 12.2322 27.6351L11.9075 24.7126Z" fill="white"/>
</svg>
