<svg width="40" height="40" viewBox="0 0 40 40" fill="none" xmlns="http://www.w3.org/2000/svg">
<path d="M27.7769 34.6685C28.0188 35.1562 28.2364 35.5907 28.4494 36.0274C28.7689 36.682 28.6288 37.1257 27.9817 37.457C26.764 38.0814 25.5439 38.6989 24.3215 39.3117C23.6745 39.6361 23.1987 39.4647 22.8688 38.8043C22.2426 37.5532 21.6186 36.302 20.9704 35.0033C20.3673 35.2976 19.7793 35.5849 19.1912 35.8733C18.8544 36.0379 18.5245 36.2186 18.1807 36.3657C17.5394 36.6403 16.9051 36.2209 16.8819 35.5154C16.8738 35.2559 16.8808 34.9952 16.8808 34.6674C16.7002 34.6674 16.5335 34.6674 16.368 34.6674C12.4982 34.6674 8.62619 34.6025 4.75879 34.6917C2.40431 34.7461 -0.0138312 32.9956 5.95615e-05 29.928C0.0324712 22.4557 0.0104772 14.9823 0.0104772 7.50998C0.0104772 6.6133 0.0347858 5.71663 0.00584683 4.82112C-0.0856004 1.98629 2.06052 -0.0410739 4.79467 0.000631787C8.41783 0.0550809 12.0433 0.0145331 15.6676 0.0145331C22.1801 0.0145331 28.6925 0.0191672 35.2049 0.0110578C36.4018 0.0098993 37.4876 0.292572 38.4067 1.09077C39.489 2.03031 39.9833 3.23514 39.9833 4.65314C39.9845 13.1229 39.9926 21.5938 39.9787 30.0635C39.9752 32.4442 38.5155 34.1819 36.2236 34.6187C35.9851 34.6639 35.7362 34.6674 35.492 34.6674C33.0947 34.6708 30.6974 34.6697 28.3012 34.6697C28.145 34.6685 27.9898 34.6685 27.7769 34.6685ZM16.9213 32.8717C16.9213 32.6261 16.9213 32.4396 16.9213 32.2542C16.9213 28.7857 16.9213 25.316 16.9213 21.8475C16.9213 21.4397 16.9826 21.0585 17.404 20.8651C17.8161 20.6762 18.1691 20.7886 18.5245 21.0574C22.1291 23.781 25.7419 26.4942 29.35 29.212C30.026 29.7217 29.9612 30.4782 29.2099 30.8675C28.814 31.0725 28.4089 31.2625 28.0095 31.4618C27.5245 31.7028 27.0418 31.9461 26.5788 32.1777C26.676 32.7466 26.9677 32.8925 27.4933 32.8867C30.092 32.8555 32.6907 32.8752 35.2906 32.8694C35.5776 32.8694 35.8728 32.8659 36.1483 32.7975C37.4332 32.4778 38.1868 31.434 38.1879 29.9963C38.1903 23.7231 38.1891 17.451 38.1879 11.1778C38.1879 11.0376 38.1764 10.8963 38.1694 10.7433C26.0382 10.7433 13.9359 10.7433 1.80238 10.7433C1.80238 10.9194 1.80238 11.0619 1.80238 11.2033C1.80238 17.4475 1.81974 23.6906 1.7908 29.9349C1.7827 31.6923 3.03171 32.9134 4.72522 32.8891C8.60883 32.8335 12.4936 32.8717 16.3772 32.8717C16.5358 32.8717 16.6921 32.8717 16.9213 32.8717ZM38.1717 8.89438C38.1717 7.3223 38.2042 5.79309 38.159 4.26504C38.1347 3.4483 37.7226 2.78333 37.0443 2.30024C36.4886 1.90404 35.8613 1.80093 35.1991 1.80093C25.0624 1.80209 14.9256 1.80209 4.78888 1.80209C4.67313 1.80209 4.55737 1.80093 4.44277 1.80788C2.96573 1.89708 1.88225 2.89802 1.82437 4.3554C1.76534 5.84175 1.81511 7.33157 1.81859 8.82023C1.81859 8.84224 1.85215 8.86426 1.87762 8.89438C13.9544 8.89438 26.0394 8.89438 38.1717 8.89438ZM27.1622 29.87C24.3134 27.7326 21.5307 25.6439 18.712 23.5285C18.712 27.0908 18.712 30.5651 18.712 34.1032C19.3996 33.7649 20.0409 33.4463 20.6845 33.1347C21.4543 32.7605 21.8664 32.9018 22.2576 33.6722C22.8769 34.8921 23.4939 36.112 24.1305 37.3666C24.9142 36.9797 25.6782 36.602 26.4572 36.2174C25.8044 34.9072 25.1793 33.6595 24.5588 32.4083C24.2093 31.7028 24.3516 31.2892 25.0589 30.9312C25.7372 30.5883 26.4167 30.2454 27.1622 29.87Z" fill="#2AA7A4"/>
<path d="M25.3884 18.6697C25.8178 18.694 26.1095 18.8805 26.2554 19.2814C26.3977 19.6718 26.3086 20.0494 25.9833 20.2406C25.3432 20.6159 24.6695 20.9438 23.9819 21.223C23.5802 21.3863 23.1797 21.1407 22.9968 20.7434C22.8325 20.3889 22.9042 19.8861 23.2388 19.6938C23.8708 19.33 24.5387 19.0288 25.1939 18.7056C25.2552 18.6766 25.3328 18.6801 25.3884 18.6697Z" fill="#F39314"/>
<path d="M16.7247 17.5576C16.6969 18.1334 16.4989 18.4137 16.0938 18.5516C15.6759 18.6941 15.3113 18.5597 15.1099 18.2191C14.7533 17.6132 14.4454 16.9737 14.1665 16.3261C14.0044 15.9496 14.1884 15.6125 14.5045 15.3831C14.8436 15.1364 15.265 15.0981 15.5428 15.3912C16.1586 16.0365 16.4075 16.895 16.7247 17.5576Z" fill="#F39314"/>
<path d="M10.5381 26.4894C10.7036 26.2566 10.8205 25.9449 11.0439 25.8059C11.5938 25.4665 12.183 25.1861 12.7745 24.9208C13.241 24.7123 13.7272 24.9266 13.9332 25.3738C14.1335 25.8071 13.9946 26.2774 13.5501 26.523C13.0211 26.8161 12.4828 27.0965 11.9295 27.3398C11.287 27.6247 10.64 27.2158 10.5381 26.4894Z" fill="#F39314"/>
<path d="M13.677 21.0876C13.6793 21.7595 13.1063 22.1951 12.5507 22.0213C11.9765 21.8406 11.4058 21.6471 10.8421 21.4398C10.3189 21.2474 10.1117 20.8397 10.2633 20.3589C10.4242 19.8491 10.8433 19.5966 11.3711 19.7507C11.9615 19.9221 12.5426 20.1318 13.119 20.345C13.4975 20.484 13.6654 20.7887 13.677 21.0876Z" fill="#F39314"/>
<path d="M19.4786 17.114C19.6766 16.5753 19.9093 15.8361 20.223 15.1329C20.3815 14.7761 20.9267 14.6858 21.2972 14.8549C21.656 15.0183 21.9072 15.4666 21.7914 15.8616C21.6097 16.4803 21.399 17.0943 21.1594 17.6932C20.9974 18.0987 20.5366 18.3223 20.179 18.2365C19.753 18.1346 19.4717 17.7697 19.4786 17.114Z" fill="#F39314"/>
<path d="M14.2062 4.47595C14.7097 4.46784 15.1311 4.871 15.1299 5.35872C15.1287 5.83254 14.7271 6.23686 14.249 6.24728C13.7501 6.25887 13.3311 5.85224 13.3311 5.35756C13.3299 4.87679 13.7212 4.48406 14.2062 4.47595Z" fill="#F39314"/>
<path d="M8.90434 5.34821C8.90781 4.85354 9.28286 4.4805 9.77829 4.47587C10.2818 4.47124 10.6986 4.87786 10.6905 5.36675C10.6835 5.83941 10.2772 6.24257 9.80145 6.24836C9.29675 6.25416 8.89971 5.85679 8.90434 5.34821Z" fill="#F39314"/>
<path d="M5.36124 4.47587C5.85899 4.48051 6.22941 4.84891 6.23519 5.34474C6.24098 5.85448 5.84741 6.25184 5.34156 6.24721C4.83455 6.24142 4.45718 5.84174 4.47107 5.32621C4.48497 4.82806 4.8577 4.47124 5.36124 4.47587Z" fill="#F39314"/>
</svg>
