<svg width="60" height="60" viewBox="0 0 60 60" fill="none" xmlns="http://www.w3.org/2000/svg">
<circle cx="30" cy="30" r="30" fill="#E4CEE7"/>
<path fill-rule="evenodd" clip-rule="evenodd" d="M22 33C22.5523 33 23 33.4477 23 34V37C23 37.6663 23.4557 38 23.7778 38H36.2222C36.5443 38 37 37.6663 37 37V34C37 33.4477 37.4477 33 38 33C38.5523 33 39 33.4477 39 34V37C39 38.5429 37.8638 40 36.2222 40H23.7778C22.1362 40 21 38.5429 21 37V34C21 33.4477 21.4477 33 22 33Z" fill="#8A5B8F"/>
<path fill-rule="evenodd" clip-rule="evenodd" d="M29.2929 34.7071C29.6834 35.0976 30.3166 35.0976 30.7071 34.7071L34.7071 30.7071C35.0976 30.3166 35.0976 29.6834 34.7071 29.2929C34.3166 28.9024 33.6834 28.9024 33.2929 29.2929L31 31.5858V21C31 20.4477 30.5523 20 30 20C29.4477 20 29 20.4477 29 21V31.5858L26.7071 29.2929C26.3166 28.9024 25.6834 28.9024 25.2929 29.2929C24.9024 29.6834 24.9024 30.3166 25.2929 30.7071L29.2929 34.7071Z" fill="#8A5B8F"/>
</svg>
