<svg width="60" height="66" viewBox="0 0 60 66" fill="none" xmlns="http://www.w3.org/2000/svg">
<path fill-rule="evenodd" clip-rule="evenodd" d="M29.1274 0.302704C28.8524 0.600845 28.8521 0.605613 28.8521 7.06983C28.8521 13.3669 28.8588 13.5455 29.1054 13.7965C29.5873 14.2871 30.3779 14.0755 30.6115 13.3933C30.8058 12.8257 30.8058 1.23296 30.6115 0.665422C30.3703 -0.0387453 29.6134 -0.223713 29.1274 0.302704ZM21.6926 1.48096C21.4839 1.69325 21.3817 1.94202 21.3817 2.23733C21.3817 2.65741 21.3574 2.68061 20.8448 2.7506C19.4974 2.93466 19.5249 4.64475 20.8752 4.64475C21.3518 4.64475 21.3817 4.6673 21.3817 5.02538C21.3817 5.76409 21.8491 6.32042 22.4697 6.32042C22.8562 6.32042 23.281 5.71602 23.281 5.16614V4.64475H23.8311C24.4386 4.64475 24.7243 4.42343 24.8667 3.84236C24.9911 3.33541 24.366 2.71128 23.7339 2.71128C23.2934 2.71128 23.281 2.69788 23.281 2.21812C23.281 1.27408 22.3294 0.832473 21.6926 1.48096ZM36.9777 1.46278C36.7979 1.65768 36.7024 1.92591 36.7024 2.23617C36.7024 2.69517 36.6871 2.71128 36.2495 2.71128C35.6174 2.71128 34.9923 3.33541 35.1167 3.84236C35.2591 4.42343 35.5447 4.64475 36.1523 4.64475H36.7024V5.16614C36.7024 5.71602 37.1272 6.32042 37.5136 6.32042C38.1343 6.32042 38.6017 5.76409 38.6017 5.02538C38.6017 4.6673 38.6315 4.64475 39.1081 4.64475C40.4472 4.64475 40.488 2.93492 39.1532 2.75266C38.6521 2.68422 38.6283 2.65998 38.561 2.14981C38.4392 1.22497 37.5524 0.840078 36.9777 1.46278ZM4.24468 2.56035C4.09464 2.72907 4.03513 3.03546 4.03513 3.63857V4.48118L3.14552 4.54601C2.07003 4.62438 1.75602 4.8506 1.75602 5.54703C1.75602 6.23612 2.03243 6.42869 3.08841 6.47496L3.97182 6.51376L4.00994 7.41308C4.05539 8.48809 4.24456 8.76947 4.92145 8.76947C5.60557 8.76947 5.82778 8.4498 5.90476 7.35495L5.96845 6.44931H6.81805C7.80959 6.44931 8.08689 6.24733 8.08689 5.5246C8.08689 4.87315 7.76047 4.6298 6.77956 4.54962L5.96643 4.48324L5.90122 3.65546C5.85906 3.12066 5.75675 2.73874 5.61228 2.5762C5.31878 2.24596 4.53223 2.23694 4.24468 2.56035ZM54.6203 4.80587C54.4392 4.96532 54.0795 5.4947 53.8209 5.98206C53.395 6.78509 53.2679 6.91541 52.4654 7.37248C51.3002 8.0363 51.0102 8.37556 51.0102 9.07483C51.0102 9.73852 51.317 10.0733 52.507 10.7082C53.2347 11.0966 53.3536 11.2211 53.816 12.0789C54.4225 13.2037 54.7963 13.5387 55.4448 13.5387C56.0727 13.5387 56.3549 13.2815 57.0003 12.1218C57.4945 11.2336 57.6084 11.1172 58.4206 10.6701C59.5419 10.0528 59.8734 9.67949 59.8734 9.03436C59.8734 8.37994 59.6132 8.08129 58.4769 7.43074C57.606 6.93216 57.492 6.81629 56.9982 5.9287C56.7038 5.39983 56.3408 4.86542 56.1916 4.74142C55.8015 4.41724 55.0252 4.44908 54.6203 4.80587ZM14.0955 6.63686C13.8929 6.84297 13.7847 7.09922 13.7847 7.37248C13.7847 7.75157 14.2059 8.22037 18.1846 12.2693C21.1866 15.3243 22.6987 16.7752 22.9438 16.8354C23.4786 16.9667 23.9658 16.5532 24.0178 15.9238C24.0579 15.4381 24.0255 15.4009 19.7761 11.0615C17.421 8.65656 15.3402 6.60592 15.1521 6.50461C14.672 6.24591 14.4523 6.2735 14.0955 6.63686ZM44.2361 6.56416C44.0272 6.6977 41.9579 8.74962 39.6378 11.1242C35.4635 15.3961 35.4195 15.4465 35.4594 15.9273C35.5112 16.5535 35.9999 16.9666 36.5331 16.8347C36.7775 16.7743 38.2987 15.316 41.2923 12.2723C45.4732 8.02135 45.6922 7.77515 45.6922 7.32672C45.6922 6.97032 45.6106 6.78922 45.3586 6.58762C44.9467 6.25777 44.7229 6.25313 44.2361 6.56416ZM55.8068 7.73365C56.0549 8.14419 56.3733 8.46682 56.6953 8.634C56.9714 8.77733 57.2268 8.94335 57.2629 9.00278C57.299 9.06233 57.0775 9.23505 56.7709 9.38676C56.4642 9.53847 56.1251 9.80967 56.0174 9.98949C55.9097 10.1692 55.7306 10.468 55.6192 10.6533L55.4168 10.9905L55.0601 10.3548C54.8074 9.90429 54.5344 9.62793 54.1231 9.40571C53.8037 9.23324 53.5433 9.0631 53.5443 9.02752C53.5453 8.99195 53.8189 8.80969 54.1524 8.62266C54.586 8.3793 54.8468 8.11312 55.0684 7.68815C55.2387 7.36126 55.3875 7.0938 55.3991 7.0938C55.4106 7.0938 55.5941 7.38176 55.8068 7.73365ZM9.47968 7.73829C9.17263 8.05087 9.1425 8.79448 9.42523 9.0823C10.0041 9.67163 10.9035 9.32102 10.9744 8.47829C11.0456 7.63221 10.0621 7.14536 9.47968 7.73829ZM47.4536 7.72166C46.828 8.23738 47.2299 9.41396 48.0316 9.41396C48.5156 9.41396 48.9843 8.93833 48.9843 8.44723C48.9843 7.64974 48.0678 7.21535 47.4536 7.72166ZM23.7874 7.70207C23.3976 7.8454 23.1544 8.1768 23.155 8.56388C23.1556 9.01193 26.2604 16.7369 26.6034 17.1441C26.9334 17.5357 27.6246 17.4957 27.9566 17.066C28.1009 16.8792 28.219 16.6406 28.219 16.5358C28.219 16.2133 24.9215 8.20309 24.6959 7.97739C24.4433 7.72463 24.0502 7.60553 23.7874 7.70207ZM35.1153 7.73326C34.9736 7.79101 34.7964 7.91733 34.7217 8.01387C34.6469 8.11042 33.8363 10.0329 32.9203 12.2859C31.1709 16.5897 31.1149 16.812 31.6804 17.2152C32.0067 17.4479 32.5286 17.4614 32.8153 17.2445C33.0837 17.0415 36.3346 9.09107 36.3502 8.59958C36.3691 7.99544 35.6719 7.50615 35.1153 7.73326ZM10.9301 12.695C10.7024 12.9267 10.6192 13.1511 10.6192 13.5329V14.0543H10.1128C9.47297 14.0543 9.09983 14.4031 9.09983 15.001C9.09983 15.5433 9.39307 15.8211 10.0844 15.9336C10.5921 16.0162 10.6192 16.043 10.6192 16.4612C10.6192 16.9991 11.093 17.5345 11.5689 17.5345C12.0444 17.5345 12.5185 16.9991 12.5185 16.4617C12.5185 16.0445 12.5452 16.018 13.0348 15.9511C13.7292 15.8564 14.0379 15.5503 14.0379 14.9566C14.0379 14.3614 13.7557 14.0866 13.0883 14.0316C12.5933 13.9907 12.5802 13.9768 12.5074 13.4214C12.3788 12.441 11.553 12.0607 10.9301 12.695ZM47.8383 12.6158C47.6502 12.7708 47.5248 13.0498 47.476 13.4214C47.4032 13.9768 47.39 13.9907 46.8951 14.0316C46.2277 14.0866 45.9455 14.3614 45.9455 14.9566C45.9455 15.5503 46.2542 15.8564 46.9485 15.9511C47.4382 16.018 47.4649 16.0445 47.4649 16.4617C47.4649 16.9991 47.9389 17.5345 48.4145 17.5345C48.8903 17.5345 49.3641 16.9991 49.3641 16.4612C49.3641 16.043 49.3912 16.0162 49.899 15.9336C50.5903 15.8211 50.8835 15.5433 50.8835 15.001C50.8835 14.4031 50.5104 14.0543 49.8706 14.0543H49.3641V13.5329C49.3641 12.5879 48.5012 12.0692 47.8383 12.6158ZM15.3617 16.1753C14.9965 16.5469 14.9625 17.0111 15.2724 17.3904C15.5431 17.7217 23.2865 21.0147 23.7948 21.0147C24.5896 21.0147 24.9332 19.8031 24.27 19.3391C23.8412 19.0391 16.22 15.8588 15.9299 15.8588C15.7883 15.8588 15.5326 16.0013 15.3617 16.1753ZM40.8175 16.8987C35.0109 19.3685 35.0907 19.3303 34.9363 19.7097C34.6784 20.3433 35.1212 21.0147 35.7968 21.0147C36.1498 21.0147 43.8787 17.7411 44.179 17.4644C44.5488 17.1237 44.5056 16.4568 44.0924 16.126C43.909 15.9791 43.6382 15.8626 43.491 15.8671C43.3437 15.8717 42.1406 16.3359 40.8175 16.8987ZM29.0657 17.9992C28.8526 18.1167 28.6102 18.4315 28.4627 18.782C28.251 19.2845 28.1754 19.357 27.9325 19.2892C26.7305 18.9534 26.065 19.2062 25.8026 20.0982C25.6658 20.5628 25.6815 20.6702 25.9679 21.2269L26.2845 21.8421L25.7909 22.2061C24.9429 22.8314 24.8173 23.6365 25.4651 24.2936C25.7433 24.5758 26.051 24.7392 26.4147 24.7979L26.9529 24.8848V25.5747C26.9529 26.3896 27.2412 26.8507 27.8863 27.0675C28.3952 27.2384 28.8777 27.0872 29.3803 26.5992L29.7183 26.2709L30.2443 26.7012C30.9746 27.2986 31.6397 27.3029 32.1571 26.7134C32.4654 26.3622 32.524 26.1848 32.524 25.603V24.9104L32.9785 24.8235C33.9855 24.6312 34.4233 24.1751 34.4233 23.3181C34.4233 22.9892 34.3009 22.7857 33.8402 22.3491L33.2573 21.7964L33.5237 21.2359C33.8514 20.547 33.8563 20.2888 33.5515 19.7799C33.2176 19.2225 32.648 19.0026 32.0279 19.1917C31.3243 19.4064 31.2933 19.3933 31.0216 18.7682C30.6379 17.8852 29.8404 17.5716 29.0657 17.9992ZM30.6507 21.4166C30.8105 21.4251 30.984 21.4251 31.0363 21.4166C31.0886 21.4083 31.1312 21.6514 31.1312 21.9569C31.1312 22.2623 31.2095 22.6212 31.3051 22.7543C31.4604 22.9706 31.4336 23.04 31.0519 23.4064C30.817 23.632 30.6248 23.9371 30.6248 24.0846C30.6248 24.3272 30.5882 24.3397 30.2405 24.2163C29.8652 24.0831 29.5209 24.1075 29.0737 24.2988C28.9009 24.3728 28.8521 24.3301 28.8521 24.1051C28.8521 23.9443 28.663 23.6348 28.4251 23.4064C28.0433 23.04 28.0165 22.9706 28.1718 22.7543C28.2674 22.6212 28.3457 22.2623 28.3457 21.9569C28.3457 21.6514 28.3885 21.4083 28.4406 21.4166C28.786 21.4722 29.1374 21.361 29.4323 21.1028L29.7733 20.8041L30.0666 21.1028C30.2281 21.267 30.4908 21.4083 30.6507 21.4166ZM7.85568 21.9575C7.46621 22.3796 7.49204 22.9876 7.91405 23.3255C8.24123 23.5875 8.36659 23.5927 14.4841 23.5927C20.3888 23.5927 20.7361 23.5798 21.0131 23.3515C21.4197 23.0164 21.4197 22.2355 21.0131 21.9004C20.7361 21.672 20.3874 21.6592 14.4259 21.6592H8.13108L7.85568 21.9575ZM38.6307 21.7455C38.5422 21.7818 38.381 21.9861 38.2725 22.1997C38.1099 22.5197 38.1023 22.6544 38.2292 22.9664C38.3139 23.1744 38.4856 23.4005 38.6107 23.4687C38.7479 23.5435 41.3189 23.591 45.0824 23.5886C51.7682 23.5842 51.63 23.5976 51.8784 22.9321C52.0211 22.5502 51.7797 21.8691 51.457 21.743C51.2069 21.6453 38.8695 21.6476 38.6307 21.7455ZM54.7041 22.9887C54.4378 23.2773 54.4288 23.3849 54.4288 26.2654V29.2437L54.0806 29.3245C53.6641 29.4212 53.4149 29.6062 53.1252 30.0341C52.9458 30.2991 52.9094 30.6736 52.9094 32.2576V34.1623L52.4979 34.1626C51.9617 34.1628 51.2853 34.5202 50.9558 34.9773C50.7153 35.3112 50.6936 35.5197 50.6936 37.4965C50.6936 39.8728 50.7677 40.1478 51.5266 40.5873L51.8948 40.8005L51.8957 43.5396L51.8965 46.2787H51.2001C50.3543 46.2787 49.9972 46.5629 49.9972 47.236C49.9972 47.8569 50.4642 48.2121 51.2805 48.2121H51.8965V54.0784V59.9448L46.8634 59.911L41.8304 59.8774L41.7952 54.5926C41.7758 51.6859 41.7915 49.1758 41.83 49.0145C41.8686 48.8531 42.0126 48.6067 42.1501 48.4667C42.3793 48.2334 42.5782 48.2121 44.5356 48.2121C46.5042 48.2121 46.6971 48.1912 47.0046 47.9449C47.4227 47.6102 47.4621 46.9203 47.085 46.5365C46.8508 46.298 46.6635 46.2787 44.5843 46.2794C43.3483 46.2798 42.1375 46.3365 41.8937 46.4056C41.2939 46.5755 40.5537 47.2203 40.2124 47.8702C39.9319 48.4039 39.931 48.4275 39.8941 56.236L39.8568 64.0665H30.6826H21.5083V60.2661V56.4657L21.1391 56.0447L20.7698 55.6237L17.3722 55.5593L13.9746 55.4948L13.9113 54.2059C13.843 52.8158 13.7344 52.5044 13.1884 52.1329C12.9129 51.9456 12.5938 51.8919 11.7406 51.8892C10.4337 51.8851 10.1128 52.0749 10.1128 52.8524C10.1128 53.5284 10.409 53.7547 11.294 53.7547H12.012V58.9106V64.0665H6.94594H1.87973L1.9129 58.9429L1.94595 53.8192L4.47133 53.7841C6.59736 53.7546 7.03292 53.7158 7.22526 53.5386C7.55028 53.2393 7.52876 52.4459 7.18727 52.1313C6.94163 51.9049 6.69524 51.8857 4.04792 51.8857C0.862735 51.8857 0.741815 51.9134 0.229015 52.7627C-0.0104183 53.1592 -0.0185217 53.4058 0.0135125 59.341L0.0466861 65.5074L0.34563 65.7537C0.637862 65.9946 1.2788 66 29.3784 66H58.1123L58.423 65.6836L58.7338 65.3672L58.7367 53.0838L58.7395 40.8005L59.1361 40.6018C59.8676 40.235 60 39.765 60 37.5352C60 35.1855 59.8798 34.7856 59.06 34.4066C58.7761 34.2753 58.3935 34.1667 58.2095 34.1651L57.8751 34.1623L57.8294 32.2611C57.7877 30.5303 57.7579 30.3228 57.4953 29.9479C57.3367 29.7213 57.0092 29.4631 56.7675 29.3741L56.3281 29.2124V26.4862C56.3281 24.8283 56.2733 23.5999 56.1882 23.3514C55.947 22.6472 55.1901 22.4623 54.7041 22.9887ZM19.4191 25.9207C17.0918 26.9085 15.4039 27.6978 15.2724 27.8597C15.1505 28.0099 15.0508 28.2739 15.0508 28.4465C15.0508 28.8292 15.5763 29.3931 15.933 29.3931C16.1552 29.3931 21.4776 27.2081 23.6768 26.214C24.6592 25.7699 24.9067 25.218 24.4113 24.5768C24.2221 24.3319 24.0367 24.2396 23.7465 24.2459C23.5253 24.2507 21.578 25.0044 19.4191 25.9207ZM35.114 24.5536C34.9431 24.7276 34.8031 24.9568 34.8031 25.063C34.8031 25.4345 35.087 25.8858 35.4185 26.0411C36.7352 26.6581 43.3589 29.3931 43.5368 29.3931C43.6589 29.3931 43.909 29.2728 44.0924 29.1259C44.5056 28.7951 44.5488 28.1282 44.179 27.7875C43.8473 27.482 36.1311 24.2372 35.7362 24.2372C35.5649 24.2372 35.2849 24.3796 35.114 24.5536ZM3.17426 25.5574C3.01422 25.6358 2.68818 26.0552 2.44976 26.4893C2.08902 27.1459 1.88872 27.3513 1.25727 27.7129C-0.301005 28.6053 -0.218324 29.8086 1.46012 30.6648C1.84225 30.8597 2.09662 31.1283 2.38544 31.6422C2.9323 32.6153 3.33051 32.9161 3.95878 32.8309C4.53312 32.7529 4.83333 32.4825 5.28852 31.6332C5.52884 31.1848 5.80385 30.908 6.30627 30.6091C7.18778 30.0846 7.4538 29.7438 7.4538 29.1384C7.4538 28.517 7.09927 28.058 6.30158 27.6464C5.81803 27.397 5.59417 27.1699 5.28877 26.6189C5.07301 26.2299 4.75204 25.7959 4.57541 25.6544C4.22518 25.3741 3.63224 25.3329 3.17426 25.5574ZM50.9767 26.5896C50.6275 26.8596 50.5103 27.3589 50.6926 27.8004C51.084 28.7478 52.403 28.4114 52.403 27.364C52.403 26.6672 51.5063 26.1803 50.9767 26.5896ZM26.6644 28.0074C26.3755 28.2288 23.1561 36.1924 23.1551 36.688C23.1536 37.4547 24.1431 37.8602 24.6717 37.3096C24.9137 37.0573 28.219 29.0442 28.219 28.7097C28.219 28.6084 28.1009 28.3727 27.9566 28.186C27.666 27.8098 27.0358 27.7228 26.6644 28.0074ZM31.6804 28.0367C31.1164 28.4387 31.1725 28.6617 32.9192 32.9646C33.8341 35.2185 34.6862 37.1737 34.8125 37.3096C35.3297 37.8657 36.3743 37.4191 36.3502 36.6523C36.3346 36.1609 33.0837 28.2104 32.8153 28.0074C32.5286 27.7905 32.0067 27.804 31.6804 28.0367ZM4.6667 28.9414C5.00806 29.0518 4.98767 29.1921 4.60466 29.3698C4.43031 29.4506 4.18467 29.6893 4.05868 29.9002L3.82963 30.2836L3.60387 29.8945C3.47966 29.6804 3.24099 29.4418 3.07347 29.3641C2.68615 29.1844 2.69033 29.0928 3.09626 28.8716C3.27631 28.7735 3.50891 28.5253 3.61324 28.32L3.80279 27.9467L4.1073 28.4029C4.27482 28.6539 4.52653 28.8962 4.6667 28.9414ZM22.5846 28.6056C22.3757 28.7392 20.3103 30.7872 17.9947 33.1569C14.2069 37.0334 13.7847 37.5072 13.7847 37.882C13.7847 38.3338 14.2537 38.9315 14.6082 38.9315C15.0701 38.9315 15.691 38.3619 19.7673 34.1993C23.8144 30.0666 24.0407 29.8106 24.0407 29.3659C24.0407 29.0121 23.9584 28.8303 23.707 28.6291C23.2951 28.2993 23.0713 28.2946 22.5846 28.6056ZM35.7699 28.6291C35.5188 28.8301 35.4362 29.0121 35.4362 29.3647C35.4362 29.8085 35.6679 30.0689 39.8362 34.3108C42.8382 37.3658 44.3502 38.8167 44.5954 38.8769C45.1302 39.0082 45.6174 38.5947 45.6693 37.9653C45.7095 37.4796 45.677 37.4424 41.4276 33.103C39.0726 30.698 36.9917 28.6474 36.8037 28.5461C36.3447 28.2989 36.164 28.3134 35.7699 28.6291ZM10.8817 29.0882C10.7342 29.279 10.6192 29.618 10.6192 29.8616C10.6192 30.268 10.5924 30.2954 10.1932 30.2954C9.57553 30.2954 9.09983 30.7201 9.09983 31.2715C9.09983 31.8807 9.46816 32.2288 10.1128 32.2288C10.6168 32.2288 10.6192 32.2312 10.6192 32.7301C10.6192 33.432 10.9612 33.8272 11.5689 33.8272C12.1765 33.8272 12.5185 33.432 12.5185 32.7301C12.5185 32.2336 12.5232 32.2288 13.0109 32.2288C13.6637 32.2288 14.0496 31.9022 14.0654 31.3363C14.0813 30.7658 13.5792 30.2954 12.9546 30.2954C12.5439 30.2954 12.5185 30.2701 12.5185 29.8616C12.5185 29.238 12.1009 28.7486 11.5689 28.7486C11.2608 28.7486 11.072 28.8419 10.8817 29.0882ZM47.7274 29.0882C47.5798 29.279 47.4649 29.618 47.4649 29.8616C47.4649 30.2701 47.4394 30.2954 47.0288 30.2954C46.4042 30.2954 45.902 30.7658 45.918 31.3363C45.9338 31.9022 46.3196 32.2288 46.9725 32.2288C47.4602 32.2288 47.4649 32.2336 47.4649 32.7301C47.4649 33.432 47.8069 33.8272 48.4145 33.8272C49.0221 33.8272 49.3641 33.432 49.3641 32.7301C49.3641 32.2312 49.3665 32.2288 49.8706 32.2288C50.5152 32.2288 50.8835 31.8807 50.8835 31.2715C50.8835 30.7201 50.4078 30.2954 49.7902 30.2954C49.3867 30.2954 49.3641 30.2713 49.3641 29.8384C49.3641 28.8796 48.2743 28.3802 47.7274 29.0882ZM29.1054 31.4554C28.8563 31.709 28.8521 31.8851 28.8521 42.1539C28.8521 52.4228 28.8563 52.5989 29.1054 52.8524C29.4253 53.1782 30.0017 53.1833 30.3891 52.8638L30.6881 52.6175V42.1539V31.6904L30.3891 31.4441C30.0017 31.1246 29.4253 31.1297 29.1054 31.4554ZM55.9482 32.68V34.1623H55.3785H54.8087V32.68V31.1976H55.3785H55.9482V32.68ZM9.88156 36.0073C9.49209 36.4295 9.51792 37.0375 9.93993 37.3753C10.4844 37.8114 11.0196 37.7097 11.323 37.1124C11.8216 36.1309 10.6186 35.2088 9.88156 36.0073ZM58.1007 37.5162V38.9365L55.3468 38.9019L52.5929 38.8671L52.5562 37.6522C52.536 36.984 52.5484 36.3605 52.5839 36.2665C52.6345 36.1321 53.228 36.0958 55.3745 36.0958H58.1007V37.5162ZM21.6442 39.1423C21.4967 39.333 21.3817 39.672 21.3817 39.9156C21.3817 40.3264 21.358 40.3494 20.9328 40.3494C20.625 40.3494 20.3862 40.4489 20.1731 40.6658C19.5299 41.3205 19.9714 42.2828 20.915 42.2828C21.3659 42.2828 21.3817 42.2984 21.3817 42.7439C21.3817 43.3841 21.9938 44.0219 22.4928 43.9017C22.989 43.7822 23.281 43.3682 23.281 42.7841C23.281 42.2953 23.2922 42.2828 23.7325 42.2828C24.3175 42.2828 24.6551 42.0916 24.8122 41.6712C25.0698 40.9814 24.5165 40.3494 23.6549 40.3494C23.3031 40.3494 23.281 40.319 23.281 39.8338C23.281 39.1776 22.939 38.8026 22.3406 38.8026C22.0225 38.8026 21.8364 38.8934 21.6442 39.1423ZM36.9556 39.0604C36.7869 39.2322 36.7024 39.49 36.7024 39.8338C36.7024 40.319 36.6802 40.3494 36.3285 40.3494C35.4669 40.3494 34.9136 40.9814 35.1712 41.6712C35.3282 42.0916 35.6659 42.2828 36.2509 42.2828C36.6911 42.2828 36.7024 42.2953 36.7024 42.7841C36.7024 43.3682 36.9944 43.7822 37.4906 43.9017C37.9896 44.0219 38.6017 43.3841 38.6017 42.7439C38.6017 42.2955 38.6148 42.2828 39.0861 42.2828C40.0134 42.2828 40.4472 41.3142 39.8102 40.6658C39.5971 40.4489 39.3583 40.3494 39.0505 40.3494C38.6253 40.3494 38.6017 40.3264 38.6017 39.9156C38.6017 39.2869 38.1845 38.8026 37.6428 38.8026C37.3777 38.8026 37.1104 38.9029 36.9556 39.0604ZM56.8346 42.025V43.1851H55.3152H53.7957V42.025V40.865H55.3152H56.8346V42.025ZM14.1884 41.8311C13.9819 42.0079 13.6215 42.5332 13.3873 42.9984C12.9972 43.7733 12.8899 43.8827 12.1036 44.3058C10.9615 44.9203 10.5711 45.3933 10.6586 46.0568C10.7437 46.7035 10.9586 46.9308 12.0232 47.5002C12.8402 47.9373 12.9351 48.0345 13.4177 48.9298C14.0212 50.049 14.2849 50.2745 14.9918 50.2745C15.64 50.2745 15.8983 50.0393 16.5186 48.8846C16.9436 48.0933 17.0772 47.9561 17.8082 47.5593C18.947 46.9409 19.2292 46.6248 19.2292 45.9675C19.2292 45.2405 19.0043 44.966 17.9014 44.3461C17.0175 43.8495 16.926 43.7561 16.4857 42.903C15.7819 41.5397 14.9704 41.161 14.1884 41.8311ZM16.1385 45.5697L16.7302 45.9227L16.1549 46.2872C15.8385 46.4876 15.4383 46.8931 15.2655 47.1882L14.9511 47.7248L14.606 47.1253C14.3653 46.7073 14.085 46.4348 13.68 46.2252L13.0989 45.9246L13.6001 45.6642C14.1754 45.3653 14.4235 45.1066 14.7354 44.4804L14.9571 44.0355L15.2519 44.6261C15.4578 45.0385 15.7253 45.3233 16.1385 45.5697ZM56.8346 46.5365V47.9543H55.3152H53.7957V46.5365V45.1186H55.3152H56.8346V46.5365ZM23.997 46.2566C23.7137 46.5751 23.7263 47.3425 24.019 47.6121C24.3319 47.9005 25.0856 47.8877 25.3505 47.5897C25.6338 47.2712 25.6212 46.5039 25.3285 46.2342C25.0156 45.9459 24.2619 45.9586 23.997 46.2566ZM33.4933 46.2566C33.21 46.5751 33.2226 47.3425 33.5153 47.6121C33.8282 47.9005 34.5819 47.8877 34.8468 47.5897C35.1301 47.2712 35.1175 46.5039 34.8248 46.2342C34.5119 45.9459 33.7582 45.9586 33.4933 46.2566ZM56.8346 51.5635V53.2391H55.3152H53.7957V51.6494C53.7957 50.775 53.8337 50.021 53.8802 49.9738C53.9265 49.9265 54.6103 49.8878 55.3996 49.8878H56.8346V51.5635ZM43.5974 51.1065C43.3273 51.3813 43.2865 51.5398 43.2865 52.3137C43.2865 53.4242 43.5671 53.8836 44.2454 53.8836C44.9684 53.8836 45.1858 53.5395 45.1858 52.3955C45.1858 51.5347 45.1501 51.3865 44.8749 51.1065C44.704 50.9325 44.4166 50.7901 44.2361 50.7901C44.0557 50.7901 43.7683 50.9325 43.5974 51.1065ZM46.2563 51.1065C45.9812 51.3865 45.9455 51.5347 45.9455 52.3955C45.9455 53.5395 46.1629 53.8836 46.8859 53.8836C47.5641 53.8836 47.8447 53.4242 47.8447 52.3137C47.8447 51.5398 47.804 51.3813 47.5339 51.1065C47.363 50.9325 47.0755 50.7901 46.8951 50.7901C46.7147 50.7901 46.4272 50.9325 46.2563 51.1065ZM48.9381 51.0573C48.6293 51.3045 48.6044 51.3981 48.6044 52.3175C48.6044 53.558 48.7861 53.8836 49.4784 53.8836C50.1527 53.8836 50.4114 53.5493 50.4795 52.5895C50.5438 51.6854 50.3588 51.1395 49.9194 50.9357C49.4799 50.7318 49.3197 50.7517 48.9381 51.0573ZM43.9062 55.3257C43.462 55.4789 43.2865 55.9259 43.2865 56.9045C43.2865 57.8523 43.5031 58.2208 44.1328 58.3446C44.458 58.4086 44.5988 58.3599 44.8609 58.093C45.1488 57.7999 45.1858 57.6579 45.1858 56.8457C45.1858 56.3416 45.1299 55.8229 45.0618 55.6932C44.8916 55.3696 44.313 55.1856 43.9062 55.3257ZM46.4936 55.3665C46.0114 55.5728 45.9455 55.753 45.9455 56.8646C45.9455 57.6565 45.9838 57.8013 46.2704 58.093C46.5325 58.3599 46.6733 58.4086 46.9984 58.3446C47.6281 58.2208 47.8447 57.8523 47.8447 56.9045C47.8447 56.4549 47.7799 55.9421 47.7006 55.7651C47.5048 55.3275 46.9854 55.156 46.4936 55.3665ZM49.2703 55.274C48.7833 55.3514 48.6044 55.7796 48.6044 56.8676C48.6044 57.787 48.6293 57.8806 48.9381 58.1278C49.3187 58.4327 49.4801 58.4532 49.914 58.252C50.3344 58.0569 50.5037 57.6204 50.5037 56.7307C50.5037 55.657 50.0714 55.1466 49.2703 55.274ZM56.8346 56.5905V58.0083H55.3152H53.7957V56.5905V55.1726H55.3152H56.8346V56.5905ZM29.0617 55.6661C28.881 55.8694 28.8521 56.2672 28.8521 58.5569V61.2121L29.1858 61.4792C29.6201 61.8271 29.8976 61.8164 30.3328 61.4353L30.6881 61.1242V58.5487C30.6881 56.1967 30.6672 55.9495 30.4469 55.7017C30.1363 55.3523 29.3585 55.3323 29.0617 55.6661ZM3.93751 56.4189C3.849 56.4553 3.68782 56.6596 3.57931 56.8731C3.41673 57.1932 3.40914 57.3279 3.53601 57.6398C3.62071 57.8479 3.79241 58.074 3.9175 58.1421C4.044 58.2111 5.41741 58.2661 7.00811 58.2661H9.87105L10.1818 57.9497C10.3527 57.7757 10.4926 57.4831 10.4926 57.2994C10.4926 57.1157 10.3527 56.8231 10.1818 56.6491L9.87105 56.3327L6.98468 56.3429C5.39728 56.3484 4.02602 56.3827 3.93751 56.4189ZM19.6091 58.2686V59.0444L16.7918 59.0098L13.9746 58.9751L13.9366 58.2339L13.8986 57.4928H16.7538H19.6091V58.2686ZM3.71707 59.9435C3.40103 60.299 3.42319 60.9229 3.76404 61.2702C4.02842 61.5395 4.1634 61.5551 6.59369 61.5952C7.99737 61.6184 9.33508 61.6012 9.56641 61.557C10.4007 61.3977 10.7786 60.4908 10.2394 59.9418C10.0003 59.6985 9.81737 59.684 6.96696 59.684C4.10211 59.684 3.93599 59.6973 3.71707 59.9435ZM56.8346 62.0042V64.0665H55.3152H53.7957V62.0901C53.7957 61.003 53.8337 60.075 53.8802 60.0278C53.9265 59.9805 54.6103 59.9418 55.3996 59.9418H56.8346V62.0042ZM19.6091 62.5198V64.0665H16.7602H13.9113V62.5198V60.973H16.7602H19.6091V62.5198ZM51.8965 62.9709V64.0665H46.8318H41.7671V62.9709V61.8753H46.8318H51.8965V62.9709Z" fill="white"/>
</svg>
