<svg width="34" height="34" viewBox="0 0 34 34" fill="none" xmlns="http://www.w3.org/2000/svg">
<path d="M17 34C26.3888 34 34 26.3888 34 17C34 7.61116 26.3888 0 17 0C7.61116 0 0 7.61116 0 17C0 26.3888 7.61116 34 17 34Z" fill="#46494D"/>
<path d="M16.9879 26.9922C15.6622 26.9922 14.3366 26.9922 13.0169 26.9922C10.1901 26.9861 7.62349 24.8384 7.10896 22.0553C7.03632 21.6681 7 21.287 7 20.8937C7.00605 18.274 7 15.6483 7.00605 13.0286C7.0121 10.0338 9.34867 7.41409 12.3269 7.04504C12.5751 7.01479 12.8172 7.00269 13.0593 7.00269C15.6925 7.00269 18.3257 6.99664 20.9528 7.00269C23.9673 7.00874 26.5823 9.32592 26.9576 12.3268C26.9879 12.5809 27 12.835 27 13.0891C27 15.6967 27 18.2982 27 20.9058C26.9939 23.9671 24.6998 26.5626 21.6671 26.9559C21.1404 27.0224 20.6138 26.9922 20.0932 26.9982C19.0581 26.9982 18.023 26.9922 16.9879 26.9922ZM17.2603 25.3284C18.4104 25.2921 19.839 25.395 21.2615 25.2861C22.5327 25.1893 23.5557 24.6085 24.3547 23.6283C25.0448 22.7813 25.3293 21.7952 25.3354 20.7182C25.3414 18.4676 25.3354 16.223 25.3354 13.9724C25.3354 13.5549 25.3353 13.1435 25.299 12.7261C25.178 11.4556 24.609 10.4331 23.6283 9.63448C22.7809 8.95082 21.7942 8.66041 20.7167 8.66041C18.4225 8.65436 16.1344 8.66041 13.8402 8.66041C13.477 8.66041 13.1138 8.66041 12.7446 8.69671C11.4552 8.81167 10.4201 9.39247 9.61501 10.3907C8.93705 11.2317 8.65859 12.2179 8.65859 13.2827C8.65254 15.5636 8.65859 17.8505 8.65859 20.1314C8.65859 20.5065 8.65859 20.8755 8.69491 21.2507C8.81598 22.5272 9.38498 23.5618 10.3777 24.3604C11.2191 25.038 12.1998 25.3224 13.2651 25.3284C14.5061 25.3345 15.747 25.3284 17.2603 25.3284Z" fill="white"/>
<path d="M17.0236 12C19.8584 12.0173 22.2044 14.4092 21.9859 17.3934C21.8019 19.9234 19.6744 22.0508 16.9201 21.9991C14.1084 21.9473 11.8946 19.6071 12.0039 16.8414C12.1074 14.0643 14.3786 11.9885 17.0236 12ZM20.3701 16.9909C20.3701 15.1222 18.8636 13.587 17.0006 13.5985C14.9364 13.6158 13.5909 15.289 13.6081 16.9967C13.6254 18.8769 15.1261 20.3891 17.0121 20.3834C18.8694 20.3891 20.3759 18.8711 20.3701 16.9909Z" fill="white"/>
</svg>
