<svg width="40" height="40" viewBox="0 0 40 40" xmlns="http://www.w3.org/2000/svg">
<path d="M40 20C40 31.0457 31.0457 40 20 40C8.9543 40 0 31.0457 0 20C0 8.9543 8.9543 0 20 0C31.0457 0 40 8.9543 40 20Z"/>
<path d="M10 15.3335C10 14.2289 10.8954 13.3335 12 13.3335H27.7647C28.8693 13.3335 29.7647 14.2289 29.7647 15.3335V25.3335C29.7647 26.4381 28.8693 27.3335 27.7647 27.3335H12C10.8954 27.3335 10 26.4381 10 25.3335V15.3335Z"/>
<path fill-rule="evenodd" clip-rule="evenodd" d="M9 15.3335C9 13.6766 10.3431 12.3335 12 12.3335H27.7647C29.4216 12.3335 30.7647 13.6766 30.7647 15.3335V25.3335C30.7647 26.9904 29.4216 28.3335 27.7647 28.3335H12C10.3431 28.3335 9 26.9903 9 25.3335V15.3335ZM12 14.3335C11.4477 14.3335 11 14.7812 11 15.3335V25.3335C11 25.8858 11.4477 26.3335 12 26.3335H27.7647C28.317 26.3335 28.7647 25.8858 28.7647 25.3335V15.3335C28.7647 14.7812 28.317 14.3335 27.7647 14.3335H12Z" fill="white"/>
<path d="M11.4215 14.6364C10.9173 14.1742 11.2443 13.3335 11.9283 13.3335H27.8368C28.5208 13.3335 28.8478 14.1742 28.3436 14.6364L21.9097 20.5341C20.7627 21.5855 19.0023 21.5855 17.8553 20.5341L11.4215 14.6364Z"/>
<path fill-rule="evenodd" clip-rule="evenodd" d="M10.7458 15.3735C9.5693 14.295 10.3323 12.3335 11.9283 12.3335H27.8368C29.4328 12.3335 30.1959 14.295 29.0194 15.3735L22.5855 21.2712C21.0562 22.6731 18.709 22.6731 17.1797 21.2712L10.7458 15.3735ZM12.571 14.3335L18.5311 19.7969C19.2958 20.4978 20.4694 20.4978 21.234 19.7969L27.1941 14.3335H12.571Z" fill="white"/>
</svg>
