<svg width="69" height="69" viewBox="0 0 69 69" fill="none" xmlns="http://www.w3.org/2000/svg">
<path fill-rule="evenodd" clip-rule="evenodd" d="M51.2079 0.135105C46.242 1.18392 42.7063 5.20752 42.2387 10.3421C41.9625 13.3752 43.174 18.0732 45.0668 21.3098C45.4016 21.8821 45.6755 22.3911 45.6755 22.441C45.6755 22.6498 44.1354 22.2954 41.2544 21.4236C39.5672 20.9131 35.94 19.8164 33.194 18.9863C30.4481 18.1563 27.5031 17.266 26.6497 17.008C24.7484 16.433 23.5622 16.2725 22.3655 16.4282C21.1639 16.5844 3.33627 21.9846 2.47754 22.4524C1.61868 22.9204 0.8115 23.803 0.358927 24.769L0 25.5354V44.8507V64.1659L0.441778 65.0642C1.34341 66.8971 2.97707 67.9217 4.9926 67.9184C5.95819 67.9169 6.45651 67.7989 9.71533 66.8007C21.6041 63.1593 22.2127 62.9879 23.2763 62.9833C24.2149 62.9791 25.0071 63.197 34.2061 65.9894L44.1238 69L45.6755 68.9982C47.2164 68.9965 47.2496 68.9897 50.3983 68.0216C53.8791 66.9514 64.4887 63.7342 65.2411 63.5208C66.6512 63.1209 67.9389 62.0113 68.574 60.6489L68.9518 59.8386L68.9875 40.871C69.0193 23.8433 69.001 21.8266 68.8077 21.1534C68.1864 18.9881 66.2579 17.4998 64.0734 17.4998C63.2162 17.4998 63.1888 17.4894 63.2751 17.196C64.2874 13.7586 64.5261 11.1344 64.0406 8.78032C63.2072 4.73876 60.0314 1.38528 55.9981 0.287579C54.8785 -0.0170987 52.3149 -0.0986702 51.2079 0.135105ZM56.0158 2.42977C58.7173 3.29397 60.9071 5.50099 61.8157 8.27496C62.1664 9.34619 62.2044 9.63858 62.1982 11.2199C62.1782 16.3085 59.8429 21.3803 55.4274 25.924C53.4757 27.9323 53.0314 27.9377 51.1248 25.9764C46.7303 21.4558 44.3173 16.3257 44.2792 11.4225C44.2682 10.0146 44.3178 9.56619 44.5784 8.72144C45.1748 6.78709 46.2191 5.17295 47.6321 4.0007C48.5123 3.27047 50.2393 2.41843 51.3428 2.1698C52.6402 1.87768 54.637 1.98869 56.0158 2.42977ZM52.2199 4.68433C49.9574 5.00981 47.8526 6.84786 47.155 9.10701C45.8875 13.2115 48.9429 17.3648 53.2297 17.3648C56.4446 17.3648 59.1345 15.0394 59.5694 11.8846C59.7815 10.3461 59.2667 8.11749 58.6192 7.77067C57.9561 7.41549 57.1433 7.84711 57.147 8.55262C57.1481 8.75696 57.2455 9.1975 57.3636 9.53175C57.6509 10.3446 57.6498 11.6014 57.3615 12.4651C57.0649 13.3533 56.1176 14.4248 55.203 14.907C54.5953 15.2273 54.3623 15.2702 53.2319 15.2704C52.1542 15.2706 51.8577 15.2215 51.3705 14.9614C49.8556 14.1528 49.0354 12.906 48.9407 11.268C48.8554 9.79375 49.1451 9.03084 50.1946 7.96663C51.2421 6.90445 51.9963 6.62057 53.6629 6.66122C54.783 6.6885 54.8487 6.67392 55.1134 6.33696C55.7339 5.54745 55.3227 4.86422 54.109 4.66758C53.6637 4.59547 53.2386 4.54347 53.1644 4.55211C53.0902 4.56076 52.6652 4.62018 52.2199 4.68433ZM22.3318 20.1952V21.9451L21.3535 22.2365C12.0257 25.0148 6.62019 26.7071 6.2649 26.9602C6.03025 27.1275 5.72516 27.5135 5.58699 27.8179C5.34896 28.3427 5.33574 28.9299 5.33291 39.1237C5.32994 49.7991 5.33196 49.8784 5.60966 50.2317C5.99638 50.7238 6.68752 50.7238 7.07424 50.2317C7.34276 49.8901 7.35396 49.7175 7.35396 45.9258V41.9757L7.65757 41.8943C7.82462 41.8496 8.38622 41.8134 8.90572 41.814C10.5318 41.8159 10.746 41.9824 13.1852 45.142C13.2625 45.2421 13.2298 45.4526 13.0972 45.7093C12.7962 46.2918 12.836 46.768 13.2176 47.1498C13.6674 47.6002 14.1736 47.5764 14.6337 47.0834L15.0052 46.6854L15.6538 46.8808C16.5421 47.1483 16.8009 47.1333 19.069 46.6824C20.1585 46.4658 21.3392 46.246 21.6926 46.194L22.3354 46.0996L22.2998 50.6687L22.2643 55.2378L14.9778 57.4383C10.9702 58.6487 7.61547 59.6097 7.52263 59.5742C7.39525 59.5253 7.35396 58.8333 7.35396 56.7516C7.35396 54.2583 7.32981 53.9639 7.1015 53.6817C6.75067 53.2481 5.93323 53.2481 5.5824 53.6817C5.35328 53.9649 5.32994 54.2614 5.32994 56.8879C5.32994 59.4611 5.35827 59.8374 5.5855 60.2829C5.72597 60.5584 5.9559 60.888 6.09637 61.0152C6.43398 61.3208 7.26396 61.6618 7.66985 61.6618C7.90814 61.6618 19.2836 58.3008 22.0282 57.4194L22.3318 57.3219V59.1374V60.9528L21.8932 61.04C21.6521 61.088 17.9025 62.2039 13.561 63.52C4.96116 66.1266 4.71855 66.1777 3.6226 65.6076C2.93821 65.2516 2.31697 64.5224 2.11052 63.8332C1.99839 63.4584 1.95656 58.2736 1.95656 44.7551V26.1916L2.32763 25.4592C2.5639 24.9928 2.89476 24.594 3.23844 24.361C3.62287 24.1005 6.41751 23.1991 12.9538 21.2278C18.0003 19.7056 22.175 18.4569 22.2306 18.4527C22.2862 18.4486 22.3318 19.2327 22.3318 20.1952ZM34.6651 21.5452C39.6302 23.0472 43.8959 24.3091 44.1443 24.3494L44.5961 24.4229V26.2284C44.5961 27.2214 44.562 28.0339 44.5206 28.0339C44.4792 28.0339 43.4386 27.73 42.2082 27.3586C40.9779 26.9872 39.8554 26.6834 39.7137 26.6834C39.3568 26.6834 38.7938 27.2811 38.7938 27.66C38.7938 28.2612 39.152 28.5437 40.3818 28.9132C41.0299 29.1078 42.2432 29.4778 43.078 29.7355L44.5961 30.204V34.0982V37.9926L43.9551 38.179C43.0312 38.4476 41.4473 38.3839 40.5415 38.0415C38.9309 37.4329 38.0767 36.4383 37.5716 34.5839C37.0213 32.5632 36.5549 31.9077 34.5043 30.2733C33.7094 29.6398 32.9271 28.9151 32.7658 28.6628C32.4933 28.2367 31.8916 26.5336 31.9799 26.4385C32.0016 26.4151 32.786 26.6234 33.7231 26.9013L35.4269 27.4066L35.7948 27.1328C36.217 26.8187 36.3523 26.0912 36.0622 25.6946C35.9405 25.5281 34.4439 25.014 31.4346 24.1045C28.9885 23.3654 26.3951 22.5779 25.6714 22.3547L24.3558 21.9487V20.2091V18.4696L24.9967 18.642C25.3493 18.7368 29.7 20.0433 34.6651 21.5452ZM65.6693 20.0189C66.0198 20.272 66.4014 20.7227 66.6242 21.1465L66.9953 21.8523V40.4246C66.9953 54.1286 66.9543 59.134 66.8386 59.5202C66.6436 60.1718 65.9317 61.0194 65.3468 61.2964C64.8618 61.5261 47.052 66.9288 46.7798 66.9288C46.6529 66.9288 46.6212 66.5106 46.6498 65.208L46.6875 63.4872L54.5578 61.1043C63.021 58.542 62.9912 58.554 63.4361 57.5133C63.5903 57.1526 63.6219 54.4071 63.6219 41.362V25.6455L63.3082 25.0502C62.7647 24.019 61.5747 23.6016 60.2566 23.98C60.0023 24.0529 59.7707 24.0894 59.7422 24.0608C59.7136 24.0321 59.9144 23.6964 60.1885 23.3146C60.4625 22.9328 61.0286 22.0054 61.4465 21.2537C62.3345 19.6559 62.561 19.5128 64.1175 19.5649C64.959 19.5931 65.1617 19.6524 65.6693 20.0189ZM22.3318 29.0468C22.3318 33.7961 22.3416 33.986 22.6016 34.2463C22.9426 34.5875 23.5567 34.5929 23.9697 34.2583L24.2883 34.0002L24.3269 29.0588C24.3481 26.341 24.4088 24.1187 24.4618 24.1202C24.5149 24.1218 25.7072 24.4744 27.1114 24.9038L29.6647 25.6844L30.019 27.0279C30.6822 29.5429 31.1156 30.2008 33.1756 31.8201C34.8119 33.1062 35.1841 33.6015 35.567 35.004C35.9776 36.5077 36.5446 37.554 37.4257 38.4344C39.0579 40.0652 41.3807 40.6939 44.09 40.2383L44.5961 40.1532V41.5281C44.5961 42.4707 44.6581 43.0232 44.7935 43.285C45.1131 43.9038 45.6863 44.0104 46.261 43.5578C46.6079 43.2846 46.6135 43.2529 46.6503 41.3157L46.6875 39.3506L48.2786 38.6808C50.0064 37.9536 51.0951 37.666 51.6213 37.7983C52.1323 37.9267 52.9792 38.7236 53.4651 39.5334C54.0217 40.4611 54.427 41.6308 55.1736 44.4636C56.1515 48.1738 56.6182 49.3119 57.6192 50.4262C58.3396 51.2281 59.0998 51.6985 60.5021 52.2099L61.5304 52.585L61.5678 54.6483C61.5883 55.7831 61.557 56.7598 61.4982 56.8187C61.4395 56.8775 58.083 57.9234 54.0394 59.143L46.6875 61.3602L46.6521 56.7251L46.6166 52.09L46.2628 51.8114C45.6863 51.3576 45.1135 51.4634 44.7935 52.0828C44.632 52.3954 44.5961 53.2728 44.5961 56.9089V61.3531L40.7841 60.2057L36.9722 59.0584L36.9676 57.8954C36.9639 56.9489 36.9023 56.6067 36.6373 56.0572C36.302 55.3619 34.8805 53.8572 32.98 52.1858C31.6805 51.043 30.8139 49.7756 30.2712 48.2241C29.6069 46.3252 28.8776 45.4064 27.4803 44.7085C26.8846 44.4108 25.2041 43.9936 24.5245 43.9747C24.427 43.972 24.3558 43.7943 24.3558 43.5545C24.3558 43.0745 23.7235 42.3494 23.3049 42.3494C23.1608 42.3494 22.8828 42.4754 22.6873 42.6293C22.4019 42.8539 22.3318 43.0236 22.3318 43.4888V44.0683L21.6908 44.1502C21.3382 44.1951 20.048 44.4234 18.8234 44.6573C17.0231 45.0013 16.525 45.0539 16.2205 44.9328C15.8985 44.8045 15.8647 44.744 15.9877 44.5143C16.3599 43.8179 15.6765 43.0673 14.7979 43.2079C14.2919 43.2889 14.2753 43.2773 13.5696 42.3483C12.6742 41.1694 11.9494 40.5092 11.1486 40.1429C10.6286 39.9049 10.2617 39.857 8.93972 39.8543L7.3545 39.8509L7.35423 34.2168L7.35396 28.5827L8.53465 28.2216C14.598 26.3668 22.0271 24.1348 22.1631 24.127C22.2951 24.1194 22.3318 25.1882 22.3318 29.0468ZM47.5646 25.0257C47.8244 25.3723 48.3618 26.0081 48.7589 26.4386C49.2501 26.9713 49.4227 27.2433 49.2987 27.2893C48.9199 27.4299 46.8376 28.0339 46.7313 28.0339C46.5996 28.0339 46.5791 24.6085 46.7101 24.4775C46.9018 24.2856 47.1098 24.4191 47.5646 25.0257ZM61.5648 38.2059L61.5994 50.4711L61.2949 50.3767C60.5745 50.1531 59.4473 49.4885 59.1121 49.0898C58.3527 48.1866 57.9355 47.0828 57.0236 43.5649C56.0499 39.8087 55.4332 38.4503 54.0929 37.1088L53.2319 36.2471V35.3037C53.2319 34.4341 53.2001 34.3286 52.8237 33.952C52.4965 33.6245 52.3425 33.5607 52.0478 33.6306C51.4645 33.7686 51.2079 34.181 51.2079 34.9801V35.6842L50.4274 35.8295C49.9983 35.9093 49.0723 36.1972 48.3697 36.4691C47.6672 36.7411 46.986 36.9974 46.8562 37.0387C46.6355 37.109 46.6201 36.8881 46.6201 33.6634C46.6201 30.4933 46.6392 30.2074 46.8562 30.1446C46.986 30.1069 48.0063 29.7987 49.1233 29.4595L51.1543 28.8427L51.7545 29.1332C52.5699 29.5277 53.88 29.5367 54.7343 29.1537C55.0781 28.9995 55.8082 28.4466 56.3569 27.925C57.3463 26.9844 57.3683 26.9724 59.1049 26.4332C60.0678 26.1342 61.0075 25.9011 61.1931 25.9152L61.5304 25.9406L61.5648 38.2059ZM14.573 29.6079C13.3902 30.2294 12.4882 31.6138 12.3789 32.9758C12.2521 34.5586 12.9528 35.8183 14.3396 36.4997C15.0141 36.8313 15.2676 36.8796 16.3271 36.8788C17.3316 36.878 17.6417 36.8245 18.1203 36.5694C19.3291 35.9255 19.5842 34.6678 18.756 33.436C18.3629 32.8514 18.2837 32.6127 18.2837 32.0132C18.2837 31.6169 18.2191 31.1216 18.1401 30.9125C17.9449 30.3951 17.3626 29.7952 16.8375 29.5704C16.261 29.3235 15.077 29.3431 14.573 29.6079ZM16.2641 32.5835C16.3286 33.5746 16.3815 33.746 16.7738 34.2345L17.2114 34.7796L16.861 34.8676C16.3818 34.988 15.381 34.8359 14.9976 34.5844C14.1566 34.0329 14.1663 32.6684 15.0176 31.7754C15.2848 31.4951 15.4826 31.408 15.7848 31.4377L16.1922 31.4777L16.2641 32.5835ZM22.8554 37.7586C22.2781 38.0962 22.2627 39.1925 22.8313 39.4878C22.9647 39.5572 23.7893 39.644 24.6636 39.681C26.0932 39.7414 26.2868 39.7217 26.5864 39.4859C26.8181 39.3036 26.9196 39.0904 26.9196 38.7866C26.9196 38.1686 26.6575 37.8835 25.967 37.7501C25.1601 37.5942 23.1269 37.5997 22.8554 37.7586ZM18.4678 39.1896C17.2112 39.9336 16.5296 40.6119 16.5296 41.1183C16.5296 41.359 16.6451 41.6547 16.7994 41.8092C17.2227 42.2328 17.8214 42.1537 18.6088 41.5701C18.9866 41.2902 19.5563 40.8927 19.8746 40.6869C20.7173 40.1421 20.8693 39.5634 20.3338 38.9393C20.0155 38.5683 19.371 38.6548 18.4678 39.1896ZM28.9671 39.2856C28.6116 39.6643 28.583 40.3363 28.9098 40.6261C29.5142 41.162 31.5803 42.2534 31.9696 42.2423C32.7415 42.2203 33.1406 41.2247 32.6206 40.6184C32.2642 40.2029 30.0167 38.9731 29.6137 38.9731C29.419 38.9731 29.1288 39.1133 28.9671 39.2856ZM51.1647 39.7565C50.9383 40.0069 50.271 42.0701 50.1597 42.8641C50.0373 43.7364 51.0558 44.3013 51.7275 43.7337C52.0469 43.4638 52.6708 41.6914 52.7845 40.7317C52.8481 40.1927 52.8137 40.0401 52.5741 39.8003C52.215 39.4409 51.4709 39.4178 51.1647 39.7565ZM34.4068 42.7563C34.1136 43.0807 34.0862 43.7293 34.3522 44.0536C34.7436 44.5306 36.9312 45.8607 37.3243 45.8607C37.8511 45.8607 38.2541 45.4307 38.2541 44.8688C38.2541 44.3382 38.1582 44.2412 36.6415 43.2384C35.3863 42.4084 34.8299 42.2885 34.4068 42.7563ZM48.0835 45.6758C47.761 45.9457 47.1737 46.3491 46.7782 46.5726C46.353 46.8129 46.006 47.1191 45.9288 47.3224C45.7454 47.8052 46.0076 48.3638 46.517 48.575C46.8945 48.7315 47.0049 48.7076 47.7915 48.2995C49.0219 47.661 49.9935 46.7555 49.9935 46.2473C49.9935 45.7558 49.4601 45.1855 49.0003 45.1855C48.8176 45.1855 48.4072 45.4051 48.0835 45.6758ZM39.9963 46.1134C39.5736 46.4559 39.5627 47.2824 39.9763 47.6176C40.3944 47.9565 42.6385 48.8319 43.0892 48.8319C43.554 48.8319 44.0563 48.3343 44.0563 47.8741C44.0563 47.3431 43.7041 46.9803 42.943 46.7275C42.5534 46.598 41.9311 46.3506 41.56 46.1777C40.7414 45.7963 40.4047 45.7824 39.9963 46.1134ZM26.3356 46.4243C27.2738 46.7715 27.8854 47.4734 28.2704 48.6444C29.0912 51.1407 29.8101 52.0815 33.2885 55.2096C34.5419 56.3367 35.0157 57.0854 35.0157 57.9387C35.0157 58.3617 34.9741 58.441 34.7795 58.3888C34.6497 58.3541 32.2515 57.6329 29.4504 56.7862L24.3575 55.2468L24.3566 50.6131L24.3558 45.9792L24.9967 46.0726C25.3493 46.1241 25.9518 46.2822 26.3356 46.4243ZM12.194 49.3059C11.7893 49.5259 11.7282 49.6468 11.6047 50.4711C11.4866 51.2593 11.872 51.803 12.549 51.803C13.1031 51.803 13.4982 51.3586 13.6282 50.5893C13.7472 49.8842 13.6222 49.5458 13.1533 49.3031C12.685 49.0607 12.6446 49.0608 12.194 49.3059ZM35.9939 60.8751L44.5961 63.4722V65.2006C44.5961 66.1511 44.5463 66.9288 44.4853 66.9288C44.4243 66.9288 42.9519 66.4995 41.2131 65.9748C39.4743 65.4502 35.2585 64.1778 31.8447 63.1475C28.4308 62.1172 25.3493 61.2024 24.9967 61.1144L24.3558 60.9546V59.1604V57.3664L25.8738 57.8222C26.7088 58.0729 31.2628 59.4467 35.9939 60.8751Z" fill="white"/>
</svg>
