<svg width="60" height="60" viewBox="0 0 60 60" fill="none" xmlns="http://www.w3.org/2000/svg">
<circle cx="30" cy="30" r="30" fill="#34B5B2"/>
<path d="M24.0395 30.6882C23.7458 30.4473 23.363 30.3165 22.9681 30.3222C22.5731 30.3279 22.1951 30.4697 21.9099 30.719C21.6248 30.9684 21.4535 31.3069 21.4304 31.6666C21.4074 32.0264 21.5343 32.3808 21.7857 32.6587L25.2603 35.9858C25.4058 36.125 25.5806 36.236 25.7742 36.312C25.9679 36.3881 26.1764 36.4277 26.3872 36.4284C26.5969 36.4295 26.8047 36.3922 26.9983 36.3186C27.1919 36.245 27.3673 36.1367 27.5141 36L38.1258 26.0047C38.2697 25.8697 38.383 25.7102 38.4593 25.5352C38.5356 25.3602 38.5733 25.1733 38.5704 24.985C38.5675 24.7967 38.524 24.6108 38.4423 24.4378C38.3607 24.2649 38.2425 24.1083 38.0945 23.9771C37.9465 23.8458 37.7716 23.7424 37.5798 23.6728C37.3881 23.6032 37.1831 23.5688 36.9767 23.5714C36.7704 23.5741 36.5666 23.6138 36.377 23.6883C36.1875 23.7628 36.0159 23.8706 35.872 24.0056L26.4028 32.9443L24.0395 30.6882Z" fill="white"/>
</svg>
