<svg width="16" height="16" viewBox="0 0 16 16" fill="none" xmlns="http://www.w3.org/2000/svg">
<path d="M8 16C3.58172 16 0 12.4183 0 8C0 3.58172 3.58172 0 8 0C12.4183 0 16 3.58172 16 8C16 12.4183 12.4183 16 8 16Z" fill="#F39314"/>
<path fill-rule="evenodd" clip-rule="evenodd" d="M9.70711 3.29289C10.0976 3.68342 10.0976 4.31658 9.70711 4.70711L6.41421 8L9.70711 11.2929C10.0976 11.6834 10.0976 12.3166 9.70711 12.7071C9.31658 13.0976 8.68342 13.0976 8.29289 12.7071L4.29289 8.70711C4.10536 8.51957 4 8.26522 4 8C4 7.73478 4.10536 7.48043 4.29289 7.29289L8.29289 3.29289C8.68342 2.90237 9.31658 2.90237 9.70711 3.29289Z" fill="white"/>
</svg>
