<svg width="34" height="34" viewBox="0 0 34 34" fill="none" xmlns="http://www.w3.org/2000/svg">
<path d="M17 34C26.3888 34 34 26.3888 34 17C34 7.61116 26.3888 0 17 0C7.61116 0 0 7.61116 0 17C0 26.3888 7.61116 34 17 34Z" fill="#46494D"/>
<path d="M17.2797 11.1755C16.1791 11.1755 15.3785 11.1567 14.5785 11.1796C13.1658 11.2196 11.7518 11.2556 10.3446 11.4039C9.36786 11.5069 8.61283 12.1245 8.35787 13.0365C8.18482 13.657 8.11153 14.2928 8.06411 14.931C7.97666 16.1131 7.99206 17.2977 8.01977 18.4804C8.04194 19.3976 8.12015 20.3137 8.33878 21.2133C8.56664 22.1517 9.3968 22.814 10.3976 22.9059C11.5689 23.0136 12.7415 23.0689 13.9159 23.116C15.854 23.1943 17.7927 23.1708 19.7301 23.1372C21.0265 23.1149 22.3241 23.0448 23.6161 22.9059C24.6415 22.7958 25.4101 22.2029 25.6589 21.2562C25.8202 20.6416 25.896 20.0146 25.9409 19.3823C26.0284 18.1554 25.9933 16.9273 25.9791 15.7004C25.9693 14.8568 25.8849 14.0137 25.6878 13.186C25.4396 12.1416 24.6791 11.5028 23.5675 11.398C22.4349 11.2915 21.2987 11.2538 20.1618 11.2061C19.1007 11.1608 18.0402 11.2014 17.2797 11.1755ZM14.7196 17.3294C14.7196 16.4917 14.719 15.6539 14.7196 14.8156C14.7196 14.5465 14.7239 14.5442 14.9819 14.6719C15.3028 14.8309 15.6218 14.9934 15.9427 15.1517C17.3148 15.8311 18.6869 16.5093 20.0584 17.1899C20.123 17.2217 20.2191 17.2358 20.2191 17.3271C20.2191 17.3948 20.1427 17.413 20.0898 17.4389C18.3709 18.2932 16.6509 19.1451 14.9339 20.0017C14.7467 20.0953 14.7159 20.037 14.7171 19.8639C14.722 19.0203 14.7196 18.1749 14.7196 17.3294Z" fill="#FBFBFB"/>
</svg>
