<svg width="15" height="16" viewBox="0 0 15 16" fill="none" xmlns="http://www.w3.org/2000/svg">
<path d="M15 8C15 12.1421 11.6421 15.5 7.5 15.5C3.35786 15.5 0 12.1421 0 8C0 3.85786 3.35786 0.5 7.5 0.5C11.6421 0.5 15 3.85786 15 8Z" fill="#8A5B8F"/>
<path fill-rule="evenodd" clip-rule="evenodd" d="M5.29289 12.7071C4.90237 12.3166 4.90237 11.6834 5.29289 11.2929L8.58579 8L5.29289 4.70711C4.90237 4.31658 4.90237 3.68342 5.29289 3.29289C5.68342 2.90237 6.31658 2.90237 6.70711 3.29289L10.7071 7.29289C10.8946 7.48043 11 7.73478 11 8C11 8.26522 10.8946 8.51957 10.7071 8.70711L6.70711 12.7071C6.31658 13.0976 5.68342 13.0976 5.29289 12.7071Z" fill="white"/>
</svg>
