<svg viewBox="0 0 17 13" xmlns="http://www.w3.org/2000/svg">
<path fill-rule="evenodd" clip-rule="evenodd" d="M9.44377 0.227891C9.15542 0.525255 9.16272 1.00007 9.46009 1.28843L13.6707 5.37143L0.750056 5.37143C0.335842 5.37143 5.53131e-05 5.70722 5.53131e-05 6.12143C5.53131e-05 6.53564 0.335843 6.87143 0.750056 6.87143L13.6707 6.87143L9.46009 10.9544C9.16273 11.2428 9.15542 11.7176 9.44378 12.015C9.73213 12.3123 10.2069 12.3196 10.5043 12.0313L16.0436 6.65985C16.1893 6.5186 16.2715 6.32434 16.2715 6.12143C16.2715 5.91851 16.1893 5.72426 16.0436 5.583L10.5043 0.211575C10.2069 -0.0767778 9.73213 -0.0694729 9.44377 0.227891Z"/>
</svg>
