<svg viewBox="0 0 21 23" xmlns="http://www.w3.org/2000/svg">
<path fill-rule="evenodd" clip-rule="evenodd" d="M10.1074 2C5.63605 2 2 5.6507 2 10.1681C2 14.6855 5.63605 18.3362 10.1074 18.3362C14.5787 18.3362 18.2147 14.6855 18.2147 10.1681C18.2147 5.6507 14.5787 2 10.1074 2ZM0 10.1681C0 4.55869 4.51897 0 10.1074 0C15.6958 0 20.2147 4.55869 20.2147 10.1681C20.2147 13.0906 18.9881 15.7279 17.0227 17.5839L20.7095 21.2952C21.0987 21.6871 21.0966 22.3202 20.7048 22.7095C20.3129 23.0987 19.6798 23.0966 19.2905 22.7048L15.4272 18.8157C13.8827 19.7794 12.0603 20.3362 10.1074 20.3362C4.51897 20.3362 0 15.7775 0 10.1681Z"/>
</svg>
