<svg width="16" height="16" viewBox="0 0 16 16" fill="none" xmlns="http://www.w3.org/2000/svg">
<path d="M8 0C12.4183 0 16 3.58172 16 8C16 12.4183 12.4183 16 8 16C3.58172 16 0 12.4183 0 8C0 3.58172 3.58172 0 8 0Z" fill="#F39314"/>
<path fill-rule="evenodd" clip-rule="evenodd" d="M6.29289 12.7071C5.90237 12.3166 5.90237 11.6834 6.29289 11.2929L9.58579 8L6.29289 4.70711C5.90237 4.31658 5.90237 3.68342 6.29289 3.29289C6.68342 2.90237 7.31658 2.90237 7.70711 3.29289L11.7071 7.29289C11.8946 7.48043 12 7.73478 12 8C12 8.26522 11.8946 8.51957 11.7071 8.70711L7.70711 12.7071C7.31658 13.0976 6.68342 13.0976 6.29289 12.7071Z" fill="white"/>
</svg>
