<svg viewBox="0 0 25 24" xmlns="http://www.w3.org/2000/svg">
<path fill-rule="evenodd" clip-rule="evenodd" d="M9.90234 5.75098C9.76427 5.75098 9.65234 5.86291 9.65234 6.00098C9.65234 6.96747 8.86884 7.75098 7.90234 7.75098H5.40234C4.71199 7.75098 4.15234 8.31062 4.15234 9.00098V17.001C4.15234 17.6913 4.71199 18.251 5.40234 18.251H19.4023C20.0927 18.251 20.6523 17.6913 20.6523 17.001V9.00098C20.6523 8.31062 20.0927 7.75098 19.4023 7.75098H16.9023C15.9358 7.75098 15.1523 6.96747 15.1523 6.00098C15.1523 5.86291 15.0404 5.75098 14.9023 5.75098H9.90234ZM8.15234 6.00098C8.15234 5.03448 8.93585 4.25098 9.90234 4.25098H14.9023C15.8688 4.25098 16.6523 5.03448 16.6523 6.00098C16.6523 6.13905 16.7643 6.25098 16.9023 6.25098H19.4023C20.9211 6.25098 22.1523 7.48219 22.1523 9.00098V17.001C22.1523 18.5198 20.9211 19.751 19.4023 19.751H5.40234C3.88356 19.751 2.65234 18.5198 2.65234 17.001V9.00098C2.65234 7.48219 3.88356 6.25098 5.40234 6.25098H7.90234C8.04041 6.25098 8.15234 6.13905 8.15234 6.00098ZM12.4023 10.751C11.1597 10.751 10.1523 11.7583 10.1523 13.001C10.1523 14.2436 11.1597 15.251 12.4023 15.251C13.645 15.251 14.6523 14.2436 14.6523 13.001C14.6523 11.7583 13.645 10.751 12.4023 10.751ZM8.65234 13.001C8.65234 10.9299 10.3313 9.25098 12.4023 9.25098C14.4734 9.25098 16.1523 10.9299 16.1523 13.001C16.1523 15.072 14.4734 16.751 12.4023 16.751C10.3313 16.751 8.65234 15.072 8.65234 13.001Z"/>
</svg>
