<svg viewBox="0 0 18 22" xmlns="http://www.w3.org/2000/svg">
<path fill-rule="evenodd" clip-rule="evenodd" d="M9 2.83337C5.41015 2.83337 2.5 5.74352 2.5 9.33337C2.5 11.8481 4.14074 14.3126 5.97595 16.2498C6.87311 17.1968 7.77367 17.9726 8.45105 18.512C8.65778 18.6766 8.84297 18.8186 9 18.9362C9.15703 18.8186 9.34222 18.6766 9.54895 18.512C10.2263 17.9726 11.1269 17.1968 12.024 16.2498C13.8593 14.3126 15.5 11.8481 15.5 9.33337C15.5 5.74352 12.5899 2.83337 9 2.83337ZM9 20.1667C8.4453 20.9988 8.44505 20.9986 8.44478 20.9984L8.44217 20.9967L8.43632 20.9927L8.41662 20.9794C8.39999 20.9681 8.37643 20.952 8.3464 20.9312C8.28636 20.8896 8.20041 20.8293 8.09224 20.7511C7.87601 20.595 7.57042 20.3674 7.2052 20.0766C6.47633 19.4962 5.50189 18.6574 4.52405 17.6253C2.60926 15.6041 0.5 12.652 0.5 9.33337C0.5 4.63895 4.30558 0.833374 9 0.833374C13.6944 0.833374 17.5 4.63895 17.5 9.33337C17.5 12.652 15.3907 15.6041 13.476 17.6253C12.4981 18.6574 11.5237 19.4962 10.7948 20.0766C10.4296 20.3674 10.124 20.595 9.90776 20.7511C9.79959 20.8293 9.71364 20.8896 9.6536 20.9312C9.62357 20.952 9.60001 20.9681 9.58338 20.9794L9.56368 20.9927L9.55783 20.9967L9.55592 20.9979C9.55564 20.9981 9.5547 20.9988 9 20.1667ZM9 20.1667L9.5547 20.9988C9.2188 21.2227 8.78067 21.2223 8.44478 20.9984L9 20.1667Z" />
<path fill-rule="evenodd" clip-rule="evenodd" d="M5.5 9.33337C5.5 7.40038 7.067 5.83337 9 5.83337C10.933 5.83337 12.5 7.40038 12.5 9.33337C12.5 11.2664 10.933 12.8334 9 12.8334C7.067 12.8334 5.5 11.2664 5.5 9.33337ZM9 7.83337C8.17157 7.83337 7.5 8.50495 7.5 9.33337C7.5 10.1618 8.17157 10.8334 9 10.8334C9.82843 10.8334 10.5 10.1618 10.5 9.33337C10.5 8.50495 9.82843 7.83337 9 7.83337Z" />
</svg>
