<svg viewBox="0 0 39 48" fill="none" xmlns="http://www.w3.org/2000/svg">
<path d="M30.7686 23.0757C31.7969 23.4804 32.8054 23.8419 33.7064 24.4372C36.4758 26.261 38.1382 28.7862 38.4284 32.1244C38.921 37.7918 36.3486 41.8369 31.6607 44.6949C28.714 46.4917 25.4609 47.3352 22.0538 47.6553C19.1393 47.9287 16.2392 47.8694 13.3748 47.2363C8.77469 46.2201 4.85884 44.0743 2.16647 40.0725C0.591894 37.7325 -0.0458196 35.0903 0.00254633 32.2719C0.011503 31.7719 0.213923 31.6028 0.690417 31.6028C4.92154 31.6118 9.15266 31.6118 13.3838 31.6028C13.8889 31.601 14.1523 31.7953 14.1075 32.3187C13.9731 33.9356 14.858 34.9428 16.2087 35.5022C18.1451 36.3044 20.1353 36.3961 22.0449 35.3619C23.1501 34.7648 23.7502 33.7917 23.7807 32.5165C23.8111 31.2539 23.2164 30.3258 22.147 29.6963C21.1008 29.0812 19.9669 28.7683 18.7542 28.7611C17.0076 28.7521 15.2611 28.7377 13.5163 28.7629C12.8947 28.7718 12.6296 28.5776 12.635 27.9157C12.6583 24.993 12.6547 22.0721 12.6368 19.1493C12.6332 18.5648 12.8356 18.358 13.4196 18.3651C15.1876 18.3903 16.9575 18.4011 18.7255 18.3616C20.1084 18.331 21.305 17.8418 22.3924 16.9263C23.6159 15.8957 23.6123 13.2463 22.0269 12.1168C20.2894 10.8794 17.1509 11.0107 15.5423 12.4154C14.7255 13.1276 14.2938 13.9946 14.3905 15.0863C14.4478 15.7266 14.2024 15.9532 13.554 15.9496C9.61482 15.928 5.6739 15.9406 1.73297 15.937C0.885672 15.937 0.810436 15.8687 0.822975 15.0072C0.905377 9.41532 3.52788 5.35408 8.2964 2.6202C11.4008 0.83959 14.7685 0.0841785 18.3261 0.00863727C21.5146 -0.0597095 24.628 0.264038 27.6105 1.4655C31.5586 3.05726 34.6773 5.5825 36.157 9.69949C37.3392 12.9891 37.3195 16.2734 35.2935 19.3184C34.2832 20.8382 32.8466 21.8562 31.2702 22.7016C31.1323 22.7753 30.9926 22.8437 30.8564 22.9174C30.8403 22.9264 30.8349 22.9534 30.7686 23.0757ZM26.8008 23.0271C27.5675 22.8527 28.2482 22.7447 28.9021 22.5433C34.1399 20.93 36.895 17.0288 35.616 11.2859C34.8744 7.95485 32.8269 5.55372 30.0163 3.77311C27.4493 2.14717 24.6154 1.32341 21.5952 1.07161C17.1563 0.701098 12.8679 1.16334 8.9162 3.3918C4.71733 5.75876 2.10557 9.19589 1.85478 14.1906C1.8297 14.696 1.93181 14.8795 2.44592 14.8777C5.87094 14.8651 9.29597 14.8651 12.721 14.8795C13.2333 14.8813 13.4035 14.6834 13.4751 14.1834C13.6399 13.0179 14.215 12.0826 15.2145 11.4261C16.9682 10.2732 18.876 10.0035 20.8733 10.5161C22.8832 11.0305 24.1604 12.4837 24.284 14.4586C24.4022 16.3345 23.4761 17.6763 21.8389 18.5324C20.893 19.027 19.8827 19.3112 18.8115 19.322C17.3337 19.3364 15.8558 19.3382 14.3798 19.3238C13.8943 19.3202 13.6973 19.5091 13.6991 20.0019C13.7116 22.3401 13.7116 24.6764 13.6991 27.0146C13.6973 27.5038 13.8943 27.7035 14.3798 27.6945C15.365 27.6783 16.352 27.6495 17.3337 27.7017C19.0032 27.7898 20.6834 27.8078 22.2329 28.6334C23.8613 29.5021 24.8268 30.7359 24.7319 32.655C24.6405 34.5202 23.6284 35.7666 21.9911 36.4806C19.7824 37.4411 17.5594 37.254 15.4366 36.2055C14.2526 35.6191 13.3874 34.6713 13.176 33.2845C13.0954 32.7503 12.7765 32.6604 12.3215 32.6622C10.5302 32.673 8.73886 32.6658 6.94932 32.6658C5.20278 32.6658 3.45623 32.682 1.71147 32.6568C1.11317 32.6478 0.889255 32.8781 0.97703 33.459C1.04689 33.9248 1.08272 34.3979 1.16512 34.8601C2.04645 39.7775 5.15441 42.8657 9.45898 44.9215C11.7447 46.0132 14.1899 46.5276 16.7157 46.7219C20.6709 47.0276 24.5312 46.6679 28.2697 45.2668C30.903 44.2794 33.1887 42.7793 34.9926 40.612C36.8699 38.3548 37.6294 35.718 37.5058 32.7827C37.4073 30.4535 36.5994 28.4427 35.0159 26.761C33.0221 24.6441 30.4211 23.8095 27.6517 23.3707C27.3938 23.3293 27.1143 23.3581 26.8008 23.0271Z" fill="#BCACC3"/>
</svg>
