<svg viewBox="0 0 27 20" xmlns="http://www.w3.org/2000/svg">
<path fill-rule="evenodd" clip-rule="evenodd" d="M6.76855 4.61387C4.77626 6.10179 3.1871 7.89317 2.24473 9.07572L2.24047 9.08106L2.24045 9.08105C2.08195 9.27718 2 9.51266 2 9.75C2 9.98734 2.08195 10.2228 2.24045 10.419L2.24474 10.4243L2.24473 10.4243C3.1871 11.6068 4.77626 13.3982 6.76855 14.8861C8.77062 16.3813 11.0854 17.5 13.5002 17.5C15.9149 17.5 18.2298 16.3813 20.2318 14.8861C22.2241 13.3983 23.8132 11.607 24.7556 10.4244C25.0811 10.0158 25.0819 9.48634 24.7555 9.0755C23.8131 7.89295 22.224 6.1017 20.2318 4.61387C18.2298 3.11866 15.9149 2 13.5002 2C11.0854 2 8.77062 3.11866 6.76855 4.61387ZM5.5718 3.01144C7.7436 1.38947 10.4768 0 13.5002 0C16.5236 0 19.2568 1.38947 21.4286 3.01144C23.6102 4.64071 25.3207 6.57558 26.3198 7.82928L26.3204 7.83004C27.2263 8.96912 27.2269 10.5319 26.3199 11.6706L26.3198 11.6707C25.3207 12.9244 23.6102 14.8593 21.4286 16.4886C19.2568 18.1105 16.5236 19.5 13.5002 19.5C10.4768 19.5 7.7436 18.1105 5.5718 16.4886C3.39166 14.8604 1.68194 12.9269 0.682582 11.6732C0.242776 11.1276 0 10.4512 0 9.75C0 9.04879 0.242763 8.37241 0.682548 7.82687C1.6819 6.5731 3.39163 4.63967 5.5718 3.01144ZM13.5002 7C11.8604 7 10.5991 8.26808 10.5991 9.75C10.5991 11.2319 11.8604 12.5 13.5002 12.5C15.14 12.5 16.4013 11.2319 16.4013 9.75C16.4013 8.26808 15.14 7 13.5002 7ZM8.59909 9.75C8.59909 7.08978 10.831 5 13.5002 5C16.1694 5 18.4013 7.08978 18.4013 9.75C18.4013 12.4102 16.1694 14.5 13.5002 14.5C10.831 14.5 8.59909 12.4102 8.59909 9.75Z" />
</svg>
