<svg width="216" height="140" viewBox="0 0 216 140" fill="none" xmlns="http://www.w3.org/2000/svg">
<path fill-rule="evenodd" clip-rule="evenodd" d="M65 0C66.2044 0 67.4091 0 68.6134 0C71.7452 0 74.8766 0 78.0084 0C87.8254 6.15823 97.8227 12.0393 108 17.6432C108 34.429 108 51.2143 108 68C100.773 63.9568 93.5462 59.9135 86.3193 55.8703C86.3193 55.7479 86.3193 55.6251 86.3193 55.5027C86.801 47.171 86.801 38.8398 86.3193 30.5081C79.2847 26.255 72.1781 22.0893 65 18.0108C65 12.0073 65 6.00348 65 0Z" fill="#1AA1E0"/>
<path fill-rule="evenodd" clip-rule="evenodd" d="M78 0.0490739C83.1446 0.0490739 88.2892 0.0490739 93.4337 0.0490739C108.685 -0.0820033 123.874 0.0494687 139 0.443885C128.774 6.5295 118.607 12.7146 108.5 19C98.1502 12.9807 87.9834 6.66374 78 0.0490739Z" fill="#1AB31E"/>
<path fill-rule="evenodd" clip-rule="evenodd" d="M138.61 0C142.74 0 146.87 0 151 0C151 6.00348 151 12.0073 151 18.0108C143.961 22.0438 136.916 26.087 129.864 30.1405C129.618 38.6813 129.375 47.2578 129.136 55.8703C122.091 59.9135 115.045 63.9568 108 68C108 51.2143 108 34.429 108 17.6432C118.023 11.7916 128.105 6.03325 138.246 0.367568C138.489 0.367568 138.61 0.245168 138.61 0Z" fill="white"/>
<path fill-rule="evenodd" clip-rule="evenodd" d="M22.1356 19C29.3727 22.8373 36.6 26.7264 43.8178 30.6667C43.9632 30.5884 44.0237 30.4738 44 30.3235C51.1078 26.4622 58.2745 22.6877 65.5 19C72.7389 22.8075 79.9057 26.6962 87 30.6667C86.7569 30.6667 86.6356 30.7809 86.6356 31.0098C72.3643 38.5863 58.1525 46.2499 44 54C29.4755 46.3789 15.1423 38.4868 1 30.3235C8.05142 26.5394 15.0967 22.7649 22.1356 19Z" fill="#1AB31E"/>
<path fill-rule="evenodd" clip-rule="evenodd" d="M151.136 19C158.491 22.664 165.719 26.5528 172.818 30.6667C172.963 30.5884 173.024 30.4738 173 30.3235C180.108 26.4622 187.275 22.6877 194.5 19C201.729 22.8033 208.896 26.6921 216 30.6667C215.757 30.6667 215.636 30.7809 215.636 31.0098C201.364 38.5863 187.152 46.2499 173 54C158.469 46.3693 144.136 38.4772 130 30.3235C137.051 26.5394 144.097 22.7649 151.136 19Z" fill="#1AB31E"/>
<path fill-rule="evenodd" clip-rule="evenodd" d="M86.591 31C86.9539 38.8668 87.0755 46.7954 86.955 54.785C86.955 54.9032 86.955 55.0218 86.955 55.14C79.6144 58.8955 72.4555 62.9188 65.4775 67.21C65.4775 74.7832 65.4775 82.3568 65.4775 89.93C58.3182 93.9532 51.1593 97.9768 44 102C44 86.2618 44 70.5232 44 54.785C58.1377 46.767 72.3347 38.8384 86.591 31Z" fill="#E7E7E7"/>
<path fill-rule="evenodd" clip-rule="evenodd" d="M129.733 30C143.957 38.4696 158.379 46.6676 173 54.5941C173 70.3959 173 86.1981 173 102C165.579 98.1131 158.245 94.0732 151 89.8812C151 82.2773 151 74.6731 151 67.0693C143.789 62.8505 136.455 58.8111 129 54.9505C129.241 46.5989 129.485 38.2821 129.733 30Z" fill="#1AA1E0"/>
<path fill-rule="evenodd" clip-rule="evenodd" d="M215.591 31C215.954 38.8668 216.076 46.7954 215.955 54.785C215.955 54.9032 215.955 55.0218 215.955 55.14C208.809 58.8611 201.771 62.7661 194.842 66.855C194.479 74.4854 194.357 82.1768 194.478 89.93C187.318 93.9532 180.159 97.9768 173 102C173 86.2618 173 70.5232 173 54.785C187.138 46.767 201.335 38.8384 215.591 31Z" fill="white"/>
<path fill-rule="evenodd" clip-rule="evenodd" d="M0.733333 30C14.9633 38.4796 29.3854 46.6776 44 54.5941C44 70.3959 44 86.1981 44 102C36.5787 98.1131 29.2453 94.0732 22 89.8812C22 82.2773 22 74.6732 22 67.0693C15.301 63.2173 8.57872 59.356 1.83333 55.4851C1.2742 55.1255 0.66308 54.9473 0 54.9505C0.240937 46.5989 0.485357 38.2821 0.733333 30Z" fill="#1AA1E0"/>
<path fill-rule="evenodd" clip-rule="evenodd" d="M86.4093 56C93.6667 59.8824 100.924 63.7647 108.181 67.6471C115.197 63.7647 122.212 59.8824 129.228 56C136.606 59.8227 143.863 63.8226 151 68C136.727 76.0001 122.454 83.9999 108.181 92C108.061 92 107.939 92 107.819 92C93.667 83.8227 79.3943 75.8229 65 68C71.9558 63.7336 79.092 59.7338 86.4093 56Z" fill="#1AB31E"/>
<path fill-rule="evenodd" clip-rule="evenodd" d="M65 68C79.4553 75.9397 93.7885 84.0589 108 92.3582C108 108.239 108 124.12 108 140C100.893 135.85 93.7262 131.79 86.5 127.821C86.5 119.701 86.5 111.582 86.5 103.463C79.4065 99.1986 72.2397 95.0197 65 90.9254C65 83.2837 65 75.6417 65 68Z" fill="#1AA1E0"/>
<path fill-rule="evenodd" clip-rule="evenodd" d="M151 68C151 75.6799 151 83.3601 151 91.04C143.949 95.1253 136.912 99.2055 129.887 103.28C129.523 111.498 129.402 119.778 129.523 128.12C122.485 132.08 115.447 136.04 108.409 140C108.046 124.221 107.924 108.381 108.045 92.48C122.363 84.3199 136.682 76.1601 151 68Z" fill="white"/>
</svg>
