<svg width="370" height="206" viewBox="0 0 370 206" fill="none" xmlns="http://www.w3.org/2000/svg">
<g opacity="0.1">
<path d="M350.572 725.945C350.477 733.802 346.221 737.858 343.1 740.869C340.343 743.549 339.085 744.853 339.034 747.967C338.984 751.082 340.199 752.448 342.879 755.205C345.836 758.281 349.936 762.484 349.842 770.341C349.747 778.199 345.491 782.255 342.37 785.265C339.613 787.945 338.355 789.249 338.304 792.364C338.254 795.478 339.469 796.844 342.149 799.601C345.106 802.678 349.206 806.88 349.112 814.737C349.017 822.595 344.761 826.651 341.64 829.661C338.883 832.341 337.625 833.645 337.574 836.76L326.451 836.58C326.545 828.722 330.801 824.666 333.922 821.656C336.679 818.976 337.938 817.672 337.988 814.557C338.039 811.443 336.823 810.077 334.143 807.32C331.186 804.243 327.086 800.041 327.181 792.184C327.275 784.326 331.531 780.27 334.652 777.259C337.409 774.579 338.668 773.276 338.718 770.161C338.769 767.046 337.553 765.681 334.873 762.923C331.916 759.847 327.816 755.645 327.911 747.787C328.005 739.93 332.261 735.874 335.382 732.863C338.139 730.183 339.398 728.879 339.448 725.765L350.572 725.945Z" fill="white"/>
<path d="M351.988 637.255C351.894 645.113 347.638 649.169 344.517 652.179C341.76 654.859 340.501 656.163 340.451 659.278C340.4 662.392 341.616 663.758 344.296 666.515C347.253 669.592 351.353 673.794 351.258 681.651C351.164 689.509 346.908 693.565 343.787 696.575C341.03 699.255 339.771 700.559 339.721 703.674C339.67 706.788 340.886 708.154 343.566 710.911C346.523 713.988 350.623 718.19 350.528 726.048C350.434 733.905 346.178 737.961 343.057 740.972C340.3 743.652 339.041 744.955 338.991 748.07L327.867 747.89C327.962 740.032 332.218 735.976 335.339 732.966C338.096 730.286 339.354 728.982 339.405 725.867C339.455 722.753 338.24 721.387 335.56 718.63C332.603 715.553 328.503 711.351 328.597 703.494C328.692 695.636 332.948 691.58 336.069 688.57C338.826 685.89 340.084 684.586 340.135 681.471C340.185 678.357 338.97 676.991 336.29 674.234C333.333 671.157 329.233 666.955 329.327 659.097C329.422 651.24 333.678 647.184 336.799 644.173C339.556 641.493 340.814 640.189 340.865 637.075L351.988 637.255Z" fill="white"/>
<path d="M353.391 549.136C353.296 556.994 349.04 561.05 345.919 564.06C343.162 566.74 341.904 568.044 341.853 571.159C341.803 574.273 343.018 575.639 345.698 578.396C348.655 581.473 352.755 585.675 352.661 593.533C352.566 601.39 348.31 605.446 345.189 608.457C342.432 611.137 341.174 612.441 341.123 615.555C341.073 618.67 342.288 620.035 344.968 622.793C347.925 625.869 352.025 630.071 351.931 637.929C351.836 645.786 347.58 649.842 344.459 652.853C341.702 655.533 340.444 656.837 340.393 659.951L329.27 659.771C329.364 651.914 333.62 647.858 336.741 644.847C339.498 642.167 340.757 640.863 340.807 637.749C340.858 634.634 339.642 633.268 336.962 630.511C334.005 627.435 329.905 623.233 330 615.375C330.094 607.517 334.35 603.461 337.471 600.451C340.228 597.771 341.487 596.467 341.537 593.352C341.588 590.238 340.372 588.872 337.692 586.115C334.735 583.038 330.635 578.836 330.73 570.979C330.824 563.121 335.08 559.065 338.201 556.055C340.958 553.375 342.217 552.071 342.267 548.956L353.391 549.136Z" fill="white"/>
<path d="M354.807 460.446C354.713 468.304 350.457 472.36 347.336 475.371C344.579 478.051 343.32 479.354 343.27 482.469C343.219 485.584 344.435 486.949 347.115 489.707C350.072 492.783 354.172 496.985 354.077 504.843C353.983 512.7 349.727 516.756 346.606 519.767C343.849 522.447 342.59 523.751 342.54 526.865C342.489 529.98 343.705 531.346 346.385 534.103C349.342 537.179 353.442 541.381 353.347 549.239C353.253 557.096 348.997 561.152 345.876 564.163C343.119 566.843 341.86 568.147 341.81 571.261L330.686 571.081C330.781 563.224 335.037 559.168 338.158 556.157C340.915 553.477 342.173 552.173 342.224 549.059C342.274 545.944 341.059 544.578 338.379 541.821C335.422 538.745 331.322 534.543 331.416 526.685C331.511 518.828 335.767 514.772 338.888 511.761C341.645 509.081 342.903 507.777 342.954 504.663C343.004 501.548 341.789 500.182 339.109 497.425C336.152 494.349 332.052 490.146 332.146 482.289C332.241 474.431 336.497 470.375 339.618 467.365C342.375 464.685 343.633 463.381 343.684 460.266L354.807 460.446Z" fill="white"/>
<path d="M356.08 372.485C355.985 380.342 351.729 384.398 348.609 387.409C345.851 390.089 344.593 391.393 344.542 394.507C344.492 397.622 345.707 398.988 348.387 401.745C351.344 404.821 355.445 409.023 355.35 416.881C355.255 424.738 350.999 428.794 347.879 431.805C345.121 434.485 343.863 435.789 343.812 438.903C343.762 442.018 344.977 443.384 347.657 446.141C350.614 449.217 354.715 453.42 354.62 461.277C354.525 469.135 350.269 473.191 347.149 476.201C344.392 478.881 343.133 480.185 343.082 483.3L331.959 483.119C332.054 475.262 336.309 471.206 339.43 468.195C342.187 465.515 343.446 464.212 343.496 461.097C343.547 457.982 342.331 456.617 339.652 453.86C336.694 450.783 332.594 446.581 332.689 438.723C332.784 430.866 337.039 426.81 340.16 423.799C342.917 421.119 344.176 419.815 344.226 416.701C344.277 413.586 343.061 412.22 340.381 409.463C337.424 406.387 333.324 402.185 333.419 394.327C333.514 386.47 337.769 382.414 340.89 379.403C343.647 376.723 344.906 375.419 344.956 372.304L356.08 372.485Z" fill="white"/>
<path d="M357.497 283.795C357.402 291.652 353.146 295.708 350.025 298.719C347.268 301.399 346.01 302.703 345.959 305.817C345.909 308.932 347.124 310.298 349.804 313.055C352.761 316.131 356.861 320.334 356.767 328.191C356.672 336.049 352.416 340.105 349.295 343.115C346.538 345.795 345.28 347.099 345.229 350.214C345.179 353.328 346.394 354.694 349.074 357.451C352.031 360.528 356.131 364.73 356.037 372.587C355.942 380.445 351.686 384.501 348.565 387.511C345.808 390.191 344.55 391.495 344.499 394.61L333.376 394.43C333.47 386.572 337.726 382.516 340.847 379.506C343.604 376.826 344.863 375.522 344.913 372.407C344.963 369.292 343.748 367.927 341.068 365.17C338.111 362.093 334.011 357.891 334.106 350.033C334.2 342.176 338.456 338.12 341.577 335.109C344.334 332.429 345.593 331.125 345.643 328.011C345.693 324.896 344.478 323.531 341.798 320.773C338.841 317.697 334.741 313.495 334.836 305.637C334.93 297.78 339.186 293.724 342.307 290.713C345.064 288.033 346.323 286.729 346.373 283.615L357.497 283.795Z" fill="white"/>
<path d="M358.899 195.676C358.804 203.534 354.548 207.59 351.428 210.6C348.67 213.28 347.412 214.584 347.361 217.699C347.311 220.813 348.526 222.179 351.206 224.936C354.163 228.013 358.264 232.215 358.169 240.072C358.074 247.93 353.818 251.986 350.698 254.996C347.94 257.676 346.682 258.98 346.631 262.095C346.581 265.209 347.796 266.575 350.476 269.332C353.433 272.409 357.534 276.611 357.439 284.469C357.344 292.326 353.088 296.382 349.968 299.393C347.21 302.073 345.952 303.377 345.901 306.491L334.778 306.311C334.873 298.453 339.128 294.397 342.249 291.387C345.006 288.707 346.265 287.403 346.315 284.288C346.366 281.174 345.15 279.808 342.471 277.051C339.513 273.974 335.413 269.772 335.508 261.915C335.603 254.057 339.858 250.001 342.979 246.991C345.736 244.311 346.995 243.007 347.045 239.892C347.096 236.778 345.88 235.412 343.2 232.655C340.243 229.578 336.143 225.376 336.238 217.518C336.333 209.661 340.588 205.605 343.709 202.594C346.466 199.914 347.725 198.61 347.775 195.496L358.899 195.676Z" fill="white"/>
<path d="M360.316 106.986C360.221 114.844 355.965 118.9 352.844 121.91C350.087 124.59 348.829 125.894 348.778 129.009C348.728 132.123 349.943 133.489 352.623 136.246C355.58 139.323 359.68 143.525 359.586 151.382C359.491 159.24 355.235 163.296 352.114 166.307C349.357 168.987 348.099 170.29 348.048 173.405C347.998 176.52 349.213 177.885 351.893 180.643C354.85 183.719 358.95 187.921 358.856 195.779C358.761 203.636 354.505 207.692 351.384 210.703C348.627 213.383 347.369 214.687 347.318 217.801L336.195 217.621C336.289 209.764 340.545 205.708 343.666 202.697C346.423 200.017 347.682 198.713 347.732 195.599C347.782 192.484 346.567 191.118 343.887 188.361C340.93 185.285 336.83 181.082 336.925 173.225C337.019 165.367 341.275 161.311 344.396 158.301C347.153 155.621 348.412 154.317 348.462 151.202C348.512 148.088 347.297 146.722 344.617 143.965C341.66 140.888 337.56 136.686 337.655 128.829C337.749 120.971 342.005 116.915 345.126 113.905C347.883 111.225 349.142 109.921 349.192 106.806L360.316 106.986Z" fill="white"/>
<path d="M361.588 19.0244C361.493 26.882 357.238 30.9379 354.117 33.9485C351.36 36.6285 350.101 37.9324 350.051 41.047C350 44.1616 351.216 45.5273 353.896 48.2845C356.853 51.3609 360.953 55.5632 360.858 63.4207C360.763 71.2782 356.508 75.3342 353.387 78.3447C350.63 81.0247 349.371 82.3286 349.321 85.4432C349.27 88.5578 350.486 89.9235 353.165 92.6807C356.123 95.7571 360.223 99.9594 360.128 107.817C360.033 115.674 355.778 119.73 352.657 122.741C349.9 125.421 348.641 126.725 348.591 129.839L337.467 129.659C337.562 121.802 341.818 117.746 344.938 114.735C347.696 112.055 348.954 110.751 349.005 107.637C349.055 104.522 347.84 103.156 345.16 100.399C342.203 97.3228 338.102 93.1206 338.197 85.2631C338.292 77.4055 342.548 73.3495 345.668 70.339C348.426 67.659 349.684 66.3551 349.735 63.2405C349.785 60.1259 348.57 58.7602 345.89 56.003C342.933 52.9266 338.832 48.7244 338.927 40.8668C339.022 33.0093 343.278 28.9533 346.398 25.9427C349.156 23.2627 350.414 21.9588 350.465 18.8443L361.588 19.0244Z" fill="white"/>
<path d="M363.005 -69.6655C362.91 -61.808 358.654 -57.7519 355.534 -54.7413C352.776 -52.0614 351.518 -50.7574 351.467 -47.6429C351.417 -44.5283 352.632 -43.1626 355.312 -40.4054C358.269 -37.3289 362.369 -33.1267 362.275 -25.2692C362.18 -17.4116 357.924 -13.3557 354.804 -10.3451C352.046 -7.66517 350.788 -6.36123 350.737 -3.24662C350.687 -0.132053 351.902 1.23367 354.582 3.99086C357.539 7.06729 361.639 11.2695 361.545 19.127C361.45 26.9846 357.194 31.0406 354.074 34.0512C351.316 36.7311 350.058 38.0351 350.007 41.1496L338.884 40.9694C338.978 33.1119 343.234 29.0559 346.355 26.0453C349.112 23.3654 350.371 22.0614 350.421 18.9468C350.472 15.8323 349.256 14.4666 346.576 11.7094C343.619 8.63294 339.519 4.43076 339.614 -3.4268C339.709 -11.2843 343.964 -15.3403 347.085 -18.3509C349.842 -21.0309 351.101 -22.3348 351.151 -25.4494C351.202 -28.5639 349.986 -29.9297 347.306 -32.6869C344.349 -35.7633 340.249 -39.9655 340.344 -47.8231C340.438 -55.6806 344.694 -59.7366 347.815 -62.7472C350.572 -65.4271 351.831 -66.7311 351.881 -69.8457L363.005 -69.6655Z" fill="white"/>
<path d="M364.407 -157.784C364.312 -149.927 360.057 -145.871 356.936 -142.86C354.179 -140.18 352.92 -138.876 352.87 -135.762C352.819 -132.647 354.035 -131.281 356.715 -128.524C359.672 -125.448 363.772 -121.245 363.677 -113.388C363.582 -105.53 359.327 -101.474 356.206 -98.4638C353.449 -95.7839 352.19 -94.4799 352.14 -91.3653C352.089 -88.2507 353.305 -86.885 355.984 -84.1278C358.941 -81.0514 363.042 -76.8492 362.947 -68.9917C362.852 -61.1341 358.597 -57.0781 355.476 -54.0675C352.719 -51.3876 351.46 -50.0837 351.41 -46.9691L340.286 -47.1493C340.381 -55.0068 344.637 -59.0628 347.757 -62.0733C350.515 -64.7533 351.773 -66.0573 351.824 -69.1718C351.874 -72.2865 350.659 -73.6521 347.979 -76.4093C345.022 -79.4858 340.921 -83.6879 341.016 -91.5455C341.111 -99.403 345.367 -103.459 348.487 -106.47C351.245 -109.15 352.503 -110.453 352.554 -113.568C352.604 -116.683 351.389 -118.048 348.709 -120.806C345.752 -123.882 341.651 -128.084 341.746 -135.942C341.841 -143.799 346.097 -147.855 349.217 -150.866C351.975 -153.546 353.233 -154.85 353.284 -157.964L364.407 -157.784Z" fill="white"/>
<path d="M365.824 -246.474C365.729 -238.617 361.473 -234.56 358.352 -231.55C355.595 -228.87 354.337 -227.566 354.286 -224.451C354.236 -221.337 355.451 -219.971 358.131 -217.214C361.088 -214.138 365.188 -209.935 365.094 -202.078C364.999 -194.22 360.743 -190.164 357.623 -187.154C354.865 -184.474 353.607 -183.17 353.556 -180.055C353.506 -176.941 354.721 -175.575 357.401 -172.818C360.358 -169.741 364.458 -165.539 364.364 -157.682C364.269 -149.824 360.013 -145.768 356.893 -142.757C354.135 -140.077 352.877 -138.774 352.826 -135.659L341.703 -135.839C341.798 -143.697 346.053 -147.753 349.174 -150.763C351.931 -153.443 353.19 -154.747 353.24 -157.862C353.291 -160.976 352.075 -162.342 349.395 -165.099C346.438 -168.176 342.338 -172.378 342.433 -180.235C342.527 -188.093 346.783 -192.149 349.904 -195.16C352.661 -197.839 353.92 -199.143 353.97 -202.258C354.021 -205.372 352.805 -206.738 350.125 -209.495C347.168 -212.572 343.068 -216.774 343.163 -224.632C343.258 -232.489 347.513 -236.545 350.634 -239.556C353.391 -242.236 354.65 -243.54 354.7 -246.654L365.824 -246.474Z" fill="white"/>
<path d="M367.096 -334.436C367.002 -326.578 362.746 -322.522 359.625 -319.512C356.868 -316.832 355.609 -315.528 355.559 -312.413C355.508 -309.299 356.724 -307.933 359.404 -305.176C362.361 -302.099 366.461 -297.897 366.366 -290.04C366.272 -282.182 362.016 -278.126 358.895 -275.115C356.138 -272.436 354.879 -271.132 354.829 -268.017C354.778 -264.902 355.994 -263.537 358.674 -260.779C361.631 -257.703 365.731 -253.501 365.636 -245.643C365.542 -237.786 361.286 -233.73 358.165 -230.719C355.408 -228.039 354.149 -226.735 354.099 -223.621L342.975 -223.801C343.07 -231.658 347.326 -235.714 350.447 -238.725C353.204 -241.405 354.462 -242.709 354.513 -245.823C354.563 -248.938 353.348 -250.304 350.668 -253.061C347.711 -256.137 343.611 -260.34 343.705 -268.197C343.8 -276.055 348.056 -280.111 351.177 -283.121C353.934 -285.801 355.192 -287.105 355.243 -290.22C355.293 -293.334 354.078 -294.7 351.398 -297.457C348.441 -300.534 344.341 -304.736 344.435 -312.593C344.53 -320.451 348.786 -324.507 351.907 -327.517C354.664 -330.197 355.922 -331.501 355.973 -334.616L367.096 -334.436Z" fill="white"/>
<path d="M368.513 -423.126C368.418 -415.268 364.162 -411.212 361.042 -408.202C358.285 -405.522 357.026 -404.218 356.976 -401.103C356.925 -397.989 358.14 -396.623 360.82 -393.866C363.777 -390.789 367.878 -386.587 367.783 -378.729C367.688 -370.872 363.433 -366.816 360.312 -363.805C357.555 -361.125 356.296 -359.821 356.246 -356.707C356.195 -353.592 357.41 -352.227 360.09 -349.469C363.047 -346.393 367.148 -342.191 367.053 -334.333C366.958 -326.476 362.703 -322.42 359.582 -319.409C356.825 -316.729 355.566 -315.425 355.516 -312.311L344.392 -312.491C344.487 -320.348 348.742 -324.404 351.863 -327.415C354.62 -330.095 355.879 -331.399 355.929 -334.513C355.98 -337.628 354.765 -338.994 352.085 -341.751C349.128 -344.827 345.027 -349.029 345.122 -356.887C345.217 -364.745 349.473 -368.801 352.593 -371.811C355.35 -374.491 356.609 -375.795 356.659 -378.91C356.71 -382.024 355.495 -383.39 352.815 -386.147C349.858 -389.223 345.757 -393.426 345.852 -401.283C345.947 -409.141 350.202 -413.197 353.323 -416.207C356.08 -418.887 357.339 -420.191 357.389 -423.306L368.513 -423.126Z" fill="white"/>
<path d="M369.915 -511.244C369.821 -503.387 365.565 -499.331 362.444 -496.32C359.687 -493.64 358.428 -492.336 358.378 -489.222C358.327 -486.107 359.543 -484.742 362.223 -481.984C365.18 -478.908 369.28 -474.706 369.185 -466.848C369.091 -458.991 364.835 -454.935 361.714 -451.924C358.957 -449.244 357.698 -447.94 357.648 -444.826C357.597 -441.711 358.813 -440.345 361.493 -437.588C364.45 -434.512 368.55 -430.309 368.455 -422.452C368.361 -414.594 364.105 -410.538 360.984 -407.528C358.227 -404.848 356.968 -403.544 356.918 -400.429L345.794 -400.609C345.889 -408.467 350.145 -412.523 353.266 -415.534C356.023 -418.214 357.281 -419.518 357.332 -422.632C357.382 -425.747 356.167 -427.112 353.487 -429.87C350.53 -432.946 346.43 -437.148 346.524 -445.006C346.619 -452.863 350.875 -456.919 353.996 -459.93C356.753 -462.61 358.011 -463.914 358.062 -467.028C358.112 -470.143 356.897 -471.509 354.217 -474.266C351.26 -477.342 347.16 -481.545 347.254 -489.402C347.349 -497.26 351.605 -501.316 354.726 -504.326C357.483 -507.006 358.741 -508.31 358.792 -511.425L369.915 -511.244Z" fill="white"/>
<path d="M371.332 -599.934C371.237 -592.077 366.981 -588.021 363.861 -585.01C361.104 -582.33 359.845 -581.026 359.795 -577.912C359.744 -574.797 360.959 -573.431 363.639 -570.674C366.596 -567.598 370.697 -563.395 370.602 -555.538C370.507 -547.68 366.252 -543.624 363.131 -540.614C360.374 -537.934 359.115 -536.63 359.065 -533.515C359.014 -530.401 360.229 -529.035 362.909 -526.278C365.866 -523.201 369.967 -518.999 369.872 -511.142C369.777 -503.284 365.522 -499.228 362.401 -496.218C359.644 -493.538 358.385 -492.234 358.335 -489.119L347.211 -489.299C347.306 -497.157 351.561 -501.213 354.682 -504.223C357.439 -506.903 358.698 -508.207 358.748 -511.322C358.799 -514.437 357.584 -515.802 354.904 -518.559C351.947 -521.636 347.846 -525.838 347.941 -533.696C348.036 -541.553 352.292 -545.609 355.412 -548.62C358.169 -551.3 359.428 -552.604 359.478 -555.718C359.529 -558.833 358.314 -560.198 355.634 -562.956C352.677 -566.032 348.576 -570.234 348.671 -578.092C348.766 -585.949 353.021 -590.005 356.142 -593.016C358.899 -595.696 360.158 -597 360.208 -600.114L371.332 -599.934Z" fill="white"/>
</g>
<g opacity="0.1">
<path d="M320.572 725.945C320.477 733.802 316.221 737.858 313.1 740.869C310.343 743.549 309.085 744.853 309.034 747.967C308.984 751.082 310.199 752.448 312.879 755.205C315.836 758.281 319.936 762.484 319.842 770.341C319.747 778.199 315.491 782.255 312.37 785.265C309.613 787.945 308.355 789.249 308.304 792.364C308.254 795.478 309.469 796.844 312.149 799.601C315.106 802.678 319.206 806.88 319.112 814.737C319.017 822.595 314.761 826.651 311.64 829.661C308.883 832.341 307.625 833.645 307.574 836.76L296.451 836.58C296.545 828.722 300.801 824.666 303.922 821.656C306.679 818.976 307.938 817.672 307.988 814.557C308.039 811.443 306.823 810.077 304.143 807.32C301.186 804.243 297.086 800.041 297.181 792.184C297.275 784.326 301.531 780.27 304.652 777.259C307.409 774.579 308.668 773.276 308.718 770.161C308.769 767.046 307.553 765.681 304.873 762.923C301.916 759.847 297.816 755.645 297.911 747.787C298.005 739.93 302.261 735.874 305.382 732.863C308.139 730.183 309.398 728.879 309.448 725.765L320.572 725.945Z" fill="white"/>
<path d="M321.988 637.255C321.894 645.113 317.638 649.169 314.517 652.179C311.76 654.859 310.501 656.163 310.451 659.278C310.4 662.392 311.616 663.758 314.296 666.515C317.253 669.592 321.353 673.794 321.258 681.651C321.164 689.509 316.908 693.565 313.787 696.575C311.03 699.255 309.771 700.559 309.721 703.674C309.67 706.788 310.886 708.154 313.566 710.911C316.523 713.988 320.623 718.19 320.528 726.048C320.434 733.905 316.178 737.961 313.057 740.972C310.3 743.652 309.041 744.955 308.991 748.07L297.867 747.89C297.962 740.032 302.218 735.976 305.339 732.966C308.096 730.286 309.354 728.982 309.405 725.867C309.455 722.753 308.24 721.387 305.56 718.63C302.603 715.553 298.503 711.351 298.597 703.494C298.692 695.636 302.948 691.58 306.069 688.57C308.826 685.89 310.084 684.586 310.135 681.471C310.185 678.357 308.97 676.991 306.29 674.234C303.333 671.157 299.233 666.955 299.327 659.097C299.422 651.24 303.678 647.184 306.799 644.173C309.556 641.493 310.814 640.189 310.865 637.075L321.988 637.255Z" fill="white"/>
<path d="M323.391 549.136C323.296 556.994 319.04 561.05 315.919 564.06C313.162 566.74 311.904 568.044 311.853 571.159C311.803 574.273 313.018 575.639 315.698 578.396C318.655 581.473 322.755 585.675 322.661 593.533C322.566 601.39 318.31 605.446 315.189 608.457C312.432 611.137 311.174 612.441 311.123 615.555C311.073 618.67 312.288 620.035 314.968 622.793C317.925 625.869 322.025 630.071 321.931 637.929C321.836 645.786 317.58 649.842 314.459 652.853C311.702 655.533 310.444 656.837 310.393 659.951L299.27 659.771C299.364 651.914 303.62 647.858 306.741 644.847C309.498 642.167 310.757 640.863 310.807 637.749C310.858 634.634 309.642 633.268 306.962 630.511C304.005 627.435 299.905 623.233 300 615.375C300.094 607.517 304.35 603.461 307.471 600.451C310.228 597.771 311.487 596.467 311.537 593.352C311.588 590.238 310.372 588.872 307.692 586.115C304.735 583.038 300.635 578.836 300.73 570.979C300.824 563.121 305.08 559.065 308.201 556.055C310.958 553.375 312.217 552.071 312.267 548.956L323.391 549.136Z" fill="white"/>
<path d="M324.807 460.446C324.713 468.304 320.457 472.36 317.336 475.371C314.579 478.051 313.32 479.354 313.27 482.469C313.219 485.584 314.435 486.949 317.115 489.707C320.072 492.783 324.172 496.985 324.077 504.843C323.983 512.7 319.727 516.756 316.606 519.767C313.849 522.447 312.59 523.751 312.54 526.865C312.489 529.98 313.705 531.346 316.385 534.103C319.342 537.179 323.442 541.381 323.347 549.239C323.253 557.096 318.997 561.152 315.876 564.163C313.119 566.843 311.86 568.147 311.81 571.261L300.686 571.081C300.781 563.224 305.037 559.168 308.158 556.157C310.915 553.477 312.173 552.173 312.224 549.059C312.274 545.944 311.059 544.578 308.379 541.821C305.422 538.745 301.322 534.543 301.416 526.685C301.511 518.828 305.767 514.772 308.888 511.761C311.645 509.081 312.903 507.777 312.954 504.663C313.004 501.548 311.789 500.182 309.109 497.425C306.152 494.349 302.052 490.146 302.146 482.289C302.241 474.431 306.497 470.375 309.618 467.365C312.375 464.685 313.633 463.381 313.684 460.266L324.807 460.446Z" fill="white"/>
<path d="M326.08 372.485C325.985 380.342 321.729 384.398 318.609 387.409C315.851 390.089 314.593 391.393 314.542 394.507C314.492 397.622 315.707 398.988 318.387 401.745C321.344 404.821 325.445 409.023 325.35 416.881C325.255 424.738 320.999 428.794 317.879 431.805C315.121 434.485 313.863 435.789 313.812 438.903C313.762 442.018 314.977 443.384 317.657 446.141C320.614 449.217 324.715 453.42 324.62 461.277C324.525 469.135 320.269 473.191 317.149 476.201C314.392 478.881 313.133 480.185 313.082 483.3L301.959 483.119C302.054 475.262 306.309 471.206 309.43 468.195C312.187 465.515 313.446 464.212 313.496 461.097C313.547 457.982 312.331 456.617 309.652 453.86C306.694 450.783 302.594 446.581 302.689 438.723C302.784 430.866 307.039 426.81 310.16 423.799C312.917 421.119 314.176 419.815 314.226 416.701C314.277 413.586 313.061 412.22 310.381 409.463C307.424 406.387 303.324 402.185 303.419 394.327C303.514 386.47 307.769 382.414 310.89 379.403C313.647 376.723 314.906 375.419 314.956 372.304L326.08 372.485Z" fill="white"/>
<path d="M327.497 283.795C327.402 291.652 323.146 295.708 320.025 298.719C317.268 301.399 316.01 302.703 315.959 305.817C315.909 308.932 317.124 310.298 319.804 313.055C322.761 316.131 326.861 320.334 326.767 328.191C326.672 336.049 322.416 340.105 319.295 343.115C316.538 345.795 315.28 347.099 315.229 350.214C315.179 353.328 316.394 354.694 319.074 357.451C322.031 360.528 326.131 364.73 326.037 372.587C325.942 380.445 321.686 384.501 318.565 387.511C315.808 390.191 314.55 391.495 314.499 394.61L303.376 394.43C303.47 386.572 307.726 382.516 310.847 379.506C313.604 376.826 314.863 375.522 314.913 372.407C314.963 369.292 313.748 367.927 311.068 365.17C308.111 362.093 304.011 357.891 304.106 350.033C304.2 342.176 308.456 338.12 311.577 335.109C314.334 332.429 315.593 331.125 315.643 328.011C315.693 324.896 314.478 323.531 311.798 320.773C308.841 317.697 304.741 313.495 304.836 305.637C304.93 297.78 309.186 293.724 312.307 290.713C315.064 288.033 316.323 286.729 316.373 283.615L327.497 283.795Z" fill="white"/>
<path d="M328.899 195.676C328.804 203.534 324.548 207.59 321.428 210.6C318.67 213.28 317.412 214.584 317.361 217.699C317.311 220.813 318.526 222.179 321.206 224.936C324.163 228.013 328.264 232.215 328.169 240.072C328.074 247.93 323.818 251.986 320.698 254.996C317.94 257.676 316.682 258.98 316.631 262.095C316.581 265.209 317.796 266.575 320.476 269.332C323.433 272.409 327.534 276.611 327.439 284.469C327.344 292.326 323.088 296.382 319.968 299.393C317.21 302.073 315.952 303.377 315.901 306.491L304.778 306.311C304.873 298.453 309.128 294.397 312.249 291.387C315.006 288.707 316.265 287.403 316.315 284.288C316.366 281.174 315.15 279.808 312.471 277.051C309.513 273.974 305.413 269.772 305.508 261.915C305.603 254.057 309.858 250.001 312.979 246.991C315.736 244.311 316.995 243.007 317.045 239.892C317.096 236.778 315.88 235.412 313.2 232.655C310.243 229.578 306.143 225.376 306.238 217.518C306.333 209.661 310.588 205.605 313.709 202.594C316.466 199.914 317.725 198.61 317.775 195.496L328.899 195.676Z" fill="white"/>
<path d="M330.316 106.986C330.221 114.844 325.965 118.9 322.844 121.91C320.087 124.59 318.829 125.894 318.778 129.009C318.728 132.123 319.943 133.489 322.623 136.246C325.58 139.323 329.68 143.525 329.586 151.382C329.491 159.24 325.235 163.296 322.114 166.307C319.357 168.987 318.099 170.29 318.048 173.405C317.998 176.52 319.213 177.885 321.893 180.643C324.85 183.719 328.95 187.921 328.856 195.779C328.761 203.636 324.505 207.692 321.384 210.703C318.627 213.383 317.369 214.687 317.318 217.801L306.195 217.621C306.289 209.764 310.545 205.708 313.666 202.697C316.423 200.017 317.682 198.713 317.732 195.599C317.782 192.484 316.567 191.118 313.887 188.361C310.93 185.285 306.83 181.082 306.925 173.225C307.019 165.367 311.275 161.311 314.396 158.301C317.153 155.621 318.412 154.317 318.462 151.202C318.512 148.088 317.297 146.722 314.617 143.965C311.66 140.888 307.56 136.686 307.655 128.829C307.749 120.971 312.005 116.915 315.126 113.905C317.883 111.225 319.142 109.921 319.192 106.806L330.316 106.986Z" fill="white"/>
<path d="M331.588 19.0244C331.493 26.882 327.238 30.9379 324.117 33.9485C321.36 36.6285 320.101 37.9324 320.051 41.047C320 44.1616 321.216 45.5273 323.896 48.2845C326.853 51.3609 330.953 55.5632 330.858 63.4207C330.763 71.2782 326.508 75.3342 323.387 78.3447C320.63 81.0247 319.371 82.3286 319.321 85.4432C319.27 88.5578 320.486 89.9235 323.165 92.6807C326.123 95.7571 330.223 99.9594 330.128 107.817C330.033 115.674 325.778 119.73 322.657 122.741C319.9 125.421 318.641 126.725 318.591 129.839L307.467 129.659C307.562 121.802 311.818 117.746 314.938 114.735C317.696 112.055 318.954 110.751 319.005 107.637C319.055 104.522 317.84 103.156 315.16 100.399C312.203 97.3228 308.102 93.1206 308.197 85.2631C308.292 77.4055 312.548 73.3495 315.668 70.339C318.426 67.659 319.684 66.3551 319.735 63.2405C319.785 60.1259 318.57 58.7602 315.89 56.003C312.933 52.9266 308.832 48.7244 308.927 40.8668C309.022 33.0093 313.278 28.9533 316.398 25.9427C319.156 23.2627 320.414 21.9588 320.465 18.8443L331.588 19.0244Z" fill="white"/>
<path d="M333.005 -69.6655C332.91 -61.808 328.654 -57.7519 325.534 -54.7413C322.776 -52.0614 321.518 -50.7574 321.467 -47.6429C321.417 -44.5283 322.632 -43.1626 325.312 -40.4054C328.269 -37.3289 332.369 -33.1267 332.275 -25.2692C332.18 -17.4116 327.924 -13.3557 324.804 -10.3451C322.046 -7.66517 320.788 -6.36123 320.737 -3.24662C320.687 -0.132053 321.902 1.23367 324.582 3.99086C327.539 7.06729 331.639 11.2695 331.545 19.127C331.45 26.9846 327.194 31.0406 324.074 34.0512C321.316 36.7311 320.058 38.0351 320.007 41.1496L308.884 40.9694C308.978 33.1119 313.234 29.0559 316.355 26.0453C319.112 23.3654 320.371 22.0614 320.421 18.9468C320.472 15.8323 319.256 14.4666 316.576 11.7094C313.619 8.63294 309.519 4.43076 309.614 -3.4268C309.709 -11.2843 313.964 -15.3403 317.085 -18.3509C319.842 -21.0309 321.101 -22.3348 321.151 -25.4494C321.202 -28.5639 319.986 -29.9297 317.306 -32.6869C314.349 -35.7633 310.249 -39.9655 310.344 -47.8231C310.438 -55.6806 314.694 -59.7366 317.815 -62.7472C320.572 -65.4271 321.831 -66.7311 321.881 -69.8457L333.005 -69.6655Z" fill="white"/>
<path d="M334.407 -157.784C334.312 -149.927 330.057 -145.871 326.936 -142.86C324.179 -140.18 322.92 -138.876 322.87 -135.762C322.819 -132.647 324.035 -131.281 326.715 -128.524C329.672 -125.448 333.772 -121.245 333.677 -113.388C333.582 -105.53 329.327 -101.474 326.206 -98.4638C323.449 -95.7839 322.19 -94.4799 322.14 -91.3653C322.089 -88.2507 323.305 -86.885 325.984 -84.1278C328.941 -81.0514 333.042 -76.8492 332.947 -68.9917C332.852 -61.1341 328.597 -57.0781 325.476 -54.0675C322.719 -51.3876 321.46 -50.0837 321.41 -46.9691L310.286 -47.1493C310.381 -55.0068 314.637 -59.0628 317.757 -62.0733C320.515 -64.7533 321.773 -66.0573 321.824 -69.1718C321.874 -72.2865 320.659 -73.6521 317.979 -76.4093C315.022 -79.4858 310.921 -83.6879 311.016 -91.5455C311.111 -99.403 315.367 -103.459 318.487 -106.47C321.245 -109.15 322.503 -110.453 322.554 -113.568C322.604 -116.683 321.389 -118.048 318.709 -120.806C315.752 -123.882 311.651 -128.084 311.746 -135.942C311.841 -143.799 316.097 -147.855 319.217 -150.866C321.975 -153.546 323.233 -154.85 323.284 -157.964L334.407 -157.784Z" fill="white"/>
<path d="M335.824 -246.474C335.729 -238.617 331.473 -234.56 328.352 -231.55C325.595 -228.87 324.337 -227.566 324.286 -224.451C324.236 -221.337 325.451 -219.971 328.131 -217.214C331.088 -214.138 335.188 -209.935 335.094 -202.078C334.999 -194.22 330.743 -190.164 327.623 -187.154C324.865 -184.474 323.607 -183.17 323.556 -180.055C323.506 -176.941 324.721 -175.575 327.401 -172.818C330.358 -169.741 334.458 -165.539 334.364 -157.682C334.269 -149.824 330.013 -145.768 326.893 -142.757C324.135 -140.077 322.877 -138.774 322.826 -135.659L311.703 -135.839C311.798 -143.697 316.053 -147.753 319.174 -150.763C321.931 -153.443 323.19 -154.747 323.24 -157.862C323.291 -160.976 322.075 -162.342 319.395 -165.099C316.438 -168.176 312.338 -172.378 312.433 -180.235C312.527 -188.093 316.783 -192.149 319.904 -195.16C322.661 -197.839 323.92 -199.143 323.97 -202.258C324.021 -205.372 322.805 -206.738 320.125 -209.495C317.168 -212.572 313.068 -216.774 313.163 -224.632C313.258 -232.489 317.513 -236.545 320.634 -239.556C323.391 -242.236 324.65 -243.54 324.7 -246.654L335.824 -246.474Z" fill="white"/>
<path d="M337.096 -334.436C337.002 -326.578 332.746 -322.522 329.625 -319.512C326.868 -316.832 325.609 -315.528 325.559 -312.413C325.508 -309.299 326.724 -307.933 329.404 -305.176C332.361 -302.099 336.461 -297.897 336.366 -290.04C336.272 -282.182 332.016 -278.126 328.895 -275.115C326.138 -272.436 324.879 -271.132 324.829 -268.017C324.778 -264.902 325.994 -263.537 328.674 -260.779C331.631 -257.703 335.731 -253.501 335.636 -245.643C335.542 -237.786 331.286 -233.73 328.165 -230.719C325.408 -228.039 324.149 -226.735 324.099 -223.621L312.975 -223.801C313.07 -231.658 317.326 -235.714 320.447 -238.725C323.204 -241.405 324.462 -242.709 324.513 -245.823C324.563 -248.938 323.348 -250.304 320.668 -253.061C317.711 -256.137 313.611 -260.34 313.705 -268.197C313.8 -276.055 318.056 -280.111 321.177 -283.121C323.934 -285.801 325.192 -287.105 325.243 -290.22C325.293 -293.334 324.078 -294.7 321.398 -297.457C318.441 -300.534 314.341 -304.736 314.435 -312.593C314.53 -320.451 318.786 -324.507 321.907 -327.517C324.664 -330.197 325.922 -331.501 325.973 -334.616L337.096 -334.436Z" fill="white"/>
<path d="M338.513 -423.126C338.418 -415.268 334.162 -411.212 331.042 -408.202C328.285 -405.522 327.026 -404.218 326.976 -401.103C326.925 -397.989 328.14 -396.623 330.82 -393.866C333.777 -390.789 337.878 -386.587 337.783 -378.729C337.688 -370.872 333.433 -366.816 330.312 -363.805C327.555 -361.125 326.296 -359.821 326.246 -356.707C326.195 -353.592 327.41 -352.227 330.09 -349.469C333.047 -346.393 337.148 -342.191 337.053 -334.333C336.958 -326.476 332.703 -322.42 329.582 -319.409C326.825 -316.729 325.566 -315.425 325.516 -312.311L314.392 -312.491C314.487 -320.348 318.742 -324.404 321.863 -327.415C324.62 -330.095 325.879 -331.399 325.929 -334.513C325.98 -337.628 324.765 -338.994 322.085 -341.751C319.128 -344.827 315.027 -349.029 315.122 -356.887C315.217 -364.745 319.473 -368.801 322.593 -371.811C325.35 -374.491 326.609 -375.795 326.659 -378.91C326.71 -382.024 325.495 -383.39 322.815 -386.147C319.858 -389.223 315.757 -393.426 315.852 -401.283C315.947 -409.141 320.202 -413.197 323.323 -416.207C326.08 -418.887 327.339 -420.191 327.389 -423.306L338.513 -423.126Z" fill="white"/>
<path d="M339.915 -511.244C339.821 -503.387 335.565 -499.331 332.444 -496.32C329.687 -493.64 328.428 -492.336 328.378 -489.222C328.327 -486.107 329.543 -484.742 332.223 -481.984C335.18 -478.908 339.28 -474.706 339.185 -466.848C339.091 -458.991 334.835 -454.935 331.714 -451.924C328.957 -449.244 327.698 -447.94 327.648 -444.826C327.597 -441.711 328.813 -440.345 331.493 -437.588C334.45 -434.512 338.55 -430.309 338.455 -422.452C338.361 -414.594 334.105 -410.538 330.984 -407.528C328.227 -404.848 326.968 -403.544 326.918 -400.429L315.794 -400.609C315.889 -408.467 320.145 -412.523 323.266 -415.534C326.023 -418.214 327.281 -419.518 327.332 -422.632C327.382 -425.747 326.167 -427.112 323.487 -429.87C320.53 -432.946 316.43 -437.148 316.524 -445.006C316.619 -452.863 320.875 -456.919 323.996 -459.93C326.753 -462.61 328.011 -463.914 328.062 -467.028C328.112 -470.143 326.897 -471.509 324.217 -474.266C321.26 -477.342 317.16 -481.545 317.254 -489.402C317.349 -497.26 321.605 -501.316 324.726 -504.326C327.483 -507.006 328.741 -508.31 328.792 -511.425L339.915 -511.244Z" fill="white"/>
<path d="M341.332 -599.934C341.237 -592.077 336.981 -588.021 333.861 -585.01C331.104 -582.33 329.845 -581.026 329.795 -577.912C329.744 -574.797 330.959 -573.431 333.639 -570.674C336.596 -567.598 340.697 -563.395 340.602 -555.538C340.507 -547.68 336.252 -543.624 333.131 -540.614C330.374 -537.934 329.115 -536.63 329.065 -533.515C329.014 -530.401 330.229 -529.035 332.909 -526.278C335.866 -523.201 339.967 -518.999 339.872 -511.142C339.777 -503.284 335.522 -499.228 332.401 -496.218C329.644 -493.538 328.385 -492.234 328.335 -489.119L317.211 -489.299C317.306 -497.157 321.561 -501.213 324.682 -504.223C327.439 -506.903 328.698 -508.207 328.748 -511.322C328.799 -514.437 327.584 -515.802 324.904 -518.559C321.947 -521.636 317.846 -525.838 317.941 -533.696C318.036 -541.553 322.292 -545.609 325.412 -548.62C328.169 -551.3 329.428 -552.604 329.478 -555.718C329.529 -558.833 328.314 -560.198 325.634 -562.956C322.677 -566.032 318.576 -570.234 318.671 -578.092C318.766 -585.949 323.021 -590.005 326.142 -593.016C328.899 -595.696 330.158 -597 330.208 -600.114L341.332 -599.934Z" fill="white"/>
</g>
</svg>
