<svg width="317" height="172" viewBox="0 0 317 172" fill="none" xmlns="http://www.w3.org/2000/svg">
<path d="M310.504 90.5L311.398 90.0528L310.504 90.5ZM268.598 167.914C268.094 167.69 267.866 167.099 268.09 166.595L271.738 158.367C271.962 157.862 272.553 157.635 273.058 157.859C273.563 158.083 273.791 158.673 273.567 159.178L270.323 166.491L277.637 169.734C278.141 169.958 278.369 170.549 278.145 171.054C277.921 171.559 277.331 171.787 276.826 171.563L268.598 167.914ZM192.467 55.6289L193.246 55.0016C193.905 55.8204 194.57 56.5954 195.241 57.3286L194.502 58.0033L193.764 58.678C193.065 57.9131 192.373 57.1064 191.688 56.2563L192.467 55.6289ZM198.931 62.2167L199.564 61.4428C201.185 62.7697 202.833 63.891 204.504 64.8318L204.013 65.7032L203.523 66.5746C201.749 65.5758 200.006 64.3888 198.297 62.9906L198.931 62.2167ZM209.609 68.2048L209.931 67.258C211.837 67.9059 213.773 68.3664 215.737 68.6702L215.584 69.6585L215.431 70.6467C213.361 70.3265 211.311 69.8396 209.287 69.1516L209.609 68.2048ZM221.712 70.1417L221.722 69.1417C223.712 69.1615 225.726 69.0583 227.761 68.8611L227.858 69.8565L227.954 70.8518C225.861 71.0546 223.775 71.1622 221.702 71.1416L221.712 70.1417ZM233.955 69.0269L233.787 68.0411C235.776 67.7026 237.778 67.3048 239.791 66.8742L240 67.8521L240.209 68.83C238.179 69.2644 236.148 69.6682 234.123 70.0127L233.955 69.0269ZM246.007 66.5033L245.782 65.529C247.779 65.0678 249.787 64.6004 251.791 64.1553L252.008 65.1315L252.225 66.1077C250.231 66.5505 248.235 67.0153 246.232 67.4777L246.007 66.5033ZM258.039 63.884L257.855 62.9011C259.903 62.5178 261.95 62.1847 263.991 61.9311L264.114 62.9234L264.237 63.9158C262.246 64.1632 260.241 64.4893 258.223 64.8669L258.039 63.884ZM270.253 62.4332L270.223 61.4337C272.325 61.3706 274.418 61.4257 276.496 61.6324L276.397 62.6275L276.298 63.6226C274.317 63.4255 272.311 63.372 270.283 63.4328L270.253 62.4332ZM282.446 63.7152L282.705 62.7492C284.707 63.2846 286.686 63.9981 288.637 64.9204L288.209 65.8244L287.782 66.7285C285.944 65.8596 284.079 65.1869 282.188 64.6813L282.446 63.7152ZM293.511 68.9387L294.09 68.1236C295.729 69.2885 297.339 70.6295 298.918 72.1649L298.221 72.8818L297.524 73.5987C296.015 72.1316 294.484 70.8568 292.932 69.7538L293.511 68.9387ZM302.327 77.4263L303.108 76.8016C304.345 78.3481 305.56 80.0341 306.751 81.8692L305.912 82.4137L305.073 82.9581C303.915 81.1745 302.739 79.5426 301.546 78.0509L302.327 77.4263ZM309.046 87.7004L309.924 87.2233C310.42 88.1365 310.912 89.0794 311.398 90.0528L310.504 90.5L309.609 90.9472C309.133 89.9933 308.652 89.0704 308.167 88.1776L309.046 87.7004ZM310.504 90.5L311.398 90.0528C311.839 90.9347 312.227 91.9064 312.56 92.9547L311.607 93.2577L310.654 93.5607C310.348 92.5976 309.998 91.724 309.609 90.9472L310.504 90.5ZM312.801 99.0965L313.795 98.9842C314.01 100.884 314.103 102.923 314.066 105.068L313.066 105.051L312.066 105.033C312.102 102.967 312.012 101.015 311.808 99.2089L312.801 99.0965ZM312.645 111.004L313.638 111.124C313.402 113.067 313.068 115.066 312.629 117.102L311.652 116.891L310.674 116.681C311.1 114.703 311.424 112.765 311.652 110.883L312.645 111.004ZM310.147 122.665L311.103 122.958C310.524 124.848 309.855 126.754 309.091 128.662L308.163 128.29L307.234 127.919C307.977 126.063 308.628 124.21 309.191 122.372L310.147 122.665ZM305.719 133.73L306.614 134.177C305.724 135.954 304.749 137.721 303.682 139.467L302.829 138.945L301.976 138.424C303.012 136.728 303.96 135.01 304.825 133.282L305.719 133.73ZM299.504 143.896L300.31 144.489C299.129 146.093 297.863 147.668 296.51 149.202L295.76 148.541L295.01 147.879C296.323 146.39 297.552 144.861 298.699 143.303L299.504 143.896ZM291.615 152.837L292.303 153.563C290.861 154.93 289.338 156.252 287.732 157.522L287.112 156.738L286.492 155.953C288.051 154.721 289.528 153.438 290.927 152.112L291.615 152.837ZM282.272 160.225L282.819 161.061C281.161 162.147 279.427 163.18 277.616 164.152L277.143 163.271L276.671 162.39C278.43 161.445 280.114 160.443 281.724 159.388L282.272 160.225ZM271.776 165.866L272.173 166.784C271.254 167.182 270.318 167.565 269.364 167.933L269.004 167L268.644 166.067C269.573 165.709 270.484 165.336 271.379 164.949L271.776 165.866Z" fill="#CFC3DE"/>
<path d="M128.15 6.59273C102.15 -0.907053 46.6502 -1.90739 24.6501 10.0927C2.6501 22.0927 0.850139 39.9926 1.65014 53.5926C2.65014 70.5926 10.6504 83.5928 24.6501 90.0928C42.7107 98.4782 132.65 92.5928 148.65 90.0928C164.65 87.5928 187.65 75.5926 191.15 56.5926C194.65 37.5926 154.151 14.0925 128.15 6.59273Z" fill="#F4F8FB" stroke="#CFC3DE" stroke-width="2" stroke-dasharray="6 6"/>
<path d="M53.2474 44.7528C52.6341 44.7528 52.3274 44.5861 52.3274 44.2528L52.3674 41.7928L52.4074 39.3328C52.4074 38.4394 52.3874 37.0861 52.3474 35.2728C52.3074 33.4728 52.2874 32.1194 52.2874 31.2128V31.0928C52.2874 30.7461 52.3208 30.4261 52.3874 30.1328C52.4674 29.7728 52.6808 29.5928 53.0274 29.5928C53.9608 29.5928 54.7008 29.8928 55.2474 30.4928C55.7941 31.0928 56.0674 31.8861 56.0674 32.8728C56.0674 33.4728 55.9074 34.0994 55.5874 34.7528C55.2674 35.4061 54.8874 35.8928 54.4474 36.2128C55.2208 36.7328 55.7874 37.4061 56.1474 38.2328C56.5208 39.0461 56.7074 39.9461 56.7074 40.9328C56.7074 41.3994 56.5474 41.9794 56.2274 42.6728C55.8408 43.4994 55.3141 44.0928 54.6474 44.4528C54.2474 44.6528 53.8074 44.7528 53.3274 44.7528H53.2474ZM53.4474 35.9128C53.7941 35.8328 54.0874 35.5461 54.3274 35.0528C54.5274 34.6794 54.7141 34.2261 54.8874 33.6928C54.9274 33.5461 54.9941 33.3594 55.0874 33.1328V32.4328C55.0874 32.0328 54.9408 31.6461 54.6474 31.2728C54.3541 30.8994 54.0208 30.7128 53.6474 30.7128C53.4608 30.7128 53.3674 30.9194 53.3674 31.3328C53.3674 32.2128 53.3808 32.9994 53.4074 33.6928L53.4474 35.9128ZM53.5274 43.7128C54.1808 43.6194 54.7008 43.3194 55.0874 42.8128C55.4741 42.3061 55.6674 41.6994 55.6674 40.9928C55.6674 40.3794 55.6141 39.8194 55.5074 39.3128C55.4141 38.7928 55.2874 38.3994 55.1274 38.1328C54.9808 37.8794 54.8341 37.6661 54.6874 37.4928C54.5408 37.3194 54.4141 37.2061 54.3074 37.1528L54.1474 37.0928H53.4274C53.4941 38.6261 53.5274 40.8328 53.5274 43.7128ZM63.9765 44.7928C63.5898 44.7928 63.3965 44.6461 63.3965 44.3528C63.3965 44.2861 63.3965 44.1461 63.3965 43.9328C63.3965 43.7194 63.4098 43.5194 63.4365 43.3328C63.4898 42.8528 63.5165 42.2861 63.5165 41.6328C63.5165 41.0061 63.4898 40.1594 63.4365 39.0928C63.4098 38.4928 63.3832 37.5661 63.3565 36.3128L63.2965 33.8728L63.2765 33.0328L63.2565 31.5328C63.2565 31.3194 63.3765 31.1994 63.6165 31.1728C63.8565 31.1594 64.0565 31.2261 64.2165 31.3728C64.3765 31.5194 64.4565 31.7061 64.4565 31.9328C64.4565 32.2661 64.4432 32.7928 64.4165 33.5128L64.3565 38.6528C64.3432 38.8261 64.3365 39.0594 64.3365 39.3528C64.3498 39.6461 64.3565 39.9328 64.3565 40.2128V41.4128V42.1328C64.3298 42.9728 64.3632 43.6728 64.4565 44.2328C64.4832 44.4194 64.4498 44.5594 64.3565 44.6528C64.2765 44.7461 64.1498 44.7928 63.9765 44.7928ZM59.2765 44.7928C59.0898 44.7928 58.9232 44.7661 58.7765 44.7128C58.6298 44.6594 58.5632 44.5261 58.5765 44.3128C58.6032 44.0061 58.6232 43.6261 58.6365 43.1728C58.6498 42.7194 58.6565 42.4061 58.6565 42.2328C58.6565 41.4728 58.6765 40.6728 58.7165 39.8328C58.7432 39.5128 58.7565 39.0061 58.7565 38.3128C58.7565 37.9261 58.7498 37.4661 58.7365 36.9328C58.7232 36.3994 58.7098 35.9994 58.6965 35.7328C58.6832 35.5061 58.6698 35.2394 58.6565 34.9328C58.6432 34.6261 58.6365 34.2861 58.6365 33.9128C58.6098 33.4594 58.5965 33.1061 58.5965 32.8528L58.5765 32.3328C58.5765 32.2661 58.5765 32.1328 58.5765 31.9328C58.5765 31.7194 58.6098 31.5528 58.6765 31.4328C58.7565 31.3128 58.8898 31.2528 59.0765 31.2528C59.2498 31.2528 59.3965 31.3261 59.5165 31.4728C59.6365 31.6061 59.6965 31.7661 59.6965 31.9528C59.6965 32.0994 59.7098 32.3461 59.7365 32.6928C59.7632 33.3061 59.7765 33.7928 59.7765 34.1528C59.7765 34.5928 59.7432 35.0261 59.6765 35.4528C59.6498 35.5328 59.6365 35.6661 59.6365 35.8528C59.6365 36.0128 59.6498 36.2394 59.6765 36.5328C59.7832 36.5728 60.0098 36.6594 60.3565 36.7928C60.7032 36.9128 61.0032 37.0594 61.2565 37.2328C61.5098 37.3928 61.7098 37.5794 61.8565 37.7928C62.3098 38.5261 62.5365 39.1594 62.5365 39.6928C62.5365 40.5194 62.4765 41.4394 62.3565 42.4528C62.2898 43.0528 62.0965 43.4994 61.7765 43.7928C61.4565 44.0861 60.9898 44.3394 60.3765 44.5528C60.2165 44.6061 60.0232 44.6528 59.7965 44.6928C59.5698 44.7328 59.3965 44.7661 59.2765 44.7928ZM59.6765 43.7128C59.8365 43.7394 59.9565 43.7528 60.0365 43.7528C60.3032 43.7528 60.5232 43.6594 60.6965 43.4728C61.1632 43.0194 61.3965 42.4794 61.3965 41.8528C61.4232 41.2394 61.4365 40.6861 61.4365 40.1928C61.4365 39.3128 61.3698 38.7461 61.2365 38.4928C61.1432 38.1994 60.9565 37.9528 60.6765 37.7528C60.3965 37.5528 60.0765 37.4128 59.7165 37.3328C59.6232 38.2794 59.5765 39.3394 59.5765 40.5128C59.5765 41.5128 59.6098 42.5794 59.6765 43.7128ZM67.6387 44.5928C67.212 44.6194 67.012 44.4061 67.0387 43.9528L67.0587 42.5728C67.072 42.2794 67.0787 41.8261 67.0787 41.2128V39.7328C67.0787 39.0794 67.072 38.5861 67.0587 38.2528C67.0453 37.8261 67.0387 37.1928 67.0387 36.3528V34.4728V33.9728C67.0387 33.6128 67.0253 33.3128 66.9987 33.0728C66.9853 32.8328 66.9387 32.5794 66.8587 32.3128C66.832 32.2061 66.8187 32.1261 66.8187 32.0728C66.8187 31.8461 66.8987 31.6461 67.0587 31.4728C67.232 31.2994 67.4453 31.2061 67.6987 31.1928C68.0587 31.1794 68.4053 31.1594 68.7387 31.1328C69.0853 31.1061 69.4187 31.0594 69.7387 30.9928C69.8587 30.9394 69.992 30.9728 70.1387 31.0928C70.2853 31.1994 70.372 31.3194 70.3987 31.4528C70.4253 31.5594 70.3987 31.6661 70.3187 31.7728C70.2387 31.8661 70.132 31.9328 69.9987 31.9728C69.7187 32.0528 69.112 32.1461 68.1787 32.2528L67.9987 37.1928C68.612 37.2594 69.0853 37.4328 69.4187 37.7128C69.752 37.9928 69.9787 38.4794 70.0987 39.1728C70.2453 39.7194 70.3187 40.3061 70.3187 40.9328C70.3187 41.3328 70.2787 41.7461 70.1987 42.1728C70.012 43.0394 69.5653 43.6794 68.8587 44.0928C68.7787 44.1461 68.6587 44.2194 68.4987 44.3128C68.352 44.4061 68.2053 44.4794 68.0587 44.5328C67.9253 44.5728 67.7853 44.5928 67.6387 44.5928ZM68.0387 43.5128C68.3053 43.4328 68.5453 43.2728 68.7587 43.0328C68.972 42.7928 69.112 42.5328 69.1787 42.2528C69.2987 41.7328 69.3587 41.2261 69.3587 40.7328C69.3587 40.2128 69.2987 39.7061 69.1787 39.2128C69.0987 38.8928 68.972 38.6461 68.7987 38.4728C68.6387 38.2861 68.3853 38.1861 68.0387 38.1728V43.5128ZM73.2084 44.8528C73.035 44.8528 72.875 44.7928 72.7284 44.6728C72.595 44.5528 72.5217 44.4061 72.5084 44.2328V43.7128V43.3128C72.495 43.1928 72.4884 43.0528 72.4884 42.8928C72.4884 42.6128 72.4684 42.1861 72.4284 41.6128L72.3884 40.3328C72.3884 39.6794 72.4084 38.7061 72.4484 37.4128C72.5017 36.2528 72.5284 35.2794 72.5284 34.4928C72.5284 34.3061 72.5084 34.0261 72.4684 33.6528C72.4284 33.2661 72.4084 32.9861 72.4084 32.8128C72.4084 31.8661 72.6884 31.3928 73.2484 31.3928C73.6884 31.3928 74.195 31.4794 74.7684 31.6528C75.355 31.8261 75.6484 32.0328 75.6484 32.2728C75.6484 32.4061 75.5884 32.5328 75.4684 32.6528C75.3617 32.7594 75.2284 32.8461 75.0684 32.9128C74.5084 32.7128 74.0017 32.5794 73.5484 32.5128C73.5617 32.7128 73.5684 32.9994 73.5684 33.3728C73.5684 33.9061 73.5617 34.3861 73.5484 34.8128C73.5084 35.4528 73.4884 35.9328 73.4884 36.2528L73.5484 36.5728L73.8684 36.5528C73.975 36.5394 74.1084 36.5328 74.2684 36.5328C74.9084 36.5328 75.2284 36.7194 75.2284 37.0928C75.2284 37.2394 75.1684 37.3661 75.0484 37.4728C74.9284 37.5661 74.775 37.6128 74.5884 37.6128C74.3484 37.6128 74.1617 37.5994 74.0284 37.5728H73.5284C73.555 37.9194 73.5684 38.4261 73.5684 39.0928C73.5684 39.7594 73.5617 40.3594 73.5484 40.8928C73.5084 41.7061 73.4884 42.3128 73.4884 42.7128C73.4884 43.4594 73.5017 43.8328 73.5284 43.8328L74.1884 43.8128C74.415 43.7994 74.6884 43.7928 75.0084 43.7928C75.515 43.7928 75.7684 43.9528 75.7684 44.2728C75.7684 44.4594 75.6817 44.5994 75.5084 44.6928C75.3484 44.7994 75.1484 44.8528 74.9084 44.8528H73.2084ZM78.412 44.7328C78.2386 44.0261 78.152 43.0461 78.152 41.7928L78.192 40.0128C78.2186 39.4794 78.232 38.8861 78.232 38.2328C78.152 38.0461 78.112 37.8794 78.112 37.7328V37.6728C78.2453 37.4194 78.312 36.8461 78.312 35.9528L78.332 35.0328C78.3453 34.7394 78.352 34.4128 78.352 34.0528C78.352 33.2661 78.2986 32.6461 78.192 32.1928C78.232 32.0061 78.2986 31.8461 78.392 31.7128C78.4853 31.5661 78.5986 31.4928 78.732 31.4928H79.612C79.9853 31.4928 80.312 31.5794 80.592 31.7528C80.872 31.9128 81.0853 32.1461 81.232 32.4528C81.4986 32.9994 81.632 33.6461 81.632 34.3928C81.632 34.9261 81.6253 35.3461 81.612 35.6528C81.5853 36.0394 81.5186 36.3928 81.412 36.7128C81.372 36.8861 81.312 37.0328 81.232 37.1528C81.1653 37.2594 81.0653 37.3928 80.932 37.5528C80.7453 37.7794 80.4386 37.9928 80.012 38.1928C79.8386 38.2861 79.612 38.3728 79.332 38.4528V40.5928L79.372 41.8728L79.412 42.4928C79.4653 43.2394 79.492 43.8728 79.492 44.3928C79.492 44.5528 79.4253 44.6861 79.292 44.7928C79.1586 44.9128 79.0053 44.9728 78.832 44.9728L78.412 44.7328ZM79.352 37.6328C80.1386 37.5128 80.532 36.3861 80.532 34.2528C80.532 33.8661 80.512 33.5661 80.472 33.3528C80.432 33.1928 80.3786 33.0661 80.312 32.9728C80.2453 32.8661 80.1453 32.7794 80.012 32.7128C79.8653 32.6328 79.7053 32.5928 79.532 32.5928C79.532 32.5794 79.4586 32.5728 79.312 32.5728V33.7128C79.312 34.4994 79.3186 35.1994 79.332 35.8128C79.332 36.5061 79.3386 36.9594 79.352 37.1728V37.5928V37.6328ZM84.237 44.5528C84.0636 44.4994 83.9703 44.3861 83.957 44.2128V43.9128C83.9303 43.3528 83.9036 42.5128 83.877 41.3928C83.8236 40.4194 83.7903 39.6728 83.777 39.1528C83.737 38.3394 83.6903 37.1194 83.637 35.4928C83.6236 35.2128 83.6103 34.8261 83.597 34.3328C83.5836 33.8394 83.577 33.4661 83.577 33.2128C83.5636 33.0661 83.557 32.8594 83.557 32.5928C83.557 32.2861 83.5703 32.0594 83.597 31.9128C83.6503 31.4994 83.877 31.3061 84.277 31.3328C84.6503 31.3328 84.8503 31.5461 84.877 31.9728V32.2128L84.857 37.2528V39.6328V40.8328C84.857 41.0194 84.8703 41.2394 84.897 41.4928C84.9236 41.7328 84.9436 41.9061 84.957 42.0128C85.0236 41.6261 85.1303 41.2328 85.277 40.8328C85.437 40.4194 85.537 40.1661 85.577 40.0728C85.777 39.5928 85.9236 39.1994 86.017 38.8928C86.337 37.8661 86.7503 36.6061 87.257 35.1128C87.3636 34.8061 87.4836 34.4328 87.617 33.9928C87.977 32.8594 88.2236 32.1261 88.357 31.7928C88.477 31.4728 88.657 31.2728 88.897 31.1928C89.017 31.1528 89.137 31.1328 89.257 31.1328C89.4436 31.1328 89.637 31.1928 89.837 31.3128V32.2728C89.837 33.2728 89.857 34.3061 89.897 35.3728C89.9103 35.5994 89.917 35.9394 89.917 36.3928V36.9728C89.917 37.0928 89.9103 37.2528 89.897 37.4528C89.897 37.6528 89.9036 37.8861 89.917 38.1528L89.977 43.5528C89.977 43.7528 89.9303 43.9728 89.837 44.2128C89.797 44.3194 89.7303 44.4061 89.637 44.4728C89.5436 44.5261 89.4436 44.5528 89.337 44.5528C88.9636 44.5528 88.777 44.3794 88.777 44.0328C88.777 43.6328 88.797 43.2461 88.837 42.8728C88.8636 42.3661 88.877 41.9794 88.877 41.7128C88.8503 39.0728 88.817 37.0994 88.777 35.7928C88.777 35.5928 88.7503 35.2661 88.697 34.8128L88.637 34.0928C88.517 34.2261 88.4503 34.3128 88.437 34.3528L88.117 35.3328C87.9036 36.0261 87.737 36.5394 87.617 36.8728L85.877 41.7128L84.977 44.1728C84.8703 44.4528 84.7103 44.5928 84.497 44.5928C84.457 44.5928 84.3703 44.5794 84.237 44.5528ZM95.8984 45.0328C95.7917 45.0328 95.6984 44.9994 95.6184 44.9328C95.5384 44.8661 95.4784 44.7794 95.4384 44.6728C95.425 44.6461 95.4184 44.6061 95.4184 44.5528C95.4184 44.3794 95.5117 44.2394 95.6984 44.1328C96.0717 43.9728 96.3517 43.7328 96.5384 43.4128C96.7384 43.0794 96.8784 42.6928 96.9584 42.2528C97.1984 40.9461 97.3184 39.5261 97.3184 37.9928C97.3184 37.4194 97.3117 36.9861 97.2984 36.6928C97.205 34.4394 97.125 32.8528 97.0584 31.9328V31.8528C97.0584 31.7328 97.085 31.6394 97.1384 31.5728C97.1917 31.5061 97.285 31.4594 97.4184 31.4328C98.2717 31.2728 98.9517 31.1928 99.4584 31.1928C99.725 31.1928 99.925 31.1994 100.058 31.2128C100.365 31.2261 100.598 31.3194 100.758 31.4928C100.918 31.6661 100.998 31.9061 100.998 32.2128L101.018 33.2728C101.045 34.2061 101.058 34.9061 101.058 35.3728L101.038 36.3328C101.038 37.7461 101.092 39.5328 101.198 41.6928C101.252 42.6661 101.298 43.4194 101.338 43.9528C101.352 44.1928 101.312 44.3661 101.218 44.4728C101.138 44.5794 100.998 44.6461 100.798 44.6728C100.358 44.6994 100.125 44.4928 100.098 44.0528C100.138 43.6661 100.158 43.2794 100.158 42.8928C100.158 42.5061 100.152 42.1861 100.138 41.9328L100.118 39.6528C100.118 38.5461 100.098 37.4128 100.058 36.2528C100.032 35.2928 99.9917 34.3861 99.9384 33.5328C99.885 32.6794 99.8317 32.1594 99.7784 31.9728C99.6984 31.9861 99.5317 32.0194 99.2784 32.0728C99.025 32.1261 98.6784 32.1728 98.2384 32.2128C98.1984 32.8261 98.1784 33.2661 98.1784 33.5328C98.1784 33.8394 98.1984 34.1061 98.2384 34.3328C98.265 34.6928 98.2917 35.2194 98.3184 35.9128V36.3528C98.3184 38.5128 98.2984 39.9728 98.2584 40.7328C98.2317 40.9461 98.2184 41.1128 98.2184 41.2328C98.165 41.7928 98.1117 42.2194 98.0584 42.5128C97.925 43.2194 97.5184 43.9394 96.8384 44.6728C96.6517 44.8861 96.3517 45.0061 95.9384 45.0328H95.8984ZM108.93 44.7328C108.61 44.7328 108.304 44.6328 108.01 44.4328C107.717 44.2328 107.477 43.9461 107.29 43.5728C107.13 43.2528 107.017 42.9128 106.95 42.5528C106.897 42.1794 106.85 41.7261 106.81 41.1928L106.63 38.7328H104.91V40.6928V41.4928L105.11 43.9528C105.137 44.1794 105.104 44.3394 105.01 44.4328C104.93 44.5261 104.764 44.5728 104.51 44.5728C104.324 44.5728 104.19 44.5461 104.11 44.4928C104.03 44.4394 103.977 44.3394 103.95 44.1928C103.924 43.9794 103.91 43.6528 103.91 43.2128L103.89 41.6928C103.864 40.3594 103.85 39.3528 103.85 38.6728C103.85 38.1261 103.857 37.7194 103.87 37.4528L103.89 36.1928C103.89 35.8728 103.877 35.3128 103.85 34.5128L103.83 33.0528C103.83 32.8928 103.844 32.6528 103.87 32.3328L103.89 31.6328C103.89 31.4594 103.924 31.3461 103.99 31.2928C104.07 31.2394 104.217 31.2128 104.43 31.2128C104.644 31.2128 104.817 31.2794 104.95 31.4128C105.097 31.5328 105.157 31.6861 105.13 31.8728C105.09 32.1261 105.07 32.3928 105.07 32.6728C105.07 32.9528 105.077 33.1661 105.09 33.3128L105.11 33.9728C105.11 34.6394 105.084 35.2794 105.03 35.8928C104.977 36.5328 104.95 37.2328 104.95 37.9928C105.164 38.0194 105.324 38.0328 105.43 38.0328C105.67 38.0328 106.07 37.9794 106.63 37.8728C106.67 37.0994 106.744 36.2328 106.85 35.2728C106.957 34.2861 107.084 33.4128 107.23 32.6528C107.284 32.3728 107.444 32.0128 107.71 31.5728C107.777 31.4394 107.884 31.3394 108.03 31.2728C108.177 31.2061 108.337 31.1728 108.51 31.1728C108.75 31.1728 109.07 31.2728 109.47 31.4728C109.884 31.6728 110.21 31.8994 110.45 32.1528C110.864 32.6061 111.19 33.1794 111.43 33.8728C111.684 34.5661 111.81 35.3328 111.81 36.1728C111.81 36.5861 111.784 36.9728 111.73 37.3328C111.677 37.7194 111.65 38.3061 111.65 39.0928C111.65 39.8128 111.63 40.3528 111.59 40.7128C111.47 41.8728 111.184 42.8594 110.73 43.6728C110.557 44.0061 110.297 44.2661 109.95 44.4528C109.604 44.6394 109.264 44.7328 108.93 44.7328ZM108.93 43.9328C109.184 43.9328 109.39 43.8128 109.55 43.5728C109.91 42.8394 110.157 42.1928 110.29 41.6328C110.437 41.0728 110.517 40.3328 110.53 39.4128C110.584 38.2128 110.61 37.2128 110.61 36.4128L110.59 35.5528C110.564 34.7528 110.437 33.9928 110.21 33.2728C110.144 33.0461 110.017 32.8194 109.83 32.5928C109.657 32.3528 109.464 32.1594 109.25 32.0128C109.05 31.8794 108.884 31.8128 108.75 31.8128C108.644 31.8128 108.564 31.8594 108.51 31.9528C108.457 32.0461 108.404 32.1928 108.35 32.3928C108.31 32.5928 108.27 32.7528 108.23 32.8728C108.177 33.0594 108.124 33.3394 108.07 33.7128C108.057 33.8728 108.024 34.0794 107.97 34.3328C107.757 35.5594 107.65 36.9328 107.65 38.4528V39.0928L107.67 39.6728C107.684 39.8461 107.697 40.1928 107.71 40.7128C107.737 41.2194 107.777 41.6728 107.83 42.0728C107.87 42.4328 108.037 42.9328 108.33 43.5728C108.477 43.8128 108.677 43.9328 108.93 43.9328ZM114.768 44.5928C114.341 44.6194 114.141 44.4061 114.168 43.9528L114.188 42.5728C114.201 42.2794 114.208 41.8261 114.208 41.2128V39.7328C114.208 39.0794 114.201 38.5861 114.188 38.2528C114.174 37.8261 114.168 37.1928 114.168 36.3528V34.4728V33.9728C114.168 33.6128 114.154 33.3128 114.128 33.0728C114.114 32.8328 114.068 32.5794 113.988 32.3128C113.961 32.2061 113.948 32.1261 113.948 32.0728C113.948 31.8461 114.028 31.6461 114.188 31.4728C114.361 31.2994 114.574 31.2061 114.828 31.1928C115.188 31.1794 115.534 31.1594 115.868 31.1328C116.214 31.1061 116.548 31.0594 116.868 30.9928C116.988 30.9394 117.121 30.9728 117.268 31.0928C117.414 31.1994 117.501 31.3194 117.528 31.4528C117.554 31.5594 117.528 31.6661 117.448 31.7728C117.368 31.8661 117.261 31.9328 117.128 31.9728C116.848 32.0528 116.241 32.1461 115.308 32.2528L115.128 37.1928C115.741 37.2594 116.214 37.4328 116.548 37.7128C116.881 37.9928 117.108 38.4794 117.228 39.1728C117.374 39.7194 117.448 40.3061 117.448 40.9328C117.448 41.3328 117.408 41.7461 117.328 42.1728C117.141 43.0394 116.694 43.6794 115.988 44.0928C115.908 44.1461 115.788 44.2194 115.628 44.3128C115.481 44.4061 115.334 44.4794 115.188 44.5328C115.054 44.5728 114.914 44.5928 114.768 44.5928ZM115.168 43.5128C115.434 43.4328 115.674 43.2728 115.888 43.0328C116.101 42.7928 116.241 42.5328 116.308 42.2528C116.428 41.7328 116.488 41.2261 116.488 40.7328C116.488 40.2128 116.428 39.7061 116.308 39.2128C116.228 38.8928 116.101 38.6461 115.928 38.4728C115.768 38.2861 115.514 38.1861 115.168 38.1728V43.5128ZM121.757 44.9728C121.411 44.9728 121.091 44.8594 120.797 44.6328C120.504 44.4194 120.264 44.1261 120.077 43.7528C119.691 42.9394 119.451 42.0528 119.357 41.0928C119.237 40.1861 119.177 39.3128 119.177 38.4728C119.177 38.3128 119.184 38.1794 119.197 38.0728V37.7128C119.197 37.6461 119.191 37.6128 119.177 37.6128V37.2528L119.197 35.8528C119.211 35.4261 119.264 34.7461 119.357 33.8128C119.424 33.1728 119.577 32.5528 119.817 31.9528C119.911 31.6861 120.031 31.4861 120.177 31.3528C120.324 31.2061 120.491 31.1328 120.677 31.1328C121.211 31.1328 121.691 31.2328 122.117 31.4328C122.544 31.6194 122.904 31.8861 123.197 32.2328C123.464 32.5661 123.691 32.9794 123.877 33.4728C124.064 33.9528 124.197 34.4661 124.277 35.0128C124.357 35.5728 124.397 36.1661 124.397 36.7928V36.9528C124.397 37.3661 124.404 37.7394 124.417 38.0728L124.437 39.2128C124.437 43.0528 123.544 44.9728 121.757 44.9728ZM121.677 44.1328C121.917 44.1328 122.137 44.0394 122.337 43.8528C122.537 43.6528 122.691 43.3861 122.797 43.0528C123.051 42.3728 123.204 41.6394 123.257 40.8528C123.324 40.1728 123.357 39.5861 123.357 39.0928C123.357 38.4928 123.311 37.7061 123.217 36.7328C123.137 35.7061 123.097 34.9394 123.097 34.4328V34.0728C123.071 33.5661 122.897 33.1261 122.577 32.7528C122.271 32.3794 121.891 32.1928 121.437 32.1928C120.984 32.1928 120.684 32.4528 120.537 32.9728C120.404 33.3861 120.337 33.9194 120.337 34.5728C120.337 34.8261 120.344 35.0394 120.357 35.2128V35.7528L120.317 36.6728C120.291 36.9528 120.277 37.2594 120.277 37.5928C120.277 38.3128 120.297 39.0261 120.337 39.7328C120.391 40.7328 120.524 41.7061 120.737 42.6528C120.951 43.6394 121.264 44.1328 121.677 44.1328ZM127.264 44.5528C127.091 44.4994 126.998 44.3861 126.984 44.2128V43.9128C126.958 43.3528 126.931 42.5128 126.904 41.3928C126.851 40.4194 126.818 39.6728 126.804 39.1528C126.764 38.3394 126.718 37.1194 126.664 35.4928C126.651 35.2128 126.638 34.8261 126.624 34.3328C126.611 33.8394 126.604 33.4661 126.604 33.2128C126.591 33.0661 126.584 32.8594 126.584 32.5928C126.584 32.2861 126.598 32.0594 126.624 31.9128C126.678 31.4994 126.904 31.3061 127.304 31.3328C127.678 31.3328 127.878 31.5461 127.904 31.9728V32.2128L127.884 37.2528V39.6328V40.8328C127.884 41.0194 127.898 41.2394 127.924 41.4928C127.951 41.7328 127.971 41.9061 127.984 42.0128C128.051 41.6261 128.158 41.2328 128.304 40.8328C128.464 40.4194 128.564 40.1661 128.604 40.0728C128.804 39.5928 128.951 39.1994 129.044 38.8928C129.364 37.8661 129.778 36.6061 130.284 35.1128C130.391 34.8061 130.511 34.4328 130.644 33.9928C131.004 32.8594 131.251 32.1261 131.384 31.7928C131.504 31.4728 131.684 31.2728 131.924 31.1928C132.044 31.1528 132.164 31.1328 132.284 31.1328C132.471 31.1328 132.664 31.1928 132.864 31.3128V32.2728C132.864 33.2728 132.884 34.3061 132.924 35.3728C132.938 35.5994 132.944 35.9394 132.944 36.3928V36.9728C132.944 37.0928 132.938 37.2528 132.924 37.4528C132.924 37.6528 132.931 37.8861 132.944 38.1528L133.004 43.5528C133.004 43.7528 132.958 43.9728 132.864 44.2128C132.824 44.3194 132.758 44.4061 132.664 44.4728C132.571 44.5261 132.471 44.5528 132.364 44.5528C131.991 44.5528 131.804 44.3794 131.804 44.0328C131.804 43.6328 131.824 43.2461 131.864 42.8728C131.891 42.3661 131.904 41.9794 131.904 41.7128C131.878 39.0728 131.844 37.0994 131.804 35.7928C131.804 35.5928 131.778 35.2661 131.724 34.8128L131.664 34.0928C131.544 34.2261 131.478 34.3128 131.464 34.3528L131.144 35.3328C130.931 36.0261 130.764 36.5394 130.644 36.8728L128.904 41.7128L128.004 44.1728C127.898 44.4528 127.738 44.5928 127.524 44.5928C127.484 44.5928 127.398 44.5794 127.264 44.5528ZM129.284 30.1328C128.964 30.1328 128.658 30.0061 128.364 29.7528C128.084 29.4994 127.944 29.2194 127.944 28.9128C127.944 28.7794 127.984 28.6728 128.064 28.5928C128.144 28.5128 128.258 28.4661 128.404 28.4528C128.578 28.4394 128.724 28.4528 128.844 28.4928C128.978 28.5194 129.098 28.5994 129.204 28.7328C129.324 28.8794 129.451 28.9528 129.584 28.9528C129.731 28.9528 129.871 28.8528 130.004 28.6528C130.058 28.5594 130.104 28.4794 130.144 28.4128C130.184 28.3328 130.218 28.2661 130.244 28.2128C130.391 27.9594 130.564 27.8328 130.764 27.8328C130.791 27.8328 130.844 27.8461 130.924 27.8728C131.031 27.9261 131.118 28.0061 131.184 28.1128C131.251 28.2061 131.284 28.3128 131.284 28.4328C131.284 28.5128 131.264 28.5928 131.224 28.6728C131.211 28.7128 131.198 28.7528 131.184 28.7928C131.171 28.8194 131.158 28.8461 131.144 28.8728C130.998 29.3394 130.764 29.6661 130.444 29.8528C130.138 30.0394 129.751 30.1328 129.284 30.1328ZM25.36 66.5528C25.1867 66.4994 25.0933 66.3861 25.08 66.2128V65.9128C25.0533 65.3528 25.0267 64.5128 25 63.3928C24.9467 62.4194 24.9133 61.6728 24.9 61.1528C24.86 60.3394 24.8133 59.1194 24.76 57.4928C24.7467 57.2128 24.7333 56.8261 24.72 56.3328C24.7067 55.8394 24.7 55.4661 24.7 55.2128C24.6867 55.0661 24.68 54.8594 24.68 54.5928C24.68 54.2861 24.6933 54.0594 24.72 53.9128C24.7733 53.4994 25 53.3061 25.4 53.3328C25.7733 53.3328 25.9733 53.5461 26 53.9728V54.2128L25.98 59.2528V61.6328V62.8328C25.98 63.0194 25.9933 63.2394 26.02 63.4928C26.0467 63.7328 26.0667 63.9061 26.08 64.0128C26.1467 63.6261 26.2533 63.2328 26.4 62.8328C26.56 62.4194 26.66 62.1661 26.7 62.0728C26.9 61.5928 27.0467 61.1994 27.14 60.8928C27.46 59.8661 27.8733 58.6061 28.38 57.1128C28.4867 56.8061 28.6067 56.4328 28.74 55.9928C29.1 54.8594 29.3467 54.1261 29.48 53.7928C29.6 53.4728 29.78 53.2728 30.02 53.1928C30.14 53.1528 30.26 53.1328 30.38 53.1328C30.5667 53.1328 30.76 53.1928 30.96 53.3128V54.2728C30.96 55.2728 30.98 56.3061 31.02 57.3728C31.0333 57.5994 31.04 57.9394 31.04 58.3928V58.9728C31.04 59.0928 31.0333 59.2528 31.02 59.4528C31.02 59.6528 31.0267 59.8861 31.04 60.1528L31.1 65.5528C31.1 65.7528 31.0533 65.9728 30.96 66.2128C30.92 66.3194 30.8533 66.4061 30.76 66.4728C30.6667 66.5261 30.5667 66.5528 30.46 66.5528C30.0867 66.5528 29.9 66.3794 29.9 66.0328C29.9 65.6328 29.92 65.2461 29.96 64.8728C29.9867 64.3661 30 63.9794 30 63.7128C29.9733 61.0728 29.94 59.0994 29.9 57.7928C29.9 57.5928 29.8733 57.2661 29.82 56.8128L29.76 56.0928C29.64 56.2261 29.5733 56.3128 29.56 56.3528L29.24 57.3328C29.0267 58.0261 28.86 58.5394 28.74 58.8728L27 63.7128L26.1 66.1728C25.9933 66.4528 25.8333 66.5928 25.62 66.5928C25.58 66.5928 25.4933 66.5794 25.36 66.5528ZM37.0291 66.5928C36.5757 66.5928 36.3491 65.4928 36.3491 63.2928L36.3691 62.1528L36.3891 61.2328V61.1728V60.9728C36.4024 60.8661 36.4091 60.7394 36.4091 60.5928C36.4091 60.5661 36.3891 60.5328 36.3491 60.4928C36.3091 60.4528 36.2891 60.4194 36.2891 60.3928V60.3728C36.2224 60.3994 36.1024 60.4128 35.9291 60.4128C35.7557 60.4128 35.5424 60.3861 35.2891 60.3328C35.2091 60.3194 34.9957 60.2861 34.6491 60.2328V62.5328C34.6491 62.8794 34.6691 63.4261 34.7091 64.1728C34.7491 64.9061 34.7691 65.4528 34.7691 65.8128C34.7691 66.0128 34.7157 66.1861 34.6091 66.3328C34.5024 66.4794 34.3624 66.5528 34.1891 66.5528C33.9357 66.5528 33.7557 66.3061 33.6491 65.8128C33.5424 65.3061 33.4891 64.6461 33.4891 63.8328L33.5291 62.2128C33.5424 61.7594 33.5491 61.2794 33.5491 60.7728V60.4328V60.1528C33.5491 59.9394 33.5424 59.7994 33.5291 59.7328V59.6328L33.5891 58.4728C33.5891 57.9661 33.5691 57.2128 33.5291 56.2128C33.4891 55.2128 33.4691 54.4594 33.4691 53.9528C33.4691 53.7928 33.5224 53.6528 33.6291 53.5328C33.7357 53.4128 33.8691 53.3528 34.0291 53.3528C34.4557 53.3528 34.6691 53.7528 34.6691 54.5528L34.6291 57.0328C34.6024 57.7794 34.5891 58.6128 34.5891 59.5328C34.7891 59.5994 35.1491 59.6328 35.6691 59.6328H36.4091C36.4357 59.5528 36.4491 59.4728 36.4491 59.3928C36.4491 58.7528 36.4091 57.8061 36.3291 56.5528C36.2357 55.3794 36.1891 54.4261 36.1891 53.6928C36.1891 53.5461 36.2424 53.4261 36.3491 53.3328C36.4691 53.2261 36.6091 53.1728 36.7691 53.1728C36.8624 53.1728 36.9957 53.2061 37.1691 53.2728L37.3491 53.3528C37.3491 55.2461 37.4157 57.7728 37.5491 60.9328L37.7291 65.9928C37.7291 66.1794 37.6557 66.3261 37.5091 66.4328C37.3757 66.5394 37.2157 66.5928 37.0291 66.5928ZM41.2502 66.2728L41.2302 65.4928C41.2168 65.2661 41.2102 65.0128 41.2102 64.7328L41.2302 64.0528C41.1902 63.9061 41.0902 62.4461 40.9302 59.6728C40.7702 56.8994 40.6768 55.1194 40.6502 54.3328C39.8768 54.3061 39.3835 54.2261 39.1702 54.0928C39.0235 53.9861 38.9502 53.8661 38.9502 53.7328C38.9502 53.6261 39.0168 53.5328 39.1502 53.4528C39.2968 53.3594 39.4435 53.3128 39.5902 53.3128C39.9635 53.3128 40.4168 53.3394 40.9502 53.3928C41.4568 53.4594 41.9102 53.4928 42.3102 53.4928H42.4702H42.6302C43.0435 53.4928 43.2502 53.6528 43.2502 53.9728C43.2502 54.1328 43.1835 54.2661 43.0502 54.3728C42.9168 54.4661 42.7635 54.5128 42.5902 54.5128C42.4702 54.5128 42.2968 54.4928 42.0702 54.4528L41.6702 54.3728L41.6502 54.4728L41.6302 54.5728C41.6302 55.7594 41.7435 57.6528 41.9702 60.2528C42.1835 62.6928 42.2902 64.5861 42.2902 65.9328C42.2902 66.0928 42.2168 66.2328 42.0702 66.3528C41.9368 66.4728 41.7835 66.5328 41.6102 66.5328L41.2502 66.2728ZM46.1673 66.8528C45.994 66.8528 45.834 66.7928 45.6873 66.6728C45.554 66.5528 45.4807 66.4061 45.4673 66.2328V65.7128V65.3128C45.454 65.1928 45.4473 65.0528 45.4473 64.8928C45.4473 64.6128 45.4273 64.1861 45.3873 63.6128L45.3473 62.3328C45.3473 61.6794 45.3673 60.7061 45.4073 59.4128C45.4607 58.2528 45.4873 57.2794 45.4873 56.4928C45.4873 56.3061 45.4673 56.0261 45.4273 55.6528C45.3873 55.2661 45.3673 54.9861 45.3673 54.8128C45.3673 53.8661 45.6473 53.3928 46.2073 53.3928C46.6473 53.3928 47.154 53.4794 47.7273 53.6528C48.314 53.8261 48.6073 54.0328 48.6073 54.2728C48.6073 54.4061 48.5473 54.5328 48.4273 54.6528C48.3207 54.7594 48.1873 54.8461 48.0273 54.9128C47.4673 54.7128 46.9607 54.5794 46.5073 54.5128C46.5207 54.7128 46.5273 54.9994 46.5273 55.3728C46.5273 55.9061 46.5207 56.3861 46.5073 56.8128C46.4673 57.4528 46.4473 57.9328 46.4473 58.2528L46.5073 58.5728L46.8273 58.5528C46.934 58.5394 47.0673 58.5328 47.2273 58.5328C47.8673 58.5328 48.1873 58.7194 48.1873 59.0928C48.1873 59.2394 48.1273 59.3661 48.0073 59.4728C47.8873 59.5661 47.734 59.6128 47.5473 59.6128C47.3073 59.6128 47.1207 59.5994 46.9873 59.5728H46.4873C46.514 59.9194 46.5273 60.4261 46.5273 61.0928C46.5273 61.7594 46.5207 62.3594 46.5073 62.8928C46.4673 63.7061 46.4473 64.3128 46.4473 64.7128C46.4473 65.4594 46.4607 65.8328 46.4873 65.8328L47.1473 65.8128C47.374 65.7994 47.6473 65.7928 47.9673 65.7928C48.474 65.7928 48.7273 65.9528 48.7273 66.2728C48.7273 66.4594 48.6407 66.5994 48.4673 66.6928C48.3073 66.7994 48.1073 66.8528 47.8673 66.8528H46.1673ZM51.3709 66.7328C51.1976 66.0261 51.1109 65.0461 51.1109 63.7928L51.1509 62.0128C51.1776 61.4794 51.1909 60.8861 51.1909 60.2328C51.1109 60.0461 51.0709 59.8794 51.0709 59.7328V59.6728C51.2043 59.4194 51.2709 58.8461 51.2709 57.9528L51.2909 57.0328C51.3043 56.7394 51.3109 56.4128 51.3109 56.0528C51.3109 55.2661 51.2576 54.6461 51.1509 54.1928C51.1909 54.0061 51.2576 53.8461 51.3509 53.7128C51.4443 53.5661 51.5576 53.4928 51.6909 53.4928H52.5709C52.9443 53.4928 53.2709 53.5794 53.5509 53.7528C53.8309 53.9128 54.0443 54.1461 54.1909 54.4528C54.4576 54.9994 54.5909 55.6461 54.5909 56.3928C54.5909 56.9261 54.5843 57.3461 54.5709 57.6528C54.5443 58.0394 54.4776 58.3928 54.3709 58.7128C54.3309 58.8861 54.2709 59.0328 54.1909 59.1528C54.1243 59.2594 54.0243 59.3928 53.8909 59.5528C53.7043 59.7794 53.3976 59.9928 52.9709 60.1928C52.7976 60.2861 52.5709 60.3728 52.2909 60.4528V62.5928L52.3309 63.8728L52.3709 64.4928C52.4243 65.2394 52.4509 65.8728 52.4509 66.3928C52.4509 66.5528 52.3843 66.6861 52.2509 66.7928C52.1176 66.9128 51.9643 66.9728 51.7909 66.9728L51.3709 66.7328ZM52.3109 59.6328C53.0976 59.5128 53.4909 58.3861 53.4909 56.2528C53.4909 55.8661 53.4709 55.5661 53.4309 55.3528C53.3909 55.1928 53.3376 55.0661 53.2709 54.9728C53.2043 54.8661 53.1043 54.7794 52.9709 54.7128C52.8243 54.6328 52.6643 54.5928 52.4909 54.5928C52.4909 54.5794 52.4176 54.5728 52.2709 54.5728V55.7128C52.2709 56.4994 52.2776 57.1994 52.2909 57.8128C52.2909 58.5061 52.2976 58.9594 52.3109 59.1728V59.5928V59.6328ZM57.4759 66.8528C57.3026 66.8528 57.1426 66.7928 56.9959 66.6728C56.8626 66.5528 56.7893 66.4061 56.7759 66.2328V65.7128V65.3128C56.7626 65.1928 56.7559 65.0528 56.7559 64.8928C56.7559 64.6128 56.7359 64.1861 56.6959 63.6128L56.6559 62.3328C56.6559 61.6794 56.6759 60.7061 56.7159 59.4128C56.7693 58.2528 56.7959 57.2794 56.7959 56.4928C56.7959 56.3061 56.7759 56.0261 56.7359 55.6528C56.6959 55.2661 56.6759 54.9861 56.6759 54.8128C56.6759 53.8661 56.9559 53.3928 57.5159 53.3928C57.9559 53.3928 58.4626 53.4794 59.0359 53.6528C59.6226 53.8261 59.9159 54.0328 59.9159 54.2728C59.9159 54.4061 59.8559 54.5328 59.7359 54.6528C59.6293 54.7594 59.4959 54.8461 59.3359 54.9128C58.7759 54.7128 58.2693 54.5794 57.8159 54.5128C57.8293 54.7128 57.8359 54.9994 57.8359 55.3728C57.8359 55.9061 57.8293 56.3861 57.8159 56.8128C57.7759 57.4528 57.7559 57.9328 57.7559 58.2528L57.8159 58.5728L58.1359 58.5528C58.2426 58.5394 58.3759 58.5328 58.5359 58.5328C59.1759 58.5328 59.4959 58.7194 59.4959 59.0928C59.4959 59.2394 59.4359 59.3661 59.3159 59.4728C59.1959 59.5661 59.0426 59.6128 58.8559 59.6128C58.6159 59.6128 58.4293 59.5994 58.2959 59.5728H57.7959C57.8226 59.9194 57.8359 60.4261 57.8359 61.0928C57.8359 61.7594 57.8293 62.3594 57.8159 62.8928C57.7759 63.7061 57.7559 64.3128 57.7559 64.7128C57.7559 65.4594 57.7693 65.8328 57.7959 65.8328L58.4559 65.8128C58.6826 65.7994 58.9559 65.7928 59.2759 65.7928C59.7826 65.7928 60.0359 65.9528 60.0359 66.2728C60.0359 66.4594 59.9493 66.5994 59.7759 66.6928C59.6159 66.7994 59.4159 66.8528 59.1759 66.8528H57.4759ZM64.9195 66.8728C64.6262 66.8728 64.3129 66.8261 63.9795 66.7328C63.6595 66.6528 63.4129 66.5594 63.2395 66.4528C62.3462 65.8794 61.8995 64.3128 61.8995 61.7528V61.2128V60.5928V60.1128C61.8995 59.5794 61.9062 59.1061 61.9195 58.6928C61.9329 58.2661 61.9595 57.8061 61.9995 57.3128C62.0395 56.7928 62.0995 56.3728 62.1795 56.0528C62.2595 55.7194 62.3929 55.3461 62.5795 54.9328C62.7395 54.5461 62.9329 54.2461 63.1595 54.0328C63.3995 53.8194 63.7062 53.6394 64.0795 53.4928C64.4129 53.3461 64.8262 53.2728 65.3195 53.2728C65.5195 53.2728 65.6729 53.3194 65.7795 53.4128C65.8862 53.5061 65.9395 53.6261 65.9395 53.7728C65.9395 53.9061 65.8929 54.0261 65.7995 54.1328C65.7195 54.2394 65.6195 54.2994 65.4995 54.3128H64.5595C64.2929 54.3128 64.0595 54.4794 63.8595 54.8128C63.6595 55.1461 63.5195 55.5794 63.4395 56.1128C63.2662 57.0994 63.1795 57.8994 63.1795 58.5128V58.6128L63.1395 60.5328C63.1129 61.1061 63.0995 61.7528 63.0995 62.4728C63.0995 62.9794 63.1195 63.3928 63.1595 63.7128C63.2262 64.1928 63.3395 64.5928 63.4995 64.9128C63.6595 65.2728 63.9329 65.5328 64.3195 65.6928C64.5195 65.7728 64.7395 65.8128 64.9795 65.8128C65.1262 65.8128 65.2729 65.7594 65.4195 65.6528C65.5929 65.6528 65.7329 65.6928 65.8395 65.7728C65.9595 65.8394 66.0195 65.9461 66.0195 66.0928C66.0195 66.6128 65.6529 66.8728 64.9195 66.8728ZM68.7455 66.7928C68.6255 66.7928 68.5121 66.7328 68.4055 66.6128C68.3121 66.4928 68.2921 66.3728 68.3455 66.2528C68.3855 66.1328 68.4788 65.9328 68.6255 65.6528C69.0388 64.9728 69.3121 64.0528 69.4455 62.8928C69.4588 62.8128 69.4055 62.7128 69.2855 62.5928C69.1788 62.4594 69.1121 62.3594 69.0855 62.2928L68.8055 61.8928C68.5255 61.5061 68.2921 61.1528 68.1055 60.8328C67.9321 60.4994 67.7655 60.0594 67.6055 59.5128C67.5388 59.2861 67.4921 59.0461 67.4655 58.7928C67.4388 58.5261 67.4255 58.3594 67.4255 58.2928L67.3855 57.8328C67.3721 57.6061 67.3521 57.4061 67.3255 57.2328C67.2988 57.0461 67.2788 56.8928 67.2655 56.7728C67.1455 55.9994 67.0855 55.3661 67.0855 54.8728C67.0855 54.6861 67.0921 54.5461 67.1055 54.4528C67.1188 54.2528 67.1188 54.0728 67.1055 53.9128C67.1055 53.7528 67.1055 53.6194 67.1055 53.5128C67.1188 53.2461 67.2121 53.1128 67.3855 53.1128C67.4255 53.1128 67.4988 53.1261 67.6055 53.1528C68.0988 53.2994 68.3455 53.5794 68.3455 53.9928C68.3455 54.0994 68.3321 54.2994 68.3055 54.5928L68.2455 55.4128C68.2455 55.7861 68.2521 56.0661 68.2655 56.2528C68.3721 57.3594 68.4921 58.4528 68.6255 59.5328C68.6655 59.8261 68.7588 60.0994 68.9055 60.3528C69.0655 60.5928 69.2255 60.7928 69.3855 60.9528C69.5588 61.0994 69.6588 61.1728 69.6855 61.1728C69.7655 60.9328 69.8121 60.7728 69.8255 60.6928C69.9055 59.5061 69.9521 58.6328 69.9655 58.0728C69.9788 57.6061 69.9855 56.8328 69.9855 55.7528V53.4128C69.9988 53.3061 70.0255 53.2328 70.0655 53.1928C70.1188 53.1394 70.2055 53.1128 70.3255 53.1128C70.5921 53.1128 70.8121 53.2128 70.9855 53.4128C71.1588 53.5994 71.2255 53.8261 71.1855 54.0928C71.1455 54.4128 71.1255 54.8394 71.1255 55.3728C71.1255 55.6928 71.1321 55.9128 71.1455 56.0328C71.1588 56.1528 71.1655 56.3194 71.1655 56.5328C71.1655 56.8661 71.1388 57.3394 71.0855 57.9528C71.0855 58.0994 71.0721 58.3328 71.0455 58.6528C71.0188 59.0528 70.9521 59.6661 70.8455 60.4928L70.7655 61.1528C70.6855 61.9528 70.5255 62.9394 70.2855 64.1128C70.2055 64.4861 70.0855 64.8794 69.9255 65.2928C69.7655 65.6928 69.5855 66.0661 69.3855 66.4128C69.3455 66.5061 69.2588 66.5928 69.1255 66.6728C68.9921 66.7528 68.8655 66.7928 68.7455 66.7928ZM78.2566 66.7328C77.9366 66.7328 77.6299 66.6328 77.3366 66.4328C77.0432 66.2328 76.8032 65.9461 76.6166 65.5728C76.4566 65.2528 76.3432 64.9128 76.2766 64.5528C76.2232 64.1794 76.1766 63.7261 76.1366 63.1928L75.9566 60.7328H74.2366V62.6928V63.4928L74.4366 65.9528C74.4632 66.1794 74.4299 66.3394 74.3366 66.4328C74.2566 66.5261 74.0899 66.5728 73.8366 66.5728C73.6499 66.5728 73.5166 66.5461 73.4366 66.4928C73.3566 66.4394 73.3032 66.3394 73.2766 66.1928C73.2499 65.9794 73.2366 65.6528 73.2366 65.2128L73.2166 63.6928C73.1899 62.3594 73.1766 61.3528 73.1766 60.6728C73.1766 60.1261 73.1832 59.7194 73.1966 59.4528L73.2166 58.1928C73.2166 57.8728 73.2032 57.3128 73.1766 56.5128L73.1566 55.0528C73.1566 54.8928 73.1699 54.6528 73.1966 54.3328L73.2166 53.6328C73.2166 53.4594 73.2499 53.3461 73.3166 53.2928C73.3966 53.2394 73.5432 53.2128 73.7566 53.2128C73.9699 53.2128 74.1432 53.2794 74.2766 53.4128C74.4232 53.5328 74.4832 53.6861 74.4566 53.8728C74.4166 54.1261 74.3966 54.3928 74.3966 54.6728C74.3966 54.9528 74.4032 55.1661 74.4166 55.3128L74.4366 55.9728C74.4366 56.6394 74.4099 57.2794 74.3566 57.8928C74.3032 58.5328 74.2766 59.2328 74.2766 59.9928C74.4899 60.0194 74.6499 60.0328 74.7566 60.0328C74.9966 60.0328 75.3966 59.9794 75.9566 59.8728C75.9966 59.0994 76.0699 58.2328 76.1766 57.2728C76.2832 56.2861 76.4099 55.4128 76.5566 54.6528C76.6099 54.3728 76.7699 54.0128 77.0366 53.5728C77.1032 53.4394 77.2099 53.3394 77.3566 53.2728C77.5032 53.2061 77.6632 53.1728 77.8366 53.1728C78.0766 53.1728 78.3966 53.2728 78.7966 53.4728C79.2099 53.6728 79.5366 53.8994 79.7766 54.1528C80.1899 54.6061 80.5166 55.1794 80.7566 55.8728C81.0099 56.5661 81.1366 57.3328 81.1366 58.1728C81.1366 58.5861 81.1099 58.9728 81.0566 59.3328C81.0032 59.7194 80.9766 60.3061 80.9766 61.0928C80.9766 61.8128 80.9566 62.3528 80.9166 62.7128C80.7966 63.8728 80.5099 64.8594 80.0566 65.6728C79.8832 66.0061 79.6232 66.2661 79.2766 66.4528C78.9299 66.6394 78.5899 66.7328 78.2566 66.7328ZM78.2566 65.9328C78.5099 65.9328 78.7166 65.8128 78.8766 65.5728C79.2366 64.8394 79.4832 64.1928 79.6166 63.6328C79.7632 63.0728 79.8432 62.3328 79.8566 61.4128C79.9099 60.2128 79.9366 59.2128 79.9366 58.4128L79.9166 57.5528C79.8899 56.7528 79.7632 55.9928 79.5366 55.2728C79.4699 55.0461 79.3432 54.8194 79.1566 54.5928C78.9832 54.3528 78.7899 54.1594 78.5766 54.0128C78.3766 53.8794 78.2099 53.8128 78.0766 53.8128C77.9699 53.8128 77.8899 53.8594 77.8366 53.9528C77.7832 54.0461 77.7299 54.1928 77.6766 54.3928C77.6366 54.5928 77.5966 54.7528 77.5566 54.8728C77.5032 55.0594 77.4499 55.3394 77.3966 55.7128C77.3832 55.8728 77.3499 56.0794 77.2966 56.3328C77.0832 57.5594 76.9766 58.9328 76.9766 60.4528V61.0928L76.9966 61.6728C77.0099 61.8461 77.0232 62.1928 77.0366 62.7128C77.0632 63.2194 77.1032 63.6728 77.1566 64.0728C77.1966 64.4328 77.3632 64.9328 77.6566 65.5728C77.8032 65.8128 78.0032 65.9328 78.2566 65.9328ZM91.3938 69.8128C91.2204 69.8128 91.0871 69.7528 90.9938 69.6328C90.9004 69.5261 90.8604 69.3728 90.8738 69.1728L90.9338 68.2128C91.0004 67.4128 91.0338 66.7728 91.0338 66.2928C90.6871 66.3328 90.4404 66.3661 90.2938 66.3928C89.0138 66.6061 87.8471 66.7128 86.7938 66.7128C85.5938 66.7128 84.6138 66.5794 83.8538 66.3128C83.7471 66.2728 83.6538 66.1794 83.5738 66.0328C83.5071 65.8728 83.4738 65.6928 83.4738 65.4928L83.4538 62.1928L83.4738 61.2328C83.4871 61.0328 83.4938 60.7194 83.4938 60.2928C83.4938 60.0128 83.4871 59.8061 83.4738 59.6728L83.4137 58.5928C83.3338 57.0461 83.2938 55.7861 83.2938 54.8128L83.2738 54.1328C83.2738 53.4928 83.4404 53.1728 83.7738 53.1728C84.2538 53.1728 84.4938 53.4661 84.4938 54.0528L84.5138 58.2928L84.4938 62.0528C84.4938 62.2394 84.5071 62.4928 84.5338 62.8128C84.5604 63.1194 84.5804 63.3461 84.5938 63.4928C84.6604 64.0528 84.6938 64.5061 84.6938 64.8528C84.6938 65.0128 84.6871 65.1261 84.6738 65.1928V65.2928C84.6738 65.4661 84.7604 65.5594 84.9338 65.5728C85.2138 65.6128 85.6938 65.6594 86.3738 65.7128C86.2671 65.2061 86.2138 64.5728 86.2138 63.8128L86.2338 62.3928L86.2538 61.2328C86.2538 60.6994 86.2404 59.9128 86.2138 58.8728C86.1738 58.0328 86.1538 57.1328 86.1538 56.1728C86.1538 55.5861 86.1804 54.7061 86.2338 53.5328C86.2604 53.2128 86.3871 53.0528 86.6138 53.0528L86.8538 53.0928C87.0804 53.1594 87.2404 53.2394 87.3338 53.3328C87.4271 53.4128 87.4738 53.5394 87.4738 53.7128C87.4738 53.7794 87.4604 53.8928 87.4338 54.0528C87.3404 54.7061 87.2938 55.5461 87.2938 56.5728V57.2128L87.3138 59.9528L87.3338 64.2728C87.3338 64.5661 87.3671 64.8994 87.4338 65.2728L87.4938 65.6928C87.9738 65.6928 88.3204 65.6661 88.5338 65.6128C88.7604 65.5594 88.9271 65.5261 89.0338 65.5128L89.0938 63.5928C89.1604 61.8994 89.1938 60.3994 89.1938 59.0928C89.1938 58.1328 89.1738 56.9861 89.1338 55.6528C89.1338 55.3461 89.1271 55.1194 89.1138 54.9728L89.0938 54.2528C89.0938 54.0261 89.1004 53.8528 89.1138 53.7328C89.1271 53.5328 89.1804 53.3794 89.2738 53.2728C89.3671 53.1528 89.4871 53.0928 89.6338 53.0928C89.7404 53.0928 89.8604 53.1261 89.9938 53.1928C90.2471 53.2861 90.3604 53.4794 90.3338 53.7728C90.2804 55.5194 90.2538 57.3728 90.2538 59.3328C90.2538 61.7594 90.2604 63.5794 90.2738 64.7928C90.2738 64.8861 90.3004 65.0661 90.3538 65.3328L90.8338 65.2728C91.2071 65.2061 91.5138 65.1728 91.7538 65.1728C91.9938 65.1728 92.1271 65.2128 92.1538 65.2928C92.2204 65.3994 92.2538 65.5661 92.2538 65.7928C92.2538 66.0461 92.2338 66.3528 92.1937 66.7128L92.1138 67.7528C92.0871 68.0594 92.0738 68.5194 92.0738 69.1328C92.0738 69.3194 92.0071 69.4794 91.8738 69.6128C91.7404 69.7594 91.5804 69.8261 91.3938 69.8128ZM94.11 66.5528C93.9367 66.4994 93.8433 66.3861 93.83 66.2128V65.9128C93.8033 65.3528 93.7767 64.5128 93.75 63.3928C93.6967 62.4194 93.6633 61.6728 93.65 61.1528C93.61 60.3394 93.5633 59.1194 93.51 57.4928C93.4967 57.2128 93.4833 56.8261 93.47 56.3328C93.4567 55.8394 93.45 55.4661 93.45 55.2128C93.4367 55.0661 93.43 54.8594 93.43 54.5928C93.43 54.2861 93.4433 54.0594 93.47 53.9128C93.5233 53.4994 93.75 53.3061 94.15 53.3328C94.5233 53.3328 94.7233 53.5461 94.75 53.9728V54.2128L94.73 59.2528V61.6328V62.8328C94.73 63.0194 94.7433 63.2394 94.77 63.4928C94.7967 63.7328 94.8167 63.9061 94.83 64.0128C94.8967 63.6261 95.0033 63.2328 95.15 62.8328C95.31 62.4194 95.41 62.1661 95.45 62.0728C95.65 61.5928 95.7967 61.1994 95.89 60.8928C96.21 59.8661 96.6233 58.6061 97.13 57.1128C97.2367 56.8061 97.3567 56.4328 97.49 55.9928C97.85 54.8594 98.0967 54.1261 98.23 53.7928C98.35 53.4728 98.53 53.2728 98.77 53.1928C98.89 53.1528 99.01 53.1328 99.13 53.1328C99.3167 53.1328 99.51 53.1928 99.71 53.3128V54.2728C99.71 55.2728 99.73 56.3061 99.77 57.3728C99.7833 57.5994 99.79 57.9394 99.79 58.3928V58.9728C99.79 59.0928 99.7833 59.2528 99.77 59.4528C99.77 59.6528 99.7767 59.8861 99.79 60.1528L99.85 65.5528C99.85 65.7528 99.8033 65.9728 99.71 66.2128C99.67 66.3194 99.6033 66.4061 99.51 66.4728C99.4167 66.5261 99.3167 66.5528 99.21 66.5528C98.8367 66.5528 98.65 66.3794 98.65 66.0328C98.65 65.6328 98.67 65.2461 98.71 64.8728C98.7367 64.3661 98.75 63.9794 98.75 63.7128C98.7233 61.0728 98.69 59.0994 98.65 57.7928C98.65 57.5928 98.6233 57.2661 98.57 56.8128L98.51 56.0928C98.39 56.2261 98.3233 56.3128 98.31 56.3528L97.99 57.3328C97.7767 58.0261 97.61 58.5394 97.49 58.8728L95.75 63.7128L94.85 66.1728C94.7433 66.4528 94.5833 66.5928 94.37 66.5928C94.33 66.5928 94.2433 66.5794 94.11 66.5528ZM102.899 66.5528C102.726 66.4994 102.632 66.3861 102.619 66.2128V65.9128C102.592 65.3528 102.566 64.5128 102.539 63.3928C102.486 62.4194 102.452 61.6728 102.439 61.1528C102.399 60.3394 102.352 59.1194 102.299 57.4928C102.286 57.2128 102.272 56.8261 102.259 56.3328C102.246 55.8394 102.239 55.4661 102.239 55.2128C102.226 55.0661 102.219 54.8594 102.219 54.5928C102.219 54.2861 102.232 54.0594 102.259 53.9128C102.312 53.4994 102.539 53.3061 102.939 53.3328C103.312 53.3328 103.512 53.5461 103.539 53.9728V54.2128L103.519 59.2528V61.6328V62.8328C103.519 63.0194 103.532 63.2394 103.559 63.4928C103.586 63.7328 103.606 63.9061 103.619 64.0128C103.686 63.6261 103.792 63.2328 103.939 62.8328C104.099 62.4194 104.199 62.1661 104.239 62.0728C104.439 61.5928 104.586 61.1994 104.679 60.8928C104.999 59.8661 105.412 58.6061 105.919 57.1128C106.026 56.8061 106.146 56.4328 106.279 55.9928C106.639 54.8594 106.886 54.1261 107.019 53.7928C107.139 53.4728 107.319 53.2728 107.559 53.1928C107.679 53.1528 107.799 53.1328 107.919 53.1328C108.106 53.1328 108.299 53.1928 108.499 53.3128V54.2728C108.499 55.2728 108.519 56.3061 108.559 57.3728C108.572 57.5994 108.579 57.9394 108.579 58.3928V58.9728C108.579 59.0928 108.572 59.2528 108.559 59.4528C108.559 59.6528 108.566 59.8861 108.579 60.1528L108.639 65.5528C108.639 65.7528 108.592 65.9728 108.499 66.2128C108.459 66.3194 108.392 66.4061 108.299 66.4728C108.206 66.5261 108.106 66.5528 107.999 66.5528C107.626 66.5528 107.439 66.3794 107.439 66.0328C107.439 65.6328 107.459 65.2461 107.499 64.8728C107.526 64.3661 107.539 63.9794 107.539 63.7128C107.512 61.0728 107.479 59.0994 107.439 57.7928C107.439 57.5928 107.412 57.2661 107.359 56.8128L107.299 56.0928C107.179 56.2261 107.112 56.3128 107.099 56.3528L106.779 57.3328C106.566 58.0261 106.399 58.5394 106.279 58.8728L104.539 63.7128L103.639 66.1728C103.532 66.4528 103.372 66.5928 103.159 66.5928C103.119 66.5928 103.032 66.5794 102.899 66.5528ZM104.919 52.1328C104.599 52.1328 104.292 52.0061 103.999 51.7528C103.719 51.4994 103.579 51.2194 103.579 50.9128C103.579 50.7794 103.619 50.6728 103.699 50.5928C103.779 50.5128 103.892 50.4661 104.039 50.4528C104.212 50.4394 104.359 50.4528 104.479 50.4928C104.612 50.5194 104.732 50.5994 104.839 50.7328C104.959 50.8794 105.086 50.9528 105.219 50.9528C105.366 50.9528 105.506 50.8528 105.639 50.6528C105.692 50.5594 105.739 50.4794 105.779 50.4128C105.819 50.3328 105.852 50.2661 105.879 50.2128C106.026 49.9594 106.199 49.8328 106.399 49.8328C106.426 49.8328 106.479 49.8461 106.559 49.8728C106.666 49.9261 106.752 50.0061 106.819 50.1128C106.886 50.2061 106.919 50.3128 106.919 50.4328C106.919 50.5128 106.899 50.5928 106.859 50.6728C106.846 50.7128 106.832 50.7528 106.819 50.7928C106.806 50.8194 106.792 50.8461 106.779 50.8728C106.632 51.3394 106.399 51.6661 106.079 51.8528C105.772 52.0394 105.386 52.1328 104.919 52.1328ZM122.76 67.6328C122.347 67.6328 122.14 67.2194 122.14 66.3928V65.1128V63.8328C122.14 63.1661 122.094 62.2928 122 61.2128C121.894 59.9994 121.84 59.1661 121.84 58.7128L121.88 57.4728C121.907 57.1128 121.92 56.7061 121.92 56.2528C121.867 56.4261 121.647 57.3461 121.26 59.0128C120.874 60.6261 120.474 62.1194 120.06 63.4928C119.66 64.8128 119.334 65.4728 119.08 65.4728C118.827 65.4728 118.62 65.3994 118.46 65.2528C118.314 65.0928 118.24 64.8794 118.24 64.6128C118.24 64.0261 118 62.7794 117.52 60.8728C117.054 58.9661 116.627 57.4061 116.24 56.1928L116.12 58.4528C116.014 60.3594 115.94 61.9461 115.9 63.2128C115.874 64.4394 115.86 65.2794 115.86 65.7328C115.86 65.8394 115.867 65.9394 115.88 66.0328V66.3128C115.88 66.5394 115.834 66.7061 115.74 66.8128C115.647 66.9328 115.474 66.9928 115.22 66.9928C115.087 66.9928 114.96 66.9394 114.84 66.8328C114.72 66.7394 114.66 66.6328 114.66 66.5128C114.66 65.1528 114.76 63.1128 114.96 60.3928C115.16 57.6728 115.26 55.6328 115.26 54.2728C115.18 54.1528 115.14 54.0261 115.14 53.8928C115.14 53.7328 115.214 53.6128 115.36 53.5328C115.52 53.4394 115.707 53.3928 115.92 53.3928C116.094 53.3928 116.414 54.0194 116.88 55.2728C117.347 56.5261 117.814 57.9461 118.28 59.5328C118.747 61.1194 119.047 62.2661 119.18 62.9728C119.287 62.6128 119.374 62.2794 119.44 61.9728L119.56 61.4928C119.987 59.6261 120.414 57.9394 120.84 56.4328C121.094 55.5128 121.34 54.7928 121.58 54.2728C121.82 53.7128 122.04 53.4328 122.24 53.4328C122.427 53.4328 122.594 53.4861 122.74 53.5928C122.9 53.6861 122.98 53.8128 122.98 53.9728C122.98 54.9328 123.02 56.3728 123.1 58.2928C123.194 60.0794 123.24 61.4661 123.24 62.4528L123.22 63.5128L123.18 64.5728C123.18 64.7328 123.2 64.9728 123.24 65.2928L123.3 65.9928C123.314 66.1128 123.32 66.2061 123.32 66.2728C123.334 66.3394 123.34 66.3794 123.34 66.3928C123.407 66.5661 123.44 66.6928 123.44 66.7728C123.44 66.9994 123.374 67.1994 123.24 67.3728C123.107 67.5461 122.947 67.6328 122.76 67.6328ZM129.851 66.7728C129.545 66.7728 129.318 66.7261 129.171 66.6328C129.025 66.5394 128.951 66.3661 128.951 66.1128C128.951 65.7128 128.885 65.0328 128.751 64.0728L128.671 63.6528L126.691 63.3528C126.611 63.6594 126.498 64.2794 126.351 65.2128C126.271 65.8661 126.145 66.2994 125.971 66.5128C125.878 66.6328 125.745 66.6928 125.571 66.6928C125.411 66.6928 125.265 66.6461 125.131 66.5528C124.998 66.4461 124.931 66.3194 124.931 66.1728L124.971 66.0728L124.991 65.9928C125.871 62.5661 126.538 59.1861 126.991 55.8528C126.991 55.7994 126.998 55.7128 127.011 55.5928C127.025 55.4594 127.038 55.2728 127.051 55.0328C127.091 54.5394 127.131 54.1461 127.171 53.8528C127.225 53.5594 127.305 53.3394 127.411 53.1928H128.091C128.278 53.1928 128.438 53.2394 128.571 53.3328C128.705 53.4128 128.771 53.5328 128.771 53.6928C128.771 54.7061 128.911 56.2128 129.191 58.2128C129.458 60.2661 129.591 61.7061 129.591 62.5328C129.591 62.6128 129.625 62.8194 129.691 63.1528C129.758 63.4594 129.791 63.6594 129.791 63.7528C129.791 63.8461 129.858 64.2461 129.991 64.9528C130.111 65.5928 130.171 66.0061 130.171 66.1928V66.2128C130.171 66.5061 130.065 66.6928 129.851 66.7728ZM128.531 62.9328C128.491 62.7328 128.471 62.4861 128.471 62.1928C128.471 60.9928 128.365 59.4594 128.151 57.5928L127.951 55.5128C127.378 58.6461 126.985 61.0128 126.771 62.6128C126.971 62.7461 127.558 62.8528 128.531 62.9328ZM132.328 66.7328C132.155 66.0261 132.068 65.0461 132.068 63.7928L132.108 62.0128C132.135 61.4794 132.148 60.8861 132.148 60.2328C132.068 60.0461 132.028 59.8794 132.028 59.7328V59.6728C132.161 59.4194 132.228 58.8461 132.228 57.9528L132.248 57.0328C132.261 56.7394 132.268 56.4128 132.268 56.0528C132.268 55.2661 132.215 54.6461 132.108 54.1928C132.148 54.0061 132.215 53.8461 132.308 53.7128C132.401 53.5661 132.515 53.4928 132.648 53.4928H133.528C133.901 53.4928 134.228 53.5794 134.508 53.7528C134.788 53.9128 135.001 54.1461 135.148 54.4528C135.415 54.9994 135.548 55.6461 135.548 56.3928C135.548 56.9261 135.541 57.3461 135.528 57.6528C135.501 58.0394 135.435 58.3928 135.328 58.7128C135.288 58.8861 135.228 59.0328 135.148 59.1528C135.081 59.2594 134.981 59.3928 134.848 59.5528C134.661 59.7794 134.355 59.9928 133.928 60.1928C133.755 60.2861 133.528 60.3728 133.248 60.4528V62.5928L133.288 63.8728L133.328 64.4928C133.381 65.2394 133.408 65.8728 133.408 66.3928C133.408 66.5528 133.341 66.6861 133.208 66.7928C133.075 66.9128 132.921 66.9728 132.748 66.9728L132.328 66.7328ZM133.268 59.6328C134.055 59.5128 134.448 58.3861 134.448 56.2528C134.448 55.8661 134.428 55.5661 134.388 55.3528C134.348 55.1928 134.295 55.0661 134.228 54.9728C134.161 54.8661 134.061 54.7794 133.928 54.7128C133.781 54.6328 133.621 54.5928 133.448 54.5928C133.448 54.5794 133.375 54.5728 133.228 54.5728V55.7128C133.228 56.4994 133.235 57.1994 133.248 57.8128C133.248 58.5061 133.255 58.9594 133.268 59.1728V59.5928V59.6328ZM139.533 66.7528C139.173 66.7528 138.773 66.7061 138.333 66.6128C138.173 66.5728 138.066 66.4928 138.013 66.3728C137.973 66.2528 137.953 66.1061 137.953 65.9328C137.913 65.1061 137.88 63.8594 137.853 62.1928V60.9328C137.853 60.0928 137.84 59.4594 137.813 59.0328C137.8 58.8728 137.72 57.6861 137.573 55.4728L137.473 53.8528C137.473 53.6928 137.5 53.5861 137.553 53.5328C137.606 53.4661 137.7 53.4328 137.833 53.4328C138.3 53.4328 138.56 53.6261 138.613 54.0128C138.72 54.6928 138.793 55.3194 138.833 55.8928C138.886 56.9328 138.913 57.7194 138.913 58.2528L138.893 59.8728C138.866 60.6194 138.853 61.1661 138.853 61.5128C138.853 62.4728 138.9 63.6328 138.993 64.9928L139.033 65.7728C139.033 65.8128 139.046 65.8661 139.073 65.9328C139.113 65.9328 139.353 65.9394 139.793 65.9528C140.233 65.9528 140.453 65.9128 140.453 65.8328C140.466 65.6461 140.466 65.4794 140.453 65.3328C140.453 65.1861 140.453 65.0594 140.453 64.9528C140.44 64.8194 140.433 64.6261 140.433 64.3728C140.433 63.0394 140.426 62.0394 140.413 61.3728L140.353 59.1128C140.3 57.4328 140.273 56.1861 140.273 55.3728C140.273 54.7994 140.293 54.2461 140.333 53.7128C140.346 53.5394 140.386 53.4261 140.453 53.3728C140.533 53.3061 140.666 53.2861 140.853 53.3128C141.12 53.3528 141.286 53.4194 141.353 53.5128C141.433 53.6061 141.466 53.7794 141.453 54.0328C141.373 54.8194 141.333 55.7994 141.333 56.9728L141.353 58.7528C141.366 59.1394 141.373 59.7194 141.373 60.4928C141.346 61.7994 141.333 62.7661 141.333 63.3928C141.36 64.0061 141.386 64.4794 141.413 64.8128L141.473 65.8128H143.273V65.0528L143.293 61.8528C143.293 61.1461 143.286 60.6128 143.273 60.2528C143.26 59.6794 143.24 59.0128 143.213 58.2528C143.186 57.4794 143.166 56.8928 143.153 56.4928L143.093 54.5728C143.093 54.1328 143.1 53.7994 143.113 53.5728C143.126 53.4394 143.16 53.3528 143.213 53.3128C143.266 53.2594 143.373 53.2328 143.533 53.2328C143.786 53.2461 143.966 53.3128 144.073 53.4328C144.18 53.5528 144.226 53.7394 144.213 53.9928L144.233 56.5728L144.253 57.0728C144.28 57.5261 144.293 57.8594 144.293 58.0728C144.293 58.3661 144.286 58.6194 144.273 58.8328C144.26 59.0461 144.246 59.2194 144.233 59.3528C144.18 59.9394 144.153 60.3794 144.153 60.6728L144.173 61.1928C144.2 61.4328 144.213 61.6128 144.213 61.7328C144.226 61.9461 144.226 62.1394 144.213 62.3128C144.213 62.4728 144.213 62.6061 144.213 62.7128V63.6928C144.213 63.9728 144.22 64.2194 144.233 64.4328C144.246 64.6461 144.26 64.8261 144.273 64.9728L144.313 65.4128C144.313 65.4661 144.326 65.5328 144.353 65.6128C144.393 65.6928 144.42 65.7528 144.433 65.7928C144.486 65.9261 144.513 66.0261 144.513 66.0928C144.513 66.3061 144.386 66.4461 144.133 66.5128C143.866 66.5794 143.533 66.6128 143.133 66.6128L140.673 66.6528C140.486 66.6528 140.3 66.6728 140.113 66.7128C139.846 66.7394 139.653 66.7528 139.533 66.7528ZM147.348 66.7328C147.174 66.0261 147.088 65.0461 147.088 63.7928L147.128 62.0128C147.154 61.4794 147.168 60.8861 147.168 60.2328C147.088 60.0461 147.048 59.8794 147.048 59.7328V59.6728C147.181 59.4194 147.248 58.8461 147.248 57.9528L147.268 57.0328C147.281 56.7394 147.288 56.4128 147.288 56.0528C147.288 55.2661 147.234 54.6461 147.128 54.1928C147.168 54.0061 147.234 53.8461 147.328 53.7128C147.421 53.5661 147.534 53.4928 147.668 53.4928H148.548C148.921 53.4928 149.248 53.5794 149.528 53.7528C149.808 53.9128 150.021 54.1461 150.168 54.4528C150.434 54.9994 150.568 55.6461 150.568 56.3928C150.568 56.9261 150.561 57.3461 150.548 57.6528C150.521 58.0394 150.454 58.3928 150.348 58.7128C150.308 58.8861 150.248 59.0328 150.168 59.1528C150.101 59.2594 150.001 59.3928 149.868 59.5528C149.681 59.7794 149.374 59.9928 148.948 60.1928C148.774 60.2861 148.548 60.3728 148.268 60.4528V62.5928L148.308 63.8728L148.348 64.4928C148.401 65.2394 148.428 65.8728 148.428 66.3928C148.428 66.5528 148.361 66.6861 148.228 66.7928C148.094 66.9128 147.941 66.9728 147.768 66.9728L147.348 66.7328ZM148.288 59.6328C149.074 59.5128 149.468 58.3861 149.468 56.2528C149.468 55.8661 149.448 55.5661 149.408 55.3528C149.368 55.1928 149.314 55.0661 149.248 54.9728C149.181 54.8661 149.081 54.7794 148.948 54.7128C148.801 54.6328 148.641 54.5928 148.468 54.5928C148.468 54.5794 148.394 54.5728 148.248 54.5728V55.7128C148.248 56.4994 148.254 57.1994 148.268 57.8128C148.268 58.5061 148.274 58.9594 148.288 59.1728V59.5928V59.6328ZM153.453 66.7928C153.333 66.7928 153.219 66.7328 153.113 66.6128C153.019 66.4928 152.999 66.3728 153.053 66.2528C153.093 66.1328 153.186 65.9328 153.333 65.6528C153.746 64.9728 154.019 64.0528 154.153 62.8928C154.166 62.8128 154.113 62.7128 153.993 62.5928C153.886 62.4594 153.819 62.3594 153.793 62.2928L153.513 61.8928C153.233 61.5061 152.999 61.1528 152.813 60.8328C152.639 60.4994 152.473 60.0594 152.313 59.5128C152.246 59.2861 152.199 59.0461 152.173 58.7928C152.146 58.5261 152.133 58.3594 152.133 58.2928L152.093 57.8328C152.079 57.6061 152.059 57.4061 152.033 57.2328C152.006 57.0461 151.986 56.8928 151.972 56.7728C151.853 55.9994 151.793 55.3661 151.793 54.8728C151.793 54.6861 151.799 54.5461 151.813 54.4528C151.826 54.2528 151.826 54.0728 151.813 53.9128C151.813 53.7528 151.813 53.6194 151.813 53.5128C151.826 53.2461 151.919 53.1128 152.093 53.1128C152.133 53.1128 152.206 53.1261 152.313 53.1528C152.806 53.2994 153.053 53.5794 153.053 53.9928C153.053 54.0994 153.039 54.2994 153.013 54.5928L152.953 55.4128C152.953 55.7861 152.959 56.0661 152.973 56.2528C153.079 57.3594 153.199 58.4528 153.333 59.5328C153.373 59.8261 153.466 60.0994 153.613 60.3528C153.773 60.5928 153.933 60.7928 154.093 60.9528C154.266 61.0994 154.366 61.1728 154.393 61.1728C154.473 60.9328 154.519 60.7728 154.533 60.6928C154.613 59.5061 154.659 58.6328 154.673 58.0728C154.686 57.6061 154.693 56.8328 154.693 55.7528V53.4128C154.706 53.3061 154.733 53.2328 154.773 53.1928C154.826 53.1394 154.913 53.1128 155.033 53.1128C155.299 53.1128 155.519 53.2128 155.693 53.4128C155.866 53.5994 155.933 53.8261 155.893 54.0928C155.853 54.4128 155.833 54.8394 155.833 55.3728C155.833 55.6928 155.839 55.9128 155.853 56.0328C155.866 56.1528 155.873 56.3194 155.873 56.5328C155.873 56.8661 155.846 57.3394 155.793 57.9528C155.793 58.0994 155.779 58.3328 155.753 58.6528C155.726 59.0528 155.659 59.6661 155.553 60.4928L155.473 61.1528C155.393 61.9528 155.233 62.9394 154.993 64.1128C154.913 64.4861 154.793 64.8794 154.633 65.2928C154.473 65.6928 154.293 66.0661 154.093 66.4128C154.053 66.5061 153.966 66.5928 153.833 66.6728C153.699 66.7528 153.573 66.7928 153.453 66.7928ZM159.024 66.2728L159.004 65.4928C158.99 65.2661 158.984 65.0128 158.984 64.7328L159.004 64.0528C158.964 63.9061 158.864 62.4461 158.704 59.6728C158.544 56.8994 158.45 55.1194 158.424 54.3328C157.65 54.3061 157.157 54.2261 156.944 54.0928C156.797 53.9861 156.724 53.8661 156.724 53.7328C156.724 53.6261 156.79 53.5328 156.924 53.4528C157.07 53.3594 157.217 53.3128 157.364 53.3128C157.737 53.3128 158.19 53.3394 158.724 53.3928C159.23 53.4594 159.684 53.4928 160.084 53.4928H160.244H160.404C160.817 53.4928 161.024 53.6528 161.024 53.9728C161.024 54.1328 160.957 54.2661 160.824 54.3728C160.69 54.4661 160.537 54.5128 160.364 54.5128C160.244 54.5128 160.07 54.4928 159.844 54.4528L159.444 54.3728L159.424 54.4728L159.404 54.5728C159.404 55.7594 159.517 57.6528 159.744 60.2528C159.957 62.6928 160.064 64.5861 160.064 65.9328C160.064 66.0928 159.99 66.2328 159.844 66.3528C159.71 66.4728 159.557 66.5328 159.384 66.5328L159.024 66.2728Z" fill="#9F5AA7"/>
</svg>
