<svg width="434" height="183" viewBox="0 0 434 183" fill="none" xmlns="http://www.w3.org/2000/svg">
<path d="M316.505 174.232L316.611 173.238L316.505 174.232ZM430.67 97.2462C431.213 97.1446 431.735 97.5024 431.837 98.0452L433.492 106.892C433.593 107.435 433.236 107.957 432.693 108.059C432.15 108.16 431.628 107.802 431.526 107.26L430.055 99.3959L422.191 100.867C421.648 100.969 421.126 100.611 421.025 100.068C420.923 99.525 421.281 99.0026 421.824 98.9011L430.67 97.2462ZM191.963 55.6289L192.886 55.2437C193.283 56.1964 193.677 57.1508 194.067 58.1065L193.142 58.4845L192.216 58.8626C191.827 57.9113 191.436 56.9617 191.04 56.0141L191.963 55.6289ZM195.442 64.2197L196.373 63.8523C197.13 65.7709 197.88 67.6923 198.624 69.6134L197.692 69.9749L196.76 70.3364C196.016 68.4175 195.268 66.5003 194.512 64.5871L195.442 64.2197ZM199.92 75.7388L200.853 75.3783C201.596 77.3011 202.339 79.2208 203.088 81.1356L202.157 81.4997L201.225 81.8639C200.475 79.9453 199.731 78.0226 198.987 76.0992L199.92 75.7388ZM204.432 87.2456L205.359 86.8727C206.127 88.7831 206.905 90.6853 207.697 92.5769L206.775 92.9633L205.852 93.3497C205.055 91.4475 204.274 89.5361 203.504 87.6184L204.432 87.2456ZM209.216 98.6389L210.131 98.234C210.963 100.113 211.815 101.979 212.691 103.829L211.788 104.257L210.884 104.685C209.999 102.818 209.14 100.937 208.302 99.0437L209.216 98.6389ZM214.519 109.8L215.409 109.344C216.345 111.168 217.31 112.973 218.311 114.757L217.438 115.246L216.566 115.735C215.553 113.929 214.576 112.101 213.629 110.257L214.519 109.8ZM220.573 120.57L221.423 120.044C222.498 121.781 223.612 123.494 224.771 125.18L223.947 125.746L223.123 126.313C221.945 124.599 220.813 122.859 219.722 121.096L220.573 120.57ZM227.579 130.745L228.372 130.136C229.61 131.747 230.896 133.329 232.236 134.879L231.479 135.533L230.722 136.186C229.357 134.606 228.047 132.995 226.786 131.355L227.579 130.745ZM235.654 140.082L236.37 139.384C237.781 140.83 239.248 142.245 240.773 143.625L240.102 144.366L239.431 145.108C237.874 143.7 236.378 142.256 234.939 140.78L235.654 140.082ZM244.812 148.364L245.435 147.581C247.01 148.835 248.643 150.054 250.339 151.238L249.766 152.058L249.194 152.878C247.464 151.67 245.797 150.425 244.19 149.146L244.812 148.364ZM254.94 155.439L255.462 154.586C257.174 155.632 258.945 156.645 260.777 157.622L260.307 158.505L259.836 159.387C257.969 158.391 256.164 157.359 254.419 156.292L254.94 155.439ZM265.837 161.259L266.258 160.352C268.073 161.195 269.945 162.007 271.876 162.785L271.502 163.713L271.128 164.64C269.166 163.849 267.263 163.024 265.415 162.166L265.837 161.259ZM277.28 165.881L277.609 164.936C279.498 165.595 281.44 166.224 283.436 166.822L283.149 167.78L282.862 168.738C280.838 168.131 278.868 167.493 276.951 166.825L277.28 165.881ZM289.095 169.43L289.343 168.461C291.287 168.959 293.279 169.429 295.321 169.872L295.109 170.849L294.898 171.826C292.832 171.379 290.815 170.902 288.847 170.398L289.095 169.43ZM301.188 172.056L301.366 171.072C303.347 171.431 305.371 171.765 307.441 172.073L307.294 173.062L307.146 174.051C305.056 173.74 303.011 173.402 301.01 173.04L301.188 172.056ZM313.384 173.88L313.504 172.887C314.529 173.01 315.565 173.127 316.611 173.238L316.505 174.232L316.4 175.227C315.344 175.115 314.3 174.997 313.265 174.873L313.384 173.88ZM316.505 174.232L316.611 173.238C317.603 173.343 318.591 173.428 319.575 173.492L319.51 174.49L319.444 175.488C318.434 175.422 317.419 175.335 316.4 175.227L316.505 174.232ZM325.506 174.64L325.491 173.64C327.48 173.61 329.449 173.499 331.4 173.312L331.495 174.308L331.59 175.303C329.588 175.495 327.564 175.609 325.522 175.64L325.506 174.64ZM337.443 173.504L337.271 172.518C339.224 172.177 341.158 171.762 343.069 171.279L343.314 172.248L343.559 173.218C341.601 173.713 339.619 174.138 337.615 174.489L337.443 173.504ZM349.078 170.571L348.766 169.622C350.646 169.003 352.505 168.32 354.34 167.579L354.714 168.507L355.089 169.434C353.214 170.19 351.315 170.888 349.391 171.521L349.078 170.571ZM360.209 166.089L359.779 165.186C361.569 164.334 363.334 163.429 365.074 162.477L365.554 163.354L366.034 164.232C364.262 165.201 362.464 166.123 360.639 166.992L360.209 166.089ZM370.744 160.336L370.22 159.484C371.911 158.442 373.576 157.359 375.215 156.239L375.779 157.065L376.343 157.89C374.68 159.027 372.988 160.128 371.269 161.187L370.744 160.336ZM380.661 153.569L380.061 152.769C381.656 151.574 383.223 150.349 384.761 149.099L385.392 149.875L386.023 150.65C384.465 151.917 382.877 153.158 381.26 154.369L380.661 153.569ZM389.981 145.999L389.323 145.247C390.829 143.928 392.305 142.589 393.749 141.236L394.432 141.965L395.116 142.695C393.657 144.063 392.164 145.417 390.64 146.752L389.981 145.999ZM398.748 137.791L398.042 137.083C399.465 135.663 400.853 134.235 402.205 132.806L402.931 133.493L403.658 134.18C402.293 135.623 400.891 137.065 399.454 138.499L398.748 137.791ZM407.005 129.069L406.26 128.401C407.613 126.891 408.926 125.387 410.195 123.896L410.957 124.545L411.718 125.193C410.438 126.696 409.114 128.213 407.749 129.736L407.005 129.069ZM414.789 119.937L414.013 119.306C415.31 117.71 416.554 116.141 417.744 114.609L418.534 115.222L419.324 115.835C418.125 117.378 416.872 118.959 415.565 120.568L414.789 119.937ZM422.162 110.45L421.36 109.853C422.613 108.169 423.791 106.552 424.889 105.018L425.702 105.601L426.515 106.183C425.41 107.726 424.226 109.353 422.964 111.048L422.162 110.45ZM429.16 100.689L428.338 100.119C428.937 99.2558 429.5 98.4358 430.029 97.6641L430.854 98.2291L431.679 98.7941C431.149 99.568 430.583 100.391 429.982 101.259L429.16 100.689Z" fill="#CFC3DE"/>
<path d="M127.646 6.59273C101.646 -0.907053 46.1463 -1.90739 24.1462 10.0927C2.1462 22.0927 0.346233 39.9926 1.14623 53.5926C2.14623 70.5926 10.1465 83.5928 24.1462 90.0928C42.2068 98.4782 132.146 92.5928 148.146 90.0928C164.146 87.5928 187.146 75.5926 190.646 56.5926C194.146 37.5926 153.647 14.0925 127.646 6.59273Z" fill="#F4F8FB" stroke="#CFC3DE" stroke-width="2" stroke-dasharray="6 6"/>
<path d="M52.7435 44.7528C52.1302 44.7528 51.8235 44.5861 51.8235 44.2528L51.8635 41.7928L51.9035 39.3328C51.9035 38.4394 51.8835 37.0861 51.8435 35.2728C51.8035 33.4728 51.7835 32.1194 51.7835 31.2128V31.0928C51.7835 30.7461 51.8168 30.4261 51.8835 30.1328C51.9635 29.7728 52.1768 29.5928 52.5235 29.5928C53.4568 29.5928 54.1968 29.8928 54.7435 30.4928C55.2902 31.0928 55.5635 31.8861 55.5635 32.8728C55.5635 33.4728 55.4035 34.0994 55.0835 34.7528C54.7635 35.4061 54.3835 35.8928 53.9435 36.2128C54.7168 36.7328 55.2835 37.4061 55.6435 38.2328C56.0168 39.0461 56.2035 39.9461 56.2035 40.9328C56.2035 41.3994 56.0435 41.9794 55.7235 42.6728C55.3368 43.4994 54.8102 44.0928 54.1435 44.4528C53.7435 44.6528 53.3035 44.7528 52.8235 44.7528H52.7435ZM52.9435 35.9128C53.2902 35.8328 53.5835 35.5461 53.8235 35.0528C54.0235 34.6794 54.2102 34.2261 54.3835 33.6928C54.4235 33.5461 54.4902 33.3594 54.5835 33.1328V32.4328C54.5835 32.0328 54.4368 31.6461 54.1435 31.2728C53.8502 30.8994 53.5168 30.7128 53.1435 30.7128C52.9568 30.7128 52.8635 30.9194 52.8635 31.3328C52.8635 32.2128 52.8768 32.9994 52.9035 33.6928L52.9435 35.9128ZM53.0235 43.7128C53.6768 43.6194 54.1968 43.3194 54.5835 42.8128C54.9702 42.3061 55.1635 41.6994 55.1635 40.9928C55.1635 40.3794 55.1102 39.8194 55.0035 39.3128C54.9102 38.7928 54.7835 38.3994 54.6235 38.1328C54.4768 37.8794 54.3302 37.6661 54.1835 37.4928C54.0368 37.3194 53.9102 37.2061 53.8035 37.1528L53.6435 37.0928H52.9235C52.9902 38.6261 53.0235 40.8328 53.0235 43.7128ZM63.4726 44.7928C63.0859 44.7928 62.8926 44.6461 62.8926 44.3528C62.8926 44.2861 62.8926 44.1461 62.8926 43.9328C62.8926 43.7194 62.9059 43.5194 62.9326 43.3328C62.9859 42.8528 63.0126 42.2861 63.0126 41.6328C63.0126 41.0061 62.9859 40.1594 62.9326 39.0928C62.9059 38.4928 62.8792 37.5661 62.8526 36.3128L62.7926 33.8728L62.7726 33.0328L62.7526 31.5328C62.7526 31.3194 62.8726 31.1994 63.1126 31.1728C63.3526 31.1594 63.5526 31.2261 63.7126 31.3728C63.8726 31.5194 63.9526 31.7061 63.9526 31.9328C63.9526 32.2661 63.9392 32.7928 63.9126 33.5128L63.8526 38.6528C63.8392 38.8261 63.8326 39.0594 63.8326 39.3528C63.8459 39.6461 63.8526 39.9328 63.8526 40.2128V41.4128V42.1328C63.8259 42.9728 63.8592 43.6728 63.9526 44.2328C63.9792 44.4194 63.9459 44.5594 63.8526 44.6528C63.7726 44.7461 63.6459 44.7928 63.4726 44.7928ZM58.7726 44.7928C58.5859 44.7928 58.4192 44.7661 58.2726 44.7128C58.1259 44.6594 58.0592 44.5261 58.0726 44.3128C58.0992 44.0061 58.1192 43.6261 58.1326 43.1728C58.1459 42.7194 58.1526 42.4061 58.1526 42.2328C58.1526 41.4728 58.1726 40.6728 58.2126 39.8328C58.2392 39.5128 58.2526 39.0061 58.2526 38.3128C58.2526 37.9261 58.2459 37.4661 58.2326 36.9328C58.2192 36.3994 58.2059 35.9994 58.1926 35.7328C58.1792 35.5061 58.1659 35.2394 58.1526 34.9328C58.1392 34.6261 58.1326 34.2861 58.1326 33.9128C58.1059 33.4594 58.0926 33.1061 58.0926 32.8528L58.0726 32.3328C58.0726 32.2661 58.0726 32.1328 58.0726 31.9328C58.0726 31.7194 58.1059 31.5528 58.1726 31.4328C58.2526 31.3128 58.3859 31.2528 58.5726 31.2528C58.7459 31.2528 58.8926 31.3261 59.0126 31.4728C59.1326 31.6061 59.1926 31.7661 59.1926 31.9528C59.1926 32.0994 59.2059 32.3461 59.2326 32.6928C59.2592 33.3061 59.2726 33.7928 59.2726 34.1528C59.2726 34.5928 59.2392 35.0261 59.1726 35.4528C59.1459 35.5328 59.1326 35.6661 59.1326 35.8528C59.1326 36.0128 59.1459 36.2394 59.1726 36.5328C59.2792 36.5728 59.5059 36.6594 59.8526 36.7928C60.1992 36.9128 60.4992 37.0594 60.7526 37.2328C61.0059 37.3928 61.2059 37.5794 61.3526 37.7928C61.8059 38.5261 62.0326 39.1594 62.0326 39.6928C62.0326 40.5194 61.9726 41.4394 61.8526 42.4528C61.7859 43.0528 61.5926 43.4994 61.2726 43.7928C60.9526 44.0861 60.4859 44.3394 59.8726 44.5528C59.7126 44.6061 59.5192 44.6528 59.2926 44.6928C59.0659 44.7328 58.8926 44.7661 58.7726 44.7928ZM59.1726 43.7128C59.3326 43.7394 59.4526 43.7528 59.5326 43.7528C59.7992 43.7528 60.0192 43.6594 60.1926 43.4728C60.6592 43.0194 60.8926 42.4794 60.8926 41.8528C60.9192 41.2394 60.9326 40.6861 60.9326 40.1928C60.9326 39.3128 60.8659 38.7461 60.7326 38.4928C60.6392 38.1994 60.4526 37.9528 60.1726 37.7528C59.8926 37.5528 59.5726 37.4128 59.2126 37.3328C59.1192 38.2794 59.0726 39.3394 59.0726 40.5128C59.0726 41.5128 59.1059 42.5794 59.1726 43.7128ZM67.1348 44.5928C66.7081 44.6194 66.5081 44.4061 66.5348 43.9528L66.5548 42.5728C66.5681 42.2794 66.5748 41.8261 66.5748 41.2128V39.7328C66.5748 39.0794 66.5681 38.5861 66.5548 38.2528C66.5414 37.8261 66.5348 37.1928 66.5348 36.3528V34.4728V33.9728C66.5348 33.6128 66.5214 33.3128 66.4948 33.0728C66.4814 32.8328 66.4348 32.5794 66.3548 32.3128C66.3281 32.2061 66.3148 32.1261 66.3148 32.0728C66.3148 31.8461 66.3948 31.6461 66.5548 31.4728C66.7281 31.2994 66.9414 31.2061 67.1948 31.1928C67.5548 31.1794 67.9014 31.1594 68.2348 31.1328C68.5814 31.1061 68.9148 31.0594 69.2348 30.9928C69.3548 30.9394 69.4881 30.9728 69.6348 31.0928C69.7814 31.1994 69.8681 31.3194 69.8948 31.4528C69.9214 31.5594 69.8948 31.6661 69.8148 31.7728C69.7348 31.8661 69.6281 31.9328 69.4948 31.9728C69.2148 32.0528 68.6081 32.1461 67.6748 32.2528L67.4948 37.1928C68.1081 37.2594 68.5814 37.4328 68.9148 37.7128C69.2481 37.9928 69.4748 38.4794 69.5948 39.1728C69.7414 39.7194 69.8148 40.3061 69.8148 40.9328C69.8148 41.3328 69.7748 41.7461 69.6948 42.1728C69.5081 43.0394 69.0614 43.6794 68.3548 44.0928C68.2748 44.1461 68.1548 44.2194 67.9948 44.3128C67.8481 44.4061 67.7014 44.4794 67.5548 44.5328C67.4214 44.5728 67.2814 44.5928 67.1348 44.5928ZM67.5348 43.5128C67.8014 43.4328 68.0414 43.2728 68.2548 43.0328C68.4681 42.7928 68.6081 42.5328 68.6748 42.2528C68.7948 41.7328 68.8548 41.2261 68.8548 40.7328C68.8548 40.2128 68.7948 39.7061 68.6748 39.2128C68.5948 38.8928 68.4681 38.6461 68.2948 38.4728C68.1348 38.2861 67.8814 38.1861 67.5348 38.1728V43.5128ZM72.7045 44.8528C72.5311 44.8528 72.3711 44.7928 72.2245 44.6728C72.0911 44.5528 72.0178 44.4061 72.0045 44.2328V43.7128V43.3128C71.9911 43.1928 71.9845 43.0528 71.9845 42.8928C71.9845 42.6128 71.9645 42.1861 71.9245 41.6128L71.8845 40.3328C71.8845 39.6794 71.9045 38.7061 71.9445 37.4128C71.9978 36.2528 72.0245 35.2794 72.0245 34.4928C72.0245 34.3061 72.0045 34.0261 71.9645 33.6528C71.9245 33.2661 71.9045 32.9861 71.9045 32.8128C71.9045 31.8661 72.1845 31.3928 72.7445 31.3928C73.1845 31.3928 73.6911 31.4794 74.2645 31.6528C74.8511 31.8261 75.1445 32.0328 75.1445 32.2728C75.1445 32.4061 75.0845 32.5328 74.9645 32.6528C74.8578 32.7594 74.7245 32.8461 74.5645 32.9128C74.0045 32.7128 73.4978 32.5794 73.0445 32.5128C73.0578 32.7128 73.0645 32.9994 73.0645 33.3728C73.0645 33.9061 73.0578 34.3861 73.0445 34.8128C73.0045 35.4528 72.9845 35.9328 72.9845 36.2528L73.0445 36.5728L73.3645 36.5528C73.4711 36.5394 73.6045 36.5328 73.7645 36.5328C74.4045 36.5328 74.7245 36.7194 74.7245 37.0928C74.7245 37.2394 74.6645 37.3661 74.5445 37.4728C74.4245 37.5661 74.2711 37.6128 74.0845 37.6128C73.8445 37.6128 73.6578 37.5994 73.5245 37.5728H73.0245C73.0511 37.9194 73.0645 38.4261 73.0645 39.0928C73.0645 39.7594 73.0578 40.3594 73.0445 40.8928C73.0045 41.7061 72.9845 42.3128 72.9845 42.7128C72.9845 43.4594 72.9978 43.8328 73.0245 43.8328L73.6845 43.8128C73.9111 43.7994 74.1845 43.7928 74.5045 43.7928C75.0111 43.7928 75.2645 43.9528 75.2645 44.2728C75.2645 44.4594 75.1778 44.5994 75.0045 44.6928C74.8445 44.7994 74.6445 44.8528 74.4045 44.8528H72.7045ZM77.908 44.7328C77.7347 44.0261 77.648 43.0461 77.648 41.7928L77.688 40.0128C77.7147 39.4794 77.728 38.8861 77.728 38.2328C77.648 38.0461 77.608 37.8794 77.608 37.7328V37.6728C77.7414 37.4194 77.808 36.8461 77.808 35.9528L77.828 35.0328C77.8414 34.7394 77.848 34.4128 77.848 34.0528C77.848 33.2661 77.7947 32.6461 77.688 32.1928C77.728 32.0061 77.7947 31.8461 77.888 31.7128C77.9814 31.5661 78.0947 31.4928 78.228 31.4928H79.108C79.4814 31.4928 79.808 31.5794 80.088 31.7528C80.368 31.9128 80.5814 32.1461 80.728 32.4528C80.9947 32.9994 81.128 33.6461 81.128 34.3928C81.128 34.9261 81.1214 35.3461 81.108 35.6528C81.0814 36.0394 81.0147 36.3928 80.908 36.7128C80.868 36.8861 80.808 37.0328 80.728 37.1528C80.6614 37.2594 80.5614 37.3928 80.428 37.5528C80.2414 37.7794 79.9347 37.9928 79.508 38.1928C79.3347 38.2861 79.108 38.3728 78.828 38.4528V40.5928L78.868 41.8728L78.908 42.4928C78.9614 43.2394 78.988 43.8728 78.988 44.3928C78.988 44.5528 78.9214 44.6861 78.788 44.7928C78.6547 44.9128 78.5014 44.9728 78.328 44.9728L77.908 44.7328ZM78.848 37.6328C79.6347 37.5128 80.028 36.3861 80.028 34.2528C80.028 33.8661 80.008 33.5661 79.968 33.3528C79.928 33.1928 79.8747 33.0661 79.808 32.9728C79.7414 32.8661 79.6414 32.7794 79.508 32.7128C79.3614 32.6328 79.2014 32.5928 79.028 32.5928C79.028 32.5794 78.9547 32.5728 78.808 32.5728V33.7128C78.808 34.4994 78.8147 35.1994 78.828 35.8128C78.828 36.5061 78.8347 36.9594 78.848 37.1728V37.5928V37.6328ZM83.733 44.5528C83.5597 44.4994 83.4664 44.3861 83.453 44.2128V43.9128C83.4264 43.3528 83.3997 42.5128 83.373 41.3928C83.3197 40.4194 83.2864 39.6728 83.273 39.1528C83.233 38.3394 83.1864 37.1194 83.133 35.4928C83.1197 35.2128 83.1064 34.8261 83.093 34.3328C83.0797 33.8394 83.073 33.4661 83.073 33.2128C83.0597 33.0661 83.053 32.8594 83.053 32.5928C83.053 32.2861 83.0664 32.0594 83.093 31.9128C83.1464 31.4994 83.373 31.3061 83.773 31.3328C84.1464 31.3328 84.3464 31.5461 84.373 31.9728V32.2128L84.353 37.2528V39.6328V40.8328C84.353 41.0194 84.3664 41.2394 84.393 41.4928C84.4197 41.7328 84.4397 41.9061 84.453 42.0128C84.5197 41.6261 84.6264 41.2328 84.773 40.8328C84.933 40.4194 85.033 40.1661 85.073 40.0728C85.273 39.5928 85.4197 39.1994 85.513 38.8928C85.833 37.8661 86.2464 36.6061 86.753 35.1128C86.8597 34.8061 86.9797 34.4328 87.113 33.9928C87.473 32.8594 87.7197 32.1261 87.853 31.7928C87.973 31.4728 88.153 31.2728 88.393 31.1928C88.513 31.1528 88.633 31.1328 88.753 31.1328C88.9397 31.1328 89.133 31.1928 89.333 31.3128V32.2728C89.333 33.2728 89.353 34.3061 89.393 35.3728C89.4064 35.5994 89.413 35.9394 89.413 36.3928V36.9728C89.413 37.0928 89.4064 37.2528 89.393 37.4528C89.393 37.6528 89.3997 37.8861 89.413 38.1528L89.473 43.5528C89.473 43.7528 89.4264 43.9728 89.333 44.2128C89.293 44.3194 89.2264 44.4061 89.133 44.4728C89.0397 44.5261 88.9397 44.5528 88.833 44.5528C88.4597 44.5528 88.273 44.3794 88.273 44.0328C88.273 43.6328 88.293 43.2461 88.333 42.8728C88.3597 42.3661 88.373 41.9794 88.373 41.7128C88.3464 39.0728 88.313 37.0994 88.273 35.7928C88.273 35.5928 88.2464 35.2661 88.193 34.8128L88.133 34.0928C88.013 34.2261 87.9464 34.3128 87.933 34.3528L87.613 35.3328C87.3997 36.0261 87.233 36.5394 87.113 36.8728L85.373 41.7128L84.473 44.1728C84.3664 44.4528 84.2064 44.5928 83.993 44.5928C83.953 44.5928 83.8664 44.5794 83.733 44.5528ZM95.3945 45.0328C95.2878 45.0328 95.1945 44.9994 95.1145 44.9328C95.0345 44.8661 94.9745 44.7794 94.9345 44.6728C94.9211 44.6461 94.9145 44.6061 94.9145 44.5528C94.9145 44.3794 95.0078 44.2394 95.1945 44.1328C95.5678 43.9728 95.8478 43.7328 96.0345 43.4128C96.2345 43.0794 96.3745 42.6928 96.4545 42.2528C96.6945 40.9461 96.8145 39.5261 96.8145 37.9928C96.8145 37.4194 96.8078 36.9861 96.7945 36.6928C96.7011 34.4394 96.6211 32.8528 96.5545 31.9328V31.8528C96.5545 31.7328 96.5811 31.6394 96.6345 31.5728C96.6878 31.5061 96.7811 31.4594 96.9145 31.4328C97.7678 31.2728 98.4478 31.1928 98.9545 31.1928C99.2211 31.1928 99.4211 31.1994 99.5545 31.2128C99.8611 31.2261 100.094 31.3194 100.254 31.4928C100.414 31.6661 100.494 31.9061 100.494 32.2128L100.514 33.2728C100.541 34.2061 100.554 34.9061 100.554 35.3728L100.534 36.3328C100.534 37.7461 100.588 39.5328 100.694 41.6928C100.748 42.6661 100.794 43.4194 100.834 43.9528C100.848 44.1928 100.808 44.3661 100.714 44.4728C100.634 44.5794 100.494 44.6461 100.294 44.6728C99.8545 44.6994 99.6211 44.4928 99.5945 44.0528C99.6345 43.6661 99.6545 43.2794 99.6545 42.8928C99.6545 42.5061 99.6478 42.1861 99.6345 41.9328L99.6145 39.6528C99.6145 38.5461 99.5945 37.4128 99.5545 36.2528C99.5278 35.2928 99.4878 34.3861 99.4345 33.5328C99.3811 32.6794 99.3278 32.1594 99.2745 31.9728C99.1945 31.9861 99.0278 32.0194 98.7745 32.0728C98.5211 32.1261 98.1745 32.1728 97.7345 32.2128C97.6945 32.8261 97.6745 33.2661 97.6745 33.5328C97.6745 33.8394 97.6945 34.1061 97.7345 34.3328C97.7611 34.6928 97.7878 35.2194 97.8145 35.9128V36.3528C97.8145 38.5128 97.7945 39.9728 97.7545 40.7328C97.7278 40.9461 97.7145 41.1128 97.7145 41.2328C97.6611 41.7928 97.6078 42.2194 97.5545 42.5128C97.4211 43.2194 97.0145 43.9394 96.3345 44.6728C96.1478 44.8861 95.8478 45.0061 95.4345 45.0328H95.3945ZM108.426 44.7328C108.106 44.7328 107.8 44.6328 107.506 44.4328C107.213 44.2328 106.973 43.9461 106.786 43.5728C106.626 43.2528 106.513 42.9128 106.446 42.5528C106.393 42.1794 106.346 41.7261 106.306 41.1928L106.126 38.7328H104.406V40.6928V41.4928L104.606 43.9528C104.633 44.1794 104.6 44.3394 104.506 44.4328C104.426 44.5261 104.26 44.5728 104.006 44.5728C103.82 44.5728 103.686 44.5461 103.606 44.4928C103.526 44.4394 103.473 44.3394 103.446 44.1928C103.42 43.9794 103.406 43.6528 103.406 43.2128L103.386 41.6928C103.36 40.3594 103.346 39.3528 103.346 38.6728C103.346 38.1261 103.353 37.7194 103.366 37.4528L103.386 36.1928C103.386 35.8728 103.373 35.3128 103.346 34.5128L103.326 33.0528C103.326 32.8928 103.34 32.6528 103.366 32.3328L103.386 31.6328C103.386 31.4594 103.42 31.3461 103.486 31.2928C103.566 31.2394 103.713 31.2128 103.926 31.2128C104.14 31.2128 104.313 31.2794 104.446 31.4128C104.593 31.5328 104.653 31.6861 104.626 31.8728C104.586 32.1261 104.566 32.3928 104.566 32.6728C104.566 32.9528 104.573 33.1661 104.586 33.3128L104.606 33.9728C104.606 34.6394 104.58 35.2794 104.526 35.8928C104.473 36.5328 104.446 37.2328 104.446 37.9928C104.66 38.0194 104.82 38.0328 104.926 38.0328C105.166 38.0328 105.566 37.9794 106.126 37.8728C106.166 37.0994 106.24 36.2328 106.346 35.2728C106.453 34.2861 106.58 33.4128 106.726 32.6528C106.78 32.3728 106.94 32.0128 107.206 31.5728C107.273 31.4394 107.38 31.3394 107.526 31.2728C107.673 31.2061 107.833 31.1728 108.006 31.1728C108.246 31.1728 108.566 31.2728 108.966 31.4728C109.38 31.6728 109.706 31.8994 109.946 32.1528C110.36 32.6061 110.686 33.1794 110.926 33.8728C111.18 34.5661 111.306 35.3328 111.306 36.1728C111.306 36.5861 111.28 36.9728 111.226 37.3328C111.173 37.7194 111.146 38.3061 111.146 39.0928C111.146 39.8128 111.126 40.3528 111.086 40.7128C110.966 41.8728 110.68 42.8594 110.226 43.6728C110.053 44.0061 109.793 44.2661 109.446 44.4528C109.1 44.6394 108.76 44.7328 108.426 44.7328ZM108.426 43.9328C108.68 43.9328 108.886 43.8128 109.046 43.5728C109.406 42.8394 109.653 42.1928 109.786 41.6328C109.933 41.0728 110.013 40.3328 110.026 39.4128C110.08 38.2128 110.106 37.2128 110.106 36.4128L110.086 35.5528C110.06 34.7528 109.933 33.9928 109.706 33.2728C109.64 33.0461 109.513 32.8194 109.326 32.5928C109.153 32.3528 108.96 32.1594 108.746 32.0128C108.546 31.8794 108.38 31.8128 108.246 31.8128C108.14 31.8128 108.06 31.8594 108.006 31.9528C107.953 32.0461 107.9 32.1928 107.846 32.3928C107.806 32.5928 107.766 32.7528 107.726 32.8728C107.673 33.0594 107.62 33.3394 107.566 33.7128C107.553 33.8728 107.52 34.0794 107.466 34.3328C107.253 35.5594 107.146 36.9328 107.146 38.4528V39.0928L107.166 39.6728C107.18 39.8461 107.193 40.1928 107.206 40.7128C107.233 41.2194 107.273 41.6728 107.326 42.0728C107.366 42.4328 107.533 42.9328 107.826 43.5728C107.973 43.8128 108.173 43.9328 108.426 43.9328ZM114.264 44.5928C113.837 44.6194 113.637 44.4061 113.664 43.9528L113.684 42.5728C113.697 42.2794 113.704 41.8261 113.704 41.2128V39.7328C113.704 39.0794 113.697 38.5861 113.684 38.2528C113.67 37.8261 113.664 37.1928 113.664 36.3528V34.4728V33.9728C113.664 33.6128 113.65 33.3128 113.624 33.0728C113.61 32.8328 113.564 32.5794 113.484 32.3128C113.457 32.2061 113.444 32.1261 113.444 32.0728C113.444 31.8461 113.524 31.6461 113.684 31.4728C113.857 31.2994 114.07 31.2061 114.324 31.1928C114.684 31.1794 115.03 31.1594 115.364 31.1328C115.71 31.1061 116.044 31.0594 116.364 30.9928C116.484 30.9394 116.617 30.9728 116.764 31.0928C116.91 31.1994 116.997 31.3194 117.024 31.4528C117.05 31.5594 117.024 31.6661 116.944 31.7728C116.864 31.8661 116.757 31.9328 116.624 31.9728C116.344 32.0528 115.737 32.1461 114.804 32.2528L114.624 37.1928C115.237 37.2594 115.71 37.4328 116.044 37.7128C116.377 37.9928 116.604 38.4794 116.724 39.1728C116.87 39.7194 116.944 40.3061 116.944 40.9328C116.944 41.3328 116.904 41.7461 116.824 42.1728C116.637 43.0394 116.19 43.6794 115.484 44.0928C115.404 44.1461 115.284 44.2194 115.124 44.3128C114.977 44.4061 114.83 44.4794 114.684 44.5328C114.55 44.5728 114.41 44.5928 114.264 44.5928ZM114.664 43.5128C114.93 43.4328 115.17 43.2728 115.384 43.0328C115.597 42.7928 115.737 42.5328 115.804 42.2528C115.924 41.7328 115.984 41.2261 115.984 40.7328C115.984 40.2128 115.924 39.7061 115.804 39.2128C115.724 38.8928 115.597 38.6461 115.424 38.4728C115.264 38.2861 115.01 38.1861 114.664 38.1728V43.5128ZM121.253 44.9728C120.907 44.9728 120.587 44.8594 120.293 44.6328C120 44.4194 119.76 44.1261 119.573 43.7528C119.187 42.9394 118.947 42.0528 118.853 41.0928C118.733 40.1861 118.673 39.3128 118.673 38.4728C118.673 38.3128 118.68 38.1794 118.693 38.0728V37.7128C118.693 37.6461 118.687 37.6128 118.673 37.6128V37.2528L118.693 35.8528C118.707 35.4261 118.76 34.7461 118.853 33.8128C118.92 33.1728 119.073 32.5528 119.313 31.9528C119.407 31.6861 119.527 31.4861 119.673 31.3528C119.82 31.2061 119.987 31.1328 120.173 31.1328C120.707 31.1328 121.187 31.2328 121.613 31.4328C122.04 31.6194 122.4 31.8861 122.693 32.2328C122.96 32.5661 123.187 32.9794 123.373 33.4728C123.56 33.9528 123.693 34.4661 123.773 35.0128C123.853 35.5728 123.893 36.1661 123.893 36.7928V36.9528C123.893 37.3661 123.9 37.7394 123.913 38.0728L123.933 39.2128C123.933 43.0528 123.04 44.9728 121.253 44.9728ZM121.173 44.1328C121.413 44.1328 121.633 44.0394 121.833 43.8528C122.033 43.6528 122.187 43.3861 122.293 43.0528C122.547 42.3728 122.7 41.6394 122.753 40.8528C122.82 40.1728 122.853 39.5861 122.853 39.0928C122.853 38.4928 122.807 37.7061 122.713 36.7328C122.633 35.7061 122.593 34.9394 122.593 34.4328V34.0728C122.567 33.5661 122.393 33.1261 122.073 32.7528C121.767 32.3794 121.387 32.1928 120.933 32.1928C120.48 32.1928 120.18 32.4528 120.033 32.9728C119.9 33.3861 119.833 33.9194 119.833 34.5728C119.833 34.8261 119.84 35.0394 119.853 35.2128V35.7528L119.813 36.6728C119.787 36.9528 119.773 37.2594 119.773 37.5928C119.773 38.3128 119.793 39.0261 119.833 39.7328C119.887 40.7328 120.02 41.7061 120.233 42.6528C120.447 43.6394 120.76 44.1328 121.173 44.1328ZM126.76 44.5528C126.587 44.4994 126.494 44.3861 126.48 44.2128V43.9128C126.454 43.3528 126.427 42.5128 126.4 41.3928C126.347 40.4194 126.314 39.6728 126.3 39.1528C126.26 38.3394 126.214 37.1194 126.16 35.4928C126.147 35.2128 126.134 34.8261 126.12 34.3328C126.107 33.8394 126.1 33.4661 126.1 33.2128C126.087 33.0661 126.08 32.8594 126.08 32.5928C126.08 32.2861 126.094 32.0594 126.12 31.9128C126.174 31.4994 126.4 31.3061 126.8 31.3328C127.174 31.3328 127.374 31.5461 127.4 31.9728V32.2128L127.38 37.2528V39.6328V40.8328C127.38 41.0194 127.394 41.2394 127.42 41.4928C127.447 41.7328 127.467 41.9061 127.48 42.0128C127.547 41.6261 127.654 41.2328 127.8 40.8328C127.96 40.4194 128.06 40.1661 128.1 40.0728C128.3 39.5928 128.447 39.1994 128.54 38.8928C128.86 37.8661 129.274 36.6061 129.78 35.1128C129.887 34.8061 130.007 34.4328 130.14 33.9928C130.5 32.8594 130.747 32.1261 130.88 31.7928C131 31.4728 131.18 31.2728 131.42 31.1928C131.54 31.1528 131.66 31.1328 131.78 31.1328C131.967 31.1328 132.16 31.1928 132.36 31.3128V32.2728C132.36 33.2728 132.38 34.3061 132.42 35.3728C132.434 35.5994 132.44 35.9394 132.44 36.3928V36.9728C132.44 37.0928 132.434 37.2528 132.42 37.4528C132.42 37.6528 132.427 37.8861 132.44 38.1528L132.5 43.5528C132.5 43.7528 132.454 43.9728 132.36 44.2128C132.32 44.3194 132.254 44.4061 132.16 44.4728C132.067 44.5261 131.967 44.5528 131.86 44.5528C131.487 44.5528 131.3 44.3794 131.3 44.0328C131.3 43.6328 131.32 43.2461 131.36 42.8728C131.387 42.3661 131.4 41.9794 131.4 41.7128C131.374 39.0728 131.34 37.0994 131.3 35.7928C131.3 35.5928 131.274 35.2661 131.22 34.8128L131.16 34.0928C131.04 34.2261 130.974 34.3128 130.96 34.3528L130.64 35.3328C130.427 36.0261 130.26 36.5394 130.14 36.8728L128.4 41.7128L127.5 44.1728C127.394 44.4528 127.234 44.5928 127.02 44.5928C126.98 44.5928 126.894 44.5794 126.76 44.5528ZM128.78 30.1328C128.46 30.1328 128.154 30.0061 127.86 29.7528C127.58 29.4994 127.44 29.2194 127.44 28.9128C127.44 28.7794 127.48 28.6728 127.56 28.5928C127.64 28.5128 127.754 28.4661 127.9 28.4528C128.074 28.4394 128.22 28.4528 128.34 28.4928C128.474 28.5194 128.594 28.5994 128.7 28.7328C128.82 28.8794 128.947 28.9528 129.08 28.9528C129.227 28.9528 129.367 28.8528 129.5 28.6528C129.554 28.5594 129.6 28.4794 129.64 28.4128C129.68 28.3328 129.714 28.2661 129.74 28.2128C129.887 27.9594 130.06 27.8328 130.26 27.8328C130.287 27.8328 130.34 27.8461 130.42 27.8728C130.527 27.9261 130.614 28.0061 130.68 28.1128C130.747 28.2061 130.78 28.3128 130.78 28.4328C130.78 28.5128 130.76 28.5928 130.72 28.6728C130.707 28.7128 130.694 28.7528 130.68 28.7928C130.667 28.8194 130.654 28.8461 130.64 28.8728C130.494 29.3394 130.26 29.6661 129.94 29.8528C129.634 30.0394 129.247 30.1328 128.78 30.1328ZM24.8561 66.5528C24.6828 66.4994 24.5894 66.3861 24.5761 66.2128V65.9128C24.5494 65.3528 24.5228 64.5128 24.4961 63.3928C24.4428 62.4194 24.4094 61.6728 24.3961 61.1528C24.3561 60.3394 24.3094 59.1194 24.2561 57.4928C24.2428 57.2128 24.2294 56.8261 24.2161 56.3328C24.2028 55.8394 24.1961 55.4661 24.1961 55.2128C24.1828 55.0661 24.1761 54.8594 24.1761 54.5928C24.1761 54.2861 24.1894 54.0594 24.2161 53.9128C24.2694 53.4994 24.4961 53.3061 24.8961 53.3328C25.2694 53.3328 25.4694 53.5461 25.4961 53.9728V54.2128L25.4761 59.2528V61.6328V62.8328C25.4761 63.0194 25.4894 63.2394 25.5161 63.4928C25.5428 63.7328 25.5628 63.9061 25.5761 64.0128C25.6428 63.6261 25.7494 63.2328 25.8961 62.8328C26.0561 62.4194 26.1561 62.1661 26.1961 62.0728C26.3961 61.5928 26.5428 61.1994 26.6361 60.8928C26.9561 59.8661 27.3694 58.6061 27.8761 57.1128C27.9828 56.8061 28.1028 56.4328 28.2361 55.9928C28.5961 54.8594 28.8428 54.1261 28.9761 53.7928C29.0961 53.4728 29.2761 53.2728 29.5161 53.1928C29.6361 53.1528 29.7561 53.1328 29.8761 53.1328C30.0628 53.1328 30.2561 53.1928 30.4561 53.3128V54.2728C30.4561 55.2728 30.4761 56.3061 30.5161 57.3728C30.5294 57.5994 30.5361 57.9394 30.5361 58.3928V58.9728C30.5361 59.0928 30.5294 59.2528 30.5161 59.4528C30.5161 59.6528 30.5228 59.8861 30.5361 60.1528L30.5961 65.5528C30.5961 65.7528 30.5494 65.9728 30.4561 66.2128C30.4161 66.3194 30.3494 66.4061 30.2561 66.4728C30.1628 66.5261 30.0628 66.5528 29.9561 66.5528C29.5828 66.5528 29.3961 66.3794 29.3961 66.0328C29.3961 65.6328 29.4161 65.2461 29.4561 64.8728C29.4828 64.3661 29.4961 63.9794 29.4961 63.7128C29.4694 61.0728 29.4361 59.0994 29.3961 57.7928C29.3961 57.5928 29.3694 57.2661 29.3161 56.8128L29.2561 56.0928C29.1361 56.2261 29.0694 56.3128 29.0561 56.3528L28.7361 57.3328C28.5228 58.0261 28.3561 58.5394 28.2361 58.8728L26.4961 63.7128L25.5961 66.1728C25.4894 66.4528 25.3294 66.5928 25.1161 66.5928C25.0761 66.5928 24.9894 66.5794 24.8561 66.5528ZM36.5252 66.5928C36.0718 66.5928 35.8452 65.4928 35.8452 63.2928L35.8652 62.1528L35.8852 61.2328V61.1728V60.9728C35.8985 60.8661 35.9052 60.7394 35.9052 60.5928C35.9052 60.5661 35.8852 60.5328 35.8452 60.4928C35.8052 60.4528 35.7852 60.4194 35.7852 60.3928V60.3728C35.7185 60.3994 35.5985 60.4128 35.4252 60.4128C35.2518 60.4128 35.0385 60.3861 34.7852 60.3328C34.7052 60.3194 34.4918 60.2861 34.1452 60.2328V62.5328C34.1452 62.8794 34.1652 63.4261 34.2052 64.1728C34.2452 64.9061 34.2652 65.4528 34.2652 65.8128C34.2652 66.0128 34.2118 66.1861 34.1052 66.3328C33.9985 66.4794 33.8585 66.5528 33.6852 66.5528C33.4318 66.5528 33.2518 66.3061 33.1452 65.8128C33.0385 65.3061 32.9852 64.6461 32.9852 63.8328L33.0252 62.2128C33.0385 61.7594 33.0452 61.2794 33.0452 60.7728V60.4328V60.1528C33.0452 59.9394 33.0385 59.7994 33.0252 59.7328V59.6328L33.0852 58.4728C33.0852 57.9661 33.0652 57.2128 33.0252 56.2128C32.9852 55.2128 32.9652 54.4594 32.9652 53.9528C32.9652 53.7928 33.0185 53.6528 33.1252 53.5328C33.2318 53.4128 33.3652 53.3528 33.5252 53.3528C33.9518 53.3528 34.1652 53.7528 34.1652 54.5528L34.1252 57.0328C34.0985 57.7794 34.0852 58.6128 34.0852 59.5328C34.2852 59.5994 34.6452 59.6328 35.1652 59.6328H35.9052C35.9318 59.5528 35.9452 59.4728 35.9452 59.3928C35.9452 58.7528 35.9052 57.8061 35.8252 56.5528C35.7318 55.3794 35.6852 54.4261 35.6852 53.6928C35.6852 53.5461 35.7385 53.4261 35.8452 53.3328C35.9652 53.2261 36.1052 53.1728 36.2652 53.1728C36.3585 53.1728 36.4918 53.2061 36.6652 53.2728L36.8452 53.3528C36.8452 55.2461 36.9118 57.7728 37.0452 60.9328L37.2252 65.9928C37.2252 66.1794 37.1518 66.3261 37.0052 66.4328C36.8718 66.5394 36.7118 66.5928 36.5252 66.5928ZM40.7463 66.2728L40.7263 65.4928C40.7129 65.2661 40.7063 65.0128 40.7063 64.7328L40.7263 64.0528C40.6863 63.9061 40.5863 62.4461 40.4263 59.6728C40.2663 56.8994 40.1729 55.1194 40.1463 54.3328C39.3729 54.3061 38.8796 54.2261 38.6663 54.0928C38.5196 53.9861 38.4463 53.8661 38.4463 53.7328C38.4463 53.6261 38.5129 53.5328 38.6463 53.4528C38.7929 53.3594 38.9396 53.3128 39.0863 53.3128C39.4596 53.3128 39.9129 53.3394 40.4463 53.3928C40.9529 53.4594 41.4063 53.4928 41.8063 53.4928H41.9663H42.1263C42.5396 53.4928 42.7463 53.6528 42.7463 53.9728C42.7463 54.1328 42.6796 54.2661 42.5463 54.3728C42.4129 54.4661 42.2596 54.5128 42.0863 54.5128C41.9663 54.5128 41.7929 54.4928 41.5663 54.4528L41.1663 54.3728L41.1463 54.4728L41.1263 54.5728C41.1263 55.7594 41.2396 57.6528 41.4663 60.2528C41.6796 62.6928 41.7863 64.5861 41.7863 65.9328C41.7863 66.0928 41.7129 66.2328 41.5663 66.3528C41.4329 66.4728 41.2796 66.5328 41.1063 66.5328L40.7463 66.2728ZM45.6634 66.8528C45.4901 66.8528 45.3301 66.7928 45.1834 66.6728C45.0501 66.5528 44.9768 66.4061 44.9634 66.2328V65.7128V65.3128C44.9501 65.1928 44.9434 65.0528 44.9434 64.8928C44.9434 64.6128 44.9234 64.1861 44.8834 63.6128L44.8434 62.3328C44.8434 61.6794 44.8634 60.7061 44.9034 59.4128C44.9568 58.2528 44.9834 57.2794 44.9834 56.4928C44.9834 56.3061 44.9634 56.0261 44.9234 55.6528C44.8834 55.2661 44.8634 54.9861 44.8634 54.8128C44.8634 53.8661 45.1434 53.3928 45.7034 53.3928C46.1434 53.3928 46.6501 53.4794 47.2234 53.6528C47.8101 53.8261 48.1034 54.0328 48.1034 54.2728C48.1034 54.4061 48.0434 54.5328 47.9234 54.6528C47.8168 54.7594 47.6834 54.8461 47.5234 54.9128C46.9634 54.7128 46.4568 54.5794 46.0034 54.5128C46.0168 54.7128 46.0234 54.9994 46.0234 55.3728C46.0234 55.9061 46.0168 56.3861 46.0034 56.8128C45.9634 57.4528 45.9434 57.9328 45.9434 58.2528L46.0034 58.5728L46.3234 58.5528C46.4301 58.5394 46.5634 58.5328 46.7234 58.5328C47.3634 58.5328 47.6834 58.7194 47.6834 59.0928C47.6834 59.2394 47.6234 59.3661 47.5034 59.4728C47.3834 59.5661 47.2301 59.6128 47.0434 59.6128C46.8034 59.6128 46.6168 59.5994 46.4834 59.5728H45.9834C46.0101 59.9194 46.0234 60.4261 46.0234 61.0928C46.0234 61.7594 46.0168 62.3594 46.0034 62.8928C45.9634 63.7061 45.9434 64.3128 45.9434 64.7128C45.9434 65.4594 45.9568 65.8328 45.9834 65.8328L46.6434 65.8128C46.8701 65.7994 47.1434 65.7928 47.4634 65.7928C47.9701 65.7928 48.2234 65.9528 48.2234 66.2728C48.2234 66.4594 48.1368 66.5994 47.9634 66.6928C47.8034 66.7994 47.6034 66.8528 47.3634 66.8528H45.6634ZM50.867 66.7328C50.6937 66.0261 50.607 65.0461 50.607 63.7928L50.647 62.0128C50.6737 61.4794 50.687 60.8861 50.687 60.2328C50.607 60.0461 50.567 59.8794 50.567 59.7328V59.6728C50.7004 59.4194 50.767 58.8461 50.767 57.9528L50.787 57.0328C50.8004 56.7394 50.807 56.4128 50.807 56.0528C50.807 55.2661 50.7537 54.6461 50.647 54.1928C50.687 54.0061 50.7537 53.8461 50.847 53.7128C50.9404 53.5661 51.0537 53.4928 51.187 53.4928H52.067C52.4404 53.4928 52.767 53.5794 53.047 53.7528C53.327 53.9128 53.5404 54.1461 53.687 54.4528C53.9537 54.9994 54.087 55.6461 54.087 56.3928C54.087 56.9261 54.0804 57.3461 54.067 57.6528C54.0404 58.0394 53.9737 58.3928 53.867 58.7128C53.827 58.8861 53.767 59.0328 53.687 59.1528C53.6204 59.2594 53.5204 59.3928 53.387 59.5528C53.2004 59.7794 52.8937 59.9928 52.467 60.1928C52.2937 60.2861 52.067 60.3728 51.787 60.4528V62.5928L51.827 63.8728L51.867 64.4928C51.9204 65.2394 51.947 65.8728 51.947 66.3928C51.947 66.5528 51.8804 66.6861 51.747 66.7928C51.6137 66.9128 51.4604 66.9728 51.287 66.9728L50.867 66.7328ZM51.807 59.6328C52.5937 59.5128 52.987 58.3861 52.987 56.2528C52.987 55.8661 52.967 55.5661 52.927 55.3528C52.887 55.1928 52.8337 55.0661 52.767 54.9728C52.7004 54.8661 52.6004 54.7794 52.467 54.7128C52.3204 54.6328 52.1604 54.5928 51.987 54.5928C51.987 54.5794 51.9137 54.5728 51.767 54.5728V55.7128C51.767 56.4994 51.7737 57.1994 51.787 57.8128C51.787 58.5061 51.7937 58.9594 51.807 59.1728V59.5928V59.6328ZM56.972 66.8528C56.7987 66.8528 56.6387 66.7928 56.492 66.6728C56.3587 66.5528 56.2854 66.4061 56.272 66.2328V65.7128V65.3128C56.2587 65.1928 56.252 65.0528 56.252 64.8928C56.252 64.6128 56.232 64.1861 56.192 63.6128L56.152 62.3328C56.152 61.6794 56.172 60.7061 56.212 59.4128C56.2654 58.2528 56.292 57.2794 56.292 56.4928C56.292 56.3061 56.272 56.0261 56.232 55.6528C56.192 55.2661 56.172 54.9861 56.172 54.8128C56.172 53.8661 56.452 53.3928 57.012 53.3928C57.452 53.3928 57.9587 53.4794 58.532 53.6528C59.1187 53.8261 59.412 54.0328 59.412 54.2728C59.412 54.4061 59.352 54.5328 59.232 54.6528C59.1254 54.7594 58.992 54.8461 58.832 54.9128C58.272 54.7128 57.7654 54.5794 57.312 54.5128C57.3254 54.7128 57.332 54.9994 57.332 55.3728C57.332 55.9061 57.3254 56.3861 57.312 56.8128C57.272 57.4528 57.252 57.9328 57.252 58.2528L57.312 58.5728L57.632 58.5528C57.7387 58.5394 57.872 58.5328 58.032 58.5328C58.672 58.5328 58.992 58.7194 58.992 59.0928C58.992 59.2394 58.932 59.3661 58.812 59.4728C58.692 59.5661 58.5387 59.6128 58.352 59.6128C58.112 59.6128 57.9254 59.5994 57.792 59.5728H57.292C57.3187 59.9194 57.332 60.4261 57.332 61.0928C57.332 61.7594 57.3254 62.3594 57.312 62.8928C57.272 63.7061 57.252 64.3128 57.252 64.7128C57.252 65.4594 57.2654 65.8328 57.292 65.8328L57.952 65.8128C58.1787 65.7994 58.452 65.7928 58.772 65.7928C59.2787 65.7928 59.532 65.9528 59.532 66.2728C59.532 66.4594 59.4454 66.5994 59.272 66.6928C59.112 66.7994 58.912 66.8528 58.672 66.8528H56.972ZM64.4156 66.8728C64.1223 66.8728 63.809 66.8261 63.4756 66.7328C63.1556 66.6528 62.909 66.5594 62.7356 66.4528C61.8423 65.8794 61.3956 64.3128 61.3956 61.7528V61.2128V60.5928V60.1128C61.3956 59.5794 61.4023 59.1061 61.4156 58.6928C61.429 58.2661 61.4556 57.8061 61.4956 57.3128C61.5356 56.7928 61.5956 56.3728 61.6756 56.0528C61.7556 55.7194 61.889 55.3461 62.0756 54.9328C62.2356 54.5461 62.429 54.2461 62.6556 54.0328C62.8956 53.8194 63.2023 53.6394 63.5756 53.4928C63.909 53.3461 64.3223 53.2728 64.8156 53.2728C65.0156 53.2728 65.169 53.3194 65.2756 53.4128C65.3823 53.5061 65.4356 53.6261 65.4356 53.7728C65.4356 53.9061 65.389 54.0261 65.2956 54.1328C65.2156 54.2394 65.1156 54.2994 64.9956 54.3128H64.0556C63.789 54.3128 63.5556 54.4794 63.3556 54.8128C63.1556 55.1461 63.0156 55.5794 62.9356 56.1128C62.7623 57.0994 62.6756 57.8994 62.6756 58.5128V58.6128L62.6356 60.5328C62.609 61.1061 62.5956 61.7528 62.5956 62.4728C62.5956 62.9794 62.6156 63.3928 62.6556 63.7128C62.7223 64.1928 62.8356 64.5928 62.9956 64.9128C63.1556 65.2728 63.429 65.5328 63.8156 65.6928C64.0156 65.7728 64.2356 65.8128 64.4756 65.8128C64.6223 65.8128 64.769 65.7594 64.9156 65.6528C65.089 65.6528 65.229 65.6928 65.3356 65.7728C65.4556 65.8394 65.5156 65.9461 65.5156 66.0928C65.5156 66.6128 65.149 66.8728 64.4156 66.8728ZM68.2416 66.7928C68.1216 66.7928 68.0082 66.7328 67.9016 66.6128C67.8082 66.4928 67.7882 66.3728 67.8416 66.2528C67.8816 66.1328 67.9749 65.9328 68.1216 65.6528C68.5349 64.9728 68.8082 64.0528 68.9416 62.8928C68.9549 62.8128 68.9016 62.7128 68.7816 62.5928C68.6749 62.4594 68.6082 62.3594 68.5816 62.2928L68.3016 61.8928C68.0216 61.5061 67.7882 61.1528 67.6016 60.8328C67.4282 60.4994 67.2616 60.0594 67.1016 59.5128C67.0349 59.2861 66.9882 59.0461 66.9616 58.7928C66.9349 58.5261 66.9216 58.3594 66.9216 58.2928L66.8816 57.8328C66.8682 57.6061 66.8482 57.4061 66.8216 57.2328C66.7949 57.0461 66.7749 56.8928 66.7616 56.7728C66.6416 55.9994 66.5816 55.3661 66.5816 54.8728C66.5816 54.6861 66.5882 54.5461 66.6016 54.4528C66.6149 54.2528 66.6149 54.0728 66.6016 53.9128C66.6016 53.7528 66.6016 53.6194 66.6016 53.5128C66.6149 53.2461 66.7082 53.1128 66.8816 53.1128C66.9216 53.1128 66.9949 53.1261 67.1016 53.1528C67.5949 53.2994 67.8416 53.5794 67.8416 53.9928C67.8416 54.0994 67.8282 54.2994 67.8016 54.5928L67.7416 55.4128C67.7416 55.7861 67.7482 56.0661 67.7616 56.2528C67.8682 57.3594 67.9882 58.4528 68.1216 59.5328C68.1616 59.8261 68.2549 60.0994 68.4016 60.3528C68.5616 60.5928 68.7216 60.7928 68.8816 60.9528C69.0549 61.0994 69.1549 61.1728 69.1816 61.1728C69.2616 60.9328 69.3082 60.7728 69.3216 60.6928C69.4016 59.5061 69.4482 58.6328 69.4616 58.0728C69.4749 57.6061 69.4816 56.8328 69.4816 55.7528V53.4128C69.4949 53.3061 69.5216 53.2328 69.5616 53.1928C69.6149 53.1394 69.7016 53.1128 69.8216 53.1128C70.0882 53.1128 70.3082 53.2128 70.4816 53.4128C70.6549 53.5994 70.7216 53.8261 70.6816 54.0928C70.6416 54.4128 70.6216 54.8394 70.6216 55.3728C70.6216 55.6928 70.6282 55.9128 70.6416 56.0328C70.6549 56.1528 70.6616 56.3194 70.6616 56.5328C70.6616 56.8661 70.6349 57.3394 70.5816 57.9528C70.5816 58.0994 70.5682 58.3328 70.5416 58.6528C70.5149 59.0528 70.4482 59.6661 70.3416 60.4928L70.2616 61.1528C70.1816 61.9528 70.0216 62.9394 69.7816 64.1128C69.7016 64.4861 69.5816 64.8794 69.4216 65.2928C69.2616 65.6928 69.0816 66.0661 68.8816 66.4128C68.8416 66.5061 68.7549 66.5928 68.6216 66.6728C68.4882 66.7528 68.3616 66.7928 68.2416 66.7928ZM77.7527 66.7328C77.4327 66.7328 77.126 66.6328 76.8327 66.4328C76.5393 66.2328 76.2993 65.9461 76.1127 65.5728C75.9527 65.2528 75.8393 64.9128 75.7727 64.5528C75.7193 64.1794 75.6727 63.7261 75.6327 63.1928L75.4527 60.7328H73.7327V62.6928V63.4928L73.9327 65.9528C73.9593 66.1794 73.926 66.3394 73.8327 66.4328C73.7527 66.5261 73.586 66.5728 73.3327 66.5728C73.146 66.5728 73.0127 66.5461 72.9327 66.4928C72.8527 66.4394 72.7993 66.3394 72.7727 66.1928C72.746 65.9794 72.7327 65.6528 72.7327 65.2128L72.7127 63.6928C72.686 62.3594 72.6727 61.3528 72.6727 60.6728C72.6727 60.1261 72.6793 59.7194 72.6927 59.4528L72.7127 58.1928C72.7127 57.8728 72.6993 57.3128 72.6727 56.5128L72.6527 55.0528C72.6527 54.8928 72.666 54.6528 72.6927 54.3328L72.7127 53.6328C72.7127 53.4594 72.746 53.3461 72.8127 53.2928C72.8927 53.2394 73.0393 53.2128 73.2527 53.2128C73.466 53.2128 73.6393 53.2794 73.7727 53.4128C73.9193 53.5328 73.9793 53.6861 73.9527 53.8728C73.9127 54.1261 73.8927 54.3928 73.8927 54.6728C73.8927 54.9528 73.8993 55.1661 73.9127 55.3128L73.9327 55.9728C73.9327 56.6394 73.906 57.2794 73.8527 57.8928C73.7993 58.5328 73.7727 59.2328 73.7727 59.9928C73.986 60.0194 74.146 60.0328 74.2527 60.0328C74.4927 60.0328 74.8927 59.9794 75.4527 59.8728C75.4927 59.0994 75.566 58.2328 75.6727 57.2728C75.7793 56.2861 75.906 55.4128 76.0527 54.6528C76.106 54.3728 76.266 54.0128 76.5327 53.5728C76.5993 53.4394 76.706 53.3394 76.8527 53.2728C76.9993 53.2061 77.1593 53.1728 77.3327 53.1728C77.5727 53.1728 77.8927 53.2728 78.2927 53.4728C78.706 53.6728 79.0327 53.8994 79.2727 54.1528C79.686 54.6061 80.0127 55.1794 80.2527 55.8728C80.506 56.5661 80.6327 57.3328 80.6327 58.1728C80.6327 58.5861 80.606 58.9728 80.5527 59.3328C80.4993 59.7194 80.4727 60.3061 80.4727 61.0928C80.4727 61.8128 80.4527 62.3528 80.4127 62.7128C80.2927 63.8728 80.006 64.8594 79.5527 65.6728C79.3793 66.0061 79.1193 66.2661 78.7727 66.4528C78.426 66.6394 78.086 66.7328 77.7527 66.7328ZM77.7527 65.9328C78.006 65.9328 78.2127 65.8128 78.3727 65.5728C78.7327 64.8394 78.9793 64.1928 79.1127 63.6328C79.2593 63.0728 79.3393 62.3328 79.3527 61.4128C79.406 60.2128 79.4327 59.2128 79.4327 58.4128L79.4127 57.5528C79.386 56.7528 79.2593 55.9928 79.0327 55.2728C78.966 55.0461 78.8393 54.8194 78.6527 54.5928C78.4793 54.3528 78.286 54.1594 78.0727 54.0128C77.8727 53.8794 77.706 53.8128 77.5727 53.8128C77.466 53.8128 77.386 53.8594 77.3327 53.9528C77.2793 54.0461 77.226 54.1928 77.1727 54.3928C77.1327 54.5928 77.0927 54.7528 77.0527 54.8728C76.9993 55.0594 76.946 55.3394 76.8927 55.7128C76.8793 55.8728 76.846 56.0794 76.7927 56.3328C76.5793 57.5594 76.4727 58.9328 76.4727 60.4528V61.0928L76.4927 61.6728C76.506 61.8461 76.5193 62.1928 76.5327 62.7128C76.5593 63.2194 76.5993 63.6728 76.6527 64.0728C76.6927 64.4328 76.8593 64.9328 77.1527 65.5728C77.2993 65.8128 77.4993 65.9328 77.7527 65.9328ZM90.8898 69.8128C90.7165 69.8128 90.5832 69.7528 90.4898 69.6328C90.3965 69.5261 90.3565 69.3728 90.3698 69.1728L90.4298 68.2128C90.4965 67.4128 90.5298 66.7728 90.5298 66.2928C90.1832 66.3328 89.9365 66.3661 89.7898 66.3928C88.5098 66.6061 87.3432 66.7128 86.2898 66.7128C85.0898 66.7128 84.1098 66.5794 83.3498 66.3128C83.2432 66.2728 83.1498 66.1794 83.0698 66.0328C83.0032 65.8728 82.9698 65.6928 82.9698 65.4928L82.9498 62.1928L82.9698 61.2328C82.9832 61.0328 82.9898 60.7194 82.9898 60.2928C82.9898 60.0128 82.9832 59.8061 82.9698 59.6728L82.9098 58.5928C82.8298 57.0461 82.7898 55.7861 82.7898 54.8128L82.7698 54.1328C82.7698 53.4928 82.9365 53.1728 83.2698 53.1728C83.7498 53.1728 83.9898 53.4661 83.9898 54.0528L84.0098 58.2928L83.9898 62.0528C83.9898 62.2394 84.0032 62.4928 84.0298 62.8128C84.0565 63.1194 84.0765 63.3461 84.0898 63.4928C84.1565 64.0528 84.1898 64.5061 84.1898 64.8528C84.1898 65.0128 84.1832 65.1261 84.1698 65.1928V65.2928C84.1698 65.4661 84.2565 65.5594 84.4298 65.5728C84.7098 65.6128 85.1898 65.6594 85.8698 65.7128C85.7632 65.2061 85.7098 64.5728 85.7098 63.8128L85.7298 62.3928L85.7498 61.2328C85.7498 60.6994 85.7365 59.9128 85.7098 58.8728C85.6698 58.0328 85.6498 57.1328 85.6498 56.1728C85.6498 55.5861 85.6765 54.7061 85.7298 53.5328C85.7565 53.2128 85.8832 53.0528 86.1098 53.0528L86.3498 53.0928C86.5765 53.1594 86.7365 53.2394 86.8298 53.3328C86.9232 53.4128 86.9698 53.5394 86.9698 53.7128C86.9698 53.7794 86.9565 53.8928 86.9298 54.0528C86.8365 54.7061 86.7898 55.5461 86.7898 56.5728V57.2128L86.8098 59.9528L86.8298 64.2728C86.8298 64.5661 86.8632 64.8994 86.9298 65.2728L86.9898 65.6928C87.4698 65.6928 87.8165 65.6661 88.0298 65.6128C88.2565 65.5594 88.4232 65.5261 88.5298 65.5128L88.5898 63.5928C88.6565 61.8994 88.6898 60.3994 88.6898 59.0928C88.6898 58.1328 88.6698 56.9861 88.6298 55.6528C88.6298 55.3461 88.6232 55.1194 88.6098 54.9728L88.5898 54.2528C88.5898 54.0261 88.5965 53.8528 88.6098 53.7328C88.6232 53.5328 88.6765 53.3794 88.7698 53.2728C88.8632 53.1528 88.9832 53.0928 89.1298 53.0928C89.2365 53.0928 89.3565 53.1261 89.4898 53.1928C89.7432 53.2861 89.8565 53.4794 89.8298 53.7728C89.7765 55.5194 89.7498 57.3728 89.7498 59.3328C89.7498 61.7594 89.7565 63.5794 89.7698 64.7928C89.7698 64.8861 89.7965 65.0661 89.8498 65.3328L90.3298 65.2728C90.7032 65.2061 91.0098 65.1728 91.2498 65.1728C91.4898 65.1728 91.6232 65.2128 91.6498 65.2928C91.7165 65.3994 91.7498 65.5661 91.7498 65.7928C91.7498 66.0461 91.7298 66.3528 91.6898 66.7128L91.6098 67.7528C91.5832 68.0594 91.5698 68.5194 91.5698 69.1328C91.5698 69.3194 91.5032 69.4794 91.3698 69.6128C91.2365 69.7594 91.0765 69.8261 90.8898 69.8128ZM93.6061 66.5528C93.4328 66.4994 93.3394 66.3861 93.3261 66.2128V65.9128C93.2994 65.3528 93.2728 64.5128 93.2461 63.3928C93.1928 62.4194 93.1594 61.6728 93.1461 61.1528C93.1061 60.3394 93.0594 59.1194 93.0061 57.4928C92.9928 57.2128 92.9794 56.8261 92.9661 56.3328C92.9528 55.8394 92.9461 55.4661 92.9461 55.2128C92.9328 55.0661 92.9261 54.8594 92.9261 54.5928C92.9261 54.2861 92.9394 54.0594 92.9661 53.9128C93.0194 53.4994 93.2461 53.3061 93.6461 53.3328C94.0194 53.3328 94.2194 53.5461 94.2461 53.9728V54.2128L94.2261 59.2528V61.6328V62.8328C94.2261 63.0194 94.2394 63.2394 94.2661 63.4928C94.2928 63.7328 94.3128 63.9061 94.3261 64.0128C94.3928 63.6261 94.4994 63.2328 94.6461 62.8328C94.8061 62.4194 94.9061 62.1661 94.9461 62.0728C95.1461 61.5928 95.2928 61.1994 95.3861 60.8928C95.7061 59.8661 96.1194 58.6061 96.6261 57.1128C96.7328 56.8061 96.8528 56.4328 96.9861 55.9928C97.3461 54.8594 97.5928 54.1261 97.7261 53.7928C97.8461 53.4728 98.0261 53.2728 98.2661 53.1928C98.3861 53.1528 98.5061 53.1328 98.6261 53.1328C98.8128 53.1328 99.0061 53.1928 99.2061 53.3128V54.2728C99.2061 55.2728 99.2261 56.3061 99.2661 57.3728C99.2794 57.5994 99.2861 57.9394 99.2861 58.3928V58.9728C99.2861 59.0928 99.2794 59.2528 99.2661 59.4528C99.2661 59.6528 99.2728 59.8861 99.2861 60.1528L99.3461 65.5528C99.3461 65.7528 99.2994 65.9728 99.2061 66.2128C99.1661 66.3194 99.0994 66.4061 99.0061 66.4728C98.9128 66.5261 98.8128 66.5528 98.7061 66.5528C98.3328 66.5528 98.1461 66.3794 98.1461 66.0328C98.1461 65.6328 98.1661 65.2461 98.2061 64.8728C98.2328 64.3661 98.2461 63.9794 98.2461 63.7128C98.2194 61.0728 98.1861 59.0994 98.1461 57.7928C98.1461 57.5928 98.1194 57.2661 98.0661 56.8128L98.0061 56.0928C97.8861 56.2261 97.8194 56.3128 97.8061 56.3528L97.4861 57.3328C97.2728 58.0261 97.1061 58.5394 96.9861 58.8728L95.2461 63.7128L94.3461 66.1728C94.2394 66.4528 94.0794 66.5928 93.8661 66.5928C93.8261 66.5928 93.7394 66.5794 93.6061 66.5528ZM102.395 66.5528C102.222 66.4994 102.128 66.3861 102.115 66.2128V65.9128C102.088 65.3528 102.062 64.5128 102.035 63.3928C101.982 62.4194 101.948 61.6728 101.935 61.1528C101.895 60.3394 101.848 59.1194 101.795 57.4928C101.782 57.2128 101.768 56.8261 101.755 56.3328C101.742 55.8394 101.735 55.4661 101.735 55.2128C101.722 55.0661 101.715 54.8594 101.715 54.5928C101.715 54.2861 101.728 54.0594 101.755 53.9128C101.808 53.4994 102.035 53.3061 102.435 53.3328C102.808 53.3328 103.008 53.5461 103.035 53.9728V54.2128L103.015 59.2528V61.6328V62.8328C103.015 63.0194 103.028 63.2394 103.055 63.4928C103.082 63.7328 103.102 63.9061 103.115 64.0128C103.182 63.6261 103.288 63.2328 103.435 62.8328C103.595 62.4194 103.695 62.1661 103.735 62.0728C103.935 61.5928 104.082 61.1994 104.175 60.8928C104.495 59.8661 104.908 58.6061 105.415 57.1128C105.522 56.8061 105.642 56.4328 105.775 55.9928C106.135 54.8594 106.382 54.1261 106.515 53.7928C106.635 53.4728 106.815 53.2728 107.055 53.1928C107.175 53.1528 107.295 53.1328 107.415 53.1328C107.602 53.1328 107.795 53.1928 107.995 53.3128V54.2728C107.995 55.2728 108.015 56.3061 108.055 57.3728C108.068 57.5994 108.075 57.9394 108.075 58.3928V58.9728C108.075 59.0928 108.068 59.2528 108.055 59.4528C108.055 59.6528 108.062 59.8861 108.075 60.1528L108.135 65.5528C108.135 65.7528 108.088 65.9728 107.995 66.2128C107.955 66.3194 107.888 66.4061 107.795 66.4728C107.702 66.5261 107.602 66.5528 107.495 66.5528C107.122 66.5528 106.935 66.3794 106.935 66.0328C106.935 65.6328 106.955 65.2461 106.995 64.8728C107.022 64.3661 107.035 63.9794 107.035 63.7128C107.008 61.0728 106.975 59.0994 106.935 57.7928C106.935 57.5928 106.908 57.2661 106.855 56.8128L106.795 56.0928C106.675 56.2261 106.608 56.3128 106.595 56.3528L106.275 57.3328C106.062 58.0261 105.895 58.5394 105.775 58.8728L104.035 63.7128L103.135 66.1728C103.028 66.4528 102.868 66.5928 102.655 66.5928C102.615 66.5928 102.528 66.5794 102.395 66.5528ZM104.415 52.1328C104.095 52.1328 103.788 52.0061 103.495 51.7528C103.215 51.4994 103.075 51.2194 103.075 50.9128C103.075 50.7794 103.115 50.6728 103.195 50.5928C103.275 50.5128 103.388 50.4661 103.535 50.4528C103.708 50.4394 103.855 50.4528 103.975 50.4928C104.108 50.5194 104.228 50.5994 104.335 50.7328C104.455 50.8794 104.582 50.9528 104.715 50.9528C104.862 50.9528 105.002 50.8528 105.135 50.6528C105.188 50.5594 105.235 50.4794 105.275 50.4128C105.315 50.3328 105.348 50.2661 105.375 50.2128C105.522 49.9594 105.695 49.8328 105.895 49.8328C105.922 49.8328 105.975 49.8461 106.055 49.8728C106.162 49.9261 106.248 50.0061 106.315 50.1128C106.382 50.2061 106.415 50.3128 106.415 50.4328C106.415 50.5128 106.395 50.5928 106.355 50.6728C106.342 50.7128 106.328 50.7528 106.315 50.7928C106.302 50.8194 106.288 50.8461 106.275 50.8728C106.128 51.3394 105.895 51.6661 105.575 51.8528C105.268 52.0394 104.882 52.1328 104.415 52.1328ZM122.257 67.6328C121.843 67.6328 121.637 67.2194 121.637 66.3928V65.1128V63.8328C121.637 63.1661 121.59 62.2928 121.497 61.2128C121.39 59.9994 121.337 59.1661 121.337 58.7128L121.377 57.4728C121.403 57.1128 121.417 56.7061 121.417 56.2528C121.363 56.4261 121.143 57.3461 120.757 59.0128C120.37 60.6261 119.97 62.1194 119.557 63.4928C119.157 64.8128 118.83 65.4728 118.577 65.4728C118.323 65.4728 118.117 65.3994 117.957 65.2528C117.81 65.0928 117.737 64.8794 117.737 64.6128C117.737 64.0261 117.497 62.7794 117.017 60.8728C116.55 58.9661 116.123 57.4061 115.737 56.1928L115.617 58.4528C115.51 60.3594 115.437 61.9461 115.397 63.2128C115.37 64.4394 115.357 65.2794 115.357 65.7328C115.357 65.8394 115.363 65.9394 115.377 66.0328V66.3128C115.377 66.5394 115.33 66.7061 115.237 66.8128C115.143 66.9328 114.97 66.9928 114.717 66.9928C114.583 66.9928 114.457 66.9394 114.337 66.8328C114.217 66.7394 114.157 66.6328 114.157 66.5128C114.157 65.1528 114.257 63.1128 114.457 60.3928C114.657 57.6728 114.757 55.6328 114.757 54.2728C114.677 54.1528 114.637 54.0261 114.637 53.8928C114.637 53.7328 114.71 53.6128 114.857 53.5328C115.017 53.4394 115.203 53.3928 115.417 53.3928C115.59 53.3928 115.91 54.0194 116.377 55.2728C116.843 56.5261 117.31 57.9461 117.777 59.5328C118.243 61.1194 118.543 62.2661 118.677 62.9728C118.783 62.6128 118.87 62.2794 118.937 61.9728L119.057 61.4928C119.483 59.6261 119.91 57.9394 120.337 56.4328C120.59 55.5128 120.837 54.7928 121.077 54.2728C121.317 53.7128 121.537 53.4328 121.737 53.4328C121.923 53.4328 122.09 53.4861 122.237 53.5928C122.397 53.6861 122.477 53.8128 122.477 53.9728C122.477 54.9328 122.517 56.3728 122.597 58.2928C122.69 60.0794 122.737 61.4661 122.737 62.4528L122.717 63.5128L122.677 64.5728C122.677 64.7328 122.697 64.9728 122.737 65.2928L122.797 65.9928C122.81 66.1128 122.817 66.2061 122.817 66.2728C122.83 66.3394 122.837 66.3794 122.837 66.3928C122.903 66.5661 122.937 66.6928 122.937 66.7728C122.937 66.9994 122.87 67.1994 122.737 67.3728C122.603 67.5461 122.443 67.6328 122.257 67.6328ZM129.348 66.7728C129.041 66.7728 128.814 66.7261 128.668 66.6328C128.521 66.5394 128.448 66.3661 128.448 66.1128C128.448 65.7128 128.381 65.0328 128.248 64.0728L128.168 63.6528L126.188 63.3528C126.108 63.6594 125.994 64.2794 125.848 65.2128C125.768 65.8661 125.641 66.2994 125.468 66.5128C125.374 66.6328 125.241 66.6928 125.068 66.6928C124.908 66.6928 124.761 66.6461 124.628 66.5528C124.494 66.4461 124.428 66.3194 124.428 66.1728L124.468 66.0728L124.488 65.9928C125.368 62.5661 126.034 59.1861 126.488 55.8528C126.488 55.7994 126.494 55.7128 126.508 55.5928C126.521 55.4594 126.534 55.2728 126.548 55.0328C126.588 54.5394 126.628 54.1461 126.668 53.8528C126.721 53.5594 126.801 53.3394 126.908 53.1928H127.588C127.774 53.1928 127.934 53.2394 128.068 53.3328C128.201 53.4128 128.268 53.5328 128.268 53.6928C128.268 54.7061 128.408 56.2128 128.688 58.2128C128.954 60.2661 129.088 61.7061 129.088 62.5328C129.088 62.6128 129.121 62.8194 129.188 63.1528C129.254 63.4594 129.288 63.6594 129.288 63.7528C129.288 63.8461 129.354 64.2461 129.488 64.9528C129.608 65.5928 129.668 66.0061 129.668 66.1928V66.2128C129.668 66.5061 129.561 66.6928 129.348 66.7728ZM128.028 62.9328C127.988 62.7328 127.968 62.4861 127.968 62.1928C127.968 60.9928 127.861 59.4594 127.648 57.5928L127.448 55.5128C126.874 58.6461 126.481 61.0128 126.268 62.6128C126.468 62.7461 127.054 62.8528 128.028 62.9328ZM131.824 66.7328C131.651 66.0261 131.564 65.0461 131.564 63.7928L131.604 62.0128C131.631 61.4794 131.644 60.8861 131.644 60.2328C131.564 60.0461 131.524 59.8794 131.524 59.7328V59.6728C131.657 59.4194 131.724 58.8461 131.724 57.9528L131.744 57.0328C131.757 56.7394 131.764 56.4128 131.764 56.0528C131.764 55.2661 131.711 54.6461 131.604 54.1928C131.644 54.0061 131.711 53.8461 131.804 53.7128C131.897 53.5661 132.011 53.4928 132.144 53.4928H133.024C133.397 53.4928 133.724 53.5794 134.004 53.7528C134.284 53.9128 134.497 54.1461 134.644 54.4528C134.911 54.9994 135.044 55.6461 135.044 56.3928C135.044 56.9261 135.037 57.3461 135.024 57.6528C134.997 58.0394 134.931 58.3928 134.824 58.7128C134.784 58.8861 134.724 59.0328 134.644 59.1528C134.577 59.2594 134.477 59.3928 134.344 59.5528C134.157 59.7794 133.851 59.9928 133.424 60.1928C133.251 60.2861 133.024 60.3728 132.744 60.4528V62.5928L132.784 63.8728L132.824 64.4928C132.877 65.2394 132.904 65.8728 132.904 66.3928C132.904 66.5528 132.837 66.6861 132.704 66.7928C132.571 66.9128 132.417 66.9728 132.244 66.9728L131.824 66.7328ZM132.764 59.6328C133.551 59.5128 133.944 58.3861 133.944 56.2528C133.944 55.8661 133.924 55.5661 133.884 55.3528C133.844 55.1928 133.791 55.0661 133.724 54.9728C133.657 54.8661 133.557 54.7794 133.424 54.7128C133.277 54.6328 133.117 54.5928 132.944 54.5928C132.944 54.5794 132.871 54.5728 132.724 54.5728V55.7128C132.724 56.4994 132.731 57.1994 132.744 57.8128C132.744 58.5061 132.751 58.9594 132.764 59.1728V59.5928V59.6328ZM139.029 66.7528C138.669 66.7528 138.269 66.7061 137.829 66.6128C137.669 66.5728 137.562 66.4928 137.509 66.3728C137.469 66.2528 137.449 66.1061 137.449 65.9328C137.409 65.1061 137.376 63.8594 137.349 62.1928V60.9328C137.349 60.0928 137.336 59.4594 137.309 59.0328C137.296 58.8728 137.216 57.6861 137.069 55.4728L136.969 53.8528C136.969 53.6928 136.996 53.5861 137.049 53.5328C137.102 53.4661 137.196 53.4328 137.329 53.4328C137.796 53.4328 138.056 53.6261 138.109 54.0128C138.216 54.6928 138.289 55.3194 138.329 55.8928C138.382 56.9328 138.409 57.7194 138.409 58.2528L138.389 59.8728C138.362 60.6194 138.349 61.1661 138.349 61.5128C138.349 62.4728 138.396 63.6328 138.489 64.9928L138.529 65.7728C138.529 65.8128 138.542 65.8661 138.569 65.9328C138.609 65.9328 138.849 65.9394 139.289 65.9528C139.729 65.9528 139.949 65.9128 139.949 65.8328C139.962 65.6461 139.962 65.4794 139.949 65.3328C139.949 65.1861 139.949 65.0594 139.949 64.9528C139.936 64.8194 139.929 64.6261 139.929 64.3728C139.929 63.0394 139.922 62.0394 139.909 61.3728L139.849 59.1128C139.796 57.4328 139.769 56.1861 139.769 55.3728C139.769 54.7994 139.789 54.2461 139.829 53.7128C139.842 53.5394 139.882 53.4261 139.949 53.3728C140.029 53.3061 140.162 53.2861 140.349 53.3128C140.616 53.3528 140.782 53.4194 140.849 53.5128C140.929 53.6061 140.962 53.7794 140.949 54.0328C140.869 54.8194 140.829 55.7994 140.829 56.9728L140.849 58.7528C140.862 59.1394 140.869 59.7194 140.869 60.4928C140.842 61.7994 140.829 62.7661 140.829 63.3928C140.856 64.0061 140.882 64.4794 140.909 64.8128L140.969 65.8128H142.769V65.0528L142.789 61.8528C142.789 61.1461 142.782 60.6128 142.769 60.2528C142.756 59.6794 142.736 59.0128 142.709 58.2528C142.682 57.4794 142.662 56.8928 142.649 56.4928L142.589 54.5728C142.589 54.1328 142.596 53.7994 142.609 53.5728C142.622 53.4394 142.656 53.3528 142.709 53.3128C142.762 53.2594 142.869 53.2328 143.029 53.2328C143.282 53.2461 143.462 53.3128 143.569 53.4328C143.676 53.5528 143.722 53.7394 143.709 53.9928L143.729 56.5728L143.749 57.0728C143.776 57.5261 143.789 57.8594 143.789 58.0728C143.789 58.3661 143.782 58.6194 143.769 58.8328C143.756 59.0461 143.742 59.2194 143.729 59.3528C143.676 59.9394 143.649 60.3794 143.649 60.6728L143.669 61.1928C143.696 61.4328 143.709 61.6128 143.709 61.7328C143.722 61.9461 143.722 62.1394 143.709 62.3128C143.709 62.4728 143.709 62.6061 143.709 62.7128V63.6928C143.709 63.9728 143.716 64.2194 143.729 64.4328C143.742 64.6461 143.756 64.8261 143.769 64.9728L143.809 65.4128C143.809 65.4661 143.822 65.5328 143.849 65.6128C143.889 65.6928 143.916 65.7528 143.929 65.7928C143.982 65.9261 144.009 66.0261 144.009 66.0928C144.009 66.3061 143.882 66.4461 143.629 66.5128C143.362 66.5794 143.029 66.6128 142.629 66.6128L140.169 66.6528C139.982 66.6528 139.796 66.6728 139.609 66.7128C139.342 66.7394 139.149 66.7528 139.029 66.7528ZM146.844 66.7328C146.67 66.0261 146.584 65.0461 146.584 63.7928L146.624 62.0128C146.65 61.4794 146.664 60.8861 146.664 60.2328C146.584 60.0461 146.544 59.8794 146.544 59.7328V59.6728C146.677 59.4194 146.744 58.8461 146.744 57.9528L146.764 57.0328C146.777 56.7394 146.784 56.4128 146.784 56.0528C146.784 55.2661 146.73 54.6461 146.624 54.1928C146.664 54.0061 146.73 53.8461 146.824 53.7128C146.917 53.5661 147.03 53.4928 147.164 53.4928H148.044C148.417 53.4928 148.744 53.5794 149.024 53.7528C149.304 53.9128 149.517 54.1461 149.664 54.4528C149.93 54.9994 150.064 55.6461 150.064 56.3928C150.064 56.9261 150.057 57.3461 150.044 57.6528C150.017 58.0394 149.95 58.3928 149.844 58.7128C149.804 58.8861 149.744 59.0328 149.664 59.1528C149.597 59.2594 149.497 59.3928 149.364 59.5528C149.177 59.7794 148.87 59.9928 148.444 60.1928C148.27 60.2861 148.044 60.3728 147.764 60.4528V62.5928L147.804 63.8728L147.844 64.4928C147.897 65.2394 147.924 65.8728 147.924 66.3928C147.924 66.5528 147.857 66.6861 147.724 66.7928C147.59 66.9128 147.437 66.9728 147.264 66.9728L146.844 66.7328ZM147.784 59.6328C148.57 59.5128 148.964 58.3861 148.964 56.2528C148.964 55.8661 148.944 55.5661 148.904 55.3528C148.864 55.1928 148.81 55.0661 148.744 54.9728C148.677 54.8661 148.577 54.7794 148.444 54.7128C148.297 54.6328 148.137 54.5928 147.964 54.5928C147.964 54.5794 147.89 54.5728 147.744 54.5728V55.7128C147.744 56.4994 147.75 57.1994 147.764 57.8128C147.764 58.5061 147.77 58.9594 147.784 59.1728V59.5928V59.6328ZM152.949 66.7928C152.829 66.7928 152.715 66.7328 152.609 66.6128C152.515 66.4928 152.495 66.3728 152.549 66.2528C152.589 66.1328 152.682 65.9328 152.829 65.6528C153.242 64.9728 153.515 64.0528 153.649 62.8928C153.662 62.8128 153.609 62.7128 153.489 62.5928C153.382 62.4594 153.315 62.3594 153.289 62.2928L153.009 61.8928C152.729 61.5061 152.495 61.1528 152.309 60.8328C152.135 60.4994 151.969 60.0594 151.809 59.5128C151.742 59.2861 151.695 59.0461 151.669 58.7928C151.642 58.5261 151.629 58.3594 151.629 58.2928L151.589 57.8328C151.575 57.6061 151.555 57.4061 151.529 57.2328C151.502 57.0461 151.482 56.8928 151.469 56.7728C151.349 55.9994 151.289 55.3661 151.289 54.8728C151.289 54.6861 151.295 54.5461 151.309 54.4528C151.322 54.2528 151.322 54.0728 151.309 53.9128C151.309 53.7528 151.309 53.6194 151.309 53.5128C151.322 53.2461 151.415 53.1128 151.589 53.1128C151.629 53.1128 151.702 53.1261 151.809 53.1528C152.302 53.2994 152.549 53.5794 152.549 53.9928C152.549 54.0994 152.535 54.2994 152.509 54.5928L152.449 55.4128C152.449 55.7861 152.455 56.0661 152.469 56.2528C152.575 57.3594 152.695 58.4528 152.829 59.5328C152.869 59.8261 152.962 60.0994 153.109 60.3528C153.269 60.5928 153.429 60.7928 153.589 60.9528C153.762 61.0994 153.862 61.1728 153.889 61.1728C153.969 60.9328 154.015 60.7728 154.029 60.6928C154.109 59.5061 154.155 58.6328 154.169 58.0728C154.182 57.6061 154.189 56.8328 154.189 55.7528V53.4128C154.202 53.3061 154.229 53.2328 154.269 53.1928C154.322 53.1394 154.409 53.1128 154.529 53.1128C154.795 53.1128 155.015 53.2128 155.189 53.4128C155.362 53.5994 155.429 53.8261 155.389 54.0928C155.349 54.4128 155.329 54.8394 155.329 55.3728C155.329 55.6928 155.335 55.9128 155.349 56.0328C155.362 56.1528 155.369 56.3194 155.369 56.5328C155.369 56.8661 155.342 57.3394 155.289 57.9528C155.289 58.0994 155.275 58.3328 155.249 58.6528C155.222 59.0528 155.155 59.6661 155.049 60.4928L154.969 61.1528C154.889 61.9528 154.729 62.9394 154.489 64.1128C154.409 64.4861 154.289 64.8794 154.129 65.2928C153.969 65.6928 153.789 66.0661 153.589 66.4128C153.549 66.5061 153.462 66.5928 153.329 66.6728C153.195 66.7528 153.069 66.7928 152.949 66.7928ZM158.52 66.2728L158.5 65.4928C158.486 65.2661 158.48 65.0128 158.48 64.7328L158.5 64.0528C158.46 63.9061 158.36 62.4461 158.2 59.6728C158.04 56.8994 157.946 55.1194 157.92 54.3328C157.146 54.3061 156.653 54.2261 156.44 54.0928C156.293 53.9861 156.22 53.8661 156.22 53.7328C156.22 53.6261 156.286 53.5328 156.42 53.4528C156.566 53.3594 156.713 53.3128 156.86 53.3128C157.233 53.3128 157.686 53.3394 158.22 53.3928C158.726 53.4594 159.18 53.4928 159.58 53.4928H159.74H159.9C160.313 53.4928 160.52 53.6528 160.52 53.9728C160.52 54.1328 160.453 54.2661 160.32 54.3728C160.186 54.4661 160.033 54.5128 159.86 54.5128C159.74 54.5128 159.566 54.4928 159.34 54.4528L158.94 54.3728L158.92 54.4728L158.9 54.5728C158.9 55.7594 159.013 57.6528 159.24 60.2528C159.453 62.6928 159.56 64.5861 159.56 65.9328C159.56 66.0928 159.486 66.2328 159.34 66.3528C159.206 66.4728 159.053 66.5328 158.88 66.5328L158.52 66.2728Z" fill="#9F5AA7"/>
</svg>
