<svg width="852" height="868" viewBox="0 0 852 868" fill="none" xmlns="http://www.w3.org/2000/svg">
<path d="M465.51 662.109H493.326C518.213 662.109 538.709 669.515 538.709 696.177C538.709 721.358 518.213 730.246 493.326 730.246H465.51V662.109ZM493.326 785.051C557.741 785.051 610.444 761.352 610.444 696.177C610.444 629.522 559.205 605.823 493.326 605.823H263.749V662.109H283.147L252.403 736.171L206.288 662.109H227.516V605.823H91.3659V662.109H122.841L214.34 798.382C207.02 808.751 190.916 813.195 173.349 807.27L171.885 776.164H114.79V853.188C132.357 862.075 158.709 868 180.668 868C227.516 868 268.507 856.15 306.571 779.126L362.202 662.109H390.847V808.751H361.568V863.556H496.254V807.27H465.51V785.051H493.326ZM579.7 358.457V302.171H487.47L404.023 448.812V358.457H423.055V302.171H308.865V358.457H329.36V505.099H308.865V561.386H401.095L484.542 417.706V505.099H465.51V561.386H579.7V505.099H557.741V358.457H579.7ZM737.81 358.457H756.841V402.894H686.571V358.457H707.066V302.171H592.876V358.457H613.372V505.099H592.876V561.386H707.066V505.099H686.571V457.7H756.841V505.099H737.81V561.386H852V505.099H830.04V358.457H852V302.171H737.81V358.457ZM209.314 505.099H174.179V485.843H197.602C263.481 485.843 305.937 450.294 305.937 392.526C305.937 336.239 262.017 302.171 197.602 302.171H76.0922V359.939H100.98V505.099H76.0922V561.386H209.314V505.099ZM174.179 358.457H187.354C215.17 358.457 229.81 370.307 229.81 394.007C229.81 417.706 215.17 429.556 187.354 429.556H174.179V358.457ZM623.62 605.823V663.59H651.435V808.751H623.62V863.556H759.769V808.751H724.634V663.59H790.513V691.734H846.144V605.823H623.62ZM-20.5303 699.881H-62.9856V662.109H4.35735V684.328H64.3804V605.823H-164V662.109H-137.648V807.27H-164V863.556H-20.5303C38.0288 863.556 86.3401 843.93 86.3401 781.718C86.3401 719.507 40.9568 699.881 -20.5303 699.881ZM-21.9942 807.27H-62.9856V753.205H-21.9942C-1.49855 753.205 16.0692 758.019 16.0692 780.237C16.0692 802.456 -0.0345764 807.27 -21.9942 807.27ZM621.949 201.447L545.822 0H402.353V56.2867H421.384L365.753 198.485C315.978 201.447 293.389 182.191 286.069 142.198C312.421 127.386 338.772 94.7986 338.772 56.2867H369.516V0H248.006V56.2867H269.965C269.965 84.43 249.47 100.724 215.798 100.724H189.447V56.2867H214.334V0H85.5041V56.2867H116.248V201.447H85.5041V257.734H211.406V201.447H189.447V157.01H218.726C230.438 198.485 253.861 231.072 284.605 244.403C316.812 257.734 328.334 257.734 416.173 257.734H466.768V201.447H443.344L449.2 182.191H534.111L539.966 201.447H519.471V257.734H648.301V201.447H621.949ZM468.232 125.904L490.191 63.6928L513.615 125.904H468.232ZM64.3804 171.823H7.28531V201.447H-62.9856V155.529H2.89337V99.2423H-62.9856V56.2867H7.28531V85.9113H64.3804V0H-164V56.2867H-136.184V201.447H-164V257.734H64.3804V171.823ZM606.052 0V84.43H660.219V56.2867H690.963V201.447H664.611V257.734H793.441V201.447H765.625V56.2867H796.369V84.43H852V0H606.052ZM64.3804 475.474H7.28531V505.099H-62.9856V459.181H2.89337V402.894H-62.9856V358.457H7.28531V388.082H64.3804V302.171H-164V358.457H-136.184V505.099H-164V561.386H64.3804V475.474Z" fill="url(#paint0_linear_318_8349)"/>
<defs>
<linearGradient id="paint0_linear_318_8349" x1="344" y1="0" x2="344" y2="868" gradientUnits="userSpaceOnUse">
<stop offset="0.19732" stop-color="#F1F7F9"/>
<stop offset="1" stop-color="white"/>
</linearGradient>
</defs>
</svg>
