<svg width="1016" height="868" viewBox="0 0 1016 868" fill="none" xmlns="http://www.w3.org/2000/svg">
<path d="M629.51 662.109H657.326C682.213 662.109 702.709 669.515 702.709 696.177C702.709 721.358 682.213 730.246 657.326 730.246H629.51V662.109ZM657.326 785.051C721.741 785.051 774.444 761.352 774.444 696.177C774.444 629.522 723.205 605.823 657.326 605.823H427.749V662.109H447.147L416.403 736.171L370.288 662.109H391.516V605.823H255.366V662.109H286.841L378.34 798.382C371.02 808.751 354.916 813.195 337.349 807.27L335.885 776.164H278.79V853.188C296.357 862.075 322.709 868 344.668 868C391.516 868 432.507 856.15 470.571 779.126L526.202 662.109H554.847V808.751H525.568V863.556H660.254V807.27H629.51V785.051H657.326ZM743.7 358.457V302.171H651.47L568.023 448.812V358.457H587.055V302.171H472.865V358.457H493.36V505.099H472.865V561.386H565.095L648.542 417.706V505.099H629.51V561.386H743.7V505.099H721.741V358.457H743.7ZM901.81 358.457H920.842V402.894H850.571V358.457H871.066V302.171H756.876V358.457H777.372V505.099H756.876V561.386H871.066V505.099H850.571V457.7H920.842V505.099H901.81V561.386H1016V505.099H994.04V358.457H1016V302.171H901.81V358.457ZM373.314 505.099H338.179V485.843H361.602C427.481 485.843 469.937 450.294 469.937 392.526C469.937 336.239 426.017 302.171 361.602 302.171H240.092V359.939H264.98V505.099H240.092V561.386H373.314V505.099ZM338.179 358.457H351.354C379.17 358.457 393.81 370.307 393.81 394.007C393.81 417.706 379.17 429.556 351.354 429.556H338.179V358.457ZM787.62 605.823V663.59H815.435V808.751H787.62V863.556H923.769V808.751H888.634V663.59H954.513V691.734H1010.14V605.823H787.62ZM143.47 699.881H101.014V662.109H168.357V684.328H228.38V605.823H0V662.109H26.3516V807.27H0V863.556H143.47C202.029 863.556 250.34 843.93 250.34 781.718C250.34 719.507 204.957 699.881 143.47 699.881ZM142.006 807.27H101.014V753.205H142.006C162.501 753.205 180.069 758.019 180.069 780.237C180.069 802.456 163.965 807.27 142.006 807.27ZM785.949 201.447L709.822 0H566.353V56.2867H585.384L529.753 198.485C479.978 201.447 457.389 182.191 450.069 142.198C476.421 127.386 502.772 94.7986 502.772 56.2867H533.516V0H412.006V56.2867H433.965C433.965 84.43 413.47 100.724 379.798 100.724H353.446V56.2867H378.334V0H249.504V56.2867H280.248V201.447H249.504V257.734H375.406V201.447H353.446V157.01H382.726C394.438 198.485 417.861 231.072 448.605 244.403C480.812 257.734 492.334 257.734 580.173 257.734H630.768V201.447H607.344L613.2 182.191H698.111L703.967 201.447H683.471V257.734H812.301V201.447H785.949ZM632.232 125.904L654.191 63.6928L677.615 125.904H632.232ZM228.38 171.823H171.285V201.447H101.014V155.529H166.893V99.2423H101.014V56.2867H171.285V85.9113H228.38V0H0V56.2867H27.8156V201.447H0V257.734H228.38V171.823ZM770.052 0V84.43H824.219V56.2867H854.963V201.447H828.611V257.734H957.441V201.447H929.625V56.2867H960.369V84.43H1016V0H770.052ZM228.38 475.474H171.285V505.099H101.014V459.181H166.893V402.894H101.014V358.457H171.285V388.082H228.38V302.171H0V358.457H27.8156V505.099H0V561.386H228.38V475.474Z" fill="white" fill-opacity="0.02"/>
</svg>
