<svg width="47" height="40" viewBox="0 0 47 40" fill="none" xmlns="http://www.w3.org/2000/svg">
<g clip-path="url(#clip0_4351_8983)">
<path d="M29.121 30.5118H30.4078C31.5591 30.5118 32.5072 30.8531 32.5072 32.0817C32.5072 33.2422 31.5591 33.6517 30.4078 33.6517H29.121V30.5118ZM30.4078 36.1773C33.3876 36.1773 35.8256 35.0851 35.8256 32.0817C35.8256 29.0101 33.4553 27.9179 30.4078 27.9179H19.7876V30.5118H20.6849L19.2628 33.9247L17.1295 30.5118H18.1115V27.9179H11.8132V30.5118H13.2692L17.5019 36.7916C17.1633 37.2694 16.4184 37.4742 15.6057 37.2012L15.538 35.7677H12.8968V39.3172C13.7094 39.7268 14.9285 39.9998 15.9443 39.9998C18.1115 39.9998 20.0077 39.4537 21.7685 35.9043L24.342 30.5118H25.6671V37.2694H24.3127V39.795H30.5432V37.2012H29.121V36.1773H30.4078ZM34.4035 16.5187V13.9248H30.1369L26.2767 20.6825V16.5187H27.1571V13.9248H21.8746V16.5187H22.8228V23.2763H21.8746V25.8702H26.1412L30.0014 19.249V23.2763H29.121V25.8702H34.4035V23.2763H33.3876V16.5187H34.4035ZM41.7176 16.5187H42.598V18.5665H39.3473V16.5187H40.2954V13.9248H35.013V16.5187H35.9611V23.2763H35.013V25.8702H40.2954V23.2763H39.3473V21.092H42.598V23.2763H41.7176V25.8702H47V23.2763H45.9841V16.5187H47V13.9248H41.7176V16.5187ZM17.2695 23.2763H15.6441V22.389H16.7277C19.7752 22.389 21.7392 20.7507 21.7392 18.0886C21.7392 15.4948 19.7075 13.9248 16.7277 13.9248H11.1066V16.5869H12.2579V23.2763H11.1066V25.8702H17.2695V23.2763ZM15.6441 16.5187H16.2536C17.5403 16.5187 18.2176 17.0648 18.2176 18.1569C18.2176 19.249 17.5403 19.7951 16.2536 19.7951H15.6441V16.5187ZM36.4352 27.9179V30.58H37.7219V37.2694H36.4352V39.795H42.7334V37.2694H41.1081V30.58H44.1556V31.877H46.7291V27.9179H36.4352ZM6.63689 32.2524H4.67291V30.5118H7.78818V31.5357H10.5648V27.9179H0V30.5118H1.21902V37.2012H0V39.795H6.63689C9.34582 39.795 11.5807 38.8906 11.5807 36.0237C11.5807 33.1568 9.48127 32.2524 6.63689 32.2524ZM6.56916 37.2012H4.67291V34.7097H6.56916C7.51729 34.7097 8.32997 34.9316 8.32997 35.9554C8.32997 36.9793 7.58501 37.2012 6.56916 37.2012ZM36.3579 9.28323L32.8363 0H26.1994V2.59384H27.0798L24.5063 9.14671C22.2037 9.28323 21.1587 8.39586 20.8201 6.55287C22.0391 5.87028 23.2582 4.36858 23.2582 2.59384H24.6803V0H19.0593V2.59384H20.0752C20.0752 3.89077 19.127 4.64161 17.5694 4.64161H16.3504V2.59384H17.5017V0H11.542V2.59384H12.9642V9.28323H11.542V11.8771H17.3662V9.28323H16.3504V7.23546H17.7048C18.2466 9.14671 19.3302 10.6484 20.7524 11.2627C22.2423 11.8771 22.7753 11.8771 26.8387 11.8771H29.1792V9.28323H28.0956L28.3665 8.39586H32.2945L32.5654 9.28323H31.6173V11.8771H37.5769V9.28323H36.3579ZM29.2469 5.80202L30.2628 2.93514L31.3464 5.80202H29.2469ZM10.5648 7.91805H7.92363V9.28323H4.67291V7.1672H7.72046V4.57336H4.67291V2.59384H7.92363V3.95902H10.5648V0H0V2.59384H1.28674V9.28323H0V11.8771H10.5648V7.91805ZM35.6225 0V3.89077H38.1282V2.59384H39.5504V9.28323H38.3314V11.8771H44.2911V9.28323H43.0043V2.59384H44.4265V3.89077H47V0H35.6225ZM10.5648 21.9112H7.92363V23.2763H4.67291V21.1603H7.72046V18.5665H4.67291V16.5187H7.92363V17.8839H10.5648V13.9248H0V16.5187H1.28674V23.2763H0V25.8702H10.5648V21.9112Z" fill="#202020"/>
</g>
<defs>
<clipPath id="clip0_4351_8983">
<rect width="47" height="40" fill="white"/>
</clipPath>
</defs>
</svg>
