<svg width="19" height="19" viewBox="0 0 19 19" fill="none" xmlns="http://www.w3.org/2000/svg">
<path d="M9.50004 0C4.25369 0 0 4.25367 0 9.5C0 14.7463 4.25369 19 9.50004 19C14.7464 19 19 14.7462 19 9.5C19 4.25367 14.7464 0 9.50004 0ZM14.5167 13.8616L13.756 14.6224C13.6202 14.758 13.2226 14.8426 13.2098 14.8426C10.8035 14.8636 8.4865 13.9184 6.78414 12.2159C5.07711 10.5079 4.13081 8.18264 4.15622 5.76819C4.15622 5.76709 4.24331 5.38084 4.37899 5.24645L5.13961 4.48572C5.41794 4.20609 5.95261 4.07973 6.32716 4.20504L6.48716 4.25841C6.86061 4.3836 7.2527 4.79652 7.35589 5.17694L7.7385 6.58123C7.84168 6.96275 7.70252 7.50552 7.42426 7.78385L6.91637 8.29181C7.41502 10.1378 8.86344 11.5865 10.7098 12.0864L11.2174 11.5783C11.4971 11.2986 12.0396 11.1596 12.4203 11.2626L13.8244 11.6466C14.2049 11.7512 14.6178 12.1408 14.7429 12.5141L14.7963 12.6764C14.9204 13.0499 14.795 13.5845 14.5167 13.8616Z" fill="#64AE60"/>
</svg>
