<svg width="19" height="19" viewBox="0 0 19 19" fill="none" xmlns="http://www.w3.org/2000/svg">
<circle cx="9.5" cy="9.5" r="9.5" fill="#1AA1E0"/>
<path d="M14.0588 5.58691C14.0271 5.58691 13.9909 5.59144 13.9592 5.60502L5.2096 8.93197C4.96064 9.02702 4.96969 9.37556 5.21865 9.46157L7.2465 10.1451L8.46865 12.5939L8.47317 12.5984C8.49581 12.6437 8.54107 12.6708 8.59086 12.6708C8.61802 12.6708 8.64971 12.6618 8.67686 12.6391L9.82206 11.666L8.54107 10.6973L8.64065 11.9738L7.72178 10.0681L12.6104 7.13044L8.54107 10.6928L11.7096 13.0963C11.8137 13.1778 11.9359 13.214 12.0581 13.214C12.3071 13.214 12.5515 13.051 12.6194 12.7749L14.3304 5.9264C14.3757 5.75439 14.2308 5.58691 14.0588 5.58691Z" fill="white"/>
</svg>
