<svg width="493" height="193" viewBox="0 0 493 193" fill="none" xmlns="http://www.w3.org/2000/svg">
<path d="M362.354 22.1074L363.246 22.5581L362.354 22.1074ZM492.983 108.317C493.084 108.86 492.727 109.383 492.184 109.484L483.337 111.137C482.794 111.238 482.271 110.88 482.17 110.337C482.069 109.795 482.427 109.272 482.969 109.171L490.833 107.702L489.364 99.8377C489.263 99.2948 489.621 98.7725 490.164 98.671C490.706 98.5696 491.229 98.9275 491.33 99.4704L492.983 108.317ZM199.584 121.605C200.553 121.162 201.512 120.733 202.461 120.316L203.265 122.148C202.325 122.56 201.375 122.985 200.416 123.424L199.584 121.605ZM208.065 117.964C210.037 117.174 211.966 116.442 213.853 115.763L214.53 117.645C212.665 118.315 210.759 119.04 208.808 119.821L208.065 117.964ZM219.696 113.786C221.71 113.148 223.675 112.572 225.593 112.052L226.117 113.982C224.226 114.495 222.288 115.063 220.3 115.693L219.696 113.786ZM231.556 110.574C233.621 110.111 235.63 109.712 237.586 109.368L237.932 111.338C236.006 111.676 234.028 112.069 231.993 112.525L231.556 110.574ZM243.674 108.447C245.779 108.179 247.82 107.972 249.802 107.812L249.962 109.806C248.009 109.963 245.999 110.167 243.926 110.431L243.674 108.447ZM255.947 107.451C258.059 107.37 260.102 107.333 262.084 107.321L262.095 109.321C260.13 109.332 258.11 109.369 256.024 109.449L255.947 107.451ZM268.192 107.351C270.301 107.377 272.332 107.411 274.316 107.427L274.301 109.427C272.311 109.411 270.264 109.377 268.167 109.351L268.192 107.351ZM280.386 107.386C282.442 107.33 284.444 107.22 286.41 107.021L286.611 109.011C284.585 109.216 282.532 109.329 280.44 109.386L280.386 107.386ZM292.332 106.103C294.252 105.688 296.154 105.149 298.055 104.453L298.742 106.331C296.749 107.061 294.758 107.625 292.755 108.058L292.332 106.103ZM303.5 102.005C305.172 101.107 306.86 100.062 308.573 98.8468L309.73 100.478C307.952 101.74 306.194 102.828 304.445 103.767L303.5 102.005ZM313.264 95.1361C314.696 93.8873 316.151 92.5119 317.635 90.997L319.063 92.3966C317.546 93.946 316.053 95.3576 314.579 96.6433L313.264 95.1361ZM321.725 86.5475C322.989 85.0896 324.276 83.5304 325.588 81.8627L327.16 83.0995C325.83 84.7903 324.523 86.3741 323.237 87.8576L321.725 86.5475ZM329.278 76.9792C330.418 75.4106 331.579 73.7617 332.761 72.0284L334.413 73.1552C333.22 74.9041 332.048 76.5695 330.895 78.1554L329.278 76.9792ZM336.096 66.9999C337.172 65.3365 338.265 63.605 339.377 61.8029L341.079 62.8532C339.96 64.6665 338.859 66.4098 337.776 68.0855L336.096 66.9999ZM342.517 56.6123C343.521 54.9194 344.541 53.1706 345.578 51.3639L347.312 52.359C346.271 54.1738 345.246 55.9312 344.236 57.633L342.517 56.6123ZM348.604 46.0055C349.559 44.2911 350.527 42.5291 351.509 40.7184L353.267 41.6719C352.281 43.4888 351.31 45.2571 350.352 46.9782L348.604 46.0055ZM354.423 35.2802C355.345 33.5393 356.28 31.7566 357.227 29.9313L359.002 30.8526C358.053 32.6827 357.115 34.4703 356.19 36.2164L354.423 35.2802ZM360.031 24.4769C360.504 23.5472 360.981 22.6073 361.461 21.6568L363.246 22.5581C362.765 23.5106 362.288 24.4528 361.813 25.3846L360.031 24.4769ZM361.461 21.6568C361.935 20.7171 362.415 19.8124 362.901 18.9421L364.647 19.9164C364.176 20.7616 363.709 21.6419 363.246 22.5581L361.461 21.6568ZM366.011 13.9365C367.216 12.2056 368.451 10.6587 369.717 9.28815L371.186 10.645C369.989 11.9415 368.81 13.4156 367.652 15.0791L366.011 13.9365ZM374.179 5.26366C375.894 4.00641 377.654 3.02822 379.456 2.31341L380.194 4.17249C378.56 4.82069 376.947 5.71367 375.361 6.87667L374.179 5.26366ZM385.365 0.905937C387.358 0.726524 389.376 0.825272 391.41 1.17123L391.074 3.1429C389.195 2.82322 387.351 2.73528 385.544 2.89789L385.365 0.905937ZM397.197 2.78252C398.992 3.46711 400.797 4.31834 402.606 5.31667L401.64 7.06783C399.901 6.10847 398.182 5.29843 396.484 4.65129L397.197 2.78252ZM407.646 8.45487C409.217 9.54029 410.792 10.7243 412.369 11.9953L411.114 13.5524C409.571 12.3087 408.035 11.1548 406.509 10.1004L407.646 8.45487ZM416.836 15.8167C418.256 17.0995 419.677 18.4451 421.096 19.8453L419.692 21.2693C418.291 19.8876 416.892 18.5623 415.495 17.3009L416.836 15.8167ZM425.192 24.0336C426.514 25.4324 427.835 26.8728 429.152 28.3481L427.66 29.6802C426.354 28.2177 425.047 26.7914 423.738 25.4075L425.192 24.0336ZM433 32.7634C434.255 34.2369 435.507 35.7371 436.753 37.2584L435.206 38.5258C433.967 37.0136 432.724 35.5233 431.478 34.0604L433 32.7634ZM440.422 41.813C441.627 43.332 442.826 44.8659 444.018 46.4096L442.435 47.632C441.248 46.0945 440.054 44.5674 438.855 43.0558L440.422 41.813ZM447.563 51.0522C448.738 52.6075 449.905 54.1675 451.064 55.727L449.458 56.9195C448.303 55.3638 447.139 53.8083 445.967 52.2579L447.563 51.0522ZM454.527 60.421C455.682 61.9964 456.827 63.5661 457.961 65.1246L456.344 66.301C455.211 64.744 454.068 63.1765 452.914 61.6038L454.527 60.421ZM461.392 69.8514C462.548 71.447 463.69 73.0241 464.818 74.5776L463.2 75.7525C462.071 74.1982 460.928 72.6201 459.772 71.0251L461.392 69.8514ZM468.251 79.2913C469.422 80.8915 470.574 82.4569 471.706 83.9803L470.101 85.173C468.965 83.6447 467.81 82.0753 466.637 80.4722L468.251 79.2913ZM475.202 88.6306C476.419 90.2273 477.608 91.761 478.767 93.2218L477.201 94.4651C476.032 92.9922 474.835 91.448 473.611 89.843L475.202 88.6306ZM482.441 97.7159C483.77 99.2859 485.049 100.729 486.275 102.027L484.821 103.4C483.565 102.07 482.262 100.599 480.915 99.008L482.441 97.7159ZM490.371 105.979C491.137 106.632 491.869 107.199 492.565 107.676L491.435 109.326C490.67 108.802 489.882 108.19 489.074 107.501L490.371 105.979Z" fill="#CFC3DE"/>
<path d="M127.646 103.594C101.646 96.0939 46.1463 95.0936 24.1462 107.094C2.1462 119.094 0.346233 136.994 1.14623 150.594C2.14623 167.594 10.1465 180.594 24.1462 187.094C42.2068 195.479 132.146 189.594 148.146 187.094C164.146 184.594 187.146 172.594 190.646 153.594C194.146 134.594 153.647 111.093 127.646 103.594Z" stroke="#CFC3DE" stroke-width="2" stroke-dasharray="6 6"/>
<path d="M50.8689 142.122C50.7222 142.122 50.5889 142.082 50.4689 142.002C50.3622 141.935 50.3089 141.849 50.3089 141.742C50.3089 141.702 50.3156 141.682 50.3289 141.682C50.8489 139.589 51.2756 137.815 51.6089 136.362C51.8756 135.175 52.0089 134.389 52.0089 134.002C52.0089 133.695 51.9622 133.322 51.8689 132.882C51.7889 132.442 51.6022 131.555 51.3089 130.222L50.8289 128.062C50.7889 127.902 50.7689 127.782 50.7689 127.702C50.7689 127.515 50.8089 127.382 50.8889 127.302C50.9822 127.209 51.0956 127.162 51.2289 127.162C51.4289 127.162 51.5756 127.322 51.6689 127.642C51.7756 128.002 51.9289 128.715 52.1289 129.782L52.2089 130.142L52.3689 130.922L52.6489 132.362L53.1289 130.022L53.5089 128.182C53.6422 127.649 53.7422 127.302 53.8089 127.142C53.9156 126.955 54.0289 126.862 54.1489 126.862C54.2822 126.862 54.3956 126.902 54.4889 126.982C54.5822 127.062 54.6289 127.169 54.6289 127.302C54.6289 127.649 54.4022 128.689 53.9489 130.422C53.6689 131.475 53.4622 132.309 53.3289 132.922C53.1956 133.522 53.1289 133.955 53.1289 134.222C53.1289 134.355 53.2556 135.062 53.5089 136.342C53.7622 137.622 53.9822 138.702 54.1689 139.582L54.3089 140.142C54.4422 140.649 54.5089 141.009 54.5089 141.222C54.5089 141.569 54.3889 141.742 54.1489 141.742C53.8156 141.742 53.6222 141.582 53.5689 141.262C53.5156 140.995 53.4156 140.455 53.2689 139.642L53.1089 138.722C52.8556 137.322 52.6689 136.369 52.5489 135.862C51.8822 138.849 51.4822 140.582 51.3489 141.062C51.1622 141.769 51.0022 142.122 50.8689 142.122ZM59.2631 142.382C58.9165 142.382 58.5965 142.269 58.3031 142.042C58.0098 141.829 57.7698 141.535 57.5831 141.162C57.1965 140.349 56.9565 139.462 56.8631 138.502C56.7431 137.595 56.6831 136.722 56.6831 135.882C56.6831 135.722 56.6898 135.589 56.7031 135.482V135.122C56.7031 135.055 56.6965 135.022 56.6831 135.022V134.662L56.7031 133.262C56.7165 132.835 56.7698 132.155 56.8631 131.222C56.9298 130.582 57.0831 129.962 57.3231 129.362C57.4165 129.095 57.5365 128.895 57.6831 128.762C57.8298 128.615 57.9965 128.542 58.1831 128.542C58.7165 128.542 59.1965 128.642 59.6231 128.842C60.0498 129.029 60.4098 129.295 60.7031 129.642C60.9698 129.975 61.1965 130.389 61.3831 130.882C61.5698 131.362 61.7031 131.875 61.7831 132.422C61.8631 132.982 61.9031 133.575 61.9031 134.202V134.362C61.9031 134.775 61.9098 135.149 61.9231 135.482L61.9431 136.622C61.9431 140.462 61.0498 142.382 59.2631 142.382ZM59.1831 141.542C59.4231 141.542 59.6431 141.449 59.8431 141.262C60.0431 141.062 60.1965 140.795 60.3031 140.462C60.5565 139.782 60.7098 139.049 60.7631 138.262C60.8298 137.582 60.8631 136.995 60.8631 136.502C60.8631 135.902 60.8165 135.115 60.7231 134.142C60.6431 133.115 60.6031 132.349 60.6031 131.842V131.482C60.5765 130.975 60.4031 130.535 60.0831 130.162C59.7765 129.789 59.3965 129.602 58.9431 129.602C58.4898 129.602 58.1898 129.862 58.0431 130.382C57.9098 130.795 57.8431 131.329 57.8431 131.982C57.8431 132.235 57.8498 132.449 57.8631 132.622V133.162L57.8231 134.082C57.7965 134.362 57.7831 134.669 57.7831 135.002C57.7831 135.722 57.8031 136.435 57.8431 137.142C57.8965 138.142 58.0298 139.115 58.2431 140.062C58.4565 141.049 58.7698 141.542 59.1831 141.542ZM67.8902 141.942C67.8368 141.982 67.7435 142.002 67.6102 142.002C67.5035 142.002 67.3902 141.989 67.2702 141.962C67.1635 141.935 67.0835 141.895 67.0302 141.842C66.9635 141.749 66.9168 141.609 66.8902 141.422C66.8768 141.222 66.8702 140.942 66.8702 140.582L66.8102 137.762C66.7968 137.455 66.7768 136.982 66.7502 136.342C66.7368 135.702 66.7368 135.355 66.7502 135.302L66.2102 136.402C65.9968 136.802 65.7102 137.002 65.3502 137.002C65.1368 137.002 64.9168 136.935 64.6902 136.802C64.0635 136.429 63.7368 135.842 63.7102 135.042V134.162C63.7102 133.429 63.7235 132.569 63.7502 131.582L63.8102 130.102C63.8102 130.035 63.8102 129.915 63.8102 129.742C63.8235 129.569 63.8502 129.415 63.8902 129.282C63.9302 129.149 63.9968 129.035 64.0902 128.942C64.1968 128.835 64.3302 128.782 64.4902 128.782C64.5835 128.782 64.6702 128.802 64.7502 128.842C64.9902 128.962 65.1102 129.215 65.1102 129.602C65.1102 129.735 65.0968 129.869 65.0702 130.002C65.0568 130.135 65.0502 130.255 65.0502 130.362L65.0102 130.962C64.9835 131.522 64.9568 131.929 64.9302 132.182L64.8702 132.942C64.8035 133.769 64.7702 134.302 64.7702 134.542C64.7702 134.849 64.7902 135.122 64.8302 135.362C64.8435 135.549 64.8902 135.735 64.9702 135.922C65.0635 136.095 65.1702 136.182 65.2902 136.182C65.3835 136.182 65.4902 136.115 65.6102 135.982C65.8635 135.649 66.0435 135.349 66.1502 135.082C66.3102 134.669 66.4502 134.215 66.5702 133.722C66.6902 133.215 66.7502 132.775 66.7502 132.402C66.7768 131.615 66.8168 130.822 66.8702 130.022C66.8702 129.862 66.8835 129.609 66.9102 129.262C66.9102 129.222 66.9102 129.162 66.9102 129.082C66.9235 129.002 66.9435 128.942 66.9702 128.902C67.0902 128.755 67.1902 128.675 67.2702 128.662C67.4835 128.609 67.6835 128.669 67.8702 128.842C68.0568 129.015 68.1435 129.209 68.1302 129.422L68.0702 130.302C68.0168 131.075 67.9568 131.655 67.8902 132.042C67.8102 132.442 67.7435 133.182 67.6902 134.262L67.6302 135.342C67.6168 135.449 67.6102 135.609 67.6102 135.822C67.6102 136.142 67.6368 136.609 67.6902 137.222C67.7168 137.449 67.7435 137.762 67.7702 138.162C67.7968 138.602 67.8635 139.262 67.9702 140.142C67.9968 140.382 68.0502 140.742 68.1302 141.222C68.1702 141.542 68.0902 141.782 67.8902 141.942ZM71.4759 142.202C71.3559 142.202 71.2426 142.142 71.1359 142.022C71.0426 141.902 71.0226 141.782 71.0759 141.662C71.1159 141.542 71.2093 141.342 71.3559 141.062C71.7693 140.382 72.0426 139.462 72.1759 138.302C72.1893 138.222 72.1359 138.122 72.0159 138.002C71.9093 137.869 71.8426 137.769 71.8159 137.702L71.5359 137.302C71.2559 136.915 71.0226 136.562 70.8359 136.242C70.6626 135.909 70.4959 135.469 70.3359 134.922C70.2693 134.695 70.2226 134.455 70.1959 134.202C70.1693 133.935 70.1559 133.769 70.1559 133.702L70.1159 133.242C70.1026 133.015 70.0826 132.815 70.0559 132.642C70.0293 132.455 70.0093 132.302 69.9959 132.182C69.8759 131.409 69.8159 130.775 69.8159 130.282C69.8159 130.095 69.8226 129.955 69.8359 129.862C69.8493 129.662 69.8493 129.482 69.8359 129.322C69.8359 129.162 69.8359 129.029 69.8359 128.922C69.8493 128.655 69.9426 128.522 70.1159 128.522C70.1559 128.522 70.2293 128.535 70.3359 128.562C70.8293 128.709 71.0759 128.989 71.0759 129.402C71.0759 129.509 71.0626 129.709 71.0359 130.002L70.9759 130.822C70.9759 131.195 70.9826 131.475 70.9959 131.662C71.1026 132.769 71.2226 133.862 71.3559 134.942C71.3959 135.235 71.4893 135.509 71.6359 135.762C71.7959 136.002 71.9559 136.202 72.1159 136.362C72.2893 136.509 72.3893 136.582 72.4159 136.582C72.4959 136.342 72.5426 136.182 72.5559 136.102C72.6359 134.915 72.6826 134.042 72.6959 133.482C72.7093 133.015 72.7159 132.242 72.7159 131.162V128.822C72.7293 128.715 72.7559 128.642 72.7959 128.602C72.8493 128.549 72.9359 128.522 73.0559 128.522C73.3226 128.522 73.5426 128.622 73.7159 128.822C73.8893 129.009 73.9559 129.235 73.9159 129.502C73.8759 129.822 73.8559 130.249 73.8559 130.782C73.8559 131.102 73.8626 131.322 73.8759 131.442C73.8893 131.562 73.8959 131.729 73.8959 131.942C73.8959 132.275 73.8693 132.749 73.8159 133.362C73.8159 133.509 73.8026 133.742 73.7759 134.062C73.7493 134.462 73.6826 135.075 73.5759 135.902L73.4959 136.562C73.4159 137.362 73.2559 138.349 73.0159 139.522C72.9359 139.895 72.8159 140.289 72.6559 140.702C72.4959 141.102 72.3159 141.475 72.1159 141.822C72.0759 141.915 71.9893 142.002 71.8559 142.082C71.7226 142.162 71.5959 142.202 71.4759 142.202ZM83.4594 141.982C83.286 142.009 83.1394 141.969 83.0194 141.862C82.8994 141.742 82.8394 141.582 82.8394 141.382C82.7994 140.742 82.7794 140.109 82.7794 139.482C82.7794 138.629 82.7994 137.782 82.8394 136.942C82.866 136.089 82.8794 135.462 82.8794 135.062C82.7327 134.115 82.646 132.589 82.6194 130.482C82.6194 129.989 82.6127 129.589 82.5994 129.282C81.9194 129.282 81.426 129.269 81.1194 129.242H80.9994C80.7994 129.242 80.6927 129.349 80.6794 129.562L80.6594 131.002C80.6594 131.695 80.6794 132.115 80.7194 132.262C80.746 132.422 80.7594 132.529 80.7594 132.582C80.7594 132.689 80.746 132.849 80.7194 133.062C80.6927 133.275 80.6794 133.435 80.6794 133.542C80.6794 133.742 80.7127 133.915 80.7794 134.062C80.8327 134.182 80.8527 134.349 80.8394 134.562C80.8394 134.775 80.8394 134.935 80.8394 135.042C80.8527 135.455 80.846 136.062 80.8194 136.862C80.7927 137.502 80.7794 137.975 80.7794 138.282C80.7794 138.669 80.7927 139.109 80.8194 139.602C80.846 140.082 80.866 140.422 80.8794 140.622L80.9194 141.182C80.9327 141.395 80.886 141.569 80.7794 141.702C80.686 141.822 80.546 141.882 80.3594 141.882C80.2927 141.882 80.206 141.869 80.0994 141.842C79.9794 141.802 79.8994 141.735 79.8594 141.642C79.8194 141.549 79.7927 141.429 79.7794 141.282L79.7194 139.602L79.7394 137.182C79.7127 135.742 79.6994 134.669 79.6994 133.962L79.6794 132.342C79.666 131.582 79.6327 130.775 79.5794 129.922L79.5394 129.102V128.982C79.5394 128.849 79.566 128.755 79.6194 128.702C79.6727 128.635 79.7727 128.582 79.9194 128.542C80.186 128.475 80.426 128.442 80.6394 128.442C80.7594 128.442 80.846 128.449 80.8994 128.462C81.006 128.462 81.166 128.475 81.3794 128.502C81.6727 128.529 81.906 128.542 82.0794 128.542C82.3327 128.542 82.566 128.515 82.7794 128.462C82.926 128.422 83.1127 128.455 83.3394 128.562C83.566 128.655 83.6927 128.795 83.7194 128.982C83.746 129.169 83.7594 129.315 83.7594 129.422C83.7594 129.529 83.7527 129.609 83.7394 129.662C83.686 129.822 83.6594 130.015 83.6594 130.242C83.6594 130.362 83.666 130.495 83.6794 130.642C83.6927 130.789 83.6994 130.942 83.6994 131.102C83.6994 131.235 83.6927 131.342 83.6794 131.422C83.666 131.542 83.6594 131.735 83.6594 132.002C83.6594 132.442 83.6994 133.062 83.7794 133.862L83.8394 134.402C83.8527 134.522 83.8594 134.702 83.8594 134.942C83.8594 135.222 83.8527 135.429 83.8394 135.562C83.8394 135.669 83.8327 135.802 83.8194 135.962C83.8194 136.109 83.826 136.289 83.8394 136.502C83.826 136.809 83.8327 137.269 83.8594 137.882L83.8794 138.322L83.9994 141.462C83.9994 141.609 83.9594 141.729 83.8794 141.822C83.8127 141.902 83.6727 141.955 83.4594 141.982ZM88.7358 142.382C88.3891 142.382 88.0691 142.269 87.7758 142.042C87.4824 141.829 87.2424 141.535 87.0558 141.162C86.6691 140.349 86.4291 139.462 86.3358 138.502C86.2158 137.595 86.1558 136.722 86.1558 135.882C86.1558 135.722 86.1624 135.589 86.1758 135.482V135.122C86.1758 135.055 86.1691 135.022 86.1558 135.022V134.662L86.1758 133.262C86.1891 132.835 86.2424 132.155 86.3358 131.222C86.4024 130.582 86.5558 129.962 86.7958 129.362C86.8891 129.095 87.0091 128.895 87.1558 128.762C87.3024 128.615 87.4691 128.542 87.6558 128.542C88.1891 128.542 88.6691 128.642 89.0958 128.842C89.5224 129.029 89.8824 129.295 90.1758 129.642C90.4424 129.975 90.6691 130.389 90.8558 130.882C91.0424 131.362 91.1758 131.875 91.2558 132.422C91.3358 132.982 91.3758 133.575 91.3758 134.202V134.362C91.3758 134.775 91.3824 135.149 91.3958 135.482L91.4158 136.622C91.4158 140.462 90.5224 142.382 88.7358 142.382ZM88.6558 141.542C88.8958 141.542 89.1158 141.449 89.3158 141.262C89.5158 141.062 89.6691 140.795 89.7758 140.462C90.0291 139.782 90.1824 139.049 90.2358 138.262C90.3024 137.582 90.3358 136.995 90.3358 136.502C90.3358 135.902 90.2891 135.115 90.1958 134.142C90.1158 133.115 90.0758 132.349 90.0758 131.842V131.482C90.0491 130.975 89.8758 130.535 89.5558 130.162C89.2491 129.789 88.8691 129.602 88.4158 129.602C87.9624 129.602 87.6624 129.862 87.5158 130.382C87.3824 130.795 87.3158 131.329 87.3158 131.982C87.3158 132.235 87.3224 132.449 87.3358 132.622V133.162L87.2958 134.082C87.2691 134.362 87.2558 134.669 87.2558 135.002C87.2558 135.722 87.2758 136.435 87.3158 137.142C87.3691 138.142 87.5024 139.115 87.7158 140.062C87.9291 141.049 88.2424 141.542 88.6558 141.542ZM97.4828 141.982C97.3095 142.009 97.1628 141.969 97.0428 141.862C96.9228 141.742 96.8628 141.582 96.8628 141.382C96.8228 140.742 96.8028 140.109 96.8028 139.482C96.8028 138.629 96.8228 137.782 96.8628 136.942C96.8895 136.089 96.9028 135.462 96.9028 135.062C96.7561 134.115 96.6695 132.589 96.6428 130.482C96.6428 129.989 96.6361 129.589 96.6228 129.282C95.9428 129.282 95.4495 129.269 95.1428 129.242H95.0228C94.8228 129.242 94.7161 129.349 94.7028 129.562L94.6828 131.002C94.6828 131.695 94.7028 132.115 94.7428 132.262C94.7695 132.422 94.7828 132.529 94.7828 132.582C94.7828 132.689 94.7695 132.849 94.7428 133.062C94.7161 133.275 94.7028 133.435 94.7028 133.542C94.7028 133.742 94.7361 133.915 94.8028 134.062C94.8561 134.182 94.8761 134.349 94.8628 134.562C94.8628 134.775 94.8628 134.935 94.8628 135.042C94.8761 135.455 94.8695 136.062 94.8428 136.862C94.8161 137.502 94.8028 137.975 94.8028 138.282C94.8028 138.669 94.8161 139.109 94.8428 139.602C94.8695 140.082 94.8895 140.422 94.9028 140.622L94.9428 141.182C94.9561 141.395 94.9095 141.569 94.8028 141.702C94.7095 141.822 94.5695 141.882 94.3828 141.882C94.3161 141.882 94.2295 141.869 94.1228 141.842C94.0028 141.802 93.9228 141.735 93.8828 141.642C93.8428 141.549 93.8161 141.429 93.8028 141.282L93.7428 139.602L93.7628 137.182C93.7361 135.742 93.7228 134.669 93.7228 133.962L93.7028 132.342C93.6895 131.582 93.6561 130.775 93.6028 129.922L93.5628 129.102V128.982C93.5628 128.849 93.5895 128.755 93.6428 128.702C93.6961 128.635 93.7961 128.582 93.9428 128.542C94.2095 128.475 94.4495 128.442 94.6628 128.442C94.7828 128.442 94.8695 128.449 94.9228 128.462C95.0295 128.462 95.1895 128.475 95.4028 128.502C95.6961 128.529 95.9295 128.542 96.1028 128.542C96.3561 128.542 96.5895 128.515 96.8028 128.462C96.9495 128.422 97.1361 128.455 97.3628 128.562C97.5895 128.655 97.7161 128.795 97.7428 128.982C97.7695 129.169 97.7828 129.315 97.7828 129.422C97.7828 129.529 97.7761 129.609 97.7628 129.662C97.7095 129.822 97.6828 130.015 97.6828 130.242C97.6828 130.362 97.6895 130.495 97.7028 130.642C97.7161 130.789 97.7228 130.942 97.7228 131.102C97.7228 131.235 97.7161 131.342 97.7028 131.422C97.6895 131.542 97.6828 131.735 97.6828 132.002C97.6828 132.442 97.7228 133.062 97.8028 133.862L97.8628 134.402C97.8761 134.522 97.8828 134.702 97.8828 134.942C97.8828 135.222 97.8761 135.429 97.8628 135.562C97.8628 135.669 97.8561 135.802 97.8428 135.962C97.8428 136.109 97.8495 136.289 97.8628 136.502C97.8495 136.809 97.8561 137.269 97.8828 137.882L97.9028 138.322L98.0228 141.462C98.0228 141.609 97.9828 141.729 97.9028 141.822C97.8361 141.902 97.6961 141.955 97.4828 141.982ZM104.359 142.182C104.053 142.182 103.826 142.135 103.679 142.042C103.533 141.949 103.459 141.775 103.459 141.522C103.459 141.122 103.393 140.442 103.259 139.482L103.179 139.062L101.199 138.762C101.119 139.069 101.006 139.689 100.859 140.622C100.779 141.275 100.653 141.709 100.479 141.922C100.386 142.042 100.253 142.102 100.079 142.102C99.9192 142.102 99.7726 142.055 99.6392 141.962C99.5059 141.855 99.4392 141.729 99.4392 141.582L99.4792 141.482L99.4992 141.402C100.379 137.975 101.046 134.595 101.499 131.262C101.499 131.209 101.506 131.122 101.519 131.002C101.533 130.869 101.546 130.682 101.559 130.442C101.599 129.949 101.639 129.555 101.679 129.262C101.733 128.969 101.813 128.749 101.919 128.602H102.599C102.786 128.602 102.946 128.649 103.079 128.742C103.213 128.822 103.279 128.942 103.279 129.102C103.279 130.115 103.419 131.622 103.699 133.622C103.966 135.675 104.099 137.115 104.099 137.942C104.099 138.022 104.133 138.229 104.199 138.562C104.266 138.869 104.299 139.069 104.299 139.162C104.299 139.255 104.366 139.655 104.499 140.362C104.619 141.002 104.679 141.415 104.679 141.602V141.622C104.679 141.915 104.573 142.102 104.359 142.182ZM103.039 138.342C102.999 138.142 102.979 137.895 102.979 137.602C102.979 136.402 102.873 134.869 102.659 133.002L102.459 130.922C101.886 134.055 101.493 136.422 101.279 138.022C101.479 138.155 102.066 138.262 103.039 138.342ZM109.076 142.282C108.782 142.282 108.469 142.235 108.136 142.142C107.816 142.062 107.569 141.969 107.396 141.862C106.502 141.289 106.056 139.722 106.056 137.162V136.622V136.002V135.522C106.056 134.989 106.062 134.515 106.076 134.102C106.089 133.675 106.116 133.215 106.156 132.722C106.196 132.202 106.256 131.782 106.336 131.462C106.416 131.129 106.549 130.755 106.736 130.342C106.896 129.955 107.089 129.655 107.316 129.442C107.556 129.229 107.862 129.049 108.236 128.902C108.569 128.755 108.982 128.682 109.476 128.682C109.676 128.682 109.829 128.729 109.936 128.822C110.042 128.915 110.096 129.035 110.096 129.182C110.096 129.315 110.049 129.435 109.956 129.542C109.876 129.649 109.776 129.709 109.656 129.722H108.716C108.449 129.722 108.216 129.889 108.016 130.222C107.816 130.555 107.676 130.989 107.596 131.522C107.422 132.509 107.336 133.309 107.336 133.922V134.022L107.296 135.942C107.269 136.515 107.256 137.162 107.256 137.882C107.256 138.389 107.276 138.802 107.316 139.122C107.382 139.602 107.496 140.002 107.656 140.322C107.816 140.682 108.089 140.942 108.476 141.102C108.676 141.182 108.896 141.222 109.136 141.222C109.282 141.222 109.429 141.169 109.576 141.062C109.749 141.062 109.889 141.102 109.996 141.182C110.116 141.249 110.176 141.355 110.176 141.502C110.176 142.022 109.809 142.282 109.076 142.282ZM113.102 141.682L113.082 140.902C113.068 140.675 113.062 140.422 113.062 140.142L113.082 139.462C113.042 139.315 112.942 137.855 112.782 135.082C112.622 132.309 112.528 130.529 112.502 129.742C111.728 129.715 111.235 129.635 111.022 129.502C110.875 129.395 110.802 129.275 110.802 129.142C110.802 129.035 110.868 128.942 111.002 128.862C111.148 128.769 111.295 128.722 111.442 128.722C111.815 128.722 112.268 128.749 112.802 128.802C113.308 128.869 113.762 128.902 114.162 128.902H114.322H114.482C114.895 128.902 115.102 129.062 115.102 129.382C115.102 129.542 115.035 129.675 114.902 129.782C114.768 129.875 114.615 129.922 114.442 129.922C114.322 129.922 114.148 129.902 113.922 129.862L113.522 129.782L113.502 129.882L113.482 129.982C113.482 131.169 113.595 133.062 113.822 135.662C114.035 138.102 114.142 139.995 114.142 141.342C114.142 141.502 114.068 141.642 113.922 141.762C113.788 141.882 113.635 141.942 113.462 141.942L113.102 141.682ZM117.519 141.922C117.252 141.909 117.099 141.769 117.059 141.502L117.119 136.502V134.962V132.002C117.119 130.695 117.126 129.715 117.139 129.062C117.139 128.982 117.179 128.909 117.259 128.842C117.352 128.775 117.466 128.742 117.599 128.742C117.706 128.742 117.812 128.775 117.919 128.842C118.026 128.909 118.106 128.995 118.159 129.102C118.279 129.315 118.339 129.629 118.339 130.042C118.339 130.335 118.292 130.795 118.199 131.422C118.159 131.702 118.132 132.009 118.119 132.342C118.106 132.675 118.099 132.895 118.099 133.002C118.072 133.189 118.039 133.489 117.999 133.902C117.972 134.315 117.972 134.515 117.999 134.502C118.199 134.475 118.446 134.522 118.739 134.642C118.966 134.722 119.099 134.762 119.139 134.762C119.726 134.869 120.172 135.222 120.479 135.822C120.799 136.409 120.986 137.015 121.039 137.642C121.052 137.789 121.059 138.002 121.059 138.282C121.059 138.949 120.999 139.522 120.879 140.002C120.746 140.935 120.186 141.575 119.199 141.922C119.039 141.975 118.832 142.002 118.579 142.002C118.392 142.002 118.186 141.995 117.959 141.982C117.746 141.955 117.599 141.935 117.519 141.922ZM118.179 141.122C118.326 141.162 118.459 141.182 118.579 141.182C118.846 141.182 119.072 141.109 119.259 140.962C119.446 140.802 119.566 140.595 119.619 140.342C119.686 140.035 119.759 139.575 119.839 138.962C119.866 138.669 119.892 138.435 119.919 138.262C119.932 138.182 119.939 138.062 119.939 137.902C119.939 137.342 119.832 136.829 119.619 136.362C119.406 135.882 119.099 135.615 118.699 135.562C118.419 135.509 118.212 135.475 118.079 135.462L118.179 141.122ZM60.9412 164.002C60.4878 164.002 60.2612 162.902 60.2612 160.702L60.2812 159.562L60.3012 158.642V158.582V158.382C60.3145 158.275 60.3212 158.149 60.3212 158.002C60.3212 157.975 60.3012 157.942 60.2612 157.902C60.2212 157.862 60.2012 157.829 60.2012 157.802V157.782C60.1345 157.809 60.0145 157.822 59.8412 157.822C59.6678 157.822 59.4545 157.795 59.2012 157.742C59.1212 157.729 58.9078 157.695 58.5612 157.642V159.942C58.5612 160.289 58.5812 160.835 58.6212 161.582C58.6612 162.315 58.6812 162.862 58.6812 163.222C58.6812 163.422 58.6278 163.595 58.5212 163.742C58.4145 163.889 58.2745 163.962 58.1012 163.962C57.8478 163.962 57.6678 163.715 57.5612 163.222C57.4545 162.715 57.4012 162.055 57.4012 161.242L57.4412 159.622C57.4545 159.169 57.4612 158.689 57.4612 158.182V157.842V157.562C57.4612 157.349 57.4545 157.209 57.4412 157.142V157.042L57.5012 155.882C57.5012 155.375 57.4812 154.622 57.4412 153.622C57.4012 152.622 57.3812 151.869 57.3812 151.362C57.3812 151.202 57.4345 151.062 57.5412 150.942C57.6478 150.822 57.7812 150.762 57.9412 150.762C58.3678 150.762 58.5812 151.162 58.5812 151.962L58.5412 154.442C58.5145 155.189 58.5012 156.022 58.5012 156.942C58.7012 157.009 59.0612 157.042 59.5812 157.042H60.3212C60.3478 156.962 60.3612 156.882 60.3612 156.802C60.3612 156.162 60.3212 155.215 60.2412 153.962C60.1478 152.789 60.1012 151.835 60.1012 151.102C60.1012 150.955 60.1545 150.835 60.2612 150.742C60.3812 150.635 60.5212 150.582 60.6812 150.582C60.7745 150.582 60.9078 150.615 61.0812 150.682L61.2612 150.762C61.2612 152.655 61.3278 155.182 61.4612 158.342L61.6412 163.402C61.6412 163.589 61.5678 163.735 61.4212 163.842C61.2878 163.949 61.1278 164.002 60.9412 164.002ZM67.9823 164.182C67.6756 164.182 67.4489 164.135 67.3023 164.042C67.1556 163.949 67.0823 163.775 67.0823 163.522C67.0823 163.122 67.0156 162.442 66.8823 161.482L66.8023 161.062L64.8223 160.762C64.7423 161.069 64.6289 161.689 64.4823 162.622C64.4023 163.275 64.2756 163.709 64.1023 163.922C64.0089 164.042 63.8756 164.102 63.7023 164.102C63.5423 164.102 63.3956 164.055 63.2623 163.962C63.1289 163.855 63.0623 163.729 63.0623 163.582L63.1023 163.482L63.1223 163.402C64.0023 159.975 64.6689 156.595 65.1223 153.262C65.1223 153.209 65.1289 153.122 65.1423 153.002C65.1556 152.869 65.1689 152.682 65.1823 152.442C65.2223 151.949 65.2623 151.555 65.3023 151.262C65.3556 150.969 65.4356 150.749 65.5423 150.602H66.2223C66.4089 150.602 66.5689 150.649 66.7023 150.742C66.8356 150.822 66.9023 150.942 66.9023 151.102C66.9023 152.115 67.0423 153.622 67.3223 155.622C67.5889 157.675 67.7223 159.115 67.7223 159.942C67.7223 160.022 67.7556 160.229 67.8223 160.562C67.8889 160.869 67.9223 161.069 67.9223 161.162C67.9223 161.255 67.9889 161.655 68.1223 162.362C68.2423 163.002 68.3023 163.415 68.3023 163.602V163.622C68.3023 163.915 68.1956 164.102 67.9823 164.182ZM66.6623 160.342C66.6223 160.142 66.6023 159.895 66.6023 159.602C66.6023 158.402 66.4956 156.869 66.2823 155.002L66.0823 152.922C65.5089 156.055 65.1156 158.422 64.9023 160.022C65.1023 160.155 65.6889 160.262 66.6623 160.342ZM73.8512 164.162C73.8378 164.109 73.8112 164.015 73.7712 163.882C73.7445 163.749 73.7378 163.635 73.7512 163.542C73.7778 161.995 73.8178 160.842 73.8712 160.082C73.8845 159.802 73.8912 159.389 73.8912 158.842C73.8912 157.855 73.8445 156.662 73.7512 155.262C73.6712 153.555 73.6312 152.262 73.6312 151.382C73.6312 151.182 73.7112 151.002 73.8712 150.842C74.0312 150.682 74.2245 150.602 74.4512 150.602C75.2112 150.602 75.8712 150.662 76.4312 150.782C76.6978 150.835 76.8712 150.929 76.9512 151.062C77.0312 151.182 77.0578 151.389 77.0312 151.682C76.8445 151.802 76.6512 151.862 76.4512 151.862C76.3845 151.862 76.2845 151.849 76.1512 151.822C76.0312 151.795 75.7112 151.769 75.1912 151.742H75.1512C74.9645 151.742 74.8712 151.842 74.8712 152.042C74.8045 153.975 74.7712 155.075 74.7712 155.342C74.7978 156.729 74.8245 157.775 74.8512 158.482C74.8512 158.575 74.8578 158.689 74.8712 158.822C74.8845 158.955 74.8845 159.069 74.8712 159.162C74.8312 159.775 74.8112 160.422 74.8112 161.102C74.8112 162.209 74.8312 162.982 74.8712 163.422C74.8578 163.715 74.8112 163.915 74.7312 164.022C74.6512 164.142 74.5045 164.202 74.2912 164.202C74.2378 164.202 74.0912 164.189 73.8512 164.162ZM78.2577 164.442C78.1511 164.442 78.0577 164.409 77.9777 164.342C77.8977 164.275 77.8377 164.189 77.7977 164.082C77.7844 164.055 77.7777 164.015 77.7777 163.962C77.7777 163.789 77.8711 163.649 78.0577 163.542C78.4311 163.382 78.7111 163.142 78.8977 162.822C79.0977 162.489 79.2377 162.102 79.3177 161.662C79.5577 160.355 79.6777 158.935 79.6777 157.402C79.6777 156.829 79.6711 156.395 79.6577 156.102C79.5644 153.849 79.4844 152.262 79.4177 151.342V151.262C79.4177 151.142 79.4444 151.049 79.4977 150.982C79.5511 150.915 79.6444 150.869 79.7777 150.842C80.6311 150.682 81.3111 150.602 81.8177 150.602C82.0844 150.602 82.2844 150.609 82.4177 150.622C82.7244 150.635 82.9577 150.729 83.1177 150.902C83.2777 151.075 83.3577 151.315 83.3577 151.622L83.3777 152.682C83.4044 153.615 83.4177 154.315 83.4177 154.782L83.3977 155.742C83.3977 157.155 83.4511 158.942 83.5577 161.102C83.6111 162.075 83.6577 162.829 83.6977 163.362C83.7111 163.602 83.6711 163.775 83.5777 163.882C83.4977 163.989 83.3577 164.055 83.1577 164.082C82.7177 164.109 82.4844 163.902 82.4577 163.462C82.4977 163.075 82.5177 162.689 82.5177 162.302C82.5177 161.915 82.5111 161.595 82.4977 161.342L82.4777 159.062C82.4777 157.955 82.4577 156.822 82.4177 155.662C82.3911 154.702 82.3511 153.795 82.2977 152.942C82.2444 152.089 82.1911 151.569 82.1377 151.382C82.0577 151.395 81.8911 151.429 81.6377 151.482C81.3844 151.535 81.0377 151.582 80.5977 151.622C80.5577 152.235 80.5377 152.675 80.5377 152.942C80.5377 153.249 80.5577 153.515 80.5977 153.742C80.6244 154.102 80.6511 154.629 80.6777 155.322V155.762C80.6777 157.922 80.6577 159.382 80.6177 160.142C80.5911 160.355 80.5777 160.522 80.5777 160.642C80.5244 161.202 80.4711 161.629 80.4177 161.922C80.2844 162.629 79.8777 163.349 79.1977 164.082C79.0111 164.295 78.7111 164.415 78.2977 164.442H78.2577ZM90.1698 164.182C89.8631 164.182 89.6364 164.135 89.4898 164.042C89.3431 163.949 89.2698 163.775 89.2698 163.522C89.2698 163.122 89.2031 162.442 89.0698 161.482L88.9898 161.062L87.0098 160.762C86.9298 161.069 86.8164 161.689 86.6698 162.622C86.5898 163.275 86.4631 163.709 86.2898 163.922C86.1964 164.042 86.0631 164.102 85.8898 164.102C85.7298 164.102 85.5831 164.055 85.4498 163.962C85.3164 163.855 85.2498 163.729 85.2498 163.582L85.2898 163.482L85.3098 163.402C86.1898 159.975 86.8564 156.595 87.3098 153.262C87.3098 153.209 87.3164 153.122 87.3298 153.002C87.3431 152.869 87.3564 152.682 87.3698 152.442C87.4098 151.949 87.4498 151.555 87.4898 151.262C87.5431 150.969 87.6231 150.749 87.7298 150.602H88.4098C88.5964 150.602 88.7564 150.649 88.8898 150.742C89.0231 150.822 89.0898 150.942 89.0898 151.102C89.0898 152.115 89.2298 153.622 89.5098 155.622C89.7764 157.675 89.9098 159.115 89.9098 159.942C89.9098 160.022 89.9431 160.229 90.0098 160.562C90.0764 160.869 90.1098 161.069 90.1098 161.162C90.1098 161.255 90.1764 161.655 90.3098 162.362C90.4298 163.002 90.4898 163.415 90.4898 163.602V163.622C90.4898 163.915 90.3831 164.102 90.1698 164.182ZM88.8498 160.342C88.8098 160.142 88.7898 159.895 88.7898 159.602C88.7898 158.402 88.6831 156.869 88.4698 155.002L88.2698 152.922C87.6964 156.055 87.3031 158.422 87.0898 160.022C87.2898 160.155 87.8764 160.262 88.8498 160.342ZM92.7863 164.202C92.493 164.202 92.313 164.075 92.2463 163.822C92.193 163.662 92.1663 163.435 92.1663 163.142C92.1663 162.569 92.193 161.862 92.2463 161.022C92.313 160.222 92.3463 159.509 92.3463 158.882C92.3463 158.175 92.3663 157.115 92.4063 155.702L92.4463 152.542C92.4463 152.422 92.4263 152.242 92.3863 152.002L92.3263 151.502V151.402C92.3263 151.095 92.373 150.869 92.4663 150.722C92.5597 150.575 92.733 150.502 92.9863 150.502C93.333 150.502 93.713 150.602 94.1263 150.802C94.5397 151.002 94.8397 151.255 95.0263 151.562C95.413 152.202 95.6063 153.002 95.6063 153.962C95.6063 154.682 95.5463 155.289 95.4263 155.782C95.3063 156.262 95.0997 156.709 94.8063 157.122C95.1663 157.469 95.4063 157.915 95.5263 158.462C95.6597 158.995 95.7263 159.669 95.7263 160.482C95.7263 161.295 95.5863 162.002 95.3063 162.602C94.9863 163.282 94.5197 163.749 93.9063 164.002C93.533 164.135 93.1597 164.202 92.7863 164.202ZM93.4263 156.542C94.1197 156.529 94.4663 155.722 94.4663 154.122C94.4663 152.402 94.193 151.502 93.6463 151.422C93.4997 151.729 93.4263 152.449 93.4263 153.582V156.542ZM93.3063 163.182C93.733 163.089 94.0663 162.835 94.3063 162.422C94.5463 162.009 94.6663 161.535 94.6663 161.002C94.6663 160.442 94.633 159.949 94.5663 159.522C94.513 159.189 94.4397 158.915 94.3463 158.702C94.2663 158.475 94.153 158.269 94.0063 158.082C93.8463 157.882 93.6597 157.762 93.4463 157.722C93.393 158.482 93.3663 159.489 93.3663 160.742C93.3663 160.822 93.353 161.075 93.3263 161.502L93.2863 162.182C93.2863 162.209 93.293 162.229 93.3063 162.242V162.282V163.182ZM101.429 164.002C100.976 164.002 100.749 162.902 100.749 160.702L100.769 159.562L100.789 158.642V158.582V158.382C100.803 158.275 100.809 158.149 100.809 158.002C100.809 157.975 100.789 157.942 100.749 157.902C100.709 157.862 100.689 157.829 100.689 157.802V157.782C100.623 157.809 100.503 157.822 100.329 157.822C100.156 157.822 99.9428 157.795 99.6895 157.742C99.6095 157.729 99.3961 157.695 99.0495 157.642V159.942C99.0495 160.289 99.0695 160.835 99.1095 161.582C99.1495 162.315 99.1695 162.862 99.1695 163.222C99.1695 163.422 99.1161 163.595 99.0095 163.742C98.9028 163.889 98.7628 163.962 98.5895 163.962C98.3361 163.962 98.1561 163.715 98.0495 163.222C97.9428 162.715 97.8895 162.055 97.8895 161.242L97.9295 159.622C97.9428 159.169 97.9495 158.689 97.9495 158.182V157.842V157.562C97.9495 157.349 97.9428 157.209 97.9295 157.142V157.042L97.9895 155.882C97.9895 155.375 97.9695 154.622 97.9295 153.622C97.8895 152.622 97.8695 151.869 97.8695 151.362C97.8695 151.202 97.9228 151.062 98.0295 150.942C98.1361 150.822 98.2695 150.762 98.4295 150.762C98.8561 150.762 99.0695 151.162 99.0695 151.962L99.0295 154.442C99.0028 155.189 98.9895 156.022 98.9895 156.942C99.1895 157.009 99.5495 157.042 100.069 157.042H100.809C100.836 156.962 100.849 156.882 100.849 156.802C100.849 156.162 100.809 155.215 100.729 153.962C100.636 152.789 100.589 151.835 100.589 151.102C100.589 150.955 100.643 150.835 100.749 150.742C100.869 150.635 101.009 150.582 101.169 150.582C101.263 150.582 101.396 150.615 101.569 150.682L101.749 150.762C101.749 152.655 101.816 155.182 101.949 158.342L102.129 163.402C102.129 163.589 102.056 163.735 101.909 163.842C101.776 163.949 101.616 164.002 101.429 164.002ZM105.451 164.202C105.331 164.202 105.217 164.142 105.111 164.022C105.017 163.902 104.997 163.782 105.051 163.662C105.091 163.542 105.184 163.342 105.331 163.062C105.744 162.382 106.017 161.462 106.151 160.302C106.164 160.222 106.111 160.122 105.991 160.002C105.884 159.869 105.817 159.769 105.791 159.702L105.511 159.302C105.231 158.915 104.997 158.562 104.811 158.242C104.637 157.909 104.471 157.469 104.311 156.922C104.244 156.695 104.197 156.455 104.171 156.202C104.144 155.935 104.131 155.769 104.131 155.702L104.091 155.242C104.077 155.015 104.057 154.815 104.031 154.642C104.004 154.455 103.984 154.302 103.971 154.182C103.851 153.409 103.791 152.775 103.791 152.282C103.791 152.095 103.797 151.955 103.811 151.862C103.824 151.662 103.824 151.482 103.811 151.322C103.811 151.162 103.811 151.029 103.811 150.922C103.824 150.655 103.917 150.522 104.091 150.522C104.131 150.522 104.204 150.535 104.311 150.562C104.804 150.709 105.051 150.989 105.051 151.402C105.051 151.509 105.037 151.709 105.011 152.002L104.951 152.822C104.951 153.195 104.957 153.475 104.971 153.662C105.077 154.769 105.197 155.862 105.331 156.942C105.371 157.235 105.464 157.509 105.611 157.762C105.771 158.002 105.931 158.202 106.091 158.362C106.264 158.509 106.364 158.582 106.391 158.582C106.471 158.342 106.517 158.182 106.531 158.102C106.611 156.915 106.657 156.042 106.671 155.482C106.684 155.015 106.691 154.242 106.691 153.162V150.822C106.704 150.715 106.731 150.642 106.771 150.602C106.824 150.549 106.911 150.522 107.031 150.522C107.297 150.522 107.517 150.622 107.691 150.822C107.864 151.009 107.931 151.235 107.891 151.502C107.851 151.822 107.831 152.249 107.831 152.782C107.831 153.102 107.837 153.322 107.851 153.442C107.864 153.562 107.871 153.729 107.871 153.942C107.871 154.275 107.844 154.749 107.791 155.362C107.791 155.509 107.777 155.742 107.751 156.062C107.724 156.462 107.657 157.075 107.551 157.902L107.471 158.562C107.391 159.362 107.231 160.349 106.991 161.522C106.911 161.895 106.791 162.289 106.631 162.702C106.471 163.102 106.291 163.475 106.091 163.822C106.051 163.915 105.964 164.002 105.831 164.082C105.697 164.162 105.571 164.202 105.451 164.202ZM114.962 164.142C114.642 164.142 114.335 164.042 114.042 163.842C113.748 163.642 113.508 163.355 113.322 162.982C113.162 162.662 113.048 162.322 112.982 161.962C112.928 161.589 112.882 161.135 112.842 160.602L112.662 158.142H110.942V160.102V160.902L111.142 163.362C111.168 163.589 111.135 163.749 111.042 163.842C110.962 163.935 110.795 163.982 110.542 163.982C110.355 163.982 110.222 163.955 110.142 163.902C110.062 163.849 110.008 163.749 109.982 163.602C109.955 163.389 109.942 163.062 109.942 162.622L109.922 161.102C109.895 159.769 109.882 158.762 109.882 158.082C109.882 157.535 109.888 157.129 109.902 156.862L109.922 155.602C109.922 155.282 109.908 154.722 109.882 153.922L109.862 152.462C109.862 152.302 109.875 152.062 109.902 151.742L109.922 151.042C109.922 150.869 109.955 150.755 110.022 150.702C110.102 150.649 110.248 150.622 110.462 150.622C110.675 150.622 110.848 150.689 110.982 150.822C111.128 150.942 111.188 151.095 111.162 151.282C111.122 151.535 111.102 151.802 111.102 152.082C111.102 152.362 111.108 152.575 111.122 152.722L111.142 153.382C111.142 154.049 111.115 154.689 111.062 155.302C111.008 155.942 110.982 156.642 110.982 157.402C111.195 157.429 111.355 157.442 111.462 157.442C111.702 157.442 112.102 157.389 112.662 157.282C112.702 156.509 112.775 155.642 112.882 154.682C112.988 153.695 113.115 152.822 113.262 152.062C113.315 151.782 113.475 151.422 113.742 150.982C113.808 150.849 113.915 150.749 114.062 150.682C114.208 150.615 114.368 150.582 114.542 150.582C114.782 150.582 115.102 150.682 115.502 150.882C115.915 151.082 116.242 151.309 116.482 151.562C116.895 152.015 117.222 152.589 117.462 153.282C117.715 153.975 117.842 154.742 117.842 155.582C117.842 155.995 117.815 156.382 117.762 156.742C117.708 157.129 117.682 157.715 117.682 158.502C117.682 159.222 117.662 159.762 117.622 160.122C117.502 161.282 117.215 162.269 116.762 163.082C116.588 163.415 116.328 163.675 115.982 163.862C115.635 164.049 115.295 164.142 114.962 164.142ZM114.962 163.342C115.215 163.342 115.422 163.222 115.582 162.982C115.942 162.249 116.188 161.602 116.322 161.042C116.468 160.482 116.548 159.742 116.562 158.822C116.615 157.622 116.642 156.622 116.642 155.822L116.622 154.962C116.595 154.162 116.468 153.402 116.242 152.682C116.175 152.455 116.048 152.229 115.862 152.002C115.688 151.762 115.495 151.569 115.282 151.422C115.082 151.289 114.915 151.222 114.782 151.222C114.675 151.222 114.595 151.269 114.542 151.362C114.488 151.455 114.435 151.602 114.382 151.802C114.342 152.002 114.302 152.162 114.262 152.282C114.208 152.469 114.155 152.749 114.102 153.122C114.088 153.282 114.055 153.489 114.002 153.742C113.788 154.969 113.682 156.342 113.682 157.862V158.502L113.702 159.082C113.715 159.255 113.728 159.602 113.742 160.122C113.768 160.629 113.808 161.082 113.862 161.482C113.902 161.842 114.068 162.342 114.362 162.982C114.508 163.222 114.708 163.342 114.962 163.342Z" fill="#8A5B8F"/>
</svg>
