<svg width="500" height="179" viewBox="0 0 500 179" fill="none" xmlns="http://www.w3.org/2000/svg">
<path d="M68.8707 44.8728C68.5774 44.8728 68.264 44.8261 67.9307 44.7328C67.6107 44.6528 67.364 44.5594 67.1907 44.4528C66.2974 43.8794 65.8507 42.3128 65.8507 39.7528V39.2128V38.5928V38.1128C65.8507 37.5794 65.8574 37.1061 65.8707 36.6928C65.884 36.2661 65.9107 35.8061 65.9507 35.3128C65.9907 34.7928 66.0507 34.3728 66.1307 34.0528C66.2107 33.7194 66.344 33.3461 66.5307 32.9328C66.6907 32.5461 66.884 32.2461 67.1107 32.0328C67.3507 31.8194 67.6574 31.6394 68.0307 31.4928C68.364 31.3461 68.7774 31.2728 69.2707 31.2728C69.4707 31.2728 69.624 31.3194 69.7307 31.4128C69.8374 31.5061 69.8907 31.6261 69.8907 31.7728C69.8907 31.9061 69.844 32.0261 69.7507 32.1328C69.6707 32.2394 69.5707 32.2994 69.4507 32.3128H68.5107C68.244 32.3128 68.0107 32.4794 67.8107 32.8128C67.6107 33.1461 67.4707 33.5794 67.3907 34.1128C67.2174 35.0994 67.1307 35.8994 67.1307 36.5128V36.6128L67.0907 38.5328C67.064 39.1061 67.0507 39.7528 67.0507 40.4728C67.0507 40.9794 67.0707 41.3928 67.1107 41.7128C67.1774 42.1928 67.2907 42.5928 67.4507 42.9128C67.6107 43.2728 67.884 43.5328 68.2707 43.6928C68.4707 43.7728 68.6907 43.8128 68.9307 43.8128C69.0774 43.8128 69.224 43.7594 69.3707 43.6528C69.544 43.6528 69.684 43.6928 69.7907 43.7728C69.9107 43.8394 69.9707 43.9461 69.9707 44.0928C69.9707 44.6128 69.604 44.8728 68.8707 44.8728ZM75.7166 44.7728C75.41 44.7728 75.1833 44.7261 75.0366 44.6328C74.89 44.5394 74.8166 44.3661 74.8166 44.1128C74.8166 43.7128 74.75 43.0328 74.6166 42.0728L74.5366 41.6528L72.5566 41.3528C72.4766 41.6594 72.3633 42.2794 72.2166 43.2128C72.1366 43.8661 72.01 44.2994 71.8366 44.5128C71.7433 44.6328 71.61 44.6928 71.4366 44.6928C71.2766 44.6928 71.13 44.6461 70.9966 44.5528C70.8633 44.4461 70.7966 44.3194 70.7966 44.1728L70.8366 44.0728L70.8566 43.9928C71.7366 40.5661 72.4033 37.1861 72.8566 33.8528C72.8566 33.7994 72.8633 33.7128 72.8766 33.5928C72.89 33.4594 72.9033 33.2728 72.9166 33.0328C72.9566 32.5394 72.9966 32.1461 73.0366 31.8528C73.09 31.5594 73.17 31.3394 73.2766 31.1928H73.9566C74.1433 31.1928 74.3033 31.2394 74.4366 31.3328C74.57 31.4128 74.6366 31.5328 74.6366 31.6928C74.6366 32.7061 74.7766 34.2128 75.0566 36.2128C75.3233 38.2661 75.4566 39.7061 75.4566 40.5328C75.4566 40.6128 75.49 40.8194 75.5566 41.1528C75.6233 41.4594 75.6566 41.6594 75.6566 41.7528C75.6566 41.8461 75.7233 42.2461 75.8566 42.9528C75.9766 43.5928 76.0366 44.0061 76.0366 44.1928V44.2128C76.0366 44.5061 75.93 44.6928 75.7166 44.7728ZM74.3966 40.9328C74.3566 40.7328 74.3366 40.4861 74.3366 40.1928C74.3366 38.9928 74.23 37.4594 74.0166 35.5928L73.8166 33.5128C73.2433 36.6461 72.85 39.0128 72.6366 40.6128C72.8366 40.7461 73.4233 40.8528 74.3966 40.9328ZM85.8132 45.6328C85.3999 45.6328 85.1932 45.2194 85.1932 44.3928V43.1128V41.8328C85.1932 41.1661 85.1465 40.2928 85.0532 39.2128C84.9465 37.9994 84.8932 37.1661 84.8932 36.7128L84.9332 35.4728C84.9599 35.1128 84.9732 34.7061 84.9732 34.2528C84.9199 34.4261 84.6999 35.3461 84.3132 37.0128C83.9265 38.6261 83.5265 40.1194 83.1132 41.4928C82.7132 42.8128 82.3865 43.4728 82.1332 43.4728C81.8799 43.4728 81.6732 43.3994 81.5132 43.2528C81.3665 43.0928 81.2932 42.8794 81.2932 42.6128C81.2932 42.0261 81.0532 40.7794 80.5732 38.8728C80.1065 36.9661 79.6799 35.4061 79.2932 34.1928L79.1732 36.4528C79.0665 38.3594 78.9932 39.9461 78.9532 41.2128C78.9265 42.4394 78.9132 43.2794 78.9132 43.7328C78.9132 43.8394 78.9199 43.9394 78.9332 44.0328V44.3128C78.9332 44.5394 78.8865 44.7061 78.7932 44.8128C78.6999 44.9328 78.5265 44.9928 78.2732 44.9928C78.1399 44.9928 78.0132 44.9394 77.8932 44.8328C77.7732 44.7394 77.7132 44.6328 77.7132 44.5128C77.7132 43.1528 77.8132 41.1128 78.0132 38.3928C78.2132 35.6728 78.3132 33.6328 78.3132 32.2728C78.2332 32.1528 78.1932 32.0261 78.1932 31.8928C78.1932 31.7328 78.2665 31.6128 78.4132 31.5328C78.5732 31.4394 78.7599 31.3928 78.9732 31.3928C79.1465 31.3928 79.4665 32.0194 79.9332 33.2728C80.3999 34.5261 80.8665 35.9461 81.3332 37.5328C81.7999 39.1194 82.0999 40.2661 82.2332 40.9728C82.3399 40.6128 82.4265 40.2794 82.4932 39.9728L82.6132 39.4928C83.0399 37.6261 83.4665 35.9394 83.8932 34.4328C84.1465 33.5128 84.3932 32.7928 84.6332 32.2728C84.8732 31.7128 85.0932 31.4328 85.2932 31.4328C85.4799 31.4328 85.6465 31.4861 85.7932 31.5928C85.9532 31.6861 86.0332 31.8128 86.0332 31.9728C86.0332 32.9328 86.0732 34.3728 86.1532 36.2928C86.2465 38.0794 86.2932 39.4661 86.2932 40.4528L86.2732 41.5128L86.2332 42.5728C86.2332 42.7328 86.2532 42.9728 86.2932 43.2928L86.3532 43.9928C86.3665 44.1128 86.3732 44.2061 86.3732 44.2728C86.3865 44.3394 86.3932 44.3794 86.3932 44.3928C86.4599 44.5661 86.4932 44.6928 86.4932 44.7728C86.4932 44.9994 86.4265 45.1994 86.2932 45.3728C86.1599 45.5461 85.9999 45.6328 85.8132 45.6328ZM94.3241 44.7928C93.9375 44.7928 93.7441 44.6461 93.7441 44.3528C93.7441 44.2861 93.7441 44.1461 93.7441 43.9328C93.7441 43.7194 93.7575 43.5194 93.7841 43.3328C93.8375 42.8528 93.8641 42.2861 93.8641 41.6328C93.8641 41.0061 93.8375 40.1594 93.7841 39.0928C93.7575 38.4928 93.7308 37.5661 93.7041 36.3128L93.6441 33.8728L93.6241 33.0328L93.6041 31.5328C93.6041 31.3194 93.7241 31.1994 93.9641 31.1728C94.2041 31.1594 94.4041 31.2261 94.5641 31.3728C94.7241 31.5194 94.8041 31.7061 94.8041 31.9328C94.8041 32.2661 94.7908 32.7928 94.7641 33.5128L94.7041 38.6528C94.6908 38.8261 94.6841 39.0594 94.6841 39.3528C94.6975 39.6461 94.7041 39.9328 94.7041 40.2128V41.4128V42.1328C94.6775 42.9728 94.7108 43.6728 94.8041 44.2328C94.8308 44.4194 94.7975 44.5594 94.7041 44.6528C94.6241 44.7461 94.4975 44.7928 94.3241 44.7928ZM89.6241 44.7928C89.4375 44.7928 89.2708 44.7661 89.1241 44.7128C88.9775 44.6594 88.9108 44.5261 88.9241 44.3128C88.9508 44.0061 88.9708 43.6261 88.9841 43.1728C88.9975 42.7194 89.0041 42.4061 89.0041 42.2328C89.0041 41.4728 89.0241 40.6728 89.0641 39.8328C89.0908 39.5128 89.1041 39.0061 89.1041 38.3128C89.1041 37.9261 89.0975 37.4661 89.0841 36.9328C89.0708 36.3994 89.0575 35.9994 89.0441 35.7328C89.0308 35.5061 89.0175 35.2394 89.0041 34.9328C88.9908 34.6261 88.9841 34.2861 88.9841 33.9128C88.9575 33.4594 88.9441 33.1061 88.9441 32.8528L88.9241 32.3328C88.9241 32.2661 88.9241 32.1328 88.9241 31.9328C88.9241 31.7194 88.9575 31.5528 89.0241 31.4328C89.1041 31.3128 89.2375 31.2528 89.4241 31.2528C89.5975 31.2528 89.7441 31.3261 89.8641 31.4728C89.9841 31.6061 90.0441 31.7661 90.0441 31.9528C90.0441 32.0994 90.0575 32.3461 90.0841 32.6928C90.1108 33.3061 90.1241 33.7928 90.1241 34.1528C90.1241 34.5928 90.0908 35.0261 90.0241 35.4528C89.9975 35.5328 89.9841 35.6661 89.9841 35.8528C89.9841 36.0128 89.9975 36.2394 90.0241 36.5328C90.1308 36.5728 90.3575 36.6594 90.7041 36.7928C91.0508 36.9128 91.3508 37.0594 91.6041 37.2328C91.8575 37.3928 92.0575 37.5794 92.2041 37.7928C92.6575 38.5261 92.8841 39.1594 92.8841 39.6928C92.8841 40.5194 92.8241 41.4394 92.7041 42.4528C92.6375 43.0528 92.4441 43.4994 92.1241 43.7928C91.8041 44.0861 91.3375 44.3394 90.7241 44.5528C90.5641 44.6061 90.3708 44.6528 90.1441 44.6928C89.9175 44.7328 89.7441 44.7661 89.6241 44.7928ZM90.0241 43.7128C90.1841 43.7394 90.3041 43.7528 90.3841 43.7528C90.6508 43.7528 90.8708 43.6594 91.0441 43.4728C91.5108 43.0194 91.7441 42.4794 91.7441 41.8528C91.7708 41.2394 91.7841 40.6861 91.7841 40.1928C91.7841 39.3128 91.7175 38.7461 91.5841 38.4928C91.4908 38.1994 91.3041 37.9528 91.0241 37.7528C90.7441 37.5528 90.4241 37.4128 90.0641 37.3328C89.9708 38.2794 89.9241 39.3394 89.9241 40.5128C89.9241 41.5128 89.9575 42.5794 90.0241 43.7128ZM98.1263 44.8528C97.953 44.8528 97.793 44.7928 97.6463 44.6728C97.513 44.5528 97.4397 44.4061 97.4263 44.2328V43.7128V43.3128C97.413 43.1928 97.4063 43.0528 97.4063 42.8928C97.4063 42.6128 97.3863 42.1861 97.3463 41.6128L97.3063 40.3328C97.3063 39.6794 97.3263 38.7061 97.3663 37.4128C97.4197 36.2528 97.4463 35.2794 97.4463 34.4928C97.4463 34.3061 97.4263 34.0261 97.3863 33.6528C97.3463 33.2661 97.3263 32.9861 97.3263 32.8128C97.3263 31.8661 97.6063 31.3928 98.1663 31.3928C98.6063 31.3928 99.113 31.4794 99.6863 31.6528C100.273 31.8261 100.566 32.0328 100.566 32.2728C100.566 32.4061 100.506 32.5328 100.386 32.6528C100.28 32.7594 100.146 32.8461 99.9863 32.9128C99.4263 32.7128 98.9197 32.5794 98.4663 32.5128C98.4797 32.7128 98.4863 32.9994 98.4863 33.3728C98.4863 33.9061 98.4797 34.3861 98.4663 34.8128C98.4263 35.4528 98.4063 35.9328 98.4063 36.2528L98.4663 36.5728L98.7863 36.5528C98.893 36.5394 99.0263 36.5328 99.1863 36.5328C99.8263 36.5328 100.146 36.7194 100.146 37.0928C100.146 37.2394 100.086 37.3661 99.9663 37.4728C99.8463 37.5661 99.693 37.6128 99.5063 37.6128C99.2663 37.6128 99.0797 37.5994 98.9463 37.5728H98.4463C98.473 37.9194 98.4863 38.4261 98.4863 39.0928C98.4863 39.7594 98.4797 40.3594 98.4663 40.8928C98.4263 41.7061 98.4063 42.3128 98.4063 42.7128C98.4063 43.4594 98.4197 43.8328 98.4463 43.8328L99.1063 43.8128C99.333 43.7994 99.6063 43.7928 99.9263 43.7928C100.433 43.7928 100.686 43.9528 100.686 44.2728C100.686 44.4594 100.6 44.5994 100.426 44.6928C100.266 44.7994 100.066 44.8528 99.8263 44.8528H98.1263ZM43.0395 66.5728C42.8661 66.5994 42.7195 66.5594 42.5995 66.4528C42.4795 66.3328 42.4195 66.1728 42.4195 65.9728C42.3795 65.3328 42.3595 64.6994 42.3595 64.0728C42.3595 63.2194 42.3795 62.3728 42.4195 61.5328C42.4461 60.6794 42.4595 60.0528 42.4595 59.6528C42.3128 58.7061 42.2261 57.1794 42.1995 55.0728C42.1995 54.5794 42.1928 54.1794 42.1795 53.8728C41.4995 53.8728 41.0061 53.8594 40.6995 53.8328H40.5795C40.3795 53.8328 40.2728 53.9394 40.2595 54.1528L40.2395 55.5928C40.2395 56.2861 40.2595 56.7061 40.2995 56.8528C40.3261 57.0128 40.3395 57.1194 40.3395 57.1728C40.3395 57.2794 40.3261 57.4394 40.2995 57.6528C40.2728 57.8661 40.2595 58.0261 40.2595 58.1328C40.2595 58.3328 40.2928 58.5061 40.3595 58.6528C40.4128 58.7728 40.4328 58.9394 40.4195 59.1528C40.4195 59.3661 40.4195 59.5261 40.4195 59.6328C40.4328 60.0461 40.4261 60.6528 40.3995 61.4528C40.3728 62.0928 40.3595 62.5661 40.3595 62.8728C40.3595 63.2594 40.3728 63.6994 40.3995 64.1928C40.4261 64.6728 40.4461 65.0128 40.4595 65.2128L40.4995 65.7728C40.5128 65.9861 40.4661 66.1594 40.3595 66.2928C40.2661 66.4128 40.1261 66.4728 39.9395 66.4728C39.8728 66.4728 39.7861 66.4594 39.6795 66.4328C39.5595 66.3928 39.4795 66.3261 39.4395 66.2328C39.3995 66.1394 39.3728 66.0194 39.3595 65.8728L39.2995 64.1928L39.3195 61.7728C39.2928 60.3328 39.2795 59.2594 39.2795 58.5528L39.2595 56.9328C39.2461 56.1728 39.2128 55.3661 39.1595 54.5128L39.1195 53.6928V53.5728C39.1195 53.4394 39.1461 53.3461 39.1995 53.2928C39.2528 53.2261 39.3528 53.1728 39.4995 53.1328C39.7661 53.0661 40.0061 53.0328 40.2195 53.0328C40.3395 53.0328 40.4261 53.0394 40.4795 53.0528C40.5861 53.0528 40.7461 53.0661 40.9595 53.0928C41.2528 53.1194 41.4861 53.1328 41.6595 53.1328C41.9128 53.1328 42.1461 53.1061 42.3595 53.0528C42.5061 53.0128 42.6928 53.0461 42.9195 53.1528C43.1461 53.2461 43.2728 53.3861 43.2995 53.5728C43.3261 53.7594 43.3395 53.9061 43.3395 54.0128C43.3395 54.1194 43.3328 54.1994 43.3195 54.2528C43.2661 54.4128 43.2395 54.6061 43.2395 54.8328C43.2395 54.9528 43.2461 55.0861 43.2595 55.2328C43.2728 55.3794 43.2795 55.5328 43.2795 55.6928C43.2795 55.8261 43.2728 55.9328 43.2595 56.0128C43.2461 56.1328 43.2395 56.3261 43.2395 56.5928C43.2395 57.0328 43.2795 57.6528 43.3595 58.4528L43.4195 58.9928C43.4328 59.1128 43.4395 59.2928 43.4395 59.5328C43.4395 59.8128 43.4328 60.0194 43.4195 60.1528C43.4195 60.2594 43.4128 60.3928 43.3995 60.5528C43.3995 60.6994 43.4061 60.8794 43.4195 61.0928C43.4061 61.3994 43.4128 61.8594 43.4395 62.4728L43.4595 62.9128L43.5795 66.0528C43.5795 66.1994 43.5395 66.3194 43.4595 66.4128C43.3928 66.4928 43.2528 66.5461 43.0395 66.5728ZM48.3159 66.9728C47.9692 66.9728 47.6492 66.8594 47.3559 66.6328C47.0625 66.4194 46.8225 66.1261 46.6359 65.7528C46.2492 64.9394 46.0092 64.0528 45.9159 63.0928C45.7959 62.1861 45.7359 61.3128 45.7359 60.4728C45.7359 60.3128 45.7425 60.1794 45.7559 60.0728V59.7128C45.7559 59.6461 45.7492 59.6128 45.7359 59.6128V59.2528L45.7559 57.8528C45.7692 57.4261 45.8225 56.7461 45.9159 55.8128C45.9825 55.1728 46.1359 54.5528 46.3759 53.9528C46.4692 53.6861 46.5892 53.4861 46.7359 53.3528C46.8825 53.2061 47.0492 53.1328 47.2359 53.1328C47.7692 53.1328 48.2492 53.2328 48.6759 53.4328C49.1025 53.6194 49.4625 53.8861 49.7559 54.2328C50.0225 54.5661 50.2492 54.9794 50.4359 55.4728C50.6225 55.9528 50.7559 56.4661 50.8359 57.0128C50.9159 57.5728 50.9559 58.1661 50.9559 58.7928V58.9528C50.9559 59.3661 50.9625 59.7394 50.9759 60.0728L50.9959 61.2128C50.9959 65.0528 50.1025 66.9728 48.3159 66.9728ZM48.2359 66.1328C48.4759 66.1328 48.6959 66.0394 48.8959 65.8528C49.0959 65.6528 49.2492 65.3861 49.3559 65.0528C49.6092 64.3728 49.7625 63.6394 49.8159 62.8528C49.8825 62.1728 49.9159 61.5861 49.9159 61.0928C49.9159 60.4928 49.8692 59.7061 49.7759 58.7328C49.6959 57.7061 49.6559 56.9394 49.6559 56.4328V56.0728C49.6292 55.5661 49.4559 55.1261 49.1359 54.7528C48.8292 54.3794 48.4492 54.1928 47.9959 54.1928C47.5425 54.1928 47.2425 54.4528 47.0959 54.9728C46.9625 55.3861 46.8959 55.9194 46.8959 56.5728C46.8959 56.8261 46.9025 57.0394 46.9159 57.2128V57.7528L46.8759 58.6728C46.8492 58.9528 46.8359 59.2594 46.8359 59.5928C46.8359 60.3128 46.8559 61.0261 46.8959 61.7328C46.9492 62.7328 47.0825 63.7061 47.2959 64.6528C47.5092 65.6394 47.8225 66.1328 48.2359 66.1328ZM57.0629 66.5728C56.8896 66.5994 56.7429 66.5594 56.6229 66.4528C56.5029 66.3328 56.4429 66.1728 56.4429 65.9728C56.4029 65.3328 56.3829 64.6994 56.3829 64.0728C56.3829 63.2194 56.4029 62.3728 56.4429 61.5328C56.4696 60.6794 56.4829 60.0528 56.4829 59.6528C56.3362 58.7061 56.2496 57.1794 56.2229 55.0728C56.2229 54.5794 56.2162 54.1794 56.2029 53.8728C55.5229 53.8728 55.0296 53.8594 54.7229 53.8328H54.6029C54.4029 53.8328 54.2962 53.9394 54.2829 54.1528L54.2629 55.5928C54.2629 56.2861 54.2829 56.7061 54.3229 56.8528C54.3496 57.0128 54.3629 57.1194 54.3629 57.1728C54.3629 57.2794 54.3496 57.4394 54.3229 57.6528C54.2962 57.8661 54.2829 58.0261 54.2829 58.1328C54.2829 58.3328 54.3162 58.5061 54.3829 58.6528C54.4362 58.7728 54.4562 58.9394 54.4429 59.1528C54.4429 59.3661 54.4429 59.5261 54.4429 59.6328C54.4562 60.0461 54.4496 60.6528 54.4229 61.4528C54.3962 62.0928 54.3829 62.5661 54.3829 62.8728C54.3829 63.2594 54.3962 63.6994 54.4229 64.1928C54.4496 64.6728 54.4696 65.0128 54.4829 65.2128L54.5229 65.7728C54.5362 65.9861 54.4896 66.1594 54.3829 66.2928C54.2896 66.4128 54.1496 66.4728 53.9629 66.4728C53.8962 66.4728 53.8096 66.4594 53.7029 66.4328C53.5829 66.3928 53.5029 66.3261 53.4629 66.2328C53.4229 66.1394 53.3962 66.0194 53.3829 65.8728L53.3229 64.1928L53.3429 61.7728C53.3162 60.3328 53.3029 59.2594 53.3029 58.5528L53.2829 56.9328C53.2696 56.1728 53.2362 55.3661 53.1829 54.5128L53.1429 53.6928V53.5728C53.1429 53.4394 53.1696 53.3461 53.2229 53.2928C53.2762 53.2261 53.3762 53.1728 53.5229 53.1328C53.7896 53.0661 54.0296 53.0328 54.2429 53.0328C54.3629 53.0328 54.4496 53.0394 54.5029 53.0528C54.6096 53.0528 54.7696 53.0661 54.9829 53.0928C55.2762 53.1194 55.5096 53.1328 55.6829 53.1328C55.9362 53.1328 56.1696 53.1061 56.3829 53.0528C56.5296 53.0128 56.7162 53.0461 56.9429 53.1528C57.1696 53.2461 57.2962 53.3861 57.3229 53.5728C57.3496 53.7594 57.3629 53.9061 57.3629 54.0128C57.3629 54.1194 57.3562 54.1994 57.3429 54.2528C57.2896 54.4128 57.2629 54.6061 57.2629 54.8328C57.2629 54.9528 57.2696 55.0861 57.2829 55.2328C57.2962 55.3794 57.3029 55.5328 57.3029 55.6928C57.3029 55.8261 57.2962 55.9328 57.2829 56.0128C57.2696 56.1328 57.2629 56.3261 57.2629 56.5928C57.2629 57.0328 57.3029 57.6528 57.3829 58.4528L57.4429 58.9928C57.4562 59.1128 57.4629 59.2928 57.4629 59.5328C57.4629 59.8128 57.4562 60.0194 57.4429 60.1528C57.4429 60.2594 57.4362 60.3928 57.4229 60.5528C57.4229 60.6994 57.4296 60.8794 57.4429 61.0928C57.4296 61.3994 57.4362 61.8594 57.4629 62.4728L57.4829 62.9128L57.6029 66.0528C57.6029 66.1994 57.5629 66.3194 57.4829 66.4128C57.4162 66.4928 57.2762 66.5461 57.0629 66.5728ZM60.9193 66.7928C60.7993 66.7928 60.686 66.7328 60.5793 66.6128C60.486 66.4928 60.466 66.3728 60.5193 66.2528C60.5593 66.1328 60.6526 65.9328 60.7993 65.6528C61.2126 64.9728 61.486 64.0528 61.6193 62.8928C61.6326 62.8128 61.5793 62.7128 61.4593 62.5928C61.3526 62.4594 61.286 62.3594 61.2593 62.2928L60.9793 61.8928C60.6993 61.5061 60.466 61.1528 60.2793 60.8328C60.106 60.4994 59.9393 60.0594 59.7793 59.5128C59.7126 59.2861 59.666 59.0461 59.6393 58.7928C59.6126 58.5261 59.5993 58.3594 59.5993 58.2928L59.5593 57.8328C59.546 57.6061 59.526 57.4061 59.4993 57.2328C59.4726 57.0461 59.4526 56.8928 59.4393 56.7728C59.3193 55.9994 59.2593 55.3661 59.2593 54.8728C59.2593 54.6861 59.266 54.5461 59.2793 54.4528C59.2926 54.2528 59.2926 54.0728 59.2793 53.9128C59.2793 53.7528 59.2793 53.6194 59.2793 53.5128C59.2926 53.2461 59.386 53.1128 59.5593 53.1128C59.5993 53.1128 59.6726 53.1261 59.7793 53.1528C60.2726 53.2994 60.5193 53.5794 60.5193 53.9928C60.5193 54.0994 60.506 54.2994 60.4793 54.5928L60.4193 55.4128C60.4193 55.7861 60.426 56.0661 60.4393 56.2528C60.546 57.3594 60.666 58.4528 60.7993 59.5328C60.8393 59.8261 60.9326 60.0994 61.0793 60.3528C61.2393 60.5928 61.3993 60.7928 61.5593 60.9528C61.7326 61.0994 61.8326 61.1728 61.8593 61.1728C61.9393 60.9328 61.986 60.7728 61.9993 60.6928C62.0793 59.5061 62.126 58.6328 62.1393 58.0728C62.1526 57.6061 62.1593 56.8328 62.1593 55.7528V53.4128C62.1726 53.3061 62.1993 53.2328 62.2393 53.1928C62.2926 53.1394 62.3793 53.1128 62.4993 53.1128C62.766 53.1128 62.986 53.2128 63.1593 53.4128C63.3326 53.5994 63.3993 53.8261 63.3593 54.0928C63.3193 54.4128 63.2993 54.8394 63.2993 55.3728C63.2993 55.6928 63.306 55.9128 63.3193 56.0328C63.3326 56.1528 63.3393 56.3194 63.3393 56.5328C63.3393 56.8661 63.3126 57.3394 63.2593 57.9528C63.2593 58.0994 63.246 58.3328 63.2193 58.6528C63.1926 59.0528 63.126 59.6661 63.0193 60.4928L62.9393 61.1528C62.8593 61.9528 62.6993 62.9394 62.4593 64.1128C62.3793 64.4861 62.2593 64.8794 62.0993 65.2928C61.9393 65.6928 61.7593 66.0661 61.5593 66.4128C61.5193 66.5061 61.4326 66.5928 61.2993 66.6728C61.166 66.7528 61.0393 66.7928 60.9193 66.7928ZM64.8398 67.0328C64.7331 67.0328 64.6398 66.9994 64.5598 66.9328C64.4798 66.8661 64.4198 66.7794 64.3798 66.6728C64.3664 66.6461 64.3598 66.6061 64.3598 66.5528C64.3598 66.3794 64.4531 66.2394 64.6398 66.1328C65.0131 65.9728 65.2931 65.7328 65.4798 65.4128C65.6798 65.0794 65.8198 64.6928 65.8998 64.2528C66.1398 62.9461 66.2598 61.5261 66.2598 59.9928C66.2598 59.4194 66.2531 58.9861 66.2398 58.6928C66.1464 56.4394 66.0664 54.8528 65.9998 53.9328V53.8528C65.9998 53.7328 66.0264 53.6394 66.0798 53.5728C66.1331 53.5061 66.2264 53.4594 66.3598 53.4328C67.2131 53.2728 67.8931 53.1928 68.3998 53.1928C68.6664 53.1928 68.8664 53.1994 68.9998 53.2128C69.3064 53.2261 69.5398 53.3194 69.6998 53.4928C69.8598 53.6661 69.9398 53.9061 69.9398 54.2128L69.9598 55.2728C69.9864 56.2061 69.9998 56.9061 69.9998 57.3728L69.9798 58.3328C69.9798 59.7461 70.0331 61.5328 70.1398 63.6928C70.1931 64.6661 70.2398 65.4194 70.2798 65.9528C70.2931 66.1928 70.2531 66.3661 70.1598 66.4728C70.0798 66.5794 69.9398 66.6461 69.7398 66.6728C69.2998 66.6994 69.0664 66.4928 69.0398 66.0528C69.0798 65.6661 69.0998 65.2794 69.0998 64.8928C69.0998 64.5061 69.0931 64.1861 69.0798 63.9328L69.0598 61.6528C69.0598 60.5461 69.0398 59.4128 68.9998 58.2528C68.9731 57.2928 68.9331 56.3861 68.8798 55.5328C68.8264 54.6794 68.7731 54.1594 68.7198 53.9728C68.6398 53.9861 68.4731 54.0194 68.2198 54.0728C67.9664 54.1261 67.6198 54.1728 67.1798 54.2128C67.1398 54.8261 67.1198 55.2661 67.1198 55.5328C67.1198 55.8394 67.1398 56.1061 67.1798 56.3328C67.2064 56.6928 67.2331 57.2194 67.2598 57.9128V58.3528C67.2598 60.5128 67.2398 61.9728 67.1998 62.7328C67.1731 62.9461 67.1598 63.1128 67.1598 63.2328C67.1064 63.7928 67.0531 64.2194 66.9998 64.5128C66.8664 65.2194 66.4598 65.9394 65.7798 66.6728C65.5931 66.8861 65.2931 67.0061 64.8798 67.0328H64.8398ZM72.3918 66.7728C72.2718 66.7461 72.1718 66.7061 72.0918 66.6528C72.0251 66.6128 71.9851 66.5328 71.9718 66.4128C71.9851 66.3328 72.0185 66.2461 72.0718 66.1528C72.1251 66.0594 72.1785 66.0061 72.2318 65.9928C72.3518 65.9794 72.4385 65.9394 72.4918 65.8728C72.5451 65.8061 72.5918 65.7128 72.6318 65.5928C72.6451 65.5128 72.6851 65.3128 72.7518 64.9928C72.8185 64.6728 72.8585 64.3661 72.8718 64.0728L72.8918 63.7328C72.8918 63.5728 72.8785 63.3461 72.8518 63.0528C72.8251 62.7594 72.8118 62.5461 72.8118 62.4128C72.8118 61.6394 73.0985 60.8794 73.6718 60.1328C72.8985 59.4261 72.5118 58.6528 72.5118 57.8128V57.1728C72.5118 56.4794 72.5651 55.9594 72.6718 55.6128C72.7651 55.2528 72.9385 54.8594 73.1918 54.4328C73.2851 54.2328 73.4118 54.0794 73.5718 53.9728C73.7318 53.8528 73.9051 53.7461 74.0918 53.6528C74.2918 53.5594 74.4451 53.4861 74.5518 53.4328C74.6318 53.3928 74.7451 53.3528 74.8918 53.3128C75.0518 53.2728 75.1785 53.1994 75.2718 53.0928C75.4451 53.0261 75.6185 52.9928 75.7918 52.9928C76.0451 52.9928 76.2651 53.0528 76.4518 53.1728C76.6518 53.2928 76.7518 53.4328 76.7518 53.5928C76.7518 54.1661 76.7385 55.0661 76.7118 56.2928L76.6518 59.1328L76.6318 60.2528L76.6518 61.3728C76.6785 61.9861 76.7318 62.8528 76.8118 63.9728L76.8918 65.2728C76.9051 65.3928 76.9251 65.5261 76.9518 65.6728C76.9785 65.8194 76.9918 65.9394 76.9918 66.0328C76.9918 66.3928 76.8051 66.5728 76.4318 66.5728C76.2718 66.5728 76.1251 66.5328 75.9918 66.4528C75.8718 66.3728 75.8051 66.2594 75.7918 66.1128C75.7518 65.8061 75.7318 65.4928 75.7318 65.1728L75.6718 60.1928C75.2051 60.2728 74.8585 60.3594 74.6318 60.4528C74.4051 60.5461 74.2385 60.6728 74.1318 60.8328C74.0385 60.9794 73.9651 61.1928 73.9118 61.4728C73.8718 61.6461 73.8518 61.9061 73.8518 62.2528C73.8518 62.4261 73.8651 62.6728 73.8918 62.9928L73.9118 63.7528C73.9118 64.3261 73.8785 64.8128 73.8118 65.2128C73.7451 65.5994 73.5985 65.9661 73.3718 66.3128C73.2651 66.4861 73.1185 66.6128 72.9318 66.6928C72.7451 66.7728 72.5651 66.7994 72.3918 66.7728ZM74.3718 59.5928C74.4251 59.6061 74.5118 59.6128 74.6318 59.6128C74.9118 59.6128 75.2718 59.5528 75.7118 59.4328C75.7118 59.0861 75.6985 58.5528 75.6718 57.8328C75.6318 57.1528 75.6118 56.4794 75.6118 55.8128C75.6118 55.2528 75.6318 54.6861 75.6718 54.1128C75.3118 54.1661 74.9918 54.2594 74.7118 54.3928C74.4318 54.5261 74.2451 54.6728 74.1518 54.8328C73.8051 55.4861 73.6251 56.1261 73.6118 56.7528C73.6118 57.4594 73.6251 57.9794 73.6518 58.3128C73.6651 58.6061 73.7318 58.8794 73.8518 59.1328C73.9718 59.3861 74.1451 59.5394 74.3718 59.5928ZM79.8338 66.7328C79.6605 66.0261 79.5738 65.0461 79.5738 63.7928L79.6138 62.0128C79.6405 61.4794 79.6538 60.8861 79.6538 60.2328C79.5738 60.0461 79.5338 59.8794 79.5338 59.7328V59.6728C79.6672 59.4194 79.7338 58.8461 79.7338 57.9528L79.7538 57.0328C79.7672 56.7394 79.7738 56.4128 79.7738 56.0528C79.7738 55.2661 79.7205 54.6461 79.6138 54.1928C79.6538 54.0061 79.7205 53.8461 79.8138 53.7128C79.9072 53.5661 80.0205 53.4928 80.1538 53.4928H81.0338C81.4072 53.4928 81.7338 53.5794 82.0138 53.7528C82.2938 53.9128 82.5072 54.1461 82.6538 54.4528C82.9205 54.9994 83.0538 55.6461 83.0538 56.3928C83.0538 56.9261 83.0472 57.3461 83.0338 57.6528C83.0072 58.0394 82.9405 58.3928 82.8338 58.7128C82.7938 58.8861 82.7338 59.0328 82.6538 59.1528C82.5872 59.2594 82.4872 59.3928 82.3538 59.5528C82.1672 59.7794 81.8605 59.9928 81.4338 60.1928C81.2605 60.2861 81.0338 60.3728 80.7538 60.4528V62.5928L80.7938 63.8728L80.8338 64.4928C80.8872 65.2394 80.9138 65.8728 80.9138 66.3928C80.9138 66.5528 80.8472 66.6861 80.7138 66.7928C80.5805 66.9128 80.4272 66.9728 80.2538 66.9728L79.8338 66.7328ZM80.7738 59.6328C81.5605 59.5128 81.9538 58.3861 81.9538 56.2528C81.9538 55.8661 81.9338 55.5661 81.8938 55.3528C81.8538 55.1928 81.8005 55.0661 81.7338 54.9728C81.6672 54.8661 81.5672 54.7794 81.4338 54.7128C81.2872 54.6328 81.1272 54.5928 80.9538 54.5928C80.9538 54.5794 80.8805 54.5728 80.7338 54.5728V55.7128C80.7338 56.4994 80.7405 57.1994 80.7538 57.8128C80.7538 58.5061 80.7605 58.9594 80.7738 59.1728V59.5928V59.6328ZM88.5388 66.5928C88.0855 66.5928 87.8588 65.4928 87.8588 63.2928L87.8788 62.1528L87.8988 61.2328V61.1728V60.9728C87.9122 60.8661 87.9188 60.7394 87.9188 60.5928C87.9188 60.5661 87.8988 60.5328 87.8588 60.4928C87.8188 60.4528 87.7988 60.4194 87.7988 60.3928V60.3728C87.7322 60.3994 87.6122 60.4128 87.4388 60.4128C87.2655 60.4128 87.0522 60.3861 86.7988 60.3328C86.7188 60.3194 86.5055 60.2861 86.1588 60.2328V62.5328C86.1588 62.8794 86.1788 63.4261 86.2188 64.1728C86.2588 64.9061 86.2788 65.4528 86.2788 65.8128C86.2788 66.0128 86.2255 66.1861 86.1188 66.3328C86.0122 66.4794 85.8722 66.5528 85.6988 66.5528C85.4455 66.5528 85.2655 66.3061 85.1588 65.8128C85.0522 65.3061 84.9988 64.6461 84.9988 63.8328L85.0388 62.2128C85.0522 61.7594 85.0588 61.2794 85.0588 60.7728V60.4328V60.1528C85.0588 59.9394 85.0522 59.7994 85.0388 59.7328V59.6328L85.0988 58.4728C85.0988 57.9661 85.0788 57.2128 85.0388 56.2128C84.9988 55.2128 84.9788 54.4594 84.9788 53.9528C84.9788 53.7928 85.0322 53.6528 85.1388 53.5328C85.2455 53.4128 85.3788 53.3528 85.5388 53.3528C85.9655 53.3528 86.1788 53.7528 86.1788 54.5528L86.1388 57.0328C86.1122 57.7794 86.0988 58.6128 86.0988 59.5328C86.2988 59.5994 86.6588 59.6328 87.1788 59.6328H87.9188C87.9455 59.5528 87.9588 59.4728 87.9588 59.3928C87.9588 58.7528 87.9188 57.8061 87.8388 56.5528C87.7455 55.3794 87.6988 54.4261 87.6988 53.6928C87.6988 53.5461 87.7522 53.4261 87.8588 53.3328C87.9788 53.2261 88.1188 53.1728 88.2788 53.1728C88.3722 53.1728 88.5055 53.2061 88.6788 53.2728L88.8588 53.3528C88.8588 55.2461 88.9255 57.7728 89.0588 60.9328L89.2388 65.9928C89.2388 66.1794 89.1655 66.3261 89.0188 66.4328C88.8855 66.5394 88.7255 66.5928 88.5388 66.5928ZM96.9999 66.7928C96.6133 66.7928 96.4199 66.6461 96.4199 66.3528C96.4199 66.2861 96.4199 66.1461 96.4199 65.9328C96.4199 65.7194 96.4333 65.5194 96.4599 65.3328C96.5133 64.8528 96.5399 64.2861 96.5399 63.6328C96.5399 63.0061 96.5133 62.1594 96.4599 61.0928C96.4333 60.4928 96.4066 59.5661 96.3799 58.3128L96.3199 55.8728L96.2999 55.0328L96.2799 53.5328C96.2799 53.3194 96.3999 53.1994 96.6399 53.1728C96.8799 53.1594 97.0799 53.2261 97.2399 53.3728C97.3999 53.5194 97.4799 53.7061 97.4799 53.9328C97.4799 54.2661 97.4666 54.7928 97.4399 55.5128L97.3799 60.6528C97.3666 60.8261 97.3599 61.0594 97.3599 61.3528C97.3733 61.6461 97.3799 61.9328 97.3799 62.2128V63.4128V64.1328C97.3533 64.9728 97.3866 65.6728 97.4799 66.2328C97.5066 66.4194 97.4733 66.5594 97.3799 66.6528C97.2999 66.7461 97.1733 66.7928 96.9999 66.7928ZM92.2999 66.7928C92.1133 66.7928 91.9466 66.7661 91.7999 66.7128C91.6533 66.6594 91.5866 66.5261 91.5999 66.3128C91.6266 66.0061 91.6466 65.6261 91.6599 65.1728C91.6733 64.7194 91.6799 64.4061 91.6799 64.2328C91.6799 63.4728 91.6999 62.6728 91.7399 61.8328C91.7666 61.5128 91.7799 61.0061 91.7799 60.3128C91.7799 59.9261 91.7733 59.4661 91.7599 58.9328C91.7466 58.3994 91.7333 57.9994 91.7199 57.7328C91.7066 57.5061 91.6933 57.2394 91.6799 56.9328C91.6666 56.6261 91.6599 56.2861 91.6599 55.9128C91.6333 55.4594 91.6199 55.1061 91.6199 54.8528L91.5999 54.3328C91.5999 54.2661 91.5999 54.1328 91.5999 53.9328C91.5999 53.7194 91.6333 53.5528 91.6999 53.4328C91.7799 53.3128 91.9133 53.2528 92.0999 53.2528C92.2733 53.2528 92.4199 53.3261 92.5399 53.4728C92.6599 53.6061 92.7199 53.7661 92.7199 53.9528C92.7199 54.0994 92.7333 54.3461 92.7599 54.6928C92.7866 55.3061 92.7999 55.7928 92.7999 56.1528C92.7999 56.5928 92.7666 57.0261 92.6999 57.4528C92.6733 57.5328 92.6599 57.6661 92.6599 57.8528C92.6599 58.0128 92.6733 58.2394 92.6999 58.5328C92.8066 58.5728 93.0333 58.6594 93.3799 58.7928C93.7266 58.9128 94.0266 59.0594 94.2799 59.2328C94.5333 59.3928 94.7333 59.5794 94.8799 59.7928C95.3333 60.5261 95.5599 61.1594 95.5599 61.6928C95.5599 62.5194 95.4999 63.4394 95.3799 64.4528C95.3133 65.0528 95.1199 65.4994 94.7999 65.7928C94.4799 66.0861 94.0133 66.3394 93.3999 66.5528C93.2399 66.6061 93.0466 66.6528 92.8199 66.6928C92.5933 66.7328 92.4199 66.7661 92.2999 66.7928ZM92.6999 65.7128C92.8599 65.7394 92.9799 65.7528 93.0599 65.7528C93.3266 65.7528 93.5466 65.6594 93.7199 65.4728C94.1866 65.0194 94.4199 64.4794 94.4199 63.8528C94.4466 63.2394 94.4599 62.6861 94.4599 62.1928C94.4599 61.3128 94.3933 60.7461 94.2599 60.4928C94.1666 60.1994 93.9799 59.9528 93.6999 59.7528C93.4199 59.5528 93.0999 59.4128 92.7399 59.3328C92.6466 60.2794 92.5999 61.3394 92.5999 62.5128C92.5999 63.5128 92.6333 64.5794 92.6999 65.7128ZM100.802 66.8528C100.629 66.8528 100.469 66.7928 100.322 66.6728C100.189 66.5528 100.115 66.4061 100.102 66.2328V65.7128V65.3128C100.089 65.1928 100.082 65.0528 100.082 64.8928C100.082 64.6128 100.062 64.1861 100.022 63.6128L99.9821 62.3328C99.9821 61.6794 100.002 60.7061 100.042 59.4128C100.095 58.2528 100.122 57.2794 100.122 56.4928C100.122 56.3061 100.102 56.0261 100.062 55.6528C100.022 55.2661 100.002 54.9861 100.002 54.8128C100.002 53.8661 100.282 53.3928 100.842 53.3928C101.282 53.3928 101.789 53.4794 102.362 53.6528C102.949 53.8261 103.242 54.0328 103.242 54.2728C103.242 54.4061 103.182 54.5328 103.062 54.6528C102.955 54.7594 102.822 54.8461 102.662 54.9128C102.102 54.7128 101.595 54.5794 101.142 54.5128C101.155 54.7128 101.162 54.9994 101.162 55.3728C101.162 55.9061 101.155 56.3861 101.142 56.8128C101.102 57.4528 101.082 57.9328 101.082 58.2528L101.142 58.5728L101.462 58.5528C101.569 58.5394 101.702 58.5328 101.862 58.5328C102.502 58.5328 102.822 58.7194 102.822 59.0928C102.822 59.2394 102.762 59.3661 102.642 59.4728C102.522 59.5661 102.369 59.6128 102.182 59.6128C101.942 59.6128 101.755 59.5994 101.622 59.5728H101.122C101.149 59.9194 101.162 60.4261 101.162 61.0928C101.162 61.7594 101.155 62.3594 101.142 62.8928C101.102 63.7061 101.082 64.3128 101.082 64.7128C101.082 65.4594 101.095 65.8328 101.122 65.8328L101.782 65.8128C102.009 65.7994 102.282 65.7928 102.602 65.7928C103.109 65.7928 103.362 65.9528 103.362 66.2728C103.362 66.4594 103.275 66.5994 103.102 66.6928C102.942 66.7994 102.742 66.8528 102.502 66.8528H100.802ZM110.338 66.2728L110.318 65.4928C110.305 65.2661 110.298 65.0128 110.298 64.7328L110.318 64.0528C110.278 63.9061 110.178 62.4461 110.018 59.6728C109.858 56.8994 109.765 55.1194 109.738 54.3328C108.965 54.3061 108.471 54.2261 108.258 54.0928C108.111 53.9861 108.038 53.8661 108.038 53.7328C108.038 53.6261 108.105 53.5328 108.238 53.4528C108.385 53.3594 108.531 53.3128 108.678 53.3128C109.051 53.3128 109.505 53.3394 110.038 53.3928C110.545 53.4594 110.998 53.4928 111.398 53.4928H111.558H111.718C112.131 53.4928 112.338 53.6528 112.338 53.9728C112.338 54.1328 112.271 54.2661 112.138 54.3728C112.005 54.4661 111.851 54.5128 111.678 54.5128C111.558 54.5128 111.385 54.4928 111.158 54.4528L110.758 54.3728L110.738 54.4728L110.718 54.5728C110.718 55.7594 110.831 57.6528 111.058 60.2528C111.271 62.6928 111.378 64.5861 111.378 65.9328C111.378 66.0928 111.305 66.2328 111.158 66.3528C111.025 66.4728 110.871 66.5328 110.698 66.5328L110.338 66.2728ZM115.255 66.7928C115.135 66.7928 115.022 66.7328 114.915 66.6128C114.822 66.4928 114.802 66.3728 114.855 66.2528C114.895 66.1328 114.989 65.9328 115.135 65.6528C115.549 64.9728 115.822 64.0528 115.955 62.8928C115.969 62.8128 115.915 62.7128 115.795 62.5928C115.689 62.4594 115.622 62.3594 115.595 62.2928L115.315 61.8928C115.035 61.5061 114.802 61.1528 114.615 60.8328C114.442 60.4994 114.275 60.0594 114.115 59.5128C114.049 59.2861 114.002 59.0461 113.975 58.7928C113.949 58.5261 113.935 58.3594 113.935 58.2928L113.895 57.8328C113.882 57.6061 113.862 57.4061 113.835 57.2328C113.809 57.0461 113.789 56.8928 113.775 56.7728C113.655 55.9994 113.595 55.3661 113.595 54.8728C113.595 54.6861 113.602 54.5461 113.615 54.4528C113.629 54.2528 113.629 54.0728 113.615 53.9128C113.615 53.7528 113.615 53.6194 113.615 53.5128C113.629 53.2461 113.722 53.1128 113.895 53.1128C113.935 53.1128 114.009 53.1261 114.115 53.1528C114.609 53.2994 114.855 53.5794 114.855 53.9928C114.855 54.0994 114.842 54.2994 114.815 54.5928L114.755 55.4128C114.755 55.7861 114.762 56.0661 114.775 56.2528C114.882 57.3594 115.002 58.4528 115.135 59.5328C115.175 59.8261 115.269 60.0994 115.415 60.3528C115.575 60.5928 115.735 60.7928 115.895 60.9528C116.069 61.0994 116.169 61.1728 116.195 61.1728C116.275 60.9328 116.322 60.7728 116.335 60.6928C116.415 59.5061 116.462 58.6328 116.475 58.0728C116.489 57.6061 116.495 56.8328 116.495 55.7528V53.4128C116.509 53.3061 116.535 53.2328 116.575 53.1928C116.629 53.1394 116.715 53.1128 116.835 53.1128C117.102 53.1128 117.322 53.2128 117.495 53.4128C117.669 53.5994 117.735 53.8261 117.695 54.0928C117.655 54.4128 117.635 54.8394 117.635 55.3728C117.635 55.6928 117.642 55.9128 117.655 56.0328C117.669 56.1528 117.675 56.3194 117.675 56.5328C117.675 56.8661 117.649 57.3394 117.595 57.9528C117.595 58.0994 117.582 58.3328 117.555 58.6528C117.529 59.0528 117.462 59.6661 117.355 60.4928L117.275 61.1528C117.195 61.9528 117.035 62.9394 116.795 64.1128C116.715 64.4861 116.595 64.8794 116.435 65.2928C116.275 65.6928 116.095 66.0661 115.895 66.4128C115.855 66.5061 115.769 66.5928 115.635 66.6728C115.502 66.7528 115.375 66.7928 115.255 66.7928ZM120.146 66.7328C119.973 66.0261 119.886 65.0461 119.886 63.7928L119.926 62.0128C119.953 61.4794 119.966 60.8861 119.966 60.2328C119.886 60.0461 119.846 59.8794 119.846 59.7328V59.6728C119.98 59.4194 120.046 58.8461 120.046 57.9528L120.066 57.0328C120.08 56.7394 120.086 56.4128 120.086 56.0528C120.086 55.2661 120.033 54.6461 119.926 54.1928C119.966 54.0061 120.033 53.8461 120.126 53.7128C120.22 53.5661 120.333 53.4928 120.466 53.4928H121.346C121.72 53.4928 122.046 53.5794 122.326 53.7528C122.606 53.9128 122.82 54.1461 122.966 54.4528C123.233 54.9994 123.366 55.6461 123.366 56.3928C123.366 56.9261 123.36 57.3461 123.346 57.6528C123.32 58.0394 123.253 58.3928 123.146 58.7128C123.106 58.8861 123.046 59.0328 122.966 59.1528C122.9 59.2594 122.8 59.3928 122.666 59.5528C122.48 59.7794 122.173 59.9928 121.746 60.1928C121.573 60.2861 121.346 60.3728 121.066 60.4528V62.5928L121.106 63.8728L121.146 64.4928C121.2 65.2394 121.226 65.8728 121.226 66.3928C121.226 66.5528 121.16 66.6861 121.026 66.7928C120.893 66.9128 120.74 66.9728 120.566 66.9728L120.146 66.7328ZM121.086 59.6328C121.873 59.5128 122.266 58.3861 122.266 56.2528C122.266 55.8661 122.246 55.5661 122.206 55.3528C122.166 55.1928 122.113 55.0661 122.046 54.9728C121.98 54.8661 121.88 54.7794 121.746 54.7128C121.6 54.6328 121.44 54.5928 121.266 54.5928C121.266 54.5794 121.193 54.5728 121.046 54.5728V55.7128C121.046 56.4994 121.053 57.1994 121.066 57.8128C121.066 58.5061 121.073 58.9594 121.086 59.1728V59.5928V59.6328ZM130.691 66.7928C130.305 66.7928 130.111 66.6461 130.111 66.3528C130.111 66.2861 130.111 66.1461 130.111 65.9328C130.111 65.7194 130.125 65.5194 130.151 65.3328C130.205 64.8528 130.231 64.2861 130.231 63.6328C130.231 63.0061 130.205 62.1594 130.151 61.0928C130.125 60.4928 130.098 59.5661 130.071 58.3128L130.011 55.8728L129.991 55.0328L129.971 53.5328C129.971 53.3194 130.091 53.1994 130.331 53.1728C130.571 53.1594 130.771 53.2261 130.931 53.3728C131.091 53.5194 131.171 53.7061 131.171 53.9328C131.171 54.2661 131.158 54.7928 131.131 55.5128L131.071 60.6528C131.058 60.8261 131.051 61.0594 131.051 61.3528C131.065 61.6461 131.071 61.9328 131.071 62.2128V63.4128V64.1328C131.045 64.9728 131.078 65.6728 131.171 66.2328C131.198 66.4194 131.165 66.5594 131.071 66.6528C130.991 66.7461 130.865 66.7928 130.691 66.7928ZM125.991 66.7928C125.805 66.7928 125.638 66.7661 125.491 66.7128C125.345 66.6594 125.278 66.5261 125.291 66.3128C125.318 66.0061 125.338 65.6261 125.351 65.1728C125.365 64.7194 125.371 64.4061 125.371 64.2328C125.371 63.4728 125.391 62.6728 125.431 61.8328C125.458 61.5128 125.471 61.0061 125.471 60.3128C125.471 59.9261 125.465 59.4661 125.451 58.9328C125.438 58.3994 125.425 57.9994 125.411 57.7328C125.398 57.5061 125.385 57.2394 125.371 56.9328C125.358 56.6261 125.351 56.2861 125.351 55.9128C125.325 55.4594 125.311 55.1061 125.311 54.8528L125.291 54.3328C125.291 54.2661 125.291 54.1328 125.291 53.9328C125.291 53.7194 125.325 53.5528 125.391 53.4328C125.471 53.3128 125.605 53.2528 125.791 53.2528C125.965 53.2528 126.111 53.3261 126.231 53.4728C126.351 53.6061 126.411 53.7661 126.411 53.9528C126.411 54.0994 126.425 54.3461 126.451 54.6928C126.478 55.3061 126.491 55.7928 126.491 56.1528C126.491 56.5928 126.458 57.0261 126.391 57.4528C126.365 57.5328 126.351 57.6661 126.351 57.8528C126.351 58.0128 126.365 58.2394 126.391 58.5328C126.498 58.5728 126.725 58.6594 127.071 58.7928C127.418 58.9128 127.718 59.0594 127.971 59.2328C128.225 59.3928 128.425 59.5794 128.571 59.7928C129.025 60.5261 129.251 61.1594 129.251 61.6928C129.251 62.5194 129.191 63.4394 129.071 64.4528C129.005 65.0528 128.811 65.4994 128.491 65.7928C128.171 66.0861 127.705 66.3394 127.091 66.5528C126.931 66.6061 126.738 66.6528 126.511 66.6928C126.285 66.7328 126.111 66.7661 125.991 66.7928ZM126.391 65.7128C126.551 65.7394 126.671 65.7528 126.751 65.7528C127.018 65.7528 127.238 65.6594 127.411 65.4728C127.878 65.0194 128.111 64.4794 128.111 63.8528C128.138 63.2394 128.151 62.6861 128.151 62.1928C128.151 61.3128 128.085 60.7461 127.951 60.4928C127.858 60.1994 127.671 59.9528 127.391 59.7528C127.111 59.5528 126.791 59.4128 126.431 59.3328C126.338 60.2794 126.291 61.3394 126.291 62.5128C126.291 63.5128 126.325 64.5794 126.391 65.7128Z" fill="#8A5B8F"/>
<path d="M353.015 168.114L353.112 167.118L353.015 168.114ZM497.605 98.1508C498.156 98.1276 498.623 98.5561 498.646 99.1079L499.024 108.1C499.048 108.652 498.619 109.118 498.067 109.141C497.516 109.164 497.049 108.736 497.026 108.184L496.69 100.191L488.697 100.528C488.145 100.551 487.679 100.122 487.656 99.5705C487.632 99.0187 488.061 98.5526 488.613 98.5294L497.605 98.1508ZM191.371 52.4944C191.868 53.344 192.362 54.1949 192.851 55.0467L191.117 56.0433C190.63 55.196 190.14 54.35 189.645 53.5056L191.371 52.4944ZM195.752 60.176C196.71 61.8927 197.657 63.6116 198.598 65.3305L196.844 66.2911C195.904 64.575 194.96 62.8609 194.006 61.1501L195.752 60.176ZM201.415 70.4946C202.353 72.2169 203.289 73.9368 204.231 75.6534L202.477 76.615C201.534 74.8955 200.596 73.1731 199.658 71.4511L201.415 70.4946ZM207.074 80.7914C208.028 82.4983 208.992 84.1993 209.97 85.8927L208.238 86.893C207.255 85.1901 206.286 83.481 205.328 81.7678L207.074 80.7914ZM212.948 90.9409C213.955 92.6104 214.981 94.2703 216.03 95.9189L214.343 96.9931C213.284 95.3295 212.25 93.6558 211.235 91.974L212.948 90.9409ZM219.242 100.809C220.333 102.417 221.452 104.011 222.603 105.591L220.987 106.769C219.821 105.17 218.689 103.557 217.587 101.932L219.242 100.809ZM226.13 110.248C227.328 111.768 228.563 113.272 229.837 114.759L228.319 116.061C227.026 114.552 225.774 113.027 224.56 111.486L226.13 110.248ZM233.731 119.105C235.05 120.512 236.41 121.901 237.817 123.27L236.422 124.703C234.992 123.312 233.61 121.901 232.272 120.473L233.731 119.105ZM242.091 127.239C243.529 128.512 245.013 129.766 246.547 130.999L245.294 132.558C243.735 131.304 242.227 130.03 240.765 128.736L242.091 127.239ZM251.176 134.543C252.724 135.671 254.319 136.779 255.965 137.866L254.863 139.535C253.191 138.431 251.571 137.305 249.998 136.159L251.176 134.543ZM260.9 140.969C262.541 141.951 264.229 142.913 265.968 143.855L265.015 145.614C263.252 144.658 261.539 143.682 259.873 142.685L260.9 140.969ZM271.156 146.532C272.876 147.375 274.642 148.201 276.457 149.007L275.645 150.835C273.808 150.018 272.018 149.182 270.275 148.327L271.156 146.532ZM281.863 151.292C283.631 152.002 285.443 152.696 287.299 153.371L286.615 155.251C284.739 154.568 282.906 153.866 281.117 153.147L281.863 151.292ZM292.81 155.279C294.634 155.879 296.498 156.463 298.404 157.03L297.834 158.947C295.91 158.375 294.027 157.785 292.185 157.179L292.81 155.279ZM304.063 158.629C305.903 159.122 307.781 159.601 309.697 160.064L309.227 162.008C307.295 161.541 305.401 161.058 303.544 160.56L304.063 158.629ZM315.415 161.376C317.299 161.785 319.217 162.18 321.172 162.561L320.79 164.524C318.821 164.141 316.888 163.743 314.99 163.33L315.415 161.376ZM326.899 163.616C328.809 163.949 330.752 164.268 332.728 164.574L332.422 166.551C330.434 166.243 328.478 165.922 326.556 165.587L326.899 163.616ZM338.486 165.413C340.4 165.676 342.345 165.926 344.321 166.163L344.082 168.149C342.095 167.91 340.14 167.659 338.215 167.395L338.486 165.413ZM350.137 166.818C351.121 166.921 352.113 167.021 353.112 167.118L352.918 169.109C351.914 169.011 350.918 168.911 349.929 168.807L350.137 166.818ZM353.112 167.118C354.1 167.215 355.084 167.299 356.065 167.372L355.917 169.366C354.921 169.292 353.921 169.207 352.918 169.109L353.112 167.118ZM361.948 167.674C363.926 167.73 365.89 167.74 367.838 167.706L367.873 169.706C365.894 169.74 363.9 169.73 361.891 169.673L361.948 167.674ZM373.723 167.468C375.697 167.343 377.653 167.174 379.593 166.963L379.809 168.951C377.84 169.165 375.854 169.337 373.849 169.464L373.723 167.468ZM385.435 166.193C387.389 165.891 389.325 165.547 391.241 165.165L391.633 167.126C389.688 167.514 387.724 167.863 385.74 168.17L385.435 166.193ZM396.999 163.885C398.919 163.415 400.818 162.907 402.697 162.363L403.253 164.285C401.348 164.836 399.422 165.351 397.474 165.828L396.999 163.885ZM408.33 160.609C410.206 159.983 412.059 159.323 413.89 158.632L414.596 160.503C412.742 161.203 410.864 161.872 408.963 162.506L408.33 160.609ZM419.371 156.444C421.195 155.676 422.994 154.878 424.769 154.054L425.611 155.869C423.815 156.702 421.994 157.509 420.147 158.287L419.371 156.444ZM430.08 151.475C431.848 150.58 433.588 149.659 435.302 148.718L436.265 150.471C434.533 151.422 432.772 152.353 430.985 153.259L430.08 151.475ZM440.433 145.791C442.144 144.779 443.825 143.749 445.475 142.703L446.546 144.393C444.878 145.449 443.18 146.49 441.452 147.512L440.433 145.791ZM450.425 139.466C452.077 138.35 453.696 137.223 455.282 136.088L456.446 137.714C454.846 138.859 453.212 139.997 451.544 141.123L450.425 139.466ZM460.044 132.578C461.639 131.37 463.195 130.158 464.712 128.946L465.96 130.509C464.431 131.731 462.861 132.954 461.252 134.172L460.044 132.578ZM469.284 125.202C470.825 123.908 472.321 122.621 473.768 121.346L475.09 122.847C473.631 124.132 472.124 125.429 470.57 126.734L469.284 125.202ZM478.175 117.376C479.669 115.999 481.103 114.646 482.476 113.325L483.863 114.767C482.48 116.097 481.035 117.46 479.53 118.847L478.175 117.376ZM486.708 109.169C488.171 107.703 489.546 106.293 490.832 104.955L492.275 106.34C490.981 107.687 489.596 109.105 488.124 110.581L486.708 109.169ZM494.906 100.642C495.614 99.8808 496.282 99.1566 496.91 98.4732L498.383 99.8267C497.753 100.512 497.082 101.239 496.371 102.004L494.906 100.642Z" fill="#CFC3DE"/>
<path d="M127.646 6.59273C101.646 -0.907053 46.1463 -1.90739 24.1462 10.0927C2.1462 22.0927 0.346233 39.9926 1.14623 53.5926C2.14623 70.5926 10.1465 83.5928 24.1462 90.0928C42.2068 98.4782 132.146 92.5928 148.146 90.0928C164.146 87.5928 187.146 75.5926 190.646 56.5926C194.146 37.5926 153.647 14.0925 127.646 6.59273Z" stroke="#CFC3DE" stroke-width="2" stroke-dasharray="6 6"/>
</svg>
