<svg width="850" height="600" viewBox="0 0 850 600" fill="none" xmlns="http://www.w3.org/2000/svg">
<g opacity="0.5">
<path fill-rule="evenodd" clip-rule="evenodd" d="M157.061 0.00061992H0V88.3843H102.707L59.2949 290.587C58.0243 296.697 58.0243 303.091 59.2949 309.273L102.707 511.475H0V599.859H157.061C170.331 599.859 182.896 593.82 191.226 583.376C199.555 573.003 202.803 559.361 199.979 546.359L147.108 299.965L199.979 53.571C202.803 40.4982 199.555 26.8568 191.226 16.4838C182.826 5.9687 170.331 -0.070428 157.061 0.00061992Z" fill="#E4F0F4"/>
<path fill-rule="evenodd" clip-rule="evenodd" d="M751.211 0H583.985C563.303 0 545.443 14.5651 541.067 34.8848L529.067 90.5861L528.996 90.3732L511.278 172.789H511.349L438.642 511.475H342.288L296.899 299.965L342.288 88.4548H438.642L458.76 182.025L496.525 6.25225C489.96 2.27357 482.266 0.0711173 474.149 0.0711173H306.923C286.24 0.0711173 268.381 14.6362 264.005 34.9559L209.157 290.657C207.816 296.768 207.816 303.162 209.157 309.343L264.005 565.116C268.381 585.435 286.24 600 306.923 600H474.149C494.831 600 512.69 585.435 517.137 565.116L529.137 509.414V509.556L548.832 418.046H548.761L619.491 88.597H715.845L761.234 300.107L715.845 511.616H619.491L599.373 417.904L561.608 593.748C568.244 597.726 575.867 600 584.056 600H751.281C771.964 600 789.823 585.435 794.199 565.116L849.047 309.343C850.318 303.233 850.318 296.839 849.047 290.657L794.199 34.9559C789.823 14.5651 771.893 0.0710479 751.211 0Z" fill="#E4F0F4"/>
</g>
</svg>
