<svg width="477" height="148" viewBox="0 0 477 148" fill="none" xmlns="http://www.w3.org/2000/svg">
<path d="M246.461 143.24L246.258 144.22L246.461 143.24ZM476.825 8.43448C477.137 8.89003 477.021 9.51244 476.565 9.82468L469.142 14.9128C468.686 15.225 468.064 15.1088 467.752 14.6533C467.439 14.1977 467.555 13.5753 468.011 13.2631L474.61 8.74032L470.087 2.14149C469.775 1.68594 469.891 1.06353 470.347 0.751293C470.802 0.43906 471.425 0.555245 471.737 1.0108L476.825 8.43448ZM475.817 9.98284C474.771 9.78769 473.736 9.60321 472.71 9.42924L473.045 7.45742C474.081 7.63325 475.127 7.81966 476.184 8.0168L475.817 9.98284ZM466.677 8.51039C464.652 8.23814 462.667 8.00898 460.723 7.82156L460.915 5.83079C462.885 6.02068 464.894 6.25273 466.944 6.52821L466.677 8.51039ZM454.607 7.36115C452.567 7.25205 450.573 7.19141 448.624 7.17745L448.639 5.1775C450.619 5.19169 452.644 5.25331 454.714 5.36401L454.607 7.36115ZM442.518 7.29093C440.466 7.38385 438.466 7.53163 436.517 7.73186L436.312 5.74234C438.3 5.53811 440.338 5.38757 442.428 5.29297L442.518 7.29093ZM430.538 8.534C428.5 8.87403 426.521 9.27501 424.598 9.73376L424.134 7.78835C426.103 7.31877 428.127 6.90872 430.209 6.56127L430.538 8.534ZM418.84 11.3287C416.88 11.9505 414.981 12.6362 413.14 13.3819L412.389 11.5282C414.278 10.7629 416.226 10.0596 418.236 9.42229L418.84 11.3287ZM407.651 15.864C405.841 16.7709 404.091 17.7397 402.397 18.7658L401.361 17.0549C403.1 16.0017 404.897 15.0072 406.755 14.076L407.651 15.864ZM397.364 22.0901C395.723 23.2682 394.137 24.503 392.6 25.7897L391.316 24.2562C392.89 22.9388 394.515 21.6734 396.198 20.4654L397.364 22.0901ZM388.113 29.8205C386.661 31.2163 385.255 32.66 383.89 34.1465L382.416 32.7937C383.808 31.2784 385.243 29.8049 386.727 28.3787L388.113 29.8205ZM379.925 38.7152C378.647 40.2702 377.405 41.8624 376.195 43.4871L374.591 42.2923C375.819 40.6441 377.08 39.0267 378.38 37.4454L379.925 38.7152ZM372.67 48.4298C371.531 50.0962 370.418 51.7894 369.327 53.5046L367.639 52.4314C368.741 50.6993 369.866 48.9874 371.02 47.3007L372.67 48.4298ZM366.137 58.6778C365.097 60.4152 364.074 62.1693 363.064 63.9356L361.328 62.9431C362.343 61.1668 363.373 59.4008 364.422 57.6501L366.137 58.6778ZM360.079 69.2515C359.096 71.03 358.122 72.8155 357.153 74.6039L355.395 73.651C356.365 71.8596 357.342 70.0689 358.329 68.284L360.079 69.2515ZM354.252 79.9803C353.285 81.7762 352.318 83.5704 351.348 85.3572L349.59 84.4029C350.558 82.6195 351.524 80.8279 352.491 79.032L354.252 79.9803ZM348.407 90.72C347.411 92.5133 346.407 94.2948 345.391 96.0592L343.658 95.0607C344.668 93.3073 345.667 91.5352 346.658 89.7492L348.407 90.72ZM342.272 101.339C341.207 103.094 340.124 104.827 339.019 106.531L337.341 105.443C338.434 103.757 339.507 102.041 340.563 100.301L342.272 101.339ZM335.575 111.631C334.386 113.319 333.167 114.973 331.914 116.585L330.335 115.358C331.567 113.772 332.767 112.144 333.94 110.479L335.575 111.631ZM328.002 121.343C326.646 122.899 325.248 124.406 323.804 125.857L322.386 124.446C323.798 123.028 325.166 121.554 326.495 120.029L328.002 121.343ZM319.281 130.075C317.721 131.421 316.108 132.705 314.435 133.919L313.261 132.3C314.886 131.121 316.455 129.872 317.974 128.561L319.281 130.075ZM309.272 137.324C307.512 138.373 305.689 139.349 303.8 140.245L302.943 138.438C304.774 137.569 306.541 136.623 308.248 135.606L309.272 137.324ZM298.07 142.639C296.176 143.328 294.22 143.942 292.197 144.477L291.686 142.543C293.651 142.024 295.55 141.428 297.387 140.76L298.07 142.639ZM286.156 145.798C284.154 146.148 282.091 146.426 279.964 146.628L279.775 144.636C281.851 144.44 283.862 144.169 285.811 143.827L286.156 145.798ZM273.893 146.989C271.878 147.04 269.809 147.028 267.684 146.949L267.759 144.95C269.843 145.028 271.87 145.04 273.841 144.989L273.893 146.989ZM261.57 146.55C259.58 146.366 257.544 146.127 255.46 145.832L255.741 143.852C257.794 144.143 259.798 144.378 261.754 144.558L261.57 146.55ZM249.393 144.836C248.359 144.644 247.314 144.438 246.258 144.22L246.664 142.261C247.707 142.477 248.738 142.68 249.758 142.87L249.393 144.836ZM246.258 144.22C245.265 144.014 244.276 143.811 243.292 143.61L243.692 141.65C244.678 141.851 245.668 142.055 246.664 142.261L246.258 144.22ZM237.444 142.433C235.514 142.051 233.603 141.678 231.71 141.314L232.087 139.35C233.984 139.714 235.899 140.088 237.833 140.471L237.444 142.433ZM225.888 140.214C223.917 139.847 221.967 139.491 220.037 139.146L220.39 137.177C222.324 137.524 224.278 137.88 226.253 138.247L225.888 140.214ZM214.308 138.138C212.321 137.795 210.356 137.463 208.413 137.141L208.74 135.168C210.687 135.49 212.657 135.823 214.649 136.167L214.308 138.138ZM202.585 136.198C200.637 135.89 198.712 135.593 196.809 135.307L197.107 133.329C199.015 133.616 200.945 133.914 202.898 134.223L202.585 136.198ZM190.89 134.439C188.942 134.161 187.018 133.894 185.117 133.638L185.384 131.656C187.29 131.913 189.219 132.18 191.173 132.459L190.89 134.439ZM179.2 132.867C177.227 132.619 175.282 132.383 173.362 132.158L173.595 130.172C175.52 130.397 177.471 130.634 179.45 130.883L179.2 132.867ZM167.493 131.498C165.503 131.284 163.541 131.082 161.609 130.893L161.804 128.902C163.743 129.092 165.711 129.295 167.708 129.51L167.493 131.498ZM155.757 130.348C153.756 130.172 151.786 130.009 149.848 129.859L150.002 127.865C151.948 128.016 153.924 128.179 155.933 128.356L155.757 130.348ZM143.987 129.438C141.983 129.305 140.015 129.186 138.08 129.08L138.189 127.083C140.132 127.189 142.108 127.309 144.119 127.442L143.987 129.438ZM132.188 128.792C130.193 128.707 128.236 128.636 126.316 128.578L126.377 126.579C128.305 126.637 130.27 126.709 132.273 126.794L132.188 128.792ZM120.38 128.438C118.394 128.405 116.448 128.385 114.543 128.379L114.55 126.379C116.464 126.385 118.418 126.405 120.414 126.439L120.38 128.438ZM108.6 128.402C106.585 128.424 104.617 128.461 102.694 128.51L102.643 126.511C104.575 126.461 106.553 126.424 108.578 126.402L108.6 128.402ZM96.8426 128.705C94.8242 128.788 92.8586 128.884 90.9433 128.992L90.8307 126.996C92.756 126.887 94.732 126.79 96.7609 126.707L96.8426 128.705ZM85.0329 129.372C83.0143 129.517 81.055 129.674 79.1513 129.84L78.9777 127.847C80.8908 127.681 82.8603 127.523 84.8893 127.377L85.0329 129.372ZM73.2855 130.394C71.2677 130.599 69.316 130.811 67.4255 131.026L67.1989 129.039C69.0966 128.823 71.0566 128.61 73.0836 128.404L73.2855 130.394ZM61.5653 131.724C59.5398 131.975 57.5882 132.223 55.7018 132.465L55.448 130.481C57.3347 130.239 59.29 129.99 61.3201 129.739L61.5653 131.724ZM49.8343 133.209C47.8042 133.462 45.8502 133.695 43.9624 133.899L43.7471 131.911C45.6204 131.708 47.563 131.476 49.5877 131.225L49.8343 133.209ZM38.0463 134.45C35.9911 134.602 34.0065 134.7 32.0756 134.729L32.0461 132.729C33.9296 132.701 35.8739 132.605 37.8985 132.455L38.0463 134.45ZM26.0892 134.564C24.0638 134.411 22.0808 134.153 20.1166 133.766L20.5026 131.804C22.3819 132.174 24.2857 132.423 26.2394 132.57L26.0892 134.564ZM14.2904 132.213C12.4352 131.583 10.58 130.819 8.70385 129.904L9.58083 128.106C11.3837 128.986 13.1609 129.717 14.9336 130.319L14.2904 132.213ZM3.47244 126.99C2.63401 126.466 1.78824 125.911 0.933402 125.323L2.06662 123.675C2.89839 124.247 3.71968 124.786 4.5322 125.294L3.47244 126.99Z" fill="#C3D8DE"/>
</svg>
