<svg width="104" height="111" viewBox="0 0 104 111" fill="none" xmlns="http://www.w3.org/2000/svg">
<path d="M74.8842 12.1272L64.4721 12.3108C63.0009 12.3368 61.5355 12.2384 60.0884 12.021L38.2646 110.485C46.83 111.788 55.986 108.96 62.7758 101.241L85.6241 75.2659L95.9393 63.5393C113.182 43.9357 99.9744 11.6855 74.8842 12.1272Z" fill="url(#paint0_radial_581_4367)"/>
<path d="M60.0878 12.0209C56.8574 11.5363 53.7179 10.4537 50.8114 8.80984L41.5958 3.59682C19.3874 -8.96551 -5.92849 13.413 1.23882 39.2713L5.52572 54.7402L15.0226 89.0043C18.4316 101.304 27.9167 108.91 38.264 110.485L60.0878 12.0209Z" fill="url(#paint1_radial_581_4367)"/>
<path d="M24.7081 87.962L12.3858 84.8043C10.7536 84.3858 9.38499 83.1963 8.66276 81.5679C7.94053 79.9395 7.94184 78.0473 8.66669 76.4203L21.1074 48.4939L21.7178 17.5358C21.7538 15.7323 22.546 14.0427 23.8733 12.9397C25.2007 11.8367 26.9212 11.4386 28.5534 11.8571L40.8757 15.0148L38.3021 26.6254L32.6702 25.1827L32.1802 50.0365C32.1632 50.8862 31.9781 51.7219 31.6366 52.4879L21.6491 74.9079L27.281 76.3514L24.7081 87.962Z" fill="white"/>
<path d="M69.2247 99.3693L56.9023 96.2116L59.4759 84.601L65.1078 86.0444L65.5978 61.1906C65.6148 60.3409 65.8 59.5052 66.1415 58.7392L76.129 36.3192L70.4971 34.8757L73.0706 23.2651L85.393 26.4228C87.0252 26.8413 88.3937 28.0308 89.116 29.6592C89.8382 31.2876 89.8369 33.1798 89.112 34.8068L76.6707 62.7325L76.0603 93.6906C76.0243 95.4941 75.2321 97.1837 73.9047 98.2867C72.5767 99.3897 70.8562 99.7871 69.2247 99.3693Z" fill="white"/>
<path d="M42.926 110.781L43.1825 95.3418C43.365 84.3748 46.3978 73.7152 51.9539 64.5159C58.832 53.1276 62.5871 39.9315 62.8128 26.3548L63.0463 12.2942C58.7816 12.1388 54.5981 10.9535 50.811 8.81092L50.1574 8.44092L49.8637 26.1058C49.6812 37.0735 46.6484 47.7324 41.0923 56.9317C34.2142 68.32 30.4591 81.5161 30.2334 95.0928L30.0215 107.837C34.0428 109.872 38.4756 110.887 42.926 110.781Z" fill="url(#paint2_radial_581_4367)"/>
<defs>
<radialGradient id="paint0_radial_581_4367" cx="0" cy="0" r="1" gradientUnits="userSpaceOnUse" gradientTransform="translate(58.5059 80.3694) rotate(14.3707) scale(130.507 139.16)">
<stop stop-color="#85558A"/>
<stop offset="1" stop-color="#663069"/>
</radialGradient>
<radialGradient id="paint1_radial_581_4367" cx="0" cy="0" r="1" gradientUnits="userSpaceOnUse" gradientTransform="translate(15.3527 47.7339) rotate(14.3707) scale(126.997 135.418)">
<stop stop-color="#FBB600"/>
<stop offset="1" stop-color="#F48E00"/>
</radialGradient>
<radialGradient id="paint2_radial_581_4367" cx="0" cy="0" r="1" gradientUnits="userSpaceOnUse" gradientTransform="translate(46.6525 60.1575) rotate(14.3707) scale(34.5383 36.8283)">
<stop stop-color="#0EA39F"/>
<stop offset="1" stop-color="#008F8B"/>
</radialGradient>
</defs>
</svg>
