<svg width="44" height="40" viewBox="0 0 44 40" fill="none" xmlns="http://www.w3.org/2000/svg">
<g clip-path="url(#clip0_3_2)">
<mask id="mask0_3_2" style="mask-type:luminance" maskUnits="userSpaceOnUse" x="0" y="0" width="44" height="40">
<path d="M43.27 0H0V40H43.27V0Z" fill="white"/>
</mask>
<g mask="url(#mask0_3_2)">
<path d="M19.4 40C14.2912 40.0266 9.37588 38.0482 5.70997 34.49C3.91474 32.768 2.48626 30.7008 1.51043 28.4126C0.534594 26.1245 0.0315552 23.6626 0.0315552 21.175C0.0315552 18.6874 0.534594 16.2255 1.51043 13.9374C2.48626 11.6492 3.91474 9.58196 5.70997 7.85999C9.39157 4.32633 14.2969 2.35312 19.4 2.35312C24.503 2.35312 29.4084 4.32633 33.09 7.85999C34.8827 9.58342 36.3089 11.6511 37.2831 13.9391C38.2573 16.2271 38.7595 18.6882 38.7595 21.175C38.7595 23.6618 38.2573 26.1229 37.2831 28.4109C36.3089 30.6989 34.8827 32.7666 33.09 34.49C29.4223 38.0455 24.5081 40.0234 19.4 40ZM19.4 3.41999C14.583 3.40255 9.95003 5.26867 6.48997 8.61999C4.80138 10.2461 3.45817 12.1961 2.5407 14.3533C1.62322 16.5106 1.15034 18.8307 1.15034 21.175C1.15034 23.5192 1.62322 25.8394 2.5407 27.9966C3.45817 30.1539 4.80138 32.1039 6.48997 33.73C9.96187 37.0661 14.59 38.9293 19.405 38.9293C24.2199 38.9293 28.8481 37.0661 32.32 33.73C34.0111 32.1054 35.3565 30.1558 36.2756 27.9984C37.1947 25.8409 37.6685 23.52 37.6685 21.175C37.6685 18.8299 37.1947 16.5091 36.2756 14.3516C35.3565 12.1942 34.0111 10.2446 32.32 8.61999C28.8533 5.27258 24.219 3.40736 19.4 3.41999Z" fill="white"/>
<path d="M20.05 17.7C20.0582 17.3005 20.1326 16.9052 20.27 16.53C20.4056 16.1575 20.6167 15.8171 20.89 15.53C21.1733 15.2471 21.5144 15.0288 21.89 14.89C22.7546 14.5699 23.7053 14.5699 24.57 14.89C24.9424 15.0397 25.282 15.2604 25.57 15.54C25.8399 15.8278 26.0475 16.1683 26.18 16.54C26.3231 16.917 26.3976 17.3167 26.4 17.72C26.4 18.3867 26.4 19.0533 26.4 19.72C26.3883 20.12 26.3106 20.5153 26.17 20.89C26.0283 21.2539 25.8131 21.5848 25.5378 21.8618C25.2625 22.1388 24.933 22.3561 24.57 22.5C23.7104 22.81 22.7695 22.81 21.91 22.5C21.5325 22.365 21.1906 22.1462 20.91 21.86C20.6296 21.5784 20.4175 21.2363 20.29 20.86C20.1414 20.4873 20.0601 20.0911 20.05 19.69C20.03 19 20.03 18.36 20.05 17.7ZM25.28 17.76C25.2704 17.4488 25.2096 17.1414 25.1 16.85C25.0131 16.6033 24.8692 16.3805 24.68 16.2C24.4915 16.0303 24.2703 15.901 24.03 15.82C23.7657 15.7314 23.4886 15.6875 23.21 15.69C22.9314 15.6884 22.6544 15.7323 22.39 15.82C22.1461 15.8981 21.9237 16.0316 21.74 16.21C21.5511 16.3889 21.4042 16.6075 21.31 16.85C21.1989 17.1406 21.1413 17.4489 21.14 17.76C21.14 18.09 21.14 18.4 21.14 18.69C21.14 18.98 21.14 19.29 21.14 19.63C21.1413 19.9411 21.1989 20.2494 21.31 20.54C21.4068 20.7812 21.5533 20.9992 21.74 21.18C21.9237 21.3584 22.1461 21.4919 22.39 21.57C22.9234 21.74 23.4965 21.74 24.03 21.57C24.2715 21.4911 24.4931 21.3609 24.6795 21.1883C24.866 21.0157 25.0128 20.8047 25.11 20.57C25.221 20.2794 25.2786 19.9711 25.28 19.66C25.28 19.32 25.28 19.01 25.28 18.72C25.28 18.43 25.28 18.12 25.28 17.79V17.76Z" fill="white"/>
<path d="M32.4 16.42C32.3801 16.5275 32.3318 16.6276 32.26 16.71C32.2133 16.7555 32.1592 16.7927 32.1 16.82C32.037 16.8296 31.973 16.8296 31.91 16.82H31.24H31.15H31.07C31.0438 16.7985 31.0233 16.7711 31.01 16.74C31.0044 16.7069 31.0044 16.6731 31.01 16.64C31.01 16.64 31.01 16.59 31.01 16.57L31.61 15.07C31.6505 14.9876 31.7009 14.9103 31.76 14.84C31.807 14.7975 31.8612 14.7637 31.92 14.74C31.9791 14.7252 32.0409 14.7252 32.1 14.74H32.4C32.4327 14.7305 32.4673 14.7305 32.5 14.74L32.58 14.79C32.6022 14.8127 32.6193 14.84 32.63 14.87C32.6392 14.8993 32.6392 14.9307 32.63 14.96L32.4 16.42Z" fill="white"/>
<path d="M43.27 27.85H13.91V0H13.03V28.7H43.27V27.85Z" fill="white"/>
</g>
</g>
<defs>
<clipPath id="clip0_3_2">
<rect width="43.27" height="40" fill="white"/>
</clipPath>
</defs>
</svg>
