<svg width="170" height="200" viewBox="0 0 170 200" fill="none" xmlns="http://www.w3.org/2000/svg">
<rect width="170" height="200" rx="15" fill="white"/>
<path d="M92.1872 99.9984L102.18 53.6848C102.375 52.7863 102.151 51.8457 101.574 51.1321C100.997 50.4152 100.129 50 99.2089 50H90.3046H78.9442H70.04C69.1197 50 68.2514 50.4152 67.6746 51.1321C67.0978 51.8489 66.8742 52.7863 67.0687 53.6848L69.8683 66.6629L69.8553 66.6661L77.0552 100.031L67.0687 146.315C66.8742 147.214 67.0978 148.154 67.6746 148.868C68.2514 149.585 69.1197 150 70.04 150H78.9442H90.3046H99.2089C100.129 150 100.997 149.585 101.574 148.868C102.151 148.151 102.375 147.214 102.18 146.315L92.1872 99.9984ZM90.3079 143.912H78.9475H73.8117L80.1691 114.443L85.2628 138.053L91.2054 136.769L83.1857 99.5994C83.176 99.5183 83.1631 99.4372 83.1469 99.3561L73.8117 56.0852H78.9475H90.3079H95.4437L89.0765 85.5866L84.6827 65.2292L78.7401 66.5137L90.9656 123.168L95.4404 143.912H90.3079Z" fill="url(#paint0_radial_1357_8115)"/>
<defs>
<radialGradient id="paint0_radial_1357_8115" cx="0" cy="0" r="1" gradientUnits="userSpaceOnUse" gradientTransform="translate(71.0281 106.841) scale(96.1527 96.2546)">
<stop stop-color="#F3B800"/>
<stop offset="1" stop-color="#F48E00"/>
</radialGradient>
</defs>
</svg>
