<svg width="370" height="482" viewBox="0 0 370 482" fill="none" xmlns="http://www.w3.org/2000/svg">
<g clip-path="url(#clip0_1351_7735)">
<path fill-rule="evenodd" clip-rule="evenodd" d="M114.75 0.00634766H57.3376C49.743 0.00634766 42.5572 3.45614 37.7873 9.40299C33.0174 15.3374 31.1838 23.1275 32.7821 30.5937L60.342 158.853L32.7821 287.112C31.1776 294.572 33.0174 302.362 37.7873 308.302C42.5572 314.243 49.743 317.699 57.3376 317.699H114.756V267.197H88.4657L110.605 164.189C111.361 160.677 111.361 157.041 110.605 153.528L88.4657 50.5141H114.756V0.00634766H114.75Z" fill="url(#paint0_radial_1351_7735)"/>
<path fill-rule="evenodd" clip-rule="evenodd" d="M309.824 0.00611192H252.406V50.5076H278.696L256.557 153.516C255.801 157.028 255.801 160.664 256.557 164.177L278.696 267.185H252.406V317.686H309.824C317.419 317.686 324.599 314.23 329.375 308.29C334.145 302.349 335.978 294.565 334.38 287.099L306.82 158.84L334.38 30.581C335.984 23.121 334.145 15.3309 329.375 9.3903C324.605 3.45591 317.419 -0.000115152 309.824 0.00611192Z" fill="url(#paint1_radial_1351_7735)"/>
<path fill-rule="evenodd" clip-rule="evenodd" d="M203.272 0.00634766H153.033L165.77 58.3851C172.553 89.4395 170.533 121.696 159.916 151.654C146.145 190.53 143.525 232.382 152.321 272.683L162.115 317.693H213.555L201.395 261.855C194.612 230.8 196.631 198.544 207.249 168.586C221.02 129.71 223.64 87.8641 214.844 47.5562L203.272 0.00634766Z" fill="url(#paint2_radial_1351_7735)"/>
<path d="M0 412.936V360.535H22.4122V368.319H9.2548V381.987H22.0344V389.777H9.2548V405.146H22.4122V412.936H0Z" fill="#262626"/>
<path d="M49.4833 412.936L37.8993 392.305V412.936H28.6445V360.535H37.8993V381.041L47.6559 360.535H57.0408L44.2612 386.608L58.9921 412.936H49.4833Z" fill="#262626"/>
<path d="M74.2921 367.435L70.6992 394.136H77.7549L74.2921 367.435ZM80.208 412.936L78.7585 401.858H69.7576L68.3081 412.936H59.1152L66.7285 360.535H81.8372L89.3947 412.936H80.208Z" fill="#262626"/>
<path d="M96.705 412.936V368.319H89.5254V360.535H113.195V368.319H105.96V412.936H96.705Z" fill="#262626"/>
<path d="M117.729 412.936V360.535H140.141V368.319H126.983V381.987H139.763V389.777H126.983V405.146H140.141V412.936H117.729Z" fill="#262626"/>
<path d="M165.322 374.266C165.322 370.15 164.505 368.319 161.104 368.319H155.628V385.786H161.104C164.499 385.786 165.322 383.955 165.322 379.777V374.266ZM146.373 412.936V360.535H164.251C173.06 360.535 174.571 366.613 174.571 372.871V381.227C174.571 387.492 173.06 393.57 164.251 393.57H155.628V412.936H146.373Z" fill="#262626"/>
<path d="M180.246 412.936V360.535H188.745L188.491 391.67L200.769 360.535H209.708V412.936H201.209L201.463 381.863L189.439 412.936H180.246Z" fill="#262626"/>
<path d="M235.836 412.936V389.833H226.142V412.936H216.887V360.535H226.142V382.049H235.836V360.535H245.091V412.936H235.836Z" fill="#262626"/>
<path d="M271.219 394.136C271.219 389.964 270.402 388.127 267.001 388.127H261.525V405.152H267.001C270.395 405.152 271.219 403.315 271.219 399.205V394.136ZM279.272 360.535V368.319H261.518V380.343H270.141C278.95 380.343 280.462 386.421 280.462 392.679V400.587C280.462 406.852 278.95 412.923 270.141 412.923H252.264V360.522L279.272 360.535Z" fill="#262626"/>
<path d="M288.473 412.936L293.503 395.786L282.551 360.535H291.614L297.536 383.127L303.761 360.535H312.582L297.282 412.936H288.473Z" fill="#262626"/>
<path d="M334.803 374.266C334.803 370.15 333.985 368.319 330.584 368.319H325.108V385.786H330.584C333.979 385.786 334.803 383.955 334.803 379.777V374.266ZM315.854 412.936V360.535H333.731C342.54 360.535 344.052 366.613 344.052 372.871V381.227C344.052 387.492 342.54 393.57 333.731 393.57H325.108V412.936H315.854Z" fill="#262626"/>
<path d="M349.725 412.936V360.535H370V368.319H358.979V412.936H349.725Z" fill="#262626"/>
<path fill-rule="evenodd" clip-rule="evenodd" d="M160.07 429.419H146.287V437.165H155.3L151.491 454.887C151.379 455.423 151.379 455.983 151.491 456.525L155.3 474.247H146.287V481.994H160.07C161.235 481.994 162.337 481.464 163.068 480.549C163.799 479.64 164.084 478.444 163.837 477.305L159.197 455.709L163.837 434.114C164.084 432.968 163.799 431.772 163.068 430.863C162.331 429.942 161.235 429.412 160.07 429.419Z" fill="url(#paint3_radial_1351_7735)"/>
<path fill-rule="evenodd" clip-rule="evenodd" d="M212.21 429.419H197.535C195.72 429.419 194.152 430.695 193.768 432.476L192.715 437.358L192.709 437.34L191.154 444.563H191.16L184.78 474.247H176.324L172.341 455.709L176.324 437.171H184.78L186.545 445.372L189.859 429.967C189.283 429.618 188.608 429.425 187.896 429.425H173.221C171.406 429.425 169.838 430.702 169.454 432.482L164.641 454.894C164.523 455.429 164.523 455.99 164.641 456.531L169.454 478.949C169.838 480.73 171.406 482.006 173.221 482.006H187.896C189.711 482.006 191.278 480.73 191.668 478.949L192.721 474.067V474.079L194.45 466.059H194.443L200.65 437.184H209.106L213.089 455.722L209.106 474.26H200.65L198.885 466.046L195.571 481.458C196.153 481.807 196.822 482.006 197.541 482.006H212.216C214.031 482.006 215.598 480.73 215.982 478.949L220.795 456.531C220.907 455.996 220.907 455.435 220.795 454.894L215.982 432.482C215.598 430.695 214.025 429.425 212.21 429.419Z" fill="url(#paint4_radial_1351_7735)"/>
</g>
<defs>
<radialGradient id="paint0_radial_1351_7735" cx="0" cy="0" r="1" gradientUnits="userSpaceOnUse" gradientTransform="translate(78.3226 184.298) rotate(-73.8495) scale(257.171 256.04)">
<stop stop-color="#F3BC00"/>
<stop offset="1" stop-color="#F39314"/>
</radialGradient>
<radialGradient id="paint1_radial_1351_7735" cx="0" cy="0" r="1" gradientUnits="userSpaceOnUse" gradientTransform="translate(291.178 149.574) rotate(-53.5468) scale(411.87 409.791)">
<stop stop-color="#8C5D91"/>
<stop offset="1" stop-color="#6D3D70"/>
</radialGradient>
<radialGradient id="paint2_radial_1351_7735" cx="0" cy="0" r="1" gradientUnits="userSpaceOnUse" gradientTransform="translate(179.191 177.65) rotate(-88.6613) scale(192.681 173.997)">
<stop stop-color="#2AA7A4"/>
<stop offset="1" stop-color="#009490"/>
</radialGradient>
<radialGradient id="paint3_radial_1351_7735" cx="0" cy="0" r="1" gradientUnits="userSpaceOnUse" gradientTransform="translate(155.148 455.701) scale(19.3712 19.6481)">
<stop stop-color="#2AA7A4"/>
<stop offset="1" stop-color="#009490"/>
</radialGradient>
<radialGradient id="paint4_radial_1351_7735" cx="0" cy="0" r="1" gradientUnits="userSpaceOnUse" gradientTransform="translate(192.791 455.807) scale(27.1468 27.3182)">
<stop stop-color="#2AA7A4"/>
<stop offset="1" stop-color="#009490"/>
</radialGradient>
<clipPath id="clip0_1351_7735">
<rect width="370" height="482" fill="white"/>
</clipPath>
</defs>
</svg>
