<svg width="170" height="200" viewBox="0 0 170 200" fill="none" xmlns="http://www.w3.org/2000/svg">
<rect width="170" height="200" rx="15" fill="white"/>
<path d="M85.3224 109.91C83.6253 109.91 82.2461 111.287 82.2461 112.989C82.2461 114.688 83.622 116.069 85.3224 116.069C87.0196 116.069 88.3988 114.692 88.3988 112.989C88.3988 111.29 87.0196 109.91 85.3224 109.91Z" fill="url(#paint0_radial_1357_8116)"/>
<path d="M85.321 50C63.6404 50 46 69.6764 46 93.8619C46 110.085 53.8175 124.694 66.5091 132.393C68.0083 142.389 75.9978 150 85.3242 150C94.6669 150 102.656 142.389 104.139 132.39C116.828 124.691 124.645 110.082 124.645 93.8619C124.642 69.6764 107.002 50 85.321 50ZM85.321 56.0943C96.9287 56.0943 107.164 62.8935 113.109 73.1719C105.59 72.0706 98.0385 71.5054 90.4677 71.0051C90.3152 78.2299 90.3801 85.5748 90.5683 92.7963L90.6008 93.7677L90.6138 94.242C90.6008 94.2549 90.6137 94.2679 90.6008 94.2777C90.5878 94.3459 90.4872 94.3914 90.4353 94.3914L89.1989 94.3881L85.3177 94.3686L81.4366 94.3914L80.2002 94.3946C80.1223 94.4044 80.0282 94.3167 80.0185 94.242C80.0574 93.2511 80.1288 89.9539 80.1515 88.9143C80.2684 82.963 80.2813 76.9727 80.1612 71.0116C72.5936 71.5216 65.0455 72.0771 57.5299 73.1719C63.4781 62.8935 73.7132 56.0943 85.321 56.0943ZM99.8136 127.855L98.3728 128.651L98.2495 130.294C98.0905 132.403 97.5421 134.384 96.6918 136.151L95.6599 106.43L89.5753 106.642L90.8215 142.476C89.1437 143.389 87.2778 143.906 85.3242 143.906C83.3739 143.906 81.508 143.389 79.827 142.473L81.0731 106.645L74.9886 106.434L73.9566 136.135C73.1096 134.374 72.558 132.396 72.3957 130.294L72.2692 128.654L70.8316 127.858C59.2725 121.475 52.0911 108.448 52.0911 93.8651C52.0911 86.2993 54.0608 79.2467 57.4455 73.3311C63.5463 74.2212 69.6536 74.7637 75.7868 75.2022C75.3001 79.6787 74.8944 84.1585 74.5375 88.6415L74.2422 92.517C74.213 93.2576 74.0767 94.1802 74.1708 94.9144C74.4142 97.955 77.166 100.463 80.2164 100.437C80.3722 100.437 81.2711 100.447 81.4398 100.443C83.3739 100.466 87.2648 100.46 89.1989 100.447L90.1692 100.44C91.9897 100.495 93.8361 99.7125 95.0076 98.3221C96.1694 97.0195 96.6659 95.2068 96.4679 93.485L96.403 92.517L96.111 88.6415C95.7572 84.1617 95.3516 79.6852 94.8648 75.212C95.8514 75.1437 96.8411 75.0723 97.8276 74.9911C102.971 74.5818 108.082 74.088 113.2 73.3343C116.584 79.2499 118.554 86.2993 118.554 93.8651C118.554 108.445 111.373 121.471 99.8136 127.855Z" fill="url(#paint1_radial_1357_8116)"/>
<defs>
<radialGradient id="paint0_radial_1357_8116" cx="0" cy="0" r="1" gradientUnits="userSpaceOnUse" gradientTransform="translate(68.1791 101.99) scale(115.569 115.691)">
<stop stop-color="#85558A"/>
<stop offset="1" stop-color="#663069"/>
</radialGradient>
<radialGradient id="paint1_radial_1357_8116" cx="0" cy="0" r="1" gradientUnits="userSpaceOnUse" gradientTransform="translate(68.1776 101.99) scale(115.569 115.691)">
<stop stop-color="#85558A"/>
<stop offset="1" stop-color="#663069"/>
</radialGradient>
</defs>
</svg>
