<svg width="64" height="59" viewBox="0 0 64 59" fill="none" xmlns="http://www.w3.org/2000/svg">
<g clip-path="url(#clip0_482_3658)">
<path fill-rule="evenodd" clip-rule="evenodd" d="M16 17.4199H44V58.4199H16V17.4199ZM18 19.4199V56.4199H42V19.4199H18Z" fill="#B0CDE3"/>
<path d="M40 13.4199H20V18.4199H40V13.4199Z" fill="white"/>
<path fill-rule="evenodd" clip-rule="evenodd" d="M19 12.4199H41V19.4199H19V12.4199ZM21 14.4199V17.4199H39V14.4199H21Z" fill="white"/>
<path d="M34 49.4199H28V57.4199H34V49.4199Z" fill="white"/>
<path fill-rule="evenodd" clip-rule="evenodd" d="M27 48.4199H35V58.4199H27V48.4199ZM29 50.4199V56.4199H33V50.4199H29Z" fill="white"/>
<path fill-rule="evenodd" clip-rule="evenodd" d="M21 26.4199H28V32.4199H26V28.4199H23V32.4199H21V26.4199Z" fill="#B0CDE3"/>
<path fill-rule="evenodd" clip-rule="evenodd" d="M21 34.4199H28V40.4199H26V36.4199H23V40.4199H21V34.4199Z" fill="#B0CDE3"/>
<path fill-rule="evenodd" clip-rule="evenodd" d="M6 31.4199H18V58.4199H6V31.4199ZM8 33.4199V56.4199H16V33.4199H8Z" fill="#B0CDE3"/>
<path d="M17 27.4199H10V32.4199H17V27.4199Z" fill="white"/>
<path fill-rule="evenodd" clip-rule="evenodd" d="M9 26.4199H18V33.4199H9V26.4199ZM11 28.4199V31.4199H16V28.4199H11Z" fill="white"/>
<path d="M43.07 25.4199C37.04 25.4199 32.14 30.3099 32.14 36.3499C32.14 45.7799 41.46 47.0599 42.24 56.6399C42.28 57.0799 42.63 57.4199 43.07 57.4199C43.51 57.4199 43.86 57.0799 43.9 56.6399C44.68 47.0499 54 45.7799 54 36.3399C54 30.3099 49.11 25.4199 43.07 25.4199Z" fill="#F39314"/>
<path fill-rule="evenodd" clip-rule="evenodd" d="M31.14 36.3499C31.14 29.757 36.4883 24.4199 43.07 24.4199C49.6617 24.4199 55 29.757 55 36.3399C55 41.47 52.4206 44.3982 49.9857 47.1028C49.9525 47.1396 49.9193 47.1765 49.8862 47.2132C47.4844 49.8802 45.2515 52.3597 44.8967 56.721L44.896 56.7305L44.8959 56.7305C44.8123 57.6506 44.0616 58.4199 43.07 58.4199C42.0784 58.4199 41.3278 57.6506 41.2441 56.7305L41.2433 56.7211L41.2433 56.7211C40.8886 52.3647 38.6557 49.8853 36.2538 47.2182C36.2207 47.1814 36.1875 47.1446 36.1543 47.1078C33.7196 44.4035 31.14 41.4752 31.14 36.3499ZM43.07 26.4199C37.5917 26.4199 33.14 30.8628 33.14 36.3499C33.14 40.6547 35.2204 43.0814 37.6407 45.7696C37.7006 45.8361 37.7608 45.9029 37.8211 45.9698C39.9745 48.3589 42.3461 50.9901 43.0699 55.2265C43.7935 50.9856 46.1654 48.3541 48.3192 45.9645C48.3795 45.8977 48.4395 45.831 48.4993 45.7646C50.9194 43.0766 53 40.6498 53 36.3399C53 30.8628 48.5583 26.4199 43.07 26.4199Z" fill="white"/>
<path d="M43 40.4199C45.2091 40.4199 47 38.6291 47 36.4199C47 34.2108 45.2091 32.4199 43 32.4199C40.7909 32.4199 39 34.2108 39 36.4199C39 38.6291 40.7909 40.4199 43 40.4199Z" fill="#E9F1F7"/>
<path fill-rule="evenodd" clip-rule="evenodd" d="M43 33.4199C41.3431 33.4199 40 34.7631 40 36.4199C40 38.0768 41.3431 39.4199 43 39.4199C44.6569 39.4199 46 38.0768 46 36.4199C46 34.7631 44.6569 33.4199 43 33.4199ZM38 36.4199C38 33.6585 40.2386 31.4199 43 31.4199C45.7614 31.4199 48 33.6585 48 36.4199C48 39.1813 45.7614 41.4199 43 41.4199C40.2386 41.4199 38 39.1813 38 36.4199Z" fill="white"/>
<path fill-rule="evenodd" clip-rule="evenodd" d="M54 58.4199H4V56.4199H54V58.4199Z" fill="#B0CDE3"/>
<path fill-rule="evenodd" clip-rule="evenodd" d="M14.9544 2.29085C16.062 1.06074 17.684 0 19.58 0C22.0506 0 24.1766 1.43986 25.2716 3.45517C25.4959 3.41443 25.7325 3.39 25.98 3.39C27.5788 3.39 28.9104 4.3643 29.6589 5.42H36V7.42H28.4875L28.2092 6.87433C27.8209 6.11297 26.9071 5.39 25.98 5.39C25.6937 5.39 25.4002 5.45981 25.079 5.58335L24.1363 5.94592L23.7831 4.99965C23.1359 3.26531 21.476 2 19.58 2C18.446 2 17.323 2.64926 16.4406 3.62915C15.5419 4.62721 15.0833 5.75582 15.08 6.425L15.075 7.42H6V5.42H13.212C13.4783 4.34493 14.1255 3.21133 14.9544 2.29085Z" fill="#B0CDE3"/>
<path fill-rule="evenodd" clip-rule="evenodd" d="M4 13.4199H11V15.4199H4V13.4199Z" fill="#B0CDE3"/>
<path fill-rule="evenodd" clip-rule="evenodd" d="M49.7229 7.36915C50.7325 6.44018 52.0736 6.04004 53.45 6.04004C55.1669 6.04004 56.7047 6.8036 57.6847 8.0887C58.4617 8.0648 59.2444 8.18552 59.9578 8.56177C60.7011 8.9538 61.2834 9.5776 61.6967 10.42H64V12.42H60.3172L60.0847 11.7462C59.805 10.9355 59.4178 10.5381 59.0247 10.3308C58.608 10.111 58.0454 10.0318 57.3012 10.1227L56.6468 10.2026L56.3155 9.63266C55.7502 8.66033 54.7052 8.04004 53.45 8.04004C52.4464 8.04004 51.6325 8.3299 51.0771 8.84092C50.5352 9.33951 50.1285 10.1501 50.12 11.4267L50.1134 12.42H45V10.42H48.1931C48.3774 9.155 48.9047 8.12203 49.7229 7.36915Z" fill="#B0CDE3"/>
<path fill-rule="evenodd" clip-rule="evenodd" d="M15 15.4199H13V13.4199H15V15.4199Z" fill="#B0CDE3"/>
<path fill-rule="evenodd" clip-rule="evenodd" d="M40 7.41992H38V5.41992H40V7.41992Z" fill="#B0CDE3"/>
<path fill-rule="evenodd" clip-rule="evenodd" d="M44 7.41992H42V5.41992H44V7.41992Z" fill="#B0CDE3"/>
<path fill-rule="evenodd" clip-rule="evenodd" d="M0 56.4199H2V58.4199H0V56.4199Z" fill="#B0CDE3"/>
<path fill-rule="evenodd" clip-rule="evenodd" d="M60 58.4199H56V56.4199H60V58.4199Z" fill="#B0CDE3"/>
<path fill-rule="evenodd" clip-rule="evenodd" d="M64 58.4199H62V56.4199H64V58.4199Z" fill="#B0CDE3"/>
</g>
<defs>
<clipPath id="clip0_482_3658">
<rect width="64" height="58.42" fill="white"/>
</clipPath>
</defs>
</svg>
