<svg width="64" height="62" viewBox="0 0 64 62" fill="none" xmlns="http://www.w3.org/2000/svg">
<g clip-path="url(#clip0_907_5809)">
<path fill-rule="evenodd" clip-rule="evenodd" d="M61 61.4199H10V59.4199H61V61.4199Z" fill="#B0CDE3"/>
<path fill-rule="evenodd" clip-rule="evenodd" d="M48 22.0579V20.4199H46V22.782L51 28.782V30.4199H53V28.0579L48 22.0579Z" fill="#B0CDE3"/>
<path fill-rule="evenodd" clip-rule="evenodd" d="M41 22.2576V20.4199H39V22.5822L41 28.5822V30.4199H43V28.2576L41 22.2576Z" fill="#B0CDE3"/>
<path fill-rule="evenodd" clip-rule="evenodd" d="M28 20.4199V22.782L23 28.782V30.4199H21V28.0579L26 22.0579V20.4199H28Z" fill="#B0CDE3"/>
<path fill-rule="evenodd" clip-rule="evenodd" d="M35 20.4199V22.5822L33 28.5822V30.4199H31V28.2576L33 22.2576V20.4199H35Z" fill="#B0CDE3"/>
<path fill-rule="evenodd" clip-rule="evenodd" d="M11.9544 2.29085C13.062 1.06074 14.684 0 16.58 0C19.0506 0 21.1766 1.43986 22.2716 3.45517C22.4959 3.41443 22.7325 3.39 22.98 3.39C24.5788 3.39 25.9104 4.3643 26.6589 5.42H33V7.42H25.4875L25.2092 6.87433C24.8209 6.11297 23.9071 5.39 22.98 5.39C22.6937 5.39 22.4002 5.45981 22.079 5.58335L21.1363 5.94592L20.7831 4.99965C20.1359 3.26531 18.476 2 16.58 2C15.446 2 14.323 2.64926 13.4406 3.62915C12.5419 4.62721 12.0833 5.75582 12.08 6.425L12.075 7.42H3V5.42H10.212C10.4783 4.34493 11.1255 3.21133 11.9544 2.29085Z" fill="#B0CDE3"/>
<path fill-rule="evenodd" clip-rule="evenodd" d="M0 14.4199H11V16.4199H0V14.4199Z" fill="#B0CDE3"/>
<path fill-rule="evenodd" clip-rule="evenodd" d="M47.7229 2.36915C48.7325 1.44018 50.0736 1.04004 51.45 1.04004C53.1669 1.04004 54.7047 1.8036 55.6847 3.0887C56.4617 3.0648 57.2444 3.18552 57.9578 3.56177C58.7011 3.9538 59.2834 4.5776 59.6967 5.42004H63V7.42004H58.3172L58.0847 6.74618C57.805 5.93549 57.4178 5.53809 57.0247 5.33081C56.608 5.11102 56.0454 5.0318 55.3012 5.12267L54.6468 5.20256L54.3155 4.63266C53.7502 3.66033 52.7052 3.04004 51.45 3.04004C50.4464 3.04004 49.6325 3.3299 49.0771 3.84092C48.5352 4.33951 48.1285 5.15012 48.12 6.42671L48.1134 7.42004H42V5.42004H46.1931C46.3774 4.155 46.9047 3.12203 47.7229 2.36915Z" fill="#B0CDE3"/>
<path fill-rule="evenodd" clip-rule="evenodd" d="M57 60.4199V31.4199H59V60.4199H57Z" fill="#B0CDE3"/>
<path d="M52 13.4199H22V20.4199H52V13.4199Z" fill="white"/>
<path fill-rule="evenodd" clip-rule="evenodd" d="M21 12.4199H53V21.4199H21V12.4199ZM23 14.4199V19.4199H51V14.4199H23Z" fill="#B0CDE3"/>
<path d="M12 30.4199V36.4199C12 39.0099 14.41 41.4199 17 41.4199C19.59 41.4199 22 39.0099 22 36.4199C22 39.0099 24.41 41.4199 27 41.4199C29.59 41.4199 32 39.0099 32 36.4199C32 39.0099 34.41 41.4199 37 41.4199C39.59 41.4199 42 39.0099 42 36.4199C42 39.0099 44.41 41.4199 47 41.4199C49.59 41.4199 52 39.0099 52 36.4199C52 39.0099 54.41 41.4199 57 41.4199C59.59 41.4199 62 39.0099 62 36.4199V30.4199H12Z" fill="white"/>
<path fill-rule="evenodd" clip-rule="evenodd" d="M11 29.4199H63V36.4199C63 38.0236 62.259 39.5177 61.1784 40.5983C60.0977 41.6789 58.6037 42.4199 57 42.4199C55.3963 42.4199 53.9023 41.6789 52.8216 40.5983C52.518 40.2946 52.2411 39.9583 52 39.5961C51.7589 39.9583 51.482 40.2946 51.1784 40.5983C50.0977 41.6789 48.6037 42.4199 47 42.4199C45.3963 42.4199 43.9023 41.6789 42.8216 40.5983C42.518 40.2946 42.2411 39.9583 42 39.5961C41.7589 39.9583 41.482 40.2946 41.1784 40.5983C40.0977 41.6789 38.6037 42.4199 37 42.4199C35.3963 42.4199 33.9023 41.6789 32.8216 40.5983C32.518 40.2946 32.2411 39.9583 32 39.5961C31.7589 39.9583 31.482 40.2946 31.1784 40.5983C30.0977 41.6789 28.6037 42.4199 27 42.4199C25.3963 42.4199 23.9023 41.6789 22.8216 40.5983C22.518 40.2946 22.2411 39.9583 22 39.5961C21.7589 39.9583 21.482 40.2946 21.1784 40.5983C20.0977 41.6789 18.6037 42.4199 17 42.4199C15.3963 42.4199 13.9023 41.6789 12.8216 40.5983C11.741 39.5177 11 38.0236 11 36.4199V29.4199ZM21 36.4199H23C23 37.4062 23.464 38.4122 24.2359 39.1841C25.0077 39.956 26.0137 40.4199 27 40.4199C27.9863 40.4199 28.9923 39.956 29.7641 39.1841C30.536 38.4122 31 37.4062 31 36.4199H33C33 37.4062 33.464 38.4122 34.2359 39.1841C35.0077 39.956 36.0137 40.4199 37 40.4199C37.9863 40.4199 38.9923 39.956 39.7641 39.1841C40.536 38.4122 41 37.4062 41 36.4199H43C43 37.4062 43.464 38.4122 44.2359 39.1841C45.0077 39.956 46.0137 40.4199 47 40.4199C47.9863 40.4199 48.9923 39.956 49.7641 39.1841C50.536 38.4122 51 37.4062 51 36.4199H53C53 37.4062 53.464 38.4122 54.2359 39.1841C55.0077 39.956 56.0137 40.4199 57 40.4199C57.9863 40.4199 58.9923 39.956 59.7641 39.1841C60.536 38.4122 61 37.4062 61 36.4199V31.4199H13V36.4199C13 37.4062 13.464 38.4122 14.2359 39.1841C15.0077 39.956 16.0137 40.4199 17 40.4199C17.9863 40.4199 18.9923 39.956 19.7641 39.1841C20.536 38.4122 21 37.4062 21 36.4199Z" fill="#B0CDE3"/>
<path fill-rule="evenodd" clip-rule="evenodd" d="M21.6617 19.4199H52.3383L63 27.5655V31.4199H11V27.5655L21.6617 19.4199ZM22.3383 21.4199L13 28.5544V29.4199H61V28.5544L51.6617 21.4199H22.3383Z" fill="#B0CDE3"/>
<path fill-rule="evenodd" clip-rule="evenodd" d="M21 36.4199V34.4199H23V36.4199H21Z" fill="#B0CDE3"/>
<path fill-rule="evenodd" clip-rule="evenodd" d="M31 36.4199V34.4199H33V36.4199H31Z" fill="#B0CDE3"/>
<path fill-rule="evenodd" clip-rule="evenodd" d="M41 36.4199V34.4199H43V36.4199H41Z" fill="#B0CDE3"/>
<path fill-rule="evenodd" clip-rule="evenodd" d="M51 36.4199V34.4199H53V36.4199H51Z" fill="#B0CDE3"/>
<path fill-rule="evenodd" clip-rule="evenodd" d="M4 59.4199H8V61.4199H4V59.4199Z" fill="#B0CDE3"/>
<path d="M14.8099 60.4199C15.2499 48.9099 26.2799 46.0399 26.2799 36.5999C26.2799 29.3799 19.9699 23.6299 12.5699 24.5599C6.23995 25.3499 1.55995 31.0999 2.02995 37.4599C2.67995 46.2199 13.0399 49.2599 13.4699 60.4099H14.8099V60.4199Z" fill="#F39314"/>
<path fill-rule="evenodd" clip-rule="evenodd" d="M12.4461 23.5678C20.45 22.5624 27.28 28.7859 27.28 36.6001C27.28 41.5154 24.5031 44.7979 21.8489 47.9353C21.7237 48.0833 21.5988 48.2309 21.4745 48.3784C18.6721 51.7027 16.0152 55.0693 15.8092 60.4583L14.81 60.4392V61.4101H12.5078L12.4707 60.4486C12.2694 55.2288 9.76906 51.9037 7.06629 48.6815C6.86409 48.4404 6.65976 48.1991 6.45465 47.9568C3.96508 45.0164 1.35955 41.9391 1.03269 37.5341C0.523701 30.6464 5.58393 24.4242 12.4461 23.5678ZM12.4461 23.5678C12.4464 23.5678 12.4458 23.5678 12.4461 23.5678ZM14.1406 57.5529C15.0455 53.022 17.5848 49.8895 19.9454 47.0893C20.0285 46.9907 20.1114 46.8925 20.1938 46.7948C22.9512 43.5276 25.28 40.7683 25.28 36.6001C25.28 29.9746 19.4904 24.6982 12.6946 25.5523C6.89693 26.2759 2.59637 31.5539 3.02721 37.3861M14.1406 57.5529C13.2703 53.1863 10.8835 50.1202 8.59862 47.3962C8.41564 47.1781 8.23401 46.9627 8.05424 46.7495C5.48939 43.7081 3.30412 41.1165 3.02721 37.3861" fill="#F39314"/>
<path d="M14 40.4299C16.2091 40.4299 18 38.6346 18 36.4199C18 34.2052 16.2091 32.4099 14 32.4099C11.7909 32.4099 10 34.2052 10 36.4199C10 38.6346 11.7909 40.4299 14 40.4299Z" fill="#E9F1F7"/>
<path fill-rule="evenodd" clip-rule="evenodd" d="M14 33.4099C12.3455 33.4099 11 34.7552 11 36.4199C11 38.0846 12.3455 39.4299 14 39.4299C15.6545 39.4299 17 38.0846 17 36.4199C17 34.7552 15.6545 33.4099 14 33.4099ZM9 36.4199C9 33.6553 11.2362 31.4099 14 31.4099C16.7638 31.4099 19 33.6553 19 36.4199C19 39.1845 16.7638 41.4299 14 41.4299C11.2362 41.4299 9 39.1845 9 36.4199Z" fill="white"/>
<path fill-rule="evenodd" clip-rule="evenodd" d="M0 59.4199H2V61.4199H0V59.4199Z" fill="#B0CDE3"/>
<path d="M53 46.4199H43V60.4199H53V46.4199Z" fill="white"/>
<path fill-rule="evenodd" clip-rule="evenodd" d="M42 45.4199H54V61.4199H42V45.4199ZM44 47.4199V59.4199H52V47.4199H44Z" fill="#B0CDE3"/>
<path d="M39 46.4199H27V55.4199H39V46.4199Z" fill="white"/>
<path fill-rule="evenodd" clip-rule="evenodd" d="M26 45.4199H40V56.4199H26V45.4199ZM28 47.4199V54.4199H38V47.4199H28Z" fill="#B0CDE3"/>
<path fill-rule="evenodd" clip-rule="evenodd" d="M15 16.4199H13V14.4199H15V16.4199Z" fill="#B0CDE3"/>
<path fill-rule="evenodd" clip-rule="evenodd" d="M37 7.41992H35V5.41992H37V7.41992Z" fill="#B0CDE3"/>
<path fill-rule="evenodd" clip-rule="evenodd" d="M64 61.4199H62V59.4199H64V61.4199Z" fill="#B0CDE3"/>
</g>
<defs>
<clipPath id="clip0_907_5809">
<rect width="64" height="61.42" fill="white"/>
</clipPath>
</defs>
</svg>
