<svg width="64" height="60" viewBox="0 0 64 60" fill="none" xmlns="http://www.w3.org/2000/svg">
<g clip-path="url(#clip0_482_3636)">
<path d="M41.89 24.67C41.5 20.1 37.67 16.52 33.01 16.52C28.24 16.52 24.36 20.26 24.11 24.96C20.63 26.18 18.14 29.52 18.14 33.41C18.14 38.34 22.13 42.37 27.06 42.37C29.6 42.37 37.41 42.37 39.95 42.37C44.88 42.37 48.87 38.33 48.87 33.41C48.87 29.15 45.88 25.56 41.89 24.67Z" fill="white"/>
<path fill-rule="evenodd" clip-rule="evenodd" d="M23.1676 24.2541C23.7537 19.3384 27.9266 15.52 33.01 15.52C37.95 15.52 42.0499 19.1362 42.8001 23.8753C46.8887 25.107 49.87 28.9239 49.87 33.41C49.87 38.8757 45.4388 43.37 39.95 43.37H27.06C21.5719 43.37 17.14 38.8865 17.14 33.41C17.14 29.3174 19.619 25.7727 23.1676 24.2541ZM33.01 17.52C28.7763 17.52 25.3306 20.8394 25.1086 25.0131L25.073 25.6821L24.4408 25.9037C21.353 26.9862 19.14 29.9539 19.14 33.41C19.14 37.7936 22.6881 41.37 27.06 41.37H39.95C44.3212 41.37 47.87 37.7843 47.87 33.41C47.87 29.6257 45.2123 26.4357 41.6723 25.646L40.956 25.4863L40.8936 24.755C40.5474 20.698 37.1462 17.52 33.01 17.52Z" fill="white"/>
<path fill-rule="evenodd" clip-rule="evenodd" d="M34 25.3799V55.3799H32V25.3799H34Z" fill="#B0CDE3"/>
<path fill-rule="evenodd" clip-rule="evenodd" d="M32.2122 35.8764L27.6122 31.2664L29.0279 29.8538L33.6279 34.4638L32.2122 35.8764Z" fill="#B0CDE3"/>
<path fill-rule="evenodd" clip-rule="evenodd" d="M3 48.2568V36.3799H5V48.503L4 52.503V57.3799H2V52.2568L3 48.2568Z" fill="#B0CDE3"/>
<path fill-rule="evenodd" clip-rule="evenodd" d="M25 36.3799H27V48.2568L28 52.2568V58.3799H26V52.503L25 48.503V36.3799Z" fill="#B0CDE3"/>
<path d="M26 39.3799H4V44.3799H26V39.3799Z" fill="white"/>
<path fill-rule="evenodd" clip-rule="evenodd" d="M3 38.3799H27V45.3799H3V38.3799ZM5 40.3799V43.3799H25V40.3799H5Z" fill="#B0CDE3"/>
<path d="M29 48.3799H1V53.3799H29V48.3799Z" fill="white"/>
<path fill-rule="evenodd" clip-rule="evenodd" d="M0 47.3799H30V54.3799H0V47.3799ZM2 49.3799V52.3799H28V49.3799H2Z" fill="#B0CDE3"/>
<path fill-rule="evenodd" clip-rule="evenodd" d="M60 59.3799H56V57.3799H60V59.3799Z" fill="#B0CDE3"/>
<path fill-rule="evenodd" clip-rule="evenodd" d="M54 59.3799H0V57.3799H54V59.3799Z" fill="#B0CDE3"/>
<path fill-rule="evenodd" clip-rule="evenodd" d="M64 59.3799H62V57.3799H64V59.3799Z" fill="#B0CDE3"/>
<path fill-rule="evenodd" clip-rule="evenodd" d="M12.9444 7.25081C14.052 6.0207 15.674 4.95996 17.57 4.95996C20.0496 4.95996 22.1752 6.40743 23.2702 8.41538C23.4949 8.3745 23.732 8.34996 23.98 8.34996C25.5788 8.34996 26.9104 9.32426 27.6589 10.38H31V12.38H26.4875L26.2092 11.8343C25.8209 11.0729 24.9071 10.35 23.98 10.35C23.6937 10.35 23.4002 10.4198 23.079 10.5433L22.1378 10.9053L21.7837 9.96108C21.1362 8.23439 19.475 6.95996 17.57 6.95996C16.436 6.95996 15.313 7.60922 14.4306 8.58911C13.5319 9.58717 13.0733 10.7158 13.07 11.385L13.065 12.38H4V10.38H11.202C11.4683 9.30489 12.1155 8.17129 12.9444 7.25081Z" fill="#B0CDE3"/>
<path fill-rule="evenodd" clip-rule="evenodd" d="M35.7129 1.32912C36.7225 0.400142 38.0636 0 39.44 0C41.1647 0 42.7041 0.762826 43.6847 2.04867C44.4617 2.02476 45.2444 2.14547 45.9578 2.52173C46.7011 2.91377 47.2834 3.53757 47.6967 4.38H53V6.38H46.3172L46.0847 5.70614C45.805 4.89545 45.4178 4.49805 45.0247 4.29077C44.608 4.07098 44.0454 3.99176 43.3012 4.08263L42.6468 4.16252L42.3155 3.59262C41.7508 2.62139 40.7065 2 39.44 2C38.4364 2 37.6225 2.28986 37.0671 2.80088C36.5252 3.29947 36.1185 4.11008 36.11 5.38667L36.1034 6.38H31V4.38H34.1831C34.3674 3.11496 34.8947 2.08199 35.7129 1.32912Z" fill="#B0CDE3"/>
<path fill-rule="evenodd" clip-rule="evenodd" d="M35 12.3799H33V10.3799H35V12.3799Z" fill="#B0CDE3"/>
<path fill-rule="evenodd" clip-rule="evenodd" d="M0 18.3799H8V20.3799H0V18.3799Z" fill="#B0CDE3"/>
<path fill-rule="evenodd" clip-rule="evenodd" d="M12 20.3799H10V18.3799H12V20.3799Z" fill="#B0CDE3"/>
<path fill-rule="evenodd" clip-rule="evenodd" d="M16 20.3799H14V18.3799H16V20.3799Z" fill="#B0CDE3"/>
<path fill-rule="evenodd" clip-rule="evenodd" d="M57 6.37988H55V4.37988H57V6.37988Z" fill="#B0CDE3"/>
<path fill-rule="evenodd" clip-rule="evenodd" d="M61 6.37988H59V4.37988H61V6.37988Z" fill="#B0CDE3"/>
<path d="M50.73 21.23C44.33 21.23 39.14 26.42 39.14 32.82C39.14 42.82 49.02 44.17 49.85 54.34C49.89 54.8 50.26 55.17 50.73 55.17C51.19 55.17 51.57 54.81 51.61 54.34C52.44 44.17 62.32 42.82 62.32 32.82C62.32 26.42 57.13 21.23 50.73 21.23Z" fill="#F39314"/>
<path fill-rule="evenodd" clip-rule="evenodd" d="M38.14 32.82C38.14 25.8677 43.7777 20.23 50.73 20.23C57.6823 20.23 63.32 25.8677 63.32 32.82C63.32 38.2303 60.6004 41.3186 58.0194 44.1853C57.9838 44.2249 57.9481 44.2645 57.9125 44.304C55.367 47.1306 52.9859 49.7746 52.6067 54.4213L52.6064 54.4248C52.5245 55.3871 51.7344 56.17 50.73 56.17C49.7003 56.17 48.9351 55.3615 48.8538 54.4266L48.8533 54.4213C48.4741 49.7746 46.093 47.1306 43.5475 44.3041C43.5119 44.2645 43.4763 44.2249 43.4406 44.1853C40.8596 41.3186 38.14 38.2303 38.14 32.82ZM50.73 22.23C44.8823 22.23 40.14 26.9723 40.14 32.82C40.14 37.4097 42.3604 39.9964 44.9269 42.8471C44.9893 42.9164 45.0518 42.9857 45.1145 43.0553C47.4625 45.6604 50.0442 48.5249 50.73 53.2281C51.4159 48.5249 53.9976 45.6604 56.3456 43.0553C56.4083 42.9857 56.4708 42.9164 56.5331 42.8471C59.0996 39.9964 61.32 37.4097 61.32 32.82C61.32 26.9723 56.5777 22.23 50.73 22.23Z" fill="white"/>
<path d="M54.46 32.8199C54.46 34.8799 52.79 36.5399 50.74 36.5399C48.68 36.5399 47.02 34.8699 47.02 32.8199C47.02 30.7599 48.69 29.0999 50.74 29.0999C52.79 29.0899 54.46 30.7599 54.46 32.8199Z" fill="#E9F1F7"/>
<path fill-rule="evenodd" clip-rule="evenodd" d="M53.46 32.8199C53.46 31.3095 52.2361 30.0926 50.7449 30.0999L50.74 30.0999C49.2406 30.0999 48.02 31.3139 48.02 32.8199C48.02 34.3194 49.2341 35.5399 50.74 35.5399C52.2395 35.5399 53.46 34.3259 53.46 32.8199ZM50.7376 28.0999C53.3453 28.0885 55.46 30.2111 55.46 32.8199C55.46 35.4339 53.3406 37.5399 50.74 37.5399C48.126 37.5399 46.02 35.4204 46.02 32.8199C46.02 30.2067 48.1382 28.1012 50.7376 28.0999Z" fill="white"/>
</g>
<defs>
<clipPath id="clip0_482_3636">
<rect width="64" height="59.38" fill="white"/>
</clipPath>
</defs>
</svg>
