<svg width="17" height="17" viewBox="0 0 17 17" fill="none" xmlns="http://www.w3.org/2000/svg">
<path d="M13.6513 15.324V16.3879H2.65961V15.324H13.6513ZM15.2471 13.7283V2.73658C15.2471 1.85526 14.5326 1.14081 13.6513 1.14081H2.65961C1.7783 1.14081 1.06385 1.85526 1.06385 2.73658V13.7283C1.06385 14.6096 1.7783 15.324 2.65961 15.324V16.3879L2.523 16.3842C1.16288 16.3154 0.0724605 15.225 0.00363619 13.8649L0 13.7283V2.73658C2.07509e-08 1.31354 1.11763 0.151716 2.523 0.0806015L2.65961 0.0769653H13.6513L13.7879 0.0806015C15.1933 0.151716 16.3109 1.31354 16.3109 2.73658V13.7283L16.3073 13.8649C16.2385 15.225 15.148 16.3154 13.7879 16.3842L13.6513 16.3879V15.324C14.5326 15.324 15.2471 14.6096 15.2471 13.7283Z" fill="white"/>
<path d="M8.142 8.82604C8.81861 8.82604 9.36755 8.66008 9.78883 8.32816C10.2229 7.99624 10.4399 7.4473 10.4399 6.68133C10.4399 5.95366 10.2101 5.37919 9.75053 4.9579C9.30372 4.52385 8.61435 4.30683 7.68242 4.30683C7.43986 4.30683 7.15901 4.34513 6.83985 4.42172V10.5878C6.83985 11.1878 6.83985 11.6581 6.83985 11.949C6.83985 12.2398 6.83985 12.406 6.83985 12.6692C6.83985 12.9323 6.83985 12.6559 6.83985 13.0389C6.17813 13.0388 7.04994 13.0389 6.24623 13.0389C5.276 13.0389 5.71652 13.0133 5.07821 13.0389C5.07821 12.6431 5.07812 12.8354 5.07812 12.6692C5.07812 12.2155 5.07812 12.2814 5.07812 11.949C5.07812 11.6166 5.07812 11.3474 5.07812 10.7984V5.68557C5.07812 5.31535 5.07812 5.13589 5.07812 4.91196C5.07812 4.5814 5.07812 4.75734 5.07812 4.42172C5.07812 4.20819 5.07812 4.20286 5.07812 4.03225V3.42596C5.86837 3.42596 8.00837 3.42598 8.00837 3.42598L8.42847 3.42597C9.74339 3.42597 10.7654 3.70044 11.3782 4.24938C11.991 4.79833 12.2974 5.50046 12.2974 6.35579C12.2974 6.96857 12.1506 7.53028 11.8569 8.04093C11.5633 8.55157 11.1229 8.96009 10.5357 9.26648C9.96118 9.57286 9.26542 9.72606 8.44839 9.72606C7.95051 9.72606 7.56114 9.68138 7.28029 9.59201C7.25475 9.41329 7.24199 9.27924 7.24199 9.18988C7.24199 9.02392 7.26114 8.88349 7.29943 8.7686C7.49093 8.8069 7.77178 8.82604 8.142 8.82604Z" fill="white"/>
</svg>
