<svg width="16" height="12" viewBox="0 0 16 12" fill="none" xmlns="http://www.w3.org/2000/svg">
<path d="M8 11.064C7.91536 11.064 7.83073 11.0407 7.74609 10.9941C7.66569 10.9476 7.56201 10.8608 7.43506 10.7339L5.86719 9.22949C5.80794 9.17025 5.76986 9.10677 5.75293 9.03906C5.74023 8.96712 5.75293 8.89941 5.79102 8.83594C6.02376 8.52702 6.3348 8.26888 6.72412 8.06152C7.11768 7.84993 7.54297 7.74414 8 7.74414C8.44434 7.74414 8.85905 7.84359 9.24414 8.04248C9.62923 8.24137 9.93815 8.48682 10.1709 8.77881C10.2301 8.85075 10.2534 8.92904 10.2407 9.01367C10.2323 9.09831 10.1963 9.17025 10.1328 9.22949L8.56494 10.7339C8.43799 10.8608 8.33219 10.9476 8.24756 10.9941C8.16715 11.0407 8.08464 11.064 8 11.064ZM4.19775 7.50928L3.18848 6.52539C3.125 6.46191 3.09115 6.39209 3.08691 6.31592C3.08268 6.23551 3.10807 6.16146 3.16309 6.09375C3.50163 5.69173 3.92057 5.33626 4.41992 5.02734C4.91927 4.71419 5.47363 4.46875 6.08301 4.29102C6.69661 4.11328 7.33561 4.02441 8 4.02441C8.66439 4.02441 9.30127 4.11328 9.91064 4.29102C10.52 4.46875 11.0744 4.71419 11.5737 5.02734C12.0773 5.33626 12.4963 5.69173 12.8306 6.09375C12.8898 6.16146 12.9152 6.23551 12.9067 6.31592C12.9025 6.39632 12.8687 6.46615 12.8052 6.52539L11.7959 7.50928C11.7155 7.58545 11.6287 7.62354 11.5356 7.62354C11.4468 7.62354 11.3664 7.58545 11.2944 7.50928C10.8924 7.08187 10.3994 6.73275 9.81543 6.46191C9.23568 6.19108 8.63053 6.05778 8 6.06201C7.37793 6.05778 6.7749 6.18896 6.19092 6.45557C5.61117 6.71794 5.12451 7.06071 4.73096 7.48389C4.65479 7.56852 4.56592 7.61507 4.46436 7.62354C4.36702 7.62777 4.27816 7.58968 4.19775 7.50928ZM1.53174 4.875L0.636719 3.96094C0.573242 3.89323 0.539388 3.81917 0.535156 3.73877C0.530924 3.65413 0.556315 3.58008 0.611328 3.5166C1.12337 2.8776 1.76872 2.31266 2.54736 1.82178C3.32601 1.32666 4.18083 0.941569 5.11182 0.666504C6.04704 0.387207 7.00977 0.247559 8 0.247559C8.986 0.247559 9.94661 0.387207 10.8818 0.666504C11.8171 0.945801 12.6719 1.33089 13.4463 1.82178C14.2249 2.31266 14.8703 2.8776 15.3823 3.5166C15.4416 3.58008 15.4691 3.65413 15.4648 3.73877C15.4648 3.81917 15.431 3.89323 15.3633 3.96094L14.4619 4.8623C14.39 4.93424 14.3053 4.97233 14.208 4.97656C14.1107 4.98079 14.026 4.94694 13.9541 4.875C13.1755 4.03711 12.2783 3.40234 11.2627 2.9707C10.2513 2.53483 9.16374 2.31689 8 2.31689C6.84473 2.31689 5.76139 2.53483 4.75 2.9707C3.73861 3.40234 2.83936 4.03499 2.05225 4.86865C1.98031 4.94482 1.89355 4.98503 1.79199 4.98926C1.69466 4.98926 1.60791 4.95117 1.53174 4.875Z" fill="white"/>
</svg>
