<svg width="16" height="16" viewBox="0 0 24 24" fill="none" xmlns="http://www.w3.org/2000/svg">
    <path d="M21.92 11.6C19.9 6.91 16.1 4 12 4C7.9 4 4.1 6.91 2.08 11.6C2.03 11.72 2 11.86 2 12C2 12.14 2.03 12.28 2.08 12.4C4.1 17.09 7.9 20 12 20C16.1 20 19.9 17.09 21.92 12.4C21.97 12.28 22 12.14 22 12C22 11.86 21.97 11.72 21.92 11.6ZM12 18C8.83 18 5.83 15.71 4.05 12C5.83 8.29 8.83 6 12 6C15.17 6 18.17 8.29 19.95 12C18.17 15.71 15.17 18 12 18ZM12 8C9.79 8 8 9.79 8 12C8 14.21 9.79 16 12 16C14.21 16 16 14.21 16 12C16 9.79 14.21 8 12 8ZM12 14C10.9 14 10 13.1 10 12C10 10.9 10.9 10 12 10C13.1 10 14 10.9 14 12C14 13.1 13.1 14 12 14Z" fill="#666666"/>
</svg>