<?xml version="1.0" standalone="no"?>
<!DOCTYPE svg PUBLIC "-//W3C//DTD SVG 20010904//EN"
 "http://www.w3.org/TR/2001/REC-SVG-20010904/DTD/svg10.dtd">
<svg version="1.0" xmlns="http://www.w3.org/2000/svg"
 width="864.000000pt" height="864.000000pt" viewBox="0 0 864.000000 864.000000"
 preserveAspectRatio="xMidYMid meet">
<metadata>
Created by potrace 1.14, written by Peter Selinger 2001-2017
</metadata>
<g transform="translate(0.000000,864.000000) scale(0.100000,-0.100000)"
fill="#000000" stroke="none">
<path d="M789 8636 c-2 -2 -17 -7 -34 -10 -94 -17 -223 -73 -281 -122 -135
-114 -210 -226 -250 -372 -20 -70 -26 -230 -13 -297 6 -27 13 -63 15 -80 3
-16 12 -56 20 -87 8 -31 16 -70 18 -85 3 -15 12 -59 21 -98 9 -38 18 -81 20
-95 2 -14 4 -25 5 -25 1 0 3 -9 5 -20 1 -11 10 -54 20 -95 9 -41 19 -86 21
-100 3 -14 18 -83 34 -155 16 -71 31 -143 34 -160 2 -16 5 -32 6 -35 1 -3 2
-8 1 -12 0 -4 4 -19 9 -34 6 -15 13 -43 16 -63 3 -20 12 -65 21 -101 8 -36 17
-78 19 -95 3 -16 7 -37 10 -45 3 -8 8 -26 10 -40 3 -14 10 -42 15 -64 6 -21 8
-40 5 -43 -3 -3 -1 -14 4 -24 6 -10 12 -33 14 -51 3 -18 5 -33 6 -33 1 0 3 -8
5 -19 2 -10 9 -39 15 -65 6 -25 12 -55 14 -66 2 -11 20 -96 41 -190 20 -93 38
-181 40 -195 2 -14 11 -52 19 -85 8 -33 17 -76 20 -96 3 -20 8 -42 10 -50 3
-8 8 -25 11 -39 2 -14 9 -47 15 -75 6 -27 12 -59 14 -70 3 -11 10 -42 16 -70
6 -27 13 -59 15 -70 6 -34 16 -78 25 -115 5 -19 12 -51 15 -70 3 -19 8 -43 11
-52 7 -23 14 -54 28 -128 10 -53 18 -89 46 -216 41 -185 43 -209 25 -289 -9
-38 -17 -79 -19 -90 -2 -11 -4 -20 -6 -20 -1 0 -3 -9 -5 -20 -4 -31 -15 -89
-20 -105 -2 -8 -6 -26 -9 -40 -2 -14 -14 -68 -26 -120 -12 -52 -23 -106 -25
-120 -3 -14 -7 -36 -10 -50 -3 -14 -8 -34 -10 -45 -3 -11 -7 -30 -10 -43 -11
-47 -26 -126 -26 -137 0 -2 -5 -19 -10 -37 -6 -18 -12 -44 -15 -58 -2 -14 -12
-56 -20 -95 -9 -38 -18 -83 -21 -100 -2 -16 -9 -48 -15 -70 -5 -22 -12 -51
-14 -65 -3 -14 -11 -56 -20 -95 -8 -38 -16 -79 -18 -90 -2 -11 -11 -50 -20
-86 -15 -64 -20 -89 -31 -144 -3 -14 -7 -36 -10 -50 -5 -26 -11 -51 -20 -95
-4 -14 -8 -36 -11 -50 -3 -14 -11 -53 -19 -88 -8 -34 -17 -76 -20 -93 -3 -17
-14 -68 -24 -112 -11 -45 -22 -95 -24 -112 -5 -29 -17 -87 -57 -265 -11 -47
-22 -101 -25 -120 -3 -19 -11 -53 -16 -74 -6 -22 -12 -51 -14 -65 -2 -14 -4
-26 -5 -26 -1 0 -3 -7 -5 -15 -3 -15 -27 -126 -31 -145 -8 -37 -20 -93 -28
-135 -4 -21 -46 -215 -62 -285 -19 -83 -25 -240 -12 -315 16 -95 73 -221 133
-295 64 -78 150 -155 174 -155 6 0 11 -4 11 -9 0 -5 33 -23 74 -40 149 -62
123 -60 1019 -61 l817 0 0 42 c0 24 0 51 0 61 1 77 0 94 -3 137 -1 14 1 37 4
51 4 15 3 32 -1 40 -5 7 -4 21 1 30 6 12 5 20 -1 24 -8 5 -8 11 -1 19 6 7 9
15 6 17 -4 5 -5 59 -4 207 0 32 -1 58 -4 92 -1 14 1 37 4 51 4 15 3 32 -1 40
-5 7 -5 20 0 29 6 11 5 21 -1 27 -6 6 -7 13 -2 16 5 3 7 28 3 54 -3 27 -3 60
0 73 4 14 3 40 -1 58 -4 17 -3 32 2 32 4 0 5 10 0 22 -4 13 -5 35 0 50 4 16 4
28 -1 28 -5 0 -5 12 -1 28 4 15 5 38 1 52 -4 14 -3 37 1 52 5 17 3 30 -4 35
-7 5 -169 8 -360 8 l-349 -1 7 30 c3 17 8 42 11 56 2 14 10 50 16 80 7 30 13
60 14 65 1 6 3 12 4 15 2 6 6 25 13 65 3 17 8 41 11 55 4 14 8 34 10 45 2 11
14 63 26 115 12 52 23 107 24 121 2 15 6 31 10 37 3 6 9 32 12 58 3 27 8 52
10 56 5 8 9 25 19 81 3 15 12 60 21 100 33 153 66 303 70 327 3 14 10 45 15
70 15 63 18 81 24 115 3 17 8 38 11 47 6 21 14 58 18 83 3 23 40 191 62 283 8
34 17 74 19 90 2 15 10 58 19 95 13 55 37 167 71 332 5 20 12 54 20 90 2 11
11 52 20 90 9 39 18 79 19 90 2 11 4 20 6 20 1 0 3 9 4 20 1 11 6 38 11 60 21
108 20 293 -3 330 -4 5 -7 19 -8 30 -1 11 -6 38 -12 60 -6 22 -14 56 -18 75
-3 19 -8 44 -10 55 -2 11 -8 40 -14 65 -11 48 -15 68 -24 115 -4 17 -11 50
-16 75 -6 25 -13 56 -16 70 -7 33 -11 52 -29 135 -9 39 -18 79 -20 90 -6 31
-14 65 -25 120 -6 28 -13 61 -16 75 -2 14 -11 57 -20 95 -9 39 -18 79 -20 90
-2 11 -11 52 -19 90 -9 39 -18 84 -21 100 -3 17 -7 37 -10 45 -3 8 -14 60 -25
115 -11 55 -24 118 -30 139 -6 22 -15 63 -20 90 -5 28 -12 65 -15 81 -3 17 -9
44 -14 60 -4 17 -12 48 -16 70 -4 22 -8 45 -10 50 -1 6 -5 24 -8 40 -3 17 -10
45 -15 63 -5 18 -10 35 -10 37 0 3 -5 29 -10 58 -6 28 -13 63 -16 77 -3 14 -7
36 -10 50 -3 14 -7 34 -9 45 -2 11 -9 38 -14 60 -6 22 -13 54 -16 70 -3 17
-10 53 -16 80 -7 28 -14 64 -16 80 -3 17 -9 46 -15 65 -5 19 -9 40 -9 46 0 7
111 10 351 10 375 0 377 0 359 50 -5 12 -6 24 -4 27 5 5 6 41 1 92 -1 17 1 42
4 56 4 15 3 32 -1 40 -5 7 -4 21 1 30 6 12 5 20 -1 24 -8 5 -8 11 -1 19 6 7 9
15 6 17 -4 5 -5 59 -4 207 0 32 -1 58 -4 92 -1 14 1 37 4 51 4 15 3 32 -1 40
-5 7 -4 21 1 30 6 12 5 20 -1 24 -8 5 -8 11 -1 19 6 7 9 15 6 17 -4 5 -5 59
-4 207 0 32 -1 58 -4 92 -1 14 1 37 4 51 4 15 3 32 -1 40 -5 7 -5 20 0 29 6
11 5 21 -1 27 -6 6 -7 13 -2 16 5 3 7 22 5 42 l-4 35 -823 0 c-452 0 -824 -2
-826 -4z"/>
<path d="M3483 8623 c3 -10 10 -43 17 -73 6 -30 18 -84 27 -120 8 -36 17 -76
20 -90 4 -23 25 -122 58 -265 7 -33 17 -76 21 -95 4 -19 8 -37 9 -40 1 -3 5
-23 10 -45 4 -22 10 -49 12 -60 9 -37 24 -110 29 -134 3 -13 11 -50 19 -83 7
-32 11 -58 8 -58 -3 0 -1 -6 5 -13 6 -7 13 -28 16 -47 2 -19 7 -46 10 -60 3
-14 8 -34 10 -45 2 -11 14 -62 25 -113 12 -51 23 -103 25 -115 3 -12 5 -22 6
-22 2 0 7 -24 15 -75 4 -24 9 -48 11 -52 4 -7 21 -89 30 -148 3 -19 7 -42 9
-50 4 -13 11 -60 20 -130 2 -14 6 -54 10 -90 3 -36 8 -76 11 -90 24 -137 24
-700 -1 -905 -2 -22 -7 -64 -11 -94 -3 -29 -7 -63 -9 -75 -2 -11 -8 -52 -14
-91 -6 -38 -13 -81 -16 -95 -7 -32 -17 -90 -21 -115 -1 -11 -3 -20 -4 -20 -1
0 -4 -11 -6 -25 -3 -14 -9 -43 -15 -65 -11 -38 -13 -49 -23 -95 -18 -81 -115
-394 -143 -460 -3 -8 -7 -17 -8 -20 -1 -3 -15 -48 -32 -100 -42 -128 -94 -308
-100 -344 -3 -16 -9 -41 -15 -55 -5 -14 -12 -37 -14 -51 -2 -14 -11 -56 -20
-95 -23 -104 -35 -161 -39 -185 -1 -8 -5 -28 -8 -45 -4 -16 -9 -46 -12 -65 -3
-19 -7 -46 -10 -60 -2 -14 -7 -45 -10 -70 -3 -25 -8 -52 -10 -60 -6 -26 -20
-151 -30 -280 -4 -47 -8 -103 -11 -125 -4 -41 -16 -340 -15 -362 3 -35 3 -61
2 -93 -3 -50 6 -282 14 -370 4 -41 8 -95 10 -120 6 -66 14 -150 20 -191 3 -20
8 -56 11 -80 3 -24 7 -57 10 -74 3 -16 6 -41 8 -55 2 -14 6 -41 10 -60 3 -19
8 -46 10 -60 2 -14 7 -36 10 -50 8 -34 17 -79 22 -113 2 -16 6 -32 9 -37 3 -4
7 -25 11 -46 3 -22 14 -75 24 -119 11 -44 22 -92 25 -108 6 -33 13 -63 21 -97
7 -30 24 -106 30 -139 3 -12 12 -53 20 -90 9 -36 18 -75 20 -86 2 -11 8 -40
14 -65 5 -25 12 -56 14 -70 3 -14 15 -68 26 -120 43 -185 60 -266 64 -290 3
-13 91 -15 711 -18 l707 -2 -6 32 c-3 18 -9 44 -12 58 -9 41 -14 64 -19 90 -4
14 -8 34 -10 45 -3 11 -12 52 -20 90 -9 39 -26 120 -39 180 -14 61 -37 164
-51 230 -15 66 -29 129 -30 140 -4 22 -8 39 -24 105 -7 25 -13 57 -16 72 -2
15 -8 44 -14 65 -6 21 -12 49 -15 63 -3 14 -14 68 -26 120 -23 100 -34 152
-45 210 -8 41 -10 46 -18 80 -4 14 -9 36 -11 50 -8 49 -16 96 -22 125 -3 17
-7 43 -9 59 -2 16 -6 50 -10 75 -19 133 -25 183 -32 291 -8 120 -8 561 0 660
10 121 23 239 33 305 7 45 9 59 19 130 4 28 9 53 11 56 2 4 6 24 9 45 3 22 8
46 11 54 3 8 8 33 11 55 3 22 9 48 14 58 6 9 8 17 5 17 -3 0 6 39 29 120 6 19
24 90 29 110 8 30 109 335 114 345 4 6 7 15 8 20 1 6 9 29 17 52 9 22 13 44
10 47 -4 3 -2 6 4 6 5 0 10 6 10 13 1 6 22 84 47 172 26 88 48 169 50 180 3
11 9 40 15 65 7 25 13 54 15 65 2 11 9 43 15 70 6 28 13 61 15 75 3 14 5 25 6
25 1 0 3 9 4 20 2 11 9 48 15 83 7 34 14 79 17 100 2 20 6 48 9 62 2 14 7 48
11 75 3 28 8 59 10 70 2 11 7 52 10 90 3 39 7 84 9 100 27 283 27 858 0 1075
-2 19 -7 60 -10 90 -6 69 -12 121 -21 185 -4 28 -8 59 -10 70 -1 11 -5 36 -8
55 -27 153 -37 208 -39 225 -1 11 -6 26 -10 33 -5 6 -6 12 -4 12 3 0 1 17 -4
38 -9 34 -16 64 -24 102 -2 8 -4 15 -5 15 -1 0 -3 10 -6 22 -2 13 -18 78 -35
145 -16 68 -32 130 -34 138 -2 8 -20 81 -39 162 -20 80 -39 154 -41 165 -2 10
-12 47 -20 83 -9 36 -19 74 -21 85 -3 11 -7 27 -9 35 -2 8 -4 15 -5 15 -1 0
-3 9 -5 20 -1 11 -17 76 -34 145 -18 69 -34 136 -37 150 -2 14 -7 31 -9 38 -3
9 -152 12 -695 12 -654 0 -691 -1 -687 -17z"/>
<path d="M6202 8609 c0 -17 -3 -33 -5 -36 -3 -2 -1 -20 3 -39 4 -18 4 -34 -1
-34 -4 0 -5 -10 0 -22 4 -13 5 -35 0 -50 -4 -16 -4 -28 1 -28 5 0 5 -13 0 -29
-4 -16 -6 -31 -4 -33 3 -4 4 -43 4 -120 -1 -79 0 -95 3 -138 1 -14 -1 -37 -4
-51 -4 -15 -3 -32 1 -40 5 -7 4 -21 -1 -30 -6 -12 -5 -20 1 -24 8 -5 8 -11 1
-19 -6 -7 -9 -15 -6 -17 2 -3 4 -36 4 -74 1 -102 1 -106 2 -158 1 -27 -1 -50
-4 -53 -2 -3 -1 -21 3 -40 4 -18 4 -34 -1 -34 -4 0 -5 -10 0 -22 4 -13 5 -35
0 -50 -4 -16 -4 -28 1 -28 5 0 5 -12 1 -27 -4 -16 -5 -39 -1 -53 4 -14 3 -37
-1 -52 -5 -17 -3 -30 4 -35 7 -5 168 -8 360 -8 236 1 347 -3 347 -10 0 -5 -13
-71 -29 -145 -17 -74 -32 -146 -35 -160 -3 -14 -19 -88 -36 -165 -17 -77 -33
-152 -34 -166 -2 -15 -6 -31 -10 -37 -3 -6 -9 -32 -12 -58 -3 -27 -8 -52 -10
-56 -6 -9 -16 -56 -17 -75 0 -7 -3 -13 -6 -13 -3 0 -6 -10 -7 -22 -1 -26 -5
-51 -29 -158 -9 -41 -18 -84 -21 -95 -2 -11 -6 -29 -8 -40 -3 -11 -19 -87 -36
-170 -17 -82 -35 -166 -40 -185 -5 -19 -12 -51 -15 -70 -3 -19 -8 -43 -11 -52
-5 -18 -13 -51 -19 -83 -2 -11 -6 -31 -9 -45 -3 -14 -8 -35 -10 -48 -3 -13 -7
-31 -10 -40 -3 -9 -7 -34 -11 -56 -3 -21 -8 -42 -11 -47 -3 -5 -7 -23 -9 -41
-4 -27 -38 -192 -49 -233 -3 -9 -14 -64 -21 -105 -2 -8 -8 -35 -14 -60 -10
-45 -15 -70 -26 -125 -3 -16 -13 -59 -21 -95 -9 -36 -17 -74 -19 -85 -2 -11
-6 -31 -9 -45 -14 -67 -16 -91 -16 -160 0 -41 3 -87 5 -102 7 -42 13 -70 19
-98 12 -53 29 -136 31 -150 1 -8 5 -22 8 -30 3 -8 8 -28 11 -45 5 -29 9 -48
21 -105 4 -14 8 -34 10 -45 3 -11 12 -51 20 -90 9 -38 18 -81 20 -95 2 -14 11
-56 20 -95 9 -38 18 -81 21 -95 3 -14 7 -34 9 -45 2 -11 11 -54 20 -95 9 -41
23 -103 31 -137 8 -35 17 -79 20 -99 2 -20 6 -39 9 -43 2 -4 7 -23 10 -42 3
-19 11 -54 16 -79 6 -25 13 -54 15 -65 14 -74 24 -122 44 -209 12 -54 23 -108
26 -119 2 -11 22 -106 45 -211 23 -105 43 -200 44 -211 2 -11 8 -38 13 -60 6
-22 18 -74 26 -115 21 -105 24 -117 40 -191 18 -81 26 -118 31 -144 2 -11 6
-31 9 -45 3 -14 9 -39 12 -56 l6 -30 -356 0 -355 1 1 -37 c0 -20 -2 -40 -5
-45 -3 -5 -2 -15 3 -23 5 -8 5 -21 -1 -31 -6 -12 -5 -20 1 -24 8 -5 8 -11 1
-19 -6 -7 -9 -15 -6 -17 4 -5 5 -59 4 -206 0 -33 1 -59 4 -93 1 -14 -1 -37 -4
-51 -4 -15 -3 -32 1 -40 5 -7 4 -21 -1 -30 -6 -12 -5 -20 1 -24 6 -4 7 -11 4
-17 -6 -10 -7 -80 -1 -153 1 -16 -1 -42 -4 -56 -4 -15 -3 -32 1 -40 5 -7 4
-21 -1 -30 -6 -12 -5 -20 1 -24 6 -4 7 -11 4 -17 -6 -10 -7 -80 -1 -153 1 -16
-1 -42 -4 -56 -4 -15 -3 -32 1 -40 5 -7 5 -20 0 -29 -6 -11 -5 -21 1 -27 6 -6
7 -13 2 -16 -5 -3 -7 -22 -5 -42 l4 -36 837 4 c460 1 845 5 856 9 141 43 204
73 280 132 114 89 202 222 241 363 20 71 26 230 13 298 -6 28 -12 61 -15 75
-2 14 -13 66 -24 115 -11 50 -22 100 -25 113 -2 13 -6 31 -9 40 -3 9 -7 34
-11 56 -3 21 -7 42 -10 46 -5 8 -12 46 -19 95 -1 11 -6 31 -10 43 -5 13 -10
35 -12 48 -2 13 -6 34 -9 46 -2 13 -7 37 -10 53 -3 17 -10 46 -15 65 -5 19
-18 82 -30 140 -12 58 -24 112 -25 120 -2 8 -17 78 -34 155 -16 77 -37 172
-46 212 -9 39 -18 84 -20 100 -2 15 -4 28 -5 28 -2 0 -4 10 -13 55 -3 14 -13
59 -22 100 -9 41 -18 84 -21 94 -2 11 -15 73 -30 138 -14 66 -27 131 -29 146
-2 15 -4 27 -5 27 -2 0 -8 29 -15 65 -2 14 -11 52 -19 85 -8 33 -17 76 -20 95
-3 19 -19 93 -36 164 -16 71 -28 131 -25 134 2 3 0 13 -6 23 -5 10 -11 31 -13
46 -6 39 -15 81 -27 126 -6 21 -12 54 -15 74 -2 19 -6 39 -9 43 -3 4 -7 25
-10 46 -4 22 -9 48 -12 59 -4 11 -8 27 -9 35 -4 24 -13 67 -44 206 -39 177
-43 211 -30 269 7 28 13 59 16 70 2 11 7 34 11 50 4 17 7 35 8 40 0 6 4 24 8
40 4 17 9 39 11 50 8 35 76 349 80 366 3 9 7 32 10 50 3 19 12 63 20 99 8 36
17 77 20 93 4 15 8 37 11 50 3 12 7 31 9 42 2 11 10 43 16 70 7 28 14 64 17
80 2 17 9 48 15 70 5 22 12 51 14 65 3 14 11 57 20 95 8 39 17 84 20 101 2 17
8 44 14 60 6 16 11 31 11 34 -1 3 2 21 5 40 7 39 7 38 29 135 9 39 18 79 20
90 3 20 7 35 25 115 5 25 12 56 14 70 2 14 14 68 26 120 12 52 24 106 26 120
2 14 11 57 20 95 9 39 18 81 20 95 2 14 13 63 24 110 10 47 21 96 24 110 2 14
10 48 16 75 6 28 14 60 16 73 7 38 13 66 19 92 3 14 8 34 9 45 2 11 9 41 15
68 6 26 14 64 17 85 3 20 8 40 11 44 2 5 6 18 8 30 29 150 28 141 54 261 18
83 23 253 8 312 -42 169 -131 309 -264 412 -37 30 -167 93 -220 108 -12 3 -32
9 -45 13 -13 3 -399 8 -859 9 l-836 4 -1 -32z"/>
</g>
</svg>
