<svg width="1919" height="779" viewBox="0 0 1919 779" fill="none" xmlns="http://www.w3.org/2000/svg">
<mask id="mask0_6008_10964" style="mask-type:alpha" maskUnits="userSpaceOnUse" x="-1" y="0" width="1920" height="779">
<rect x="-1" width="1920" height="779" fill="white"/>
</mask>
<g mask="url(#mask0_6008_10964)">
<rect x="-1" width="1920" height="779" fill="#F6F9FC"/>
<rect x="-734.982" y="556.746" width="28.0102" height="1300" transform="rotate(-45.2228 -734.982 556.746)" fill="white"/>
<rect x="-701.166" y="522.666" width="28.0102" height="1300" transform="rotate(-45.2228 -701.166 522.666)" fill="white"/>
<rect x="-667.352" y="488.586" width="28.0102" height="1300" transform="rotate(-45.2228 -667.352 488.586)" fill="white"/>
<rect x="-633.535" y="454.506" width="28.0102" height="1300" transform="rotate(-45.2228 -633.535 454.506)" fill="white"/>
<rect x="-599.719" y="420.426" width="28.0102" height="1300" transform="rotate(-45.2228 -599.719 420.426)" fill="white"/>
<rect x="-565.902" y="386.345" width="28.0102" height="1300" transform="rotate(-45.2228 -565.902 386.345)" fill="white"/>
<rect x="-532.086" y="352.265" width="28.0102" height="1300" transform="rotate(-45.2228 -532.086 352.265)" fill="white"/>
<rect x="-498.27" y="318.185" width="28.0102" height="1300" transform="rotate(-45.2228 -498.27 318.185)" fill="white"/>
<rect x="-464.455" y="284.105" width="28.0102" height="1300" transform="rotate(-45.2228 -464.455 284.105)" fill="white"/>
<rect x="-430.639" y="250.025" width="28.0102" height="1300" transform="rotate(-45.2228 -430.639 250.025)" fill="white"/>
<rect x="-396.822" y="215.945" width="28.0102" height="1300" transform="rotate(-45.2228 -396.822 215.945)" fill="white"/>
<rect x="-363.006" y="181.865" width="28.0102" height="1300" transform="rotate(-45.2228 -363.006 181.865)" fill="white"/>
<rect x="-329.189" y="147.784" width="28.0102" height="1300" transform="rotate(-45.2228 -329.189 147.784)" fill="white"/>
<rect x="-295.373" y="113.704" width="28.0102" height="1300" transform="rotate(-45.2228 -295.373 113.704)" fill="white"/>
<rect x="-261.557" y="79.624" width="28.0102" height="1300" transform="rotate(-45.2228 -261.557 79.624)" fill="white"/>
<rect x="-227.742" y="45.5439" width="28.0102" height="1300" transform="rotate(-45.2228 -227.742 45.5439)" fill="white"/>
<rect x="-193.926" y="11.4639" width="28.0102" height="1300" transform="rotate(-45.2228 -193.926 11.4639)" fill="white"/>
<rect x="-160.109" y="-22.6162" width="28.0102" height="1300" transform="rotate(-45.2228 -160.109 -22.6162)" fill="white"/>
<rect x="-126.293" y="-56.6965" width="28.0102" height="1300" transform="rotate(-45.2228 -126.293 -56.6965)" fill="white"/>
</g>
</svg>
