<svg width="1919" height="897" viewBox="0 0 1919 897" fill="none" xmlns="http://www.w3.org/2000/svg">
<mask id="mask0_6008_10969" style="mask-type:alpha" maskUnits="userSpaceOnUse" x="-1" y="0" width="1920" height="897">
<rect x="-1" width="1920" height="897" fill="white"/>
</mask>
<g mask="url(#mask0_6008_10969)">
<rect x="-1" width="1920" height="897" fill="#F4F8FB" fill-opacity="0.2"/>
<path fill-rule="evenodd" clip-rule="evenodd" d="M-151 247C-139.733 247 -128.466 247 -117.199 247C92.5896 263.51 259.154 356.26 382.491 525.25C398.744 549.1 413.578 573.884 426.995 599.6C440.569 601.399 452.587 597.831 463.05 588.898C490.937 562.499 521.734 558.744 555.439 577.633C562.528 582.84 569.288 588.473 575.719 594.53C600.488 606.181 621.895 601.675 639.941 581.012C669.572 560.831 699.241 560.831 728.95 581.012C736.865 590.226 746.629 596.61 758.244 600.163C768.708 601.649 778.848 600.522 788.665 596.783C798.316 590.891 807.33 584.131 815.706 576.506C841.956 561.835 867.87 562.399 893.448 578.196C894.495 579.535 894.87 581.037 894.575 582.702C894.575 588.71 894.575 594.718 894.575 600.726C894.76 604.5 894.572 608.255 894.011 611.991C865.854 584.406 838.25 584.97 811.199 613.681C782.984 630.888 754.817 630.888 726.697 613.681C720.208 607.19 713.073 601.558 705.29 596.783C681.912 587.325 662.006 592.206 645.575 611.428C618.358 629.873 590.191 631.374 561.072 615.934C555.152 612.272 549.893 607.766 545.299 602.416C526.991 589.186 508.212 588.435 488.964 600.163C482.102 607.027 474.592 613.036 466.43 618.187C457.859 621.73 449.222 624.921 440.516 627.763C444.54 635.804 447.92 644.064 450.656 652.546C453.491 652.259 456.121 651.319 458.543 649.73C488.671 619.19 522.095 615.059 558.819 637.338C586.198 665.029 613.615 665.029 641.068 637.338C666.782 620.266 693.448 618.763 721.063 632.832C729.225 637.983 736.736 643.992 743.597 650.856C762.039 660.935 780.066 660.184 797.679 648.603C826.653 619.717 858.952 615.399 894.575 635.648C894.575 636.023 894.575 636.4 894.575 636.775C894.575 642.782 894.575 648.791 894.575 654.799C894.575 659.68 894.575 664.562 894.575 669.444C889.968 666.534 885.836 662.966 882.181 658.742C864.581 647.105 846.554 646.353 828.1 656.489C819.283 664.93 809.518 672.064 798.805 677.893C765.937 690.622 737.394 684.238 713.176 658.742C695.565 647.134 677.538 646.384 659.095 656.489C634.923 682.192 606.005 689.703 572.339 679.019C560.569 673.257 550.053 665.748 540.792 656.489C516.768 643.721 495.736 647.475 477.697 667.754C472.444 671.884 466.811 675.451 460.796 678.456C463.215 684.968 465.844 691.352 468.683 697.607C495.792 677.386 524.334 675.321 554.312 691.411C560.233 695.073 565.491 699.579 570.086 704.929C589.279 718.796 608.809 719.173 628.674 706.055C658.083 676.885 690.757 672.756 726.697 693.664C734.93 702.659 744.694 709.418 755.991 713.941C771.622 717.274 785.892 714.27 798.805 704.929C818.517 683.851 842.553 676.341 870.914 682.399C879.4 684.765 887.287 688.333 894.575 693.101C894.575 698.358 894.575 703.614 894.575 708.872C894.575 714.504 894.575 720.137 894.575 725.77C894.575 726.145 894.575 726.521 894.575 726.896C887.941 720.831 880.805 715.385 873.167 710.562C859.075 704.99 845.178 705.365 831.48 711.688C824.767 716.52 818.383 721.777 812.326 727.459C784.983 745.237 757.191 745.987 728.95 729.712C722.519 723.655 715.759 718.022 708.67 712.815C694.334 705.559 679.687 704.807 664.729 710.562C654.906 718.506 644.766 726.016 634.308 733.092C606.677 746.085 580.387 743.832 555.439 726.333C535.199 704.117 512.29 700.737 486.71 716.194C483.028 719.682 479.648 723.249 476.57 726.896C478.084 733.328 479.774 739.712 481.64 746.047C516.59 730.874 547.199 737.07 573.466 764.634C598.146 777.499 619.929 773.743 638.814 753.369C662.61 736.523 688.149 733.52 715.43 744.357C725.652 749.471 734.666 756.23 742.471 764.634C760.075 774.323 777.727 774.323 795.425 764.634C824.24 735.027 856.914 729.958 893.448 749.426C894.199 753.343 894.951 757.099 895.701 760.692C899.981 761.799 904.487 762.175 909.222 761.818C916.891 769.116 926.092 772.495 936.826 771.957C941.973 771.983 947.043 771.419 952.036 770.267C958.795 767.639 965.179 764.447 971.19 760.692C981.33 762.193 991.471 762.193 1001.61 760.692C1004.24 760.692 1006.87 760.692 1009.5 760.692C1018.88 760.692 1028.28 760.692 1037.67 760.692C1040.67 760.692 1043.67 760.692 1046.68 760.692C1056.06 760.692 1065.46 760.692 1074.85 760.692C1079.97 764.57 1085.61 767.575 1091.75 769.704C1092.13 770.648 1092.88 771.024 1094 770.83C1094 779.467 1094 788.103 1094 796.74C1085.21 795.626 1076.95 792.81 1069.21 788.291C1062.5 783.46 1056.12 778.202 1050.06 772.52C1032.29 761.647 1014.26 761.271 995.977 771.393C968.227 800.356 936.303 805.989 900.208 788.291C893.119 783.083 886.359 777.451 879.928 771.393C854.469 758.13 832.31 762.261 813.452 783.785C790.608 799.026 766.195 802.03 740.217 792.797C729.253 787.314 719.488 780.18 710.923 771.393C692.618 761.274 674.59 761.65 656.842 772.52C634.678 795.618 608.013 803.127 576.846 795.05C563.379 789.844 551.735 781.958 541.919 771.393C525.204 762.094 508.304 761.719 491.217 770.267C489.088 771.481 487.961 773.359 487.837 775.899C489.152 783.597 490.466 791.296 491.781 798.993C523.008 789.996 549.861 797.318 572.339 820.96C597.825 835.311 620.359 831.555 639.941 809.695C669.572 789.513 699.241 789.513 728.95 809.695C748.461 831.64 770.995 835.394 796.552 820.96C827.339 790.076 861.14 786.321 897.955 809.695C915.869 830.739 937.276 835.245 962.177 823.213C967.435 818.707 972.692 814.201 977.95 809.695C1014.69 786.651 1048.49 790.406 1079.35 820.96C1083.95 824.01 1088.83 826.451 1094 828.282C1094 836.919 1094 845.555 1094 854.192C1086.88 853.385 1080.12 851.319 1073.72 847.997C1063.26 840.921 1053.12 833.41 1043.3 825.466C1028.45 818.35 1013.8 818.726 999.357 826.593C992.642 831.424 986.265 836.682 980.204 842.364C951.954 859.608 923.786 859.608 895.701 842.364C887.23 833.062 877.089 826.303 865.281 822.087C849.943 818.504 836.046 821.509 823.593 831.099C801.079 853.906 774.415 860.665 743.597 851.376C737.785 848.659 732.151 845.654 726.697 842.364C718.225 833.062 708.085 826.303 696.276 822.087C675.81 818.018 658.909 824.026 645.575 840.111C618.342 858.555 590.175 860.058 561.072 844.617C553.131 837.803 544.869 831.419 536.285 825.466C523.177 819.168 510.032 818.98 496.851 824.903C496.294 834.627 496.294 844.389 496.851 854.192C525.936 848.178 550.724 855.877 571.213 877.286C590.333 889.957 609.487 889.957 628.674 877.286C655.62 849.97 686.417 844.713 721.063 861.515C729.225 866.666 736.736 872.675 743.597 879.539C762.039 889.618 780.066 888.867 797.679 877.286C827.738 847.728 860.787 843.974 896.828 866.021C924.207 893.712 951.624 893.712 979.077 866.021C1007.97 847.384 1036.89 847.384 1065.83 866.021C1071.89 871.703 1078.27 876.96 1084.99 881.792C1087.63 882.746 1090.27 883.685 1092.87 884.608C1092.87 888.363 1092.87 892.119 1092.87 895.873C1082.36 895.873 1071.84 895.873 1061.33 895.873C1057.49 893.747 1054.11 890.93 1051.19 887.425C1025.95 872.185 1003.41 875.378 983.584 897C979.449 897 975.322 897 971.19 897C957.67 897 944.149 897 930.629 897C917.86 897 905.09 897 892.321 897C872.361 875.837 849.827 872.646 824.719 887.425C821.789 890.93 818.409 893.747 814.579 895.873C784.158 895.873 753.738 895.873 723.317 895.873C719.465 893.72 716.084 890.903 713.176 887.425C687.942 872.185 665.408 875.378 645.575 897C620.412 897 595.248 897 570.086 897C564.828 897 559.57 897 554.312 897C539.189 879.814 520.786 874.556 499.104 881.229C497.994 885.886 497.619 890.768 497.977 895.873C451.031 895.873 404.086 895.873 357.14 895.873C310.194 895.873 263.249 895.873 216.303 895.873C212.451 893.72 209.071 890.903 206.163 887.425C181.195 872.007 159.038 875.199 139.688 897C135.932 897 132.176 897 128.421 897C106.262 897 84.1044 897 61.9457 897C57.0637 897 52.1806 897 47.2986 897C29.8709 877.631 9.21404 873.312 -14.6697 884.045C-20.4395 887.374 -25.3226 891.693 -29.3167 897C-34.575 897 -39.8325 897 -45.0905 897C-70.629 897 -96.1674 897 -121.706 897C-129.322 887.558 -139.087 881.549 -151 878.976C-151 870.339 -151 861.703 -151 853.066C-139.199 854.433 -128.308 858.376 -118.326 864.894C-112.692 869.775 -107.059 874.658 -101.425 879.539C-86.9804 887.92 -71.9578 889.047 -56.3575 882.919C-46.7065 877.026 -37.6926 870.267 -29.3167 862.641C7.08458 844.507 39.3836 850.139 67.5792 879.539C92.4736 891.905 114.256 887.774 132.928 867.147C161.26 847.659 190.178 846.907 219.683 864.894C225.317 869.775 230.95 874.658 236.584 879.539C240.774 882.202 245.281 883.892 250.104 884.608C250.163 874.449 249.786 864.311 248.977 854.192C231.883 851.092 217.612 843.018 206.163 829.972C187.976 817.872 169.572 817.496 150.955 828.846C123.45 856.951 91.9023 862.584 56.3122 845.743C49.3053 841.294 42.9203 836.036 37.1584 829.972C18.9712 817.872 0.567764 817.496 -18.0498 828.846C-45.5551 856.951 -77.1027 862.584 -112.692 845.743C-120.615 840.276 -128.126 834.269 -135.226 827.719C-140.217 824.869 -145.475 822.803 -151 821.523C-151 812.886 -151 804.25 -151 795.614C-138.628 797.107 -127.361 801.425 -117.199 808.568C-111.142 814.251 -104.758 819.508 -98.0452 824.34C-81.524 831.686 -65.3748 830.934 -49.5973 822.087C-19.3241 790.881 14.4768 786.375 51.8054 808.568C57.8625 814.251 64.2464 819.508 70.9593 824.34C87.462 831.626 103.612 830.876 119.407 822.087C149.647 790.888 183.448 786.382 220.81 808.568C227.516 815.466 235.028 821.286 243.344 826.029C242.633 815.411 240.568 804.897 237.147 794.487C224.538 789.018 213.458 781.32 203.909 771.393C178.492 758.143 156.335 762.274 137.434 783.785C114.622 799.079 90.2111 802.082 64.1991 792.797C54.2921 788.151 45.6548 781.769 38.2851 773.646C20.9339 762.293 2.90678 761.167 -15.7964 770.267C-25.0578 779.526 -35.5733 787.035 -47.3439 792.797C-68.2955 800.151 -88.9517 799.401 -109.312 790.544C-119.341 784.274 -128.731 777.14 -137.48 769.14C-141.769 767.021 -146.276 765.708 -151 765.198C-151 756.185 -151 747.173 -151 738.161C-132.167 741.003 -116.394 749.452 -103.679 763.508C-88.3013 772.915 -72.1521 774.417 -55.2308 768.014C-46.6466 762.061 -38.3842 755.677 -30.4434 748.863C-8.86269 736.758 13.6712 734.88 37.1584 743.23C48.929 748.993 59.4444 756.502 68.7059 765.761C83.3394 773.115 98.3617 773.866 113.774 768.014C123.596 760.07 133.737 752.559 144.195 745.484C164.526 736.604 185.182 735.854 206.163 743.23C212.579 745.904 218.401 749.471 223.627 753.932C220.04 742.449 215.534 731.184 210.106 720.137C196.768 707.777 181.183 703.834 163.348 708.309C154.591 711.812 147.079 717.068 140.814 724.08C112.165 745.467 82.4955 746.968 51.8054 728.586C43.3338 719.284 33.1935 712.525 21.3846 708.309C7.76511 704.682 -5.00488 706.56 -16.9231 713.941C-40.8263 739.067 -69.3692 746.577 -102.552 736.471C-106.308 734.594 -110.063 732.717 -113.819 730.839C-121.33 724.831 -128.842 718.822 -136.353 712.815C-140.979 710.334 -145.862 708.644 -151 707.745C-151 699.108 -151 690.472 -151 681.835C-142.737 682.397 -134.85 684.462 -127.339 688.031C-116.882 695.107 -106.741 702.617 -96.9186 710.562C-81.1451 717.727 -65.7469 716.977 -50.724 708.309C-41.4629 699.05 -30.9471 691.54 -19.1765 685.778C1.38687 678.559 21.6674 679.311 41.6652 688.031C52.5569 695.917 63.4476 703.802 74.3394 711.688C97.9166 719.218 117.822 713.585 134.054 694.79C149.909 683.688 167.56 678.619 187.009 679.582C180.709 669.161 173.573 659.397 165.602 650.293C153.935 654.999 143.795 661.947 135.181 671.133C107.927 687.816 80.5114 688.191 52.9321 672.26C45.4204 666.252 37.9099 660.243 30.3982 654.236C15.1314 647.201 0.109192 647.576 -14.6697 655.362C-21.3825 660.194 -27.7664 665.451 -33.8235 671.133C-70.4601 692.31 -103.51 687.804 -132.973 657.615C-138.577 654.183 -144.586 651.742 -151 650.293C-151 641.656 -151 633.02 -151 624.383C-139.187 625.754 -128.295 629.697 -118.326 636.211C-109.215 646.073 -98.3239 653.207 -85.6516 657.615C-75.6023 658.923 -65.8377 657.797 -56.3575 654.236C-46.7065 648.343 -37.6926 641.584 -29.3167 633.958C7.08458 615.824 39.3836 621.456 67.5792 650.856C83.8521 660.214 100.377 660.589 117.154 651.983C124.243 646.775 131.003 641.142 137.434 635.085C141.371 633.306 145.126 631.24 148.701 628.889C144.211 623.837 139.518 618.955 134.618 614.244C109.029 629.571 82.927 630.51 56.3122 617.061C48.1504 611.909 40.6399 605.9 33.7783 599.036C16.2446 588.939 -1.03102 589.316 -18.0498 600.163C-45.5551 628.268 -77.1027 633.901 -112.692 617.061C-120.615 611.594 -128.126 605.586 -135.226 599.036C-140.217 596.186 -145.475 594.12 -151 592.841C-151 584.204 -151 575.568 -151 566.931C-142.341 567.969 -134.078 570.41 -126.213 574.253C-116.216 580.567 -106.827 587.703 -98.0452 595.657C-81.5347 602.969 -65.3855 602.218 -49.5973 593.404C-19.3241 562.198 14.4768 557.692 51.8054 579.886C59.2788 588.491 68.2924 594.875 78.8461 599.036C91.3052 602.108 103.324 600.982 114.9 595.657C38.8822 529.814 -49.7513 496.207 -151 494.834C-151 412.223 -151 329.611 -151 247Z" fill="#E9F1F7" fill-opacity="0.4"/>
<g opacity="0.8" filter="url(#filter0_f_6008_10969)">
<ellipse cx="1350" cy="514.782" rx="506" ry="61.7816" fill="#2AA7A4" fill-opacity="0.4"/>
</g>
</g>
<defs>
<filter id="filter0_f_6008_10969" x="644" y="253" width="1412" height="523.563" filterUnits="userSpaceOnUse" color-interpolation-filters="sRGB">
<feFlood flood-opacity="0" result="BackgroundImageFix"/>
<feBlend mode="normal" in="SourceGraphic" in2="BackgroundImageFix" result="shape"/>
<feGaussianBlur stdDeviation="100" result="effect1_foregroundBlur_6008_10969"/>
</filter>
</defs>
</svg>
