<svg width="364" height="603" viewBox="0 0 364 603" fill="none" xmlns="http://www.w3.org/2000/svg">
<mask id="mask0_6005_10959" style="mask-type:alpha" maskUnits="userSpaceOnUse" x="-1" y="0" width="365" height="603">
<rect x="-1" width="365" height="603" fill="white"/>
</mask>
<g mask="url(#mask0_6005_10959)">
<path d="M-79.2812 335.18C-8.04674 335.18 49.8809 393.193 49.8809 464.979C49.8809 536.764 -8.04674 594.777 -79.2812 594.777C-150.516 594.777 -208.443 536.764 -208.443 464.979C-208.443 393.193 -150.516 335.18 -79.2812 335.18Z" stroke="#1AA1E0" stroke-width="51.5632"/>
<path opacity="0.05" d="M-27.6904 35.1621C53.2186 35.1621 119.481 97.8562 125.175 177.314C126.311 177.151 127.496 177.036 128.733 176.976L128.732 176.865C129.942 176.843 131.105 176.875 132.224 176.955C145.451 177.456 152.748 184.579 158.235 189.874C162.776 194.222 165.258 196.482 169.76 196.902C169.981 196.907 170.208 196.909 170.439 196.906C176.249 196.825 178.726 194.507 183.715 189.412C189.283 183.788 196.885 175.994 211.538 175.729C226.192 175.465 233.993 183.084 239.782 188.67C244.934 193.603 247.436 195.85 253.245 195.77C259.054 195.688 261.532 193.372 266.521 188.276C272.064 182.677 279.624 174.927 294.151 174.598L294.15 174.519C299.251 174.426 303.521 175.29 307.165 176.69C314.097 179.301 318.779 183.857 322.589 187.533C325.904 190.708 328.123 192.77 330.831 193.815C332.279 194.344 333.876 194.587 335.857 194.56C341.667 194.478 344.144 192.162 349.133 187.066C354.701 181.442 362.303 173.647 376.957 173.383C391.61 173.118 399.412 180.739 405.201 186.324C410.353 191.258 412.855 193.505 418.664 193.424C424.473 193.343 426.951 191.026 431.939 185.931C437.307 180.509 444.565 173.071 458.209 172.306L458.204 171.948C461.267 171.893 464.031 172.182 466.539 172.726C476.96 174.465 483.183 180.533 488.007 185.188C491.808 188.828 494.168 191.004 497.478 191.863C498.227 191.959 499.031 192.002 499.911 191.989C505.72 191.908 508.198 189.59 513.187 184.495C518.755 178.871 526.357 171.076 541.01 170.812C555.663 170.547 563.465 178.167 569.254 183.753C574.406 188.687 576.908 190.934 582.717 190.853C588.526 190.771 591.004 188.455 595.992 183.359C601.536 177.76 609.096 170.01 623.623 169.681L623.622 169.602C628.722 169.509 632.993 170.373 636.637 171.773C643.569 174.384 648.251 178.941 652.061 182.617C655.376 185.792 657.595 187.853 660.303 188.898C661.751 189.427 663.348 189.67 665.33 189.643C671.139 189.561 673.616 187.245 678.604 182.149C684.173 176.525 691.775 168.73 706.429 168.466C721.082 168.201 728.884 175.821 734.673 181.406C739.825 186.34 742.327 188.588 748.136 188.507C753.945 188.426 756.423 186.109 761.411 181.014C766.818 175.553 774.142 168.045 787.977 167.372L787.976 167.262C789.185 167.24 790.347 167.272 791.466 167.352C804.694 167.853 811.991 174.975 817.479 180.271C822.018 184.618 824.501 186.879 829.002 187.3C829.224 187.304 829.451 187.306 829.683 187.303C835.492 187.222 837.969 184.904 842.958 179.809C848.526 174.185 856.128 166.391 870.781 166.126C885.435 165.861 893.237 173.481 899.025 179.066C904.177 184 906.679 186.248 912.488 186.167C918.297 186.086 920.775 183.768 925.764 178.673C931.307 173.074 938.867 165.323 953.395 164.994L953.394 164.915C958.496 164.823 962.769 165.688 966.414 167.089C973.343 169.7 978.024 174.256 981.832 177.931C985.147 181.106 987.366 183.167 990.074 184.212C991.523 184.74 993.119 184.984 995.101 184.956C1000.91 184.875 1003.39 182.558 1008.38 177.463C1013.94 171.839 1021.55 164.044 1036.2 163.779C1050.85 163.515 1058.66 171.135 1064.44 176.721C1069.6 181.654 1072.1 183.901 1077.91 183.82C1083.72 183.739 1086.19 181.422 1091.18 176.327C1096.55 170.905 1103.81 163.467 1117.45 162.702L1117.45 162.345C1120.51 162.289 1123.28 162.58 1125.79 163.124C1136.21 164.865 1142.43 170.93 1147.25 175.584C1151.05 179.223 1153.41 181.399 1156.72 182.259C1157.47 182.355 1158.27 182.398 1159.15 182.386C1164.96 182.305 1167.44 179.987 1172.43 174.892C1178 169.268 1185.6 161.474 1200.25 161.209C1214.91 160.944 1222.71 168.564 1228.5 174.149C1233.65 179.083 1236.15 181.331 1241.96 181.25C1247.77 181.169 1250.25 178.851 1255.24 173.756C1260.78 168.157 1268.34 160.406 1282.87 160.077L1282.87 159.998C1287.97 159.906 1292.24 160.771 1295.88 162.171C1302.81 164.782 1307.49 169.338 1311.3 173.014C1314.62 176.186 1316.83 178.246 1319.54 179.292C1320.99 179.822 1322.59 180.068 1324.57 180.04C1330.38 179.959 1332.86 177.641 1337.85 172.546C1343.42 166.922 1351.02 159.127 1365.67 158.862C1380.33 158.598 1388.13 166.218 1393.92 171.804C1399.07 176.737 1401.57 178.984 1407.38 178.903C1413.19 178.822 1415.67 176.505 1420.65 171.41C1426.06 165.949 1433.38 158.442 1447.22 157.769L1447.22 157.658C1448.43 157.636 1449.6 157.669 1450.72 157.749C1463.94 158.253 1471.24 165.373 1476.72 170.667C1481.26 175.015 1483.74 177.276 1488.25 177.696C1488.47 177.701 1488.69 177.702 1488.93 177.699C1494.73 177.618 1497.21 175.301 1502.2 170.206C1507.77 164.582 1515.37 156.787 1530.02 156.522C1544.68 156.258 1552.48 163.877 1558.27 169.463C1563.42 174.397 1565.92 176.644 1571.73 176.563C1577.54 176.482 1580.02 174.165 1585.01 169.069C1590.55 163.47 1598.11 155.721 1612.64 155.392L1612.64 155.312C1617.74 155.22 1622.01 156.084 1625.65 157.484C1632.58 160.095 1637.27 164.651 1641.08 168.327C1644.39 171.499 1646.61 173.559 1649.31 174.605C1650.76 175.136 1652.36 175.381 1654.34 175.354C1660.15 175.272 1662.63 172.955 1667.62 167.859C1673.19 162.235 1680.79 154.44 1695.44 154.176C1710.1 153.911 1717.9 161.532 1723.69 167.117C1728.84 172.051 1731.34 174.298 1737.15 174.217C1742.96 174.136 1745.44 171.819 1750.43 166.724C1755.79 161.302 1763.05 153.864 1776.7 153.099L1776.69 152.741C1779.76 152.686 1782.53 152.977 1785.04 153.522C1795.45 155.265 1801.67 161.328 1806.49 165.98C1810.29 169.62 1812.65 171.797 1815.96 172.656C1816.71 172.752 1817.52 172.795 1818.4 172.782C1824.21 172.701 1826.68 170.384 1831.67 165.289C1837.24 159.665 1844.84 151.87 1859.5 151.605C1874.15 151.341 1881.95 158.96 1887.74 164.546C1892.89 169.48 1895.39 171.728 1901.2 171.646C1907.01 171.565 1909.49 169.248 1914.48 164.152C1920.02 158.553 1927.58 150.804 1942.11 150.475L1942.11 150.396C1947.21 150.303 1951.48 151.167 1955.12 152.567C1962.06 155.178 1966.74 159.734 1970.55 163.41C1973.86 166.582 1976.08 168.642 1978.78 169.688C1980.23 170.219 1981.83 170.464 1983.82 170.437C1989.62 170.355 1992.1 168.038 1997.09 162.942C2002.66 157.318 2010.26 149.523 2024.92 149.259C2039.57 148.994 2047.37 156.615 2053.16 162.2C2058.31 167.134 2060.81 169.381 2066.62 169.3C2072.43 169.219 2074.91 166.902 2079.9 161.807C2085.3 156.346 2092.63 148.838 2106.46 148.165L2106.46 148.055C2107.67 148.033 2108.84 148.065 2109.96 148.146C2123.18 148.649 2130.48 155.771 2135.96 161.064C2140.51 165.414 2142.99 167.673 2147.49 168.093C2147.71 168.097 2147.94 168.099 2148.17 168.096C2153.98 168.015 2156.46 165.698 2161.44 160.603C2167.01 154.979 2174.61 147.184 2189.27 146.919C2203.92 146.654 2211.72 154.274 2217.51 159.859C2222.66 164.793 2225.17 167.041 2230.97 166.96C2236.78 166.879 2239.26 164.561 2244.25 159.466C2249.79 153.867 2257.35 146.117 2271.88 145.788L2271.88 145.709C2276.98 145.617 2281.25 146.481 2284.89 147.881C2291.83 150.492 2296.51 155.048 2300.32 158.724C2303.63 161.896 2305.85 163.956 2308.55 165.002C2310 165.532 2311.6 165.778 2313.59 165.75C2319.4 165.669 2321.87 163.351 2326.86 158.256C2332.43 152.632 2340.03 144.837 2354.69 144.572C2369.34 144.308 2377.14 151.928 2382.93 157.514C2388.08 162.447 2390.58 164.694 2396.39 164.613C2402.2 164.532 2404.68 162.215 2409.67 157.12C2415.24 151.496 2422.84 143.701 2437.49 143.437C2452.15 143.172 2459.95 150.792 2465.74 156.378C2470.89 161.312 2473.39 163.559 2479.2 163.478L2479.49 183.997C2464.84 184.262 2457.04 176.641 2451.25 171.056C2446.1 166.122 2443.59 163.875 2437.79 163.956C2431.98 164.037 2429.5 166.354 2424.51 171.449C2418.94 177.073 2411.34 184.868 2396.69 185.133C2382.03 185.397 2374.23 177.778 2368.44 172.192C2363.29 167.259 2360.79 165.011 2354.98 165.092C2349.17 165.173 2346.69 167.49 2341.7 172.585C2336.16 178.184 2328.6 185.934 2314.07 186.263L2314.07 186.343C2308.97 186.435 2304.69 185.569 2301.04 184.165C2294.12 181.553 2289.44 177.001 2285.64 173.328C2282.32 170.155 2280.1 168.095 2277.4 167.049C2275.95 166.519 2274.35 166.274 2272.37 166.302C2266.56 166.383 2264.08 168.701 2259.09 173.796C2253.52 179.42 2245.92 187.214 2231.27 187.479C2216.61 187.743 2208.81 180.124 2203.02 174.538C2197.87 169.604 2195.37 167.356 2189.56 167.438C2183.75 167.519 2181.27 169.836 2176.29 174.932C2170.88 180.393 2163.55 187.899 2149.72 188.572L2149.72 188.684C2148.51 188.705 2147.35 188.672 2146.23 188.592C2133 188.09 2125.71 180.969 2120.22 175.674C2115.68 171.326 2113.19 169.065 2108.69 168.645C2108.47 168.64 2108.25 168.639 2108.01 168.643C2102.2 168.724 2099.73 171.04 2094.74 176.136C2089.17 181.76 2081.57 189.555 2066.92 189.819C2052.26 190.084 2044.46 182.464 2038.67 176.879C2033.52 171.945 2031.02 169.697 2025.21 169.778C2019.4 169.86 2016.92 172.176 2011.93 177.271C2006.39 182.871 1998.83 190.62 1984.3 190.949L1984.3 191.029C1979.2 191.121 1974.93 190.257 1971.29 188.856C1964.36 186.246 1959.67 181.69 1955.86 178.015C1952.55 174.842 1950.33 172.782 1947.63 171.735C1946.18 171.205 1944.58 170.961 1942.6 170.988C1936.79 171.069 1934.31 173.386 1929.32 178.481C1923.75 184.105 1916.15 191.9 1901.5 192.165C1886.84 192.43 1879.04 184.81 1873.25 179.225C1868.1 174.291 1865.6 172.043 1859.79 172.124C1853.98 172.205 1851.5 174.523 1846.51 179.618C1841.15 185.04 1833.89 192.477 1820.24 193.242L1820.25 193.601C1817.18 193.656 1814.41 193.364 1811.9 192.818C1801.49 191.075 1795.27 185.012 1790.45 180.36C1786.65 176.721 1784.29 174.545 1780.98 173.686C1780.23 173.589 1779.42 173.547 1778.54 173.56C1772.73 173.641 1770.26 175.958 1765.27 181.053C1759.7 186.677 1752.1 194.472 1737.44 194.736C1722.79 195.001 1714.99 187.381 1709.2 181.795C1704.05 176.861 1701.54 174.614 1695.74 174.695C1689.93 174.777 1687.45 177.093 1682.46 182.188C1676.92 187.788 1669.36 195.537 1654.83 195.866L1654.83 195.946C1649.74 196.038 1645.47 195.176 1641.83 193.779C1634.89 191.169 1630.2 186.61 1626.39 182.932C1623.08 179.759 1620.86 177.699 1618.16 176.652C1616.71 176.122 1615.11 175.878 1613.12 175.905C1607.31 175.986 1604.84 178.303 1599.85 183.398C1594.28 189.022 1586.68 196.817 1572.02 197.082C1557.37 197.347 1549.57 189.727 1543.78 184.142C1538.63 179.208 1536.13 176.96 1530.32 177.041C1524.51 177.122 1522.03 179.439 1517.04 184.534C1511.64 189.995 1504.31 197.503 1490.48 198.176L1490.48 198.287C1489.27 198.309 1488.11 198.275 1486.99 198.195C1473.76 197.694 1466.46 190.572 1460.97 185.277C1456.43 180.929 1453.95 178.668 1449.45 178.248C1449.23 178.244 1449 178.243 1448.77 178.246C1442.96 178.327 1440.48 180.644 1435.5 185.739C1429.93 191.363 1422.33 199.158 1407.67 199.423C1393.02 199.688 1385.22 192.068 1379.43 186.482C1374.28 181.549 1371.77 179.301 1365.96 179.382C1360.16 179.463 1357.68 181.78 1352.69 186.875C1347.15 192.474 1339.59 200.224 1325.06 200.553L1325.06 200.633C1319.96 200.725 1315.69 199.86 1312.04 198.46C1305.11 195.849 1300.43 191.294 1296.62 187.618C1293.3 184.437 1291.08 182.375 1288.36 181.331C1286.92 180.806 1285.33 180.564 1283.35 180.592C1277.54 180.673 1275.07 182.99 1270.08 188.085C1264.51 193.709 1256.91 201.504 1242.25 201.769C1227.6 202.033 1219.8 194.414 1214.01 188.828C1208.86 183.894 1206.35 181.646 1200.55 181.728C1194.74 181.809 1192.26 184.125 1187.27 189.221C1181.9 194.643 1174.64 202.081 1161 202.846L1161.01 203.203C1157.94 203.258 1155.17 202.968 1152.66 202.424C1142.25 200.683 1136.03 194.618 1131.2 189.964C1127.4 186.325 1125.04 184.149 1121.74 183.289C1120.99 183.193 1120.18 183.151 1119.3 183.163C1113.49 183.244 1111.01 185.561 1106.02 190.656C1100.46 196.28 1092.85 204.075 1078.2 204.34C1063.55 204.604 1055.74 196.984 1049.96 191.398C1044.8 186.465 1042.3 184.218 1036.49 184.299C1030.68 184.38 1028.21 186.697 1023.22 191.792C1017.67 197.391 1010.11 205.141 995.586 205.47L995.588 205.55C990.494 205.642 986.227 204.78 982.586 203.383C975.647 200.773 970.961 196.213 967.149 192.535C963.833 189.36 961.615 187.297 958.906 186.252C957.458 185.724 955.861 185.481 953.88 185.509C948.071 185.59 945.594 187.907 940.605 193.002C935.037 198.626 927.435 206.421 912.781 206.686C898.128 206.95 890.326 199.331 884.537 193.745C879.385 188.811 876.883 186.563 871.074 186.645C865.265 186.726 862.787 189.042 857.799 194.138C852.392 199.599 845.068 207.106 831.232 207.779L831.234 207.89C830.025 207.911 828.862 207.879 827.743 207.799C814.516 207.297 807.219 200.176 801.731 194.881C797.191 190.532 794.708 188.272 790.206 187.852C789.985 187.847 789.759 187.845 789.527 187.849C783.718 187.93 781.24 190.248 776.252 195.343C770.684 200.967 763.082 208.762 748.429 209.026C733.775 209.291 725.973 201.671 720.185 196.085C715.033 191.151 712.531 188.904 706.722 188.985C700.913 189.066 698.435 191.383 693.446 196.479C687.903 202.078 680.343 209.827 665.814 210.156L665.816 210.236C660.722 210.328 656.456 209.466 652.814 208.069C645.875 205.459 641.19 200.899 637.378 197.221C634.062 194.045 631.844 191.984 629.135 190.938C627.687 190.41 626.09 190.168 624.109 190.195C618.3 190.276 615.822 192.593 610.834 197.688C605.266 203.312 597.663 211.107 583.01 211.372C568.356 211.637 560.554 204.017 554.766 198.432C549.614 193.498 547.112 191.25 541.303 191.331C535.494 191.412 533.016 193.729 528.027 198.824C522.659 204.246 515.401 211.683 501.757 212.448L501.763 212.807C498.701 212.862 495.938 212.571 493.431 212.028C483.008 210.289 476.785 204.223 471.96 199.567C468.16 195.928 465.801 193.752 462.493 192.893C461.743 192.796 460.937 192.753 460.056 192.766C454.247 192.847 451.77 195.164 446.781 200.26C441.213 205.884 433.611 213.679 418.957 213.943C404.303 214.208 396.502 206.588 390.713 201.002C385.561 196.068 383.059 193.821 377.25 193.902C371.441 193.984 368.963 196.3 363.975 201.396C358.431 206.995 350.871 214.744 336.343 215.073L336.345 215.153C331.25 215.245 326.984 214.383 323.343 212.986C316.403 210.376 311.718 205.816 307.906 202.138C304.59 198.962 302.372 196.901 299.663 195.855C298.215 195.327 296.618 195.085 294.637 195.112C288.828 195.194 286.351 197.51 281.362 202.605C275.794 208.229 268.192 216.024 253.538 216.289C238.885 216.554 231.083 208.934 225.294 203.349C220.142 198.415 217.64 196.167 211.831 196.248C206.022 196.329 203.544 198.646 198.556 203.741C193.149 209.202 185.825 216.709 171.989 217.382L171.991 217.493C170.782 217.515 169.619 217.482 168.5 217.402C155.273 216.901 147.976 209.779 142.488 204.484C137.952 200.141 135.471 197.879 130.978 197.455C130.752 197.451 130.521 197.449 130.284 197.452C128.297 197.48 126.7 197.769 125.259 198.342C124.861 204.569 124.089 210.695 122.97 216.698C124.757 216.324 126.673 216.072 128.733 215.972L128.732 215.861C129.942 215.839 131.105 215.871 132.224 215.951C145.451 216.453 152.748 223.575 158.235 228.87C162.776 233.218 165.258 235.478 169.76 235.898C169.981 235.903 170.208 235.906 170.439 235.902C176.249 235.821 178.726 233.504 183.715 228.408C189.283 222.784 196.885 214.99 211.538 214.726C226.192 214.461 233.993 222.08 239.782 227.666C244.934 232.6 247.436 234.847 253.245 234.766C259.054 234.685 261.532 232.368 266.521 227.272C272.064 221.673 279.624 213.923 294.151 213.594L294.15 213.515C299.251 213.423 303.521 214.287 307.165 215.687C314.097 218.297 318.779 222.853 322.589 226.529C325.904 229.704 328.123 231.766 330.831 232.812C332.279 233.34 333.876 233.583 335.857 233.556C341.667 233.475 344.144 231.158 349.133 226.062C354.701 220.439 362.303 212.643 376.957 212.379C391.61 212.114 399.412 219.735 405.201 225.32C410.353 230.254 412.855 232.501 418.664 232.42C424.473 232.339 426.951 230.022 431.939 224.927C437.307 219.505 444.565 212.067 458.209 211.302L458.204 210.944C461.267 210.889 464.031 211.179 466.539 211.722C476.96 213.461 483.183 219.529 488.007 224.184C491.808 227.824 494.168 230 497.478 230.859C498.227 230.955 499.031 230.998 499.911 230.985C505.72 230.904 508.198 228.586 513.187 223.491C518.755 217.867 526.357 210.072 541.01 209.808C555.663 209.543 563.465 217.163 569.254 222.749C574.406 227.683 576.908 229.93 582.717 229.849C588.526 229.768 591.004 227.451 595.992 222.355C601.536 216.756 609.096 209.006 623.623 208.677L623.622 208.598C628.722 208.506 632.993 209.37 636.637 210.77C643.569 213.38 648.251 217.937 652.061 221.613C655.376 224.788 657.595 226.849 660.303 227.895C661.751 228.423 663.348 228.666 665.33 228.639C671.139 228.557 673.616 226.241 678.604 221.146C684.173 215.522 691.775 207.727 706.429 207.462C721.082 207.197 728.884 214.817 734.673 220.402C739.825 225.336 742.327 227.584 748.136 227.503C753.945 227.422 756.423 225.105 761.411 220.01C766.818 214.549 774.142 207.042 787.977 206.368L787.976 206.258C789.185 206.236 790.347 206.268 791.466 206.348C804.694 206.849 811.991 213.972 817.479 219.267C822.018 223.614 824.501 225.875 829.002 226.296C829.224 226.3 829.451 226.302 829.683 226.299C835.492 226.218 837.969 223.9 842.958 218.805C848.526 213.181 856.128 205.387 870.781 205.122C885.435 204.857 893.237 212.477 899.025 218.062C904.177 222.996 906.679 225.244 912.488 225.163C918.297 225.082 920.775 222.764 925.764 217.669C931.307 212.07 938.867 204.319 953.395 203.99L953.394 203.911C958.496 203.819 962.769 204.684 966.414 206.085C973.343 208.696 978.024 213.252 981.832 216.927C985.147 220.102 987.366 222.163 990.074 223.208C991.523 223.736 993.119 223.98 995.101 223.952C1000.91 223.871 1003.39 221.554 1008.38 216.459C1013.94 210.835 1021.55 203.04 1036.2 202.775C1050.85 202.511 1058.66 210.131 1064.44 215.717C1069.6 220.65 1072.1 222.897 1077.91 222.816C1083.72 222.735 1086.19 220.419 1091.18 215.323C1096.55 209.902 1103.81 202.463 1117.45 201.698L1117.45 201.341C1120.51 201.285 1123.28 201.576 1125.79 202.12C1136.21 203.861 1142.43 209.926 1147.25 214.58C1151.05 218.219 1153.41 220.395 1156.72 221.255C1157.47 221.351 1158.27 221.394 1159.15 221.382C1164.96 221.301 1167.44 218.983 1172.43 213.888C1178 208.264 1185.6 200.47 1200.25 200.205C1214.91 199.94 1222.71 207.56 1228.5 213.146C1233.65 218.079 1236.15 220.327 1241.96 220.246C1247.77 220.165 1250.25 217.847 1255.24 212.752C1260.78 207.153 1268.34 199.402 1282.87 199.073L1282.87 198.994C1287.97 198.902 1292.24 199.767 1295.88 201.167C1302.81 203.778 1307.49 208.334 1311.3 212.01C1314.62 215.182 1316.83 217.242 1319.54 218.288C1320.99 218.818 1322.59 219.064 1324.57 219.036C1330.38 218.955 1332.86 216.637 1337.85 211.542C1343.42 205.918 1351.02 198.123 1365.67 197.858C1380.33 197.594 1388.13 205.214 1393.92 210.8C1399.07 215.733 1401.57 217.98 1407.38 217.899C1413.19 217.818 1415.67 215.501 1420.65 210.406C1426.06 204.945 1433.38 197.438 1447.22 196.765L1447.22 196.654C1448.43 196.632 1449.6 196.665 1450.72 196.745C1463.94 197.249 1471.24 204.369 1476.72 209.663C1481.26 214.011 1483.74 216.272 1488.25 216.692C1488.47 216.697 1488.69 216.699 1488.93 216.695C1494.73 216.614 1497.21 214.297 1502.2 209.202C1507.77 203.578 1515.37 195.783 1530.02 195.519C1544.68 195.254 1552.48 202.873 1558.27 208.459C1563.42 213.393 1565.92 215.641 1571.73 215.56C1577.54 215.478 1580.02 213.161 1585.01 208.065C1590.55 202.466 1598.11 194.717 1612.64 194.388L1612.64 194.309C1617.74 194.216 1622.01 195.08 1625.65 196.48C1632.58 199.091 1637.27 203.647 1641.08 207.323C1644.39 210.495 1646.61 212.555 1649.31 213.602C1650.76 214.132 1652.36 214.377 1654.34 214.35C1660.15 214.269 1662.63 211.951 1667.62 206.855C1673.19 201.231 1680.79 193.437 1695.44 193.172C1710.1 192.907 1717.9 200.528 1723.69 206.113C1728.84 211.047 1731.34 213.294 1737.15 213.213C1742.96 213.132 1745.44 210.815 1750.43 205.72C1755.79 200.298 1763.05 192.86 1776.7 192.095L1776.69 191.737C1779.76 191.682 1782.53 191.974 1785.04 192.519C1795.45 194.261 1801.67 200.324 1806.49 204.977C1810.29 208.616 1812.65 210.793 1815.96 211.652C1816.71 211.749 1817.52 211.791 1818.4 211.778C1824.21 211.697 1826.68 209.38 1831.67 204.285C1837.24 198.661 1844.84 190.866 1859.5 190.602C1874.15 190.337 1881.95 197.956 1887.74 203.542C1892.89 208.476 1895.39 210.724 1901.2 210.643C1907.01 210.561 1909.49 208.244 1914.48 203.148C1920.02 197.549 1927.58 189.8 1942.11 189.471L1942.11 189.392C1947.21 189.299 1951.48 190.163 1955.12 191.563C1962.06 194.174 1966.74 198.73 1970.55 202.406C1973.86 205.578 1976.08 207.638 1978.78 208.685C1980.23 209.215 1981.83 209.46 1983.82 209.433C1989.62 209.352 1992.1 207.034 1997.09 201.938C2002.66 196.314 2010.26 188.519 2024.92 188.255C2039.57 187.99 2047.37 195.611 2053.16 201.196C2058.31 206.13 2060.81 208.377 2066.62 208.296C2072.43 208.215 2074.91 205.898 2079.9 200.803C2085.3 195.342 2092.63 187.835 2106.46 187.161L2106.46 187.051C2107.67 187.029 2108.84 187.061 2109.96 187.142C2123.18 187.646 2130.48 194.767 2135.96 200.061C2140.51 204.41 2142.99 206.67 2147.49 207.089C2147.71 207.093 2147.94 207.095 2148.17 207.092C2153.98 207.011 2156.46 204.694 2161.44 199.599C2167.01 193.975 2174.61 186.18 2189.27 185.915C2203.92 185.65 2211.72 193.27 2217.51 198.855C2222.66 203.789 2225.17 206.037 2230.97 205.956C2236.78 205.875 2239.26 203.557 2244.25 198.462C2249.79 192.863 2257.35 185.113 2271.88 184.784L2271.88 184.705C2276.98 184.613 2281.25 185.477 2284.89 186.877C2291.83 189.488 2296.51 194.044 2300.32 197.72C2303.63 200.892 2305.85 202.952 2308.55 203.998C2310 204.528 2311.6 204.774 2313.59 204.746C2319.4 204.665 2321.87 202.347 2326.86 197.252C2332.43 191.628 2340.03 183.833 2354.69 183.568C2369.34 183.304 2377.14 190.924 2382.93 196.51C2388.08 201.443 2390.58 203.69 2396.39 203.609C2402.2 203.528 2404.68 201.211 2409.67 196.116C2415.24 190.492 2422.84 182.697 2437.49 182.433C2452.15 182.168 2459.95 189.788 2465.74 195.374C2470.89 200.308 2473.39 202.555 2479.2 202.474L2479.49 222.993C2464.84 223.258 2457.04 215.637 2451.25 210.052C2446.1 205.118 2443.59 202.871 2437.79 202.952C2431.98 203.033 2429.5 205.35 2424.51 210.445C2418.94 216.069 2411.34 223.864 2396.69 224.129C2382.03 224.394 2374.23 216.774 2368.44 211.188C2363.29 206.255 2360.79 204.007 2354.98 204.088C2349.17 204.169 2346.69 206.486 2341.7 211.581C2336.16 217.18 2328.6 224.93 2314.07 225.259L2314.07 225.339C2308.97 225.431 2304.69 224.565 2301.04 223.161C2294.12 220.549 2289.44 215.997 2285.64 212.324C2282.32 209.151 2280.1 207.091 2277.4 206.045C2275.95 205.515 2274.35 205.27 2272.37 205.298C2266.56 205.379 2264.08 207.697 2259.09 212.792C2253.52 218.416 2245.92 226.21 2231.27 226.475C2216.61 226.739 2208.81 219.12 2203.02 213.534C2197.87 208.601 2195.37 206.353 2189.56 206.434C2183.75 206.515 2181.27 208.832 2176.29 213.928C2170.88 219.389 2163.55 226.895 2149.72 227.568L2149.72 227.68C2148.51 227.702 2147.35 227.668 2146.23 227.588C2133 227.086 2125.71 219.965 2120.22 214.67C2115.68 210.322 2113.19 208.061 2108.69 207.641C2108.47 207.636 2108.25 207.635 2108.01 207.639C2102.2 207.72 2099.73 210.037 2094.74 215.132C2089.17 220.756 2081.57 228.551 2066.92 228.815C2052.26 229.08 2044.46 221.461 2038.67 215.875C2033.52 210.941 2031.02 208.693 2025.21 208.774C2019.4 208.856 2016.92 211.173 2011.93 216.268C2006.39 221.867 1998.83 229.616 1984.3 229.945L1984.3 230.025C1979.2 230.118 1974.93 229.253 1971.29 227.853C1964.36 225.242 1959.67 220.686 1955.86 217.011C1952.55 213.838 1950.33 211.778 1947.63 210.731C1946.18 210.201 1944.58 209.957 1942.6 209.984C1936.79 210.065 1934.31 212.382 1929.32 217.478C1923.75 223.102 1916.15 230.896 1901.5 231.161C1886.84 231.426 1879.04 223.806 1873.25 218.221C1868.1 213.287 1865.6 211.039 1859.79 211.12C1853.98 211.201 1851.5 213.519 1846.51 218.614C1841.15 224.036 1833.89 231.473 1820.24 232.238L1820.25 232.597C1817.18 232.652 1814.41 232.36 1811.9 231.814C1801.49 230.071 1795.27 224.009 1790.45 219.356C1786.65 215.717 1784.29 213.541 1780.98 212.682C1780.23 212.585 1779.42 212.543 1778.54 212.556C1772.73 212.637 1770.26 214.954 1765.27 220.049C1759.7 225.673 1752.1 233.468 1737.44 233.732C1722.79 233.997 1714.99 226.377 1709.2 220.791C1704.05 215.857 1701.54 213.61 1695.74 213.691C1689.93 213.773 1687.45 216.09 1682.46 221.185C1676.92 226.784 1669.36 234.533 1654.83 234.862L1654.83 234.942C1649.74 235.034 1645.47 234.173 1641.83 232.775C1634.89 230.165 1630.2 225.606 1626.39 221.928C1623.08 218.755 1620.86 216.695 1618.16 215.648C1616.71 215.118 1615.11 214.874 1613.12 214.901C1607.31 214.982 1604.84 217.299 1599.85 222.395C1594.28 228.018 1586.68 235.813 1572.02 236.078C1557.37 236.343 1549.57 228.723 1543.78 223.138C1538.63 218.204 1536.13 215.956 1530.32 216.037C1524.51 216.118 1522.03 218.435 1517.04 223.53C1511.64 228.991 1504.31 236.499 1490.48 237.172L1490.48 237.283C1489.27 237.305 1488.11 237.271 1486.99 237.191C1473.76 236.69 1466.46 229.568 1460.97 224.273C1456.43 219.925 1453.95 217.664 1449.45 217.244C1449.23 217.24 1449 217.239 1448.77 217.242C1442.96 217.323 1440.48 219.64 1435.5 224.735C1429.93 230.359 1422.33 238.154 1407.67 238.419C1393.02 238.684 1385.22 231.064 1379.43 225.479C1374.28 220.545 1371.77 218.297 1365.96 218.378C1360.16 218.459 1357.68 220.776 1352.69 225.871C1347.15 231.47 1339.59 239.22 1325.06 239.549L1325.06 239.629C1319.96 239.721 1315.69 238.856 1312.04 237.456C1305.11 234.845 1300.43 230.29 1296.62 226.614C1293.3 223.434 1291.08 221.371 1288.36 220.327C1286.92 219.802 1285.33 219.56 1283.35 219.588C1277.54 219.669 1275.07 221.986 1270.08 227.081C1264.51 232.705 1256.91 240.5 1242.25 240.765C1227.6 241.029 1219.8 233.41 1214.01 227.824C1208.86 222.891 1206.35 220.643 1200.55 220.724C1194.74 220.805 1192.26 223.122 1187.27 228.217C1181.9 233.639 1174.64 241.077 1161 241.842L1161.01 242.199C1157.94 242.255 1155.17 241.964 1152.66 241.42C1142.25 239.679 1136.03 233.614 1131.2 228.96C1127.4 225.321 1125.04 223.145 1121.74 222.285C1120.99 222.189 1120.18 222.147 1119.3 222.159C1113.49 222.24 1111.01 224.557 1106.02 229.652C1100.46 235.276 1092.85 243.071 1078.2 243.336C1063.55 243.601 1055.74 235.98 1049.96 230.395C1044.8 225.461 1042.3 223.214 1036.49 223.295C1030.68 223.376 1028.21 225.693 1023.22 230.788C1017.67 236.387 1010.11 244.137 995.586 244.466L995.588 244.546C990.494 244.638 986.227 243.776 982.586 242.379C975.647 239.769 970.961 235.209 967.149 231.531C963.833 228.356 961.615 226.293 958.906 225.248C957.458 224.72 955.861 224.477 953.88 224.505C948.071 224.586 945.594 226.903 940.605 231.998C935.037 237.622 927.435 245.417 912.781 245.682C898.128 245.946 890.326 238.327 884.537 232.741C879.385 227.807 876.883 225.56 871.074 225.641C865.265 225.722 862.787 228.039 857.799 233.134C852.392 238.595 845.068 246.102 831.232 246.775L831.234 246.886C830.025 246.908 828.862 246.875 827.743 246.795C814.516 246.293 807.219 239.172 801.731 233.877C797.191 229.529 794.708 227.268 790.206 226.848C789.985 226.843 789.759 226.841 789.527 226.845C783.718 226.926 781.24 229.244 776.252 234.339C770.684 239.963 763.082 247.758 748.429 248.022C733.775 248.287 725.973 240.667 720.185 235.081C715.033 230.147 712.531 227.9 706.722 227.981C700.913 228.063 698.435 230.379 693.446 235.475C687.903 241.074 680.343 248.823 665.814 249.152L665.816 249.232C660.722 249.324 656.456 248.463 652.814 247.065C645.875 244.455 641.19 239.895 637.378 236.217C634.062 233.041 631.844 230.98 629.135 229.935C627.687 229.406 626.09 229.164 624.109 229.191C618.3 229.272 615.822 231.589 610.834 236.685C605.266 242.309 597.663 250.104 583.01 250.368C568.356 250.633 560.554 243.013 554.766 237.428C549.614 232.494 547.112 230.246 541.303 230.327C535.494 230.408 533.016 232.725 528.027 237.82C522.659 243.242 515.401 250.679 501.757 251.444L501.763 251.803C498.701 251.858 495.938 251.567 493.431 251.024C483.008 249.285 476.785 243.219 471.96 238.563C468.16 234.924 465.801 232.748 462.493 231.889C461.743 231.792 460.937 231.749 460.056 231.762C454.247 231.843 451.77 234.161 446.781 239.256C441.213 244.88 433.611 252.675 418.957 252.939C404.303 253.204 396.502 245.584 390.713 239.998C385.561 235.065 383.059 232.817 377.25 232.898C371.441 232.98 368.963 235.296 363.975 240.392C358.431 245.991 350.871 253.74 336.343 254.069L336.345 254.149C331.25 254.241 326.984 253.38 323.343 251.982C316.403 249.372 311.718 244.812 307.906 241.134C304.59 237.958 302.372 235.897 299.663 234.852C298.215 234.323 296.618 234.081 294.637 234.108C288.828 234.19 286.351 236.506 281.362 241.602C275.794 247.226 268.192 255.021 253.538 255.285C238.885 255.55 231.083 247.93 225.294 242.345C220.142 237.411 217.64 235.163 211.831 235.244C206.022 235.325 203.544 237.642 198.556 242.737C193.149 248.198 185.825 255.705 171.989 256.378L171.991 256.489C170.782 256.511 169.619 256.478 168.5 256.398C155.273 255.897 147.976 248.775 142.488 243.48C137.952 239.137 135.471 236.875 130.978 236.451C130.752 236.447 130.521 236.445 130.284 236.448C124.475 236.529 121.997 238.847 117.009 243.942C116.079 244.881 115.093 245.88 114.026 246.895C109.274 258.4 103.162 269.2 95.8896 279.096C96.2131 279.107 96.547 279.111 96.8926 279.106C102.702 279.025 105.179 276.709 110.168 271.613C115.574 266.153 122.898 258.645 136.733 257.972L136.732 257.861C137.942 257.839 139.105 257.871 140.224 257.951C153.451 258.453 160.748 265.575 166.235 270.87C170.776 275.218 173.258 277.478 177.76 277.898C177.981 277.903 178.208 277.906 178.439 277.902C184.249 277.821 186.726 275.504 191.715 270.408C197.283 264.784 204.885 256.99 219.538 256.726C234.192 256.461 241.993 264.08 247.782 269.666C252.934 274.6 255.436 276.847 261.245 276.766C267.054 276.685 269.532 274.368 274.521 269.272C280.064 263.673 287.624 255.923 302.151 255.594L302.15 255.515C307.251 255.423 311.521 256.287 315.165 257.687C322.097 260.297 326.779 264.853 330.589 268.529C333.904 271.704 336.123 273.766 338.831 274.812C340.279 275.34 341.876 275.583 343.857 275.556C349.667 275.475 352.144 273.158 357.133 268.062C362.701 262.439 370.303 254.643 384.957 254.379C399.61 254.114 407.412 261.735 413.201 267.32C418.353 272.254 420.855 274.501 426.664 274.42C432.473 274.339 434.951 272.022 439.939 266.927C445.307 261.505 452.565 254.067 466.209 253.302L466.204 252.944C469.267 252.889 472.031 253.179 474.539 253.722C484.96 255.461 491.183 261.529 496.007 266.184C499.808 269.824 502.168 272 505.478 272.859C506.227 272.955 507.031 272.998 507.911 272.985C513.72 272.904 516.198 270.586 521.187 265.491C526.755 259.867 534.357 252.072 549.01 251.808C563.663 251.543 571.465 259.163 577.254 264.749C582.406 269.683 584.908 271.93 590.717 271.849C596.526 271.768 599.004 269.451 603.992 264.355C609.536 258.756 617.096 251.006 631.623 250.677L631.622 250.598C636.722 250.506 640.993 251.37 644.637 252.77C651.569 255.38 656.251 259.937 660.061 263.613C663.376 266.788 665.595 268.849 668.303 269.895C669.751 270.423 671.348 270.666 673.33 270.639C679.139 270.557 681.616 268.241 686.604 263.146C692.173 257.522 699.775 249.727 714.429 249.462C729.082 249.197 736.884 256.817 742.673 262.402C747.825 267.336 750.327 269.584 756.136 269.503C761.945 269.422 764.423 267.105 769.411 262.01C774.818 256.549 782.142 249.042 795.977 248.368L795.976 248.258C797.185 248.236 798.347 248.268 799.466 248.348C812.694 248.849 819.991 255.972 825.479 261.267C830.019 265.614 832.501 267.875 837.002 268.296C837.224 268.3 837.451 268.302 837.683 268.299C843.492 268.218 845.969 265.9 850.958 260.805C856.526 255.181 864.128 247.387 878.781 247.122C893.435 246.857 901.237 254.477 907.025 260.062C912.177 264.996 914.679 267.244 920.488 267.163C926.297 267.082 928.775 264.764 933.764 259.669C939.307 254.07 946.867 246.319 961.395 245.99L961.394 245.911C966.496 245.819 970.769 246.684 974.414 248.085C981.343 250.696 986.024 255.252 989.832 258.927C993.147 262.102 995.366 264.163 998.074 265.208C999.523 265.736 1001.12 265.98 1003.1 265.952C1008.91 265.871 1011.39 263.554 1016.38 258.459C1021.94 252.835 1029.55 245.04 1044.2 244.775C1058.85 244.511 1066.66 252.131 1072.44 257.717C1077.6 262.65 1080.1 264.897 1085.91 264.816C1091.72 264.735 1094.19 262.419 1099.18 257.323C1104.55 251.902 1111.81 244.463 1125.45 243.698L1125.45 243.341C1128.51 243.285 1131.28 243.576 1133.79 244.12C1144.21 245.861 1150.43 251.926 1155.25 256.58C1159.05 260.219 1161.41 262.395 1164.72 263.255C1165.47 263.351 1166.27 263.394 1167.15 263.382C1172.96 263.301 1175.44 260.983 1180.43 255.888C1186 250.264 1193.6 242.47 1208.25 242.205C1222.91 241.94 1230.71 249.56 1236.5 255.146C1241.65 260.079 1244.15 262.327 1249.96 262.246C1255.77 262.165 1258.25 259.847 1263.24 254.752C1268.78 249.153 1276.34 241.402 1290.87 241.073L1290.87 240.994C1295.97 240.902 1300.24 241.767 1303.88 243.167C1310.81 245.778 1315.49 250.334 1319.3 254.01C1322.62 257.182 1324.83 259.242 1327.54 260.288C1328.99 260.818 1330.59 261.064 1332.57 261.036C1338.38 260.955 1340.86 258.637 1345.85 253.542C1351.42 247.918 1359.02 240.123 1373.67 239.858C1388.33 239.594 1396.13 247.214 1401.92 252.8C1407.07 257.733 1409.57 259.98 1415.38 259.899C1421.19 259.818 1423.67 257.501 1428.65 252.406C1434.06 246.945 1441.38 239.438 1455.22 238.765L1455.22 238.654C1456.43 238.632 1457.6 238.665 1458.72 238.745C1471.94 239.249 1479.24 246.369 1484.72 251.663C1489.26 256.011 1491.74 258.272 1496.25 258.692C1496.47 258.697 1496.69 258.699 1496.93 258.695C1502.73 258.614 1505.21 256.297 1510.2 251.202C1515.77 245.578 1523.37 237.783 1538.02 237.519C1552.68 237.254 1560.48 244.873 1566.27 250.459C1571.42 255.393 1573.92 257.641 1579.73 257.56C1585.54 257.478 1588.02 255.161 1593.01 250.065C1598.55 244.466 1606.11 236.717 1620.64 236.388L1620.64 236.309C1625.74 236.216 1630.01 237.08 1633.65 238.48C1640.58 241.091 1645.27 245.647 1649.08 249.323C1652.39 252.495 1654.61 254.555 1657.31 255.602C1658.76 256.132 1660.36 256.377 1662.34 256.35C1668.15 256.269 1670.63 253.951 1675.62 248.855C1681.19 243.231 1688.79 235.437 1703.44 235.172C1718.1 234.907 1725.9 242.528 1731.69 248.113C1736.84 253.047 1739.34 255.294 1745.15 255.213C1750.96 255.132 1753.44 252.815 1758.43 247.72C1763.79 242.298 1771.05 234.86 1784.7 234.095L1784.69 233.737C1787.76 233.682 1790.53 233.974 1793.04 234.519C1803.45 236.261 1809.67 242.324 1814.49 246.977C1818.29 250.616 1820.65 252.793 1823.96 253.652C1824.71 253.749 1825.52 253.791 1826.4 253.778C1832.21 253.697 1834.68 251.38 1839.67 246.285C1845.24 240.661 1852.84 232.866 1867.5 232.602C1882.15 232.337 1889.95 239.956 1895.74 245.542C1900.89 250.476 1903.39 252.724 1909.2 252.643C1915.01 252.561 1917.49 250.244 1922.48 245.148C1928.02 239.549 1935.58 231.8 1950.11 231.471L1950.11 231.392C1955.21 231.299 1959.48 232.163 1963.12 233.563C1970.06 236.174 1974.74 240.73 1978.55 244.406C1981.86 247.578 1984.08 249.638 1986.78 250.685C1988.23 251.215 1989.83 251.46 1991.82 251.433C1997.62 251.352 2000.1 249.034 2005.09 243.938C2010.66 238.314 2018.26 230.519 2032.92 230.255C2047.57 229.99 2055.37 237.611 2061.16 243.196C2066.31 248.13 2068.81 250.377 2074.62 250.296C2080.43 250.215 2082.91 247.898 2087.9 242.803C2093.3 237.342 2100.63 229.835 2114.46 229.161L2114.46 229.051C2115.67 229.029 2116.84 229.061 2117.96 229.142C2131.18 229.646 2138.48 236.767 2143.96 242.061C2148.51 246.41 2150.99 248.67 2155.49 249.089C2155.71 249.093 2155.94 249.095 2156.17 249.092C2161.98 249.011 2164.46 246.694 2169.44 241.599C2175.01 235.975 2182.61 228.18 2197.27 227.915C2211.92 227.65 2219.72 235.27 2225.51 240.855C2230.66 245.789 2233.17 248.037 2238.97 247.956C2244.78 247.875 2247.26 245.557 2252.25 240.462C2257.79 234.863 2265.35 227.113 2279.88 226.784L2279.88 226.705C2284.98 226.613 2289.25 227.477 2292.89 228.877C2299.83 231.488 2304.51 236.044 2308.32 239.72C2311.63 242.892 2313.85 244.952 2316.55 245.998C2318 246.528 2319.6 246.774 2321.59 246.746C2327.4 246.665 2329.87 244.347 2334.86 239.252C2340.43 233.628 2348.03 225.833 2362.69 225.568C2377.34 225.304 2385.14 232.924 2390.93 238.51C2396.08 243.443 2398.58 245.69 2404.39 245.609C2410.2 245.528 2412.68 243.211 2417.67 238.116C2423.24 232.492 2430.84 224.697 2445.49 224.433C2460.15 224.168 2467.95 231.788 2473.74 237.374C2478.89 242.308 2481.39 244.555 2487.2 244.474L2487.49 264.993C2472.84 265.258 2465.04 257.637 2459.25 252.052C2454.1 247.118 2451.59 244.871 2445.79 244.952C2439.98 245.033 2437.5 247.35 2432.51 252.445C2426.94 258.069 2419.34 265.864 2404.69 266.129C2390.03 266.394 2382.23 258.774 2376.44 253.188C2371.29 248.255 2368.79 246.007 2362.98 246.088C2357.17 246.169 2354.69 248.486 2349.7 253.581C2344.16 259.18 2336.6 266.93 2322.07 267.259L2322.07 267.339C2316.97 267.431 2312.69 266.565 2309.04 265.161C2302.12 262.549 2297.44 257.997 2293.64 254.324C2290.32 251.151 2288.1 249.091 2285.4 248.045C2283.95 247.515 2282.35 247.27 2280.37 247.298C2274.56 247.379 2272.08 249.697 2267.09 254.792C2261.52 260.416 2253.92 268.21 2239.27 268.475C2224.61 268.739 2216.81 261.12 2211.02 255.534C2205.87 250.601 2203.37 248.353 2197.56 248.434C2191.75 248.515 2189.27 250.832 2184.29 255.928C2178.88 261.389 2171.55 268.895 2157.72 269.568L2157.72 269.68C2156.51 269.702 2155.35 269.668 2154.23 269.588C2141 269.086 2133.71 261.965 2128.22 256.67C2123.68 252.322 2121.19 250.061 2116.69 249.641C2116.47 249.636 2116.25 249.635 2116.01 249.639C2110.2 249.72 2107.73 252.037 2102.74 257.132C2097.17 262.756 2089.57 270.551 2074.92 270.815C2060.26 271.08 2052.46 263.461 2046.67 257.875C2041.52 252.941 2039.02 250.693 2033.21 250.774C2027.4 250.856 2024.92 253.173 2019.93 258.268C2014.39 263.867 2006.83 271.616 1992.3 271.945L1992.3 272.025C1987.2 272.118 1982.93 271.253 1979.29 269.853C1972.36 267.242 1967.67 262.686 1963.86 259.011C1960.55 255.838 1958.33 253.778 1955.63 252.731C1954.18 252.201 1952.58 251.957 1950.6 251.984C1944.79 252.065 1942.31 254.382 1937.32 259.478C1931.75 265.102 1924.15 272.896 1909.5 273.161C1894.84 273.426 1887.04 265.806 1881.25 260.221C1876.1 255.287 1873.6 253.039 1867.79 253.12C1861.98 253.201 1859.5 255.519 1854.51 260.614C1849.15 266.036 1841.89 273.473 1828.24 274.238L1828.25 274.597C1825.18 274.652 1822.41 274.36 1819.9 273.814C1809.49 272.071 1803.27 266.009 1798.45 261.356C1794.65 257.717 1792.29 255.541 1788.98 254.682C1788.23 254.585 1787.42 254.543 1786.54 254.556C1780.73 254.637 1778.26 256.954 1773.27 262.049C1767.7 267.673 1760.1 275.468 1745.44 275.732C1730.79 275.997 1722.99 268.377 1717.2 262.791C1712.05 257.857 1709.54 255.61 1703.74 255.691C1697.93 255.773 1695.45 258.09 1690.46 263.185C1684.92 268.784 1677.36 276.533 1662.83 276.862L1662.83 276.942C1657.74 277.034 1653.47 276.173 1649.83 274.775C1642.89 272.165 1638.2 267.606 1634.39 263.928C1631.08 260.755 1628.86 258.695 1626.16 257.648C1624.71 257.118 1623.11 256.874 1621.12 256.901C1615.31 256.982 1612.84 259.299 1607.85 264.395C1602.28 270.018 1594.68 277.813 1580.02 278.078C1565.37 278.343 1557.57 270.723 1551.78 265.138C1546.63 260.204 1544.13 257.956 1538.32 258.037C1532.51 258.118 1530.03 260.435 1525.04 265.53C1519.64 270.991 1512.31 278.499 1498.48 279.172L1498.48 279.283C1497.27 279.305 1496.11 279.271 1494.99 279.191C1481.76 278.69 1474.46 271.568 1468.97 266.273C1464.43 261.925 1461.95 259.664 1457.45 259.244C1457.23 259.24 1457 259.239 1456.77 259.242C1450.96 259.323 1448.48 261.64 1443.5 266.735C1437.93 272.359 1430.33 280.154 1415.67 280.419C1401.02 280.684 1393.22 273.064 1387.43 267.479C1382.28 262.545 1379.77 260.297 1373.96 260.378C1368.16 260.459 1365.68 262.776 1360.69 267.871C1355.15 273.47 1347.59 281.22 1333.06 281.549L1333.06 281.629C1327.96 281.721 1323.69 280.856 1320.04 279.456C1313.11 276.845 1308.43 272.29 1304.62 268.614C1301.3 265.434 1299.08 263.371 1296.36 262.327C1294.92 261.802 1293.33 261.56 1291.35 261.588C1285.54 261.669 1283.07 263.986 1278.08 269.081C1272.51 274.705 1264.91 282.5 1250.25 282.765C1235.6 283.029 1227.8 275.41 1222.01 269.824C1216.86 264.891 1214.35 262.643 1208.55 262.724C1202.74 262.805 1200.26 265.122 1195.27 270.217C1189.9 275.639 1182.64 283.077 1169 283.842L1169.01 284.199C1165.94 284.255 1163.17 283.964 1160.66 283.42C1150.25 281.679 1144.03 275.614 1139.2 270.96C1135.4 267.321 1133.04 265.145 1129.74 264.285C1128.99 264.189 1128.18 264.147 1127.3 264.159C1121.49 264.24 1119.01 266.557 1114.02 271.652C1108.46 277.276 1100.85 285.071 1086.2 285.336C1071.55 285.601 1063.74 277.98 1057.96 272.395C1052.8 267.461 1050.3 265.214 1044.49 265.295C1038.68 265.376 1036.21 267.693 1031.22 272.788C1025.67 278.387 1018.11 286.137 1003.59 286.466L1003.59 286.546C998.494 286.638 994.227 285.776 990.586 284.379C983.647 281.769 978.961 277.209 975.149 273.531C971.833 270.356 969.615 268.293 966.906 267.248C965.458 266.72 963.861 266.477 961.88 266.505C956.071 266.586 953.594 268.903 948.605 273.998C943.037 279.622 935.435 287.417 920.781 287.682C906.128 287.946 898.326 280.327 892.537 274.741C887.385 269.807 884.883 267.56 879.074 267.641C873.265 267.722 870.787 270.039 865.799 275.134C860.392 280.595 853.068 288.102 839.232 288.775L839.234 288.886C838.025 288.908 836.862 288.875 835.743 288.795C822.516 288.293 815.219 281.172 809.731 275.877C805.191 271.529 802.708 269.268 798.206 268.848C797.985 268.843 797.759 268.841 797.527 268.845C791.718 268.926 789.24 271.244 784.252 276.339C778.684 281.963 771.082 289.758 756.429 290.022C741.775 290.287 733.973 282.667 728.185 277.081C723.033 272.147 720.531 269.9 714.722 269.981C708.913 270.063 706.435 272.379 701.446 277.475C695.903 283.074 688.343 290.823 673.814 291.152L673.816 291.232C668.722 291.324 664.456 290.463 660.814 289.065C653.875 286.455 649.19 281.895 645.378 278.217C642.062 275.041 639.844 272.98 637.135 271.935C635.687 271.406 634.09 271.164 632.109 271.191C626.3 271.272 623.822 273.589 618.834 278.685C613.266 284.309 605.663 292.104 591.01 292.368C576.356 292.633 568.554 285.013 562.766 279.428C557.614 274.494 555.112 272.246 549.303 272.327C543.494 272.408 541.016 274.725 536.027 279.82C530.659 285.242 523.401 292.679 509.757 293.444L509.763 293.803C506.701 293.858 503.938 293.567 501.431 293.024C491.008 291.285 484.785 285.219 479.96 280.563C476.16 276.924 473.801 274.748 470.493 273.889C469.743 273.792 468.937 273.749 468.056 273.762C462.247 273.843 459.77 276.161 454.781 281.256C449.213 286.88 441.611 294.675 426.957 294.939C412.303 295.204 404.502 287.584 398.713 281.998C393.561 277.065 391.059 274.817 385.25 274.898C379.441 274.98 376.963 277.296 371.975 282.392C366.431 287.991 358.871 295.74 344.343 296.069L344.345 296.149C339.25 296.241 334.984 295.38 331.343 293.982C324.403 291.372 319.718 286.812 315.906 283.134C312.59 279.958 310.372 277.897 307.663 276.852C306.215 276.323 304.618 276.081 302.637 276.108C296.828 276.19 294.351 278.506 289.362 283.602C283.794 289.226 276.192 297.021 261.538 297.285C246.885 297.55 239.083 289.93 233.294 284.345C228.142 279.411 225.64 277.163 219.831 277.244C214.022 277.325 211.544 279.642 206.556 284.737C201.149 290.198 193.825 297.705 179.989 298.378L179.991 298.489C178.782 298.511 177.619 298.478 176.5 298.398C163.273 297.897 155.976 290.775 150.488 285.48C145.952 281.137 143.471 278.875 138.978 278.451C138.752 278.447 138.521 278.445 138.284 278.448C132.475 278.529 129.997 280.847 125.009 285.942C119.441 291.566 111.839 299.361 97.1855 299.626C90.6798 299.743 85.525 298.305 81.2969 296.183C53.5141 324.281 14.9461 341.693 -27.6904 341.693C-69.0983 341.693 -106.669 325.271 -134.25 298.586C-138.591 301.113 -144.001 302.98 -151.039 303.107C-165.692 303.372 -173.494 295.753 -179.283 290.167C-184.435 285.233 -186.937 282.985 -192.746 283.066L-193.039 262.548C-178.386 262.283 -170.584 269.903 -164.795 275.488C-159.643 280.422 -157.141 282.67 -151.332 282.589C-150.409 282.576 -149.57 282.505 -148.791 282.377C-153.999 275.674 -158.663 268.527 -162.716 261.002C-175.036 260.058 -181.999 253.266 -187.283 248.167C-192.435 243.233 -194.937 240.985 -200.746 241.066L-201.039 220.548C-188.005 220.313 -180.393 226.316 -174.796 231.576C-176.221 226.709 -177.411 221.741 -178.354 216.687C-181.952 214.327 -184.803 211.564 -187.283 209.171C-192.435 204.237 -194.937 201.989 -200.746 202.07L-201.039 181.552C-192.206 181.392 -185.864 184.099 -180.95 187.497C-180.449 103.279 -112.026 35.1621 -27.6904 35.1621ZM-27.1338 280.795C-30.8758 280.847 -33.2356 281.827 -35.7744 283.88C-33.1092 284.103 -30.4132 284.219 -27.6904 284.219C-24.5419 284.219 -21.429 284.064 -18.3584 283.768C-19.6131 282.781 -20.8036 282.042 -22.1084 281.538C-23.5564 281.01 -25.1528 280.767 -27.1338 280.795ZM47.4785 237.585C41.6694 237.666 39.1916 239.983 34.2031 245.078C28.6594 250.677 21.0993 258.427 6.57129 258.756L6.57324 258.836C1.47566 258.928 -2.79259 258.065 -6.43555 256.666C-13.3711 254.055 -18.0546 249.497 -21.8652 245.82C-25.181 242.645 -27.3996 240.583 -30.1084 239.538C-31.5564 239.01 -33.1528 238.767 -35.1338 238.795C-40.9429 238.876 -43.4207 241.193 -48.4092 246.288C-53.9773 251.912 -61.5798 259.707 -76.2334 259.972C-87.6325 260.177 -94.8852 255.612 -100.27 250.944C-89.602 263.318 -75.8243 272.933 -60.1504 278.577C-58.6659 277.415 -57.1378 275.886 -55.251 273.959C-49.7074 268.36 -42.1475 260.609 -27.6201 260.28L-27.6211 260.201C-22.5208 260.109 -18.2506 260.973 -14.6064 262.373C-7.6741 264.984 -2.9922 269.54 0.817383 273.216C2.96394 275.271 4.65121 276.86 6.30859 278.009C26.0932 270.496 42.7416 256.617 53.7549 238.873C51.9656 237.969 50.0452 237.549 47.4785 237.585ZM47.4785 198.589C41.6694 198.67 39.1916 200.987 34.2031 206.082C28.6594 211.681 21.0993 219.431 6.57129 219.76L6.57324 219.84C1.47566 219.932 -2.79259 219.069 -6.43555 217.67C-13.3711 215.059 -18.0546 210.501 -21.8652 206.824C-25.181 203.649 -27.3996 201.587 -30.1084 200.542C-31.5564 200.014 -33.1528 199.771 -35.1338 199.799C-40.9429 199.88 -43.4207 202.197 -48.4092 207.292C-53.9773 212.916 -61.5798 220.711 -76.2334 220.976C-90.8867 221.24 -98.6888 213.621 -104.478 208.035C-109.629 203.101 -112.131 200.853 -117.94 200.935C-119.748 200.96 -121.234 201.201 -122.572 201.676C-121.726 207.792 -120.302 213.724 -118.357 219.414C-118.316 219.413 -118.275 219.412 -118.233 219.411C-103.58 219.147 -95.7781 226.767 -89.9893 232.353C-84.8374 237.286 -82.3352 239.533 -76.5264 239.452C-70.7173 239.371 -68.2394 237.054 -63.251 231.959C-57.7074 226.36 -50.1475 218.609 -35.6201 218.28L-35.6211 218.201C-30.5208 218.109 -26.2506 218.973 -22.6064 220.373C-15.6741 222.984 -10.9922 227.54 -7.18262 231.216C-3.86708 234.391 -1.64871 236.453 1.05957 237.498C2.50804 238.027 4.10521 238.27 6.08691 238.242C11.8957 238.161 14.373 235.844 19.3613 230.749C24.9294 225.125 32.5319 217.33 47.1855 217.065C53.4839 216.952 58.516 218.296 62.667 220.308C63.8467 216.964 64.846 213.535 65.6533 210.033C63.9129 208.56 62.3659 207.063 60.9414 205.688C55.7896 200.755 53.2874 198.508 47.4785 198.589ZM-27.6904 92.6367C-78.0322 92.6367 -119.303 131.47 -123.183 180.815C-121.627 180.586 -119.981 180.447 -118.233 180.415C-103.58 180.15 -95.7781 187.771 -89.9893 193.356C-84.8374 198.29 -82.3352 200.537 -76.5264 200.456C-70.7173 200.375 -68.2394 198.058 -63.251 192.963C-57.7074 187.364 -50.1475 179.613 -35.6201 179.284L-35.6211 179.205C-30.5208 179.113 -26.2506 179.977 -22.6064 181.377C-15.6741 183.988 -10.9922 188.544 -7.18262 192.22C-3.86708 195.395 -1.64871 197.457 1.05957 198.502C2.50804 199.03 4.10521 199.274 6.08691 199.246C11.8957 199.165 14.373 196.848 19.3613 191.753C24.9294 186.129 32.5319 178.334 47.1855 178.069C56.4731 177.902 63.0068 180.903 68.0215 184.545C65.9842 133.441 23.913 92.6367 -27.6904 92.6367Z" fill="#1AA1E0"/>
</g>
</svg>
