<svg width="1920" height="959" viewBox="0 0 1920 959" fill="none" xmlns="http://www.w3.org/2000/svg">
<mask id="mask0_6005_10958" style="mask-type:alpha" maskUnits="userSpaceOnUse" x="0" y="0" width="1920" height="959">
<rect width="1920" height="959" fill="white"/>
</mask>
<g mask="url(#mask0_6005_10958)">
<path fill-rule="evenodd" clip-rule="evenodd" d="M-144 309C-132.733 309 -121.466 309 -110.199 309C99.5896 325.51 266.154 418.26 389.491 587.25C405.744 611.1 420.578 635.884 433.995 661.6C447.569 663.399 459.587 659.831 470.05 650.898C497.937 624.499 528.734 620.744 562.439 639.633C569.528 644.84 576.288 650.473 582.719 656.53C607.488 668.181 628.895 663.675 646.941 643.012C676.572 622.831 706.241 622.831 735.95 643.012C743.865 652.226 753.629 658.61 765.244 662.163C775.708 663.649 785.848 662.522 795.665 658.783C805.316 652.891 814.33 646.131 822.706 638.506C848.956 623.835 874.87 624.399 900.448 640.196C901.495 641.535 901.87 643.037 901.575 644.702C901.575 650.71 901.575 656.718 901.575 662.726C901.76 666.5 901.572 670.255 901.011 673.991C872.854 646.406 845.25 646.97 818.199 675.681C789.984 692.888 761.817 692.888 733.697 675.681C727.208 669.19 720.073 663.558 712.29 658.783C688.912 649.325 669.006 654.206 652.575 673.428C625.358 691.873 597.191 693.374 568.072 677.934C562.152 674.272 556.893 669.766 552.299 664.416C533.991 651.186 515.212 650.435 495.964 662.163C489.102 669.027 481.592 675.036 473.43 680.187C464.859 683.73 456.222 686.921 447.516 689.763C451.54 697.804 454.92 706.064 457.656 714.546C460.491 714.259 463.121 713.319 465.543 711.73C495.671 681.19 529.095 677.059 565.819 699.338C593.198 727.029 620.615 727.029 648.068 699.338C673.782 682.266 700.448 680.763 728.063 694.832C736.225 699.983 743.736 705.992 750.597 712.856C769.039 722.935 787.066 722.184 804.679 710.603C833.653 681.717 865.952 677.399 901.575 697.648C901.575 698.023 901.575 698.4 901.575 698.775C901.575 704.782 901.575 710.791 901.575 716.799C901.575 721.68 901.575 726.562 901.575 731.444C896.968 728.534 892.836 724.966 889.181 720.742C871.581 709.105 853.554 708.353 835.1 718.489C826.283 726.93 816.518 734.064 805.805 739.893C772.937 752.622 744.394 746.238 720.176 720.742C702.565 709.134 684.538 708.384 666.095 718.489C641.923 744.192 613.005 751.703 579.339 741.019C567.569 735.257 557.053 727.748 547.792 718.489C523.768 705.721 502.736 709.475 484.697 729.754C479.444 733.884 473.811 737.451 467.796 740.456C470.215 746.968 472.844 753.352 475.683 759.607C502.792 739.386 531.334 737.321 561.312 753.411C567.233 757.073 572.491 761.579 577.086 766.929C596.279 780.796 615.809 781.173 635.674 768.055C665.083 738.885 697.757 734.756 733.697 755.664C741.93 764.659 751.694 771.418 762.991 775.941C778.622 779.274 792.892 776.27 805.805 766.929C825.517 745.851 849.553 738.341 877.914 744.399C886.4 746.765 894.287 750.333 901.575 755.101C901.575 760.358 901.575 765.614 901.575 770.872C901.575 776.504 901.575 782.137 901.575 787.77C901.575 788.145 901.575 788.521 901.575 788.896C894.941 782.831 887.805 777.385 880.167 772.562C866.075 766.99 852.178 767.365 838.48 773.688C831.767 778.52 825.383 783.777 819.326 789.459C791.983 807.237 764.191 807.987 735.95 791.712C729.519 785.655 722.759 780.022 715.67 774.815C701.334 767.559 686.687 766.807 671.729 772.562C661.906 780.506 651.766 788.016 641.308 795.092C613.677 808.085 587.387 805.832 562.439 788.333C542.199 766.117 519.29 762.737 493.71 778.194C490.028 781.682 486.648 785.249 483.57 788.896C485.084 795.328 486.774 801.712 488.64 808.047C523.59 792.874 554.199 799.07 580.466 826.634C605.146 839.499 626.929 835.743 645.814 815.369C669.61 798.523 695.149 795.52 722.43 806.357C732.652 811.471 741.666 818.23 749.471 826.634C767.075 836.323 784.727 836.323 802.425 826.634C831.24 797.027 863.914 791.958 900.448 811.426C901.199 815.343 901.951 819.099 902.701 822.692C906.981 823.799 911.487 824.175 916.222 823.818C923.891 831.116 933.092 834.495 943.826 833.957C948.973 833.983 954.043 833.419 959.036 832.267C965.795 829.639 972.179 826.447 978.19 822.692C988.33 824.193 998.471 824.193 1008.61 822.692C1011.24 822.692 1013.87 822.692 1016.5 822.692C1025.88 822.692 1035.28 822.692 1044.67 822.692C1047.67 822.692 1050.67 822.692 1053.68 822.692C1063.06 822.692 1072.46 822.692 1081.85 822.692C1086.97 826.57 1092.61 829.575 1098.75 831.704C1099.13 832.648 1099.88 833.024 1101 832.83C1101 841.467 1101 850.103 1101 858.74C1092.21 857.626 1083.95 854.81 1076.21 850.291C1069.5 845.46 1063.12 840.202 1057.06 834.52C1039.29 823.647 1021.26 823.271 1002.98 833.393C975.227 862.356 943.303 867.989 907.208 850.291C900.119 845.083 893.359 839.451 886.928 833.393C861.469 820.13 839.31 824.261 820.452 845.785C797.608 861.026 773.195 864.03 747.217 854.797C736.253 849.314 726.488 842.18 717.923 833.393C699.618 823.274 681.59 823.65 663.842 834.52C641.678 857.618 615.013 865.127 583.846 857.05C570.379 851.844 558.735 843.958 548.919 833.393C532.204 824.094 515.304 823.719 498.217 832.267C496.088 833.481 494.961 835.359 494.837 837.899C496.152 845.597 497.466 853.296 498.781 860.993C530.008 851.996 556.861 859.318 579.339 882.96C604.825 897.311 627.359 893.555 646.941 871.695C676.572 851.513 706.241 851.513 735.95 871.695C755.461 893.64 777.995 897.394 803.552 882.96C834.339 852.076 868.14 848.321 904.955 871.695C922.869 892.739 944.276 897.245 969.177 885.213C974.435 880.707 979.692 876.201 984.95 871.695C1021.69 848.651 1055.49 852.406 1086.35 882.96C1090.95 886.01 1095.83 888.451 1101 890.282C1101 898.919 1101 907.555 1101 916.192C1093.88 915.385 1087.12 913.319 1080.72 909.997C1070.26 902.921 1060.12 895.41 1050.3 887.466C1035.45 880.35 1020.8 880.726 1006.36 888.593C999.642 893.424 993.265 898.682 987.204 904.364C958.954 921.608 930.786 921.608 902.701 904.364C894.23 895.062 884.089 888.303 872.281 884.087C856.943 880.504 843.046 883.509 830.593 893.099C808.079 915.906 781.415 922.665 750.597 913.376C744.785 910.659 739.151 907.654 733.697 904.364C725.225 895.062 715.085 888.303 703.276 884.087C682.81 880.018 665.909 886.026 652.575 902.111C625.342 920.555 597.175 922.058 568.072 906.617C560.131 899.803 551.869 893.419 543.285 887.466C530.177 881.168 517.032 880.98 503.851 886.903C503.294 896.627 503.294 906.389 503.851 916.192C532.936 910.178 557.724 917.877 578.213 939.286C597.333 951.957 616.487 951.957 635.674 939.286C662.62 911.97 693.417 906.713 728.063 923.515C736.225 928.666 743.736 934.675 750.597 941.539C769.039 951.618 787.066 950.867 804.679 939.286C834.738 909.728 867.787 905.974 903.828 928.021C931.207 955.712 958.624 955.712 986.077 928.021C1014.97 909.384 1043.89 909.384 1072.83 928.021C1078.89 933.703 1085.27 938.96 1091.99 943.792C1094.63 944.746 1097.27 945.685 1099.87 946.608C1099.87 950.363 1099.87 954.119 1099.87 957.873C1089.36 957.873 1078.84 957.873 1068.33 957.873C1064.49 955.747 1061.11 952.93 1058.19 949.425C1032.95 934.185 1010.41 937.378 990.584 959C986.449 959 982.322 959 978.19 959C964.67 959 951.149 959 937.629 959C924.86 959 912.09 959 899.321 959C879.361 937.837 856.827 934.646 831.719 949.425C828.789 952.93 825.409 955.747 821.579 957.873C791.158 957.873 760.738 957.873 730.317 957.873C726.465 955.72 723.084 952.903 720.176 949.425C694.942 934.185 672.408 937.378 652.575 959C627.412 959 602.248 959 577.086 959C571.828 959 566.57 959 561.312 959C546.189 941.814 527.786 936.556 506.104 943.229C504.994 947.886 504.619 952.768 504.977 957.873C458.031 957.873 411.086 957.873 364.14 957.873C317.194 957.873 270.249 957.873 223.303 957.873C219.451 955.72 216.071 952.903 213.163 949.425C188.195 934.007 166.038 937.199 146.688 959C142.932 959 139.176 959 135.421 959C113.262 959 91.1044 959 68.9457 959C64.0637 959 59.1806 959 54.2986 959C36.8709 939.631 16.214 935.312 -7.66968 946.045C-13.4395 949.374 -18.3226 953.693 -22.3167 959C-27.575 959 -32.8325 959 -38.0905 959C-63.629 959 -89.1674 959 -114.706 959C-122.322 949.558 -132.087 943.549 -144 940.976C-144 932.339 -144 923.703 -144 915.066C-132.199 916.433 -121.308 920.376 -111.326 926.894C-105.692 931.775 -100.059 936.658 -94.4253 941.539C-79.9804 949.92 -64.9578 951.047 -49.3575 944.919C-39.7065 939.026 -30.6926 932.267 -22.3167 924.641C14.0846 906.507 46.3836 912.139 74.5792 941.539C99.4736 953.905 121.256 949.774 139.928 929.147C168.26 909.659 197.178 908.907 226.683 926.894C232.317 931.775 237.95 936.658 243.584 941.539C247.774 944.202 252.281 945.892 257.104 946.608C257.163 936.449 256.786 926.311 255.977 916.192C238.883 913.092 224.612 905.018 213.163 891.972C194.976 879.872 176.572 879.496 157.955 890.846C130.45 918.951 98.9023 924.584 63.3122 907.743C56.3053 903.294 49.9203 898.036 44.1584 891.972C25.9712 879.872 7.56776 879.496 -11.0498 890.846C-38.5551 918.951 -70.1027 924.584 -105.692 907.743C-113.615 902.276 -121.126 896.269 -128.226 889.719C-133.217 886.869 -138.475 884.803 -144 883.523C-144 874.886 -144 866.25 -144 857.614C-131.628 859.107 -120.361 863.425 -110.199 870.568C-104.142 876.251 -97.7579 881.508 -91.0452 886.34C-74.524 893.686 -58.3748 892.934 -42.5973 884.087C-12.3241 852.881 21.4768 848.375 58.8054 870.568C64.8625 876.251 71.2464 881.508 77.9593 886.34C94.462 893.626 110.612 892.876 126.407 884.087C156.647 852.888 190.448 848.382 227.81 870.568C234.516 877.466 242.028 883.286 250.344 888.029C249.633 877.411 247.568 866.897 244.147 856.487C231.538 851.018 220.458 843.32 210.909 833.393C185.492 820.143 163.335 824.274 144.434 845.785C121.622 861.079 97.2111 864.082 71.1991 854.797C61.2921 850.151 52.6548 843.769 45.2851 835.646C27.9339 824.293 9.90678 823.167 -8.79639 832.267C-18.0578 841.526 -28.5733 849.035 -40.3439 854.797C-61.2955 862.151 -81.9517 861.401 -102.312 852.544C-112.341 846.274 -121.731 839.14 -130.48 831.14C-134.769 829.021 -139.276 827.708 -144 827.198C-144 818.185 -144 809.173 -144 800.161C-125.167 803.003 -109.394 811.452 -96.6787 825.508C-81.3013 834.915 -65.1521 836.417 -48.2308 830.014C-39.6466 824.061 -31.3842 817.677 -23.4434 810.863C-1.86269 798.758 20.6712 796.88 44.1584 805.23C55.929 810.993 66.4444 818.502 75.7059 827.761C90.3394 835.115 105.362 835.866 120.774 830.014C130.596 822.07 140.737 814.559 151.195 807.484C171.526 798.604 192.182 797.854 213.163 805.23C219.579 807.904 225.401 811.471 230.627 815.932C227.04 804.449 222.534 793.184 217.106 782.137C203.768 769.777 188.183 765.834 170.348 770.309C161.591 773.812 154.079 779.068 147.814 786.08C119.165 807.467 89.4955 808.968 58.8054 790.586C50.3338 781.284 40.1935 774.525 28.3846 770.309C14.7651 766.682 1.99512 768.56 -9.92308 775.941C-33.8263 801.067 -62.3692 808.577 -95.552 798.471C-99.3077 796.594 -103.063 794.717 -106.819 792.839C-114.33 786.831 -121.842 780.822 -129.353 774.815C-133.979 772.334 -138.862 770.644 -144 769.745C-144 761.108 -144 752.472 -144 743.835C-135.737 744.397 -127.85 746.462 -120.339 750.031C-109.882 757.107 -99.7414 764.617 -89.9186 772.562C-74.1451 779.727 -58.7469 778.977 -43.724 770.309C-34.4629 761.05 -23.9471 753.54 -12.1765 747.778C8.38687 740.559 28.6674 741.311 48.6652 750.031C59.5569 757.917 70.4476 765.802 81.3394 773.688C104.917 781.218 124.822 775.585 141.054 756.79C156.909 745.688 174.56 740.619 194.009 741.582C187.709 731.161 180.573 721.397 172.602 712.293C160.935 716.999 150.795 723.947 142.181 733.133C114.927 749.816 87.5114 750.191 59.9321 734.26C52.4204 728.252 44.9099 722.243 37.3982 716.236C22.1314 709.201 7.10919 709.576 -7.66968 717.362C-14.3825 722.194 -20.7664 727.451 -26.8235 733.133C-63.4601 754.31 -96.5098 749.804 -125.973 719.615C-131.577 716.183 -137.586 713.742 -144 712.293C-144 703.656 -144 695.02 -144 686.383C-132.187 687.754 -121.295 691.697 -111.326 698.211C-102.215 708.073 -91.3239 715.207 -78.6516 719.615C-68.6023 720.923 -58.8377 719.797 -49.3575 716.236C-39.7065 710.343 -30.6926 703.584 -22.3167 695.958C14.0846 677.824 46.3836 683.456 74.5792 712.856C90.8521 722.214 107.377 722.589 124.154 713.983C131.243 708.775 138.003 703.142 144.434 697.085C148.371 695.306 152.126 693.24 155.701 690.889C151.211 685.837 146.518 680.955 141.618 676.244C116.029 691.571 89.927 692.51 63.3122 679.061C55.1504 673.909 47.6399 667.9 40.7783 661.036C23.2446 650.939 5.96898 651.316 -11.0498 662.163C-38.5551 690.268 -70.1027 695.901 -105.692 679.061C-113.615 673.594 -121.126 667.586 -128.226 661.036C-133.217 658.186 -138.475 656.12 -144 654.841C-144 646.204 -144 637.568 -144 628.931C-135.341 629.969 -127.078 632.41 -119.213 636.253C-109.216 642.567 -99.8272 649.703 -91.0452 657.657C-74.5347 664.969 -58.3855 664.218 -42.5973 655.404C-12.3241 624.198 21.4768 619.692 58.8054 641.886C66.2788 650.491 75.2924 656.875 85.8461 661.036C98.3052 664.108 110.324 662.982 121.9 657.657C45.8822 591.814 -42.7513 558.207 -144 556.834C-144 474.223 -144 391.611 -144 309Z" fill="#F4F8FB"/>
<circle cx="-166.5" cy="490.5" r="248.5" stroke="#1AA1E0" stroke-width="100"/>
<g opacity="0.5">
<path d="M157.12 22.8909C144.153 22.9252 137.354 16.8904 132.309 12.4658C127.818 8.55703 125.636 6.7746 120.495 6.76959C115.355 6.76458 113.131 8.5429 108.649 12.4585C103.646 16.7797 96.8144 22.7701 83.8468 22.8044C70.8792 22.8388 64.0808 16.8039 59.0356 12.3793C54.5448 8.47063 52.362 6.68807 47.2215 6.68315C42.0811 6.67814 39.8579 8.45629 35.3752 12.3719C30.3726 16.6931 23.5408 22.6837 10.5732 22.718C-2.39437 22.7524 -9.19278 16.7173 -14.238 12.2927C-18.7288 8.3841 -20.9116 6.60158 -26.052 6.59657L-26.0316 -9.4112C-13.0641 -9.44551 -6.26572 -3.41053 -1.22046 1.01408C3.27027 4.92271 5.45313 6.70527 10.5936 6.71019C15.734 6.7152 17.9572 4.93697 22.44 1.02131C27.4426 -3.29984 34.2743 -9.29039 47.2419 -9.3247C60.2095 -9.35902 67.008 -3.32409 72.0532 1.10052C76.5439 5.00915 78.7267 6.79167 83.8672 6.79659C89.0076 6.8016 91.2309 5.02337 95.7136 1.10771C100.716 -3.21344 107.548 -9.20386 120.515 -9.23818C133.483 -9.27249 140.282 -3.23765 145.327 1.18696C149.818 5.09568 152 6.87811 157.141 6.88313L157.12 22.8909Z" fill="#F4F8FB"/>
<path d="M303.497 23.0037C290.53 23.0381 283.731 17.0032 278.686 12.5786C274.195 8.66988 272.012 6.88745 266.872 6.88243C261.731 6.87751 259.508 8.65575 255.026 12.5713C250.023 16.8926 243.191 22.883 230.224 22.9173C217.256 22.9516 210.458 16.9167 205.412 12.4922C200.922 8.58348 198.739 6.80092 193.598 6.796C188.458 6.79099 186.235 8.56913 181.752 12.4848C176.749 16.8059 169.918 22.7966 156.95 22.8309C143.982 22.8652 137.184 16.8302 132.139 12.4056C127.648 8.49695 125.465 6.71443 120.325 6.70951L120.345 -9.29835C133.313 -9.33267 140.111 -3.29768 145.156 1.12692C149.647 5.03556 151.83 6.81812 156.97 6.82304C162.111 6.82805 164.334 5.04981 168.817 1.13416C173.819 -3.18699 180.651 -9.17754 193.619 -9.21185C206.586 -9.24609 213.385 -3.21124 218.43 1.21336C222.921 5.122 225.104 6.90452 230.244 6.90944C235.384 6.91445 237.608 5.13622 242.09 1.22056C247.093 -3.10059 253.925 -9.09101 266.892 -9.12533C279.86 -9.15965 286.658 -3.12481 291.704 1.29981C296.194 5.20853 298.377 6.99096 303.518 6.99597L303.497 23.0037Z" fill="#F4F8FB"/>
<path d="M448.931 23.1083C435.964 23.1427 429.165 17.1078 424.12 12.6832C419.629 8.77449 417.446 6.99205 412.306 6.98703C407.166 6.98211 404.942 8.76034 400.46 12.676C395.457 16.9972 388.625 22.9876 375.658 23.0219C362.69 23.0562 355.892 17.0214 350.846 12.5968C346.356 8.68808 344.173 6.9056 339.032 6.90059C333.892 6.89567 331.669 8.67383 327.186 12.5894C322.183 16.9106 315.352 22.9012 302.384 22.9355C289.416 22.9698 282.618 16.9348 277.573 12.5102C273.082 8.60155 270.899 6.81903 265.759 6.8141L265.779 -9.19375C278.747 -9.22807 285.545 -3.19308 290.59 1.23152C295.081 5.14016 297.264 6.92272 302.404 6.92773C307.545 6.93266 309.768 5.15441 314.251 1.23876C319.253 -3.08239 326.085 -9.07286 339.053 -9.10717C352.02 -9.14149 358.819 -3.10665 363.864 1.31796C368.355 5.22669 370.538 7.00912 375.678 7.01413C380.818 7.01905 383.042 5.24082 387.524 1.32517C392.527 -2.99599 399.359 -8.98641 412.326 -9.02073C425.294 -9.05505 432.092 -3.02021 437.138 1.40441C441.628 5.31314 443.811 7.09556 448.952 7.10057L448.931 23.1083Z" fill="#F4F8FB"/>
<path d="M595.308 23.2212C582.341 23.2555 575.542 17.2207 570.497 12.796C566.006 8.88733 563.823 7.10489 558.683 7.09988C553.542 7.09496 551.319 8.87321 546.836 12.7888C541.834 17.1099 535.002 23.1004 522.034 23.1347C509.067 23.1691 502.268 17.1342 497.223 12.7096C492.732 8.80093 490.55 7.01838 485.409 7.01344C480.269 7.00843 478.046 8.78668 473.563 12.7022C468.56 17.0235 461.728 23.014 448.761 23.0483C435.793 23.0827 428.995 17.0476 423.95 12.6231C419.459 8.71439 417.276 6.93188 412.136 6.92696L412.156 -9.08081C425.124 -9.11512 431.922 -3.08023 436.967 1.34437C441.458 5.2531 443.641 7.03556 448.781 7.04059C453.922 7.04551 456.145 5.26726 460.628 1.35161C465.63 -2.96955 472.462 -8.9601 485.43 -8.99442C498.397 -9.02873 505.196 -2.9938 510.241 1.43081C514.732 5.33954 516.914 7.12196 522.055 7.12697C527.195 7.1319 529.419 5.35366 533.901 1.43801C538.904 -2.88314 545.736 -8.87357 558.703 -8.90788C571.671 -8.9422 578.469 -2.90732 583.515 1.5173C588.005 5.42598 590.188 7.20845 595.328 7.21342L595.308 23.2212Z" fill="#F4F8FB"/>
<path d="M740.48 23.1426C727.512 23.1769 720.714 17.142 715.669 12.7174C711.178 8.80871 708.995 7.02624 703.855 7.02128C698.714 7.01631 696.491 8.79454 692.008 12.7101C687.006 17.0313 680.174 23.0218 667.206 23.0561C654.239 23.0905 647.44 17.0555 642.395 12.6309C637.904 8.72226 635.722 6.93974 630.581 6.93477C625.441 6.92981 623.217 8.70799 618.735 12.6236C613.732 16.9448 606.9 22.9353 593.933 22.9697C580.965 23.004 574.167 16.9691 569.121 12.5445C564.631 8.63582 562.448 6.8533 557.307 6.84838L557.328 -9.15947C570.295 -9.19381 577.094 -3.15891 582.139 1.26566C586.63 5.17439 588.813 6.95689 593.953 6.96186C599.094 6.96682 601.317 5.18859 605.8 1.27299C610.802 -3.04821 617.634 -9.03872 630.601 -9.07304C643.569 -9.10735 650.368 -3.07243 655.413 1.35217C659.903 5.26087 662.086 7.04334 667.227 7.04831C672.367 7.05328 674.59 5.27504 679.073 1.35938C684.076 -2.96178 690.907 -8.95223 703.875 -8.98651C716.843 -9.02082 723.641 -2.98592 728.686 1.43863C733.177 5.3473 735.36 7.12981 740.5 7.13478L740.48 23.1426Z" fill="#F4F8FB"/>
<path d="M886.857 23.2555C873.889 23.2897 867.091 17.2549 862.045 12.8303C857.555 8.9216 855.372 7.13909 850.232 7.13412C845.091 7.12916 842.868 8.90739 838.385 12.823C833.382 17.1442 826.551 23.1347 813.583 23.169C800.616 23.2033 793.817 17.1684 788.772 12.7438C784.281 8.83509 782.098 7.05259 776.958 7.04762C771.817 7.04265 769.594 8.82084 765.112 12.7365C760.109 17.0577 753.277 23.0482 740.31 23.0825C727.342 23.1168 720.544 17.082 715.498 12.6573C711.008 8.74866 708.825 6.9662 703.684 6.96123L703.705 -9.04664C716.672 -9.08096 723.471 -3.04605 728.516 1.3785C733.007 5.28722 735.19 7.06975 740.33 7.07472C745.47 7.07969 747.694 5.3015 752.176 1.38583C757.179 -2.93532 764.011 -8.92586 776.978 -8.96017C789.946 -8.99449 796.744 -2.95958 801.79 1.46502C806.28 5.37372 808.463 7.15619 813.604 7.16116C818.744 7.16612 820.967 5.38789 825.45 1.47227C830.453 -2.84893 837.284 -8.83934 850.252 -8.87366C863.219 -8.90798 870.018 -2.87307 875.063 1.55148C879.554 5.46019 881.737 7.24266 886.877 7.24763L886.857 23.2555Z" fill="#F4F8FB"/>
<path d="M1032.29 23.36C1019.32 23.3944 1012.52 17.3595 1007.48 12.9349C1002.99 9.02619 1000.81 7.24373 995.666 7.23876C990.525 7.23379 988.302 9.01198 983.819 12.9276C978.817 17.2488 971.985 23.2393 959.017 23.2736C946.05 23.3079 939.251 17.273 934.206 12.8484C929.715 8.93976 927.532 7.15718 922.392 7.15221C917.251 7.14724 915.028 8.92551 910.546 12.8411C905.543 17.1623 898.711 23.1528 885.744 23.1871C872.776 23.2215 865.978 17.1866 860.932 12.762C856.442 8.85325 854.259 7.07079 849.118 7.06582L849.139 -8.94202C862.106 -8.97633 868.905 -2.94146 873.95 1.48314C878.441 5.39184 880.624 7.17434 885.764 7.17931C890.904 7.18428 893.128 5.40609 897.61 1.49047C902.613 -2.83073 909.445 -8.82122 922.412 -8.85554C935.38 -8.88985 942.178 -2.85494 947.224 1.56964C951.714 5.47836 953.897 7.26082 959.038 7.26579C964.178 7.27076 966.401 5.49253 970.884 1.57689C975.887 -2.74426 982.718 -8.73475 995.686 -8.76907C1008.65 -8.80338 1015.45 -2.76848 1020.5 1.65611C1024.99 5.56482 1027.17 7.34728 1032.31 7.35225L1032.29 23.36Z" fill="#F4F8FB"/>
<path d="M1178.67 23.4729C1165.7 23.5072 1158.9 17.4723 1153.86 13.0477C1149.37 9.13904 1147.18 7.35657 1142.04 7.35161C1136.9 7.34664 1134.68 9.12483 1130.2 13.0405C1125.19 17.3616 1118.36 23.3521 1105.39 23.3865C1092.43 23.4208 1085.63 17.3859 1080.58 12.9613C1076.09 9.05261 1073.91 7.2701 1068.77 7.26514C1063.63 7.26013 1061.41 9.03836 1056.92 12.9539C1051.92 17.2751 1045.09 23.2657 1032.12 23.3C1019.15 23.3343 1012.35 17.2994 1007.31 12.8748C1002.82 8.9661 1000.64 7.18363 995.495 7.17867L995.516 -8.82917C1008.48 -8.86349 1015.28 -2.82861 1020.33 1.59599C1024.82 5.50469 1027 7.28719 1032.14 7.29216C1037.28 7.29712 1039.5 5.51894 1043.99 1.60331C1048.99 -2.71788 1055.82 -8.70838 1068.79 -8.74269C1081.76 -8.77701 1088.56 -2.7421 1093.6 1.68254C1098.09 5.5912 1100.27 7.37367 1105.41 7.37864C1110.55 7.3836 1112.78 5.60537 1117.26 1.68974C1122.26 -2.63141 1129.1 -8.62191 1142.06 -8.65622C1155.03 -8.69054 1161.83 -2.65564 1166.87 1.76896C1171.36 5.67766 1173.55 7.46013 1178.69 7.4651L1178.67 23.4729Z" fill="#F4F8FB"/>
<path d="M1323.84 23.3943C1310.87 23.4286 1304.07 17.3937 1299.03 12.9691C1294.54 9.06042 1292.35 7.27795 1287.21 7.27298C1282.07 7.26802 1279.85 9.04621 1275.37 12.9618C1270.37 17.283 1263.53 23.2735 1250.57 23.3078C1237.6 23.3421 1230.8 17.3072 1225.75 12.8826C1221.26 8.97394 1219.08 7.1914 1213.94 7.18643C1208.8 7.18147 1206.58 8.95966 1202.09 12.8753C1197.09 17.1965 1190.26 23.187 1177.29 23.2213C1164.32 23.2556 1157.53 17.2208 1152.48 12.7962C1147.99 8.88748 1145.81 7.10501 1140.67 7.10004L1140.69 -8.90779C1153.65 -8.94214 1160.45 -2.90723 1165.5 1.51736C1169.99 5.42607 1172.17 7.20857 1177.31 7.21354C1182.45 7.2185 1184.68 5.44032 1189.16 1.52465C1194.16 -2.7965 1200.99 -8.78704 1213.96 -8.82136C1226.93 -8.85567 1233.73 -2.82076 1238.77 1.60387C1243.26 5.51254 1245.45 7.29501 1250.59 7.29997C1255.73 7.30494 1257.95 5.52671 1262.43 1.61108C1267.44 -2.71011 1274.27 -8.70053 1287.23 -8.73484C1300.2 -8.76916 1307 -2.73426 1312.05 1.69034C1316.54 5.59901 1318.72 7.38151 1323.86 7.38648L1323.84 23.3943Z" fill="#F4F8FB"/>
<path d="M1470.22 23.5072C1457.25 23.5415 1450.45 17.5065 1445.4 13.0819C1440.91 9.17326 1438.73 7.39072 1433.59 7.38579C1428.45 7.38078 1426.23 9.15905 1421.74 13.0747C1416.74 17.3958 1409.91 23.3863 1396.94 23.4206C1383.98 23.455 1377.18 17.4201 1372.13 12.9955C1367.64 9.08675 1365.46 7.30428 1360.32 7.29928C1355.18 7.29435 1352.95 9.0725 1348.47 12.9882C1343.47 17.3094 1336.64 23.2999 1323.67 23.3342C1310.7 23.3685 1303.9 17.3336 1298.86 12.909C1294.37 9.00033 1292.18 7.21786 1287.04 7.21289L1287.06 -8.79495C1300.03 -8.82926 1306.83 -2.79439 1311.88 1.63021C1316.37 5.53891 1318.55 7.32142 1323.69 7.32638C1328.83 7.33135 1331.05 5.55316 1335.54 1.63754C1340.54 -2.68366 1347.37 -8.6742 1360.34 -8.70855C1373.31 -8.74278 1380.1 -2.70787 1385.15 1.71668C1389.64 5.62538 1391.82 7.4079 1396.96 7.4129C1402.1 7.41783 1404.33 5.63959 1408.81 1.72396C1413.81 -2.59727 1420.64 -8.58769 1433.61 -8.62204C1446.58 -8.6563 1453.38 -2.62141 1458.42 1.80316C1462.91 5.71189 1465.1 7.49436 1470.24 7.49936L1470.22 23.5072Z" fill="#F4F8FB"/>
<path d="M1615.65 23.6118C1602.68 23.6461 1595.88 17.6111 1590.84 13.1865C1586.35 9.27782 1584.17 7.49542 1579.03 7.49047C1573.88 7.48547 1571.66 9.26373 1567.18 13.1794C1562.18 17.5005 1555.34 23.4909 1542.38 23.5252C1529.41 23.5596 1522.61 17.5247 1517.57 13.1001C1513.07 9.19146 1510.89 7.40885 1505.75 7.40392C1500.61 7.39889 1498.39 9.17716 1493.91 13.0928C1488.9 17.4139 1482.07 23.4045 1469.1 23.4388C1456.14 23.4731 1449.34 17.4383 1444.29 13.0136C1439.8 9.10495 1437.62 7.32248 1432.48 7.31748L1432.5 -8.69035C1445.47 -8.72463 1452.26 -2.68974 1457.31 1.73486C1461.8 5.64349 1463.98 7.42603 1469.12 7.43103C1474.26 7.43596 1476.49 5.65779 1480.97 1.74214C1485.97 -2.57907 1492.8 -8.56956 1505.77 -8.60391C1518.74 -8.63819 1525.54 -2.60323 1530.58 1.82134C1535.07 5.73007 1537.26 7.51246 1542.4 7.5174C1547.54 7.5224 1549.76 5.74415 1554.24 1.82851C1559.25 -2.49263 1566.08 -8.48305 1579.05 -8.51734C1592.01 -8.55169 1598.81 -2.5168 1603.86 1.90778C1608.35 5.81643 1610.53 7.59904 1615.67 7.60397L1615.65 23.6118Z" fill="#F4F8FB"/>
<path d="M1762.03 23.7246C1749.06 23.7589 1742.26 17.724 1737.22 13.2994C1732.73 9.39067 1730.54 7.60827 1725.4 7.60334C1720.26 7.59834 1718.04 9.37658 1713.56 13.2922C1708.55 17.6134 1701.72 23.6038 1688.75 23.6381C1675.79 23.6724 1668.99 17.6375 1663.94 13.2129C1659.45 9.3043 1657.27 7.52169 1652.13 7.51676C1646.99 7.51176 1644.76 9.29001 1640.28 13.2057C1635.28 17.5268 1628.45 23.5174 1615.48 23.5516C1602.51 23.586 1595.71 17.5511 1590.67 13.1265C1586.18 9.21782 1584 7.43535 1578.85 7.43035L1578.88 -8.5775C1591.84 -8.61176 1598.64 -2.57696 1603.69 1.84764C1608.18 5.75634 1610.36 7.53888 1615.5 7.5439C1620.64 7.54883 1622.86 5.77063 1627.35 1.85499C1632.35 -2.46622 1639.18 -8.45671 1652.15 -8.49106C1665.12 -8.52535 1671.91 -2.49039 1676.96 1.93421C1681.45 5.84291 1683.63 7.62531 1688.77 7.63024C1693.91 7.63527 1696.14 5.857 1700.62 1.94135C1705.62 -2.37979 1712.45 -8.37021 1725.42 -8.40449C1738.39 -8.43884 1745.19 -2.40395 1750.23 2.02065C1754.72 5.92928 1756.91 7.71189 1762.05 7.71682L1762.03 23.7246Z" fill="#F4F8FB"/>
<path d="M1907.2 23.646C1894.23 23.6803 1887.43 17.6453 1882.39 13.2207C1877.9 9.31202 1875.71 7.52963 1870.57 7.52469C1865.43 7.51969 1863.21 9.29794 1858.73 13.2135C1853.72 17.5347 1846.89 23.5251 1833.93 23.5594C1820.96 23.5938 1814.16 17.5589 1809.11 13.1343C1804.62 9.22559 1802.44 7.44305 1797.3 7.43812C1792.16 7.43312 1789.94 9.21136 1785.45 13.127C1780.45 17.4481 1773.62 23.4387 1760.65 23.473C1747.68 23.5073 1740.89 17.4725 1735.84 13.0478C1731.35 9.13918 1729.17 7.35671 1724.03 7.35171L1724.05 -8.65614C1737.01 -8.69042 1743.81 -2.65561 1748.86 1.76899C1753.35 5.67769 1755.53 7.46023 1760.67 7.46526C1765.81 7.47019 1768.04 5.69199 1772.52 1.77635C1777.52 -2.54486 1784.35 -8.53536 1797.32 -8.56971C1810.29 -8.60406 1817.09 -2.56903 1822.13 1.85557C1826.62 5.76427 1828.81 7.54667 1833.95 7.5516C1839.09 7.55662 1841.31 5.77836 1845.79 1.86271C1850.79 -2.45843 1857.63 -8.44885 1870.59 -8.48313C1883.56 -8.51747 1890.36 -2.48265 1895.41 1.94199C1899.9 5.85063 1902.08 7.63324 1907.22 7.63819L1907.2 23.646Z" fill="#F4F8FB"/>
<path d="M2053.58 23.7588C2040.61 23.7931 2033.81 17.7582 2028.76 13.3336C2024.27 9.42488 2022.09 7.64247 2016.95 7.63754C2011.81 7.63254 2009.59 9.4108 2005.1 13.3264C2000.1 17.6476 1993.27 23.6379 1980.3 23.6723C1967.33 23.7066 1960.54 17.6717 1955.49 13.2472C1951 9.33845 1948.82 7.5559 1943.68 7.55097C1938.54 7.54596 1936.31 9.32422 1931.83 13.2399C1926.83 17.561 1920 23.5516 1907.03 23.5858C1894.06 23.6202 1887.26 17.5853 1882.22 13.1607C1877.73 9.25202 1875.54 7.46956 1870.4 7.46455L1870.42 -8.54327C1883.39 -8.57755 1890.19 -2.54275 1895.23 1.88184C1899.73 5.79055 1901.91 7.5731 1907.05 7.5781C1912.19 7.58304 1914.41 5.80485 1918.9 1.8892C1923.9 -2.43201 1930.73 -8.4225 1943.7 -8.45685C1956.66 -8.49112 1963.46 -2.45617 1968.51 1.96841C1973 5.87713 1975.18 7.65953 1980.32 7.66447C1985.46 7.66947 1987.69 5.89121 1992.17 1.97557C1997.17 -2.34557 2004 -8.33599 2016.97 -8.37028C2029.94 -8.40463 2036.74 -2.36981 2041.78 2.05485C2046.27 5.96349 2048.46 7.7461 2053.6 7.75103L2053.58 23.7588Z" fill="#F4F8FB"/>
<path d="M2199.01 23.8635C2186.04 23.8977 2179.24 17.8628 2174.2 13.4382C2169.71 9.52949 2167.53 7.74709 2162.38 7.74215C2157.24 7.73715 2155.02 9.51541 2150.54 13.431C2145.54 17.7522 2138.7 23.7426 2125.74 23.7769C2112.77 23.8112 2105.97 17.7763 2100.92 13.3518C2096.43 9.44313 2094.25 7.66051 2089.11 7.65558C2083.97 7.65058 2081.75 9.42883 2077.26 13.3445C2072.26 17.6656 2065.43 23.6562 2052.46 23.6905C2039.5 23.7248 2032.7 17.6899 2027.65 13.2654C2023.16 9.35665 2020.98 7.57418 2015.84 7.56918L2015.86 -8.4386C2028.83 -8.47294 2035.62 -2.43813 2040.67 1.98645C2045.16 5.89517 2047.34 7.6777 2052.48 7.68272C2057.62 7.68765 2059.85 5.90946 2064.33 1.99382C2069.33 -2.32739 2076.16 -8.31789 2089.13 -8.35224C2102.1 -8.38651 2108.9 -2.35156 2113.94 2.07303C2118.43 5.98174 2120.62 7.76414 2125.76 7.76908C2130.9 7.77408 2133.12 5.99582 2137.6 2.08018C2142.61 -2.24096 2149.44 -8.23138 2162.41 -8.26566C2175.37 -8.30001 2182.17 -2.26512 2187.22 2.15946C2191.71 6.0681 2193.89 7.85071 2199.03 7.85565L2199.01 23.8635Z" fill="#F4F8FB"/>
<path d="M2345.39 23.9763C2332.42 24.0106 2325.62 17.9756 2320.58 13.5511C2316.08 9.64234 2313.9 7.85994 2308.76 7.85501C2303.62 7.85001 2301.4 9.62826 2296.92 13.5439C2291.91 17.865 2285.08 23.8555 2272.11 23.8897C2259.15 23.9241 2252.35 17.8893 2247.3 13.4646C2242.81 9.55598 2240.63 7.77337 2235.49 7.76844C2230.35 7.76343 2228.12 9.54169 2223.64 13.4573C2218.64 17.7785 2211.81 23.769 2198.84 23.8034C2185.87 23.8377 2179.07 17.8028 2174.03 13.3782C2169.54 9.4695 2167.35 7.68703 2162.21 7.68202L2162.23 -8.32574C2175.2 -8.36009 2182 -2.32528 2187.05 2.09931C2191.54 6.00802 2193.72 7.79056 2198.86 7.79557C2204 7.8005 2206.22 6.02231 2210.71 2.10667C2215.71 -2.21454 2222.54 -8.20503 2235.51 -8.23938C2248.48 -8.27366 2255.27 -2.2387 2260.32 2.18588C2264.81 6.09459 2266.99 7.877 2272.13 7.88193C2277.27 7.88693 2279.5 6.10868 2283.98 2.19303C2288.98 -2.12811 2295.81 -8.11846 2308.78 -8.15281C2321.75 -8.18716 2328.55 -2.15227 2333.59 2.27232C2338.08 6.18103 2340.27 7.96357 2345.41 7.9685L2345.39 23.9763Z" fill="#F4F8FB"/>
</g>
<g opacity="0.5">
<path d="M157.122 72.8909C144.155 72.9252 137.356 66.8904 132.311 62.4658C127.82 58.557 125.638 56.7746 120.497 56.7696C115.357 56.7646 113.133 58.5429 108.651 62.4585C103.648 66.7797 96.8164 72.7701 83.8488 72.8044C70.8812 72.8388 64.0828 66.8039 59.0375 62.3793C54.5468 58.4706 52.3639 56.6881 47.2234 56.6832C42.083 56.6781 39.8599 58.4563 35.3772 62.3719C30.3745 66.6931 23.5427 72.6837 10.5752 72.718C-2.39242 72.7524 -9.19082 66.7173 -14.2361 62.2927C-18.7268 58.3841 -20.9096 56.6016 -26.05 56.5966L-26.0297 40.5888C-13.0621 40.5545 -6.26376 46.5895 -1.21851 51.0141C3.27222 54.9227 5.45508 56.7053 10.5956 56.7102C15.736 56.7152 17.9592 54.937 22.4419 51.0213C27.4446 46.7002 34.2763 40.7096 47.2438 40.6753C60.2114 40.641 67.0099 46.6759 72.0552 51.1005C76.5459 55.0091 78.7287 56.7917 83.8692 56.7966C89.0096 56.8016 91.2328 55.0234 95.7156 51.1077C100.718 46.7866 107.55 40.7961 120.517 40.7618C133.485 40.7275 140.284 46.7623 145.329 51.187C149.819 55.0957 152.002 56.8781 157.143 56.8831L157.122 72.8909Z" fill="#F4F8FB"/>
<path d="M303.499 73.0037C290.532 73.0381 283.733 67.0032 278.688 62.5786C274.197 58.6699 272.014 56.8875 266.874 56.8824C261.733 56.8775 259.51 58.6558 255.028 62.5713C250.025 66.8926 243.193 72.883 230.226 72.9173C217.258 72.9516 210.46 66.9167 205.414 62.4922C200.924 58.5835 198.741 56.8009 193.6 56.796C188.46 56.791 186.237 58.5691 181.754 62.4848C176.751 66.8059 169.92 72.7966 156.952 72.8309C143.984 72.8652 137.186 66.8302 132.141 62.4056C127.65 58.4969 125.467 56.7144 120.327 56.7095L120.347 40.7016C133.315 40.6673 140.113 46.7023 145.158 51.1269C149.649 55.0356 151.832 56.8181 156.972 56.823C162.113 56.8281 164.336 55.0498 168.819 51.1342C173.821 46.813 180.653 40.8225 193.621 40.7881C206.588 40.7539 213.387 46.7888 218.432 51.2134C222.923 55.122 225.106 56.9045 230.246 56.9094C235.386 56.9145 237.61 55.1362 242.092 51.2206C247.095 46.8994 253.927 40.909 266.894 40.8747C279.862 40.8404 286.66 46.8752 291.706 51.2998C296.196 55.2085 298.379 56.991 303.52 56.996L303.499 73.0037Z" fill="#F4F8FB"/>
<path d="M448.933 73.1083C435.966 73.1427 429.167 67.1078 424.122 62.6832C419.631 58.7745 417.448 56.992 412.308 56.987C407.167 56.9821 404.944 58.7603 400.462 62.676C395.459 66.9972 388.627 72.9876 375.66 73.0219C362.692 73.0562 355.894 67.0214 350.848 62.5968C346.358 58.6881 344.175 56.9056 339.034 56.9006C333.894 56.8957 331.671 58.6738 327.188 62.5894C322.185 66.9106 315.354 72.9012 302.386 72.9355C289.418 72.9698 282.62 66.9348 277.575 62.5102C273.084 58.6015 270.901 56.819 265.761 56.8141L265.781 40.8062C278.749 40.7719 285.547 46.8069 290.592 51.2315C295.083 55.1402 297.266 56.9227 302.406 56.9277C307.547 56.9327 309.77 55.1544 314.253 51.2388C319.255 46.9176 326.087 40.9271 339.055 40.8928C352.022 40.8585 358.821 46.8933 363.866 51.318C368.357 55.2267 370.54 57.0091 375.68 57.0141C380.82 57.0191 383.044 55.2408 387.526 51.3252C392.529 47.004 399.361 41.0136 412.328 40.9793C425.296 40.945 432.094 46.9798 437.14 51.4044C441.63 55.3131 443.813 57.0956 448.954 57.1006L448.933 73.1083Z" fill="#F4F8FB"/>
<path d="M595.31 73.2212C582.343 73.2555 575.544 67.2207 570.499 62.796C566.008 58.8873 563.825 57.1049 558.685 57.0999C553.544 57.095 551.321 58.8732 546.838 62.7888C541.836 67.1099 535.004 73.1004 522.036 73.1347C509.069 73.1691 502.27 67.1342 497.225 62.7096C492.734 58.8009 490.552 57.0184 485.411 57.0134C480.271 57.0084 478.047 58.7867 473.565 62.7022C468.562 67.0235 461.73 73.014 448.763 73.0483C435.795 73.0827 428.997 67.0476 423.952 62.6231C419.461 58.7144 417.278 56.9319 412.138 56.927L412.158 40.9192C425.125 40.8849 431.924 46.9198 436.969 51.3444C441.46 55.2531 443.643 57.0356 448.783 57.0406C453.924 57.0455 456.147 55.2673 460.63 51.3516C465.632 47.0305 472.464 41.0399 485.432 41.0056C498.399 40.9713 505.198 47.0062 510.243 51.4308C514.733 55.3395 516.916 57.122 522.057 57.127C527.197 57.1319 529.42 55.3537 533.903 51.438C538.906 47.1169 545.738 41.1264 558.705 41.0921C571.673 41.0578 578.471 47.0927 583.516 51.5173C588.007 55.426 590.19 57.2085 595.33 57.2134L595.31 73.2212Z" fill="#F4F8FB"/>
<path d="M740.482 73.1426C727.514 73.1769 720.716 67.142 715.671 62.7174C711.18 58.8087 708.997 57.0262 703.857 57.0213C698.716 57.0163 696.493 58.7945 692.01 62.7101C687.008 67.0313 680.176 73.0218 667.208 73.0561C654.241 73.0905 647.442 67.0555 642.397 62.6309C637.906 58.7223 635.723 56.9397 630.583 56.9348C625.443 56.9298 623.219 58.708 618.737 62.6236C613.734 66.9448 606.902 72.9353 593.935 72.9697C580.967 73.004 574.169 66.9691 569.123 62.5445C564.633 58.6358 562.45 56.8533 557.309 56.8484L557.33 40.8405C570.297 40.8062 577.096 46.8411 582.141 51.2657C586.632 55.1744 588.815 56.9569 593.955 56.9619C599.096 56.9668 601.319 55.1886 605.801 51.273C610.804 46.9518 617.636 40.9613 630.603 40.927C643.571 40.8926 650.369 46.9276 655.415 51.3522C659.905 55.2609 662.088 57.0433 667.229 57.0483C672.369 57.0533 674.592 55.275 679.075 51.3594C684.078 47.0382 690.909 41.0478 703.877 41.0135C716.845 40.9792 723.643 47.0141 728.688 51.4386C733.179 55.3473 735.362 57.1298 740.502 57.1348L740.482 73.1426Z" fill="#F4F8FB"/>
<path d="M886.859 73.2555C873.891 73.2897 867.093 67.2549 862.047 62.8303C857.557 58.9216 855.374 57.1391 850.233 57.1341C845.093 57.1292 842.87 58.9074 838.387 62.823C833.384 67.1442 826.553 73.1347 813.585 73.169C800.618 73.2033 793.819 67.1684 788.774 62.7438C784.283 58.8351 782.1 57.0526 776.96 57.0476C771.819 57.0427 769.596 58.8208 765.113 62.7365C760.111 67.0577 753.279 73.0482 740.312 73.0825C727.344 73.1168 720.545 67.082 715.5 62.6573C711.01 58.7487 708.827 56.9662 703.686 56.9612L703.707 40.9534C716.674 40.919 723.473 46.954 728.518 51.3785C733.009 55.2872 735.192 57.0698 740.332 57.0747C745.472 57.0797 747.696 55.3015 752.178 51.3858C757.181 47.0647 764.013 41.0741 776.98 41.0398C789.948 41.0055 796.746 47.0404 801.791 51.465C806.282 55.3737 808.465 57.1562 813.605 57.1612C818.746 57.1661 820.969 55.3879 825.452 51.4723C830.455 47.1511 837.286 41.1607 850.254 41.1263C863.221 41.092 870.02 47.1269 875.065 51.5515C879.556 55.4602 881.739 57.2427 886.879 57.2476L886.859 73.2555Z" fill="#F4F8FB"/>
<path d="M1032.29 73.36C1019.33 73.3944 1012.53 67.3595 1007.48 62.9349C1002.99 59.0262 1000.81 57.2437 995.667 57.2388C990.527 57.2338 988.304 59.012 983.821 62.9276C978.819 67.2488 971.987 73.2393 959.019 73.2736C946.052 73.3079 939.253 67.273 934.208 62.8484C929.717 58.9398 927.534 57.1572 922.394 57.1522C917.253 57.1472 915.03 58.9255 910.548 62.8411C905.545 67.1623 898.713 73.1528 885.746 73.1871C872.778 73.2215 865.98 67.1866 860.934 62.762C856.444 58.8533 854.261 57.0708 849.12 57.0658L849.141 41.058C862.108 41.0237 868.907 47.0585 873.952 51.4831C878.443 55.3918 880.626 57.1743 885.766 57.1793C890.906 57.1843 893.13 55.4061 897.612 51.4905C902.615 47.1693 909.447 41.1788 922.414 41.1445C935.382 41.1101 942.18 47.1451 947.226 51.5696C951.716 55.4784 953.899 57.2608 959.039 57.2658C964.18 57.2708 966.403 55.4925 970.886 51.5769C975.889 47.2557 982.72 41.2652 995.688 41.2309C1008.66 41.1966 1015.45 47.2315 1020.5 51.6561C1024.99 55.5648 1027.17 57.3473 1032.31 57.3523L1032.29 73.36Z" fill="#F4F8FB"/>
<path d="M1178.67 73.4729C1165.7 73.5072 1158.9 67.4723 1153.86 63.0477C1149.37 59.139 1147.18 57.3566 1142.04 57.3516C1136.9 57.3466 1134.68 59.1248 1130.2 63.0405C1125.2 67.3616 1118.36 73.3521 1105.4 73.3865C1092.43 73.4208 1085.63 67.3859 1080.58 62.9613C1076.09 59.0526 1073.91 57.2701 1068.77 57.2651C1063.63 57.2601 1061.41 59.0384 1056.92 62.9539C1051.92 67.2751 1045.09 73.2657 1032.12 73.3C1019.15 73.3343 1012.36 67.2994 1007.31 62.8748C1002.82 58.9661 1000.64 57.1836 995.497 57.1787L995.518 41.1708C1008.49 41.1365 1015.28 47.1714 1020.33 51.596C1024.82 55.5047 1027 57.2872 1032.14 57.2922C1037.28 57.2971 1039.51 55.5189 1043.99 51.6033C1048.99 47.2821 1055.82 41.2916 1068.79 41.2573C1081.76 41.223 1088.56 47.2579 1093.6 51.6825C1098.09 55.5912 1100.28 57.3737 1105.42 57.3786C1110.56 57.3836 1112.78 55.6054 1117.26 51.6897C1122.27 47.3686 1129.1 41.3781 1142.06 41.3438C1155.03 41.3095 1161.83 47.3444 1166.88 51.769C1171.37 55.6777 1173.55 57.4601 1178.69 57.4651L1178.67 73.4729Z" fill="#F4F8FB"/>
<path d="M1323.84 73.3943C1310.87 73.4286 1304.08 67.3937 1299.03 62.9691C1294.54 59.0604 1292.36 57.278 1287.22 57.273C1282.08 57.268 1279.85 59.0462 1275.37 62.9618C1270.37 67.283 1263.54 73.2735 1250.57 73.3078C1237.6 73.3421 1230.8 67.3072 1225.76 62.8826C1221.27 58.9739 1219.08 57.1914 1213.94 57.1864C1208.8 57.1815 1206.58 58.9597 1202.1 62.8753C1197.09 67.1965 1190.26 73.187 1177.29 73.2213C1164.33 73.2556 1157.53 67.2208 1152.48 62.7962C1147.99 58.8875 1145.81 57.105 1140.67 57.1L1140.69 41.0922C1153.66 41.0579 1160.46 47.0928 1165.5 51.5174C1169.99 55.4261 1172.17 57.2086 1177.31 57.2135C1182.46 57.2185 1184.68 55.4403 1189.16 51.5246C1194.16 47.2035 1201 41.213 1213.96 41.1786C1226.93 41.1443 1233.73 47.1792 1238.77 51.6039C1243.26 55.5125 1245.45 57.295 1250.59 57.3C1255.73 57.3049 1257.95 55.5267 1262.43 51.6111C1267.44 47.2899 1274.27 41.2995 1287.24 41.2652C1300.2 41.2308 1307 47.2657 1312.05 51.6903C1316.54 55.599 1318.72 57.3815 1323.86 57.3865L1323.84 73.3943Z" fill="#F4F8FB"/>
<path d="M1470.22 73.5072C1457.25 73.5415 1450.45 67.5065 1445.41 63.0819C1440.92 59.1733 1438.73 57.3907 1433.59 57.3858C1428.45 57.3808 1426.23 59.1591 1421.75 63.0747C1416.74 67.3958 1409.91 73.3863 1396.94 73.4206C1383.98 73.455 1377.18 67.4201 1372.13 62.9955C1367.64 59.0868 1365.46 57.3043 1360.32 57.2993C1355.18 57.2943 1352.96 59.0725 1348.47 62.9882C1343.47 67.3094 1336.64 73.2999 1323.67 73.3342C1310.7 73.3685 1303.91 67.3336 1298.86 62.909C1294.37 59.0003 1292.19 57.2179 1287.05 57.2129L1287.07 41.2051C1300.03 41.1707 1306.83 47.2056 1311.88 51.6302C1316.37 55.5389 1318.55 57.3214 1323.69 57.3264C1328.83 57.3314 1331.06 55.5532 1335.54 51.6375C1340.54 47.3163 1347.37 41.3258 1360.34 41.2915C1373.31 41.2572 1380.11 47.2921 1385.15 51.7167C1389.64 55.6254 1391.82 57.4079 1396.97 57.4129C1402.11 57.4178 1404.33 55.6396 1408.81 51.724C1413.81 47.4027 1420.65 41.4123 1433.61 41.378C1446.58 41.3437 1453.38 47.3786 1458.42 51.8032C1462.92 55.7119 1465.1 57.4944 1470.24 57.4994L1470.22 73.5072Z" fill="#F4F8FB"/>
<path d="M1615.65 73.6118C1602.68 73.6461 1595.89 67.6111 1590.84 63.1865C1586.35 59.2778 1584.17 57.4954 1579.03 57.4905C1573.89 57.4855 1571.66 59.2637 1567.18 63.1794C1562.18 67.5005 1555.35 73.4909 1542.38 73.5252C1529.41 73.5596 1522.61 67.5247 1517.57 63.1001C1513.08 59.1915 1510.89 57.4088 1505.75 57.4039C1500.61 57.3989 1498.39 59.1772 1493.91 63.0928C1488.9 67.4139 1482.07 73.4045 1469.11 73.4388C1456.14 73.4731 1449.34 67.4383 1444.29 63.0136C1439.8 59.105 1437.62 57.3225 1432.48 57.3175L1432.5 41.3097C1445.47 41.2754 1452.27 47.3103 1457.31 51.7349C1461.8 55.6435 1463.99 57.426 1469.13 57.431C1474.27 57.436 1476.49 55.6578 1480.97 51.7421C1485.97 47.4209 1492.81 41.4304 1505.77 41.3961C1518.74 41.3618 1525.54 47.3968 1530.59 51.8213C1535.08 55.7301 1537.26 57.5125 1542.4 57.5174C1547.54 57.5224 1549.76 55.7442 1554.25 51.8285C1559.25 47.5074 1566.08 41.5169 1579.05 41.4827C1592.02 41.4483 1598.81 47.4832 1603.86 51.9078C1608.35 55.8164 1610.53 57.599 1615.67 57.604L1615.65 73.6118Z" fill="#F4F8FB"/>
<path d="M1762.03 73.7246C1749.06 73.7589 1742.26 67.724 1737.22 63.2994C1732.73 59.3907 1730.54 57.6083 1725.4 57.6033C1720.26 57.5983 1718.04 59.3766 1713.56 63.2922C1708.55 67.6134 1701.72 73.6038 1688.76 73.6381C1675.79 73.6724 1668.99 67.6375 1663.94 63.2129C1659.45 59.3043 1657.27 57.5217 1652.13 57.5168C1646.99 57.5118 1644.77 59.29 1640.28 63.2057C1635.28 67.5268 1628.45 73.5174 1615.48 73.5516C1602.51 73.586 1595.72 67.5511 1590.67 63.1265C1586.18 59.2178 1584 57.4354 1578.86 57.4304L1578.88 41.4225C1591.84 41.3882 1598.64 47.423 1603.69 51.8476C1608.18 55.7563 1610.36 57.5389 1615.5 57.5439C1620.64 57.5488 1622.87 55.7706 1627.35 51.855C1632.35 47.5338 1639.18 41.5433 1652.15 41.5089C1665.12 41.4747 1671.92 47.5096 1676.96 51.9342C1681.45 55.8429 1683.64 57.6253 1688.78 57.6302C1693.92 57.6353 1696.14 55.857 1700.62 51.9414C1705.62 47.6202 1712.46 41.6298 1725.42 41.5955C1738.39 41.5612 1745.19 47.596 1750.24 52.0206C1754.73 55.9293 1756.91 57.7119 1762.05 57.7168L1762.03 73.7246Z" fill="#F4F8FB"/>
<path d="M1907.2 73.646C1894.23 73.6803 1887.43 67.6453 1882.39 63.2207C1877.9 59.312 1875.72 57.5296 1870.58 57.5247C1865.44 57.5197 1863.21 59.2979 1858.73 63.2135C1853.73 67.5347 1846.89 73.5251 1833.93 73.5594C1820.96 73.5938 1814.16 67.5589 1809.12 63.1343C1804.63 59.2256 1802.44 57.4431 1797.3 57.4381C1792.16 57.4331 1789.94 59.2114 1785.46 63.127C1780.45 67.4481 1773.62 73.4387 1760.65 73.473C1747.69 73.5073 1740.89 67.4725 1735.84 63.0478C1731.35 59.1392 1729.17 57.3567 1724.03 57.3517L1724.05 41.3439C1737.02 41.3096 1743.81 47.3444 1748.86 51.769C1753.35 55.6777 1755.53 57.4602 1760.67 57.4653C1765.81 57.4702 1768.04 55.692 1772.52 51.7763C1777.52 47.4551 1784.35 41.4646 1797.32 41.4303C1810.29 41.3959 1817.09 47.431 1822.13 51.8556C1826.62 55.7643 1828.81 57.5467 1833.95 57.5516C1839.09 57.5566 1841.31 55.7784 1845.79 51.8627C1850.8 47.5416 1857.63 41.5511 1870.6 41.5169C1883.56 41.4825 1890.36 47.5173 1895.41 51.942C1899.9 55.8506 1902.08 57.6332 1907.22 57.6382L1907.2 73.646Z" fill="#F4F8FB"/>
<path d="M2053.58 73.7588C2040.61 73.7931 2033.81 67.7582 2028.77 63.3336C2024.28 59.4249 2022.09 57.6425 2016.95 57.6375C2011.81 57.6325 2009.59 59.4108 2005.11 63.3264C2000.1 67.6476 1993.27 73.6379 1980.3 73.6723C1967.34 73.7066 1960.54 67.6717 1955.49 63.2472C1951 59.3384 1948.82 57.5559 1943.68 57.551C1938.54 57.546 1936.32 59.3242 1931.83 63.2399C1926.83 67.561 1920 73.5516 1907.03 73.5858C1894.06 73.6202 1887.26 67.5853 1882.22 63.1607C1877.73 59.252 1875.55 57.4696 1870.41 57.4646L1870.43 41.4567C1883.39 41.4224 1890.19 47.4573 1895.24 51.8818C1899.73 55.7906 1901.91 57.5731 1907.05 57.5781C1912.19 57.583 1914.41 55.8048 1918.9 51.8892C1923.9 47.568 1930.73 41.5775 1943.7 41.5432C1956.67 41.5089 1963.47 47.5438 1968.51 51.9684C1973 55.8771 1975.18 57.6595 1980.32 57.6645C1985.46 57.6695 1987.69 55.8912 1992.17 51.9756C1997.17 47.6544 2004.01 41.664 2016.97 41.6297C2029.94 41.5954 2036.74 47.6302 2041.78 52.0548C2046.27 55.9635 2048.46 57.7461 2053.6 57.751L2053.58 73.7588Z" fill="#F4F8FB"/>
<path d="M2199.01 73.8635C2186.04 73.8977 2179.25 67.8628 2174.2 63.4382C2169.71 59.5295 2167.53 57.7471 2162.39 57.7422C2157.25 57.7372 2155.02 59.5154 2150.54 63.431C2145.54 67.7522 2138.71 73.7426 2125.74 73.7769C2112.77 73.8112 2105.97 67.7763 2100.93 63.3518C2096.44 59.4431 2094.25 57.6605 2089.11 57.6556C2083.97 57.6506 2081.75 59.4288 2077.27 63.3445C2072.26 67.6656 2065.43 73.6562 2052.46 73.6905C2039.5 73.7248 2032.7 67.6899 2027.65 63.2654C2023.16 59.3566 2020.98 57.5742 2015.84 57.5692L2015.86 41.5614C2028.83 41.5271 2035.63 47.5619 2040.67 51.9865C2045.16 55.8952 2047.34 57.6777 2052.49 57.6827C2057.63 57.6876 2059.85 55.9095 2064.33 51.9938C2069.33 47.6726 2076.17 41.6821 2089.13 41.6478C2102.1 41.6135 2108.9 47.6484 2113.94 52.073C2118.44 55.9817 2120.62 57.7641 2125.76 57.7691C2130.9 57.7741 2133.12 55.9958 2137.6 52.0802C2142.61 47.759 2149.44 41.7686 2162.41 41.7343C2175.37 41.7 2182.17 47.7349 2187.22 52.1595C2191.71 56.0681 2193.89 57.8507 2199.03 57.8557L2199.01 73.8635Z" fill="#F4F8FB"/>
<path d="M2345.39 73.9763C2332.42 74.0106 2325.62 67.9756 2320.58 63.5511C2316.09 59.6423 2313.9 57.8599 2308.76 57.855C2303.62 57.85 2301.4 59.6283 2296.92 63.5439C2291.91 67.865 2285.08 73.8555 2272.11 73.8897C2259.15 73.9241 2252.35 67.8893 2247.3 63.4646C2242.81 59.556 2240.63 57.7734 2235.49 57.7684C2230.35 57.7634 2228.13 59.5417 2223.64 63.4573C2218.64 67.7785 2211.81 73.769 2198.84 73.8034C2185.87 73.8377 2179.08 67.8028 2174.03 63.3782C2169.54 59.4695 2167.36 57.687 2162.22 57.682L2162.24 41.6743C2175.2 41.6399 2182 47.6747 2187.05 52.0993C2191.54 56.008 2193.72 57.7906 2198.86 57.7956C2204 57.8005 2206.23 56.0223 2210.71 52.1067C2215.71 47.7855 2222.54 41.795 2235.51 41.7606C2248.48 41.7263 2255.28 47.7613 2260.32 52.1859C2264.81 56.0946 2266.99 57.877 2272.14 57.8819C2277.28 57.8869 2279.5 56.1087 2283.98 52.193C2288.98 47.8719 2295.82 41.8815 2308.78 41.8472C2321.75 41.8128 2328.55 47.8477 2333.6 52.2723C2338.09 56.181 2340.27 57.9636 2345.41 57.9685L2345.39 73.9763Z" fill="#F4F8FB"/>
</g>
<g opacity="0.5">
<path d="M157.119 117.891C144.151 117.925 137.352 111.89 132.307 107.466C127.816 103.557 125.634 101.775 120.493 101.77C115.353 101.765 113.129 103.543 108.647 107.458C103.644 111.78 96.8124 117.77 83.8449 117.804C70.8773 117.839 64.0789 111.804 59.0336 107.379C54.5429 103.471 52.36 101.688 47.2195 101.683C42.0791 101.678 39.856 103.456 35.3732 107.372C30.3706 111.693 23.5388 117.684 10.5713 117.718C-2.39633 117.752 -9.19473 111.717 -14.24 107.293C-18.7307 103.384 -20.9135 101.602 -26.0539 101.597L-26.0336 85.5888C-13.066 85.5545 -6.26767 91.5895 -1.22242 96.0141C3.26831 99.9227 5.45118 101.705 10.5917 101.71C15.7321 101.715 17.9553 99.937 22.438 96.0213C27.4407 91.7002 34.2724 85.7096 47.2399 85.6753C60.2075 85.641 67.006 91.6759 72.0513 96.1005C76.542 100.009 78.7248 101.792 83.8653 101.797C89.0057 101.802 91.2289 100.023 95.7116 96.1077C100.714 91.7866 107.546 85.7961 120.514 85.7618C133.481 85.7275 140.28 91.7623 145.325 96.187C149.816 100.096 151.998 101.878 157.139 101.883L157.119 117.891Z" fill="#F4F8FB"/>
<path d="M303.495 118.004C290.528 118.038 283.729 112.003 278.684 107.579C274.193 103.67 272.01 101.887 266.87 101.882C261.73 101.878 259.506 103.656 255.024 107.571C250.021 111.893 243.189 117.883 230.222 117.917C217.254 117.952 210.456 111.917 205.41 107.492C200.92 103.583 198.737 101.801 193.596 101.796C188.456 101.791 186.233 103.569 181.75 107.485C176.747 111.806 169.916 117.797 156.948 117.831C143.98 117.865 137.182 111.83 132.137 107.406C127.646 103.497 125.463 101.714 120.323 101.71L120.343 85.7016C133.311 85.6673 140.109 91.7023 145.154 96.1269C149.645 100.036 151.828 101.818 156.968 101.823C162.109 101.828 164.332 100.05 168.815 96.1342C173.817 91.813 180.649 85.8225 193.617 85.7881C206.584 85.7539 213.383 91.7888 218.428 96.2134C222.919 100.122 225.102 101.905 230.242 101.909C235.382 101.914 237.606 100.136 242.088 96.2206C247.091 91.8994 253.923 85.909 266.89 85.8747C279.858 85.8404 286.656 91.8752 291.702 96.2998C296.192 100.209 298.375 101.991 303.516 101.996L303.495 118.004Z" fill="#F4F8FB"/>
<path d="M448.929 118.108C435.962 118.143 429.163 112.108 424.118 107.683C419.627 103.774 417.444 101.992 412.304 101.987C407.164 101.982 404.94 103.76 400.458 107.676C395.455 111.997 388.623 117.988 375.656 118.022C362.688 118.056 355.89 112.021 350.844 107.597C346.354 103.688 344.171 101.906 339.03 101.901C333.89 101.896 331.667 103.674 327.184 107.589C322.181 111.911 315.35 117.901 302.382 117.936C289.415 117.97 282.616 111.935 277.571 107.51C273.08 103.602 270.897 101.819 265.757 101.814L265.777 85.8062C278.745 85.7719 285.543 91.8069 290.588 96.2315C295.079 100.14 297.262 101.923 302.402 101.928C307.543 101.933 309.766 100.154 314.249 96.2388C319.252 91.9176 326.083 85.9271 339.051 85.8928C352.018 85.8585 358.817 91.8933 363.862 96.318C368.353 100.227 370.536 102.009 375.676 102.014C380.817 102.019 383.04 100.241 387.523 96.3252C392.525 92.004 399.357 86.0136 412.324 85.9793C425.292 85.945 432.091 91.9798 437.136 96.4044C441.626 100.313 443.809 102.096 448.95 102.101L448.929 118.108Z" fill="#F4F8FB"/>
<path d="M595.306 118.221C582.339 118.255 575.54 112.221 570.495 107.796C566.004 103.887 563.821 102.105 558.681 102.1C553.54 102.095 551.317 103.873 546.835 107.789C541.832 112.11 535 118.1 522.033 118.135C509.065 118.169 502.267 112.134 497.221 107.71C492.731 103.801 490.548 102.018 485.407 102.013C480.267 102.008 478.044 103.787 473.561 107.702C468.558 112.023 461.727 118.014 448.759 118.048C435.791 118.083 428.993 112.048 423.948 107.623C419.457 103.714 417.274 101.932 412.134 101.927L412.154 85.9192C425.122 85.8849 431.92 91.9198 436.965 96.3444C441.456 100.253 443.639 102.036 448.779 102.041C453.92 102.046 456.143 100.267 460.626 96.3516C465.628 92.0305 472.46 86.0399 485.428 86.0056C498.395 85.9713 505.194 92.0062 510.239 96.4308C514.73 100.34 516.912 102.122 522.053 102.127C527.193 102.132 529.417 100.354 533.899 96.438C538.902 92.1169 545.734 86.1264 558.701 86.0921C571.669 86.0578 578.467 92.0927 583.513 96.5173C588.003 100.426 590.186 102.208 595.327 102.213L595.306 118.221Z" fill="#F4F8FB"/>
<path d="M740.478 118.143C727.511 118.177 720.712 112.142 715.667 107.717C711.176 103.809 708.993 102.026 703.853 102.021C698.712 102.016 696.489 103.795 692.006 107.71C687.004 112.031 680.172 118.022 667.204 118.056C654.237 118.09 647.438 112.056 642.393 107.631C637.902 103.722 635.72 101.94 630.579 101.935C625.439 101.93 623.215 103.708 618.733 107.624C613.73 111.945 606.898 117.935 593.931 117.97C580.963 118.004 574.165 111.969 569.12 107.544C564.629 103.636 562.446 101.853 557.306 101.848L557.326 85.8405C570.293 85.8062 577.092 91.8411 582.137 96.2657C586.628 100.174 588.811 101.957 593.951 101.962C599.092 101.967 601.315 100.189 605.798 96.273C610.8 91.9518 617.632 85.9613 630.599 85.927C643.567 85.8926 650.366 91.9276 655.411 96.3522C659.902 100.261 662.084 102.043 667.225 102.048C672.365 102.053 674.588 100.275 679.071 96.3594C684.074 92.0382 690.906 86.0478 703.873 86.0135C716.841 85.9792 723.639 92.0141 728.684 96.4386C733.175 100.347 735.358 102.13 740.498 102.135L740.478 118.143Z" fill="#F4F8FB"/>
<path d="M886.855 118.255C873.887 118.29 867.089 112.255 862.043 107.83C857.553 103.922 855.37 102.139 850.23 102.134C845.089 102.129 842.866 103.907 838.383 107.823C833.381 112.144 826.549 118.135 813.581 118.169C800.614 118.203 793.815 112.168 788.77 107.744C784.279 103.835 782.096 102.053 776.956 102.048C771.815 102.043 769.592 103.821 765.11 107.737C760.107 112.058 753.275 118.048 740.308 118.083C727.34 118.117 720.542 112.082 715.496 107.657C711.006 103.749 708.823 101.966 703.682 101.961L703.703 85.9534C716.67 85.919 723.469 91.954 728.514 96.3785C733.005 100.287 735.188 102.07 740.328 102.075C745.468 102.08 747.692 100.301 752.174 96.3858C757.177 92.0647 764.009 86.0741 776.976 86.0398C789.944 86.0055 796.742 92.0404 801.788 96.465C806.278 100.374 808.461 102.156 813.602 102.161C818.742 102.166 820.965 100.388 825.448 96.4723C830.451 92.1511 837.282 86.1607 850.25 86.1263C863.217 86.092 870.016 92.1269 875.061 96.5515C879.552 100.46 881.735 102.243 886.875 102.248L886.855 118.255Z" fill="#F4F8FB"/>
<path d="M1032.29 118.36C1019.32 118.394 1012.52 112.359 1007.48 107.935C1002.99 104.026 1000.8 102.244 995.664 102.239C990.523 102.234 988.3 104.012 983.817 107.928C978.815 112.249 971.983 118.239 959.015 118.274C946.048 118.308 939.249 112.273 934.204 107.848C929.713 103.94 927.53 102.157 922.39 102.152C917.25 102.147 915.026 103.926 910.544 107.841C905.541 112.162 898.709 118.153 885.742 118.187C872.774 118.221 865.976 112.187 860.93 107.762C856.44 103.853 854.257 102.071 849.116 102.066L849.137 86.058C862.104 86.0237 868.903 92.0585 873.948 96.4831C878.439 100.392 880.622 102.174 885.762 102.179C890.903 102.184 893.126 100.406 897.608 96.4905C902.611 92.1693 909.443 86.1788 922.41 86.1445C935.378 86.1101 942.176 92.1451 947.222 96.5696C951.712 100.478 953.895 102.261 959.036 102.266C964.176 102.271 966.399 100.493 970.882 96.5769C975.885 92.2557 982.716 86.2652 995.684 86.2309C1008.65 86.1966 1015.45 92.2315 1020.5 96.6561C1024.99 100.565 1027.17 102.347 1032.31 102.352L1032.29 118.36Z" fill="#F4F8FB"/>
<path d="M1178.67 118.473C1165.7 118.507 1158.9 112.472 1153.85 108.048C1149.36 104.139 1147.18 102.357 1142.04 102.352C1136.9 102.347 1134.68 104.125 1130.19 108.04C1125.19 112.362 1118.36 118.352 1105.39 118.386C1092.42 118.421 1085.63 112.386 1080.58 107.961C1076.09 104.053 1073.91 102.27 1068.77 102.265C1063.63 102.26 1061.4 104.038 1056.92 107.954C1051.92 112.275 1045.09 118.266 1032.12 118.3C1019.15 118.334 1012.35 112.299 1007.31 107.875C1002.82 103.966 1000.63 102.184 995.493 102.179L995.514 86.1708C1008.48 86.1365 1015.28 92.1714 1020.32 96.596C1024.82 100.505 1027 102.287 1032.14 102.292C1037.28 102.297 1039.5 100.519 1043.99 96.6033C1048.99 92.2821 1055.82 86.2916 1068.79 86.2573C1081.75 86.223 1088.55 92.2579 1093.6 96.6825C1098.09 100.591 1100.27 102.374 1105.41 102.379C1110.55 102.384 1112.78 100.605 1117.26 96.6897C1122.26 92.3686 1129.09 86.3781 1142.06 86.3438C1155.03 86.3095 1161.83 92.3444 1166.87 96.769C1171.36 100.678 1173.55 102.46 1178.69 102.465L1178.67 118.473Z" fill="#F4F8FB"/>
<path d="M1323.84 118.394C1310.87 118.429 1304.07 112.394 1299.03 107.969C1294.54 104.06 1292.35 102.278 1287.21 102.273C1282.07 102.268 1279.85 104.046 1275.37 107.962C1270.36 112.283 1263.53 118.273 1250.56 118.308C1237.6 118.342 1230.8 112.307 1225.75 107.883C1221.26 103.974 1219.08 102.191 1213.94 102.186C1208.8 102.181 1206.58 103.96 1202.09 107.875C1197.09 112.196 1190.26 118.187 1177.29 118.221C1164.32 118.256 1157.52 112.221 1152.48 107.796C1147.99 103.887 1145.81 102.105 1140.67 102.1L1140.69 86.0922C1153.65 86.0579 1160.45 92.0928 1165.5 96.5174C1169.99 100.426 1172.17 102.209 1177.31 102.214C1182.45 102.219 1184.67 100.44 1189.16 96.5246C1194.16 92.2035 1200.99 86.213 1213.96 86.1786C1226.93 86.1443 1233.73 92.1792 1238.77 96.6039C1243.26 100.513 1245.44 102.295 1250.58 102.3C1255.72 102.305 1257.95 100.527 1262.43 96.6111C1267.43 92.2899 1274.27 86.2995 1287.23 86.2652C1300.2 86.2308 1307 92.2657 1312.04 96.6903C1316.53 100.599 1318.72 102.382 1323.86 102.386L1323.84 118.394Z" fill="#F4F8FB"/>
<path d="M1470.21 118.507C1457.25 118.541 1450.45 112.506 1445.4 108.082C1440.91 104.173 1438.73 102.391 1433.59 102.386C1428.45 102.381 1426.23 104.159 1421.74 108.075C1416.74 112.396 1409.91 118.386 1396.94 118.421C1383.97 118.455 1377.17 112.42 1372.13 107.995C1367.64 104.087 1365.46 102.304 1360.32 102.299C1355.18 102.294 1352.95 104.073 1348.47 107.988C1343.47 112.309 1336.63 118.3 1323.67 118.334C1310.7 118.369 1303.9 112.334 1298.86 107.909C1294.37 104 1292.18 102.218 1287.04 102.213L1287.06 86.2051C1300.03 86.1707 1306.83 92.2056 1311.87 96.6302C1316.36 100.539 1318.55 102.321 1323.69 102.326C1328.83 102.331 1331.05 100.553 1335.53 96.6375C1340.54 92.3163 1347.37 86.3258 1360.34 86.2915C1373.3 86.2572 1380.1 92.2921 1385.15 96.7167C1389.64 100.625 1391.82 102.408 1396.96 102.413C1402.1 102.418 1404.32 100.64 1408.81 96.724C1413.81 92.4027 1420.64 86.4123 1433.61 86.378C1446.58 86.3437 1453.38 92.3786 1458.42 96.8032C1462.91 100.712 1465.09 102.494 1470.23 102.499L1470.21 118.507Z" fill="#F4F8FB"/>
<path d="M1615.65 118.612C1602.68 118.646 1595.88 112.611 1590.84 108.187C1586.35 104.278 1584.16 102.495 1579.02 102.49C1573.88 102.485 1571.66 104.264 1567.18 108.179C1562.17 112.501 1555.34 118.491 1542.37 118.525C1529.41 118.56 1522.61 112.525 1517.56 108.1C1513.07 104.191 1510.89 102.409 1505.75 102.404C1500.61 102.399 1498.39 104.177 1493.9 108.093C1488.9 112.414 1482.07 118.405 1469.1 118.439C1456.13 118.473 1449.34 112.438 1444.29 108.014C1439.8 104.105 1437.62 102.322 1432.48 102.317L1432.5 86.3097C1445.46 86.2754 1452.26 92.3103 1457.31 96.7349C1461.8 100.643 1463.98 102.426 1469.12 102.431C1474.26 102.436 1476.49 100.658 1480.97 96.7421C1485.97 92.4209 1492.8 86.4304 1505.77 86.3961C1518.74 86.3618 1525.54 92.3968 1530.58 96.8213C1535.07 100.73 1537.25 102.512 1542.4 102.517C1547.54 102.522 1549.76 100.744 1554.24 96.8285C1559.24 92.5074 1566.08 86.5169 1579.04 86.4827C1592.01 86.4483 1598.81 92.4832 1603.85 96.9078C1608.35 100.816 1610.53 102.599 1615.67 102.604L1615.65 118.612Z" fill="#F4F8FB"/>
<path d="M1762.03 118.725C1749.06 118.759 1742.26 112.724 1737.21 108.299C1732.72 104.391 1730.54 102.608 1725.4 102.603C1720.26 102.598 1718.04 104.377 1713.55 108.292C1708.55 112.613 1701.72 118.604 1688.75 118.638C1675.78 118.672 1668.99 112.638 1663.94 108.213C1659.45 104.304 1657.27 102.522 1652.13 102.517C1646.99 102.512 1644.76 104.29 1640.28 108.206C1635.28 112.527 1628.45 118.517 1615.48 118.552C1602.51 118.586 1595.71 112.551 1590.67 108.126C1586.18 104.218 1583.99 102.435 1578.85 102.43L1578.87 86.4225C1591.84 86.3882 1598.64 92.423 1603.68 96.8476C1608.18 100.756 1610.36 102.539 1615.5 102.544C1620.64 102.549 1622.86 100.771 1627.34 96.855C1632.35 92.5338 1639.18 86.5433 1652.15 86.5089C1665.11 86.4747 1671.91 92.5096 1676.96 96.9342C1681.45 100.843 1683.63 102.625 1688.77 102.63C1693.91 102.635 1696.14 100.857 1700.62 96.9414C1705.62 92.6202 1712.45 86.6298 1725.42 86.5955C1738.39 86.5612 1745.19 92.596 1750.23 97.0206C1754.72 100.929 1756.91 102.712 1762.05 102.717L1762.03 118.725Z" fill="#F4F8FB"/>
<path d="M1907.2 118.646C1894.23 118.68 1887.43 112.645 1882.39 108.221C1877.9 104.312 1875.71 102.53 1870.57 102.525C1865.43 102.52 1863.21 104.298 1858.73 108.214C1853.72 112.535 1846.89 118.525 1833.92 118.559C1820.96 118.594 1814.16 112.559 1809.11 108.134C1804.62 104.226 1802.44 102.443 1797.3 102.438C1792.16 102.433 1789.93 104.211 1785.45 108.127C1780.45 112.448 1773.62 118.439 1760.65 118.473C1747.68 118.507 1740.88 112.472 1735.84 108.048C1731.35 104.139 1729.17 102.357 1724.02 102.352L1724.04 86.3439C1737.01 86.3096 1743.81 92.3444 1748.86 96.769C1753.35 100.678 1755.53 102.46 1760.67 102.465C1765.81 102.47 1768.03 100.692 1772.52 96.7763C1777.52 92.4551 1784.35 86.4646 1797.32 86.4303C1810.29 86.3959 1817.08 92.431 1822.13 96.8556C1826.62 100.764 1828.8 102.547 1833.94 102.552C1839.08 102.557 1841.31 100.778 1845.79 96.8627C1850.79 92.5416 1857.62 86.5511 1870.59 86.5169C1883.56 86.4825 1890.36 92.5173 1895.4 96.942C1899.89 100.851 1902.08 102.633 1907.22 102.638L1907.2 118.646Z" fill="#F4F8FB"/>
<path d="M2053.57 118.759C2040.61 118.793 2033.81 112.758 2028.76 108.334C2024.27 104.425 2022.09 102.642 2016.95 102.638C2011.81 102.633 2009.59 104.411 2005.1 108.326C2000.1 112.648 1993.27 118.638 1980.3 118.672C1967.33 118.707 1960.53 112.672 1955.49 108.247C1951 104.338 1948.82 102.556 1943.67 102.551C1938.53 102.546 1936.31 104.324 1931.83 108.24C1926.83 112.561 1919.99 118.552 1907.03 118.586C1894.06 118.62 1887.26 112.585 1882.22 108.161C1877.72 104.252 1875.54 102.47 1870.4 102.465L1870.42 86.4567C1883.39 86.4224 1890.19 92.4573 1895.23 96.8818C1899.72 100.791 1901.91 102.573 1907.05 102.578C1912.19 102.583 1914.41 100.805 1918.89 96.8892C1923.9 92.568 1930.73 86.5775 1943.7 86.5432C1956.66 86.5089 1963.46 92.5438 1968.51 96.9684C1973 100.877 1975.18 102.66 1980.32 102.664C1985.46 102.669 1987.68 100.891 1992.17 96.9756C1997.17 92.6544 2004 86.664 2016.97 86.6297C2029.94 86.5954 2036.73 92.6302 2041.78 97.0548C2046.27 100.963 2048.45 102.746 2053.59 102.751L2053.57 118.759Z" fill="#F4F8FB"/>
<path d="M2199.01 118.863C2186.04 118.898 2179.24 112.863 2174.2 108.438C2169.71 104.529 2167.52 102.747 2162.38 102.742C2157.24 102.737 2155.02 104.515 2150.54 108.431C2145.53 112.752 2138.7 118.743 2125.73 118.777C2112.77 118.811 2105.97 112.776 2100.92 108.352C2096.43 104.443 2094.25 102.661 2089.11 102.656C2083.97 102.651 2081.75 104.429 2077.26 108.344C2072.26 112.666 2065.43 118.656 2052.46 118.691C2039.49 118.725 2032.69 112.69 2027.65 108.265C2023.16 104.357 2020.98 102.574 2015.84 102.569L2015.86 86.5614C2028.82 86.5271 2035.62 92.5619 2040.67 96.9865C2045.16 100.895 2047.34 102.678 2052.48 102.683C2057.62 102.688 2059.84 100.909 2064.33 96.9938C2069.33 92.6726 2076.16 86.6821 2089.13 86.6478C2102.1 86.6135 2108.9 92.6484 2113.94 97.073C2118.43 100.982 2120.61 102.764 2125.75 102.769C2130.9 102.774 2133.12 100.996 2137.6 97.0802C2142.6 92.759 2149.44 86.7686 2162.4 86.7343C2175.37 86.7 2182.17 92.7349 2187.21 97.1595C2191.7 101.068 2193.89 102.851 2199.03 102.856L2199.01 118.863Z" fill="#F4F8FB"/>
<path d="M2345.38 118.976C2332.42 119.011 2325.62 112.976 2320.57 108.551C2316.08 104.642 2313.9 102.86 2308.76 102.855C2303.62 102.85 2301.4 104.628 2296.91 108.544C2291.91 112.865 2285.08 118.855 2272.11 118.89C2259.14 118.924 2252.35 112.889 2247.3 108.465C2242.81 104.556 2240.63 102.773 2235.49 102.768C2230.35 102.763 2228.12 104.542 2223.64 108.457C2218.64 112.778 2211.81 118.769 2198.84 118.803C2185.87 118.838 2179.07 112.803 2174.03 108.378C2169.54 104.47 2167.35 102.687 2162.21 102.682L2162.23 86.6743C2175.2 86.6399 2182 92.6747 2187.04 97.0993C2191.53 101.008 2193.72 102.791 2198.86 102.796C2204 102.801 2206.22 101.022 2210.7 97.1067C2215.71 92.7855 2222.54 86.795 2235.51 86.7606C2248.47 86.7263 2255.27 92.7613 2260.32 97.1859C2264.81 101.095 2266.99 102.877 2272.13 102.882C2277.27 102.887 2279.5 101.109 2283.98 97.193C2288.98 92.8719 2295.81 86.8815 2308.78 86.8472C2321.75 86.8128 2328.55 92.8477 2333.59 97.2723C2338.08 101.181 2340.26 102.964 2345.41 102.969L2345.38 118.976Z" fill="#F4F8FB"/>
</g>
<g opacity="0.5">
<path d="M157.119 162.891C144.151 162.925 137.352 156.89 132.307 152.466C127.816 148.557 125.634 146.775 120.493 146.77C115.353 146.765 113.129 148.543 108.647 152.458C103.644 156.78 96.8124 162.77 83.8449 162.804C70.8773 162.839 64.0789 156.804 59.0336 152.379C54.5429 148.471 52.36 146.688 47.2195 146.683C42.0791 146.678 39.856 148.456 35.3732 152.372C30.3706 156.693 23.5388 162.684 10.5713 162.718C-2.39633 162.752 -9.19473 156.717 -14.24 152.293C-18.7307 148.384 -20.9135 146.602 -26.0539 146.597L-26.0336 130.589C-13.066 130.554 -6.26767 136.589 -1.22242 141.014C3.26831 144.923 5.45118 146.705 10.5917 146.71C15.7321 146.715 17.9553 144.937 22.438 141.021C27.4407 136.7 34.2724 130.71 47.2399 130.675C60.2075 130.641 67.006 136.676 72.0513 141.101C76.542 145.009 78.7248 146.792 83.8653 146.797C89.0057 146.802 91.2289 145.023 95.7116 141.108C100.714 136.787 107.546 130.796 120.514 130.762C133.481 130.728 140.28 136.762 145.325 141.187C149.816 145.096 151.998 146.878 157.139 146.883L157.119 162.891Z" fill="#F4F8FB"/>
<path d="M303.495 163.004C290.528 163.038 283.729 157.003 278.684 152.579C274.193 148.67 272.01 146.887 266.87 146.882C261.73 146.878 259.506 148.656 255.024 152.571C250.021 156.893 243.189 162.883 230.222 162.917C217.254 162.952 210.456 156.917 205.41 152.492C200.92 148.583 198.737 146.801 193.596 146.796C188.456 146.791 186.233 148.569 181.75 152.485C176.747 156.806 169.916 162.797 156.948 162.831C143.98 162.865 137.182 156.83 132.137 152.406C127.646 148.497 125.463 146.714 120.323 146.71L120.343 130.702C133.311 130.667 140.109 136.702 145.154 141.127C149.645 145.036 151.828 146.818 156.968 146.823C162.109 146.828 164.332 145.05 168.815 141.134C173.817 136.813 180.649 130.822 193.617 130.788C206.584 130.754 213.383 136.789 218.428 141.213C222.919 145.122 225.102 146.905 230.242 146.909C235.382 146.914 237.606 145.136 242.088 141.221C247.091 136.899 253.923 130.909 266.89 130.875C279.858 130.84 286.656 136.875 291.702 141.3C296.192 145.209 298.375 146.991 303.516 146.996L303.495 163.004Z" fill="#F4F8FB"/>
<path d="M448.929 163.108C435.962 163.143 429.163 157.108 424.118 152.683C419.627 148.774 417.444 146.992 412.304 146.987C407.164 146.982 404.94 148.76 400.458 152.676C395.455 156.997 388.623 162.988 375.656 163.022C362.688 163.056 355.89 157.021 350.844 152.597C346.354 148.688 344.171 146.906 339.03 146.901C333.89 146.896 331.667 148.674 327.184 152.589C322.181 156.911 315.35 162.901 302.382 162.936C289.415 162.97 282.616 156.935 277.571 152.51C273.08 148.602 270.897 146.819 265.757 146.814L265.777 130.806C278.745 130.772 285.543 136.807 290.588 141.232C295.079 145.14 297.262 146.923 302.402 146.928C307.543 146.933 309.766 145.154 314.249 141.239C319.252 136.918 326.083 130.927 339.051 130.893C352.018 130.859 358.817 136.893 363.862 141.318C368.353 145.227 370.536 147.009 375.676 147.014C380.817 147.019 383.04 145.241 387.523 141.325C392.525 137.004 399.357 131.014 412.324 130.979C425.292 130.945 432.091 136.98 437.136 141.404C441.626 145.313 443.809 147.096 448.95 147.101L448.929 163.108Z" fill="#F4F8FB"/>
<path d="M595.306 163.221C582.339 163.255 575.54 157.221 570.495 152.796C566.004 148.887 563.821 147.105 558.681 147.1C553.54 147.095 551.317 148.873 546.835 152.789C541.832 157.11 535 163.1 522.033 163.135C509.065 163.169 502.267 157.134 497.221 152.71C492.731 148.801 490.548 147.018 485.407 147.013C480.267 147.008 478.044 148.787 473.561 152.702C468.558 157.023 461.727 163.014 448.759 163.048C435.791 163.083 428.993 157.048 423.948 152.623C419.457 148.714 417.274 146.932 412.134 146.927L412.154 130.919C425.122 130.885 431.92 136.92 436.965 141.344C441.456 145.253 443.639 147.036 448.779 147.041C453.92 147.046 456.143 145.267 460.626 141.352C465.628 137.03 472.46 131.04 485.428 131.006C498.395 130.971 505.194 137.006 510.239 141.431C514.73 145.34 516.912 147.122 522.053 147.127C527.193 147.132 529.417 145.354 533.899 141.438C538.902 137.117 545.734 131.126 558.701 131.092C571.669 131.058 578.467 137.093 583.513 141.517C588.003 145.426 590.186 147.208 595.327 147.213L595.306 163.221Z" fill="#F4F8FB"/>
<path d="M740.478 163.143C727.511 163.177 720.712 157.142 715.667 152.717C711.176 148.809 708.993 147.026 703.853 147.021C698.712 147.016 696.489 148.795 692.006 152.71C687.004 157.031 680.172 163.022 667.204 163.056C654.237 163.09 647.438 157.056 642.393 152.631C637.902 148.722 635.72 146.94 630.579 146.935C625.439 146.93 623.215 148.708 618.733 152.624C613.73 156.945 606.898 162.935 593.931 162.97C580.963 163.004 574.165 156.969 569.12 152.544C564.629 148.636 562.446 146.853 557.306 146.848L557.326 130.841C570.293 130.806 577.092 136.841 582.137 141.266C586.628 145.174 588.811 146.957 593.951 146.962C599.092 146.967 601.315 145.189 605.798 141.273C610.8 136.952 617.632 130.961 630.599 130.927C643.567 130.893 650.366 136.928 655.411 141.352C659.902 145.261 662.084 147.043 667.225 147.048C672.365 147.053 674.588 145.275 679.071 141.359C684.074 137.038 690.906 131.048 703.873 131.013C716.841 130.979 723.639 137.014 728.684 141.439C733.175 145.347 735.358 147.13 740.498 147.135L740.478 163.143Z" fill="#F4F8FB"/>
<path d="M886.855 163.255C873.887 163.29 867.089 157.255 862.043 152.83C857.553 148.922 855.37 147.139 850.23 147.134C845.089 147.129 842.866 148.907 838.383 152.823C833.381 157.144 826.549 163.135 813.581 163.169C800.614 163.203 793.815 157.168 788.77 152.744C784.279 148.835 782.096 147.053 776.956 147.048C771.815 147.043 769.592 148.821 765.11 152.737C760.107 157.058 753.275 163.048 740.308 163.083C727.34 163.117 720.542 157.082 715.496 152.657C711.006 148.749 708.823 146.966 703.682 146.961L703.703 130.953C716.67 130.919 723.469 136.954 728.514 141.379C733.005 145.287 735.188 147.07 740.328 147.075C745.468 147.08 747.692 145.301 752.174 141.386C757.177 137.065 764.009 131.074 776.976 131.04C789.944 131.006 796.742 137.04 801.788 141.465C806.278 145.374 808.461 147.156 813.602 147.161C818.742 147.166 820.965 145.388 825.448 141.472C830.451 137.151 837.282 131.161 850.25 131.126C863.217 131.092 870.016 137.127 875.061 141.551C879.552 145.46 881.735 147.243 886.875 147.248L886.855 163.255Z" fill="#F4F8FB"/>
<path d="M1032.29 163.36C1019.32 163.394 1012.52 157.359 1007.48 152.935C1002.99 149.026 1000.8 147.244 995.664 147.239C990.523 147.234 988.3 149.012 983.817 152.928C978.815 157.249 971.983 163.239 959.015 163.274C946.048 163.308 939.249 157.273 934.204 152.848C929.713 148.94 927.53 147.157 922.39 147.152C917.25 147.147 915.026 148.926 910.544 152.841C905.541 157.162 898.709 163.153 885.742 163.187C872.774 163.221 865.976 157.187 860.93 152.762C856.44 148.853 854.257 147.071 849.116 147.066L849.137 131.058C862.104 131.024 868.903 137.059 873.948 141.483C878.439 145.392 880.622 147.174 885.762 147.179C890.903 147.184 893.126 145.406 897.608 141.49C902.611 137.169 909.443 131.179 922.41 131.144C935.378 131.11 942.176 137.145 947.222 141.57C951.712 145.478 953.895 147.261 959.036 147.266C964.176 147.271 966.399 145.493 970.882 141.577C975.885 137.256 982.716 131.265 995.684 131.231C1008.65 131.197 1015.45 137.232 1020.5 141.656C1024.99 145.565 1027.17 147.347 1032.31 147.352L1032.29 163.36Z" fill="#F4F8FB"/>
<path d="M1178.67 163.473C1165.7 163.507 1158.9 157.472 1153.85 153.048C1149.36 149.139 1147.18 147.357 1142.04 147.352C1136.9 147.347 1134.68 149.125 1130.19 153.04C1125.19 157.362 1118.36 163.352 1105.39 163.386C1092.42 163.421 1085.63 157.386 1080.58 152.961C1076.09 149.053 1073.91 147.27 1068.77 147.265C1063.63 147.26 1061.4 149.038 1056.92 152.954C1051.92 157.275 1045.09 163.266 1032.12 163.3C1019.15 163.334 1012.35 157.299 1007.31 152.875C1002.82 148.966 1000.63 147.184 995.493 147.179L995.514 131.171C1008.48 131.137 1015.28 137.171 1020.32 141.596C1024.82 145.505 1027 147.287 1032.14 147.292C1037.28 147.297 1039.5 145.519 1043.99 141.603C1048.99 137.282 1055.82 131.292 1068.79 131.257C1081.75 131.223 1088.55 137.258 1093.6 141.683C1098.09 145.591 1100.27 147.374 1105.41 147.379C1110.55 147.384 1112.78 145.605 1117.26 141.69C1122.26 137.369 1129.09 131.378 1142.06 131.344C1155.03 131.309 1161.83 137.344 1166.87 141.769C1171.36 145.678 1173.55 147.46 1178.69 147.465L1178.67 163.473Z" fill="#F4F8FB"/>
<path d="M1323.84 163.394C1310.87 163.429 1304.07 157.394 1299.03 152.969C1294.54 149.06 1292.35 147.278 1287.21 147.273C1282.07 147.268 1279.85 149.046 1275.37 152.962C1270.36 157.283 1263.53 163.273 1250.56 163.308C1237.6 163.342 1230.8 157.307 1225.75 152.883C1221.26 148.974 1219.08 147.191 1213.94 147.186C1208.8 147.181 1206.58 148.96 1202.09 152.875C1197.09 157.196 1190.26 163.187 1177.29 163.221C1164.32 163.256 1157.52 157.221 1152.48 152.796C1147.99 148.887 1145.81 147.105 1140.67 147.1L1140.69 131.092C1153.65 131.058 1160.45 137.093 1165.5 141.517C1169.99 145.426 1172.17 147.209 1177.31 147.214C1182.45 147.219 1184.67 145.44 1189.16 141.525C1194.16 137.203 1200.99 131.213 1213.96 131.179C1226.93 131.144 1233.73 137.179 1238.77 141.604C1243.26 145.513 1245.44 147.295 1250.58 147.3C1255.72 147.305 1257.95 145.527 1262.43 141.611C1267.43 137.29 1274.27 131.299 1287.23 131.265C1300.2 131.231 1307 137.266 1312.04 141.69C1316.53 145.599 1318.72 147.382 1323.86 147.386L1323.84 163.394Z" fill="#F4F8FB"/>
<path d="M1470.21 163.507C1457.25 163.541 1450.45 157.506 1445.4 153.082C1440.91 149.173 1438.73 147.391 1433.59 147.386C1428.45 147.381 1426.23 149.159 1421.74 153.075C1416.74 157.396 1409.91 163.386 1396.94 163.421C1383.97 163.455 1377.17 157.42 1372.13 152.995C1367.64 149.087 1365.46 147.304 1360.32 147.299C1355.18 147.294 1352.95 149.073 1348.47 152.988C1343.47 157.309 1336.63 163.3 1323.67 163.334C1310.7 163.369 1303.9 157.334 1298.86 152.909C1294.37 149 1292.18 147.218 1287.04 147.213L1287.06 131.205C1300.03 131.171 1306.83 137.206 1311.87 141.63C1316.36 145.539 1318.55 147.321 1323.69 147.326C1328.83 147.331 1331.05 145.553 1335.53 141.638C1340.54 137.316 1347.37 131.326 1360.34 131.291C1373.3 131.257 1380.1 137.292 1385.15 141.717C1389.64 145.625 1391.82 147.408 1396.96 147.413C1402.1 147.418 1404.32 145.64 1408.81 141.724C1413.81 137.403 1420.64 131.412 1433.61 131.378C1446.58 131.344 1453.38 137.379 1458.42 141.803C1462.91 145.712 1465.09 147.494 1470.23 147.499L1470.21 163.507Z" fill="#F4F8FB"/>
<path d="M1615.65 163.612C1602.68 163.646 1595.88 157.611 1590.84 153.187C1586.35 149.278 1584.16 147.495 1579.02 147.49C1573.88 147.485 1571.66 149.264 1567.18 153.179C1562.17 157.501 1555.34 163.491 1542.37 163.525C1529.41 163.56 1522.61 157.525 1517.56 153.1C1513.07 149.191 1510.89 147.409 1505.75 147.404C1500.61 147.399 1498.39 149.177 1493.9 153.093C1488.9 157.414 1482.07 163.405 1469.1 163.439C1456.13 163.473 1449.34 157.438 1444.29 153.014C1439.8 149.105 1437.62 147.322 1432.48 147.317L1432.5 131.31C1445.46 131.275 1452.26 137.31 1457.31 141.735C1461.8 145.643 1463.98 147.426 1469.12 147.431C1474.26 147.436 1476.49 145.658 1480.97 141.742C1485.97 137.421 1492.8 131.43 1505.77 131.396C1518.74 131.362 1525.54 137.397 1530.58 141.821C1535.07 145.73 1537.25 147.512 1542.4 147.517C1547.54 147.522 1549.76 145.744 1554.24 141.829C1559.24 137.507 1566.08 131.517 1579.04 131.483C1592.01 131.448 1598.81 137.483 1603.85 141.908C1608.35 145.816 1610.53 147.599 1615.67 147.604L1615.65 163.612Z" fill="#F4F8FB"/>
<path d="M1762.03 163.725C1749.06 163.759 1742.26 157.724 1737.21 153.299C1732.72 149.391 1730.54 147.608 1725.4 147.603C1720.26 147.598 1718.04 149.377 1713.55 153.292C1708.55 157.613 1701.72 163.604 1688.75 163.638C1675.78 163.672 1668.99 157.638 1663.94 153.213C1659.45 149.304 1657.27 147.522 1652.13 147.517C1646.99 147.512 1644.76 149.29 1640.28 153.206C1635.28 157.527 1628.45 163.517 1615.48 163.552C1602.51 163.586 1595.71 157.551 1590.67 153.126C1586.18 149.218 1583.99 147.435 1578.85 147.43L1578.87 131.423C1591.84 131.388 1598.64 137.423 1603.68 141.848C1608.18 145.756 1610.36 147.539 1615.5 147.544C1620.64 147.549 1622.86 145.771 1627.34 141.855C1632.35 137.534 1639.18 131.543 1652.15 131.509C1665.11 131.475 1671.91 137.51 1676.96 141.934C1681.45 145.843 1683.63 147.625 1688.77 147.63C1693.91 147.635 1696.14 145.857 1700.62 141.941C1705.62 137.62 1712.45 131.63 1725.42 131.596C1738.39 131.561 1745.19 137.596 1750.23 142.021C1754.72 145.929 1756.91 147.712 1762.05 147.717L1762.03 163.725Z" fill="#F4F8FB"/>
<path d="M1907.2 163.646C1894.23 163.68 1887.43 157.645 1882.39 153.221C1877.9 149.312 1875.71 147.53 1870.57 147.525C1865.43 147.52 1863.21 149.298 1858.73 153.214C1853.72 157.535 1846.89 163.525 1833.92 163.559C1820.96 163.594 1814.16 157.559 1809.11 153.134C1804.62 149.226 1802.44 147.443 1797.3 147.438C1792.16 147.433 1789.93 149.211 1785.45 153.127C1780.45 157.448 1773.62 163.439 1760.65 163.473C1747.68 163.507 1740.88 157.472 1735.84 153.048C1731.35 149.139 1729.17 147.357 1724.02 147.352L1724.04 131.344C1737.01 131.31 1743.81 137.344 1748.86 141.769C1753.35 145.678 1755.53 147.46 1760.67 147.465C1765.81 147.47 1768.03 145.692 1772.52 141.776C1777.52 137.455 1784.35 131.465 1797.32 131.43C1810.29 131.396 1817.08 137.431 1822.13 141.856C1826.62 145.764 1828.8 147.547 1833.94 147.552C1839.08 147.557 1841.31 145.778 1845.79 141.863C1850.79 137.542 1857.62 131.551 1870.59 131.517C1883.56 131.483 1890.36 137.517 1895.4 141.942C1899.89 145.851 1902.08 147.633 1907.22 147.638L1907.2 163.646Z" fill="#F4F8FB"/>
<path d="M2053.57 163.759C2040.61 163.793 2033.81 157.758 2028.76 153.334C2024.27 149.425 2022.09 147.642 2016.95 147.638C2011.81 147.633 2009.59 149.411 2005.1 153.326C2000.1 157.648 1993.27 163.638 1980.3 163.672C1967.33 163.707 1960.53 157.672 1955.49 153.247C1951 149.338 1948.82 147.556 1943.67 147.551C1938.53 147.546 1936.31 149.324 1931.83 153.24C1926.83 157.561 1919.99 163.552 1907.03 163.586C1894.06 163.62 1887.26 157.585 1882.22 153.161C1877.72 149.252 1875.54 147.47 1870.4 147.465L1870.42 131.457C1883.39 131.422 1890.19 137.457 1895.23 141.882C1899.72 145.791 1901.91 147.573 1907.05 147.578C1912.19 147.583 1914.41 145.805 1918.89 141.889C1923.9 137.568 1930.73 131.578 1943.7 131.543C1956.66 131.509 1963.46 137.544 1968.51 141.968C1973 145.877 1975.18 147.66 1980.32 147.664C1985.46 147.669 1987.68 145.891 1992.17 141.976C1997.17 137.654 2004 131.664 2016.97 131.63C2029.94 131.595 2036.73 137.63 2041.78 142.055C2046.27 145.963 2048.45 147.746 2053.59 147.751L2053.57 163.759Z" fill="#F4F8FB"/>
<path d="M2199.01 163.863C2186.04 163.898 2179.24 157.863 2174.2 153.438C2169.71 149.529 2167.52 147.747 2162.38 147.742C2157.24 147.737 2155.02 149.515 2150.54 153.431C2145.53 157.752 2138.7 163.743 2125.73 163.777C2112.77 163.811 2105.97 157.776 2100.92 153.352C2096.43 149.443 2094.25 147.661 2089.11 147.656C2083.97 147.651 2081.75 149.429 2077.26 153.344C2072.26 157.666 2065.43 163.656 2052.46 163.691C2039.49 163.725 2032.69 157.69 2027.65 153.265C2023.16 149.357 2020.98 147.574 2015.84 147.569L2015.86 131.561C2028.82 131.527 2035.62 137.562 2040.67 141.986C2045.16 145.895 2047.34 147.678 2052.48 147.683C2057.62 147.688 2059.84 145.909 2064.33 141.994C2069.33 137.673 2076.16 131.682 2089.13 131.648C2102.1 131.613 2108.9 137.648 2113.94 142.073C2118.43 145.982 2120.61 147.764 2125.75 147.769C2130.9 147.774 2133.12 145.996 2137.6 142.08C2142.6 137.759 2149.44 131.769 2162.4 131.734C2175.37 131.7 2182.17 137.735 2187.21 142.159C2191.7 146.068 2193.89 147.851 2199.03 147.856L2199.01 163.863Z" fill="#F4F8FB"/>
<path d="M2345.38 163.976C2332.42 164.011 2325.62 157.976 2320.57 153.551C2316.08 149.642 2313.9 147.86 2308.76 147.855C2303.62 147.85 2301.4 149.628 2296.91 153.544C2291.91 157.865 2285.08 163.855 2272.11 163.89C2259.14 163.924 2252.35 157.889 2247.3 153.465C2242.81 149.556 2240.63 147.773 2235.49 147.768C2230.35 147.763 2228.12 149.542 2223.64 153.457C2218.64 157.778 2211.81 163.769 2198.84 163.803C2185.87 163.838 2179.07 157.803 2174.03 153.378C2169.54 149.47 2167.35 147.687 2162.21 147.682L2162.23 131.674C2175.2 131.64 2182 137.675 2187.04 142.099C2191.53 146.008 2193.72 147.791 2198.86 147.796C2204 147.801 2206.22 146.022 2210.7 142.107C2215.71 137.785 2222.54 131.795 2235.51 131.761C2248.47 131.726 2255.27 137.761 2260.32 142.186C2264.81 146.095 2266.99 147.877 2272.13 147.882C2277.27 147.887 2279.5 146.109 2283.98 142.193C2288.98 137.872 2295.81 131.882 2308.78 131.847C2321.75 131.813 2328.55 137.848 2333.59 142.272C2338.08 146.181 2340.26 147.964 2345.41 147.969L2345.38 163.976Z" fill="#F4F8FB"/>
</g>
</g>
</svg>
