<svg width="364" height="737" viewBox="0 0 364 737" fill="none" xmlns="http://www.w3.org/2000/svg">
<mask id="mask0_6005_10961" style="mask-type:alpha" maskUnits="userSpaceOnUse" x="-6" y="0" width="374" height="737">
<rect x="-6" y="0.447266" width="374" height="736" fill="white"/>
</mask>
<g mask="url(#mask0_6005_10961)">
<rect x="-6" y="0.447266" width="374" height="736" fill="#F6F9FC"/>
<rect x="-647.982" y="594.191" width="28.0102" height="1300" transform="rotate(-45.2228 -647.982 594.191)" fill="white"/>
<rect x="-614.166" y="560.111" width="28.0102" height="1300" transform="rotate(-45.2228 -614.166 560.111)" fill="white"/>
<rect x="-580.352" y="526.031" width="28.0102" height="1300" transform="rotate(-45.2228 -580.352 526.031)" fill="white"/>
<rect x="-546.535" y="491.951" width="28.0102" height="1300" transform="rotate(-45.2228 -546.535 491.951)" fill="white"/>
<rect x="-512.719" y="457.871" width="28.0102" height="1300" transform="rotate(-45.2228 -512.719 457.871)" fill="white"/>
<rect x="-478.902" y="423.791" width="28.0102" height="1300" transform="rotate(-45.2228 -478.902 423.791)" fill="white"/>
<rect x="-445.086" y="389.711" width="28.0102" height="1300" transform="rotate(-45.2228 -445.086 389.711)" fill="white"/>
<rect x="-411.27" y="355.631" width="28.0102" height="1300" transform="rotate(-45.2228 -411.27 355.631)" fill="white"/>
<rect x="-377.455" y="321.551" width="28.0102" height="1300" transform="rotate(-45.2228 -377.455 321.551)" fill="white"/>
<rect x="-343.639" y="287.471" width="28.0102" height="1300" transform="rotate(-45.2228 -343.639 287.471)" fill="white"/>
<rect x="-309.822" y="253.391" width="28.0102" height="1300" transform="rotate(-45.2228 -309.822 253.391)" fill="white"/>
<rect x="-276.006" y="219.311" width="28.0102" height="1300" transform="rotate(-45.2228 -276.006 219.311)" fill="white"/>
<rect x="-242.189" y="185.23" width="28.0102" height="1300" transform="rotate(-45.2228 -242.189 185.23)" fill="white"/>
<rect x="-208.373" y="151.15" width="28.0102" height="1300" transform="rotate(-45.2228 -208.373 151.15)" fill="white"/>
<rect x="-174.557" y="117.07" width="28.0102" height="1300" transform="rotate(-45.2228 -174.557 117.07)" fill="white"/>
<rect x="-140.742" y="82.9902" width="28.0102" height="1300" transform="rotate(-45.2228 -140.742 82.9902)" fill="white"/>
<rect x="-106.926" y="48.9092" width="28.0102" height="1300" transform="rotate(-45.2228 -106.926 48.9092)" fill="white"/>
<rect x="-73.1094" y="14.8291" width="28.0102" height="1300" transform="rotate(-45.2228 -73.1094 14.8291)" fill="white"/>
<rect x="-39.293" y="-19.251" width="28.0102" height="1300" transform="rotate(-45.2228 -39.293 -19.251)" fill="white"/>
<circle cx="437.787" cy="440.234" r="140.708" stroke="#F4CE43" stroke-width="72.158"/>
</g>
</svg>
