<svg width="365" height="597" viewBox="0 0 365 597" fill="none" xmlns="http://www.w3.org/2000/svg">
<g clip-path="url(#clip0_4091_21799)">
<rect width="367" height="597" transform="translate(0.460938)" fill="#1C1C1C"/>
<circle cx="-65.2695" cy="421.421" r="130.079" stroke="#FFD130" stroke-width="57.7052"/>
<rect x="698.562" y="-335.351" width="28.0102" height="1300" transform="rotate(45.22 698.562 -335.351)" fill="white" fill-opacity="0.03"/>
<rect x="732.381" y="-301.272" width="28.0102" height="1300" transform="rotate(45.22 732.381 -301.272)" fill="white" fill-opacity="0.03"/>
<rect x="766.197" y="-267.194" width="28.0102" height="1300" transform="rotate(45.22 766.197 -267.194)" fill="white" fill-opacity="0.03"/>
<rect x="800.016" y="-233.115" width="28.0102" height="1300" transform="rotate(45.22 800.016 -233.115)" fill="white" fill-opacity="0.03"/>
<rect x="833.834" y="-199.037" width="28.0102" height="1300" transform="rotate(45.22 833.834 -199.037)" fill="white" fill-opacity="0.03"/>
<rect x="867.65" y="-164.958" width="28.0102" height="1300" transform="rotate(45.22 867.65 -164.958)" fill="white" fill-opacity="0.03"/>
<rect x="901.469" y="-130.88" width="28.0102" height="1300" transform="rotate(45.22 901.469 -130.88)" fill="white" fill-opacity="0.03"/>
<rect x="935.287" y="-96.8015" width="28.0102" height="1300" transform="rotate(45.22 935.287 -96.8015)" fill="white" fill-opacity="0.03"/>
<rect x="969.105" y="-62.7231" width="28.0102" height="1300" transform="rotate(45.22 969.105 -62.7231)" fill="white" fill-opacity="0.03"/>
<rect x="1002.92" y="-28.6445" width="28.0102" height="1300" transform="rotate(45.22 1002.92 -28.6445)" fill="white" fill-opacity="0.03"/>
<rect x="1036.74" y="5.43384" width="28.0102" height="1300" transform="rotate(45.22 1036.74 5.43384)" fill="white" fill-opacity="0.03"/>
<rect x="1070.56" y="39.5125" width="28.0102" height="1300" transform="rotate(45.22 1070.56 39.5125)" fill="white" fill-opacity="0.03"/>
<rect x="1104.38" y="73.5908" width="28.0102" height="1300" transform="rotate(45.22 1104.38 73.5908)" fill="white" fill-opacity="0.03"/>
<rect x="1138.19" y="107.669" width="28.0102" height="1300" transform="rotate(45.22 1138.19 107.669)" fill="white" fill-opacity="0.03"/>
<rect x="1172.01" y="141.748" width="28.0102" height="1300" transform="rotate(45.22 1172.01 141.748)" fill="white" fill-opacity="0.03"/>
<rect x="1205.83" y="175.826" width="28.0102" height="1300" transform="rotate(45.22 1205.83 175.826)" fill="white" fill-opacity="0.03"/>
<rect x="1239.65" y="209.905" width="28.0102" height="1300" transform="rotate(45.22 1239.65 209.905)" fill="white" fill-opacity="0.03"/>
<rect x="1273.46" y="243.983" width="28.0102" height="1300" transform="rotate(45.22 1273.46 243.983)" fill="white" fill-opacity="0.03"/>
<path d="M358.793 90.9492C368.792 90.9492 376.793 98.8442 376.793 108.456C376.793 118.068 368.792 125.964 358.793 125.964C348.794 125.964 340.793 118.068 340.793 108.456C340.793 98.8442 348.794 90.9492 358.793 90.9492Z" stroke="#FFD130" stroke-width="5"/>
<path d="M275.109 540.39C282.242 540.39 288.109 546.386 288.109 553.89C288.109 561.394 282.242 567.39 275.109 567.39C267.977 567.39 262.109 561.394 262.109 553.89C262.109 546.386 267.977 540.39 275.109 540.39Z" stroke="#F4CE43" stroke-width="3"/>
<circle cx="228.109" cy="506.39" r="6" stroke="#FFD130" stroke-width="5"/>
</g>
<defs>
<clipPath id="clip0_4091_21799">
<rect width="367" height="597" fill="white" transform="translate(0.460938)"/>
</clipPath>
</defs>
</svg>
