<svg width="364" height="1144" viewBox="0 0 364 1144" fill="none" xmlns="http://www.w3.org/2000/svg">
<g clip-path="url(#clip0_4202_40220)">
<rect x="707.688" y="-573.207" width="28.0102" height="2281.65" transform="rotate(35.8131 707.688 -573.207)" fill="#F4F8FB" fill-opacity="0.3"/>
<rect x="727.537" y="-518.665" width="28.0102" height="2216.41" transform="rotate(35.8131 727.537 -518.665)" fill="#F4F8FB" fill-opacity="0.3"/>
<rect x="746.652" y="-463.108" width="28.0102" height="2148.68" transform="rotate(35.8131 746.652 -463.108)" fill="#F4F8FB" fill-opacity="0.3"/>
<rect x="731.453" y="-359.995" width="28.0102" height="1963.66" transform="rotate(35.8131 731.453 -359.995)" fill="#F4F8FB" fill-opacity="0.3"/>
<rect x="744.615" y="-296.188" width="28.0102" height="1875.57" transform="rotate(35.8131 744.615 -296.188)" fill="#F4F8FB" fill-opacity="0.3"/>
<rect x="755.48" y="-229.197" width="28.0102" height="1779.64" transform="rotate(35.8131 755.48 -229.197)" fill="#F4F8FB" fill-opacity="0.3"/>
<rect x="769.453" y="-166.512" width="28.0102" height="1694.32" transform="rotate(35.8131 769.453 -166.512)" fill="#F4F8FB" fill-opacity="0.3"/>
<rect x="805.301" y="-134.145" width="28.0102" height="1683.78" transform="rotate(35.8131 805.301 -134.145)" fill="#F4F8FB" fill-opacity="0.3"/>
<rect x="809.379" y="-57.7471" width="28.0102" height="1564.65" transform="rotate(35.8131 809.379 -57.7471)" fill="#F4F8FB" fill-opacity="0.3"/>
<rect x="798.027" y="40.0322" width="28.0102" height="1392.78" transform="rotate(35.8131 798.027 40.0322)" fill="#F4F8FB" fill-opacity="0.3"/>
<rect x="809.816" y="105.744" width="28.0102" height="1300" transform="rotate(35.8131 809.816 105.744)" fill="#F4F8FB" fill-opacity="0.3"/>
<rect x="848.75" y="133.837" width="28.0102" height="1300" transform="rotate(35.8131 848.75 133.837)" fill="#F4F8FB" fill-opacity="0.3"/>
<rect x="887.682" y="161.93" width="28.0102" height="1300" transform="rotate(35.8131 887.682 161.93)" fill="#F4F8FB" fill-opacity="0.3"/>
<rect x="926.615" y="190.022" width="28.0102" height="1300" transform="rotate(35.8131 926.615 190.022)" fill="#F4F8FB" fill-opacity="0.3"/>
<rect x="965.549" y="218.116" width="28.0102" height="1300" transform="rotate(35.8131 965.549 218.116)" fill="#F4F8FB" fill-opacity="0.3"/>
<rect x="1004.48" y="246.209" width="28.0102" height="1300" transform="rotate(35.8131 1004.48 246.209)" fill="#F4F8FB" fill-opacity="0.3"/>
<rect x="1043.41" y="274.302" width="28.0102" height="1300" transform="rotate(35.8131 1043.41 274.302)" fill="#F4F8FB" fill-opacity="0.3"/>
<path d="M173.487 184.502H181.153C188.012 184.502 193.66 186.559 193.66 193.961C193.66 200.953 188.012 203.421 181.153 203.421H173.487V184.502ZM181.153 218.637C198.905 218.637 213.429 212.057 213.429 193.961C213.429 175.455 199.308 168.874 181.153 168.874H117.884V184.502H123.229L114.757 205.066L102.048 184.502H107.898V168.874H70.3764V184.502H79.0508L104.267 222.339C102.25 225.217 97.8116 226.451 92.9701 224.806L92.5666 216.17H76.8318V237.555C81.6733 240.023 88.9355 241.668 94.9874 241.668C107.898 241.668 119.195 238.378 129.685 216.992L145.016 184.502H152.911V225.217H144.841V240.434H181.96V224.806H173.487V218.637H181.153ZM204.957 100.194V84.5656H179.539L156.542 125.281V100.194H161.787V84.5656H130.317V100.194H135.965V140.909H130.317V156.537H155.735L178.732 116.644V140.909H173.487V156.537H204.957V140.909H198.905V100.194H204.957ZM248.53 100.194H253.775V112.531H234.409V100.194H240.058V84.5656H208.588V100.194H214.236V140.909H208.588V156.537H240.058V140.909H234.409V127.748H253.775V140.909H248.53V156.537H280V140.909H273.948V100.194H280V84.5656H248.53V100.194ZM102.882 140.909H93.1988V135.562H99.6542C117.81 135.562 129.51 125.692 129.51 109.653C129.51 94.0246 117.406 84.5656 99.6542 84.5656H66.1671V100.605H73.0259V140.909H66.1671V156.537H102.882V140.909ZM93.1988 100.194H96.83C104.496 100.194 108.53 103.484 108.53 110.064C108.53 116.644 104.496 119.934 96.83 119.934H93.1988V100.194ZM217.061 168.874V184.914H224.726V225.217H217.061V240.434H254.582V225.217H244.899V184.914H263.055V192.728H278.386V168.874H217.061ZM39.5389 194.99H27.8386V184.502H46.3977V190.671H62.9395V168.874H0V184.502H7.26225V224.806H0V240.434H39.5389C55.6772 240.434 68.9914 234.985 68.9914 217.712C68.9914 200.439 56.4841 194.99 39.5389 194.99ZM39.1354 224.806H27.8386V209.795H39.1354C44.7839 209.795 49.6254 211.132 49.6254 217.301C49.6254 223.47 45.1873 224.806 39.1354 224.806ZM216.6 56.5997L195.62 0.667969H156.081V16.296H161.326L145.995 55.7772C132.277 56.5997 126.052 51.2533 124.035 40.1492C131.297 36.0366 138.559 26.9888 138.559 16.296H147.032V0.667969H113.545V16.296H119.597C119.597 24.1099 113.948 28.6338 104.669 28.6338H97.4065V16.296H104.265V0.667969H68.761V16.296H77.2336V56.5997H68.761V72.2277H103.458V56.5997H97.4065V44.2618H105.476C108.703 55.7772 115.159 64.825 123.631 68.5263C132.507 72.2277 135.683 72.2277 159.89 72.2277H173.834V56.5997H167.378L168.992 51.2533H192.393L194.007 56.5997H188.358V72.2277H223.862V56.5997H216.6ZM174.237 35.6253L180.289 18.3523L186.744 35.6253H174.237ZM62.9395 48.3745H47.2046V56.5997H27.8386V43.8506H45.9942V28.2226H27.8386V16.296H47.2046V24.5212H62.9395V0.667969H0V16.296H7.66571V56.5997H0V72.2277H62.9395V48.3745ZM212.219 0.667969V24.1099H227.147V16.296H235.62V56.5997H228.357V72.2277H263.862V56.5997H256.196V16.296H264.669V24.1099H280V0.667969H212.219ZM62.9395 132.683H47.2046V140.909H27.8386V128.159H45.9942V112.531H27.8386V100.194H47.2046V108.419H62.9395V84.5656H0V100.194H7.66571V140.909H0V156.537H62.9395V132.683Z" fill="#F1F7F9"/>
<path fill-rule="evenodd" clip-rule="evenodd" d="M-324 241.668C-293.767 241.668 -263.549 241.668 -233.316 241.668C-247.77 266.755 -262.182 291.819 -276.565 316.859C-277.961 318.715 -279.356 318.715 -280.751 316.859C-295.19 291.757 -309.602 266.693 -324 241.668Z" fill="url(#paint0_linear_4202_40220)" fill-opacity="0.5"/>
<path fill-rule="evenodd" clip-rule="evenodd" d="M-231.921 241.668C-201.689 241.668 -171.47 241.668 -141.238 241.668C-155.691 266.755 -170.103 291.819 -184.487 316.859C-185.882 318.715 -187.277 318.715 -188.672 316.859C-203.112 291.757 -217.524 266.693 -231.921 241.668Z" fill="url(#paint1_linear_4202_40220)" fill-opacity="0.5"/>
<path fill-rule="evenodd" clip-rule="evenodd" d="M-139.843 241.668C-109.61 241.668 -79.3915 241.668 -49.159 241.668C-63.6125 266.755 -78.0243 291.819 -92.4081 316.859C-93.8033 318.715 -95.1984 318.715 -96.5935 316.859C-111.033 291.757 -125.445 266.693 -139.843 241.668Z" fill="url(#paint2_linear_4202_40220)" fill-opacity="0.5"/>
<path fill-rule="evenodd" clip-rule="evenodd" d="M-47.764 241.668C-17.5314 241.668 12.6872 241.668 42.9197 241.668C28.4662 266.755 14.0544 291.819 -0.329437 316.859C-1.72458 318.715 -3.11969 318.715 -4.51483 316.859C-18.9266 291.795 -33.3522 266.732 -47.764 241.668Z" fill="url(#paint3_linear_4202_40220)" fill-opacity="0.5"/>
<path fill-rule="evenodd" clip-rule="evenodd" d="M44.3163 241.668C74.5489 241.668 104.767 241.668 135 241.668C120.546 266.755 106.135 291.819 91.7509 316.859C90.3557 318.715 88.9606 318.715 87.5655 316.859C73.1537 291.795 58.728 266.732 44.3163 241.668Z" fill="url(#paint4_linear_4202_40220)" fill-opacity="0.5"/>
<path fill-rule="evenodd" clip-rule="evenodd" d="M-324 318.251C-293.767 318.251 -263.549 318.251 -233.316 318.251C-247.77 343.339 -262.182 368.402 -276.565 393.442C-277.961 395.299 -279.356 395.299 -280.751 393.442C-295.19 368.34 -309.602 343.277 -324 318.251Z" fill="url(#paint5_linear_4202_40220)" fill-opacity="0.5"/>
<path fill-rule="evenodd" clip-rule="evenodd" d="M-231.921 318.251C-201.689 318.251 -171.47 318.251 -141.238 318.251C-155.691 343.339 -170.103 368.402 -184.487 393.442C-185.882 395.299 -187.277 395.299 -188.672 393.442C-203.112 368.34 -217.524 343.277 -231.921 318.251Z" fill="url(#paint6_linear_4202_40220)" fill-opacity="0.5"/>
<path fill-rule="evenodd" clip-rule="evenodd" d="M-139.843 318.251C-109.61 318.251 -79.3915 318.251 -49.159 318.251C-63.6125 343.339 -78.0243 368.402 -92.4081 393.442C-93.8033 395.299 -95.1984 395.299 -96.5935 393.442C-111.033 368.34 -125.445 343.277 -139.843 318.251Z" fill="url(#paint7_linear_4202_40220)" fill-opacity="0.5"/>
<path fill-rule="evenodd" clip-rule="evenodd" d="M-47.764 318.251C-17.5314 318.251 12.6872 318.251 42.9197 318.251C28.4662 343.339 14.0544 368.402 -0.329437 393.442C-1.72458 395.299 -3.11969 395.299 -4.51483 393.442C-18.9266 368.379 -33.3522 343.315 -47.764 318.251Z" fill="url(#paint8_linear_4202_40220)" fill-opacity="0.5"/>
<path fill-rule="evenodd" clip-rule="evenodd" d="M44.3163 318.251C74.5489 318.251 104.767 318.251 135 318.251C120.546 343.339 106.135 368.402 91.7509 393.442C90.3557 395.299 88.9606 395.299 87.5655 393.442C73.1537 368.379 58.728 343.315 44.3163 318.251Z" fill="url(#paint9_linear_4202_40220)" fill-opacity="0.5"/>
<path fill-rule="evenodd" clip-rule="evenodd" d="M-324 394.835C-293.767 394.835 -263.549 394.835 -233.316 394.835C-247.77 419.922 -262.182 444.986 -276.565 470.026C-277.961 471.882 -279.356 471.882 -280.751 470.026C-295.19 444.924 -309.602 419.86 -324 394.835Z" fill="url(#paint10_linear_4202_40220)" fill-opacity="0.5"/>
<path fill-rule="evenodd" clip-rule="evenodd" d="M-231.921 394.835C-201.689 394.835 -171.47 394.835 -141.238 394.835C-155.691 419.922 -170.103 444.986 -184.487 470.026C-185.882 471.882 -187.277 471.882 -188.672 470.026C-203.112 444.924 -217.524 419.86 -231.921 394.835Z" fill="url(#paint11_linear_4202_40220)" fill-opacity="0.5"/>
<path fill-rule="evenodd" clip-rule="evenodd" d="M-139.843 394.835C-109.61 394.835 -79.3915 394.835 -49.159 394.835C-63.6125 419.922 -78.0243 444.986 -92.4081 470.026C-93.8033 471.882 -95.1984 471.882 -96.5935 470.026C-111.033 444.924 -125.445 419.86 -139.843 394.835Z" fill="url(#paint12_linear_4202_40220)" fill-opacity="0.5"/>
<path fill-rule="evenodd" clip-rule="evenodd" d="M-47.764 394.835C-17.5314 394.835 12.6872 394.835 42.9197 394.835C28.4662 419.922 14.0544 444.986 -0.329437 470.026C-1.72458 471.882 -3.11969 471.882 -4.51483 470.026C-18.9266 444.962 -33.3522 419.898 -47.764 394.835Z" fill="url(#paint13_linear_4202_40220)" fill-opacity="0.5"/>
<path fill-rule="evenodd" clip-rule="evenodd" d="M44.3163 394.835C74.5489 394.835 104.767 394.835 135 394.835C120.546 419.922 106.135 444.986 91.7509 470.026C90.3557 471.882 88.9606 471.882 87.5655 470.026C73.1537 444.962 58.728 419.898 44.3163 394.835Z" fill="url(#paint14_linear_4202_40220)" fill-opacity="0.5"/>
<path fill-rule="evenodd" clip-rule="evenodd" d="M-324 471.418C-293.767 471.418 -263.549 471.418 -233.316 471.418C-247.77 496.505 -262.182 521.569 -276.565 546.609C-277.961 548.465 -279.356 548.465 -280.751 546.609C-295.19 521.507 -309.602 496.443 -324 471.418Z" fill="url(#paint15_linear_4202_40220)" fill-opacity="0.5"/>
<path fill-rule="evenodd" clip-rule="evenodd" d="M-231.921 471.418C-201.689 471.418 -171.47 471.418 -141.238 471.418C-155.691 496.505 -170.103 521.569 -184.487 546.609C-185.882 548.465 -187.277 548.465 -188.672 546.609C-203.112 521.507 -217.524 496.443 -231.921 471.418Z" fill="url(#paint16_linear_4202_40220)" fill-opacity="0.5"/>
<path fill-rule="evenodd" clip-rule="evenodd" d="M-139.843 471.418C-109.61 471.418 -79.3915 471.418 -49.159 471.418C-63.6125 496.505 -78.0243 521.569 -92.4081 546.609C-93.8033 548.465 -95.1984 548.465 -96.5935 546.609C-111.033 521.507 -125.445 496.443 -139.843 471.418Z" fill="url(#paint17_linear_4202_40220)" fill-opacity="0.5"/>
<path fill-rule="evenodd" clip-rule="evenodd" d="M-47.764 471.418C-17.5314 471.418 12.6872 471.418 42.9197 471.418C28.4662 496.505 14.0544 521.569 -0.329437 546.609C-1.72458 548.465 -3.11969 548.465 -4.51483 546.609C-18.9266 521.545 -33.3522 496.482 -47.764 471.418Z" fill="url(#paint18_linear_4202_40220)" fill-opacity="0.5"/>
<path fill-rule="evenodd" clip-rule="evenodd" d="M44.3163 471.418C74.5489 471.418 104.767 471.418 135 471.418C120.546 496.505 106.135 521.569 91.7509 546.609C90.3557 548.465 88.9606 548.465 87.5655 546.609C73.1537 521.545 58.728 496.482 44.3163 471.418Z" fill="url(#paint19_linear_4202_40220)" fill-opacity="0.5"/>
<path fill-rule="evenodd" clip-rule="evenodd" d="M-324 548.001C-293.767 548.001 -263.549 548.001 -233.316 548.001C-247.77 573.089 -262.182 598.152 -276.565 623.192C-277.961 625.049 -279.356 625.049 -280.751 623.192C-295.19 598.09 -309.602 573.027 -324 548.001Z" fill="url(#paint20_linear_4202_40220)" fill-opacity="0.5"/>
<path fill-rule="evenodd" clip-rule="evenodd" d="M-231.921 548.001C-201.689 548.001 -171.47 548.001 -141.238 548.001C-155.691 573.089 -170.103 598.152 -184.487 623.192C-185.882 625.049 -187.277 625.049 -188.672 623.192C-203.112 598.09 -217.524 573.027 -231.921 548.001Z" fill="url(#paint21_linear_4202_40220)" fill-opacity="0.5"/>
<path fill-rule="evenodd" clip-rule="evenodd" d="M-139.843 548.001C-109.61 548.001 -79.3915 548.001 -49.159 548.001C-63.6125 573.089 -78.0243 598.152 -92.4081 623.192C-93.8033 625.049 -95.1984 625.049 -96.5935 623.192C-111.033 598.09 -125.445 573.027 -139.843 548.001Z" fill="url(#paint22_linear_4202_40220)" fill-opacity="0.5"/>
<path fill-rule="evenodd" clip-rule="evenodd" d="M-47.764 548.001C-17.5314 548.001 12.6872 548.001 42.9197 548.001C28.4662 573.089 14.0544 598.152 -0.329437 623.192C-1.72458 625.049 -3.11969 625.049 -4.51483 623.192C-18.9266 598.129 -33.3522 573.065 -47.764 548.001Z" fill="url(#paint23_linear_4202_40220)" fill-opacity="0.5"/>
<path fill-rule="evenodd" clip-rule="evenodd" d="M44.3163 548.001C74.5489 548.001 104.767 548.001 135 548.001C120.546 573.089 106.135 598.152 91.7509 623.192C90.3557 625.049 88.9606 625.049 87.5655 623.192C73.1537 598.129 58.728 573.065 44.3163 548.001Z" fill="url(#paint24_linear_4202_40220)" fill-opacity="0.5"/>
<path fill-rule="evenodd" clip-rule="evenodd" d="M-324 624.585C-293.767 624.585 -263.549 624.585 -233.316 624.585C-247.77 649.672 -262.182 674.736 -276.565 699.776C-277.961 701.632 -279.356 701.632 -280.751 699.776C-295.19 674.674 -309.602 649.61 -324 624.585Z" fill="url(#paint25_linear_4202_40220)" fill-opacity="0.5"/>
<path fill-rule="evenodd" clip-rule="evenodd" d="M-231.921 624.585C-201.689 624.585 -171.47 624.585 -141.238 624.585C-155.691 649.672 -170.103 674.736 -184.487 699.776C-185.882 701.632 -187.277 701.632 -188.672 699.776C-203.112 674.674 -217.524 649.61 -231.921 624.585Z" fill="url(#paint26_linear_4202_40220)" fill-opacity="0.5"/>
<path fill-rule="evenodd" clip-rule="evenodd" d="M-139.843 624.585C-109.61 624.585 -79.3915 624.585 -49.159 624.585C-63.6125 649.672 -78.0243 674.736 -92.4081 699.776C-93.8033 701.632 -95.1984 701.632 -96.5935 699.776C-111.033 674.674 -125.445 649.61 -139.843 624.585Z" fill="url(#paint27_linear_4202_40220)" fill-opacity="0.5"/>
<path fill-rule="evenodd" clip-rule="evenodd" d="M-47.764 624.585C-17.5314 624.585 12.6872 624.585 42.9197 624.585C28.4662 649.672 14.0544 674.736 -0.329437 699.776C-1.72458 701.632 -3.11969 701.632 -4.51483 699.776C-18.9266 674.712 -33.3522 649.648 -47.764 624.585Z" fill="url(#paint28_linear_4202_40220)" fill-opacity="0.5"/>
<path fill-rule="evenodd" clip-rule="evenodd" d="M44.3163 624.585C74.5489 624.585 104.767 624.585 135 624.585C120.546 649.672 106.135 674.736 91.7509 699.776C90.3557 701.632 88.9606 701.632 87.5655 699.776C73.1537 674.712 58.728 649.648 44.3163 624.585Z" fill="url(#paint29_linear_4202_40220)" fill-opacity="0.5"/>
<path fill-rule="evenodd" clip-rule="evenodd" d="M-324 701.168C-293.767 701.168 -263.549 701.168 -233.316 701.168C-247.77 726.255 -262.182 751.319 -276.565 776.359C-277.961 778.216 -279.356 778.216 -280.751 776.359C-295.19 751.257 -309.602 726.194 -324 701.168Z" fill="url(#paint30_linear_4202_40220)" fill-opacity="0.5"/>
<path fill-rule="evenodd" clip-rule="evenodd" d="M-231.921 701.168C-201.689 701.168 -171.47 701.168 -141.238 701.168C-155.691 726.255 -170.103 751.319 -184.487 776.359C-185.882 778.216 -187.277 778.216 -188.672 776.359C-203.112 751.257 -217.524 726.194 -231.921 701.168Z" fill="url(#paint31_linear_4202_40220)" fill-opacity="0.5"/>
<path fill-rule="evenodd" clip-rule="evenodd" d="M-139.843 701.168C-109.61 701.168 -79.3915 701.168 -49.159 701.168C-63.6125 726.255 -78.0243 751.319 -92.4081 776.359C-93.8033 778.216 -95.1984 778.216 -96.5935 776.359C-111.033 751.257 -125.445 726.194 -139.843 701.168Z" fill="url(#paint32_linear_4202_40220)" fill-opacity="0.5"/>
<path fill-rule="evenodd" clip-rule="evenodd" d="M-47.764 701.168C-17.5314 701.168 12.6872 701.168 42.9197 701.168C28.4662 726.255 14.0544 751.319 -0.329437 776.359C-1.72458 778.216 -3.11969 778.216 -4.51483 776.359C-18.9266 751.295 -33.3522 726.232 -47.764 701.168Z" fill="url(#paint33_linear_4202_40220)" fill-opacity="0.5"/>
<path fill-rule="evenodd" clip-rule="evenodd" d="M44.3163 701.168C74.5489 701.168 104.767 701.168 135 701.168C120.546 726.255 106.135 751.319 91.7509 776.359C90.3557 778.216 88.9606 778.216 87.5655 776.359C73.1537 751.295 58.728 726.232 44.3163 701.168Z" fill="url(#paint34_linear_4202_40220)" fill-opacity="0.5"/>
<path fill-rule="evenodd" clip-rule="evenodd" d="M-324 777.751C-293.767 777.751 -263.549 777.751 -233.316 777.751C-247.77 802.839 -262.182 827.902 -276.565 852.942C-277.961 854.799 -279.356 854.799 -280.751 852.942C-295.19 827.841 -309.602 802.777 -324 777.751Z" fill="url(#paint35_linear_4202_40220)" fill-opacity="0.5"/>
<path fill-rule="evenodd" clip-rule="evenodd" d="M-231.921 777.751C-201.689 777.751 -171.47 777.751 -141.238 777.751C-155.691 802.839 -170.103 827.902 -184.487 852.942C-185.882 854.799 -187.277 854.799 -188.672 852.942C-203.112 827.841 -217.524 802.777 -231.921 777.751Z" fill="url(#paint36_linear_4202_40220)" fill-opacity="0.5"/>
<path fill-rule="evenodd" clip-rule="evenodd" d="M-139.843 777.751C-109.61 777.751 -79.3915 777.751 -49.159 777.751C-63.6125 802.839 -78.0243 827.902 -92.4081 852.942C-93.8033 854.799 -95.1984 854.799 -96.5935 852.942C-111.033 827.841 -125.445 802.777 -139.843 777.751Z" fill="url(#paint37_linear_4202_40220)" fill-opacity="0.5"/>
<path fill-rule="evenodd" clip-rule="evenodd" d="M-47.764 777.751C-17.5314 777.751 12.6872 777.751 42.9197 777.751C28.4662 802.839 14.0544 827.902 -0.329437 852.942C-1.72458 854.799 -3.11969 854.799 -4.51483 852.942C-18.9266 827.879 -33.3522 802.815 -47.764 777.751Z" fill="url(#paint38_linear_4202_40220)" fill-opacity="0.5"/>
<path fill-rule="evenodd" clip-rule="evenodd" d="M44.3163 777.751C74.5489 777.751 104.767 777.751 135 777.751C120.546 802.839 106.135 827.902 91.7509 852.942C90.3557 854.799 88.9606 854.799 87.5655 852.942C73.1537 827.879 58.728 802.815 44.3163 777.751Z" fill="url(#paint39_linear_4202_40220)" fill-opacity="0.5"/>
<path fill-rule="evenodd" clip-rule="evenodd" d="M-324 854.335C-293.767 854.335 -263.549 854.335 -233.316 854.335C-247.77 879.422 -262.182 904.486 -276.565 929.526C-277.961 931.382 -279.356 931.382 -280.751 929.526C-295.19 904.424 -309.602 879.36 -324 854.335Z" fill="url(#paint40_linear_4202_40220)" fill-opacity="0.5"/>
<path fill-rule="evenodd" clip-rule="evenodd" d="M-231.921 854.335C-201.689 854.335 -171.47 854.335 -141.238 854.335C-155.691 879.422 -170.103 904.486 -184.487 929.526C-185.882 931.382 -187.277 931.382 -188.672 929.526C-203.112 904.424 -217.524 879.36 -231.921 854.335Z" fill="url(#paint41_linear_4202_40220)" fill-opacity="0.5"/>
<path fill-rule="evenodd" clip-rule="evenodd" d="M-139.843 854.335C-109.61 854.335 -79.3915 854.335 -49.159 854.335C-63.6125 879.422 -78.0243 904.486 -92.4081 929.526C-93.8033 931.382 -95.1984 931.382 -96.5935 929.526C-111.033 904.424 -125.445 879.36 -139.843 854.335Z" fill="url(#paint42_linear_4202_40220)" fill-opacity="0.5"/>
<path fill-rule="evenodd" clip-rule="evenodd" d="M-47.764 854.335C-17.5314 854.335 12.6872 854.335 42.9197 854.335C28.4662 879.422 14.0544 904.486 -0.329437 929.526C-1.72458 931.382 -3.11969 931.382 -4.51483 929.526C-18.9266 904.462 -33.3522 879.398 -47.764 854.335Z" fill="url(#paint43_linear_4202_40220)" fill-opacity="0.5"/>
<path fill-rule="evenodd" clip-rule="evenodd" d="M44.3163 854.335C74.5489 854.335 104.767 854.335 135 854.335C120.546 879.422 106.135 904.486 91.7509 929.526C90.3557 931.382 88.9606 931.382 87.5655 929.526C73.1537 904.462 58.728 879.398 44.3163 854.335Z" fill="url(#paint44_linear_4202_40220)" fill-opacity="0.5"/>
<path fill-rule="evenodd" clip-rule="evenodd" d="M-324 930.918C-293.767 930.918 -263.549 930.918 -233.316 930.918C-247.77 956.005 -262.182 981.069 -276.565 1006.11C-277.961 1007.97 -279.356 1007.97 -280.751 1006.11C-295.19 981.007 -309.602 955.943 -324 930.918Z" fill="url(#paint45_linear_4202_40220)" fill-opacity="0.5"/>
<path fill-rule="evenodd" clip-rule="evenodd" d="M-231.921 930.918C-201.689 930.918 -171.47 930.918 -141.238 930.918C-155.691 956.005 -170.103 981.069 -184.487 1006.11C-185.882 1007.97 -187.277 1007.97 -188.672 1006.11C-203.112 981.007 -217.524 955.943 -231.921 930.918Z" fill="url(#paint46_linear_4202_40220)" fill-opacity="0.5"/>
<path fill-rule="evenodd" clip-rule="evenodd" d="M-139.843 930.918C-109.61 930.918 -79.3915 930.918 -49.159 930.918C-63.6125 956.005 -78.0243 981.069 -92.4081 1006.11C-93.8033 1007.97 -95.1984 1007.97 -96.5935 1006.11C-111.033 981.007 -125.445 955.943 -139.843 930.918Z" fill="url(#paint47_linear_4202_40220)" fill-opacity="0.5"/>
<path fill-rule="evenodd" clip-rule="evenodd" d="M-47.764 930.918C-17.5314 930.918 12.6872 930.918 42.9197 930.918C28.4662 956.005 14.0544 981.069 -0.329437 1006.11C-1.72458 1007.97 -3.11969 1007.97 -4.51483 1006.11C-18.9266 981.045 -33.3522 955.982 -47.764 930.918Z" fill="url(#paint48_linear_4202_40220)" fill-opacity="0.5"/>
<path fill-rule="evenodd" clip-rule="evenodd" d="M44.3163 930.918C74.5489 930.918 104.767 930.918 135 930.918C120.546 956.005 106.135 981.069 91.7509 1006.11C90.3557 1007.97 88.9606 1007.97 87.5655 1006.11C73.1537 981.045 58.728 955.982 44.3163 930.918Z" fill="url(#paint49_linear_4202_40220)" fill-opacity="0.5"/>
<path fill-rule="evenodd" clip-rule="evenodd" d="M-324 1007.5C-293.767 1007.5 -263.549 1007.5 -233.316 1007.5C-247.77 1032.59 -262.182 1057.65 -276.565 1082.69C-277.961 1084.55 -279.356 1084.55 -280.751 1082.69C-295.19 1057.59 -309.602 1032.53 -324 1007.5Z" fill="url(#paint50_linear_4202_40220)" fill-opacity="0.5"/>
<path fill-rule="evenodd" clip-rule="evenodd" d="M-231.921 1007.5C-201.689 1007.5 -171.47 1007.5 -141.238 1007.5C-155.691 1032.59 -170.103 1057.65 -184.487 1082.69C-185.882 1084.55 -187.277 1084.55 -188.672 1082.69C-203.112 1057.59 -217.524 1032.53 -231.921 1007.5Z" fill="url(#paint51_linear_4202_40220)" fill-opacity="0.5"/>
<path fill-rule="evenodd" clip-rule="evenodd" d="M-139.843 1007.5C-109.61 1007.5 -79.3915 1007.5 -49.159 1007.5C-63.6125 1032.59 -78.0243 1057.65 -92.4081 1082.69C-93.8033 1084.55 -95.1984 1084.55 -96.5935 1082.69C-111.033 1057.59 -125.445 1032.53 -139.843 1007.5Z" fill="url(#paint52_linear_4202_40220)" fill-opacity="0.5"/>
<path fill-rule="evenodd" clip-rule="evenodd" d="M-47.764 1007.5C-17.5314 1007.5 12.6872 1007.5 42.9197 1007.5C28.4662 1032.59 14.0544 1057.65 -0.329437 1082.69C-1.72458 1084.55 -3.11969 1084.55 -4.51483 1082.69C-18.9266 1057.63 -33.3522 1032.57 -47.764 1007.5Z" fill="url(#paint53_linear_4202_40220)" fill-opacity="0.5"/>
<path fill-rule="evenodd" clip-rule="evenodd" d="M44.3163 1007.5C74.5489 1007.5 104.767 1007.5 135 1007.5C120.546 1032.59 106.135 1057.65 91.7509 1082.69C90.3557 1084.55 88.9606 1084.55 87.5655 1082.69C73.1537 1057.63 58.728 1032.57 44.3163 1007.5Z" fill="url(#paint54_linear_4202_40220)" fill-opacity="0.5"/>
<path fill-rule="evenodd" clip-rule="evenodd" d="M-324 1084.08C-293.767 1084.08 -263.549 1084.08 -233.316 1084.08C-247.77 1109.17 -262.182 1134.24 -276.565 1159.28C-277.961 1161.13 -279.356 1161.13 -280.751 1159.28C-295.19 1134.17 -309.602 1109.11 -324 1084.08Z" fill="url(#paint55_linear_4202_40220)" fill-opacity="0.5"/>
<path fill-rule="evenodd" clip-rule="evenodd" d="M-231.921 1084.08C-201.689 1084.08 -171.47 1084.08 -141.238 1084.08C-155.691 1109.17 -170.103 1134.24 -184.487 1159.28C-185.882 1161.13 -187.277 1161.13 -188.672 1159.28C-203.112 1134.17 -217.524 1109.11 -231.921 1084.08Z" fill="url(#paint56_linear_4202_40220)" fill-opacity="0.5"/>
<path fill-rule="evenodd" clip-rule="evenodd" d="M-139.843 1084.08C-109.61 1084.08 -79.3915 1084.08 -49.159 1084.08C-63.6125 1109.17 -78.0243 1134.24 -92.4081 1159.28C-93.8033 1161.13 -95.1984 1161.13 -96.5935 1159.28C-111.033 1134.17 -125.445 1109.11 -139.843 1084.08Z" fill="url(#paint57_linear_4202_40220)" fill-opacity="0.5"/>
<path fill-rule="evenodd" clip-rule="evenodd" d="M-47.764 1084.08C-17.5314 1084.08 12.6872 1084.08 42.9197 1084.08C28.4662 1109.17 14.0544 1134.24 -0.329437 1159.28C-1.72458 1161.13 -3.11969 1161.13 -4.51483 1159.28C-18.9266 1134.21 -33.3522 1109.15 -47.764 1084.08Z" fill="url(#paint58_linear_4202_40220)" fill-opacity="0.5"/>
<path fill-rule="evenodd" clip-rule="evenodd" d="M44.3163 1084.08C74.5489 1084.08 104.767 1084.08 135 1084.08C120.546 1109.17 106.135 1134.24 91.7509 1159.28C90.3557 1161.13 88.9606 1161.13 87.5655 1159.28C73.1537 1134.21 58.728 1109.15 44.3163 1084.08Z" fill="url(#paint59_linear_4202_40220)" fill-opacity="0.5"/>
<circle cx="52.5" cy="510.168" r="9.21951" stroke="#64AE60" stroke-opacity="0.5" stroke-width="2.56098"/>
<circle cx="-56.5" cy="609.168" r="82.0008" stroke="#1AA1E0" stroke-width="32.9983"/>
<path fill-rule="evenodd" clip-rule="evenodd" d="M-165 849.668C-158.982 849.668 -152.964 849.668 -146.946 849.668C-34.8899 858.482 54.0781 907.996 119.957 998.21C128.638 1010.94 136.562 1024.17 143.729 1037.9C150.979 1038.86 157.398 1036.96 162.986 1032.19C177.882 1018.1 194.332 1016.09 212.335 1026.17C216.121 1028.96 219.732 1031.96 223.167 1035.2C236.397 1041.42 247.831 1039.01 257.471 1027.98C273.298 1017.21 289.145 1017.21 305.014 1027.98C309.241 1032.9 314.457 1036.31 320.661 1038.2C326.25 1039 331.666 1038.39 336.91 1036.4C342.065 1033.25 346.879 1029.64 351.353 1025.57C365.374 1017.74 379.216 1018.04 392.878 1026.48C393.437 1027.19 393.637 1027.99 393.48 1028.88C393.48 1032.09 393.48 1035.3 393.48 1038.5C393.579 1040.52 393.478 1042.52 393.179 1044.52C378.139 1029.79 363.395 1030.09 348.946 1045.42C333.875 1054.6 318.83 1054.6 303.81 1045.42C300.344 1041.95 296.533 1038.95 292.376 1036.4C279.889 1031.35 269.256 1033.96 260.48 1044.22C245.942 1054.06 230.897 1054.86 215.344 1046.62C212.181 1044.67 209.373 1042.26 206.919 1039.41C197.14 1032.34 187.109 1031.94 176.828 1038.2C173.163 1041.87 169.151 1045.07 164.792 1047.82C160.214 1049.72 155.6 1051.42 150.95 1052.94C153.1 1057.23 154.905 1061.64 156.367 1066.17C157.881 1066.01 159.285 1065.51 160.579 1064.66C176.672 1048.36 194.525 1046.15 214.14 1058.05C228.764 1072.83 243.409 1072.83 258.072 1058.05C271.808 1048.93 286.051 1048.13 300.801 1055.64C305.16 1058.39 309.172 1061.6 312.837 1065.27C322.688 1070.65 332.316 1070.24 341.724 1064.06C357.2 1048.64 374.452 1046.34 393.48 1057.15C393.48 1057.35 393.48 1057.55 393.48 1057.75C393.48 1060.95 393.48 1064.16 393.48 1067.37C393.48 1069.98 393.48 1072.58 393.48 1075.19C391.019 1073.63 388.812 1071.73 386.86 1069.47C377.459 1063.26 367.83 1062.86 357.973 1068.27C353.264 1072.78 348.048 1076.59 342.326 1079.7C324.77 1086.49 309.524 1083.09 296.588 1069.47C287.181 1063.28 277.552 1062.88 267.701 1068.27C254.79 1081.99 239.344 1086 221.362 1080.3C215.075 1077.22 209.458 1073.21 204.511 1068.27C191.68 1061.46 180.446 1063.46 170.81 1074.29C168.004 1076.49 164.995 1078.4 161.783 1080C163.075 1083.48 164.479 1086.88 165.995 1090.22C180.475 1079.43 195.721 1078.33 211.733 1086.91C214.896 1088.87 217.704 1091.28 220.158 1094.13C230.41 1101.53 240.842 1101.74 251.453 1094.73C267.161 1079.16 284.613 1076.96 303.81 1088.12C308.207 1092.92 313.423 1096.53 319.457 1098.94C327.806 1100.72 335.428 1099.12 342.326 1094.13C352.854 1082.88 365.693 1078.87 380.842 1082.1C385.375 1083.37 389.587 1085.27 393.48 1087.82C393.48 1090.62 393.48 1093.43 393.48 1096.24C393.48 1099.24 393.48 1102.25 393.48 1105.26C393.48 1105.46 393.48 1105.66 393.48 1105.86C389.936 1102.62 386.125 1099.71 382.045 1097.14C374.518 1094.16 367.095 1094.36 359.778 1097.74C356.193 1100.32 352.783 1103.13 349.548 1106.16C334.943 1115.65 320.098 1116.05 305.014 1107.36C301.578 1104.13 297.968 1101.12 294.181 1098.34C286.524 1094.47 278.7 1094.07 270.71 1097.14C265.464 1101.38 260.048 1105.39 254.462 1109.17C239.703 1116.1 225.661 1114.9 212.335 1105.56C201.524 1093.7 189.287 1091.89 175.624 1100.15C173.658 1102.01 171.852 1103.91 170.208 1105.86C171.017 1109.29 171.92 1112.7 172.916 1116.08C191.584 1107.98 207.934 1111.29 221.964 1126.01C235.146 1132.87 246.781 1130.87 256.869 1119.99C269.579 1111 283.22 1109.39 297.792 1115.18C303.252 1117.91 308.067 1121.52 312.235 1126.01C321.639 1131.18 331.067 1131.18 340.52 1126.01C355.911 1110.2 373.364 1107.49 392.878 1117.89C393.279 1119.98 393.681 1121.98 394.081 1123.9C396.367 1124.49 398.774 1124.69 401.303 1124.5C405.4 1128.4 410.314 1130.2 416.048 1129.91C418.797 1129.93 421.505 1129.63 424.172 1129.01C427.782 1127.61 431.192 1125.91 434.403 1123.9C439.819 1124.7 445.235 1124.7 450.652 1123.9C452.054 1123.9 453.462 1123.9 454.864 1123.9C459.877 1123.9 464.896 1123.9 469.91 1123.9C471.516 1123.9 473.117 1123.9 474.724 1123.9C479.737 1123.9 484.756 1123.9 489.769 1123.9C492.508 1125.97 495.517 1127.57 498.796 1128.71C499.001 1129.22 499.404 1129.42 500 1129.31C500 1133.92 500 1138.53 500 1143.14C495.306 1142.55 490.895 1141.05 486.76 1138.63C483.173 1136.05 479.767 1133.25 476.529 1130.21C467.039 1124.41 457.41 1124.21 447.643 1129.61C432.82 1145.08 415.768 1148.08 396.489 1138.63C392.702 1135.85 389.091 1132.85 385.656 1129.61C372.058 1122.53 360.222 1124.74 350.149 1136.23C337.947 1144.36 324.908 1145.97 311.032 1141.04C305.175 1138.11 299.96 1134.3 295.385 1129.61C285.607 1124.21 275.978 1124.41 266.498 1130.21C254.66 1142.55 240.417 1146.55 223.769 1142.24C216.576 1139.46 210.357 1135.25 205.113 1129.61C196.185 1124.65 187.158 1124.45 178.032 1129.01C176.894 1129.66 176.292 1130.66 176.226 1132.02C176.929 1136.13 177.63 1140.24 178.333 1144.35C195.012 1139.54 209.355 1143.45 221.362 1156.07C234.975 1163.74 247.011 1161.73 257.471 1150.06C273.298 1139.29 289.145 1139.29 305.014 1150.06C315.435 1161.78 327.471 1163.78 341.122 1156.07C357.567 1139.59 375.621 1137.58 395.285 1150.06C404.854 1161.3 416.288 1163.7 429.588 1157.28C432.397 1154.87 435.205 1152.47 438.014 1150.06C457.639 1137.76 475.693 1139.76 492.177 1156.07C494.632 1157.7 497.238 1159.01 500 1159.98C500 1164.59 500 1169.2 500 1173.82C496.197 1173.38 492.586 1172.28 489.167 1170.51C483.583 1166.73 478.166 1162.72 472.919 1158.48C464.987 1154.68 457.163 1154.88 449.448 1159.08C445.861 1161.66 442.455 1164.47 439.217 1167.5C424.128 1176.71 409.083 1176.71 394.081 1167.5C389.556 1162.54 384.14 1158.93 377.833 1156.68C369.64 1154.76 362.217 1156.37 355.566 1161.49C343.54 1173.66 329.298 1177.27 312.837 1172.31C309.732 1170.86 306.723 1169.26 303.81 1167.5C299.285 1162.54 293.869 1158.93 287.561 1156.68C276.629 1154.5 267.602 1157.71 260.48 1166.3C245.934 1176.14 230.889 1176.95 215.344 1168.7C211.102 1165.07 206.689 1161.66 202.104 1158.48C195.103 1155.12 188.081 1155.02 181.041 1158.18C180.743 1163.37 180.743 1168.58 181.041 1173.82C196.576 1170.6 209.816 1174.71 220.76 1186.14C230.973 1192.91 241.204 1192.91 251.453 1186.14C265.845 1171.56 282.295 1168.75 300.801 1177.72C305.16 1180.47 309.172 1183.68 312.837 1187.35C322.688 1192.73 332.316 1192.33 341.724 1186.14C357.78 1170.36 375.433 1168.36 394.683 1180.13C409.307 1194.91 423.952 1194.91 438.615 1180.13C454.046 1170.18 469.494 1170.18 484.955 1180.13C488.193 1183.16 491.599 1185.97 495.186 1188.55C496.6 1189.06 498.008 1189.56 499.398 1190.05C499.398 1192.06 499.398 1194.06 499.398 1196.07C493.783 1196.07 488.162 1196.07 482.548 1196.07C480.501 1194.93 478.696 1193.43 477.131 1191.56C463.651 1183.42 451.615 1185.12 441.023 1196.67C438.814 1196.67 436.61 1196.67 434.403 1196.67C427.181 1196.67 419.959 1196.67 412.738 1196.67C405.917 1196.67 399.096 1196.67 392.276 1196.67C381.614 1185.37 369.578 1183.67 356.167 1191.56C354.602 1193.43 352.797 1194.93 350.751 1196.07C334.502 1196.07 318.253 1196.07 302.005 1196.07C299.947 1194.92 298.142 1193.41 296.588 1191.56C283.11 1183.42 271.073 1185.12 260.48 1196.67C247.039 1196.67 233.599 1196.67 220.158 1196.67C217.35 1196.67 214.542 1196.67 211.733 1196.67C203.655 1187.49 193.826 1184.69 182.244 1188.25C181.652 1190.73 181.451 1193.34 181.643 1196.07C156.567 1196.07 131.492 1196.07 106.416 1196.07C81.3407 1196.07 56.2657 1196.07 31.19 1196.07C29.1325 1194.92 27.327 1193.41 25.7738 1191.56C12.4377 1183.33 0.602463 1185.03 -9.73303 1196.67C-11.7389 1196.67 -13.7453 1196.67 -15.7511 1196.67C-27.5869 1196.67 -39.4221 1196.67 -51.2579 1196.67C-53.8656 1196.67 -56.4738 1196.67 -59.0814 1196.67C-68.3902 1186.33 -79.4238 1184.02 -92.181 1189.75C-95.2629 1191.53 -97.8711 1193.83 -100.005 1196.67C-102.813 1196.67 -105.621 1196.67 -108.43 1196.67C-122.071 1196.67 -135.712 1196.67 -149.353 1196.67C-153.421 1191.63 -158.637 1188.42 -165 1187.05C-165 1182.43 -165 1177.82 -165 1173.21C-158.697 1173.94 -152.879 1176.05 -147.548 1179.53C-144.538 1182.13 -141.529 1184.74 -138.52 1187.35C-130.805 1191.82 -122.781 1192.42 -114.448 1189.15C-109.293 1186 -104.478 1182.4 -100.005 1178.33C-80.5612 1168.64 -63.3092 1171.65 -48.2489 1187.35C-34.9519 1193.95 -23.3171 1191.74 -13.3439 1180.73C1.78923 1170.33 17.2359 1169.93 32.9955 1179.53C36.0045 1182.13 39.0136 1184.74 42.0226 1187.35C44.2608 1188.77 46.668 1189.67 49.2444 1190.05C49.2757 1184.63 49.0746 1179.22 48.6425 1173.82C39.5119 1172.16 31.8894 1167.85 25.7738 1160.89C16.0593 1154.43 6.22939 1154.23 -3.71492 1160.28C-18.4063 1175.29 -35.257 1178.3 -54.267 1169.3C-58.0096 1166.93 -61.4201 1164.12 -64.4977 1160.89C-74.2122 1154.43 -84.0421 1154.23 -93.9864 1160.28C-108.678 1175.29 -125.529 1178.3 -144.538 1169.3C-148.77 1166.39 -152.782 1163.18 -156.575 1159.68C-159.241 1158.16 -162.049 1157.06 -165 1156.38C-165 1151.76 -165 1147.15 -165 1142.54C-158.391 1143.34 -152.373 1145.65 -146.946 1149.46C-143.711 1152.49 -140.3 1155.3 -136.715 1157.88C-127.89 1161.8 -119.264 1161.4 -110.837 1156.68C-94.6671 1140.02 -76.6128 1137.61 -56.6742 1149.46C-53.4389 1152.49 -50.029 1155.3 -46.4434 1157.88C-37.6287 1161.77 -29.0024 1161.37 -20.5656 1156.68C-4.41362 1140.02 13.6407 1137.61 33.5973 1149.46C37.1793 1153.14 41.1915 1156.25 45.6335 1158.78C45.2538 1153.11 44.1506 1147.5 42.3235 1141.94C35.5887 1139.02 29.6705 1134.91 24.5701 1129.61C10.9939 1122.54 -0.841278 1124.75 -10.9366 1136.23C-23.1215 1144.39 -36.1603 1146 -50.0543 1141.04C-55.346 1138.56 -59.9595 1135.15 -63.8959 1130.82C-73.1638 1124.76 -82.7928 1124.15 -92.7828 1129.01C-97.7297 1133.95 -103.346 1137.96 -109.633 1141.04C-120.825 1144.97 -131.858 1144.57 -142.733 1139.84C-148.09 1136.49 -153.105 1132.68 -157.778 1128.41C-160.069 1127.28 -162.477 1126.58 -165 1126.31C-165 1121.49 -165 1116.68 -165 1111.87C-154.941 1113.39 -146.515 1117.9 -139.724 1125.4C-131.51 1130.43 -122.884 1131.23 -113.846 1127.81C-109.261 1124.63 -104.848 1121.22 -100.606 1117.59C-89.0793 1111.12 -77.0431 1110.12 -64.4977 1114.58C-58.2106 1117.65 -52.5939 1121.66 -47.6471 1126.61C-39.8307 1130.53 -31.8068 1130.93 -23.5747 1127.81C-18.3281 1123.57 -12.9118 1119.56 -7.32579 1115.78C3.53387 1111.04 14.5669 1110.64 25.7738 1114.58C29.2011 1116.01 32.3106 1117.91 35.1018 1120.29C33.1863 1114.16 30.779 1108.15 27.8801 1102.25C20.7559 1095.65 12.431 1093.55 2.90498 1095.94C-1.77289 1097.81 -5.78516 1100.61 -9.13121 1104.36C-24.434 1115.77 -40.2815 1116.57 -56.6742 1106.76C-61.1992 1101.8 -66.6155 1098.19 -72.9231 1095.94C-80.1978 1094 -87.0187 1095 -93.3846 1098.94C-106.152 1112.36 -121.398 1116.37 -139.122 1110.97C-141.128 1109.97 -143.134 1108.97 -145.14 1107.96C-149.152 1104.76 -153.164 1101.55 -157.176 1098.34C-159.648 1097.02 -162.255 1096.11 -165 1095.64C-165 1091.02 -165 1086.41 -165 1081.8C-160.587 1082.1 -156.374 1083.21 -152.362 1085.11C-146.776 1088.89 -141.36 1092.9 -136.113 1097.14C-127.688 1100.96 -119.463 1100.56 -111.439 1095.94C-106.492 1090.99 -100.875 1086.98 -94.5882 1083.91C-83.6046 1080.05 -72.772 1080.46 -62.0905 1085.11C-56.2728 1089.32 -50.4557 1093.53 -44.638 1097.74C-32.0445 1101.76 -21.4124 1098.75 -12.7421 1088.72C-4.27341 1082.79 5.15456 1080.09 15.543 1080.6C12.1777 1075.04 8.36641 1069.82 4.1086 1064.96C-2.12314 1067.48 -7.53943 1071.19 -12.1403 1076.09C-26.6974 1085 -41.3413 1085.2 -56.0724 1076.69C-60.0847 1073.48 -64.0963 1070.28 -68.1086 1067.07C-76.2631 1063.31 -84.287 1063.51 -92.181 1067.67C-95.7666 1070.25 -99.1764 1073.06 -102.412 1076.09C-121.981 1087.39 -139.634 1084.99 -155.371 1068.87C-158.364 1067.04 -161.574 1065.74 -165 1064.96C-165 1060.35 -165 1055.74 -165 1051.13C-158.69 1051.86 -152.873 1053.97 -147.548 1057.45C-142.681 1062.71 -136.864 1066.52 -130.095 1068.87C-124.727 1069.57 -119.512 1068.97 -114.448 1067.07C-109.293 1063.92 -104.478 1060.32 -100.005 1056.24C-80.5612 1046.56 -63.3092 1049.57 -48.2489 1065.27C-39.5569 1070.26 -30.7302 1070.46 -21.7692 1065.87C-17.9826 1063.09 -14.3718 1060.08 -10.9366 1056.85C-8.83392 1055.9 -6.82809 1054.79 -4.91855 1053.54C-7.31676 1050.84 -9.8239 1048.23 -12.4412 1045.72C-26.1089 1053.9 -40.051 1054.4 -54.267 1047.22C-58.6265 1044.47 -62.6381 1041.27 -66.3032 1037.6C-75.6685 1032.21 -84.8961 1032.41 -93.9864 1038.2C-108.678 1053.21 -125.529 1056.21 -144.538 1047.22C-148.77 1044.3 -152.782 1041.1 -156.575 1037.6C-159.241 1036.08 -162.049 1034.98 -165 1034.29C-165 1029.68 -165 1025.07 -165 1020.46C-160.375 1021.02 -155.961 1022.32 -151.76 1024.37C-146.421 1027.74 -141.406 1031.55 -136.715 1035.8C-127.896 1039.7 -119.27 1039.3 -110.837 1034.59C-94.6671 1017.94 -76.6128 1015.53 -56.6742 1027.38C-52.6824 1031.97 -47.8679 1035.38 -42.2308 1037.6C-35.5759 1039.24 -29.1564 1038.64 -22.9728 1035.8C-63.577 1000.65 -110.919 982.706 -165 981.973C-165 937.872 -165 893.77 -165 849.668Z" fill="#F4F8FB"/>
<path d="M326.5 34.168C336.56 34.168 344.5 41.8955 344.5 51.168C344.5 60.4405 336.56 68.168 326.5 68.168C316.44 68.168 308.5 60.4405 308.5 51.168C308.5 41.8955 316.44 34.168 326.5 34.168Z" stroke="#FFD130" stroke-width="5"/>
<path d="M303.5 851.168C310.632 851.168 316.5 857.164 316.5 864.668C316.5 872.172 310.632 878.168 303.5 878.168C296.368 878.168 290.5 872.172 290.5 864.668C290.5 857.164 296.368 851.168 303.5 851.168Z" stroke="#F4CE43" stroke-width="3"/>
<circle cx="256.5" cy="817.168" r="6" stroke="#FFD130" stroke-width="5"/>
<path d="M308.322 504.901L338.233 474.989L349.181 515.849L308.322 504.901Z" fill="#1AA1E0"/>
<path d="M-10.9084 839.582L8.45495 820.219L15.5424 846.67L-10.9084 839.582Z" fill="#1AA1E0"/>
<circle cx="485" cy="269.668" r="131.534" stroke="#FFD130" stroke-width="52.9313"/>
</g>
<defs>
<linearGradient id="paint0_linear_4202_40220" x1="-94.1688" y1="113.066" x2="-94.1688" y2="1417.27" gradientUnits="userSpaceOnUse">
<stop stop-color="#F0F6FA"/>
<stop offset="1" stop-color="white"/>
</linearGradient>
<linearGradient id="paint1_linear_4202_40220" x1="-94.1688" y1="113.066" x2="-94.1688" y2="1417.27" gradientUnits="userSpaceOnUse">
<stop stop-color="#F0F6FA"/>
<stop offset="1" stop-color="white"/>
</linearGradient>
<linearGradient id="paint2_linear_4202_40220" x1="-94.1688" y1="113.066" x2="-94.1688" y2="1417.27" gradientUnits="userSpaceOnUse">
<stop stop-color="#F0F6FA"/>
<stop offset="1" stop-color="white"/>
</linearGradient>
<linearGradient id="paint3_linear_4202_40220" x1="-94.1688" y1="113.066" x2="-94.1688" y2="1417.27" gradientUnits="userSpaceOnUse">
<stop stop-color="#F0F6FA"/>
<stop offset="1" stop-color="white"/>
</linearGradient>
<linearGradient id="paint4_linear_4202_40220" x1="-94.1688" y1="113.066" x2="-94.1688" y2="1417.27" gradientUnits="userSpaceOnUse">
<stop stop-color="#F0F6FA"/>
<stop offset="1" stop-color="white"/>
</linearGradient>
<linearGradient id="paint5_linear_4202_40220" x1="-94.1688" y1="113.066" x2="-94.1688" y2="1417.27" gradientUnits="userSpaceOnUse">
<stop stop-color="#F0F6FA"/>
<stop offset="1" stop-color="white"/>
</linearGradient>
<linearGradient id="paint6_linear_4202_40220" x1="-94.1688" y1="113.066" x2="-94.1688" y2="1417.27" gradientUnits="userSpaceOnUse">
<stop stop-color="#F0F6FA"/>
<stop offset="1" stop-color="white"/>
</linearGradient>
<linearGradient id="paint7_linear_4202_40220" x1="-94.1688" y1="113.066" x2="-94.1688" y2="1417.27" gradientUnits="userSpaceOnUse">
<stop stop-color="#F0F6FA"/>
<stop offset="1" stop-color="white"/>
</linearGradient>
<linearGradient id="paint8_linear_4202_40220" x1="-94.1688" y1="113.066" x2="-94.1688" y2="1417.27" gradientUnits="userSpaceOnUse">
<stop stop-color="#F0F6FA"/>
<stop offset="1" stop-color="white"/>
</linearGradient>
<linearGradient id="paint9_linear_4202_40220" x1="-94.1688" y1="113.066" x2="-94.1688" y2="1417.27" gradientUnits="userSpaceOnUse">
<stop stop-color="#F0F6FA"/>
<stop offset="1" stop-color="white"/>
</linearGradient>
<linearGradient id="paint10_linear_4202_40220" x1="-94.1688" y1="113.066" x2="-94.1688" y2="1417.27" gradientUnits="userSpaceOnUse">
<stop stop-color="#F0F6FA"/>
<stop offset="1" stop-color="white"/>
</linearGradient>
<linearGradient id="paint11_linear_4202_40220" x1="-94.1688" y1="113.066" x2="-94.1688" y2="1417.27" gradientUnits="userSpaceOnUse">
<stop stop-color="#F0F6FA"/>
<stop offset="1" stop-color="white"/>
</linearGradient>
<linearGradient id="paint12_linear_4202_40220" x1="-94.1688" y1="113.066" x2="-94.1688" y2="1417.27" gradientUnits="userSpaceOnUse">
<stop stop-color="#F0F6FA"/>
<stop offset="1" stop-color="white"/>
</linearGradient>
<linearGradient id="paint13_linear_4202_40220" x1="-94.1688" y1="113.066" x2="-94.1688" y2="1417.27" gradientUnits="userSpaceOnUse">
<stop stop-color="#F0F6FA"/>
<stop offset="1" stop-color="white"/>
</linearGradient>
<linearGradient id="paint14_linear_4202_40220" x1="-94.1688" y1="113.066" x2="-94.1688" y2="1417.27" gradientUnits="userSpaceOnUse">
<stop stop-color="#F0F6FA"/>
<stop offset="1" stop-color="white"/>
</linearGradient>
<linearGradient id="paint15_linear_4202_40220" x1="-94.1688" y1="113.066" x2="-94.1688" y2="1417.27" gradientUnits="userSpaceOnUse">
<stop stop-color="#F0F6FA"/>
<stop offset="1" stop-color="white"/>
</linearGradient>
<linearGradient id="paint16_linear_4202_40220" x1="-94.1688" y1="113.066" x2="-94.1688" y2="1417.27" gradientUnits="userSpaceOnUse">
<stop stop-color="#F0F6FA"/>
<stop offset="1" stop-color="white"/>
</linearGradient>
<linearGradient id="paint17_linear_4202_40220" x1="-94.1688" y1="113.066" x2="-94.1688" y2="1417.27" gradientUnits="userSpaceOnUse">
<stop stop-color="#F0F6FA"/>
<stop offset="1" stop-color="white"/>
</linearGradient>
<linearGradient id="paint18_linear_4202_40220" x1="-94.1688" y1="113.066" x2="-94.1688" y2="1417.27" gradientUnits="userSpaceOnUse">
<stop stop-color="#F0F6FA"/>
<stop offset="1" stop-color="white"/>
</linearGradient>
<linearGradient id="paint19_linear_4202_40220" x1="-94.1688" y1="113.066" x2="-94.1688" y2="1417.27" gradientUnits="userSpaceOnUse">
<stop stop-color="#F0F6FA"/>
<stop offset="1" stop-color="white"/>
</linearGradient>
<linearGradient id="paint20_linear_4202_40220" x1="-94.1688" y1="113.066" x2="-94.1688" y2="1417.27" gradientUnits="userSpaceOnUse">
<stop stop-color="#F0F6FA"/>
<stop offset="1" stop-color="white"/>
</linearGradient>
<linearGradient id="paint21_linear_4202_40220" x1="-94.1688" y1="113.066" x2="-94.1688" y2="1417.27" gradientUnits="userSpaceOnUse">
<stop stop-color="#F0F6FA"/>
<stop offset="1" stop-color="white"/>
</linearGradient>
<linearGradient id="paint22_linear_4202_40220" x1="-94.1688" y1="113.066" x2="-94.1688" y2="1417.27" gradientUnits="userSpaceOnUse">
<stop stop-color="#F0F6FA"/>
<stop offset="1" stop-color="white"/>
</linearGradient>
<linearGradient id="paint23_linear_4202_40220" x1="-94.1688" y1="113.066" x2="-94.1688" y2="1417.27" gradientUnits="userSpaceOnUse">
<stop stop-color="#F0F6FA"/>
<stop offset="1" stop-color="white"/>
</linearGradient>
<linearGradient id="paint24_linear_4202_40220" x1="-94.1688" y1="113.066" x2="-94.1688" y2="1417.27" gradientUnits="userSpaceOnUse">
<stop stop-color="#F0F6FA"/>
<stop offset="1" stop-color="white"/>
</linearGradient>
<linearGradient id="paint25_linear_4202_40220" x1="-94.1688" y1="113.066" x2="-94.1688" y2="1417.27" gradientUnits="userSpaceOnUse">
<stop stop-color="#F0F6FA"/>
<stop offset="1" stop-color="white"/>
</linearGradient>
<linearGradient id="paint26_linear_4202_40220" x1="-94.1688" y1="113.066" x2="-94.1688" y2="1417.27" gradientUnits="userSpaceOnUse">
<stop stop-color="#F0F6FA"/>
<stop offset="1" stop-color="white"/>
</linearGradient>
<linearGradient id="paint27_linear_4202_40220" x1="-94.1688" y1="113.066" x2="-94.1688" y2="1417.27" gradientUnits="userSpaceOnUse">
<stop stop-color="#F0F6FA"/>
<stop offset="1" stop-color="white"/>
</linearGradient>
<linearGradient id="paint28_linear_4202_40220" x1="-94.1688" y1="113.066" x2="-94.1688" y2="1417.27" gradientUnits="userSpaceOnUse">
<stop stop-color="#F0F6FA"/>
<stop offset="1" stop-color="white"/>
</linearGradient>
<linearGradient id="paint29_linear_4202_40220" x1="-94.1688" y1="113.066" x2="-94.1688" y2="1417.27" gradientUnits="userSpaceOnUse">
<stop stop-color="#F0F6FA"/>
<stop offset="1" stop-color="white"/>
</linearGradient>
<linearGradient id="paint30_linear_4202_40220" x1="-94.1688" y1="113.066" x2="-94.1688" y2="1417.27" gradientUnits="userSpaceOnUse">
<stop stop-color="#F0F6FA"/>
<stop offset="1" stop-color="white"/>
</linearGradient>
<linearGradient id="paint31_linear_4202_40220" x1="-94.1688" y1="113.066" x2="-94.1688" y2="1417.27" gradientUnits="userSpaceOnUse">
<stop stop-color="#F0F6FA"/>
<stop offset="1" stop-color="white"/>
</linearGradient>
<linearGradient id="paint32_linear_4202_40220" x1="-94.1688" y1="113.066" x2="-94.1688" y2="1417.27" gradientUnits="userSpaceOnUse">
<stop stop-color="#F0F6FA"/>
<stop offset="1" stop-color="white"/>
</linearGradient>
<linearGradient id="paint33_linear_4202_40220" x1="-94.1688" y1="113.066" x2="-94.1688" y2="1417.27" gradientUnits="userSpaceOnUse">
<stop stop-color="#F0F6FA"/>
<stop offset="1" stop-color="white"/>
</linearGradient>
<linearGradient id="paint34_linear_4202_40220" x1="-94.1688" y1="113.066" x2="-94.1688" y2="1417.27" gradientUnits="userSpaceOnUse">
<stop stop-color="#F0F6FA"/>
<stop offset="1" stop-color="white"/>
</linearGradient>
<linearGradient id="paint35_linear_4202_40220" x1="-94.1688" y1="113.066" x2="-94.1688" y2="1417.27" gradientUnits="userSpaceOnUse">
<stop stop-color="#F0F6FA"/>
<stop offset="1" stop-color="white"/>
</linearGradient>
<linearGradient id="paint36_linear_4202_40220" x1="-94.1688" y1="113.066" x2="-94.1688" y2="1417.27" gradientUnits="userSpaceOnUse">
<stop stop-color="#F0F6FA"/>
<stop offset="1" stop-color="white"/>
</linearGradient>
<linearGradient id="paint37_linear_4202_40220" x1="-94.1688" y1="113.066" x2="-94.1688" y2="1417.27" gradientUnits="userSpaceOnUse">
<stop stop-color="#F0F6FA"/>
<stop offset="1" stop-color="white"/>
</linearGradient>
<linearGradient id="paint38_linear_4202_40220" x1="-94.1688" y1="113.066" x2="-94.1688" y2="1417.27" gradientUnits="userSpaceOnUse">
<stop stop-color="#F0F6FA"/>
<stop offset="1" stop-color="white"/>
</linearGradient>
<linearGradient id="paint39_linear_4202_40220" x1="-94.1688" y1="113.066" x2="-94.1688" y2="1417.27" gradientUnits="userSpaceOnUse">
<stop stop-color="#F0F6FA"/>
<stop offset="1" stop-color="white"/>
</linearGradient>
<linearGradient id="paint40_linear_4202_40220" x1="-94.1688" y1="113.066" x2="-94.1688" y2="1417.27" gradientUnits="userSpaceOnUse">
<stop stop-color="#F0F6FA"/>
<stop offset="1" stop-color="white"/>
</linearGradient>
<linearGradient id="paint41_linear_4202_40220" x1="-94.1688" y1="113.066" x2="-94.1688" y2="1417.27" gradientUnits="userSpaceOnUse">
<stop stop-color="#F0F6FA"/>
<stop offset="1" stop-color="white"/>
</linearGradient>
<linearGradient id="paint42_linear_4202_40220" x1="-94.1688" y1="113.066" x2="-94.1688" y2="1417.27" gradientUnits="userSpaceOnUse">
<stop stop-color="#F0F6FA"/>
<stop offset="1" stop-color="white"/>
</linearGradient>
<linearGradient id="paint43_linear_4202_40220" x1="-94.1688" y1="113.066" x2="-94.1688" y2="1417.27" gradientUnits="userSpaceOnUse">
<stop stop-color="#F0F6FA"/>
<stop offset="1" stop-color="white"/>
</linearGradient>
<linearGradient id="paint44_linear_4202_40220" x1="-94.1688" y1="113.066" x2="-94.1688" y2="1417.27" gradientUnits="userSpaceOnUse">
<stop stop-color="#F0F6FA"/>
<stop offset="1" stop-color="white"/>
</linearGradient>
<linearGradient id="paint45_linear_4202_40220" x1="-94.1688" y1="113.066" x2="-94.1688" y2="1417.27" gradientUnits="userSpaceOnUse">
<stop stop-color="#F0F6FA"/>
<stop offset="1" stop-color="white"/>
</linearGradient>
<linearGradient id="paint46_linear_4202_40220" x1="-94.1688" y1="113.066" x2="-94.1688" y2="1417.27" gradientUnits="userSpaceOnUse">
<stop stop-color="#F0F6FA"/>
<stop offset="1" stop-color="white"/>
</linearGradient>
<linearGradient id="paint47_linear_4202_40220" x1="-94.1688" y1="113.066" x2="-94.1688" y2="1417.27" gradientUnits="userSpaceOnUse">
<stop stop-color="#F0F6FA"/>
<stop offset="1" stop-color="white"/>
</linearGradient>
<linearGradient id="paint48_linear_4202_40220" x1="-94.1688" y1="113.066" x2="-94.1688" y2="1417.27" gradientUnits="userSpaceOnUse">
<stop stop-color="#F0F6FA"/>
<stop offset="1" stop-color="white"/>
</linearGradient>
<linearGradient id="paint49_linear_4202_40220" x1="-94.1688" y1="113.066" x2="-94.1688" y2="1417.27" gradientUnits="userSpaceOnUse">
<stop stop-color="#F0F6FA"/>
<stop offset="1" stop-color="white"/>
</linearGradient>
<linearGradient id="paint50_linear_4202_40220" x1="-94.1688" y1="113.066" x2="-94.1688" y2="1417.27" gradientUnits="userSpaceOnUse">
<stop stop-color="#F0F6FA"/>
<stop offset="1" stop-color="white"/>
</linearGradient>
<linearGradient id="paint51_linear_4202_40220" x1="-94.1688" y1="113.066" x2="-94.1688" y2="1417.27" gradientUnits="userSpaceOnUse">
<stop stop-color="#F0F6FA"/>
<stop offset="1" stop-color="white"/>
</linearGradient>
<linearGradient id="paint52_linear_4202_40220" x1="-94.1688" y1="113.066" x2="-94.1688" y2="1417.27" gradientUnits="userSpaceOnUse">
<stop stop-color="#F0F6FA"/>
<stop offset="1" stop-color="white"/>
</linearGradient>
<linearGradient id="paint53_linear_4202_40220" x1="-94.1688" y1="113.066" x2="-94.1688" y2="1417.27" gradientUnits="userSpaceOnUse">
<stop stop-color="#F0F6FA"/>
<stop offset="1" stop-color="white"/>
</linearGradient>
<linearGradient id="paint54_linear_4202_40220" x1="-94.1688" y1="113.066" x2="-94.1688" y2="1417.27" gradientUnits="userSpaceOnUse">
<stop stop-color="#F0F6FA"/>
<stop offset="1" stop-color="white"/>
</linearGradient>
<linearGradient id="paint55_linear_4202_40220" x1="-94.1688" y1="113.066" x2="-94.1688" y2="1417.27" gradientUnits="userSpaceOnUse">
<stop stop-color="#F0F6FA"/>
<stop offset="1" stop-color="white"/>
</linearGradient>
<linearGradient id="paint56_linear_4202_40220" x1="-94.1688" y1="113.066" x2="-94.1688" y2="1417.27" gradientUnits="userSpaceOnUse">
<stop stop-color="#F0F6FA"/>
<stop offset="1" stop-color="white"/>
</linearGradient>
<linearGradient id="paint57_linear_4202_40220" x1="-94.1688" y1="113.066" x2="-94.1688" y2="1417.27" gradientUnits="userSpaceOnUse">
<stop stop-color="#F0F6FA"/>
<stop offset="1" stop-color="white"/>
</linearGradient>
<linearGradient id="paint58_linear_4202_40220" x1="-94.1688" y1="113.066" x2="-94.1688" y2="1417.27" gradientUnits="userSpaceOnUse">
<stop stop-color="#F0F6FA"/>
<stop offset="1" stop-color="white"/>
</linearGradient>
<linearGradient id="paint59_linear_4202_40220" x1="-94.1688" y1="113.066" x2="-94.1688" y2="1417.27" gradientUnits="userSpaceOnUse">
<stop stop-color="#F0F6FA"/>
<stop offset="1" stop-color="white"/>
</linearGradient>
<clipPath id="clip0_4202_40220">
<rect width="366" height="1143" fill="white" transform="translate(0 0.667969)"/>
</clipPath>
</defs>
</svg>
