<svg width="1920" height="928" viewBox="0 0 1920 928" fill="none" xmlns="http://www.w3.org/2000/svg">
<g clip-path="url(#clip0_4184_40644)">
<rect width="1920" height="928" fill="white"/>
<rect x="1930.11" y="-707.838" width="28.0102" height="2471.58" transform="rotate(45.22 1930.11 -707.838)" fill="#F4F8FB" fill-opacity="0.3"/>
<rect x="1946.55" y="-656.513" width="28.0102" height="2422.61" transform="rotate(45.22 1946.55 -656.513)" fill="#F4F8FB" fill-opacity="0.3"/>
<rect x="1930.34" y="-572.787" width="28.0102" height="2281.65" transform="rotate(45.22 1930.34 -572.787)" fill="#F4F8FB" fill-opacity="0.3"/>
<rect x="1941.01" y="-515.734" width="28.0102" height="2216.41" transform="rotate(45.22 1941.01 -515.734)" fill="#F4F8FB" fill-opacity="0.3"/>
<rect x="1950.78" y="-457.801" width="28.0102" height="2148.68" transform="rotate(45.22 1950.78 -457.801)" fill="#F4F8FB" fill-opacity="0.3"/>
<rect x="1918.94" y="-358.558" width="28.0102" height="1963.66" transform="rotate(45.22 1918.94 -358.558)" fill="#F4F8FB" fill-opacity="0.3"/>
<rect x="1921.49" y="-293.457" width="28.0102" height="1875.57" transform="rotate(45.22 1921.49 -293.457)" fill="#F4F8FB" fill-opacity="0.3"/>
<rect x="1921.26" y="-225.592" width="28.0102" height="1779.64" transform="rotate(45.22 1921.26 -225.592)" fill="#F4F8FB" fill-opacity="0.3"/>
<rect x="1924.8" y="-161.465" width="28.0102" height="1694.32" transform="rotate(45.22 1924.8 -161.465)" fill="#F4F8FB" fill-opacity="0.3"/>
<rect x="1954.88" y="-123.674" width="28.0102" height="1683.78" transform="rotate(45.22 1954.88 -123.674)" fill="#F4F8FB" fill-opacity="0.3"/>
<rect x="1946.41" y="-47.6377" width="28.0102" height="1564.65" transform="rotate(45.22 1946.41 -47.6377)" fill="#F4F8FB" fill-opacity="0.3"/>
<rect x="1919.23" y="46.9717" width="28.0102" height="1392.78" transform="rotate(45.22 1919.23 46.9717)" fill="#F4F8FB" fill-opacity="0.3"/>
<rect x="1920.12" y="113.727" width="28.0102" height="1300" transform="rotate(45.22 1920.12 113.727)" fill="#F4F8FB" fill-opacity="0.3"/>
<rect x="1953.94" y="147.805" width="28.0102" height="1300" transform="rotate(45.22 1953.94 147.805)" fill="#F4F8FB" fill-opacity="0.3"/>
<rect x="1987.76" y="181.884" width="28.0102" height="1300" transform="rotate(45.22 1987.76 181.884)" fill="#F4F8FB" fill-opacity="0.3"/>
<rect x="2021.58" y="215.962" width="28.0102" height="1300" transform="rotate(45.22 2021.58 215.962)" fill="#F4F8FB" fill-opacity="0.3"/>
<rect x="2055.39" y="250.041" width="28.0102" height="1300" transform="rotate(45.22 2055.39 250.041)" fill="#F4F8FB" fill-opacity="0.3"/>
<rect x="2089.21" y="284.119" width="28.0102" height="1300" transform="rotate(45.22 2089.21 284.119)" fill="#F4F8FB" fill-opacity="0.3"/>
<rect x="2123.03" y="318.197" width="28.0102" height="1300" transform="rotate(45.22 2123.03 318.197)" fill="#F4F8FB" fill-opacity="0.3"/>
<path d="M582.421 614.29H608.156C631.182 614.29 650.144 621.15 650.144 645.846C650.144 669.171 631.182 677.403 608.156 677.403H582.421V614.29ZM608.156 728.167C667.752 728.167 716.513 706.215 716.513 645.846C716.513 584.106 669.107 562.154 608.156 562.154H395.752V614.29H413.699L385.255 682.891L342.589 614.29H362.229V562.154H236.264V614.29H265.385L350.039 740.515C343.267 750.119 328.367 754.236 312.114 748.747L310.759 719.935H257.935V791.28C274.189 799.512 298.569 805 318.886 805C362.229 805 400.154 794.024 435.37 722.679L486.84 614.29H513.343V750.119H486.254V800.884H610.865V748.747H582.421V728.167H608.156ZM688.069 333.027V280.891H602.738L525.533 416.72V333.027H543.141V280.891H437.493V333.027H456.455V468.857H437.493V520.993H522.824L600.029 387.908V468.857H582.421V520.993H688.069V468.857H667.752V333.027H688.069ZM834.352 333.027H851.96V374.188H786.945V333.027H805.908V280.891H700.259V333.027H719.222V468.857H700.259V520.993H805.908V468.857H786.945V424.952H851.96V468.857H834.352V520.993H940V468.857H919.683V333.027H940V280.891H834.352V333.027ZM345.389 468.857H312.882V451.02H334.553C395.504 451.02 434.784 418.092 434.784 364.584C434.784 312.447 394.15 280.891 334.553 280.891H222.133V334.399H245.159V468.857H222.133V520.993H345.389V468.857ZM312.882 333.027H325.072C350.807 333.027 364.352 344.003 364.352 365.956C364.352 387.908 350.807 398.884 325.072 398.884H312.882V333.027ZM728.703 562.154V615.662H754.438V750.119H728.703V800.884H854.669V750.119H822.161V615.662H883.112V641.73H934.582V562.154H728.703ZM132.738 649.276H93.4582V614.29H155.764V634.87H211.297V562.154H0V614.29H24.3804V748.747H0V800.884H132.738C186.916 800.884 231.614 782.705 231.614 725.08C231.614 667.456 189.625 649.276 132.738 649.276ZM131.383 748.747H93.4582V698.669H131.383C150.346 698.669 166.599 703.128 166.599 723.708C166.599 744.288 151.7 748.747 131.383 748.747ZM727.158 187.594L656.725 1H523.988V53.1365H541.596L490.126 184.85C444.074 187.594 423.175 169.758 416.402 132.713C440.783 118.993 465.163 88.8089 465.163 53.1365H493.607V1H381.186V53.1365H401.503C401.503 79.2048 382.541 94.2969 351.388 94.2969H327.008V53.1365H350.034V1H230.84V53.1365H259.284V187.594H230.84V239.73H347.325V187.594H327.008V146.433H354.097C364.933 184.85 386.604 215.034 415.048 227.382C444.846 239.73 455.506 239.73 536.774 239.73H583.584V187.594H561.913L567.331 169.758H645.89L651.308 187.594H632.345V239.73H751.538V187.594H727.158ZM584.939 117.621L605.256 59.9966L626.927 117.621H584.939ZM211.297 160.154H158.473V187.594H93.4582V145.061H154.409V92.9249H93.4582V53.1365H158.473V80.5768H211.297V1H0V53.1365H25.7349V187.594H0V239.73H211.297V160.154ZM712.45 1V79.2048H762.565V53.1365H791.009V187.594H766.628V239.73H885.821V187.594H860.086V53.1365H888.53V79.2048H940V1H712.45ZM211.297 441.416H158.473V468.857H93.4582V426.324H154.409V374.188H93.4582V333.027H158.473V360.468H211.297V280.891H0V333.027H25.7349V468.857H0V520.993H211.297V441.416Z" fill="#F1F7F9"/>
<circle cx="-35.5" cy="868.5" r="248.5" stroke="#FFD130" stroke-width="100"/>
<path d="M1652.5 804.5C1659.63 804.5 1665.5 810.496 1665.5 818C1665.5 825.504 1659.63 831.5 1652.5 831.5C1645.37 831.5 1639.5 825.504 1639.5 818C1639.5 810.496 1645.37 804.5 1652.5 804.5Z" stroke="#F4CE43" stroke-width="3"/>
<circle cx="1605.5" cy="770.5" r="6" stroke="#FFD130" stroke-width="5"/>
<circle cx="283.5" cy="475.5" r="18" stroke="#64AE60" stroke-width="5"/>
<path d="M1666.5 275.066C1676.46 275.066 1684.5 283.067 1684.5 292.891C1684.5 302.714 1676.46 310.715 1666.5 310.715C1656.54 310.715 1648.5 302.714 1648.5 292.891C1648.5 283.067 1656.54 275.066 1666.5 275.066Z" stroke="#FFD130" stroke-width="5"/>
<circle cx="2109" cy="41" r="325" stroke="#F1F7F9" stroke-width="150"/>
<path d="M1863.32 800.233L1893.23 770.321L1904.18 811.181L1863.32 800.233Z" fill="#1AA1E0"/>
<path d="M1724.05 919.791L1785.79 858.048L1808.39 942.391L1724.05 919.791Z" fill="#1AA1E0"/>
</g>
<defs>
<clipPath id="clip0_4184_40644">
<rect width="1920" height="928" fill="white"/>
</clipPath>
</defs>
</svg>
