<svg width="1919" height="1184" viewBox="0 0 1919 1184" fill="none" xmlns="http://www.w3.org/2000/svg">
<mask id="mask0_6005_10957" style="mask-type:alpha" maskUnits="userSpaceOnUse" x="0" y="0" width="1919" height="1184">
<rect width="1919" height="1184" fill="white"/>
</mask>
<g mask="url(#mask0_6005_10957)">
<rect x="-336.555" y="404.683" width="42.0477" height="1951.5" transform="rotate(-35.072 -336.555 404.683)" fill="url(#paint0_linear_6005_10957)"/>
<rect x="-277.57" y="363.271" width="42.0477" height="1951.5" transform="rotate(-35.072 -277.57 363.271)" fill="url(#paint1_linear_6005_10957)"/>
<rect x="-218.582" y="321.859" width="42.0477" height="1951.5" transform="rotate(-35.072 -218.582 321.859)" fill="url(#paint2_linear_6005_10957)"/>
<rect x="-159.598" y="280.447" width="42.0477" height="1951.5" transform="rotate(-35.072 -159.598 280.447)" fill="url(#paint3_linear_6005_10957)"/>
<rect x="-100.613" y="239.034" width="42.0477" height="1951.5" transform="rotate(-35.072 -100.613 239.034)" fill="url(#paint4_linear_6005_10957)"/>
<rect x="-41.6289" y="197.622" width="42.0477" height="1951.5" transform="rotate(-35.072 -41.6289 197.622)" fill="url(#paint5_linear_6005_10957)"/>
<rect x="17.3555" y="156.21" width="42.0477" height="1951.5" transform="rotate(-35.072 17.3555 156.21)" fill="url(#paint6_linear_6005_10957)"/>
<rect x="76.3398" y="114.797" width="42.0477" height="1951.5" transform="rotate(-35.072 76.3398 114.797)" fill="url(#paint7_linear_6005_10957)"/>
<rect x="135.324" y="73.3852" width="42.0477" height="1951.5" transform="rotate(-35.072 135.324 73.3852)" fill="url(#paint8_linear_6005_10957)"/>
<rect x="194.312" y="31.9729" width="42.0477" height="1951.5" transform="rotate(-35.072 194.312 31.9729)" fill="url(#paint9_linear_6005_10957)"/>
<rect x="253.297" y="-9.43941" width="42.0477" height="1951.5" transform="rotate(-35.072 253.297 -9.43941)" fill="url(#paint10_linear_6005_10957)"/>
<rect x="312.281" y="-50.8517" width="42.0477" height="1951.5" transform="rotate(-35.072 312.281 -50.8517)" fill="url(#paint11_linear_6005_10957)"/>
<rect x="371.266" y="-92.264" width="42.0477" height="1951.5" transform="rotate(-35.072 371.266 -92.264)" fill="url(#paint12_linear_6005_10957)"/>
<rect x="430.25" y="-133.676" width="42.0477" height="1951.5" transform="rotate(-35.072 430.25 -133.676)" fill="url(#paint13_linear_6005_10957)"/>
<rect x="489.234" y="-175.089" width="42.0477" height="1951.5" transform="rotate(-35.072 489.234 -175.089)" fill="url(#paint14_linear_6005_10957)"/>
<rect x="548.219" y="-216.501" width="42.0477" height="1951.5" transform="rotate(-35.072 548.219 -216.501)" fill="url(#paint15_linear_6005_10957)"/>
<rect x="607.207" y="-257.913" width="42.0477" height="1951.5" transform="rotate(-35.072 607.207 -257.913)" fill="url(#paint16_linear_6005_10957)"/>
<rect x="666.191" y="-299.325" width="42.0477" height="1951.5" transform="rotate(-35.072 666.191 -299.325)" fill="url(#paint17_linear_6005_10957)"/>
<rect x="725.176" y="-340.738" width="42.0477" height="1951.5" transform="rotate(-35.072 725.176 -340.738)" fill="url(#paint18_linear_6005_10957)"/>
<circle cx="2105.01" cy="1021.23" r="248.5" stroke="#FFD130" stroke-width="100"/>
<circle cx="1668.82" cy="508.046" r="18" stroke="#64AE60" stroke-width="5"/>
</g>
<defs>
<linearGradient id="paint0_linear_6005_10957" x1="-315.531" y1="404.683" x2="-315.531" y2="2356.18" gradientUnits="userSpaceOnUse">
<stop stop-color="white"/>
<stop offset="1" stop-color="#F4F8FB"/>
</linearGradient>
<linearGradient id="paint1_linear_6005_10957" x1="-256.546" y1="363.271" x2="-256.546" y2="2314.77" gradientUnits="userSpaceOnUse">
<stop stop-color="white"/>
<stop offset="1" stop-color="#F4F8FB"/>
</linearGradient>
<linearGradient id="paint2_linear_6005_10957" x1="-197.558" y1="321.859" x2="-197.558" y2="2273.36" gradientUnits="userSpaceOnUse">
<stop stop-color="white"/>
<stop offset="1" stop-color="#F4F8FB"/>
</linearGradient>
<linearGradient id="paint3_linear_6005_10957" x1="-138.574" y1="280.447" x2="-138.574" y2="2231.95" gradientUnits="userSpaceOnUse">
<stop stop-color="white"/>
<stop offset="1" stop-color="#F4F8FB"/>
</linearGradient>
<linearGradient id="paint4_linear_6005_10957" x1="-79.5894" y1="239.034" x2="-79.5894" y2="2190.54" gradientUnits="userSpaceOnUse">
<stop stop-color="white"/>
<stop offset="1" stop-color="#F4F8FB"/>
</linearGradient>
<linearGradient id="paint5_linear_6005_10957" x1="-20.605" y1="197.622" x2="-20.605" y2="2149.12" gradientUnits="userSpaceOnUse">
<stop stop-color="white"/>
<stop offset="1" stop-color="#F4F8FB"/>
</linearGradient>
<linearGradient id="paint6_linear_6005_10957" x1="38.3793" y1="156.21" x2="38.3793" y2="2107.71" gradientUnits="userSpaceOnUse">
<stop stop-color="white"/>
<stop offset="1" stop-color="#F4F8FB"/>
</linearGradient>
<linearGradient id="paint7_linear_6005_10957" x1="97.3637" y1="114.797" x2="97.3637" y2="2066.3" gradientUnits="userSpaceOnUse">
<stop stop-color="white"/>
<stop offset="1" stop-color="#F4F8FB"/>
</linearGradient>
<linearGradient id="paint8_linear_6005_10957" x1="156.348" y1="73.3852" x2="156.348" y2="2024.89" gradientUnits="userSpaceOnUse">
<stop stop-color="white"/>
<stop offset="1" stop-color="#F4F8FB"/>
</linearGradient>
<linearGradient id="paint9_linear_6005_10957" x1="215.336" y1="31.9729" x2="215.336" y2="1983.47" gradientUnits="userSpaceOnUse">
<stop stop-color="white"/>
<stop offset="1" stop-color="#F4F8FB"/>
</linearGradient>
<linearGradient id="paint10_linear_6005_10957" x1="274.321" y1="-9.43941" x2="274.321" y2="1942.06" gradientUnits="userSpaceOnUse">
<stop stop-color="white"/>
<stop offset="1" stop-color="#F4F8FB"/>
</linearGradient>
<linearGradient id="paint11_linear_6005_10957" x1="333.305" y1="-50.8517" x2="333.305" y2="1900.65" gradientUnits="userSpaceOnUse">
<stop stop-color="white"/>
<stop offset="1" stop-color="#F4F8FB"/>
</linearGradient>
<linearGradient id="paint12_linear_6005_10957" x1="392.289" y1="-92.264" x2="392.289" y2="1859.24" gradientUnits="userSpaceOnUse">
<stop stop-color="white"/>
<stop offset="1" stop-color="#F4F8FB"/>
</linearGradient>
<linearGradient id="paint13_linear_6005_10957" x1="451.274" y1="-133.676" x2="451.274" y2="1817.83" gradientUnits="userSpaceOnUse">
<stop stop-color="white"/>
<stop offset="1" stop-color="#F4F8FB"/>
</linearGradient>
<linearGradient id="paint14_linear_6005_10957" x1="510.258" y1="-175.089" x2="510.258" y2="1776.41" gradientUnits="userSpaceOnUse">
<stop stop-color="white"/>
<stop offset="1" stop-color="#F4F8FB"/>
</linearGradient>
<linearGradient id="paint15_linear_6005_10957" x1="569.243" y1="-216.501" x2="569.243" y2="1735" gradientUnits="userSpaceOnUse">
<stop stop-color="white"/>
<stop offset="1" stop-color="#F4F8FB"/>
</linearGradient>
<linearGradient id="paint16_linear_6005_10957" x1="628.231" y1="-257.913" x2="628.231" y2="1693.59" gradientUnits="userSpaceOnUse">
<stop stop-color="white"/>
<stop offset="1" stop-color="#F4F8FB"/>
</linearGradient>
<linearGradient id="paint17_linear_6005_10957" x1="687.215" y1="-299.325" x2="687.215" y2="1652.18" gradientUnits="userSpaceOnUse">
<stop stop-color="white"/>
<stop offset="1" stop-color="#F4F8FB"/>
</linearGradient>
<linearGradient id="paint18_linear_6005_10957" x1="746.2" y1="-340.738" x2="746.2" y2="1610.76" gradientUnits="userSpaceOnUse">
<stop stop-color="white"/>
<stop offset="1" stop-color="#F4F8FB"/>
</linearGradient>
</defs>
</svg>
