<svg width="894" height="1702" viewBox="0 0 894 1702" fill="none" xmlns="http://www.w3.org/2000/svg">
<rect x="-734.982" y="709.746" width="28.0102" height="1300" transform="rotate(-45.2228 -734.982 709.746)" fill="white"/>
<rect x="-701.166" y="675.666" width="28.0102" height="1300" transform="rotate(-45.2228 -701.166 675.666)" fill="white"/>
<rect x="-667.352" y="641.586" width="28.0102" height="1300" transform="rotate(-45.2228 -667.352 641.586)" fill="white"/>
<rect x="-633.535" y="607.506" width="28.0102" height="1300" transform="rotate(-45.2228 -633.535 607.506)" fill="white"/>
<rect x="-599.719" y="573.426" width="28.0102" height="1300" transform="rotate(-45.2228 -599.719 573.426)" fill="white"/>
<rect x="-565.902" y="539.345" width="28.0102" height="1300" transform="rotate(-45.2228 -565.902 539.345)" fill="white"/>
<rect x="-532.086" y="505.265" width="28.0102" height="1300" transform="rotate(-45.2228 -532.086 505.265)" fill="white"/>
<rect x="-498.27" y="471.185" width="28.0102" height="1300" transform="rotate(-45.2228 -498.27 471.185)" fill="white"/>
<rect x="-464.455" y="437.105" width="28.0102" height="1300" transform="rotate(-45.2228 -464.455 437.105)" fill="white"/>
<rect x="-430.639" y="403.025" width="28.0102" height="1300" transform="rotate(-45.2228 -430.639 403.025)" fill="white"/>
<rect x="-396.822" y="368.945" width="28.0102" height="1300" transform="rotate(-45.2228 -396.822 368.945)" fill="white"/>
<rect x="-363.006" y="334.865" width="28.0102" height="1300" transform="rotate(-45.2228 -363.006 334.865)" fill="white"/>
<rect x="-329.189" y="300.784" width="28.0102" height="1300" transform="rotate(-45.2228 -329.189 300.784)" fill="white"/>
<rect x="-295.373" y="266.704" width="28.0102" height="1300" transform="rotate(-45.2228 -295.373 266.704)" fill="white"/>
<rect x="-261.557" y="232.624" width="28.0102" height="1300" transform="rotate(-45.2228 -261.557 232.624)" fill="white"/>
<rect x="-227.742" y="198.544" width="28.0102" height="1300" transform="rotate(-45.2228 -227.742 198.544)" fill="white"/>
<rect x="-193.926" y="164.464" width="28.0102" height="1300" transform="rotate(-45.2228 -193.926 164.464)" fill="white"/>
<rect x="-160.109" y="130.384" width="28.0102" height="1300" transform="rotate(-45.2228 -160.109 130.384)" fill="white"/>
<rect x="-126.293" y="96.3035" width="28.0102" height="1300" transform="rotate(-45.2228 -126.293 96.3035)" fill="white"/>
</svg>
