<svg width="1911" height="34" viewBox="0 0 1911 34" fill="none" xmlns="http://www.w3.org/2000/svg">
<g opacity="0.05">
<path d="M44.518 32.8909C33.211 32.9252 27.283 26.8903 22.8838 22.4658C18.9682 18.5571 17.0649 16.7746 12.5827 16.7696C8.10045 16.7647 6.16194 18.5429 2.25325 22.4586C-2.10877 26.7797 -8.06567 32.7702 -19.3727 32.8045C-30.6797 32.8388 -36.6076 26.8039 -41.0068 22.3794C-44.9225 18.4707 -46.8258 16.6881 -51.308 16.6832C-55.7902 16.6783 -57.7287 18.4564 -61.6373 22.372C-65.9994 26.6932 -71.9563 32.6838 -83.2633 32.7181C-94.5703 32.7524 -100.498 26.7174 -104.897 22.2928C-108.813 18.3841 -110.716 16.6016 -115.199 16.5967L-115.181 0.588879C-103.874 0.554583 -97.946 6.58954 -93.5467 11.0141C-89.6311 14.9228 -87.7278 16.7053 -83.2456 16.7103C-78.7633 16.7152 -76.8248 14.937 -72.9161 11.0214C-68.5541 6.7002 -62.5973 0.709688 -51.2902 0.675392C-39.9832 0.641096 -34.0553 6.676 -29.6561 11.1006C-25.7404 15.0092 -23.8372 16.7918 -19.3549 16.7967C-14.8727 16.8016 -12.9342 15.0234 -9.02552 11.1078C-4.6635 6.78662 1.2934 0.796142 12.6004 0.761848C23.9074 0.727555 29.8354 6.76245 34.2346 11.187C38.1502 15.0957 40.0535 16.8782 44.5357 16.8831L44.518 32.8909Z" fill="#1AA1E0"/>
<path d="M172.151 33.0038C160.844 33.0381 154.916 27.0032 150.516 22.5786C146.601 18.67 144.698 16.8874 140.215 16.8825C135.733 16.8776 133.795 18.6558 129.886 22.5714C125.524 26.8926 119.567 32.883 108.26 32.9173C96.953 32.9516 91.0251 26.9168 86.6258 22.4922C82.7102 18.5835 80.8069 16.801 76.3247 16.796C71.8424 16.7911 69.904 18.5692 65.9953 22.4849C61.6333 26.806 55.6764 32.7966 44.3694 32.8309C33.0623 32.8652 27.1345 26.8302 22.7353 22.4057C18.8196 18.497 16.9163 16.7145 12.4341 16.7095L12.4519 0.701727C23.7589 0.667433 29.6867 6.70239 34.0859 11.1269C38.0016 15.0356 39.9049 16.8182 44.3871 16.8231C48.8693 16.8281 50.8078 15.0498 54.7165 11.1342C59.0785 6.81305 65.0354 0.822534 76.3424 0.78824C87.6494 0.753947 93.5774 6.78885 97.9766 11.2134C101.892 15.1221 103.796 16.9046 108.278 16.9095C112.76 16.9145 114.698 15.1363 118.607 11.2206C122.969 6.89947 128.926 0.908991 140.233 0.874697C151.54 0.840403 157.468 6.8753 161.867 11.2999C165.783 15.2085 167.686 16.9911 172.168 16.996L172.151 33.0038Z" fill="#1AA1E0"/>
<path d="M298.961 33.1084C287.654 33.1427 281.726 27.1078 277.327 22.6832C273.411 18.7746 271.508 16.992 267.026 16.9871C262.544 16.9822 260.605 18.7604 256.697 22.676C252.334 26.9972 246.378 32.9877 235.071 33.022C223.764 33.0563 217.836 27.0214 213.436 22.5968C209.521 18.6882 207.617 16.9056 203.135 16.9007C198.653 16.8957 196.715 18.6738 192.806 22.5895C188.444 26.9106 182.487 32.9012 171.18 32.9355C159.873 32.9698 153.945 26.9348 149.546 22.5103C145.63 18.6016 143.727 16.8191 139.245 16.8141L139.262 0.806343C150.57 0.772049 156.497 6.80701 160.897 11.2316C164.812 15.1402 166.716 16.9228 171.198 16.9277C175.68 16.9327 177.618 15.1545 181.527 11.2388C185.889 6.91766 191.846 0.92715 203.153 0.892856C214.46 0.858553 220.388 6.89345 224.787 11.318C228.703 15.2267 230.606 17.0092 235.088 17.0142C239.571 17.0191 241.509 15.2409 245.418 11.3252C249.78 7.00409 255.737 1.01362 267.044 0.979313C278.351 0.94501 284.279 6.97991 288.678 11.4045C292.594 15.3131 294.497 17.0957 298.979 17.1006L298.961 33.1084Z" fill="#1AA1E0"/>
<path d="M426.594 33.2213C415.287 33.2556 409.359 27.2207 404.96 22.7961C401.044 18.8874 399.141 17.1049 394.659 17.1C390.176 17.095 388.238 18.8732 384.329 22.7888C379.967 27.11 374.01 33.1005 362.703 33.1348C351.396 33.1691 345.468 27.1342 341.069 22.7096C337.154 18.801 335.25 17.0184 330.768 17.0135C326.286 17.0085 324.347 18.7867 320.439 22.7023C316.077 27.0235 310.12 33.0141 298.813 33.0484C287.506 33.0827 281.578 27.0477 277.179 22.6231C273.263 18.7145 271.36 16.9319 266.877 16.927L266.895 0.919191C278.202 0.884888 284.13 6.91984 288.529 11.3444C292.445 15.2531 294.348 17.0357 298.83 17.0406C303.313 17.0455 305.251 15.2673 309.16 11.3517C313.522 7.03052 319.479 1.03996 330.786 1.00566C342.093 0.971354 348.021 7.00625 352.42 11.4309C356.336 15.3395 358.239 17.122 362.721 17.127C367.203 17.132 369.142 15.3537 373.05 11.4381C377.412 7.11694 383.369 1.12646 394.676 1.09216C405.983 1.05786 411.911 7.09271 416.311 11.5173C420.226 15.426 422.129 17.2085 426.612 17.2135L426.594 33.2213Z" fill="#1AA1E0"/>
<path d="M553.176 33.1426C541.869 33.1769 535.941 27.1421 531.542 22.7174C527.626 18.8088 525.723 17.0263 521.241 17.0213C516.758 17.0163 514.82 18.7945 510.911 22.7102C506.549 27.0313 500.592 33.0218 489.285 33.0562C477.978 33.0905 472.05 27.0556 467.651 22.631C463.736 18.7223 461.832 16.9398 457.35 16.9348C452.868 16.9298 450.929 18.708 447.021 22.6237C442.659 26.9448 436.702 32.9354 425.395 32.9697C414.088 33.004 408.16 26.9691 403.761 22.5445C399.845 18.6359 397.942 16.8534 393.459 16.8484L393.477 0.840538C404.784 0.806234 410.712 6.8411 415.111 11.2657C419.027 15.1744 420.93 16.9569 425.412 16.9619C429.895 16.9669 431.833 15.1886 435.742 11.273C440.104 6.95187 446.061 0.961307 457.368 0.927004C468.675 0.8927 474.603 6.9276 479.002 11.3522C482.918 15.2609 484.821 17.0434 489.303 17.0484C493.785 17.0533 495.724 15.2751 499.632 11.3594C503.995 7.03829 509.951 1.04781 521.258 1.01351C532.565 0.979204 538.493 7.01406 542.893 11.4387C546.808 15.3473 548.712 17.1298 553.194 17.1348L553.176 33.1426Z" fill="#1AA1E0"/>
<path d="M680.809 33.2555C669.502 33.2898 663.574 27.2549 659.174 22.8303C655.259 18.9216 653.355 17.1391 648.873 17.1342C644.391 17.1292 642.453 18.9074 638.544 22.823C634.182 27.1442 628.225 33.1347 616.918 33.169C605.611 33.2033 599.683 27.1684 595.284 22.7438C591.368 18.8352 589.465 17.0526 584.983 17.0477C580.501 17.0427 578.562 18.8209 574.653 22.7365C570.291 27.0577 564.334 33.0482 553.027 33.0825C541.72 33.1168 535.792 27.082 531.393 22.6574C527.478 18.7487 525.574 16.9662 521.092 16.9612L521.11 0.953386C532.417 0.919083 538.345 6.95394 542.744 11.3786C546.66 15.2872 548.563 17.0698 553.045 17.0747C557.527 17.0797 559.466 15.3015 563.375 11.3859C567.737 7.06472 573.693 1.07416 585 1.03985C596.307 1.00555 602.235 7.04045 606.635 11.4651C610.55 15.3737 612.454 17.1562 616.936 17.1612C621.418 17.1662 623.356 15.3879 627.265 11.4723C631.627 7.15113 637.584 1.16066 648.891 1.12636C660.198 1.09205 666.126 7.1269 670.525 11.5515C674.441 15.4602 676.344 17.2427 680.826 17.2477L680.809 33.2555Z" fill="#1AA1E0"/>
<path d="M807.619 33.3601C796.312 33.3944 790.384 27.3595 785.985 22.9349C782.069 19.0262 780.166 17.2438 775.684 17.2388C771.202 17.2338 769.263 19.012 765.355 22.9276C760.993 27.2488 755.036 33.2393 743.729 33.2736C732.422 33.3079 726.494 27.2731 722.095 22.8484C718.179 18.9398 716.275 17.1572 711.793 17.1523C707.311 17.1473 705.373 18.9255 701.464 22.8411C697.102 27.1623 691.145 33.1528 679.838 33.1872C668.531 33.2215 662.603 27.1866 658.204 22.762C654.288 18.8533 652.385 17.0708 647.903 17.0659L647.92 1.058C659.227 1.0237 665.155 7.05856 669.555 11.4832C673.47 15.3918 675.374 17.1744 679.856 17.1793C684.338 17.1843 686.276 15.4061 690.185 11.4905C694.547 7.16933 700.504 1.17877 711.811 1.14447C723.118 1.11016 729.046 7.14506 733.445 11.5697C737.361 15.4783 739.264 17.2608 743.746 17.2658C748.229 17.2708 750.167 15.4925 754.076 11.5769C758.438 7.25575 764.395 1.26528 775.702 1.23097C787.009 1.19667 792.937 7.23152 797.336 11.6561C801.252 15.5648 803.155 17.3473 807.637 17.3523L807.619 33.3601Z" fill="#1AA1E0"/>
<path d="M935.252 33.4729C923.945 33.5072 918.017 27.4724 913.618 23.0478C909.702 19.1391 907.799 17.3566 903.317 17.3516C898.834 17.3466 896.896 19.1248 892.987 23.0405C888.625 27.3616 882.668 33.3522 871.361 33.3865C860.054 33.4208 854.126 27.3859 849.727 22.9613C845.812 19.0526 843.908 17.2701 839.426 17.2651C834.944 17.2601 833.005 19.0383 829.097 22.954C824.735 27.2751 818.778 33.2657 807.471 33.3C796.164 33.3343 790.236 27.2995 785.836 22.8748C781.921 18.9662 780.018 17.1837 775.535 17.1787L775.553 1.17085C786.86 1.13655 792.788 7.17141 797.187 11.596C801.103 15.5047 803.006 17.2872 807.488 17.2922C811.971 17.2972 813.909 15.519 817.818 11.6033C822.18 7.28218 828.137 1.29162 839.444 1.25732C850.751 1.22301 856.679 7.25791 861.078 11.6825C864.994 15.5912 866.897 17.3737 871.379 17.3787C875.861 17.3836 877.8 15.6054 881.708 11.6898C886.07 7.3686 892.027 1.37812 903.334 1.34382C914.641 1.30952 920.569 7.34437 924.969 11.769C928.884 15.6777 930.787 17.4601 935.27 17.4651L935.252 33.4729Z" fill="#1AA1E0"/>
<path d="M1061.83 33.3943C1050.53 33.4286 1044.6 27.3937 1040.2 22.9691C1036.28 19.0604 1034.38 17.2779 1029.9 17.273C1025.42 17.268 1023.48 19.0462 1019.57 22.9618C1015.21 27.283 1009.25 33.2735 997.943 33.3078C986.636 33.3421 980.708 27.3073 976.309 22.8826C972.394 18.974 970.49 17.1914 966.008 17.1865C961.526 17.1815 959.587 18.9597 955.679 22.8753C951.317 27.1965 945.36 33.187 934.053 33.2213C922.746 33.2556 916.818 27.2208 912.419 22.7962C908.503 18.8875 906.6 17.105 902.117 17.1L902.135 1.0922C913.442 1.05789 919.37 7.09275 923.769 11.5174C927.685 15.426 929.588 17.2086 934.07 17.2135C938.553 17.2185 940.491 15.4403 944.4 11.5247C948.762 7.20353 954.719 1.21297 966.026 1.17866C977.333 1.14436 983.261 7.17926 987.66 11.6039C991.576 15.5125 993.479 17.295 997.961 17.3C1002.44 17.305 1004.38 15.5267 1008.29 11.6111C1012.65 7.28995 1018.61 1.29947 1029.92 1.26517C1041.22 1.23086 1047.15 7.26572 1051.55 11.6903C1055.47 15.599 1057.37 17.3815 1061.85 17.3865L1061.83 33.3943Z" fill="#1AA1E0"/>
<path d="M1189.47 33.5072C1178.16 33.5414 1172.23 27.5065 1167.83 23.0819C1163.92 19.1732 1162.01 17.3908 1157.53 17.3858C1153.05 17.3808 1151.11 19.159 1147.2 23.0747C1142.84 27.3958 1136.88 33.3864 1125.58 33.4207C1114.27 33.455 1108.34 27.4201 1103.94 22.9955C1100.03 19.0868 1098.12 17.3043 1093.64 17.2993C1089.16 17.2943 1087.22 19.0725 1083.31 22.9882C1078.95 27.3093 1072.99 33.2999 1061.69 33.3342C1050.38 33.3685 1044.45 27.3336 1040.05 22.909C1036.14 19.0004 1034.23 17.2179 1029.75 17.2129L1029.77 1.20505C1041.07 1.17074 1047 7.2056 1051.4 11.6302C1055.32 15.5389 1057.22 17.3214 1061.7 17.3264C1066.19 17.3314 1068.12 15.5532 1072.03 11.6375C1076.39 7.31638 1082.35 1.32581 1093.66 1.29151C1104.97 1.25721 1110.89 7.29211 1115.29 11.7167C1119.21 15.6254 1121.11 17.4079 1125.59 17.4129C1130.08 17.4178 1132.01 15.6396 1135.92 11.7239C1140.29 7.40277 1146.24 1.41232 1157.55 1.37799C1168.86 1.34366 1174.78 7.37856 1179.18 11.8032C1183.1 15.7119 1185 17.4944 1189.48 17.4994L1189.47 33.5072Z" fill="#1AA1E0"/>
<path d="M1316.28 33.6118C1304.97 33.6461 1299.04 27.6111 1294.64 23.1865C1290.73 19.2778 1288.82 17.4954 1284.34 17.4904C1279.86 17.4855 1277.92 19.2637 1274.01 23.1793C1269.65 27.5005 1263.69 33.4909 1252.39 33.5252C1241.08 33.5595 1235.15 27.5247 1230.75 23.1001C1226.84 19.1914 1224.93 17.4089 1220.45 17.4039C1215.97 17.3989 1214.03 19.1771 1210.12 23.0928C1205.76 27.414 1199.8 33.4045 1188.5 33.4388C1177.19 33.4731 1171.26 27.4383 1166.86 23.0136C1162.95 19.105 1161.04 17.3225 1156.56 17.3175L1156.58 1.30969C1167.89 1.27536 1173.81 7.31022 1178.21 11.7348C1182.13 15.6435 1184.03 17.426 1188.51 17.431C1193 17.436 1194.93 15.6578 1198.84 11.7421C1203.21 7.42091 1209.16 1.43038 1220.47 1.39609C1231.78 1.3618 1237.7 7.39678 1242.1 11.8214C1246.02 15.73 1247.92 17.5124 1252.4 17.5174C1256.89 17.5224 1258.83 15.7442 1262.73 11.8285C1267.1 7.50731 1273.05 1.51693 1284.36 1.48265C1295.67 1.44836 1301.59 7.48318 1305.99 11.9078C1309.91 15.8164 1311.81 17.599 1316.3 17.604L1316.28 33.6118Z" fill="#1AA1E0"/>
<path d="M1443.91 33.7246C1432.6 33.7589 1426.67 27.7239 1422.28 23.2994C1418.36 19.3907 1416.46 17.6083 1411.97 17.6033C1407.49 17.5983 1405.55 19.3765 1401.65 23.2922C1397.28 27.6134 1391.33 33.6038 1380.02 33.6381C1368.71 33.6724 1362.78 27.6375 1358.39 23.213C1354.47 19.3043 1352.57 17.5217 1348.08 17.5167C1343.6 17.5118 1341.66 19.29 1337.75 23.2056C1333.39 27.5268 1327.44 33.5174 1316.13 33.5517C1304.82 33.5859 1298.89 27.5511 1294.49 23.1265C1290.58 19.2178 1288.68 17.4353 1284.19 17.4304L1284.21 1.42253C1295.52 1.38824 1301.45 7.42307 1305.85 11.8476C1309.76 15.7563 1311.66 17.5389 1316.15 17.5439C1320.63 17.5488 1322.57 15.7706 1326.48 11.855C1330.84 7.53375 1336.79 1.54323 1348.1 1.50894C1359.41 1.47465 1365.34 7.50962 1369.74 11.9342C1373.65 15.8429 1375.55 17.6253 1380.04 17.6303C1384.52 17.6352 1386.46 15.857 1390.37 11.9414C1394.73 7.62016 1400.69 1.62978 1411.99 1.59549C1423.3 1.5612 1429.23 7.59603 1433.63 12.0206C1437.54 15.9293 1439.45 17.7118 1443.93 17.7168L1443.91 33.7246Z" fill="#1AA1E0"/>
<path d="M1570.49 33.646C1559.18 33.6803 1553.26 27.6453 1548.86 23.2207C1544.94 19.312 1543.04 17.5296 1538.56 17.5246C1534.07 17.5197 1532.14 19.2979 1528.23 23.2135C1523.87 27.5347 1517.91 33.5251 1506.6 33.5594C1495.29 33.5937 1489.37 27.5589 1484.97 23.1343C1481.05 19.2256 1479.15 17.4431 1474.67 17.4381C1470.18 17.4331 1468.25 19.2113 1464.34 23.127C1459.97 27.4482 1454.02 33.4387 1442.71 33.473C1431.4 33.5073 1425.48 27.4724 1421.08 23.0478C1417.16 19.1391 1415.26 17.3567 1410.78 17.3517L1410.79 1.34388C1422.1 1.30959 1428.03 7.34441 1432.43 11.769C1436.34 15.6777 1438.25 17.4602 1442.73 17.4652C1447.21 17.4702 1449.15 15.692 1453.06 11.7763C1457.42 7.4551 1463.38 1.46457 1474.68 1.43028C1485.99 1.39599 1491.92 7.43097 1496.32 11.8555C1500.23 15.7642 1502.14 17.5466 1506.62 17.5516C1511.1 17.5566 1513.04 15.7784 1516.95 11.8627C1521.31 7.5415 1527.27 1.55113 1538.57 1.51684C1549.88 1.48255 1555.81 7.51739 1560.21 11.942C1564.12 15.8506 1566.03 17.6332 1570.51 17.6382L1570.49 33.646Z" fill="#1AA1E0"/>
<path d="M1698.12 33.7588C1686.82 33.7931 1680.89 27.7581 1676.49 23.3335C1672.57 19.4249 1670.67 17.6425 1666.19 17.6375C1661.71 17.6325 1659.77 19.4107 1655.86 23.3264C1651.5 27.6476 1645.54 33.638 1634.23 33.6723C1622.93 33.7065 1617 27.6717 1612.6 23.2471C1608.68 19.3385 1606.78 17.5559 1602.3 17.5509C1597.82 17.546 1595.88 19.3242 1591.97 23.2398C1587.61 27.561 1581.65 33.5516 1570.34 33.5859C1559.04 33.6201 1553.11 27.5853 1548.71 23.1607C1544.79 19.252 1542.89 17.4695 1538.41 17.4646L1538.43 1.45673C1549.73 1.42244 1555.66 7.45727 1560.06 11.8818C1563.98 15.7905 1565.88 17.5731 1570.36 17.5781C1574.84 17.583 1576.78 15.8048 1580.69 11.8892C1585.05 7.56795 1591.01 1.57742 1602.32 1.54313C1613.62 1.50884 1619.55 7.54383 1623.95 11.9684C1627.87 15.8771 1629.77 17.6595 1634.25 17.6645C1638.73 17.6694 1640.67 15.8912 1644.58 11.9756C1648.94 7.65435 1654.9 1.66398 1666.21 1.62969C1677.51 1.5954 1683.44 7.63023 1687.84 12.0548C1691.76 15.9635 1693.66 17.746 1698.14 17.751L1698.12 33.7588Z" fill="#1AA1E0"/>
<path d="M1824.94 33.8634C1813.63 33.8977 1807.7 27.8627 1803.3 23.4382C1799.39 19.5295 1797.48 17.7471 1793 17.7421C1788.52 17.7371 1786.58 19.5153 1782.67 23.431C1778.31 27.7522 1772.35 33.7426 1761.04 33.7769C1749.74 33.8112 1743.81 27.7763 1739.41 23.3518C1735.49 19.4431 1733.59 17.6605 1729.11 17.6555C1724.63 17.6506 1722.69 19.4288 1718.78 23.3444C1714.42 27.6657 1708.46 33.6562 1697.15 33.6905C1685.85 33.7248 1679.92 27.6899 1675.52 23.2653C1671.6 19.3566 1669.7 17.5741 1665.22 17.5692L1665.24 1.56134C1676.54 1.52706 1682.47 7.56189 1686.87 11.9865C1690.79 15.8951 1692.69 17.6777 1697.17 17.6827C1701.65 17.6876 1703.59 15.9094 1707.5 11.9938C1711.86 7.67256 1717.82 1.68204 1729.13 1.64775C1740.43 1.61347 1746.36 7.64845 1750.76 12.073C1754.68 15.9817 1756.58 17.7641 1761.06 17.7691C1765.54 17.774 1767.48 15.9958 1771.39 12.0802C1775.75 7.75897 1781.71 1.76859 1793.02 1.7343C1804.32 1.70002 1810.25 7.73485 1814.65 12.1594C1818.57 16.0681 1820.47 17.8507 1824.95 17.8556L1824.94 33.8634Z" fill="#1AA1E0"/>
<path d="M1952.57 33.9763C1941.26 34.0106 1935.33 27.9756 1930.93 23.551C1927.02 19.6423 1925.11 17.8599 1920.63 17.855C1916.15 17.85 1914.21 19.6282 1910.3 23.5438C1905.94 27.8651 1899.98 33.8554 1888.68 33.8897C1877.37 33.924 1871.44 27.8892 1867.04 23.4646C1863.13 19.5559 1861.22 17.7734 1856.74 17.7684C1852.26 17.7634 1850.32 19.5416 1846.41 23.4573C1842.05 27.7785 1836.09 33.769 1824.79 33.8033C1813.48 33.8376 1807.55 27.8027 1803.15 23.3782C1799.24 19.4695 1797.33 17.687 1792.85 17.682L1792.87 1.67419C1804.18 1.63991 1810.1 7.67474 1814.5 12.0993C1818.42 16.008 1820.32 17.7905 1824.8 17.7955C1829.29 17.8005 1831.23 16.0223 1835.13 12.1066C1839.5 7.78542 1845.45 1.79488 1856.76 1.7606C1868.07 1.72631 1873.99 7.76129 1878.39 12.1859C1882.31 16.0945 1884.21 17.8769 1888.69 17.8819C1893.18 17.8869 1895.12 16.1087 1899.02 12.193C1903.39 7.87182 1909.34 1.88144 1920.65 1.84715C1931.96 1.81287 1937.89 7.8477 1942.28 12.2723C1946.2 16.181 1948.1 17.9635 1952.59 17.9685L1952.57 33.9763Z" fill="#1AA1E0"/>
</g>
</svg>
