<svg width="1919" height="855" viewBox="0 0 1919 855" fill="none" xmlns="http://www.w3.org/2000/svg">
<mask id="mask0_183_8061" style="mask-type:alpha" maskUnits="userSpaceOnUse" x="-1" y="0" width="1920" height="855">
<path d="M-1 0H1919V855H-1V0Z" fill="white"/>
</mask>
<g mask="url(#mask0_183_8061)">
<path d="M1038.98 684.5C1044.73 684.5 1049.48 689.367 1049.48 695.5C1049.48 701.633 1044.73 706.5 1038.98 706.5C1033.24 706.5 1028.48 701.633 1028.48 695.5C1028.48 689.367 1033.24 684.5 1038.98 684.5Z" stroke="#F4CE43" stroke-width="3"/>
<circle cx="1411.98" cy="176" r="9.5" stroke="#64AE60" stroke-width="5"/>
<circle cx="1029.98" cy="80" r="4.5" stroke="#64AE60" stroke-opacity="0.3" stroke-width="5"/>
<circle cx="2104" cy="400" r="400" fill="#F1F7F9"/>
<path d="M346.524 603.549H367.934C387.089 603.549 402.865 609.249 402.865 629.768C402.865 649.147 387.089 655.986 367.934 655.986H346.524V603.549ZM367.934 698.164C417.513 698.164 458.078 679.925 458.078 629.768C458.078 578.471 418.64 560.232 367.934 560.232H191.232V603.549H206.162L182.499 660.546L147.005 603.549H163.344V560.232H58.5513V603.549H82.7775L153.203 708.423C147.569 716.403 135.174 719.823 121.652 715.263L120.525 691.324H76.5801V750.601C90.1017 757.44 110.384 762 127.286 762C163.344 762 194.894 752.881 224.191 693.604L267.01 603.549H289.058V716.403H266.522V758.58H370.187V715.263H346.524V698.164H367.934ZM434.415 369.863V326.546H363.427L299.199 439.399V369.863H313.847V326.546H225.957V369.863H241.732V482.717H225.957V526.034H296.945L361.173 415.461V482.717H346.524V526.034H434.415V482.717H417.513V369.863H434.415ZM556.109 369.863H570.758V404.061H516.671V369.863H532.447V326.546H444.556V369.863H460.331V482.717H444.556V526.034H532.447V482.717H516.671V446.239H570.758V482.717H556.109V526.034H644V482.717H627.098V369.863H644V326.546H556.109V369.863ZM149.334 482.717H122.291V467.898H140.32C191.026 467.898 223.703 440.539 223.703 396.082C223.703 352.765 189.899 326.546 140.32 326.546H46.7954V371.003H65.951V482.717H46.7954V526.034H149.334V482.717ZM122.291 369.863H132.432C153.841 369.863 165.109 378.983 165.109 397.222C165.109 415.461 153.841 424.58 132.432 424.58H122.291V369.863ZM468.219 560.232V604.689H489.628V716.403H468.219V758.58H573.012V716.403H545.968V604.689H596.674V626.348H639.493V560.232H468.219ZM-27.5735 632.618H-60.2507V603.549H-8.41788V620.648H37.781V560.232H-138V603.549H-117.718V715.263H-138V758.58H-27.5735C17.4986 758.58 54.683 743.476 54.683 695.599C54.683 647.722 19.7522 632.618 -27.5735 632.618ZM-28.7003 715.263H-60.2507V673.655H-28.7003C-12.9251 673.655 0.596542 677.36 0.596542 694.459C0.596542 711.558 -11.7983 715.263 -28.7003 715.263ZM466.933 249.031L408.34 94H297.913V137.317H312.562L269.743 246.751C231.432 249.031 214.045 234.212 208.411 203.433C228.694 192.034 248.976 166.956 248.976 137.317H272.639V94H179.115V137.317H196.017C196.017 158.976 180.241 171.515 154.325 171.515H134.042V137.317H153.198V94H54.0396V137.317H77.7024V249.031H54.0396V292.348H150.944V249.031H134.042V214.833H156.578C165.593 246.751 183.622 271.829 207.285 282.089C232.074 292.348 240.942 292.348 308.55 292.348H347.492V249.031H329.464L333.971 234.212H399.325L403.832 249.031H388.057V292.348H487.216V249.031H466.933ZM348.619 190.894L365.521 143.017L383.55 190.894H348.619ZM37.781 226.232H-6.16426V249.031H-60.2507V213.693H-9.54468V170.375H-60.2507V137.317H-6.16426V160.116H37.781V94H-138V137.317H-116.591V249.031H-138V292.348H37.781V226.232ZM454.697 94V158.976H496.389V137.317H520.052V249.031H499.769V292.348H598.928V249.031H577.519V137.317H601.182V158.976H644V94H454.697ZM37.781 459.918H-6.16426V482.717H-60.2507V447.379H-9.54468V404.061H-60.2507V369.863H-6.16426V392.662H37.781V326.546H-138V369.863H-116.591V482.717H-138V526.034H37.781V459.918Z" fill="#F1F7F9" fill-opacity="0.5"/>
</g>
</svg>
