<svg width="290" height="178" viewBox="0 0 290 178" fill="none" xmlns="http://www.w3.org/2000/svg">
<path d="M35.8689 54.4496C35.7222 54.4496 35.5889 54.4096 35.4689 54.3296C35.3622 54.2629 35.3089 54.1763 35.3089 54.0696C35.3089 54.0296 35.3156 54.0096 35.3289 54.0096C35.8489 51.9163 36.2756 50.1429 36.6089 48.6896C36.8756 47.5029 37.0089 46.7163 37.0089 46.3296C37.0089 46.0229 36.9622 45.6496 36.8689 45.2096C36.7889 44.7696 36.6022 43.8829 36.3089 42.5496L35.8289 40.3896C35.7889 40.2296 35.7689 40.1096 35.7689 40.0296C35.7689 39.8429 35.8089 39.7096 35.8889 39.6296C35.9822 39.5363 36.0956 39.4896 36.2289 39.4896C36.4289 39.4896 36.5756 39.6496 36.6689 39.9696C36.7756 40.3296 36.9289 41.0429 37.1289 42.1096L37.2089 42.4696L37.3689 43.2496L37.6489 44.6896L38.1289 42.3496L38.5089 40.5096C38.6422 39.9763 38.7422 39.6296 38.8089 39.4696C38.9156 39.2829 39.0289 39.1896 39.1489 39.1896C39.2822 39.1896 39.3956 39.2296 39.4889 39.3096C39.5822 39.3896 39.6289 39.4963 39.6289 39.6296C39.6289 39.9763 39.4022 41.0163 38.9489 42.7496C38.6689 43.8029 38.4622 44.6363 38.3289 45.2496C38.1956 45.8496 38.1289 46.2829 38.1289 46.5496C38.1289 46.6829 38.2556 47.3896 38.5089 48.6696C38.7622 49.9496 38.9822 51.0296 39.1689 51.9096L39.3089 52.4696C39.4422 52.9763 39.5089 53.3363 39.5089 53.5496C39.5089 53.8963 39.3889 54.0696 39.1489 54.0696C38.8156 54.0696 38.6222 53.9096 38.5689 53.5896C38.5156 53.3229 38.4156 52.7829 38.2689 51.9696L38.1089 51.0496C37.8556 49.6496 37.6689 48.6963 37.5489 48.1896C36.8822 51.1763 36.4822 52.9096 36.3489 53.3896C36.1622 54.0963 36.0022 54.4496 35.8689 54.4496ZM44.2631 54.7096C43.9165 54.7096 43.5965 54.5963 43.3031 54.3696C43.0098 54.1563 42.7698 53.8629 42.5831 53.4896C42.1965 52.6763 41.9565 51.7896 41.8631 50.8296C41.7431 49.9229 41.6831 49.0496 41.6831 48.2096C41.6831 48.0496 41.6898 47.9163 41.7031 47.8096V47.4496C41.7031 47.3829 41.6965 47.3496 41.6831 47.3496V46.9896L41.7031 45.5896C41.7165 45.1629 41.7698 44.4829 41.8631 43.5496C41.9298 42.9096 42.0831 42.2896 42.3231 41.6896C42.4165 41.4229 42.5365 41.2229 42.6831 41.0896C42.8298 40.9429 42.9965 40.8696 43.1831 40.8696C43.7165 40.8696 44.1965 40.9696 44.6231 41.1696C45.0498 41.3563 45.4098 41.6229 45.7031 41.9696C45.9698 42.3029 46.1965 42.7163 46.3831 43.2096C46.5698 43.6896 46.7031 44.2029 46.7831 44.7496C46.8631 45.3096 46.9031 45.9029 46.9031 46.5296V46.6896C46.9031 47.1029 46.9098 47.4763 46.9231 47.8096L46.9431 48.9496C46.9431 52.7896 46.0498 54.7096 44.2631 54.7096ZM44.1831 53.8696C44.4231 53.8696 44.6431 53.7763 44.8431 53.5896C45.0431 53.3896 45.1965 53.1229 45.3031 52.7896C45.5565 52.1096 45.7098 51.3763 45.7631 50.5896C45.8298 49.9096 45.8631 49.3229 45.8631 48.8296C45.8631 48.2296 45.8165 47.4429 45.7231 46.4696C45.6431 45.4429 45.6031 44.6763 45.6031 44.1696V43.8096C45.5765 43.3029 45.4031 42.8629 45.0831 42.4896C44.7765 42.1163 44.3965 41.9296 43.9431 41.9296C43.4898 41.9296 43.1898 42.1896 43.0431 42.7096C42.9098 43.1229 42.8431 43.6563 42.8431 44.3096C42.8431 44.5629 42.8498 44.7763 42.8631 44.9496V45.4896L42.8231 46.4096C42.7965 46.6896 42.7831 46.9963 42.7831 47.3296C42.7831 48.0496 42.8031 48.7629 42.8431 49.4696C42.8965 50.4696 43.0298 51.4429 43.2431 52.3896C43.4565 53.3763 43.7698 53.8696 44.1831 53.8696ZM52.8902 54.2696C52.8368 54.3096 52.7435 54.3296 52.6102 54.3296C52.5035 54.3296 52.3902 54.3163 52.2702 54.2896C52.1635 54.2629 52.0835 54.2229 52.0302 54.1696C51.9635 54.0763 51.9168 53.9363 51.8902 53.7496C51.8768 53.5496 51.8702 53.2696 51.8702 52.9096L51.8102 50.0896C51.7968 49.7829 51.7768 49.3096 51.7502 48.6696C51.7368 48.0296 51.7368 47.6829 51.7502 47.6296L51.2102 48.7296C50.9968 49.1296 50.7102 49.3296 50.3502 49.3296C50.1368 49.3296 49.9168 49.2629 49.6902 49.1296C49.0635 48.7563 48.7368 48.1696 48.7102 47.3696V46.4896C48.7102 45.7563 48.7235 44.8963 48.7502 43.9096L48.8102 42.4296C48.8102 42.3629 48.8102 42.2429 48.8102 42.0696C48.8235 41.8963 48.8502 41.7429 48.8902 41.6096C48.9302 41.4763 48.9968 41.3629 49.0902 41.2696C49.1968 41.1629 49.3302 41.1096 49.4902 41.1096C49.5835 41.1096 49.6702 41.1296 49.7502 41.1696C49.9902 41.2896 50.1102 41.5429 50.1102 41.9296C50.1102 42.0629 50.0968 42.1963 50.0702 42.3296C50.0568 42.4629 50.0502 42.5829 50.0502 42.6896L50.0102 43.2896C49.9835 43.8496 49.9568 44.2563 49.9302 44.5096L49.8702 45.2696C49.8035 46.0963 49.7702 46.6296 49.7702 46.8696C49.7702 47.1763 49.7902 47.4496 49.8302 47.6896C49.8435 47.8763 49.8902 48.0629 49.9702 48.2496C50.0635 48.4229 50.1702 48.5096 50.2902 48.5096C50.3835 48.5096 50.4902 48.4429 50.6102 48.3096C50.8635 47.9763 51.0435 47.6763 51.1502 47.4096C51.3102 46.9963 51.4502 46.5429 51.5702 46.0496C51.6902 45.5429 51.7502 45.1029 51.7502 44.7296C51.7768 43.9429 51.8168 43.1496 51.8702 42.3496C51.8702 42.1896 51.8835 41.9363 51.9102 41.5896C51.9102 41.5496 51.9102 41.4896 51.9102 41.4096C51.9235 41.3296 51.9435 41.2696 51.9702 41.2296C52.0902 41.0829 52.1902 41.0029 52.2702 40.9896C52.4835 40.9363 52.6835 40.9963 52.8702 41.1696C53.0568 41.3429 53.1435 41.5363 53.1302 41.7496L53.0702 42.6296C53.0168 43.4029 52.9568 43.9829 52.8902 44.3696C52.8102 44.7696 52.7435 45.5096 52.6902 46.5896L52.6302 47.6696C52.6168 47.7763 52.6102 47.9363 52.6102 48.1496C52.6102 48.4696 52.6368 48.9363 52.6902 49.5496C52.7168 49.7763 52.7435 50.0896 52.7702 50.4896C52.7968 50.9296 52.8635 51.5896 52.9702 52.4696C52.9968 52.7096 53.0502 53.0696 53.1302 53.5496C53.1702 53.8696 53.0902 54.1096 52.8902 54.2696ZM56.4759 54.5296C56.3559 54.5296 56.2426 54.4696 56.1359 54.3496C56.0426 54.2296 56.0226 54.1096 56.0759 53.9896C56.1159 53.8696 56.2093 53.6696 56.3559 53.3896C56.7693 52.7096 57.0426 51.7896 57.1759 50.6296C57.1893 50.5496 57.1359 50.4496 57.0159 50.3296C56.9093 50.1963 56.8426 50.0963 56.8159 50.0296L56.5359 49.6296C56.2559 49.2429 56.0226 48.8896 55.8359 48.5696C55.6626 48.2363 55.4959 47.7963 55.3359 47.2496C55.2693 47.0229 55.2226 46.7829 55.1959 46.5296C55.1693 46.2629 55.1559 46.0963 55.1559 46.0296L55.1159 45.5696C55.1026 45.3429 55.0826 45.1429 55.0559 44.9696C55.0293 44.7829 55.0093 44.6296 54.9959 44.5096C54.8759 43.7363 54.8159 43.1029 54.8159 42.6096C54.8159 42.4229 54.8226 42.2829 54.8359 42.1896C54.8493 41.9896 54.8493 41.8096 54.8359 41.6496C54.8359 41.4896 54.8359 41.3563 54.8359 41.2496C54.8493 40.9829 54.9426 40.8496 55.1159 40.8496C55.1559 40.8496 55.2293 40.8629 55.3359 40.8896C55.8293 41.0363 56.0759 41.3163 56.0759 41.7296C56.0759 41.8363 56.0626 42.0363 56.0359 42.3296L55.9759 43.1496C55.9759 43.5229 55.9826 43.8029 55.9959 43.9896C56.1026 45.0963 56.2226 46.1896 56.3559 47.2696C56.3959 47.5629 56.4893 47.8363 56.6359 48.0896C56.7959 48.3296 56.9559 48.5296 57.1159 48.6896C57.2893 48.8363 57.3893 48.9096 57.4159 48.9096C57.4959 48.6696 57.5426 48.5096 57.5559 48.4296C57.6359 47.2429 57.6826 46.3696 57.6959 45.8096C57.7093 45.3429 57.7159 44.5696 57.7159 43.4896V41.1496C57.7293 41.0429 57.7559 40.9696 57.7959 40.9296C57.8493 40.8763 57.9359 40.8496 58.0559 40.8496C58.3226 40.8496 58.5426 40.9496 58.7159 41.1496C58.8893 41.3363 58.9559 41.5629 58.9159 41.8296C58.8759 42.1496 58.8559 42.5763 58.8559 43.1096C58.8559 43.4296 58.8626 43.6496 58.8759 43.7696C58.8893 43.8896 58.8959 44.0563 58.8959 44.2696C58.8959 44.6029 58.8693 45.0763 58.8159 45.6896C58.8159 45.8363 58.8026 46.0696 58.7759 46.3896C58.7493 46.7896 58.6826 47.4029 58.5759 48.2296L58.4959 48.8896C58.4159 49.6896 58.2559 50.6763 58.0159 51.8496C57.9359 52.2229 57.8159 52.6163 57.6559 53.0296C57.4959 53.4296 57.3159 53.8029 57.1159 54.1496C57.0759 54.2429 56.9893 54.3296 56.8559 54.4096C56.7226 54.4896 56.5959 54.5296 56.4759 54.5296ZM68.4594 54.3096C68.286 54.3363 68.1394 54.2963 68.0194 54.1896C67.8994 54.0696 67.8394 53.9096 67.8394 53.7096C67.7994 53.0696 67.7794 52.4363 67.7794 51.8096C67.7794 50.9563 67.7994 50.1096 67.8394 49.2696C67.866 48.4163 67.8794 47.7896 67.8794 47.3896C67.7327 46.4429 67.646 44.9163 67.6194 42.8096C67.6194 42.3163 67.6127 41.9163 67.5994 41.6096C66.9194 41.6096 66.426 41.5963 66.1194 41.5696H65.9994C65.7994 41.5696 65.6927 41.6763 65.6794 41.8896L65.6594 43.3296C65.6594 44.0229 65.6794 44.4429 65.7194 44.5896C65.746 44.7496 65.7594 44.8563 65.7594 44.9096C65.7594 45.0163 65.746 45.1763 65.7194 45.3896C65.6927 45.6029 65.6794 45.7629 65.6794 45.8696C65.6794 46.0696 65.7127 46.2429 65.7794 46.3896C65.8327 46.5096 65.8527 46.6763 65.8394 46.8896C65.8394 47.1029 65.8394 47.2629 65.8394 47.3696C65.8527 47.7829 65.846 48.3896 65.8194 49.1896C65.7927 49.8296 65.7794 50.3029 65.7794 50.6096C65.7794 50.9963 65.7927 51.4363 65.8194 51.9296C65.846 52.4096 65.866 52.7496 65.8794 52.9496L65.9194 53.5096C65.9327 53.7229 65.886 53.8963 65.7794 54.0296C65.686 54.1496 65.546 54.2096 65.3594 54.2096C65.2927 54.2096 65.206 54.1963 65.0994 54.1696C64.9794 54.1296 64.8994 54.0629 64.8594 53.9696C64.8194 53.8763 64.7927 53.7563 64.7794 53.6096L64.7194 51.9296L64.7394 49.5096C64.7127 48.0696 64.6994 46.9963 64.6994 46.2896L64.6794 44.6696C64.666 43.9096 64.6327 43.1029 64.5794 42.2496L64.5394 41.4296V41.3096C64.5394 41.1763 64.566 41.0829 64.6194 41.0296C64.6727 40.9629 64.7727 40.9096 64.9194 40.8696C65.186 40.8029 65.426 40.7696 65.6394 40.7696C65.7594 40.7696 65.846 40.7763 65.8994 40.7896C66.006 40.7896 66.166 40.8029 66.3794 40.8296C66.6727 40.8563 66.906 40.8696 67.0794 40.8696C67.3327 40.8696 67.566 40.8429 67.7794 40.7896C67.926 40.7496 68.1127 40.7829 68.3394 40.8896C68.566 40.9829 68.6927 41.1229 68.7194 41.3096C68.746 41.4963 68.7594 41.6429 68.7594 41.7496C68.7594 41.8563 68.7527 41.9363 68.7394 41.9896C68.686 42.1496 68.6594 42.3429 68.6594 42.5696C68.6594 42.6896 68.666 42.8229 68.6794 42.9696C68.6927 43.1163 68.6994 43.2696 68.6994 43.4296C68.6994 43.5629 68.6927 43.6696 68.6794 43.7496C68.666 43.8696 68.6594 44.0629 68.6594 44.3296C68.6594 44.7696 68.6994 45.3896 68.7794 46.1896L68.8394 46.7296C68.8527 46.8496 68.8594 47.0296 68.8594 47.2696C68.8594 47.5496 68.8527 47.7563 68.8394 47.8896C68.8394 47.9963 68.8327 48.1296 68.8194 48.2896C68.8194 48.4363 68.826 48.6163 68.8394 48.8296C68.826 49.1363 68.8327 49.5963 68.8594 50.2096L68.8794 50.6496L68.9994 53.7896C68.9994 53.9363 68.9594 54.0563 68.8794 54.1496C68.8127 54.2296 68.6727 54.2829 68.4594 54.3096ZM73.7358 54.7096C73.3891 54.7096 73.0691 54.5963 72.7758 54.3696C72.4824 54.1563 72.2424 53.8629 72.0558 53.4896C71.6691 52.6763 71.4291 51.7896 71.3358 50.8296C71.2158 49.9229 71.1558 49.0496 71.1558 48.2096C71.1558 48.0496 71.1624 47.9163 71.1758 47.8096V47.4496C71.1758 47.3829 71.1691 47.3496 71.1558 47.3496V46.9896L71.1758 45.5896C71.1891 45.1629 71.2424 44.4829 71.3358 43.5496C71.4024 42.9096 71.5558 42.2896 71.7958 41.6896C71.8891 41.4229 72.0091 41.2229 72.1558 41.0896C72.3024 40.9429 72.4691 40.8696 72.6558 40.8696C73.1891 40.8696 73.6691 40.9696 74.0958 41.1696C74.5224 41.3563 74.8824 41.6229 75.1758 41.9696C75.4424 42.3029 75.6691 42.7163 75.8558 43.2096C76.0424 43.6896 76.1758 44.2029 76.2558 44.7496C76.3358 45.3096 76.3758 45.9029 76.3758 46.5296V46.6896C76.3758 47.1029 76.3824 47.4763 76.3958 47.8096L76.4158 48.9496C76.4158 52.7896 75.5224 54.7096 73.7358 54.7096ZM73.6558 53.8696C73.8958 53.8696 74.1158 53.7763 74.3158 53.5896C74.5158 53.3896 74.6691 53.1229 74.7758 52.7896C75.0291 52.1096 75.1824 51.3763 75.2358 50.5896C75.3024 49.9096 75.3358 49.3229 75.3358 48.8296C75.3358 48.2296 75.2891 47.4429 75.1958 46.4696C75.1158 45.4429 75.0758 44.6763 75.0758 44.1696V43.8096C75.0491 43.3029 74.8758 42.8629 74.5558 42.4896C74.2491 42.1163 73.8691 41.9296 73.4158 41.9296C72.9624 41.9296 72.6624 42.1896 72.5158 42.7096C72.3824 43.1229 72.3158 43.6563 72.3158 44.3096C72.3158 44.5629 72.3224 44.7763 72.3358 44.9496V45.4896L72.2958 46.4096C72.2691 46.6896 72.2558 46.9963 72.2558 47.3296C72.2558 48.0496 72.2758 48.7629 72.3158 49.4696C72.3691 50.4696 72.5024 51.4429 72.7158 52.3896C72.9291 53.3763 73.2424 53.8696 73.6558 53.8696ZM82.4828 54.3096C82.3095 54.3363 82.1628 54.2963 82.0428 54.1896C81.9228 54.0696 81.8628 53.9096 81.8628 53.7096C81.8228 53.0696 81.8028 52.4363 81.8028 51.8096C81.8028 50.9563 81.8228 50.1096 81.8628 49.2696C81.8895 48.4163 81.9028 47.7896 81.9028 47.3896C81.7561 46.4429 81.6695 44.9163 81.6428 42.8096C81.6428 42.3163 81.6361 41.9163 81.6228 41.6096C80.9428 41.6096 80.4495 41.5963 80.1428 41.5696H80.0228C79.8228 41.5696 79.7161 41.6763 79.7028 41.8896L79.6828 43.3296C79.6828 44.0229 79.7028 44.4429 79.7428 44.5896C79.7695 44.7496 79.7828 44.8563 79.7828 44.9096C79.7828 45.0163 79.7695 45.1763 79.7428 45.3896C79.7161 45.6029 79.7028 45.7629 79.7028 45.8696C79.7028 46.0696 79.7361 46.2429 79.8028 46.3896C79.8561 46.5096 79.8761 46.6763 79.8628 46.8896C79.8628 47.1029 79.8628 47.2629 79.8628 47.3696C79.8761 47.7829 79.8695 48.3896 79.8428 49.1896C79.8161 49.8296 79.8028 50.3029 79.8028 50.6096C79.8028 50.9963 79.8161 51.4363 79.8428 51.9296C79.8695 52.4096 79.8895 52.7496 79.9028 52.9496L79.9428 53.5096C79.9561 53.7229 79.9095 53.8963 79.8028 54.0296C79.7095 54.1496 79.5695 54.2096 79.3828 54.2096C79.3161 54.2096 79.2295 54.1963 79.1228 54.1696C79.0028 54.1296 78.9228 54.0629 78.8828 53.9696C78.8428 53.8763 78.8161 53.7563 78.8028 53.6096L78.7428 51.9296L78.7628 49.5096C78.7361 48.0696 78.7228 46.9963 78.7228 46.2896L78.7028 44.6696C78.6895 43.9096 78.6561 43.1029 78.6028 42.2496L78.5628 41.4296V41.3096C78.5628 41.1763 78.5895 41.0829 78.6428 41.0296C78.6961 40.9629 78.7961 40.9096 78.9428 40.8696C79.2095 40.8029 79.4495 40.7696 79.6628 40.7696C79.7828 40.7696 79.8695 40.7763 79.9228 40.7896C80.0295 40.7896 80.1895 40.8029 80.4028 40.8296C80.6961 40.8563 80.9295 40.8696 81.1028 40.8696C81.3561 40.8696 81.5895 40.8429 81.8028 40.7896C81.9495 40.7496 82.1361 40.7829 82.3628 40.8896C82.5895 40.9829 82.7161 41.1229 82.7428 41.3096C82.7695 41.4963 82.7828 41.6429 82.7828 41.7496C82.7828 41.8563 82.7761 41.9363 82.7628 41.9896C82.7095 42.1496 82.6828 42.3429 82.6828 42.5696C82.6828 42.6896 82.6895 42.8229 82.7028 42.9696C82.7161 43.1163 82.7228 43.2696 82.7228 43.4296C82.7228 43.5629 82.7161 43.6696 82.7028 43.7496C82.6895 43.8696 82.6828 44.0629 82.6828 44.3296C82.6828 44.7696 82.7228 45.3896 82.8028 46.1896L82.8628 46.7296C82.8761 46.8496 82.8828 47.0296 82.8828 47.2696C82.8828 47.5496 82.8761 47.7563 82.8628 47.8896C82.8628 47.9963 82.8561 48.1296 82.8428 48.2896C82.8428 48.4363 82.8495 48.6163 82.8628 48.8296C82.8495 49.1363 82.8561 49.5963 82.8828 50.2096L82.9028 50.6496L83.0228 53.7896C83.0228 53.9363 82.9828 54.0563 82.9028 54.1496C82.8361 54.2296 82.6961 54.2829 82.4828 54.3096ZM89.3592 54.5096C89.0526 54.5096 88.8259 54.4629 88.6792 54.3696C88.5326 54.2763 88.4592 54.1029 88.4592 53.8496C88.4592 53.4496 88.3926 52.7696 88.2592 51.8096L88.1792 51.3896L86.1992 51.0896C86.1192 51.3963 86.0059 52.0163 85.8592 52.9496C85.7792 53.6029 85.6526 54.0363 85.4792 54.2496C85.3859 54.3696 85.2526 54.4296 85.0792 54.4296C84.9192 54.4296 84.7726 54.3829 84.6392 54.2896C84.5059 54.1829 84.4392 54.0563 84.4392 53.9096L84.4792 53.8096L84.4992 53.7296C85.3792 50.3029 86.0459 46.9229 86.4992 43.5896C86.4992 43.5363 86.5059 43.4496 86.5192 43.3296C86.5326 43.1963 86.5459 43.0096 86.5592 42.7696C86.5992 42.2763 86.6392 41.8829 86.6792 41.5896C86.7326 41.2963 86.8126 41.0763 86.9192 40.9296H87.5992C87.7859 40.9296 87.9459 40.9763 88.0792 41.0696C88.2126 41.1496 88.2792 41.2696 88.2792 41.4296C88.2792 42.4429 88.4192 43.9496 88.6992 45.9496C88.9659 48.0029 89.0992 49.4429 89.0992 50.2696C89.0992 50.3496 89.1326 50.5563 89.1992 50.8896C89.2659 51.1963 89.2992 51.3963 89.2992 51.4896C89.2992 51.5829 89.3659 51.9829 89.4992 52.6896C89.6192 53.3296 89.6792 53.7429 89.6792 53.9296V53.9496C89.6792 54.2429 89.5726 54.4296 89.3592 54.5096ZM88.0392 50.6696C87.9992 50.4696 87.9792 50.2229 87.9792 49.9296C87.9792 48.7296 87.8726 47.1963 87.6592 45.3296L87.4592 43.2496C86.8859 46.3829 86.4926 48.7496 86.2792 50.3496C86.4792 50.4829 87.0659 50.5896 88.0392 50.6696ZM94.0758 54.6096C93.7824 54.6096 93.4691 54.5629 93.1358 54.4696C92.8158 54.3896 92.5691 54.2963 92.3958 54.1896C91.5024 53.6163 91.0558 52.0496 91.0558 49.4896V48.9496V48.3296V47.8496C91.0558 47.3163 91.0624 46.8429 91.0758 46.4296C91.0891 46.0029 91.1158 45.5429 91.1558 45.0496C91.1958 44.5296 91.2558 44.1096 91.3358 43.7896C91.4158 43.4563 91.5491 43.0829 91.7358 42.6696C91.8958 42.2829 92.0891 41.9829 92.3158 41.7696C92.5558 41.5563 92.8624 41.3763 93.2358 41.2296C93.5691 41.0829 93.9824 41.0096 94.4758 41.0096C94.6758 41.0096 94.8291 41.0563 94.9358 41.1496C95.0424 41.2429 95.0958 41.3629 95.0958 41.5096C95.0958 41.6429 95.0491 41.7629 94.9558 41.8696C94.8758 41.9763 94.7758 42.0363 94.6558 42.0496H93.7158C93.4491 42.0496 93.2158 42.2163 93.0158 42.5496C92.8158 42.8829 92.6758 43.3163 92.5958 43.8496C92.4224 44.8363 92.3358 45.6363 92.3358 46.2496V46.3496L92.2958 48.2696C92.2691 48.8429 92.2558 49.4896 92.2558 50.2096C92.2558 50.7163 92.2758 51.1296 92.3158 51.4496C92.3824 51.9296 92.4958 52.3296 92.6558 52.6496C92.8158 53.0096 93.0891 53.2696 93.4758 53.4296C93.6758 53.5096 93.8958 53.5496 94.1358 53.5496C94.2824 53.5496 94.4291 53.4963 94.5758 53.3896C94.7491 53.3896 94.8891 53.4296 94.9958 53.5096C95.1158 53.5763 95.1758 53.6829 95.1758 53.8296C95.1758 54.3496 94.8091 54.6096 94.0758 54.6096ZM98.1017 54.0096L98.0817 53.2296C98.0684 53.0029 98.0617 52.7496 98.0617 52.4696L98.0817 51.7896C98.0417 51.6429 97.9417 50.1829 97.7817 47.4096C97.6217 44.6363 97.5284 42.8563 97.5017 42.0696C96.7284 42.0429 96.2351 41.9629 96.0217 41.8296C95.8751 41.7229 95.8017 41.6029 95.8017 41.4696C95.8017 41.3629 95.8684 41.2696 96.0017 41.1896C96.1484 41.0963 96.2951 41.0496 96.4417 41.0496C96.8151 41.0496 97.2684 41.0763 97.8017 41.1296C98.3084 41.1963 98.7617 41.2296 99.1617 41.2296H99.3217H99.4817C99.8951 41.2296 100.102 41.3896 100.102 41.7096C100.102 41.8696 100.035 42.0029 99.9017 42.1096C99.7684 42.2029 99.6151 42.2496 99.4417 42.2496C99.3217 42.2496 99.1484 42.2296 98.9217 42.1896L98.5217 42.1096L98.5017 42.2096L98.4817 42.3096C98.4817 43.4963 98.5951 45.3896 98.8217 47.9896C99.0351 50.4296 99.1417 52.3229 99.1417 53.6696C99.1417 53.8296 99.0684 53.9696 98.9217 54.0896C98.7884 54.2096 98.6351 54.2696 98.4617 54.2696L98.1017 54.0096ZM102.519 54.2496C102.252 54.2363 102.099 54.0963 102.059 53.8296L102.119 48.8296V47.2896V44.3296C102.119 43.0229 102.126 42.0429 102.139 41.3896C102.139 41.3096 102.179 41.2363 102.259 41.1696C102.352 41.1029 102.466 41.0696 102.599 41.0696C102.706 41.0696 102.812 41.1029 102.919 41.1696C103.026 41.2363 103.106 41.3229 103.159 41.4296C103.279 41.6429 103.339 41.9563 103.339 42.3696C103.339 42.6629 103.292 43.1229 103.199 43.7496C103.159 44.0296 103.132 44.3363 103.119 44.6696C103.106 45.0029 103.099 45.2229 103.099 45.3296C103.072 45.5163 103.039 45.8163 102.999 46.2296C102.972 46.6429 102.972 46.8429 102.999 46.8296C103.199 46.8029 103.446 46.8496 103.739 46.9696C103.966 47.0496 104.099 47.0896 104.139 47.0896C104.726 47.1963 105.172 47.5496 105.479 48.1496C105.799 48.7363 105.986 49.3429 106.039 49.9696C106.052 50.1163 106.059 50.3296 106.059 50.6096C106.059 51.2763 105.999 51.8496 105.879 52.3296C105.746 53.2629 105.186 53.9029 104.199 54.2496C104.039 54.3029 103.832 54.3296 103.579 54.3296C103.392 54.3296 103.186 54.3229 102.959 54.3096C102.746 54.2829 102.599 54.2629 102.519 54.2496ZM103.179 53.4496C103.326 53.4896 103.459 53.5096 103.579 53.5096C103.846 53.5096 104.072 53.4363 104.259 53.2896C104.446 53.1296 104.566 52.9229 104.619 52.6696C104.686 52.3629 104.759 51.9029 104.839 51.2896C104.866 50.9963 104.892 50.7629 104.919 50.5896C104.932 50.5096 104.939 50.3896 104.939 50.2296C104.939 49.6696 104.832 49.1563 104.619 48.6896C104.406 48.2096 104.099 47.9429 103.699 47.8896C103.419 47.8363 103.212 47.8029 103.079 47.7896L103.179 53.4496ZM45.9412 76.3296C45.4878 76.3296 45.2612 75.2296 45.2612 73.0296L45.2812 71.8896L45.3012 70.9696V70.9096V70.7096C45.3145 70.6029 45.3212 70.4763 45.3212 70.3296C45.3212 70.3029 45.3012 70.2696 45.2612 70.2296C45.2212 70.1896 45.2012 70.1563 45.2012 70.1296V70.1096C45.1345 70.1363 45.0145 70.1496 44.8412 70.1496C44.6678 70.1496 44.4545 70.1229 44.2012 70.0696C44.1212 70.0563 43.9078 70.0229 43.5612 69.9696V72.2696C43.5612 72.6163 43.5812 73.1629 43.6212 73.9096C43.6612 74.6429 43.6812 75.1896 43.6812 75.5496C43.6812 75.7496 43.6278 75.9229 43.5212 76.0696C43.4145 76.2163 43.2745 76.2896 43.1012 76.2896C42.8478 76.2896 42.6678 76.0429 42.5612 75.5496C42.4545 75.0429 42.4012 74.3829 42.4012 73.5696L42.4412 71.9496C42.4545 71.4963 42.4612 71.0163 42.4612 70.5096V70.1696V69.8896C42.4612 69.6763 42.4545 69.5363 42.4412 69.4696V69.3696L42.5012 68.2096C42.5012 67.7029 42.4812 66.9496 42.4412 65.9496C42.4012 64.9496 42.3812 64.1963 42.3812 63.6896C42.3812 63.5296 42.4345 63.3896 42.5412 63.2696C42.6478 63.1496 42.7812 63.0896 42.9412 63.0896C43.3678 63.0896 43.5812 63.4896 43.5812 64.2896L43.5412 66.7696C43.5145 67.5163 43.5012 68.3496 43.5012 69.2696C43.7012 69.3363 44.0612 69.3696 44.5812 69.3696H45.3212C45.3478 69.2896 45.3612 69.2096 45.3612 69.1296C45.3612 68.4896 45.3212 67.5429 45.2412 66.2896C45.1478 65.1163 45.1012 64.1629 45.1012 63.4296C45.1012 63.2829 45.1545 63.1629 45.2612 63.0696C45.3812 62.9629 45.5212 62.9096 45.6812 62.9096C45.7745 62.9096 45.9078 62.9429 46.0812 63.0096L46.2612 63.0896C46.2612 64.9829 46.3278 67.5096 46.4612 70.6696L46.6412 75.7296C46.6412 75.9163 46.5678 76.0629 46.4212 76.1696C46.2878 76.2763 46.1278 76.3296 45.9412 76.3296ZM52.9823 76.5096C52.6756 76.5096 52.4489 76.4629 52.3023 76.3696C52.1556 76.2763 52.0823 76.1029 52.0823 75.8496C52.0823 75.4496 52.0156 74.7696 51.8823 73.8096L51.8023 73.3896L49.8223 73.0896C49.7423 73.3963 49.6289 74.0163 49.4823 74.9496C49.4023 75.6029 49.2756 76.0363 49.1023 76.2496C49.0089 76.3696 48.8756 76.4296 48.7023 76.4296C48.5423 76.4296 48.3956 76.3829 48.2623 76.2896C48.1289 76.1829 48.0623 76.0563 48.0623 75.9096L48.1023 75.8096L48.1223 75.7296C49.0023 72.3029 49.6689 68.9229 50.1223 65.5896C50.1223 65.5363 50.1289 65.4496 50.1423 65.3296C50.1556 65.1963 50.1689 65.0096 50.1823 64.7696C50.2223 64.2763 50.2623 63.8829 50.3023 63.5896C50.3556 63.2963 50.4356 63.0763 50.5423 62.9296H51.2223C51.4089 62.9296 51.5689 62.9763 51.7023 63.0696C51.8356 63.1496 51.9023 63.2696 51.9023 63.4296C51.9023 64.4429 52.0423 65.9496 52.3223 67.9496C52.5889 70.0029 52.7223 71.4429 52.7223 72.2696C52.7223 72.3496 52.7556 72.5563 52.8223 72.8896C52.8889 73.1963 52.9223 73.3963 52.9223 73.4896C52.9223 73.5829 52.9889 73.9829 53.1223 74.6896C53.2423 75.3296 53.3023 75.7429 53.3023 75.9296V75.9496C53.3023 76.2429 53.1956 76.4296 52.9823 76.5096ZM51.6623 72.6696C51.6223 72.4696 51.6023 72.2229 51.6023 71.9296C51.6023 70.7296 51.4956 69.1963 51.2823 67.3296L51.0823 65.2496C50.5089 68.3829 50.1156 70.7496 49.9023 72.3496C50.1023 72.4829 50.6889 72.5896 51.6623 72.6696ZM58.8512 76.4896C58.8378 76.4363 58.8112 76.3429 58.7712 76.2096C58.7445 76.0763 58.7378 75.9629 58.7512 75.8696C58.7778 74.3229 58.8178 73.1696 58.8712 72.4096C58.8845 72.1296 58.8912 71.7163 58.8912 71.1696C58.8912 70.1829 58.8445 68.9896 58.7512 67.5896C58.6712 65.8829 58.6312 64.5896 58.6312 63.7096C58.6312 63.5096 58.7112 63.3296 58.8712 63.1696C59.0312 63.0096 59.2245 62.9296 59.4512 62.9296C60.2112 62.9296 60.8712 62.9896 61.4312 63.1096C61.6978 63.1629 61.8712 63.2563 61.9512 63.3896C62.0312 63.5096 62.0578 63.7163 62.0312 64.0096C61.8445 64.1296 61.6512 64.1896 61.4512 64.1896C61.3845 64.1896 61.2845 64.1763 61.1512 64.1496C61.0312 64.1229 60.7112 64.0963 60.1912 64.0696H60.1512C59.9645 64.0696 59.8712 64.1696 59.8712 64.3696C59.8045 66.3029 59.7712 67.4029 59.7712 67.6696C59.7978 69.0563 59.8245 70.1029 59.8512 70.8096C59.8512 70.9029 59.8578 71.0163 59.8712 71.1496C59.8845 71.2829 59.8845 71.3963 59.8712 71.4896C59.8312 72.1029 59.8112 72.7496 59.8112 73.4296C59.8112 74.5363 59.8312 75.3096 59.8712 75.7496C59.8578 76.0429 59.8112 76.2429 59.7312 76.3496C59.6512 76.4696 59.5045 76.5296 59.2912 76.5296C59.2378 76.5296 59.0912 76.5163 58.8512 76.4896ZM63.2577 76.7696C63.1511 76.7696 63.0577 76.7363 62.9777 76.6696C62.8977 76.6029 62.8377 76.5163 62.7977 76.4096C62.7844 76.3829 62.7777 76.3429 62.7777 76.2896C62.7777 76.1163 62.8711 75.9763 63.0577 75.8696C63.4311 75.7096 63.7111 75.4696 63.8977 75.1496C64.0977 74.8163 64.2377 74.4296 64.3177 73.9896C64.5577 72.6829 64.6777 71.2629 64.6777 69.7296C64.6777 69.1563 64.6711 68.7229 64.6577 68.4296C64.5644 66.1763 64.4844 64.5896 64.4177 63.6696V63.5896C64.4177 63.4696 64.4444 63.3763 64.4977 63.3096C64.5511 63.2429 64.6444 63.1963 64.7777 63.1696C65.6311 63.0096 66.3111 62.9296 66.8177 62.9296C67.0844 62.9296 67.2844 62.9363 67.4177 62.9496C67.7244 62.9629 67.9577 63.0563 68.1177 63.2296C68.2777 63.4029 68.3577 63.6429 68.3577 63.9496L68.3777 65.0096C68.4044 65.9429 68.4177 66.6429 68.4177 67.1096L68.3977 68.0696C68.3977 69.4829 68.4511 71.2696 68.5577 73.4296C68.6111 74.4029 68.6577 75.1563 68.6977 75.6896C68.7111 75.9296 68.6711 76.1029 68.5777 76.2096C68.4977 76.3163 68.3577 76.3829 68.1577 76.4096C67.7177 76.4363 67.4844 76.2296 67.4577 75.7896C67.4977 75.4029 67.5177 75.0163 67.5177 74.6296C67.5177 74.2429 67.5111 73.9229 67.4977 73.6696L67.4777 71.3896C67.4777 70.2829 67.4577 69.1496 67.4177 67.9896C67.3911 67.0296 67.3511 66.1229 67.2977 65.2696C67.2444 64.4163 67.1911 63.8963 67.1377 63.7096C67.0577 63.7229 66.8911 63.7563 66.6377 63.8096C66.3844 63.8629 66.0377 63.9096 65.5977 63.9496C65.5577 64.5629 65.5377 65.0029 65.5377 65.2696C65.5377 65.5763 65.5577 65.8429 65.5977 66.0696C65.6244 66.4296 65.6511 66.9563 65.6777 67.6496V68.0896C65.6777 70.2496 65.6577 71.7096 65.6177 72.4696C65.5911 72.6829 65.5777 72.8496 65.5777 72.9696C65.5244 73.5296 65.4711 73.9563 65.4177 74.2496C65.2844 74.9563 64.8777 75.6763 64.1977 76.4096C64.0111 76.6229 63.7111 76.7429 63.2977 76.7696H63.2577ZM75.1698 76.5096C74.8631 76.5096 74.6364 76.4629 74.4898 76.3696C74.3431 76.2763 74.2698 76.1029 74.2698 75.8496C74.2698 75.4496 74.2031 74.7696 74.0698 73.8096L73.9898 73.3896L72.0098 73.0896C71.9298 73.3963 71.8164 74.0163 71.6698 74.9496C71.5898 75.6029 71.4631 76.0363 71.2898 76.2496C71.1964 76.3696 71.0631 76.4296 70.8898 76.4296C70.7298 76.4296 70.5831 76.3829 70.4498 76.2896C70.3164 76.1829 70.2498 76.0563 70.2498 75.9096L70.2898 75.8096L70.3098 75.7296C71.1898 72.3029 71.8564 68.9229 72.3098 65.5896C72.3098 65.5363 72.3164 65.4496 72.3298 65.3296C72.3431 65.1963 72.3564 65.0096 72.3698 64.7696C72.4098 64.2763 72.4498 63.8829 72.4898 63.5896C72.5431 63.2963 72.6231 63.0763 72.7298 62.9296H73.4098C73.5964 62.9296 73.7564 62.9763 73.8898 63.0696C74.0231 63.1496 74.0898 63.2696 74.0898 63.4296C74.0898 64.4429 74.2298 65.9496 74.5098 67.9496C74.7764 70.0029 74.9098 71.4429 74.9098 72.2696C74.9098 72.3496 74.9431 72.5563 75.0098 72.8896C75.0764 73.1963 75.1098 73.3963 75.1098 73.4896C75.1098 73.5829 75.1764 73.9829 75.3098 74.6896C75.4298 75.3296 75.4898 75.7429 75.4898 75.9296V75.9496C75.4898 76.2429 75.3831 76.4296 75.1698 76.5096ZM73.8498 72.6696C73.8098 72.4696 73.7898 72.2229 73.7898 71.9296C73.7898 70.7296 73.6831 69.1963 73.4698 67.3296L73.2698 65.2496C72.6964 68.3829 72.3031 70.7496 72.0898 72.3496C72.2898 72.4829 72.8764 72.5896 73.8498 72.6696ZM77.7863 76.5296C77.493 76.5296 77.313 76.4029 77.2463 76.1496C77.193 75.9896 77.1663 75.7629 77.1663 75.4696C77.1663 74.8963 77.193 74.1896 77.2463 73.3496C77.313 72.5496 77.3463 71.8363 77.3463 71.2096C77.3463 70.5029 77.3663 69.4429 77.4063 68.0296L77.4463 64.8696C77.4463 64.7496 77.4263 64.5696 77.3863 64.3296L77.3263 63.8296V63.7296C77.3263 63.4229 77.373 63.1963 77.4663 63.0496C77.5597 62.9029 77.733 62.8296 77.9863 62.8296C78.333 62.8296 78.713 62.9296 79.1263 63.1296C79.5397 63.3296 79.8397 63.5829 80.0263 63.8896C80.413 64.5296 80.6063 65.3296 80.6063 66.2896C80.6063 67.0096 80.5463 67.6163 80.4263 68.1096C80.3063 68.5896 80.0997 69.0363 79.8063 69.4496C80.1663 69.7963 80.4063 70.2429 80.5263 70.7896C80.6597 71.3229 80.7263 71.9963 80.7263 72.8096C80.7263 73.6229 80.5863 74.3296 80.3063 74.9296C79.9863 75.6096 79.5197 76.0763 78.9063 76.3296C78.533 76.4629 78.1597 76.5296 77.7863 76.5296ZM78.4263 68.8696C79.1197 68.8563 79.4663 68.0496 79.4663 66.4496C79.4663 64.7296 79.193 63.8296 78.6463 63.7496C78.4997 64.0563 78.4263 64.7763 78.4263 65.9096V68.8696ZM78.3063 75.5096C78.733 75.4163 79.0663 75.1629 79.3063 74.7496C79.5463 74.3363 79.6663 73.8629 79.6663 73.3296C79.6663 72.7696 79.633 72.2763 79.5663 71.8496C79.513 71.5163 79.4397 71.2429 79.3463 71.0296C79.2663 70.8029 79.153 70.5963 79.0063 70.4096C78.8463 70.2096 78.6597 70.0896 78.4463 70.0496C78.393 70.8096 78.3663 71.8163 78.3663 73.0696C78.3663 73.1496 78.353 73.4029 78.3263 73.8296L78.2863 74.5096C78.2863 74.5363 78.293 74.5563 78.3063 74.5696V74.6096V75.5096ZM86.4295 76.3296C85.9761 76.3296 85.7495 75.2296 85.7495 73.0296L85.7695 71.8896L85.7895 70.9696V70.9096V70.7096C85.8028 70.6029 85.8095 70.4763 85.8095 70.3296C85.8095 70.3029 85.7895 70.2696 85.7495 70.2296C85.7095 70.1896 85.6895 70.1563 85.6895 70.1296V70.1096C85.6228 70.1363 85.5028 70.1496 85.3295 70.1496C85.1561 70.1496 84.9428 70.1229 84.6895 70.0696C84.6095 70.0563 84.3961 70.0229 84.0495 69.9696V72.2696C84.0495 72.6163 84.0695 73.1629 84.1095 73.9096C84.1495 74.6429 84.1695 75.1896 84.1695 75.5496C84.1695 75.7496 84.1161 75.9229 84.0095 76.0696C83.9028 76.2163 83.7628 76.2896 83.5895 76.2896C83.3361 76.2896 83.1561 76.0429 83.0495 75.5496C82.9428 75.0429 82.8895 74.3829 82.8895 73.5696L82.9295 71.9496C82.9428 71.4963 82.9495 71.0163 82.9495 70.5096V70.1696V69.8896C82.9495 69.6763 82.9428 69.5363 82.9295 69.4696V69.3696L82.9895 68.2096C82.9895 67.7029 82.9695 66.9496 82.9295 65.9496C82.8895 64.9496 82.8695 64.1963 82.8695 63.6896C82.8695 63.5296 82.9228 63.3896 83.0295 63.2696C83.1361 63.1496 83.2695 63.0896 83.4295 63.0896C83.8561 63.0896 84.0695 63.4896 84.0695 64.2896L84.0295 66.7696C84.0028 67.5163 83.9895 68.3496 83.9895 69.2696C84.1895 69.3363 84.5495 69.3696 85.0695 69.3696H85.8095C85.8361 69.2896 85.8495 69.2096 85.8495 69.1296C85.8495 68.4896 85.8095 67.5429 85.7295 66.2896C85.6361 65.1163 85.5895 64.1629 85.5895 63.4296C85.5895 63.2829 85.6428 63.1629 85.7495 63.0696C85.8695 62.9629 86.0095 62.9096 86.1695 62.9096C86.2628 62.9096 86.3961 62.9429 86.5695 63.0096L86.7495 63.0896C86.7495 64.9829 86.8161 67.5096 86.9495 70.6696L87.1295 75.7296C87.1295 75.9163 87.0561 76.0629 86.9095 76.1696C86.7761 76.2763 86.6161 76.3296 86.4295 76.3296ZM90.4505 76.5296C90.3305 76.5296 90.2172 76.4696 90.1105 76.3496C90.0172 76.2296 89.9972 76.1096 90.0505 75.9896C90.0905 75.8696 90.1839 75.6696 90.3305 75.3896C90.7439 74.7096 91.0172 73.7896 91.1505 72.6296C91.1639 72.5496 91.1105 72.4496 90.9905 72.3296C90.8839 72.1963 90.8172 72.0963 90.7905 72.0296L90.5105 71.6296C90.2305 71.2429 89.9972 70.8896 89.8105 70.5696C89.6372 70.2363 89.4705 69.7963 89.3105 69.2496C89.2439 69.0229 89.1972 68.7829 89.1705 68.5296C89.1439 68.2629 89.1305 68.0963 89.1305 68.0296L89.0905 67.5696C89.0772 67.3429 89.0572 67.1429 89.0305 66.9696C89.0039 66.7829 88.9839 66.6296 88.9705 66.5096C88.8505 65.7363 88.7905 65.1029 88.7905 64.6096C88.7905 64.4229 88.7972 64.2829 88.8105 64.1896C88.8239 63.9896 88.8239 63.8096 88.8105 63.6496C88.8105 63.4896 88.8105 63.3563 88.8105 63.2496C88.8239 62.9829 88.9172 62.8496 89.0905 62.8496C89.1305 62.8496 89.2039 62.8629 89.3105 62.8896C89.8039 63.0363 90.0505 63.3163 90.0505 63.7296C90.0505 63.8363 90.0372 64.0363 90.0105 64.3296L89.9505 65.1496C89.9505 65.5229 89.9572 65.8029 89.9705 65.9896C90.0772 67.0963 90.1972 68.1896 90.3305 69.2696C90.3705 69.5629 90.4639 69.8363 90.6105 70.0896C90.7705 70.3296 90.9305 70.5296 91.0905 70.6896C91.2639 70.8363 91.3639 70.9096 91.3905 70.9096C91.4705 70.6696 91.5172 70.5096 91.5305 70.4296C91.6105 69.2429 91.6572 68.3696 91.6705 67.8096C91.6839 67.3429 91.6905 66.5696 91.6905 65.4896V63.1496C91.7039 63.0429 91.7305 62.9696 91.7705 62.9296C91.8239 62.8763 91.9105 62.8496 92.0305 62.8496C92.2972 62.8496 92.5172 62.9496 92.6905 63.1496C92.8639 63.3363 92.9305 63.5629 92.8905 63.8296C92.8505 64.1496 92.8305 64.5763 92.8305 65.1096C92.8305 65.4296 92.8372 65.6496 92.8505 65.7696C92.8639 65.8896 92.8705 66.0563 92.8705 66.2696C92.8705 66.6029 92.8439 67.0763 92.7905 67.6896C92.7905 67.8363 92.7772 68.0696 92.7505 68.3896C92.7239 68.7896 92.6572 69.4029 92.5505 70.2296L92.4705 70.8896C92.3905 71.6896 92.2305 72.6763 91.9905 73.8496C91.9105 74.2229 91.7905 74.6163 91.6305 75.0296C91.4705 75.4296 91.2905 75.8029 91.0905 76.1496C91.0505 76.2429 90.9639 76.3296 90.8305 76.4096C90.6972 76.4896 90.5705 76.5296 90.4505 76.5296ZM99.9616 76.4696C99.6416 76.4696 99.335 76.3696 99.0416 76.1696C98.7483 75.9696 98.5083 75.6829 98.3216 75.3096C98.1616 74.9896 98.0483 74.6496 97.9816 74.2896C97.9283 73.9163 97.8816 73.4629 97.8416 72.9296L97.6616 70.4696H95.9416V72.4296V73.2296L96.1416 75.6896C96.1683 75.9163 96.135 76.0763 96.0416 76.1696C95.9616 76.2629 95.795 76.3096 95.5416 76.3096C95.355 76.3096 95.2216 76.2829 95.1416 76.2296C95.0616 76.1763 95.0083 76.0763 94.9816 75.9296C94.955 75.7163 94.9416 75.3896 94.9416 74.9496L94.9216 73.4296C94.895 72.0963 94.8816 71.0896 94.8816 70.4096C94.8816 69.8629 94.8883 69.4563 94.9016 69.1896L94.9216 67.9296C94.9216 67.6096 94.9083 67.0496 94.8816 66.2496L94.8616 64.7896C94.8616 64.6296 94.875 64.3896 94.9016 64.0696L94.9216 63.3696C94.9216 63.1963 94.955 63.0829 95.0216 63.0296C95.1016 62.9763 95.2483 62.9496 95.4616 62.9496C95.675 62.9496 95.8483 63.0163 95.9816 63.1496C96.1283 63.2696 96.1883 63.4229 96.1616 63.6096C96.1216 63.8629 96.1016 64.1296 96.1016 64.4096C96.1016 64.6896 96.1083 64.9029 96.1216 65.0496L96.1416 65.7096C96.1416 66.3763 96.115 67.0163 96.0616 67.6296C96.0083 68.2696 95.9816 68.9696 95.9816 69.7296C96.195 69.7563 96.355 69.7696 96.4616 69.7696C96.7016 69.7696 97.1016 69.7163 97.6616 69.6096C97.7016 68.8363 97.775 67.9696 97.8816 67.0096C97.9883 66.0229 98.115 65.1496 98.2616 64.3896C98.315 64.1096 98.475 63.7496 98.7416 63.3096C98.8083 63.1763 98.915 63.0763 99.0616 63.0096C99.2083 62.9429 99.3683 62.9096 99.5416 62.9096C99.7816 62.9096 100.102 63.0096 100.502 63.2096C100.915 63.4096 101.242 63.6363 101.482 63.8896C101.895 64.3429 102.222 64.9163 102.462 65.6096C102.715 66.3029 102.842 67.0696 102.842 67.9096C102.842 68.3229 102.815 68.7096 102.762 69.0696C102.708 69.4563 102.682 70.0429 102.682 70.8296C102.682 71.5496 102.662 72.0896 102.622 72.4496C102.502 73.6096 102.215 74.5963 101.762 75.4096C101.588 75.7429 101.328 76.0029 100.982 76.1896C100.635 76.3763 100.295 76.4696 99.9616 76.4696ZM99.9616 75.6696C100.215 75.6696 100.422 75.5496 100.582 75.3096C100.942 74.5763 101.188 73.9296 101.322 73.3696C101.468 72.8096 101.548 72.0696 101.562 71.1496C101.615 69.9496 101.642 68.9496 101.642 68.1496L101.622 67.2896C101.595 66.4896 101.468 65.7296 101.242 65.0096C101.175 64.7829 101.048 64.5563 100.862 64.3296C100.688 64.0896 100.495 63.8963 100.282 63.7496C100.082 63.6163 99.915 63.5496 99.7816 63.5496C99.675 63.5496 99.595 63.5963 99.5416 63.6896C99.4883 63.7829 99.435 63.9296 99.3816 64.1296C99.3416 64.3296 99.3016 64.4896 99.2616 64.6096C99.2083 64.7963 99.155 65.0763 99.1016 65.4496C99.0883 65.6096 99.055 65.8163 99.0016 66.0696C98.7883 67.2963 98.6816 68.6696 98.6816 70.1896V70.8296L98.7016 71.4096C98.715 71.5829 98.7283 71.9296 98.7416 72.4496C98.7683 72.9563 98.8083 73.4096 98.8616 73.8096C98.9016 74.1696 99.0683 74.6696 99.3616 75.3096C99.5083 75.5496 99.7083 75.6696 99.9616 75.6696Z" fill="#8A5B8F"/>
<path d="M278.5 26.8296L277.671 27.3884L278.5 26.8296ZM210.367 177.76C209.853 177.962 209.272 177.71 209.07 177.196L205.771 168.822C205.568 168.309 205.821 167.728 206.335 167.526C206.849 167.323 207.429 167.576 207.632 168.089L210.564 175.533L218.007 172.6C218.521 172.398 219.102 172.65 219.304 173.164C219.507 173.678 219.254 174.259 218.74 174.461L210.367 177.76ZM151.011 35.1714C150.846 34.0512 150.812 32.9387 150.9 31.8377L152.894 31.9975C152.817 32.9491 152.847 33.9106 152.989 34.8813L151.011 35.1714ZM152.774 25.5369C153.724 23.7099 155.001 21.9525 156.554 20.2766L158.021 21.6359C156.568 23.2033 155.403 24.8163 154.549 26.459L152.774 25.5369ZM161.317 16.0041C162.925 14.782 164.689 13.613 166.587 12.5035L167.596 14.2301C165.76 15.3035 164.064 16.4283 162.528 17.5964L161.317 16.0041ZM172.201 9.57289C174.05 8.7095 175.988 7.89424 178.002 7.13145L178.711 9.00179C176.74 9.748 174.848 10.5441 173.047 11.3851L172.201 9.57289ZM183.949 5.09904C185.92 4.49413 187.944 3.93669 190.013 3.43022L190.488 5.37283C188.456 5.87041 186.469 6.41766 184.536 7.01097L183.949 5.09904ZM196.158 2.10143C198.195 1.71767 200.263 1.38283 202.354 1.09995L202.622 3.08189C200.565 3.36015 198.531 3.68948 196.528 4.06685L196.158 2.10143ZM208.592 0.418228C210.669 0.244873 212.761 0.123856 214.859 0.058075L214.922 2.0571C212.859 2.12178 210.802 2.24077 208.758 2.4113L208.592 0.418228ZM221.14 0.0287018C223.236 0.0756073 225.33 0.180191 227.415 0.345367L227.257 2.33911C225.211 2.17702 223.154 2.07428 221.095 2.0282L221.14 0.0287018ZM233.664 1.02937C235.748 1.32277 237.816 1.6813 239.859 2.10805L239.45 4.06578C237.452 3.64842 235.428 3.29736 233.385 3.00986L233.664 1.02937ZM245.976 3.6167C248.01 4.19943 250.01 4.85735 251.966 5.59384L251.262 7.46556C249.359 6.74905 247.41 6.10796 245.425 5.53941L245.976 3.6167ZM257.772 8.07994C259.679 9.00342 261.531 10.0135 263.318 11.114L262.269 12.8169C260.543 11.7535 258.75 10.7756 256.9 9.88013L257.772 8.07994ZM268.518 14.7262C270.183 16.0286 271.77 17.4274 273.269 18.9261L271.855 20.3406C270.415 18.901 268.889 17.5557 267.286 16.3013L268.518 14.7262ZM277.462 23.686C278.109 24.5226 278.732 25.384 279.329 26.2707L277.671 27.3884C277.098 26.5379 276.5 25.7116 275.88 24.9091L277.462 23.686ZM279.329 26.2707C279.911 27.1338 280.466 27.9977 280.995 28.8622L279.288 29.9058C278.775 29.0667 278.236 28.2275 277.671 27.3884L279.329 26.2707ZM283.91 34.1618C284.818 36.017 285.612 37.8737 286.296 39.731L284.42 40.4227C283.759 38.6304 282.992 36.8363 282.114 35.0414L283.91 34.1618ZM288.086 45.53C288.582 47.5209 288.96 49.51 289.227 51.4955L287.244 51.7613C286.988 49.8487 286.624 47.9326 286.145 46.0143L288.086 45.53ZM289.7 57.5503C289.747 59.5791 289.685 61.6016 289.52 63.6162L287.527 63.4536C287.686 61.5061 287.746 59.5535 287.701 57.5969L289.7 57.5503ZM288.732 69.626C288.376 71.604 287.928 73.5725 287.396 75.5298L285.466 75.0056C285.983 73.1014 286.418 71.1896 286.763 69.2717L288.732 69.626ZM285.583 81.296C284.912 83.1788 284.169 85.05 283.36 86.9082L281.526 86.1106C282.318 84.2913 283.044 82.4622 283.699 80.6244L285.583 81.296ZM280.79 92.3616C279.887 94.1409 278.93 95.9071 277.925 97.6588L276.191 96.6635C277.18 94.9396 278.12 93.2037 279.006 91.4569L280.79 92.3616ZM274.812 102.807C273.743 104.492 272.633 106.161 271.49 107.816L269.845 106.678C270.974 105.044 272.069 103.396 273.124 101.735L274.812 102.807ZM267.99 112.695C266.798 114.299 265.58 115.887 264.34 117.457L262.77 116.217C263.999 114.662 265.205 113.09 266.384 111.503L267.99 112.695ZM260.563 122.112C259.281 123.651 257.984 125.172 256.676 126.674L255.168 125.36C256.466 123.869 257.754 122.36 259.025 120.832L260.563 122.112ZM252.699 131.153C251.35 132.644 249.997 134.114 248.646 135.561L247.184 134.196C248.528 132.756 249.874 131.294 251.216 129.811L252.699 131.153ZM244.532 139.908C243.134 141.368 241.745 142.801 240.373 144.207L238.941 142.81C240.311 141.408 241.695 139.979 243.087 138.525L244.532 139.908ZM236.184 148.47C234.755 149.917 233.352 151.331 231.986 152.71L230.565 151.303C231.932 149.922 233.334 148.51 234.761 147.064L236.184 148.47ZM227.802 156.945C226.349 158.424 224.955 159.855 223.63 161.237L222.186 159.853C223.519 158.463 224.919 157.025 226.375 155.544L227.802 156.945ZM219.556 165.587C218.135 167.149 216.845 168.629 215.706 170.024L214.156 168.759C215.324 167.329 216.639 165.821 218.076 164.241L219.556 165.587ZM212.246 174.752C211.692 175.642 211.248 176.467 210.917 177.228L209.083 176.431C209.462 175.558 209.957 174.645 210.549 173.695L212.246 174.752Z" fill="#CFC3DE"/>
<path d="M107.729 22.058C85.8177 15.7172 39.0462 14.8715 20.506 25.0171C1.96594 35.1627 0.44905 50.2965 1.12324 61.7948C1.96597 76.1677 8.70803 87.1589 20.506 92.6545C35.7263 99.744 111.521 94.7681 125.005 92.6545C138.489 90.5408 157.871 80.3951 160.821 64.3312C163.77 48.2674 129.64 28.3989 107.729 22.058Z" stroke="#CFC3DE" stroke-width="2" stroke-dasharray="6 6"/>
</svg>
