<svg width="419" height="467" viewBox="0 0 419 467" fill="none" xmlns="http://www.w3.org/2000/svg">
<path d="M68.871 44.8728C68.5776 44.8728 68.2643 44.8261 67.931 44.7328C67.611 44.6528 67.3643 44.5595 67.191 44.4528C66.2976 43.8795 65.851 42.3128 65.851 39.7528V39.2128V38.5928V38.1128C65.851 37.5795 65.8576 37.1061 65.871 36.6928C65.8843 36.2661 65.911 35.8061 65.951 35.3128C65.991 34.7928 66.051 34.3728 66.131 34.0528C66.211 33.7195 66.3443 33.3461 66.531 32.9328C66.691 32.5461 66.8843 32.2461 67.111 32.0328C67.351 31.8195 67.6576 31.6395 68.031 31.4928C68.3643 31.3461 68.7776 31.2728 69.271 31.2728C69.471 31.2728 69.6243 31.3195 69.731 31.4128C69.8376 31.5061 69.891 31.6261 69.891 31.7728C69.891 31.9061 69.8443 32.0261 69.751 32.1328C69.671 32.2395 69.571 32.2995 69.451 32.3128H68.511C68.2443 32.3128 68.011 32.4795 67.811 32.8128C67.611 33.1461 67.471 33.5795 67.391 34.1128C67.2176 35.0995 67.131 35.8995 67.131 36.5128V36.6128L67.091 38.5328C67.0643 39.1061 67.051 39.7528 67.051 40.4728C67.051 40.9795 67.071 41.3928 67.111 41.7128C67.1776 42.1928 67.291 42.5928 67.451 42.9128C67.611 43.2728 67.8843 43.5328 68.271 43.6928C68.471 43.7728 68.691 43.8128 68.931 43.8128C69.0776 43.8128 69.2243 43.7595 69.371 43.6528C69.5443 43.6528 69.6843 43.6928 69.791 43.7728C69.911 43.8395 69.971 43.9461 69.971 44.0928C69.971 44.6128 69.6043 44.8728 68.871 44.8728Z" fill="#8A5B8F"/>
<path d="M75.7169 44.7728C75.4102 44.7728 75.1836 44.7261 75.0369 44.6328C74.8902 44.5395 74.8169 44.3661 74.8169 44.1128C74.8169 43.7128 74.7502 43.0328 74.6169 42.0728L74.5369 41.6528L72.5569 41.3528C72.4769 41.6595 72.3636 42.2795 72.2169 43.2128C72.1369 43.8661 72.0102 44.2995 71.8369 44.5128C71.7436 44.6328 71.6102 44.6928 71.4369 44.6928C71.2769 44.6928 71.1302 44.6461 70.9969 44.5528C70.8636 44.4461 70.7969 44.3195 70.7969 44.1728L70.8369 44.0728L70.8569 43.9928C71.7369 40.5661 72.4036 37.1861 72.8569 33.8528C72.8569 33.7995 72.8636 33.7128 72.8769 33.5928C72.8902 33.4595 72.9036 33.2728 72.9169 33.0328C72.9569 32.5395 72.9969 32.1461 73.0369 31.8528C73.0902 31.5595 73.1702 31.3395 73.2769 31.1928H73.9569C74.1436 31.1928 74.3036 31.2395 74.4369 31.3328C74.5702 31.4128 74.6369 31.5328 74.6369 31.6928C74.6369 32.7061 74.7769 34.2128 75.0569 36.2128C75.3236 38.2661 75.4569 39.7061 75.4569 40.5328C75.4569 40.6128 75.4902 40.8195 75.5569 41.1528C75.6236 41.4595 75.6569 41.6595 75.6569 41.7528C75.6569 41.8461 75.7236 42.2461 75.8569 42.9528C75.9769 43.5928 76.0369 44.0061 76.0369 44.1928V44.2128C76.0369 44.5061 75.9302 44.6928 75.7169 44.7728ZM74.3969 40.9328C74.3569 40.7328 74.3369 40.4861 74.3369 40.1928C74.3369 38.9928 74.2302 37.4595 74.0169 35.5928L73.8169 33.5128C73.2436 36.6461 72.8502 39.0128 72.6369 40.6128C72.8369 40.7461 73.4236 40.8528 74.3969 40.9328Z" fill="#8A5B8F"/>
<path d="M85.8135 45.6328C85.4001 45.6328 85.1935 45.2195 85.1935 44.3928V43.1128V41.8328C85.1935 41.1661 85.1468 40.2928 85.0535 39.2128C84.9468 37.9995 84.8935 37.1661 84.8935 36.7128L84.9335 35.4728C84.9601 35.1128 84.9735 34.7061 84.9735 34.2528C84.9201 34.4261 84.7001 35.3461 84.3135 37.0128C83.9268 38.6261 83.5268 40.1195 83.1135 41.4928C82.7135 42.8128 82.3868 43.4728 82.1335 43.4728C81.8801 43.4728 81.6735 43.3995 81.5135 43.2528C81.3668 43.0928 81.2935 42.8795 81.2935 42.6128C81.2935 42.0261 81.0535 40.7795 80.5735 38.8728C80.1068 36.9661 79.6801 35.4061 79.2935 34.1928L79.1735 36.4528C79.0668 38.3595 78.9935 39.9461 78.9535 41.2128C78.9268 42.4395 78.9135 43.2795 78.9135 43.7328C78.9135 43.8395 78.9201 43.9395 78.9335 44.0328V44.3128C78.9335 44.5395 78.8868 44.7061 78.7935 44.8128C78.7001 44.9328 78.5268 44.9928 78.2735 44.9928C78.1401 44.9928 78.0135 44.9395 77.8935 44.8328C77.7735 44.7395 77.7135 44.6328 77.7135 44.5128C77.7135 43.1528 77.8135 41.1128 78.0135 38.3928C78.2135 35.6728 78.3135 33.6328 78.3135 32.2728C78.2335 32.1528 78.1935 32.0261 78.1935 31.8928C78.1935 31.7328 78.2668 31.6128 78.4135 31.5328C78.5735 31.4395 78.7601 31.3928 78.9735 31.3928C79.1468 31.3928 79.4668 32.0195 79.9335 33.2728C80.4001 34.5261 80.8668 35.9461 81.3335 37.5328C81.8001 39.1195 82.1001 40.2661 82.2335 40.9728C82.3401 40.6128 82.4268 40.2795 82.4935 39.9728L82.6135 39.4928C83.0401 37.6261 83.4668 35.9395 83.8935 34.4328C84.1468 33.5128 84.3935 32.7928 84.6335 32.2728C84.8735 31.7128 85.0935 31.4328 85.2935 31.4328C85.4801 31.4328 85.6468 31.4861 85.7935 31.5928C85.9535 31.6861 86.0335 31.8128 86.0335 31.9728C86.0335 32.9328 86.0735 34.3728 86.1535 36.2928C86.2468 38.0795 86.2935 39.4661 86.2935 40.4528L86.2735 41.5128L86.2335 42.5728C86.2335 42.7328 86.2535 42.9728 86.2935 43.2928L86.3535 43.9928C86.3668 44.1128 86.3735 44.2061 86.3735 44.2728C86.3868 44.3395 86.3935 44.3795 86.3935 44.3928C86.4601 44.5661 86.4935 44.6928 86.4935 44.7728C86.4935 44.9995 86.4268 45.1995 86.2935 45.3728C86.1601 45.5461 86.0001 45.6328 85.8135 45.6328Z" fill="#8A5B8F"/>
<path d="M94.3244 44.7928C93.9377 44.7928 93.7444 44.6461 93.7444 44.3528C93.7444 44.2861 93.7444 44.1461 93.7444 43.9328C93.7444 43.7195 93.7577 43.5195 93.7844 43.3328C93.8377 42.8528 93.8644 42.2861 93.8644 41.6328C93.8644 41.0061 93.8377 40.1595 93.7844 39.0928C93.7577 38.4928 93.7311 37.5661 93.7044 36.3128L93.6444 33.8728L93.6244 33.0328L93.6044 31.5328C93.6044 31.3195 93.7244 31.1995 93.9644 31.1728C94.2044 31.1595 94.4044 31.2261 94.5644 31.3728C94.7244 31.5195 94.8044 31.7061 94.8044 31.9328C94.8044 32.2661 94.7911 32.7928 94.7644 33.5128L94.7044 38.6528C94.6911 38.8261 94.6844 39.0595 94.6844 39.3528C94.6977 39.6461 94.7044 39.9328 94.7044 40.2128V41.4128V42.1328C94.6777 42.9728 94.7111 43.6728 94.8044 44.2328C94.8311 44.4195 94.7977 44.5595 94.7044 44.6528C94.6244 44.7461 94.4977 44.7928 94.3244 44.7928ZM89.6244 44.7928C89.4377 44.7928 89.2711 44.7661 89.1244 44.7128C88.9777 44.6595 88.9111 44.5261 88.9244 44.3128C88.9511 44.0061 88.9711 43.6261 88.9844 43.1728C88.9977 42.7195 89.0044 42.4061 89.0044 42.2328C89.0044 41.4728 89.0244 40.6728 89.0644 39.8328C89.0911 39.5128 89.1044 39.0061 89.1044 38.3128C89.1044 37.9261 89.0977 37.4661 89.0844 36.9328C89.0711 36.3995 89.0577 35.9995 89.0444 35.7328C89.0311 35.5061 89.0177 35.2395 89.0044 34.9328C88.9911 34.6261 88.9844 34.2861 88.9844 33.9128C88.9577 33.4595 88.9444 33.1061 88.9444 32.8528L88.9244 32.3328C88.9244 32.2661 88.9244 32.1328 88.9244 31.9328C88.9244 31.7195 88.9577 31.5528 89.0244 31.4328C89.1044 31.3128 89.2377 31.2528 89.4244 31.2528C89.5977 31.2528 89.7444 31.3261 89.8644 31.4728C89.9844 31.6061 90.0444 31.7661 90.0444 31.9528C90.0444 32.0995 90.0577 32.3461 90.0844 32.6928C90.1111 33.3061 90.1244 33.7928 90.1244 34.1528C90.1244 34.5928 90.0911 35.0261 90.0244 35.4528C89.9977 35.5328 89.9844 35.6661 89.9844 35.8528C89.9844 36.0128 89.9977 36.2395 90.0244 36.5328C90.1311 36.5728 90.3577 36.6595 90.7044 36.7928C91.0511 36.9128 91.3511 37.0595 91.6044 37.2328C91.8577 37.3928 92.0577 37.5795 92.2044 37.7928C92.6577 38.5261 92.8844 39.1595 92.8844 39.6928C92.8844 40.5195 92.8244 41.4395 92.7044 42.4528C92.6377 43.0528 92.4444 43.4995 92.1244 43.7928C91.8044 44.0861 91.3377 44.3395 90.7244 44.5528C90.5644 44.6061 90.3711 44.6528 90.1444 44.6928C89.9177 44.7328 89.7444 44.7661 89.6244 44.7928ZM90.0244 43.7128C90.1844 43.7395 90.3044 43.7528 90.3844 43.7528C90.6511 43.7528 90.8711 43.6595 91.0444 43.4728C91.5111 43.0195 91.7444 42.4795 91.7444 41.8528C91.7711 41.2395 91.7844 40.6861 91.7844 40.1928C91.7844 39.3128 91.7177 38.7461 91.5844 38.4928C91.4911 38.1995 91.3044 37.9528 91.0244 37.7528C90.7444 37.5528 90.4244 37.4128 90.0644 37.3328C89.9711 38.2795 89.9244 39.3395 89.9244 40.5128C89.9244 41.5128 89.9577 42.5795 90.0244 43.7128Z" fill="#8A5B8F"/>
<path d="M98.1266 44.8528C97.9533 44.8528 97.7933 44.7928 97.6466 44.6728C97.5133 44.5528 97.4399 44.4061 97.4266 44.2328V43.7128V43.3128C97.4133 43.1928 97.4066 43.0528 97.4066 42.8928C97.4066 42.6128 97.3866 42.1861 97.3466 41.6128L97.3066 40.3328C97.3066 39.6795 97.3266 38.7061 97.3666 37.4128C97.4199 36.2528 97.4466 35.2795 97.4466 34.4928C97.4466 34.3061 97.4266 34.0261 97.3866 33.6528C97.3466 33.2661 97.3266 32.9861 97.3266 32.8128C97.3266 31.8661 97.6066 31.3928 98.1666 31.3928C98.6066 31.3928 99.1133 31.4795 99.6866 31.6528C100.273 31.8261 100.567 32.0328 100.567 32.2728C100.567 32.4061 100.507 32.5328 100.387 32.6528C100.28 32.7595 100.147 32.8461 99.9866 32.9128C99.4266 32.7128 98.9199 32.5795 98.4666 32.5128C98.4799 32.7128 98.4866 32.9995 98.4866 33.3728C98.4866 33.9061 98.4799 34.3861 98.4666 34.8128C98.4266 35.4528 98.4066 35.9328 98.4066 36.2528L98.4666 36.5728L98.7866 36.5528C98.8933 36.5395 99.0266 36.5328 99.1866 36.5328C99.8266 36.5328 100.147 36.7195 100.147 37.0928C100.147 37.2395 100.087 37.3661 99.9666 37.4728C99.8466 37.5661 99.6933 37.6128 99.5066 37.6128C99.2666 37.6128 99.0799 37.5995 98.9466 37.5728H98.4466C98.4733 37.9195 98.4866 38.4261 98.4866 39.0928C98.4866 39.7595 98.4799 40.3595 98.4666 40.8928C98.4266 41.7061 98.4066 42.3128 98.4066 42.7128C98.4066 43.4595 98.4199 43.8328 98.4466 43.8328L99.1066 43.8128C99.3333 43.7995 99.6066 43.7928 99.9266 43.7928C100.433 43.7928 100.687 43.9528 100.687 44.2728C100.687 44.4595 100.6 44.5995 100.427 44.6928C100.267 44.7995 100.067 44.8528 99.8266 44.8528H98.1266Z" fill="#8A5B8F"/>
<path d="M53.478 69.0528C53.3713 69.0795 53.2913 69.0928 53.238 69.0928C53.078 69.0928 52.9647 68.9928 52.898 68.7928C52.8447 68.6328 52.818 68.4328 52.818 68.1928L52.838 66.8128C52.838 66.7328 52.8313 66.6595 52.818 66.5928C52.8047 66.5261 52.7913 66.4595 52.778 66.3928H50.478C50.6113 66.3928 50.2913 66.4595 49.518 66.5928C48.758 66.7128 48.1647 66.7928 47.738 66.8328L46.838 66.9128L45.838 67.0128C45.838 67.1328 45.838 67.2795 45.838 67.4528C45.8513 67.6261 45.8513 67.8328 45.838 68.0728V68.1728C45.838 68.3861 45.7847 68.5461 45.678 68.6528C45.5713 68.7595 45.4713 68.8128 45.378 68.8128C45.3247 68.8128 45.2447 68.7861 45.138 68.7328C44.898 68.5595 44.7647 68.3195 44.738 68.0128L44.678 66.5528C44.6513 66.0328 44.8647 65.7728 45.318 65.7728C45.5713 65.7595 45.7713 65.6928 45.918 65.5728C46.0647 65.4528 46.238 65.2661 46.438 65.0128C46.638 64.7461 46.7913 64.4528 46.898 64.1328C47.018 63.7995 47.1313 63.3995 47.238 62.9328C47.358 62.4261 47.4447 61.9328 47.498 61.4528C47.5513 60.9728 47.618 60.2861 47.698 59.3928C47.818 57.9928 47.878 56.5861 47.878 55.1728L47.858 54.0528C47.858 53.7995 47.9313 53.5928 48.078 53.4328C48.2247 53.2595 48.4247 53.1728 48.678 53.1728C48.758 53.1728 48.818 53.1795 48.858 53.1928C49.4713 53.2995 49.9713 53.3661 50.358 53.3928H50.458C50.6313 53.3928 50.7313 53.3595 50.758 53.2928C50.878 53.1328 51.0247 53.0528 51.198 53.0528C51.318 53.0528 51.4247 53.0795 51.518 53.1328C51.7313 53.2128 51.8713 53.4128 51.938 53.7328L51.838 57.1528C51.838 59.0061 51.8447 60.3928 51.858 61.3128C51.858 61.7928 51.8713 62.5261 51.898 63.5128L51.918 64.6128C51.918 64.7195 51.9247 64.8195 51.938 64.9128C51.9513 65.0061 51.9647 65.0995 51.978 65.1928C52.2447 65.2195 52.4447 65.2328 52.578 65.2328C52.6847 65.2328 52.7647 65.2261 52.818 65.2128C53.1113 65.1728 53.3713 65.2461 53.598 65.4328C53.838 65.6061 53.958 65.8328 53.958 66.1128C53.958 66.4728 53.9313 67.0128 53.878 67.7328C53.878 67.9195 53.8647 68.1861 53.838 68.5328C53.8113 68.8128 53.6913 68.9861 53.478 69.0528ZM47.718 65.8728C48.4647 65.8061 49.0513 65.7461 49.478 65.6928C49.918 65.6261 50.3513 65.5261 50.778 65.3928C50.9113 63.7795 50.978 62.0528 50.978 60.2128C50.978 58.5061 50.9113 56.6328 50.778 54.5928C50.4313 54.5795 49.7847 54.5461 48.838 54.4928L48.818 55.4328C48.7113 57.4861 48.638 59.0195 48.598 60.0328C48.5447 61.5528 48.2847 63.0461 47.818 64.5128C47.7913 64.5928 47.7313 64.7928 47.638 65.1128C47.558 65.4195 47.4313 65.6861 47.258 65.9128L47.718 65.8728Z" fill="#8A5B8F"/>
<path d="M57.32 66.9728C56.9734 66.9728 56.6534 66.8595 56.36 66.6328C56.0667 66.4195 55.8267 66.1261 55.64 65.7528C55.2534 64.9395 55.0134 64.0528 54.92 63.0928C54.8 62.1861 54.74 61.3128 54.74 60.4728C54.74 60.3128 54.7467 60.1795 54.76 60.0728V59.7128C54.76 59.6461 54.7534 59.6128 54.74 59.6128V59.2528L54.76 57.8528C54.7734 57.4261 54.8267 56.7461 54.92 55.8128C54.9867 55.1728 55.14 54.5528 55.38 53.9528C55.4734 53.6861 55.5934 53.4861 55.74 53.3528C55.8867 53.2061 56.0534 53.1328 56.24 53.1328C56.7734 53.1328 57.2534 53.2328 57.68 53.4328C58.1067 53.6195 58.4667 53.8861 58.76 54.2328C59.0267 54.5661 59.2534 54.9795 59.44 55.4728C59.6267 55.9528 59.76 56.4661 59.84 57.0128C59.92 57.5728 59.96 58.1661 59.96 58.7928V58.9528C59.96 59.3661 59.9667 59.7395 59.98 60.0728L60 61.2128C60 65.0528 59.1067 66.9728 57.32 66.9728ZM57.24 66.1328C57.48 66.1328 57.7 66.0395 57.9 65.8528C58.1 65.6528 58.2534 65.3861 58.36 65.0528C58.6134 64.3728 58.7667 63.6395 58.82 62.8528C58.8867 62.1728 58.92 61.5861 58.92 61.0928C58.92 60.4928 58.8734 59.7061 58.78 58.7328C58.7 57.7061 58.66 56.9395 58.66 56.4328V56.0728C58.6334 55.5661 58.46 55.1261 58.14 54.7528C57.8334 54.3795 57.4534 54.1928 57 54.1928C56.5467 54.1928 56.2467 54.4528 56.1 54.9728C55.9667 55.3861 55.9 55.9195 55.9 56.5728C55.9 56.8261 55.9067 57.0395 55.92 57.2128V57.7528L55.88 58.6728C55.8534 58.9528 55.84 59.2595 55.84 59.5928C55.84 60.3128 55.86 61.0261 55.9 61.7328C55.9534 62.7328 56.0867 63.7061 56.3 64.6528C56.5134 65.6395 56.8267 66.1328 57.24 66.1328Z" fill="#8A5B8F"/>
<path d="M62.9671 66.5928C62.5404 66.6195 62.3404 66.4061 62.3671 65.9528L62.3871 64.5728C62.4004 64.2795 62.4071 63.8261 62.4071 63.2128V61.7328C62.4071 61.0795 62.4004 60.5861 62.3871 60.2528C62.3737 59.8261 62.3671 59.1928 62.3671 58.3528V56.4728V55.9728C62.3671 55.6128 62.3537 55.3128 62.3271 55.0728C62.3137 54.8328 62.2671 54.5795 62.1871 54.3128C62.1604 54.2061 62.1471 54.1261 62.1471 54.0728C62.1471 53.8461 62.2271 53.6461 62.3871 53.4728C62.5604 53.2995 62.7737 53.2061 63.0271 53.1928C63.3871 53.1795 63.7337 53.1595 64.0671 53.1328C64.4137 53.1061 64.7471 53.0595 65.0671 52.9928C65.1871 52.9395 65.3204 52.9728 65.4671 53.0928C65.6137 53.1995 65.7004 53.3195 65.7271 53.4528C65.7537 53.5595 65.7271 53.6661 65.6471 53.7728C65.5671 53.8661 65.4604 53.9328 65.3271 53.9728C65.0471 54.0528 64.4404 54.1461 63.5071 54.2528L63.3271 59.1928C63.9404 59.2595 64.4137 59.4328 64.7471 59.7128C65.0804 59.9928 65.3071 60.4795 65.4271 61.1728C65.5737 61.7195 65.6471 62.3061 65.6471 62.9328C65.6471 63.3328 65.6071 63.7461 65.5271 64.1728C65.3404 65.0395 64.8937 65.6795 64.1871 66.0928C64.1071 66.1461 63.9871 66.2195 63.8271 66.3128C63.6804 66.4061 63.5337 66.4795 63.3871 66.5328C63.2537 66.5728 63.1137 66.5928 62.9671 66.5928ZM63.3671 65.5128C63.6337 65.4328 63.8737 65.2728 64.0871 65.0328C64.3004 64.7928 64.4404 64.5328 64.5071 64.2528C64.6271 63.7328 64.6871 63.2261 64.6871 62.7328C64.6871 62.2128 64.6271 61.7061 64.5071 61.2128C64.4271 60.8928 64.3004 60.6461 64.1271 60.4728C63.9671 60.2861 63.7137 60.1861 63.3671 60.1728V65.5128Z" fill="#8A5B8F"/>
<path d="M68.0568 66.7328C67.8834 66.0261 67.7968 65.0461 67.7968 63.7928L67.8368 62.0128C67.8634 61.4795 67.8768 60.8861 67.8768 60.2328C67.7968 60.0461 67.7568 59.8795 67.7568 59.7328V59.6728C67.8901 59.4195 67.9568 58.8461 67.9568 57.9528L67.9768 57.0328C67.9901 56.7395 67.9968 56.4128 67.9968 56.0528C67.9968 55.2661 67.9434 54.6461 67.8368 54.1928C67.8768 54.0061 67.9434 53.8461 68.0368 53.7128C68.1301 53.5661 68.2434 53.4928 68.3768 53.4928H69.2568C69.6301 53.4928 69.9568 53.5795 70.2368 53.7528C70.5168 53.9128 70.7301 54.1461 70.8768 54.4528C71.1434 54.9995 71.2768 55.6461 71.2768 56.3928C71.2768 56.9261 71.2701 57.3461 71.2568 57.6528C71.2301 58.0395 71.1634 58.3928 71.0568 58.7128C71.0168 58.8861 70.9568 59.0328 70.8768 59.1528C70.8101 59.2595 70.7101 59.3928 70.5768 59.5528C70.3901 59.7795 70.0834 59.9928 69.6568 60.1928C69.4834 60.2861 69.2568 60.3728 68.9768 60.4528V62.5928L69.0168 63.8728L69.0568 64.4928C69.1101 65.2395 69.1368 65.8728 69.1368 66.3928C69.1368 66.5528 69.0701 66.6861 68.9368 66.7928C68.8034 66.9128 68.6501 66.9728 68.4768 66.9728L68.0568 66.7328ZM68.9968 59.6328C69.7834 59.5128 70.1768 58.3861 70.1768 56.2528C70.1768 55.8661 70.1568 55.5661 70.1168 55.3528C70.0768 55.1928 70.0234 55.0661 69.9568 54.9728C69.8901 54.8661 69.7901 54.7795 69.6568 54.7128C69.5101 54.6328 69.3501 54.5928 69.1768 54.5928C69.1768 54.5795 69.1034 54.5728 68.9568 54.5728V55.7128C68.9568 56.4995 68.9634 57.1995 68.9768 57.8128C68.9768 58.5061 68.9834 58.9595 68.9968 59.1728V59.5928V59.6328Z" fill="#8A5B8F"/>
<path d="M78.6018 66.7928C78.2151 66.7928 78.0218 66.6461 78.0218 66.3528C78.0218 66.2861 78.0218 66.1461 78.0218 65.9328C78.0218 65.7195 78.0351 65.5195 78.0618 65.3328C78.1151 64.8528 78.1418 64.2861 78.1418 63.6328C78.1418 63.0061 78.1151 62.1595 78.0618 61.0928C78.0351 60.4928 78.0084 59.5661 77.9818 58.3128L77.9218 55.8728L77.9018 55.0328L77.8818 53.5328C77.8818 53.3195 78.0018 53.1995 78.2418 53.1728C78.4818 53.1595 78.6818 53.2261 78.8418 53.3728C79.0018 53.5195 79.0818 53.7061 79.0818 53.9328C79.0818 54.2661 79.0684 54.7928 79.0418 55.5128L78.9818 60.6528C78.9684 60.8261 78.9618 61.0595 78.9618 61.3528C78.9751 61.6461 78.9818 61.9328 78.9818 62.2128V63.4128V64.1328C78.9551 64.9728 78.9884 65.6728 79.0818 66.2328C79.1084 66.4195 79.0751 66.5595 78.9818 66.6528C78.9018 66.7461 78.7751 66.7928 78.6018 66.7928ZM73.9018 66.7928C73.7151 66.7928 73.5484 66.7661 73.4018 66.7128C73.2551 66.6595 73.1884 66.5261 73.2018 66.3128C73.2284 66.0061 73.2484 65.6261 73.2618 65.1728C73.2751 64.7195 73.2818 64.4061 73.2818 64.2328C73.2818 63.4728 73.3018 62.6728 73.3418 61.8328C73.3684 61.5128 73.3818 61.0061 73.3818 60.3128C73.3818 59.9261 73.3751 59.4661 73.3618 58.9328C73.3484 58.3995 73.3351 57.9995 73.3218 57.7328C73.3084 57.5061 73.2951 57.2395 73.2818 56.9328C73.2684 56.6261 73.2618 56.2861 73.2618 55.9128C73.2351 55.4595 73.2218 55.1061 73.2218 54.8528L73.2018 54.3328C73.2018 54.2661 73.2018 54.1328 73.2018 53.9328C73.2018 53.7195 73.2351 53.5528 73.3018 53.4328C73.3818 53.3128 73.5151 53.2528 73.7018 53.2528C73.8751 53.2528 74.0218 53.3261 74.1418 53.4728C74.2618 53.6061 74.3218 53.7661 74.3218 53.9528C74.3218 54.0995 74.3351 54.3461 74.3618 54.6928C74.3884 55.3061 74.4018 55.7928 74.4018 56.1528C74.4018 56.5928 74.3684 57.0261 74.3018 57.4528C74.2751 57.5328 74.2618 57.6661 74.2618 57.8528C74.2618 58.0128 74.2751 58.2395 74.3018 58.5328C74.4084 58.5728 74.6351 58.6595 74.9818 58.7928C75.3284 58.9128 75.6284 59.0595 75.8818 59.2328C76.1351 59.3928 76.3351 59.5795 76.4818 59.7928C76.9351 60.5261 77.1618 61.1595 77.1618 61.6928C77.1618 62.5195 77.1018 63.4395 76.9818 64.4528C76.9151 65.0528 76.7218 65.4995 76.4018 65.7928C76.0818 66.0861 75.6151 66.3395 75.0018 66.5528C74.8418 66.6061 74.6484 66.6528 74.4218 66.6928C74.1951 66.7328 74.0218 66.7661 73.9018 66.7928ZM74.3018 65.7128C74.4618 65.7395 74.5818 65.7528 74.6618 65.7528C74.9284 65.7528 75.1484 65.6595 75.3218 65.4728C75.7884 65.0195 76.0218 64.4795 76.0218 63.8528C76.0484 63.2395 76.0618 62.6861 76.0618 62.1928C76.0618 61.3128 75.9951 60.7461 75.8618 60.4928C75.7684 60.1995 75.5818 59.9528 75.3018 59.7528C75.0218 59.5528 74.7018 59.4128 74.3418 59.3328C74.2484 60.2795 74.2018 61.3395 74.2018 62.5128C74.2018 63.5128 74.2351 64.5795 74.3018 65.7128Z" fill="#8A5B8F"/>
<path d="M82.4039 66.8528C82.2306 66.8528 82.0706 66.7928 81.9239 66.6728C81.7906 66.5528 81.7173 66.4061 81.7039 66.2328V65.7128V65.3128C81.6906 65.1928 81.6839 65.0528 81.6839 64.8928C81.6839 64.6128 81.6639 64.1861 81.6239 63.6128L81.5839 62.3328C81.5839 61.6795 81.6039 60.7061 81.6439 59.4128C81.6973 58.2528 81.7239 57.2795 81.7239 56.4928C81.7239 56.3061 81.7039 56.0261 81.6639 55.6528C81.6239 55.2661 81.6039 54.9861 81.6039 54.8128C81.6039 53.8661 81.8839 53.3928 82.4439 53.3928C82.8839 53.3928 83.3906 53.4795 83.9639 53.6528C84.5506 53.8261 84.8439 54.0328 84.8439 54.2728C84.8439 54.4061 84.7839 54.5328 84.6639 54.6528C84.5573 54.7595 84.4239 54.8461 84.2639 54.9128C83.7039 54.7128 83.1973 54.5795 82.7439 54.5128C82.7573 54.7128 82.7639 54.9995 82.7639 55.3728C82.7639 55.9061 82.7573 56.3861 82.7439 56.8128C82.7039 57.4528 82.6839 57.9328 82.6839 58.2528L82.7439 58.5728L83.0639 58.5528C83.1706 58.5395 83.3039 58.5328 83.4639 58.5328C84.1039 58.5328 84.4239 58.7195 84.4239 59.0928C84.4239 59.2395 84.3639 59.3661 84.2439 59.4728C84.1239 59.5661 83.9706 59.6128 83.7839 59.6128C83.5439 59.6128 83.3573 59.5995 83.2239 59.5728H82.7239C82.7506 59.9195 82.7639 60.4261 82.7639 61.0928C82.7639 61.7595 82.7573 62.3595 82.7439 62.8928C82.7039 63.7061 82.6839 64.3128 82.6839 64.7128C82.6839 65.4595 82.6973 65.8328 82.7239 65.8328L83.3839 65.8128C83.6106 65.7995 83.8839 65.7928 84.2039 65.7928C84.7106 65.7928 84.9639 65.9528 84.9639 66.2728C84.9639 66.4595 84.8773 66.5995 84.7039 66.6928C84.5439 66.7995 84.3439 66.8528 84.1039 66.8528H82.4039Z" fill="#8A5B8F"/>
<path d="M90.6799 67.0328C90.5732 67.0328 90.4799 66.9995 90.3999 66.9328C90.3199 66.8661 90.2599 66.7795 90.2199 66.6728C90.2065 66.6461 90.1999 66.6061 90.1999 66.5528C90.1999 66.3795 90.2932 66.2395 90.4799 66.1328C90.8532 65.9728 91.1332 65.7328 91.3199 65.4128C91.5199 65.0795 91.6599 64.6928 91.7399 64.2528C91.9799 62.9461 92.0999 61.5261 92.0999 59.9928C92.0999 59.4195 92.0932 58.9861 92.0799 58.6928C91.9865 56.4395 91.9065 54.8528 91.8399 53.9328V53.8528C91.8399 53.7328 91.8665 53.6395 91.9199 53.5728C91.9732 53.5061 92.0665 53.4595 92.1999 53.4328C93.0532 53.2728 93.7332 53.1928 94.2399 53.1928C94.5065 53.1928 94.7065 53.1995 94.8399 53.2128C95.1465 53.2261 95.3799 53.3195 95.5399 53.4928C95.6999 53.6661 95.7799 53.9061 95.7799 54.2128L95.7999 55.2728C95.8265 56.2061 95.8399 56.9061 95.8399 57.3728L95.8199 58.3328C95.8199 59.7461 95.8732 61.5328 95.9799 63.6928C96.0332 64.6661 96.0799 65.4195 96.1199 65.9528C96.1332 66.1928 96.0932 66.3661 95.9999 66.4728C95.9199 66.5795 95.7799 66.6461 95.5799 66.6728C95.1399 66.6995 94.9065 66.4928 94.8799 66.0528C94.9199 65.6661 94.9399 65.2795 94.9399 64.8928C94.9399 64.5061 94.9332 64.1861 94.9199 63.9328L94.8999 61.6528C94.8999 60.5461 94.8799 59.4128 94.8399 58.2528C94.8132 57.2928 94.7732 56.3861 94.7199 55.5328C94.6665 54.6795 94.6132 54.1595 94.5599 53.9728C94.4799 53.9861 94.3132 54.0195 94.0599 54.0728C93.8065 54.1261 93.4599 54.1728 93.0199 54.2128C92.9799 54.8261 92.9599 55.2661 92.9599 55.5328C92.9599 55.8395 92.9799 56.1061 93.0199 56.3328C93.0465 56.6928 93.0732 57.2195 93.0999 57.9128V58.3528C93.0999 60.5128 93.0799 61.9728 93.0399 62.7328C93.0132 62.9461 92.9999 63.1128 92.9999 63.2328C92.9465 63.7928 92.8932 64.2195 92.8399 64.5128C92.7065 65.2195 92.2999 65.9395 91.6199 66.6728C91.4332 66.8861 91.1332 67.0061 90.7199 67.0328H90.6799Z" fill="#8A5B8F"/>
<path d="M103.712 66.7328C103.392 66.7328 103.085 66.6328 102.792 66.4328C102.499 66.2328 102.259 65.9461 102.072 65.5728C101.912 65.2528 101.799 64.9128 101.732 64.5528C101.679 64.1795 101.632 63.7261 101.592 63.1928L101.412 60.7328H99.6919V62.6928V63.4928L99.8919 65.9528C99.9186 66.1795 99.8852 66.3395 99.7919 66.4328C99.7119 66.5261 99.5452 66.5728 99.2919 66.5728C99.1052 66.5728 98.9719 66.5461 98.8919 66.4928C98.8119 66.4395 98.7586 66.3395 98.7319 66.1928C98.7052 65.9795 98.6919 65.6528 98.6919 65.2128L98.6719 63.6928C98.6452 62.3595 98.6319 61.3528 98.6319 60.6728C98.6319 60.1261 98.6386 59.7195 98.6519 59.4528L98.6719 58.1928C98.6719 57.8728 98.6586 57.3128 98.6319 56.5128L98.6119 55.0528C98.6119 54.8928 98.6252 54.6528 98.6519 54.3328L98.6719 53.6328C98.6719 53.4595 98.7052 53.3461 98.7719 53.2928C98.8519 53.2395 98.9986 53.2128 99.2119 53.2128C99.4252 53.2128 99.5986 53.2795 99.7319 53.4128C99.8786 53.5328 99.9386 53.6861 99.9119 53.8728C99.8719 54.1261 99.8519 54.3928 99.8519 54.6728C99.8519 54.9528 99.8586 55.1661 99.8719 55.3128L99.8919 55.9728C99.8919 56.6395 99.8652 57.2795 99.8119 57.8928C99.7586 58.5328 99.7319 59.2328 99.7319 59.9928C99.9452 60.0195 100.105 60.0328 100.212 60.0328C100.452 60.0328 100.852 59.9795 101.412 59.8728C101.452 59.0995 101.525 58.2328 101.632 57.2728C101.739 56.2861 101.865 55.4128 102.012 54.6528C102.065 54.3728 102.225 54.0128 102.492 53.5728C102.559 53.4395 102.665 53.3395 102.812 53.2728C102.959 53.2061 103.119 53.1728 103.292 53.1728C103.532 53.1728 103.852 53.2728 104.252 53.4728C104.665 53.6728 104.992 53.8995 105.232 54.1528C105.645 54.6061 105.972 55.1795 106.212 55.8728C106.465 56.5661 106.592 57.3328 106.592 58.1728C106.592 58.5861 106.565 58.9728 106.512 59.3328C106.459 59.7195 106.432 60.3061 106.432 61.0928C106.432 61.8128 106.412 62.3528 106.372 62.7128C106.252 63.8728 105.965 64.8595 105.512 65.6728C105.339 66.0061 105.079 66.2661 104.732 66.4528C104.385 66.6395 104.045 66.7328 103.712 66.7328ZM103.712 65.9328C103.965 65.9328 104.172 65.8128 104.332 65.5728C104.692 64.8395 104.939 64.1928 105.072 63.6328C105.219 63.0728 105.299 62.3328 105.312 61.4128C105.365 60.2128 105.392 59.2128 105.392 58.4128L105.372 57.5528C105.345 56.7528 105.219 55.9928 104.992 55.2728C104.925 55.0461 104.799 54.8195 104.612 54.5928C104.439 54.3528 104.245 54.1595 104.032 54.0128C103.832 53.8795 103.665 53.8128 103.532 53.8128C103.425 53.8128 103.345 53.8595 103.292 53.9528C103.239 54.0461 103.185 54.1928 103.132 54.3928C103.092 54.5928 103.052 54.7528 103.012 54.8728C102.959 55.0595 102.905 55.3395 102.852 55.7128C102.839 55.8728 102.805 56.0795 102.752 56.3328C102.539 57.5595 102.432 58.9328 102.432 60.4528V61.0928L102.452 61.6728C102.465 61.8461 102.479 62.1928 102.492 62.7128C102.519 63.2195 102.559 63.6728 102.612 64.0728C102.652 64.4328 102.819 64.9328 103.112 65.5728C103.259 65.8128 103.459 65.9328 103.712 65.9328Z" fill="#8A5B8F"/>
<path d="M116.349 69.0528C116.242 69.0795 116.162 69.0928 116.109 69.0928C115.949 69.0928 115.836 68.9928 115.769 68.7928C115.716 68.6328 115.689 68.4328 115.689 68.1928L115.709 66.8128C115.709 66.7328 115.702 66.6595 115.689 66.5928C115.676 66.5261 115.662 66.4595 115.649 66.3928H113.349C113.482 66.3928 113.162 66.4595 112.389 66.5928C111.629 66.7128 111.036 66.7928 110.609 66.8328L109.709 66.9128L108.709 67.0128C108.709 67.1328 108.709 67.2795 108.709 67.4528C108.722 67.6261 108.722 67.8328 108.709 68.0728V68.1728C108.709 68.3861 108.656 68.5461 108.549 68.6528C108.442 68.7595 108.342 68.8128 108.249 68.8128C108.196 68.8128 108.116 68.7861 108.009 68.7328C107.769 68.5595 107.636 68.3195 107.609 68.0128L107.549 66.5528C107.522 66.0328 107.736 65.7728 108.189 65.7728C108.442 65.7595 108.642 65.6928 108.789 65.5728C108.936 65.4528 109.109 65.2661 109.309 65.0128C109.509 64.7461 109.662 64.4528 109.769 64.1328C109.889 63.7995 110.002 63.3995 110.109 62.9328C110.229 62.4261 110.316 61.9328 110.369 61.4528C110.422 60.9728 110.489 60.2861 110.569 59.3928C110.689 57.9928 110.749 56.5861 110.749 55.1728L110.729 54.0528C110.729 53.7995 110.802 53.5928 110.949 53.4328C111.096 53.2595 111.296 53.1728 111.549 53.1728C111.629 53.1728 111.689 53.1795 111.729 53.1928C112.342 53.2995 112.842 53.3661 113.229 53.3928H113.329C113.502 53.3928 113.602 53.3595 113.629 53.2928C113.749 53.1328 113.896 53.0528 114.069 53.0528C114.189 53.0528 114.296 53.0795 114.389 53.1328C114.602 53.2128 114.742 53.4128 114.809 53.7328L114.709 57.1528C114.709 59.0061 114.716 60.3928 114.729 61.3128C114.729 61.7928 114.742 62.5261 114.769 63.5128L114.789 64.6128C114.789 64.7195 114.796 64.8195 114.809 64.9128C114.822 65.0061 114.836 65.0995 114.849 65.1928C115.116 65.2195 115.316 65.2328 115.449 65.2328C115.556 65.2328 115.636 65.2261 115.689 65.2128C115.982 65.1728 116.242 65.2461 116.469 65.4328C116.709 65.6061 116.829 65.8328 116.829 66.1128C116.829 66.4728 116.802 67.0128 116.749 67.7328C116.749 67.9195 116.736 68.1861 116.709 68.5328C116.682 68.8128 116.562 68.9861 116.349 69.0528ZM110.589 65.8728C111.336 65.8061 111.922 65.7461 112.349 65.6928C112.789 65.6261 113.222 65.5261 113.649 65.3928C113.782 63.7795 113.849 62.0528 113.849 60.2128C113.849 58.5061 113.782 56.6328 113.649 54.5928C113.302 54.5795 112.656 54.5461 111.709 54.4928L111.689 55.4328C111.582 57.4861 111.509 59.0195 111.469 60.0328C111.416 61.5528 111.156 63.0461 110.689 64.5128C110.662 64.5928 110.602 64.7928 110.509 65.1128C110.429 65.4195 110.302 65.6861 110.129 65.9128L110.589 65.8728Z" fill="#8A5B8F"/>
<path d="M118.686 66.5528C118.513 66.4995 118.42 66.3861 118.406 66.2128V65.9128C118.38 65.3528 118.353 64.5128 118.326 63.3928C118.273 62.4195 118.24 61.6728 118.226 61.1528C118.186 60.3395 118.14 59.1195 118.086 57.4928C118.073 57.2128 118.06 56.8261 118.046 56.3328C118.033 55.8395 118.026 55.4661 118.026 55.2128C118.013 55.0661 118.006 54.8595 118.006 54.5928C118.006 54.2861 118.02 54.0595 118.046 53.9128C118.1 53.4995 118.326 53.3061 118.726 53.3328C119.1 53.3328 119.3 53.5461 119.326 53.9728V54.2128L119.306 59.2528V61.6328V62.8328C119.306 63.0195 119.32 63.2395 119.346 63.4928C119.373 63.7328 119.393 63.9061 119.406 64.0128C119.473 63.6261 119.58 63.2328 119.726 62.8328C119.886 62.4195 119.986 62.1661 120.026 62.0728C120.226 61.5928 120.373 61.1995 120.466 60.8928C120.786 59.8661 121.2 58.6061 121.706 57.1128C121.813 56.8061 121.933 56.4328 122.066 55.9928C122.426 54.8595 122.673 54.1261 122.806 53.7928C122.926 53.4728 123.106 53.2728 123.346 53.1928C123.466 53.1528 123.586 53.1328 123.706 53.1328C123.893 53.1328 124.086 53.1928 124.286 53.3128V54.2728C124.286 55.2728 124.306 56.3061 124.346 57.3728C124.36 57.5995 124.366 57.9395 124.366 58.3928V58.9728C124.366 59.0928 124.36 59.2528 124.346 59.4528C124.346 59.6528 124.353 59.8861 124.366 60.1528L124.426 65.5528C124.426 65.7528 124.38 65.9728 124.286 66.2128C124.246 66.3195 124.18 66.4061 124.086 66.4728C123.993 66.5261 123.893 66.5528 123.786 66.5528C123.413 66.5528 123.226 66.3795 123.226 66.0328C123.226 65.6328 123.246 65.2461 123.286 64.8728C123.313 64.3661 123.326 63.9795 123.326 63.7128C123.3 61.0728 123.266 59.0995 123.226 57.7928C123.226 57.5928 123.2 57.2661 123.146 56.8128L123.086 56.0928C122.966 56.2261 122.9 56.3128 122.886 56.3528L122.566 57.3328C122.353 58.0261 122.186 58.5395 122.066 58.8728L120.326 63.7128L119.426 66.1728C119.32 66.4528 119.16 66.5928 118.946 66.5928C118.906 66.5928 118.82 66.5795 118.686 66.5528Z" fill="#8A5B8F"/>
<path fill-rule="evenodd" clip-rule="evenodd" d="M223.989 73.2567C223.069 72.8404 222.149 72.4222 221.23 72.0022L222.062 70.1833C222.978 70.6022 223.895 71.0191 224.814 71.4344L223.989 73.2567ZM235.072 78.1762C233.221 77.3674 231.371 76.5541 229.525 75.735L230.336 73.9068C232.178 74.7241 234.024 75.5359 235.873 76.3434L235.072 78.1762ZM246.198 82.9837C244.342 82.1882 242.487 81.3907 240.632 80.5899L241.425 78.7538C243.277 79.5537 245.131 80.3505 246.986 81.1455L246.198 82.9837ZM253.453 86.0862C252.892 85.8463 252.33 85.6064 251.768 85.3664L252.554 83.5272C253.114 83.7667 253.675 84.0061 254.235 84.2455C255.532 84.7992 256.828 85.3529 258.124 85.9069L257.337 87.7458C256.043 87.1925 254.748 86.6394 253.453 86.0862ZM268.461 92.5289C266.611 91.7267 264.758 90.9275 262.902 90.1301L263.691 88.2925C265.549 89.0906 267.404 89.8907 269.257 90.694L268.461 92.5289ZM279.538 97.3991C277.699 96.5772 275.855 95.7609 274.007 94.9489L274.812 93.1178C276.663 93.9313 278.511 94.7494 280.354 95.5732L279.538 97.3991ZM290.54 102.426C288.717 101.573 286.888 100.728 285.052 99.8897L285.883 98.0704C287.724 98.911 289.559 99.7588 291.388 100.615L290.54 102.426ZM301.429 107.679C299.628 106.782 297.818 105.896 295.999 105.019L296.868 103.218C298.693 104.098 300.511 104.987 302.321 105.888L301.429 107.679ZM312.16 113.223C310.389 112.272 308.608 111.335 306.816 110.41L307.734 108.633C309.535 109.562 311.326 110.505 313.106 111.462L312.16 113.223ZM322.689 119.133C320.957 118.116 319.212 117.115 317.455 116.13L318.434 114.385C320.202 115.377 321.958 116.384 323.702 117.409L322.689 119.133ZM332.956 125.473C331.272 124.378 329.572 123.302 327.858 122.245L328.908 120.543C330.635 121.608 332.348 122.693 334.046 123.797L332.956 125.473ZM342.89 132.304C341.267 131.122 339.626 129.962 337.968 128.823L339.101 127.175C340.773 128.324 342.429 129.494 344.067 130.687L342.89 132.304ZM352.419 139.679C350.869 138.402 349.299 137.149 347.711 135.921L348.934 134.339C350.538 135.58 352.124 136.845 353.691 138.135L352.419 139.679ZM361.458 147.634C359.995 146.257 358.511 144.908 357.007 143.584L358.328 142.083C359.849 143.421 361.349 144.785 362.829 146.178L361.458 147.634ZM369.931 156.194C368.566 154.712 367.178 153.26 365.768 151.836L367.189 150.429C368.616 151.87 370.02 153.339 371.402 154.84L369.931 156.194ZM377.742 165.334C376.491 163.755 375.216 162.206 373.919 160.688L375.439 159.389C376.753 160.925 378.043 162.493 379.31 164.093L377.742 165.334ZM384.843 175.041C383.717 173.373 382.567 171.737 381.393 170.132L383.008 168.951C384.196 170.576 385.361 172.233 386.501 173.922L384.843 175.041ZM391.195 185.274C390.193 183.515 389.166 181.789 388.115 180.096L389.814 179.041C390.878 180.756 391.918 182.503 392.932 184.284L391.195 185.274ZM396.765 195.948C395.89 194.112 394.991 192.31 394.067 190.54L395.841 189.615C396.775 191.406 397.686 193.23 398.571 195.088L396.765 195.948ZM401.551 206.972C400.808 205.084 400.04 203.23 399.248 201.407L401.083 200.61C401.884 202.454 402.66 204.33 403.412 206.238L401.551 206.972ZM405.594 218.304C404.975 216.379 404.334 214.485 403.67 212.621L405.554 211.95C406.225 213.833 406.873 215.747 407.498 217.692L405.594 218.304ZM408.929 229.876C408.428 227.924 407.905 226.001 407.36 224.108L409.282 223.555C409.832 225.467 410.36 227.408 410.867 229.379L408.929 229.876ZM411.605 241.627C411.211 239.655 410.796 237.711 410.361 235.795L412.311 235.352C412.75 237.285 413.169 239.246 413.566 241.235L411.605 241.627ZM413.672 253.505C413.375 251.516 413.058 249.554 412.722 247.618L414.693 247.277C415.032 249.228 415.351 251.205 415.65 253.209L413.672 253.505ZM415.183 265.472C414.975 263.474 414.748 261.5 414.503 259.551L416.487 259.302C416.734 261.265 416.963 263.252 417.173 265.265L415.183 265.472ZM416.191 277.504C416.062 275.49 415.916 273.5 415.752 271.533L417.745 271.367C417.91 273.347 418.057 275.35 418.187 277.376L416.191 277.504ZM416.647 286.629C416.609 285.597 416.568 284.572 416.521 283.552L418.519 283.461C418.566 284.487 418.608 285.519 418.646 286.557C418.683 287.593 418.706 288.626 418.715 289.655L416.715 289.672C416.706 288.661 416.684 287.647 416.647 286.629ZM416.14 301.735C416.347 299.739 416.5 297.728 416.596 295.701L418.594 295.796C418.496 297.86 418.34 299.909 418.129 301.942L416.14 301.735ZM414.231 313.668C414.656 311.705 415.029 309.726 415.348 307.73L417.323 308.047C416.998 310.078 416.618 312.093 416.186 314.091L414.231 313.668ZM411.056 325.336C411.685 323.421 412.265 321.489 412.796 319.54L414.726 320.066C414.186 322.048 413.595 324.012 412.956 325.96L411.056 325.336ZM406.728 336.637C407.539 334.787 408.306 332.92 409.028 331.037L410.896 331.753C410.162 333.666 409.383 335.562 408.56 337.439L406.728 336.637ZM401.382 347.505C402.351 345.73 403.282 343.939 404.172 342.13L405.967 343.014C405.063 344.848 404.119 346.665 403.137 348.464L401.382 347.505ZM395.156 357.908C396.262 356.211 397.334 354.496 398.371 352.765L400.087 353.792C399.036 355.546 397.951 357.282 396.832 358.999L395.156 357.908ZM388.182 367.835C389.402 366.218 390.593 364.584 391.754 362.933L393.39 364.083C392.216 365.753 391.012 367.405 389.779 369.04L388.182 367.835ZM380.574 377.3C381.891 375.759 383.184 374.2 384.451 372.624L386.01 373.878C384.73 375.469 383.424 377.043 382.095 378.599L380.574 377.3ZM372.433 386.317C373.83 384.85 375.208 383.365 376.565 381.863L378.049 383.203C376.68 384.719 375.29 386.217 373.881 387.696L372.433 386.317ZM363.84 394.914C365.304 393.516 366.754 392.1 368.187 390.667L369.601 392.081C368.157 393.526 366.696 394.952 365.22 396.36L363.84 394.914ZM354.858 403.119C356.381 401.785 357.894 400.434 359.394 399.063L360.742 400.54C359.232 401.92 357.709 403.281 356.176 404.624L354.858 403.119ZM345.558 410.949C347.126 409.678 348.689 408.389 350.243 407.08L351.531 408.61C349.967 409.927 348.394 411.225 346.817 412.503L345.558 410.949ZM335.958 418.449C337.57 417.233 339.181 415.997 340.789 414.742L342.02 416.318C340.403 417.581 338.783 418.824 337.162 420.046L335.958 418.449ZM326.137 425.614C327.778 424.455 329.424 423.274 331.072 422.073L332.25 423.689C330.594 424.897 328.94 426.083 327.29 427.248L326.137 425.614ZM316.071 432.502C317.747 431.39 319.434 430.254 321.128 429.095L322.257 430.745C320.555 431.91 318.861 433.051 317.178 434.168L316.071 432.502ZM305.838 439.1C307.533 438.038 309.246 436.95 310.974 435.836L312.057 437.517C310.322 438.636 308.601 439.728 306.9 440.795L305.838 439.1ZM295.459 445.428C297.167 444.414 298.904 443.37 300.666 442.296L301.707 444.003C299.938 445.082 298.195 446.13 296.48 447.147L295.459 445.428ZM284.907 451.533C286.627 450.562 288.393 449.554 290.199 448.51L291.2 450.241C289.388 451.289 287.616 452.301 285.89 453.275L284.907 451.533ZM266.35 463.548C265.823 463.384 265.528 462.824 265.691 462.297L268.357 453.701C268.521 453.173 269.081 452.878 269.609 453.042C270.136 453.205 270.431 453.766 270.268 454.293L268.318 460.58C268.487 460.49 268.658 460.4 268.829 460.309L269.766 462.076C269.591 462.169 269.418 462.261 269.245 462.352L275.539 464.304C276.066 464.467 276.361 465.028 276.197 465.555C276.034 466.083 275.474 466.378 274.946 466.214L266.35 463.548ZM274.234 457.419C275.947 456.495 277.736 455.521 279.592 454.497L280.557 456.249C278.696 457.275 276.902 458.252 275.184 459.179L274.234 457.419Z" fill="#CFC3DE"/>
<path fill-rule="evenodd" clip-rule="evenodd" d="M78.4369 0C80.3955 0.00135493 82.3538 0.0256827 84.3042 0.0722128L84.2565 2.07164C82.3214 2.02548 80.3785 2.00134 78.4355 2L78.4369 0ZM66.7046 0.275398C68.6472 0.180894 70.6043 0.111227 72.5682 0.065598L72.6147 2.06506C70.6671 2.11031 68.727 2.17938 66.8018 2.27304L66.7046 0.275398ZM90.1679 0.279664C92.1386 0.37219 94.0935 0.487128 96.0246 0.623668L95.8836 2.61869C93.9684 2.48327 92.0292 2.36926 90.0741 2.27746L90.1679 0.279664ZM54.99 1.17826C56.9112 0.970885 58.8643 0.792049 60.841 0.64084L60.9936 2.63501C59.0365 2.78472 57.104 2.96168 55.2046 3.16671L54.99 1.17826ZM101.878 1.11056C103.861 1.30095 105.808 1.51463 107.711 1.75063L107.465 3.73542C105.581 3.50178 103.652 3.29011 101.687 3.1014L101.878 1.11056ZM43.3482 2.87844C45.2329 2.52088 47.1748 2.19883 49.1633 1.91109L49.4498 3.89047C47.4878 4.17438 45.5747 4.4917 43.721 4.84339L43.3482 2.87844ZM113.525 2.56365C115.53 2.87755 117.467 3.21809 119.324 3.58401L118.938 5.54628C117.108 5.18582 115.197 4.84977 113.216 4.53956L113.525 2.56365ZM31.8899 5.75517C33.6898 5.16471 35.5921 4.62424 37.5807 4.13168L38.0615 6.07301C36.115 6.55518 34.2607 7.08232 32.5133 7.65553L31.8899 5.75517ZM125.076 4.86504C126.059 5.11221 127.009 5.36788 127.924 5.63184C128.881 5.90789 129.856 6.20519 130.848 6.5227L130.238 8.42745C129.264 8.11554 128.307 7.82391 127.369 7.5535C126.478 7.29634 125.55 7.04658 124.588 6.80456L125.076 4.86504ZM23.6674 9.2147C24.5146 8.75256 25.4074 8.31063 26.342 7.88827L27.1657 9.71079C26.2724 10.1145 25.4246 10.5344 24.6251 10.9705C23.6522 11.5011 22.7203 12.0431 21.8277 12.5953L20.7755 10.8945C21.6999 10.3226 22.6633 9.76236 23.6674 9.2147ZM136.623 8.53314C138.486 9.2311 140.384 9.98785 142.3 10.7977L141.522 12.6399C139.63 11.8405 137.758 11.0939 135.922 10.406L136.623 8.53314ZM147.881 13.2831C149.71 14.1393 151.543 15.0381 153.365 15.9748L152.45 17.7535C150.651 16.8282 148.84 15.9403 147.033 15.0945L147.881 13.2831ZM10.4416 19.3417C11.8761 17.765 13.4953 16.231 15.3203 14.752L16.5795 16.3059C14.8308 17.7229 13.2855 19.1878 11.9209 20.6876L10.4416 19.3417ZM158.744 18.8702C160.527 19.8742 162.286 20.9113 164.008 21.9769L162.956 23.6777C161.258 22.6271 159.522 21.6039 157.763 20.6128L158.744 18.8702ZM3.25608 30.6543C4.08264 28.6425 5.10185 26.6439 6.35118 24.6813L8.03835 25.7553C6.85512 27.6141 5.88964 29.507 5.10603 31.4143L3.25608 30.6543ZM169.136 25.3126C170.849 26.4861 172.508 27.6863 174.096 28.9079L172.876 30.4932C171.32 29.2958 169.691 28.1171 168.006 26.9626L169.136 25.3126ZM178.836 32.8105C180.425 34.2182 181.908 35.6474 183.261 37.0907L181.802 38.4587C180.496 37.066 179.059 35.6797 177.51 34.3076L178.836 32.8105ZM0.214872 43.6767C0.401675 41.5073 0.724059 39.2915 1.2344 37.0605L3.18404 37.5064C2.69702 39.6356 2.38744 41.7585 2.2075 43.8483L0.214872 43.6767ZM187.212 41.8747C188.492 43.6738 189.546 45.4916 190.325 47.3141L188.486 48.1001C187.774 46.433 186.796 44.7397 185.583 43.0341L187.212 41.8747ZM0.147944 53.6513C0.0845544 52.5736 0.0372084 51.4674 0.0146484 50.3378L2.01425 50.2978C2.03622 51.3978 2.08238 52.4779 2.14449 53.5338C2.19986 54.475 2.27701 55.4032 2.37573 56.318L0.38727 56.5326C0.284997 55.5848 0.205177 54.6242 0.147944 53.6513ZM191.841 53.523C191.895 54.6139 191.828 55.6991 191.63 56.7737C191.449 57.7541 191.218 58.7162 190.941 59.6595L189.022 59.0957C189.28 58.2174 189.495 57.3226 189.663 56.4114C189.832 55.4949 189.89 54.5644 189.844 53.6207L191.841 53.523ZM2.87864 67.8291C2.25301 66.0358 1.72942 64.1731 1.30924 62.246L3.26333 61.82C3.66698 63.6712 4.16896 65.456 4.76702 67.1702L2.87864 67.8291ZM188.724 65.1373C187.82 66.8745 186.758 68.5317 185.567 70.1065L183.972 68.9001C185.101 67.4073 186.102 65.8444 186.95 64.2142L188.724 65.1373ZM8.15919 78.1645C7.04465 76.5915 6.04176 74.9273 5.15246 73.1781L6.93529 72.2717C7.78144 73.9361 8.73417 75.5165 9.79109 77.0083L8.15919 78.1645ZM181.705 74.514C180.333 75.8802 178.865 77.1688 177.326 78.3779L176.09 76.8054C177.572 75.6407 178.981 74.4036 180.294 73.0967L181.705 74.514ZM172.568 81.7369C170.925 82.7796 169.235 83.7434 167.522 84.6263L166.606 82.8485C168.269 81.9916 169.906 81.0574 171.496 80.0483L172.568 81.7369ZM16.2439 86.5168C14.6816 85.3315 13.2263 84.0409 11.8807 82.6508L13.3178 81.2598C14.5922 82.5764 15.9711 83.7994 17.4527 84.9234L16.2439 86.5168ZM162.25 87.0663C160.422 87.8207 158.593 88.484 156.791 89.0535L156.188 87.1464C157.936 86.5941 159.711 85.9503 161.487 85.2176L162.25 87.0663ZM23.7251 90.9997C22.8367 90.5872 21.9714 90.1489 21.1295 89.6854L22.0941 87.9334C22.8954 88.3746 23.7198 88.7922 24.5673 89.1857C25.3288 89.5393 26.2455 89.8736 27.312 90.1868L26.7485 92.1058C25.6152 91.773 24.6002 91.406 23.7251 90.9997ZM151.167 90.5483C150.193 90.757 149.236 90.9346 148.301 91.0807C147.461 91.2119 146.428 91.3513 145.224 91.4965L144.984 89.5109C146.175 89.3674 147.183 89.2311 147.992 89.1047C148.889 88.9646 149.809 88.7938 150.748 88.5927L151.167 90.5483ZM138.965 92.159C137.074 92.3388 134.995 92.5224 132.755 92.7065L132.592 90.7132C134.824 90.5297 136.895 90.3468 138.776 90.1679L138.965 92.159ZM126.552 93.1865C124.551 93.3324 122.463 93.4767 120.303 93.6175L120.173 91.6217C122.328 91.4813 124.41 91.3373 126.406 91.1918L126.552 93.1865ZM39.2 94.2582C36.9632 94.0289 34.8757 93.7618 32.9666 93.4529L33.286 91.4786C35.1491 91.78 37.1972 92.0424 39.4039 92.2686L39.2 94.2582ZM114.095 94.0001C112.06 94.1185 109.979 94.2328 107.862 94.3417L107.759 92.3443C109.872 92.2357 111.949 92.1217 113.979 92.0035L114.095 94.0001ZM101.624 94.6415C99.5676 94.7334 97.4888 94.8193 95.3963 94.8981L95.321 92.8996C97.4086 92.8209 99.4828 92.7352 101.534 92.6435L101.624 94.6415ZM51.6986 95.1154C49.5453 95.0247 47.4605 94.9135 45.4589 94.7799L45.592 92.7843C47.5754 92.9167 49.6437 93.0271 51.7828 93.1172L51.6986 95.1154ZM89.1607 95.1104C87.0833 95.1733 85.0011 95.2284 82.9228 95.2745L82.8783 93.275C84.951 93.229 87.0278 93.174 89.1002 93.1113L89.1607 95.1104ZM64.1929 95.4192C62.0775 95.4 59.9962 95.367 57.9595 95.3188L58.0068 93.3194C60.033 93.3673 62.1045 93.4002 64.211 93.4193L64.1929 95.4192ZM76.6853 95.3857C74.5873 95.4135 72.5019 95.431 70.4384 95.4371L70.4324 93.4371C72.4887 93.431 74.5672 93.4136 76.6588 93.3859L76.6853 95.3857Z" fill="#CFC3DE"/>
</svg>
