<svg width="293" height="213" viewBox="0 0 293 213" fill="none" xmlns="http://www.w3.org/2000/svg">
<path d="M57.7242 44.28C57.4309 44.28 57.1176 44.2333 56.7842 44.14C56.4642 44.06 56.2176 43.9667 56.0442 43.86C55.1509 43.2867 54.7042 41.72 54.7042 39.16V38.62V38V37.52C54.7042 36.9867 54.7109 36.5133 54.7242 36.1C54.7376 35.6733 54.7642 35.2133 54.8042 34.72C54.8442 34.2 54.9042 33.78 54.9842 33.46C55.0642 33.1267 55.1976 32.7533 55.3842 32.34C55.5442 31.9533 55.7376 31.6533 55.9642 31.44C56.2042 31.2267 56.5109 31.0467 56.8842 30.9C57.2176 30.7533 57.6309 30.68 58.1242 30.68C58.3242 30.68 58.4776 30.7267 58.5842 30.82C58.6909 30.9133 58.7442 31.0333 58.7442 31.18C58.7442 31.3133 58.6976 31.4333 58.6042 31.54C58.5242 31.6467 58.4242 31.7067 58.3042 31.72H57.3642C57.0976 31.72 56.8642 31.8867 56.6642 32.22C56.4642 32.5533 56.3242 32.9867 56.2442 33.52C56.0709 34.5067 55.9842 35.3067 55.9842 35.92V36.02L55.9442 37.94C55.9176 38.5133 55.9042 39.16 55.9042 39.88C55.9042 40.3867 55.9242 40.8 55.9642 41.12C56.0309 41.6 56.1442 42 56.3042 42.32C56.4642 42.68 56.7376 42.94 57.1242 43.1C57.3242 43.18 57.5442 43.22 57.7842 43.22C57.9309 43.22 58.0776 43.1667 58.2242 43.06C58.3976 43.06 58.5376 43.1 58.6442 43.18C58.7642 43.2467 58.8242 43.3533 58.8242 43.5C58.8242 44.02 58.4576 44.28 57.7242 44.28ZM64.5702 44.18C64.2635 44.18 64.0368 44.1333 63.8902 44.04C63.7435 43.9467 63.6702 43.7733 63.6702 43.52C63.6702 43.12 63.6035 42.44 63.4702 41.48L63.3902 41.06L61.4102 40.76C61.3302 41.0667 61.2168 41.6867 61.0702 42.62C60.9902 43.2733 60.8635 43.7067 60.6902 43.92C60.5968 44.04 60.4635 44.1 60.2902 44.1C60.1302 44.1 59.9835 44.0533 59.8502 43.96C59.7168 43.8533 59.6502 43.7267 59.6502 43.58L59.6902 43.48L59.7102 43.4C60.5902 39.9733 61.2568 36.5933 61.7102 33.26C61.7102 33.2067 61.7168 33.12 61.7302 33C61.7435 32.8667 61.7568 32.68 61.7702 32.44C61.8102 31.9467 61.8502 31.5533 61.8902 31.26C61.9435 30.9667 62.0235 30.7467 62.1302 30.6H62.8102C62.9968 30.6 63.1568 30.6467 63.2902 30.74C63.4235 30.82 63.4902 30.94 63.4902 31.1C63.4902 32.1133 63.6302 33.62 63.9102 35.62C64.1768 37.6733 64.3102 39.1133 64.3102 39.94C64.3102 40.02 64.3435 40.2267 64.4102 40.56C64.4768 40.8667 64.5102 41.0667 64.5102 41.16C64.5102 41.2533 64.5768 41.6533 64.7102 42.36C64.8302 43 64.8902 43.4133 64.8902 43.6V43.62C64.8902 43.9133 64.7835 44.1 64.5702 44.18ZM63.2502 40.34C63.2102 40.14 63.1902 39.8933 63.1902 39.6C63.1902 38.4 63.0835 36.8667 62.8702 35L62.6702 32.92C62.0968 36.0533 61.7035 38.42 61.4902 40.02C61.6902 40.1533 62.2768 40.26 63.2502 40.34ZM74.6667 45.04C74.2534 45.04 74.0467 44.6267 74.0467 43.8V42.52V41.24C74.0467 40.5733 74.0001 39.7 73.9067 38.62C73.8001 37.4067 73.7467 36.5733 73.7467 36.12L73.7867 34.88C73.8134 34.52 73.8267 34.1133 73.8267 33.66C73.7734 33.8333 73.5534 34.7533 73.1667 36.42C72.7801 38.0333 72.3801 39.5267 71.9667 40.9C71.5667 42.22 71.2401 42.88 70.9867 42.88C70.7334 42.88 70.5267 42.8067 70.3667 42.66C70.2201 42.5 70.1467 42.2867 70.1467 42.02C70.1467 41.4333 69.9067 40.1867 69.4267 38.28C68.9601 36.3733 68.5334 34.8133 68.1467 33.6L68.0267 35.86C67.9201 37.7667 67.8467 39.3533 67.8067 40.62C67.7801 41.8467 67.7667 42.6867 67.7667 43.14C67.7667 43.2467 67.7734 43.3467 67.7867 43.44V43.72C67.7867 43.9467 67.7401 44.1133 67.6467 44.22C67.5534 44.34 67.3801 44.4 67.1267 44.4C66.9934 44.4 66.8667 44.3467 66.7467 44.24C66.6267 44.1467 66.5667 44.04 66.5667 43.92C66.5667 42.56 66.6667 40.52 66.8667 37.8C67.0667 35.08 67.1667 33.04 67.1667 31.68C67.0867 31.56 67.0467 31.4333 67.0467 31.3C67.0467 31.14 67.1201 31.02 67.2667 30.94C67.4267 30.8467 67.6134 30.8 67.8267 30.8C68.0001 30.8 68.3201 31.4267 68.7867 32.68C69.2534 33.9333 69.7201 35.3533 70.1867 36.94C70.6534 38.5267 70.9534 39.6733 71.0867 40.38C71.1934 40.02 71.2801 39.6867 71.3467 39.38L71.4667 38.9C71.8934 37.0333 72.3201 35.3467 72.7467 33.84C73.0001 32.92 73.2467 32.2 73.4867 31.68C73.7267 31.12 73.9467 30.84 74.1467 30.84C74.3334 30.84 74.5001 30.8933 74.6467 31C74.8067 31.0933 74.8867 31.22 74.8867 31.38C74.8867 32.34 74.9267 33.78 75.0067 35.7C75.1001 37.4867 75.1467 38.8733 75.1467 39.86L75.1267 40.92L75.0867 41.98C75.0867 42.14 75.1067 42.38 75.1467 42.7L75.2067 43.4C75.2201 43.52 75.2267 43.6133 75.2267 43.68C75.2401 43.7467 75.2467 43.7867 75.2467 43.8C75.3134 43.9733 75.3467 44.1 75.3467 44.18C75.3467 44.4067 75.2801 44.6067 75.1467 44.78C75.0134 44.9533 74.8534 45.04 74.6667 45.04ZM83.1777 44.2C82.791 44.2 82.5977 44.0533 82.5977 43.76C82.5977 43.6933 82.5977 43.5533 82.5977 43.34C82.5977 43.1267 82.611 42.9267 82.6377 42.74C82.691 42.26 82.7177 41.6933 82.7177 41.04C82.7177 40.4133 82.691 39.5667 82.6377 38.5C82.611 37.9 82.5843 36.9733 82.5577 35.72L82.4977 33.28L82.4777 32.44L82.4577 30.94C82.4577 30.7267 82.5777 30.6067 82.8177 30.58C83.0577 30.5667 83.2577 30.6333 83.4177 30.78C83.5777 30.9267 83.6577 31.1133 83.6577 31.34C83.6577 31.6733 83.6443 32.2 83.6177 32.92L83.5577 38.06C83.5443 38.2333 83.5377 38.4667 83.5377 38.76C83.551 39.0533 83.5577 39.34 83.5577 39.62V40.82V41.54C83.531 42.38 83.5643 43.08 83.6577 43.64C83.6843 43.8267 83.651 43.9667 83.5577 44.06C83.4777 44.1533 83.351 44.2 83.1777 44.2ZM78.4777 44.2C78.291 44.2 78.1243 44.1733 77.9777 44.12C77.831 44.0667 77.7643 43.9333 77.7777 43.72C77.8043 43.4133 77.8243 43.0333 77.8377 42.58C77.851 42.1267 77.8577 41.8133 77.8577 41.64C77.8577 40.88 77.8777 40.08 77.9177 39.24C77.9443 38.92 77.9577 38.4133 77.9577 37.72C77.9577 37.3333 77.951 36.8733 77.9377 36.34C77.9243 35.8067 77.911 35.4067 77.8977 35.14C77.8843 34.9133 77.871 34.6467 77.8577 34.34C77.8443 34.0333 77.8377 33.6933 77.8377 33.32C77.811 32.8667 77.7977 32.5133 77.7977 32.26L77.7777 31.74C77.7777 31.6733 77.7777 31.54 77.7777 31.34C77.7777 31.1267 77.811 30.96 77.8777 30.84C77.9577 30.72 78.091 30.66 78.2777 30.66C78.451 30.66 78.5977 30.7333 78.7177 30.88C78.8377 31.0133 78.8977 31.1733 78.8977 31.36C78.8977 31.5067 78.911 31.7533 78.9377 32.1C78.9643 32.7133 78.9777 33.2 78.9777 33.56C78.9777 34 78.9443 34.4333 78.8777 34.86C78.851 34.94 78.8377 35.0733 78.8377 35.26C78.8377 35.42 78.851 35.6467 78.8777 35.94C78.9843 35.98 79.211 36.0667 79.5577 36.2C79.9043 36.32 80.2043 36.4667 80.4577 36.64C80.711 36.8 80.911 36.9867 81.0577 37.2C81.511 37.9333 81.7377 38.5667 81.7377 39.1C81.7377 39.9267 81.6777 40.8467 81.5577 41.86C81.491 42.46 81.2977 42.9067 80.9777 43.2C80.6577 43.4933 80.191 43.7467 79.5777 43.96C79.4177 44.0133 79.2243 44.06 78.9977 44.1C78.771 44.14 78.5977 44.1733 78.4777 44.2ZM78.8777 43.12C79.0377 43.1467 79.1577 43.16 79.2377 43.16C79.5043 43.16 79.7243 43.0667 79.8977 42.88C80.3643 42.4267 80.5977 41.8867 80.5977 41.26C80.6243 40.6467 80.6377 40.0933 80.6377 39.6C80.6377 38.72 80.571 38.1533 80.4377 37.9C80.3443 37.6067 80.1577 37.36 79.8777 37.16C79.5977 36.96 79.2777 36.82 78.9177 36.74C78.8243 37.6867 78.7777 38.7467 78.7777 39.92C78.7777 40.92 78.811 41.9867 78.8777 43.12ZM86.9798 44.26C86.8065 44.26 86.6465 44.2 86.4998 44.08C86.3665 43.96 86.2932 43.8133 86.2798 43.64V43.12V42.72C86.2665 42.6 86.2598 42.46 86.2598 42.3C86.2598 42.02 86.2398 41.5933 86.1998 41.02L86.1598 39.74C86.1598 39.0867 86.1798 38.1133 86.2198 36.82C86.2732 35.66 86.2998 34.6867 86.2998 33.9C86.2998 33.7133 86.2798 33.4333 86.2398 33.06C86.1998 32.6733 86.1798 32.3933 86.1798 32.22C86.1798 31.2733 86.4598 30.8 87.0198 30.8C87.4598 30.8 87.9665 30.8867 88.5398 31.06C89.1265 31.2333 89.4198 31.44 89.4198 31.68C89.4198 31.8133 89.3598 31.94 89.2398 32.06C89.1332 32.1667 88.9998 32.2533 88.8398 32.32C88.2798 32.12 87.7732 31.9867 87.3198 31.92C87.3332 32.12 87.3398 32.4067 87.3398 32.78C87.3398 33.3133 87.3332 33.7933 87.3198 34.22C87.2798 34.86 87.2598 35.34 87.2598 35.66L87.3198 35.98L87.6398 35.96C87.7465 35.9467 87.8798 35.94 88.0398 35.94C88.6798 35.94 88.9998 36.1267 88.9998 36.5C88.9998 36.6467 88.9398 36.7733 88.8198 36.88C88.6998 36.9733 88.5465 37.02 88.3598 37.02C88.1198 37.02 87.9332 37.0067 87.7998 36.98H87.2998C87.3265 37.3267 87.3398 37.8333 87.3398 38.5C87.3398 39.1667 87.3332 39.7667 87.3198 40.3C87.2798 41.1133 87.2598 41.72 87.2598 42.12C87.2598 42.8667 87.2732 43.24 87.2998 43.24L87.9598 43.22C88.1865 43.2067 88.4598 43.2 88.7798 43.2C89.2865 43.2 89.5398 43.36 89.5398 43.68C89.5398 43.8667 89.4532 44.0067 89.2798 44.1C89.1198 44.2067 88.9198 44.26 88.6798 44.26H86.9798ZM31.893 65.98C31.7196 66.0067 31.573 65.9667 31.453 65.86C31.333 65.74 31.273 65.58 31.273 65.38C31.233 64.74 31.213 64.1067 31.213 63.48C31.213 62.6267 31.233 61.78 31.273 60.94C31.2996 60.0867 31.313 59.46 31.313 59.06C31.1663 58.1133 31.0796 56.5867 31.053 54.48C31.053 53.9867 31.0463 53.5867 31.033 53.28C30.353 53.28 29.8596 53.2667 29.553 53.24H29.433C29.233 53.24 29.1263 53.3467 29.113 53.56L29.093 55C29.093 55.6933 29.113 56.1133 29.153 56.26C29.1796 56.42 29.193 56.5267 29.193 56.58C29.193 56.6867 29.1796 56.8467 29.153 57.06C29.1263 57.2733 29.113 57.4333 29.113 57.54C29.113 57.74 29.1463 57.9133 29.213 58.06C29.2663 58.18 29.2863 58.3467 29.273 58.56C29.273 58.7733 29.273 58.9333 29.273 59.04C29.2863 59.4533 29.2796 60.06 29.253 60.86C29.2263 61.5 29.213 61.9733 29.213 62.28C29.213 62.6667 29.2263 63.1067 29.253 63.6C29.2796 64.08 29.2996 64.42 29.313 64.62L29.353 65.18C29.3663 65.3933 29.3196 65.5667 29.213 65.7C29.1196 65.82 28.9796 65.88 28.793 65.88C28.7263 65.88 28.6396 65.8667 28.533 65.84C28.413 65.8 28.333 65.7333 28.293 65.64C28.253 65.5467 28.2263 65.4267 28.213 65.28L28.153 63.6L28.173 61.18C28.1463 59.74 28.133 58.6667 28.133 57.96L28.113 56.34C28.0996 55.58 28.0663 54.7733 28.013 53.92L27.973 53.1V52.98C27.973 52.8467 27.9996 52.7533 28.053 52.7C28.1063 52.6333 28.2063 52.58 28.353 52.54C28.6196 52.4733 28.8596 52.44 29.073 52.44C29.193 52.44 29.2796 52.4467 29.333 52.46C29.4396 52.46 29.5996 52.4733 29.813 52.5C30.1063 52.5267 30.3396 52.54 30.513 52.54C30.7663 52.54 30.9996 52.5133 31.213 52.46C31.3596 52.42 31.5463 52.4533 31.773 52.56C31.9996 52.6533 32.1263 52.7933 32.153 52.98C32.1796 53.1667 32.193 53.3133 32.193 53.42C32.193 53.5267 32.1863 53.6067 32.173 53.66C32.1196 53.82 32.093 54.0133 32.093 54.24C32.093 54.36 32.0996 54.4933 32.113 54.64C32.1263 54.7867 32.133 54.94 32.133 55.1C32.133 55.2333 32.1263 55.34 32.113 55.42C32.0996 55.54 32.093 55.7333 32.093 56C32.093 56.44 32.133 57.06 32.213 57.86L32.273 58.4C32.2863 58.52 32.293 58.7 32.293 58.94C32.293 59.22 32.2863 59.4267 32.273 59.56C32.273 59.6667 32.2663 59.8 32.253 59.96C32.253 60.1067 32.2596 60.2867 32.273 60.5C32.2596 60.8067 32.2663 61.2667 32.293 61.88L32.313 62.32L32.433 65.46C32.433 65.6067 32.393 65.7267 32.313 65.82C32.2463 65.9 32.1063 65.9533 31.893 65.98ZM37.1694 66.38C36.8227 66.38 36.5027 66.2667 36.2094 66.04C35.916 65.8267 35.676 65.5333 35.4894 65.16C35.1027 64.3467 34.8627 63.46 34.7694 62.5C34.6494 61.5933 34.5894 60.72 34.5894 59.88C34.5894 59.72 34.596 59.5867 34.6094 59.48V59.12C34.6094 59.0533 34.6027 59.02 34.5894 59.02V58.66L34.6094 57.26C34.6227 56.8333 34.676 56.1533 34.7694 55.22C34.836 54.58 34.9894 53.96 35.2294 53.36C35.3227 53.0933 35.4427 52.8933 35.5894 52.76C35.736 52.6133 35.9027 52.54 36.0894 52.54C36.6227 52.54 37.1027 52.64 37.5294 52.84C37.956 53.0267 38.316 53.2933 38.6094 53.64C38.876 53.9733 39.1027 54.3867 39.2894 54.88C39.476 55.36 39.6094 55.8733 39.6894 56.42C39.7694 56.98 39.8094 57.5733 39.8094 58.2V58.36C39.8094 58.7733 39.816 59.1467 39.8294 59.48L39.8494 60.62C39.8494 64.46 38.956 66.38 37.1694 66.38ZM37.0894 65.54C37.3294 65.54 37.5494 65.4467 37.7494 65.26C37.9494 65.06 38.1027 64.7933 38.2094 64.46C38.4627 63.78 38.616 63.0467 38.6694 62.26C38.736 61.58 38.7694 60.9933 38.7694 60.5C38.7694 59.9 38.7227 59.1133 38.6294 58.14C38.5494 57.1133 38.5094 56.3467 38.5094 55.84V55.48C38.4827 54.9733 38.3094 54.5333 37.9894 54.16C37.6827 53.7867 37.3027 53.6 36.8494 53.6C36.396 53.6 36.096 53.86 35.9494 54.38C35.816 54.7933 35.7494 55.3267 35.7494 55.98C35.7494 56.2333 35.756 56.4467 35.7694 56.62V57.16L35.7294 58.08C35.7027 58.36 35.6894 58.6667 35.6894 59C35.6894 59.72 35.7094 60.4333 35.7494 61.14C35.8027 62.14 35.936 63.1133 36.1494 64.06C36.3627 65.0467 36.676 65.54 37.0894 65.54ZM45.9164 65.98C45.7431 66.0067 45.5964 65.9667 45.4764 65.86C45.3564 65.74 45.2964 65.58 45.2964 65.38C45.2564 64.74 45.2364 64.1067 45.2364 63.48C45.2364 62.6267 45.2564 61.78 45.2964 60.94C45.3231 60.0867 45.3364 59.46 45.3364 59.06C45.1897 58.1133 45.1031 56.5867 45.0764 54.48C45.0764 53.9867 45.0697 53.5867 45.0564 53.28C44.3764 53.28 43.8831 53.2667 43.5764 53.24H43.4564C43.2564 53.24 43.1497 53.3467 43.1364 53.56L43.1164 55C43.1164 55.6933 43.1364 56.1133 43.1764 56.26C43.2031 56.42 43.2164 56.5267 43.2164 56.58C43.2164 56.6867 43.2031 56.8467 43.1764 57.06C43.1497 57.2733 43.1364 57.4333 43.1364 57.54C43.1364 57.74 43.1697 57.9133 43.2364 58.06C43.2897 58.18 43.3097 58.3467 43.2964 58.56C43.2964 58.7733 43.2964 58.9333 43.2964 59.04C43.3097 59.4533 43.3031 60.06 43.2764 60.86C43.2497 61.5 43.2364 61.9733 43.2364 62.28C43.2364 62.6667 43.2497 63.1067 43.2764 63.6C43.3031 64.08 43.3231 64.42 43.3364 64.62L43.3764 65.18C43.3897 65.3933 43.3431 65.5667 43.2364 65.7C43.1431 65.82 43.0031 65.88 42.8164 65.88C42.7497 65.88 42.6631 65.8667 42.5564 65.84C42.4364 65.8 42.3564 65.7333 42.3164 65.64C42.2764 65.5467 42.2497 65.4267 42.2364 65.28L42.1764 63.6L42.1964 61.18C42.1697 59.74 42.1564 58.6667 42.1564 57.96L42.1364 56.34C42.1231 55.58 42.0897 54.7733 42.0364 53.92L41.9964 53.1V52.98C41.9964 52.8467 42.0231 52.7533 42.0764 52.7C42.1297 52.6333 42.2297 52.58 42.3764 52.54C42.6431 52.4733 42.8831 52.44 43.0964 52.44C43.2164 52.44 43.3031 52.4467 43.3564 52.46C43.4631 52.46 43.6231 52.4733 43.8364 52.5C44.1297 52.5267 44.3631 52.54 44.5364 52.54C44.7897 52.54 45.0231 52.5133 45.2364 52.46C45.3831 52.42 45.5697 52.4533 45.7964 52.56C46.0231 52.6533 46.1497 52.7933 46.1764 52.98C46.2031 53.1667 46.2164 53.3133 46.2164 53.42C46.2164 53.5267 46.2097 53.6067 46.1964 53.66C46.1431 53.82 46.1164 54.0133 46.1164 54.24C46.1164 54.36 46.1231 54.4933 46.1364 54.64C46.1497 54.7867 46.1564 54.94 46.1564 55.1C46.1564 55.2333 46.1497 55.34 46.1364 55.42C46.1231 55.54 46.1164 55.7333 46.1164 56C46.1164 56.44 46.1564 57.06 46.2364 57.86L46.2964 58.4C46.3097 58.52 46.3164 58.7 46.3164 58.94C46.3164 59.22 46.3097 59.4267 46.2964 59.56C46.2964 59.6667 46.2897 59.8 46.2764 59.96C46.2764 60.1067 46.2831 60.2867 46.2964 60.5C46.2831 60.8067 46.2897 61.2667 46.3164 61.88L46.3364 62.32L46.4564 65.46C46.4564 65.6067 46.4164 65.7267 46.3364 65.82C46.2697 65.9 46.1297 65.9533 45.9164 65.98ZM49.7728 66.2C49.6528 66.2 49.5395 66.14 49.4328 66.02C49.3395 65.9 49.3195 65.78 49.3728 65.66C49.4128 65.54 49.5061 65.34 49.6528 65.06C50.0661 64.38 50.3395 63.46 50.4728 62.3C50.4861 62.22 50.4328 62.12 50.3128 62C50.2061 61.8667 50.1395 61.7667 50.1128 61.7L49.8328 61.3C49.5528 60.9133 49.3195 60.56 49.1328 60.24C48.9595 59.9067 48.7928 59.4667 48.6328 58.92C48.5661 58.6933 48.5195 58.4533 48.4928 58.2C48.4661 57.9333 48.4528 57.7667 48.4528 57.7L48.4128 57.24C48.3995 57.0133 48.3795 56.8133 48.3528 56.64C48.3261 56.4533 48.3061 56.3 48.2928 56.18C48.1728 55.4067 48.1128 54.7733 48.1128 54.28C48.1128 54.0933 48.1195 53.9533 48.1328 53.86C48.1461 53.66 48.1461 53.48 48.1328 53.32C48.1328 53.16 48.1328 53.0267 48.1328 52.92C48.1461 52.6533 48.2395 52.52 48.4128 52.52C48.4528 52.52 48.5261 52.5333 48.6328 52.56C49.1261 52.7067 49.3728 52.9867 49.3728 53.4C49.3728 53.5067 49.3595 53.7067 49.3328 54L49.2728 54.82C49.2728 55.1933 49.2795 55.4733 49.2928 55.66C49.3995 56.7667 49.5195 57.86 49.6528 58.94C49.6928 59.2333 49.7861 59.5067 49.9328 59.76C50.0928 60 50.2528 60.2 50.4128 60.36C50.5861 60.5067 50.6861 60.58 50.7128 60.58C50.7928 60.34 50.8395 60.18 50.8528 60.1C50.9328 58.9133 50.9795 58.04 50.9928 57.48C51.0061 57.0133 51.0128 56.24 51.0128 55.16V52.82C51.0261 52.7133 51.0528 52.64 51.0928 52.6C51.1461 52.5467 51.2328 52.52 51.3528 52.52C51.6195 52.52 51.8395 52.62 52.0128 52.82C52.1861 53.0067 52.2528 53.2333 52.2128 53.5C52.1728 53.82 52.1528 54.2467 52.1528 54.78C52.1528 55.1 52.1595 55.32 52.1728 55.44C52.1861 55.56 52.1928 55.7267 52.1928 55.94C52.1928 56.2733 52.1661 56.7467 52.1128 57.36C52.1128 57.5067 52.0995 57.74 52.0728 58.06C52.0461 58.46 51.9795 59.0733 51.8728 59.9L51.7928 60.56C51.7128 61.36 51.5528 62.3467 51.3128 63.52C51.2328 63.8933 51.1128 64.2867 50.9528 64.7C50.7928 65.1 50.6128 65.4733 50.4128 65.82C50.3728 65.9133 50.2861 66 50.1528 66.08C50.0195 66.16 49.8928 66.2 49.7728 66.2ZM53.6933 66.44C53.5866 66.44 53.4933 66.4067 53.4133 66.34C53.3333 66.2733 53.2733 66.1867 53.2333 66.08C53.2199 66.0533 53.2133 66.0133 53.2133 65.96C53.2133 65.7867 53.3066 65.6467 53.4933 65.54C53.8666 65.38 54.1466 65.14 54.3333 64.82C54.5333 64.4867 54.6733 64.1 54.7533 63.66C54.9933 62.3533 55.1133 60.9333 55.1133 59.4C55.1133 58.8267 55.1066 58.3933 55.0933 58.1C54.9999 55.8467 54.9199 54.26 54.8533 53.34V53.26C54.8533 53.14 54.8799 53.0467 54.9333 52.98C54.9866 52.9133 55.0799 52.8667 55.2133 52.84C56.0666 52.68 56.7466 52.6 57.2533 52.6C57.5199 52.6 57.7199 52.6067 57.8533 52.62C58.1599 52.6333 58.3933 52.7267 58.5533 52.9C58.7133 53.0733 58.7933 53.3133 58.7933 53.62L58.8133 54.68C58.8399 55.6133 58.8533 56.3133 58.8533 56.78L58.8333 57.74C58.8333 59.1533 58.8866 60.94 58.9933 63.1C59.0466 64.0733 59.0933 64.8267 59.1333 65.36C59.1466 65.6 59.1066 65.7733 59.0133 65.88C58.9333 65.9867 58.7933 66.0533 58.5933 66.08C58.1533 66.1067 57.9199 65.9 57.8933 65.46C57.9333 65.0733 57.9533 64.6867 57.9533 64.3C57.9533 63.9133 57.9466 63.5933 57.9333 63.34L57.9133 61.06C57.9133 59.9533 57.8933 58.82 57.8533 57.66C57.8266 56.7 57.7866 55.7933 57.7333 54.94C57.6799 54.0867 57.6266 53.5667 57.5733 53.38C57.4933 53.3933 57.3266 53.4267 57.0733 53.48C56.8199 53.5333 56.4733 53.58 56.0333 53.62C55.9933 54.2333 55.9733 54.6733 55.9733 54.94C55.9733 55.2467 55.9933 55.5133 56.0333 55.74C56.0599 56.1 56.0866 56.6267 56.1133 57.32V57.76C56.1133 59.92 56.0933 61.38 56.0533 62.14C56.0266 62.3533 56.0133 62.52 56.0133 62.64C55.9599 63.2 55.9066 63.6267 55.8533 63.92C55.7199 64.6267 55.3133 65.3467 54.6333 66.08C54.4466 66.2933 54.1466 66.4133 53.7333 66.44H53.6933ZM61.2453 66.18C61.1253 66.1533 61.0253 66.1133 60.9453 66.06C60.8786 66.02 60.8386 65.94 60.8253 65.82C60.8386 65.74 60.872 65.6533 60.9253 65.56C60.9786 65.4667 61.032 65.4133 61.0853 65.4C61.2053 65.3867 61.292 65.3467 61.3453 65.28C61.3986 65.2133 61.4453 65.12 61.4853 65C61.4986 64.92 61.5386 64.72 61.6053 64.4C61.672 64.08 61.712 63.7733 61.7253 63.48L61.7453 63.14C61.7453 62.98 61.732 62.7533 61.7053 62.46C61.6786 62.1667 61.6653 61.9533 61.6653 61.82C61.6653 61.0467 61.952 60.2867 62.5253 59.54C61.752 58.8333 61.3653 58.06 61.3653 57.22V56.58C61.3653 55.8867 61.4186 55.3667 61.5253 55.02C61.6186 54.66 61.792 54.2667 62.0453 53.84C62.1386 53.64 62.2653 53.4867 62.4253 53.38C62.5853 53.26 62.7586 53.1533 62.9453 53.06C63.1453 52.9667 63.2986 52.8933 63.4053 52.84C63.4853 52.8 63.5986 52.76 63.7453 52.72C63.9053 52.68 64.032 52.6067 64.1253 52.5C64.2986 52.4333 64.472 52.4 64.6453 52.4C64.8986 52.4 65.1186 52.46 65.3053 52.58C65.5053 52.7 65.6053 52.84 65.6053 53C65.6053 53.5733 65.592 54.4733 65.5653 55.7L65.5053 58.54L65.4853 59.66L65.5053 60.78C65.532 61.3933 65.5853 62.26 65.6653 63.38L65.7453 64.68C65.7586 64.8 65.7786 64.9333 65.8053 65.08C65.832 65.2267 65.8453 65.3467 65.8453 65.44C65.8453 65.8 65.6586 65.98 65.2853 65.98C65.1253 65.98 64.9786 65.94 64.8453 65.86C64.7253 65.78 64.6586 65.6667 64.6453 65.52C64.6053 65.2133 64.5853 64.9 64.5853 64.58L64.5253 59.6C64.0586 59.68 63.712 59.7667 63.4853 59.86C63.2586 59.9533 63.092 60.08 62.9853 60.24C62.892 60.3867 62.8186 60.6 62.7653 60.88C62.7253 61.0533 62.7053 61.3133 62.7053 61.66C62.7053 61.8333 62.7186 62.08 62.7453 62.4L62.7653 63.16C62.7653 63.7333 62.732 64.22 62.6653 64.62C62.5986 65.0067 62.452 65.3733 62.2253 65.72C62.1186 65.8933 61.972 66.02 61.7853 66.1C61.5986 66.18 61.4186 66.2067 61.2453 66.18ZM63.2253 59C63.2786 59.0133 63.3653 59.02 63.4853 59.02C63.7653 59.02 64.1253 58.96 64.5653 58.84C64.5653 58.4933 64.552 57.96 64.5253 57.24C64.4853 56.56 64.4653 55.8867 64.4653 55.22C64.4653 54.66 64.4853 54.0933 64.5253 53.52C64.1653 53.5733 63.8453 53.6667 63.5653 53.8C63.2853 53.9333 63.0986 54.08 63.0053 54.24C62.6586 54.8933 62.4786 55.5333 62.4653 56.16C62.4653 56.8667 62.4786 57.3867 62.5053 57.72C62.5186 58.0133 62.5853 58.2867 62.7053 58.54C62.8253 58.7933 62.9986 58.9467 63.2253 59ZM68.6873 66.14C68.514 65.4333 68.4273 64.4533 68.4273 63.2L68.4673 61.42C68.494 60.8867 68.5073 60.2933 68.5073 59.64C68.4273 59.4533 68.3873 59.2867 68.3873 59.14V59.08C68.5207 58.8267 68.5873 58.2533 68.5873 57.36L68.6073 56.44C68.6207 56.1467 68.6273 55.82 68.6273 55.46C68.6273 54.6733 68.574 54.0533 68.4673 53.6C68.5073 53.4133 68.574 53.2533 68.6673 53.12C68.7607 52.9733 68.874 52.9 69.0073 52.9H69.8873C70.2607 52.9 70.5873 52.9867 70.8673 53.16C71.1473 53.32 71.3607 53.5533 71.5073 53.86C71.774 54.4067 71.9073 55.0533 71.9073 55.8C71.9073 56.3333 71.9007 56.7533 71.8873 57.06C71.8607 57.4467 71.794 57.8 71.6873 58.12C71.6473 58.2933 71.5873 58.44 71.5073 58.56C71.4407 58.6667 71.3407 58.8 71.2073 58.96C71.0207 59.1867 70.714 59.4 70.2873 59.6C70.114 59.6933 69.8873 59.78 69.6073 59.86V62L69.6473 63.28L69.6873 63.9C69.7407 64.6467 69.7673 65.28 69.7673 65.8C69.7673 65.96 69.7007 66.0933 69.5673 66.2C69.434 66.32 69.2807 66.38 69.1073 66.38L68.6873 66.14ZM69.6273 59.04C70.414 58.92 70.8073 57.7933 70.8073 55.66C70.8073 55.2733 70.7873 54.9733 70.7473 54.76C70.7073 54.6 70.654 54.4733 70.5873 54.38C70.5207 54.2733 70.4207 54.1867 70.2873 54.12C70.1407 54.04 69.9807 54 69.8073 54C69.8073 53.9867 69.734 53.98 69.5873 53.98V55.12C69.5873 55.9067 69.594 56.6067 69.6073 57.22C69.6073 57.9133 69.614 58.3667 69.6273 58.58V59V59.04ZM77.3923 66C76.939 66 76.7123 64.9 76.7123 62.7L76.7323 61.56L76.7523 60.64V60.58V60.38C76.7657 60.2733 76.7723 60.1467 76.7723 60C76.7723 59.9733 76.7523 59.94 76.7123 59.9C76.6723 59.86 76.6523 59.8267 76.6523 59.8V59.78C76.5857 59.8067 76.4657 59.82 76.2923 59.82C76.119 59.82 75.9057 59.7933 75.6523 59.74C75.5723 59.7267 75.359 59.6933 75.0123 59.64V61.94C75.0123 62.2867 75.0323 62.8333 75.0723 63.58C75.1123 64.3133 75.1323 64.86 75.1323 65.22C75.1323 65.42 75.079 65.5933 74.9723 65.74C74.8657 65.8867 74.7257 65.96 74.5523 65.96C74.299 65.96 74.119 65.7133 74.0123 65.22C73.9057 64.7133 73.8523 64.0533 73.8523 63.24L73.8923 61.62C73.9057 61.1667 73.9123 60.6867 73.9123 60.18V59.84V59.56C73.9123 59.3467 73.9057 59.2067 73.8923 59.14V59.04L73.9523 57.88C73.9523 57.3733 73.9323 56.62 73.8923 55.62C73.8523 54.62 73.8323 53.8667 73.8323 53.36C73.8323 53.2 73.8857 53.06 73.9923 52.94C74.099 52.82 74.2323 52.76 74.3923 52.76C74.819 52.76 75.0323 53.16 75.0323 53.96L74.9923 56.44C74.9657 57.1867 74.9523 58.02 74.9523 58.94C75.1523 59.0067 75.5123 59.04 76.0323 59.04H76.7723C76.799 58.96 76.8123 58.88 76.8123 58.8C76.8123 58.16 76.7723 57.2133 76.6923 55.96C76.599 54.7867 76.5523 53.8333 76.5523 53.1C76.5523 52.9533 76.6057 52.8333 76.7123 52.74C76.8323 52.6333 76.9723 52.58 77.1323 52.58C77.2257 52.58 77.359 52.6133 77.5323 52.68L77.7123 52.76C77.7123 54.6533 77.779 57.18 77.9123 60.34L78.0923 65.4C78.0923 65.5867 78.019 65.7333 77.8723 65.84C77.739 65.9467 77.579 66 77.3923 66ZM85.8534 66.2C85.4668 66.2 85.2734 66.0533 85.2734 65.76C85.2734 65.6933 85.2734 65.5533 85.2734 65.34C85.2734 65.1267 85.2868 64.9267 85.3134 64.74C85.3668 64.26 85.3934 63.6933 85.3934 63.04C85.3934 62.4133 85.3668 61.5667 85.3134 60.5C85.2868 59.9 85.2601 58.9733 85.2334 57.72L85.1734 55.28L85.1534 54.44L85.1334 52.94C85.1334 52.7267 85.2534 52.6067 85.4934 52.58C85.7334 52.5667 85.9334 52.6333 86.0934 52.78C86.2534 52.9267 86.3334 53.1133 86.3334 53.34C86.3334 53.6733 86.3201 54.2 86.2934 54.92L86.2334 60.06C86.2201 60.2333 86.2134 60.4667 86.2134 60.76C86.2268 61.0533 86.2334 61.34 86.2334 61.62V62.82V63.54C86.2068 64.38 86.2401 65.08 86.3334 65.64C86.3601 65.8267 86.3268 65.9667 86.2334 66.06C86.1534 66.1533 86.0268 66.2 85.8534 66.2ZM81.1534 66.2C80.9668 66.2 80.8001 66.1733 80.6534 66.12C80.5068 66.0667 80.4401 65.9333 80.4534 65.72C80.4801 65.4133 80.5001 65.0333 80.5134 64.58C80.5268 64.1267 80.5334 63.8133 80.5334 63.64C80.5334 62.88 80.5534 62.08 80.5934 61.24C80.6201 60.92 80.6334 60.4133 80.6334 59.72C80.6334 59.3333 80.6268 58.8733 80.6134 58.34C80.6001 57.8067 80.5868 57.4067 80.5734 57.14C80.5601 56.9133 80.5468 56.6467 80.5334 56.34C80.5201 56.0333 80.5134 55.6933 80.5134 55.32C80.4868 54.8667 80.4734 54.5133 80.4734 54.26L80.4534 53.74C80.4534 53.6733 80.4534 53.54 80.4534 53.34C80.4534 53.1267 80.4868 52.96 80.5534 52.84C80.6334 52.72 80.7668 52.66 80.9534 52.66C81.1268 52.66 81.2734 52.7333 81.3934 52.88C81.5134 53.0133 81.5734 53.1733 81.5734 53.36C81.5734 53.5067 81.5868 53.7533 81.6134 54.1C81.6401 54.7133 81.6534 55.2 81.6534 55.56C81.6534 56 81.6201 56.4333 81.5534 56.86C81.5268 56.94 81.5134 57.0733 81.5134 57.26C81.5134 57.42 81.5268 57.6467 81.5534 57.94C81.6601 57.98 81.8868 58.0667 82.2334 58.2C82.5801 58.32 82.8801 58.4667 83.1334 58.64C83.3868 58.8 83.5868 58.9867 83.7334 59.2C84.1868 59.9333 84.4134 60.5667 84.4134 61.1C84.4134 61.9267 84.3534 62.8467 84.2334 63.86C84.1668 64.46 83.9734 64.9067 83.6534 65.2C83.3334 65.4933 82.8668 65.7467 82.2534 65.96C82.0934 66.0133 81.9001 66.06 81.6734 66.1C81.4468 66.14 81.2734 66.1733 81.1534 66.2ZM81.5534 65.12C81.7134 65.1467 81.8334 65.16 81.9134 65.16C82.1801 65.16 82.4001 65.0667 82.5734 64.88C83.0401 64.4267 83.2734 63.8867 83.2734 63.26C83.3001 62.6467 83.3134 62.0933 83.3134 61.6C83.3134 60.72 83.2468 60.1533 83.1134 59.9C83.0201 59.6067 82.8334 59.36 82.5534 59.16C82.2734 58.96 81.9534 58.82 81.5934 58.74C81.5001 59.6867 81.4534 60.7467 81.4534 61.92C81.4534 62.92 81.4868 63.9867 81.5534 65.12ZM89.6556 66.26C89.4823 66.26 89.3223 66.2 89.1756 66.08C89.0423 65.96 88.969 65.8133 88.9556 65.64V65.12V64.72C88.9423 64.6 88.9356 64.46 88.9356 64.3C88.9356 64.02 88.9156 63.5933 88.8756 63.02L88.8356 61.74C88.8356 61.0867 88.8556 60.1133 88.8956 58.82C88.949 57.66 88.9756 56.6867 88.9756 55.9C88.9756 55.7133 88.9556 55.4333 88.9156 55.06C88.8756 54.6733 88.8556 54.3933 88.8556 54.22C88.8556 53.2733 89.1356 52.8 89.6956 52.8C90.1356 52.8 90.6423 52.8867 91.2156 53.06C91.8023 53.2333 92.0956 53.44 92.0956 53.68C92.0956 53.8133 92.0356 53.94 91.9156 54.06C91.809 54.1667 91.6756 54.2533 91.5156 54.32C90.9556 54.12 90.449 53.9867 89.9956 53.92C90.009 54.12 90.0156 54.4067 90.0156 54.78C90.0156 55.3133 90.009 55.7933 89.9956 56.22C89.9556 56.86 89.9356 57.34 89.9356 57.66L89.9956 57.98L90.3156 57.96C90.4223 57.9467 90.5556 57.94 90.7156 57.94C91.3556 57.94 91.6756 58.1267 91.6756 58.5C91.6756 58.6467 91.6156 58.7733 91.4956 58.88C91.3756 58.9733 91.2223 59.02 91.0356 59.02C90.7956 59.02 90.609 59.0067 90.4756 58.98H89.9756C90.0023 59.3267 90.0156 59.8333 90.0156 60.5C90.0156 61.1667 90.009 61.7667 89.9956 62.3C89.9556 63.1133 89.9356 63.72 89.9356 64.12C89.9356 64.8667 89.949 65.24 89.9756 65.24L90.6356 65.22C90.8623 65.2067 91.1356 65.2 91.4556 65.2C91.9623 65.2 92.2156 65.36 92.2156 65.68C92.2156 65.8667 92.129 66.0067 91.9556 66.1C91.7956 66.2067 91.5956 66.26 91.3556 66.26H89.6556ZM99.1916 65.68L99.1716 64.9C99.1582 64.6733 99.1516 64.42 99.1516 64.14L99.1716 63.46C99.1316 63.3133 99.0316 61.8533 98.8716 59.08C98.7116 56.3067 98.6182 54.5267 98.5916 53.74C97.8182 53.7133 97.3249 53.6333 97.1116 53.5C96.9649 53.3933 96.8916 53.2733 96.8916 53.14C96.8916 53.0333 96.9582 52.94 97.0916 52.86C97.2382 52.7667 97.3849 52.72 97.5316 52.72C97.9049 52.72 98.3582 52.7467 98.8916 52.8C99.3982 52.8667 99.8516 52.9 100.252 52.9H100.412H100.572C100.985 52.9 101.192 53.06 101.192 53.38C101.192 53.54 101.125 53.6733 100.992 53.78C100.858 53.8733 100.705 53.92 100.532 53.92C100.412 53.92 100.238 53.9 100.012 53.86L99.6116 53.78L99.5916 53.88L99.5716 53.98C99.5716 55.1667 99.6849 57.06 99.9116 59.66C100.125 62.1 100.232 63.9933 100.232 65.34C100.232 65.5 100.158 65.64 100.012 65.76C99.8782 65.88 99.7249 65.94 99.5516 65.94L99.1916 65.68ZM104.109 66.2C103.989 66.2 103.875 66.14 103.769 66.02C103.675 65.9 103.655 65.78 103.709 65.66C103.749 65.54 103.842 65.34 103.989 65.06C104.402 64.38 104.675 63.46 104.809 62.3C104.822 62.22 104.769 62.12 104.649 62C104.542 61.8667 104.475 61.7667 104.449 61.7L104.169 61.3C103.889 60.9133 103.655 60.56 103.469 60.24C103.295 59.9067 103.129 59.4667 102.969 58.92C102.902 58.6933 102.855 58.4533 102.829 58.2C102.802 57.9333 102.789 57.7667 102.789 57.7L102.749 57.24C102.735 57.0133 102.715 56.8133 102.689 56.64C102.662 56.4533 102.642 56.3 102.629 56.18C102.509 55.4067 102.449 54.7733 102.449 54.28C102.449 54.0933 102.455 53.9533 102.469 53.86C102.482 53.66 102.482 53.48 102.469 53.32C102.469 53.16 102.469 53.0267 102.469 52.92C102.482 52.6533 102.575 52.52 102.749 52.52C102.789 52.52 102.862 52.5333 102.969 52.56C103.462 52.7067 103.709 52.9867 103.709 53.4C103.709 53.5067 103.695 53.7067 103.669 54L103.609 54.82C103.609 55.1933 103.615 55.4733 103.629 55.66C103.735 56.7667 103.855 57.86 103.989 58.94C104.029 59.2333 104.122 59.5067 104.269 59.76C104.429 60 104.589 60.2 104.749 60.36C104.922 60.5067 105.022 60.58 105.049 60.58C105.129 60.34 105.175 60.18 105.189 60.1C105.269 58.9133 105.315 58.04 105.329 57.48C105.342 57.0133 105.349 56.24 105.349 55.16V52.82C105.362 52.7133 105.389 52.64 105.429 52.6C105.482 52.5467 105.569 52.52 105.689 52.52C105.955 52.52 106.175 52.62 106.349 52.82C106.522 53.0067 106.589 53.2333 106.549 53.5C106.509 53.82 106.489 54.2467 106.489 54.78C106.489 55.1 106.495 55.32 106.509 55.44C106.522 55.56 106.529 55.7267 106.529 55.94C106.529 56.2733 106.502 56.7467 106.449 57.36C106.449 57.5067 106.435 57.74 106.409 58.06C106.382 58.46 106.315 59.0733 106.209 59.9L106.129 60.56C106.049 61.36 105.889 62.3467 105.649 63.52C105.569 63.8933 105.449 64.2867 105.289 64.7C105.129 65.1 104.949 65.4733 104.749 65.82C104.709 65.9133 104.622 66 104.489 66.08C104.355 66.16 104.229 66.2 104.109 66.2ZM109 66.14C108.827 65.4333 108.74 64.4533 108.74 63.2L108.78 61.42C108.807 60.8867 108.82 60.2933 108.82 59.64C108.74 59.4533 108.7 59.2867 108.7 59.14V59.08C108.833 58.8267 108.9 58.2533 108.9 57.36L108.92 56.44C108.933 56.1467 108.94 55.82 108.94 55.46C108.94 54.6733 108.887 54.0533 108.78 53.6C108.82 53.4133 108.887 53.2533 108.98 53.12C109.073 52.9733 109.187 52.9 109.32 52.9H110.2C110.573 52.9 110.9 52.9867 111.18 53.16C111.46 53.32 111.673 53.5533 111.82 53.86C112.087 54.4067 112.22 55.0533 112.22 55.8C112.22 56.3333 112.213 56.7533 112.2 57.06C112.173 57.4467 112.107 57.8 112 58.12C111.96 58.2933 111.9 58.44 111.82 58.56C111.753 58.6667 111.653 58.8 111.52 58.96C111.333 59.1867 111.027 59.4 110.6 59.6C110.427 59.6933 110.2 59.78 109.92 59.86V62L109.96 63.28L110 63.9C110.053 64.6467 110.08 65.28 110.08 65.8C110.08 65.96 110.013 66.0933 109.88 66.2C109.747 66.32 109.593 66.38 109.42 66.38L109 66.14ZM109.94 59.04C110.727 58.92 111.12 57.7933 111.12 55.66C111.12 55.2733 111.1 54.9733 111.06 54.76C111.02 54.6 110.967 54.4733 110.9 54.38C110.833 54.2733 110.733 54.1867 110.6 54.12C110.453 54.04 110.293 54 110.12 54C110.12 53.9867 110.047 53.98 109.9 53.98V55.12C109.9 55.9067 109.907 56.6067 109.92 57.22C109.92 57.9133 109.927 58.3667 109.94 58.58V59V59.04ZM119.545 66.2C119.158 66.2 118.965 66.0533 118.965 65.76C118.965 65.6933 118.965 65.5533 118.965 65.34C118.965 65.1267 118.978 64.9267 119.005 64.74C119.058 64.26 119.085 63.6933 119.085 63.04C119.085 62.4133 119.058 61.5667 119.005 60.5C118.978 59.9 118.952 58.9733 118.925 57.72L118.865 55.28L118.845 54.44L118.825 52.94C118.825 52.7267 118.945 52.6067 119.185 52.58C119.425 52.5667 119.625 52.6333 119.785 52.78C119.945 52.9267 120.025 53.1133 120.025 53.34C120.025 53.6733 120.012 54.2 119.985 54.92L119.925 60.06C119.912 60.2333 119.905 60.4667 119.905 60.76C119.918 61.0533 119.925 61.34 119.925 61.62V62.82V63.54C119.898 64.38 119.932 65.08 120.025 65.64C120.052 65.8267 120.018 65.9667 119.925 66.06C119.845 66.1533 119.718 66.2 119.545 66.2ZM114.845 66.2C114.658 66.2 114.492 66.1733 114.345 66.12C114.198 66.0667 114.132 65.9333 114.145 65.72C114.172 65.4133 114.192 65.0333 114.205 64.58C114.218 64.1267 114.225 63.8133 114.225 63.64C114.225 62.88 114.245 62.08 114.285 61.24C114.312 60.92 114.325 60.4133 114.325 59.72C114.325 59.3333 114.318 58.8733 114.305 58.34C114.292 57.8067 114.278 57.4067 114.265 57.14C114.252 56.9133 114.238 56.6467 114.225 56.34C114.212 56.0333 114.205 55.6933 114.205 55.32C114.178 54.8667 114.165 54.5133 114.165 54.26L114.145 53.74C114.145 53.6733 114.145 53.54 114.145 53.34C114.145 53.1267 114.178 52.96 114.245 52.84C114.325 52.72 114.458 52.66 114.645 52.66C114.818 52.66 114.965 52.7333 115.085 52.88C115.205 53.0133 115.265 53.1733 115.265 53.36C115.265 53.5067 115.278 53.7533 115.305 54.1C115.332 54.7133 115.345 55.2 115.345 55.56C115.345 56 115.312 56.4333 115.245 56.86C115.218 56.94 115.205 57.0733 115.205 57.26C115.205 57.42 115.218 57.6467 115.245 57.94C115.352 57.98 115.578 58.0667 115.925 58.2C116.272 58.32 116.572 58.4667 116.825 58.64C117.078 58.8 117.278 58.9867 117.425 59.2C117.878 59.9333 118.105 60.5667 118.105 61.1C118.105 61.9267 118.045 62.8467 117.925 63.86C117.858 64.46 117.665 64.9067 117.345 65.2C117.025 65.4933 116.558 65.7467 115.945 65.96C115.785 66.0133 115.592 66.06 115.365 66.1C115.138 66.14 114.965 66.1733 114.845 66.2ZM115.245 65.12C115.405 65.1467 115.525 65.16 115.605 65.16C115.872 65.16 116.092 65.0667 116.265 64.88C116.732 64.4267 116.965 63.8867 116.965 63.26C116.992 62.6467 117.005 62.0933 117.005 61.6C117.005 60.72 116.938 60.1533 116.805 59.9C116.712 59.6067 116.525 59.36 116.245 59.16C115.965 58.96 115.645 58.82 115.285 58.74C115.192 59.6867 115.145 60.7467 115.145 61.92C115.145 62.92 115.178 63.9867 115.245 65.12Z" fill="#8A5B8F"/>
<path d="M291.958 140.567L290.96 140.622L291.958 140.567ZM204.033 207.566C203.794 208.064 204.003 208.661 204.501 208.901L212.61 212.805C213.107 213.045 213.705 212.835 213.945 212.338C214.184 211.84 213.975 211.243 213.477 211.003L206.269 207.533L209.739 200.325C209.979 199.827 209.77 199.229 209.272 198.99C208.775 198.75 208.177 198.959 207.937 199.457L204.033 207.566ZM178.709 58.9568C179.637 59.239 180.568 59.5189 181.5 59.7969L182.071 57.8804C181.143 57.6033 180.216 57.3243 179.291 57.0432L178.709 58.9568ZM187.095 61.4408C188.96 61.9814 190.828 62.5169 192.697 63.0498L193.245 61.1264C191.378 60.594 189.513 60.0593 187.652 59.5199L187.095 61.4408ZM198.299 64.6424C200.168 65.1734 202.035 65.7043 203.898 66.2378L204.449 64.3151C202.584 63.7809 200.715 63.2495 198.845 62.7185L198.299 64.6424ZM209.488 67.8545C211.354 68.4008 213.213 68.9522 215.062 69.5115L215.641 67.5973C213.786 67.0359 211.921 66.4826 210.049 65.935L209.488 67.8545ZM220.613 71.2288C222.468 71.8165 224.309 72.4149 226.132 73.027L226.769 71.1309C224.933 70.5149 223.081 69.9129 221.217 69.3222L220.613 71.2288ZM231.61 74.9285C233.443 75.5879 235.255 76.2644 237.042 76.961L237.768 75.0975C235.963 74.394 234.135 73.7113 232.286 73.0465L231.61 74.9285ZM242.407 79.1487C244.197 79.9132 245.957 80.7022 247.684 81.519L248.539 79.7111C246.788 78.8826 245.004 78.0831 243.193 77.3094L242.407 79.1487ZM252.846 84.1019C254.564 85.0118 256.241 85.9551 257.874 86.9352L258.903 85.2203C257.238 84.2206 255.529 83.26 253.782 82.3346L252.846 84.1019ZM262.724 90.0482C264.316 91.1435 265.857 92.2821 267.343 93.4678L268.59 91.9047C267.066 90.6877 265.486 89.521 263.857 88.4003L262.724 90.0482ZM271.684 97.2235C273.082 98.5365 274.417 99.903 275.685 101.327L277.179 99.997C275.869 98.5267 274.493 97.1178 273.054 95.7659L271.684 97.2235ZM279.286 105.778C280.405 107.307 281.455 108.897 282.43 110.552L284.153 109.536C283.144 107.823 282.058 106.178 280.9 104.597L279.286 105.778ZM285.084 115.616C285.872 117.322 286.59 119.092 287.233 120.93L289.121 120.27C288.457 118.372 287.715 116.542 286.899 114.777L285.084 115.616ZM288.873 126.416C289.327 128.224 289.715 130.092 290.033 132.024L292.007 131.699C291.679 129.714 291.281 127.791 290.813 125.929L288.873 126.416ZM290.752 137.72C290.837 138.673 290.906 139.64 290.96 140.622L292.957 140.513C292.902 139.508 292.831 138.518 292.744 137.542L290.752 137.72ZM290.96 140.622C291.011 141.566 291.013 142.502 290.967 143.429L292.964 143.529C293.014 142.532 293.012 141.527 292.957 140.513L290.96 140.622ZM290.113 148.966C289.648 150.761 289.007 152.526 288.207 154.26L290.023 155.098C290.869 153.264 291.552 151.387 292.049 149.468L290.113 148.966ZM285.447 159.211C284.431 160.764 283.293 162.289 282.044 163.785L283.58 165.066C284.873 163.516 286.059 161.929 287.121 160.305L285.447 159.211ZM278.175 167.995C276.843 169.322 275.43 170.623 273.947 171.897L275.251 173.414C276.767 172.111 278.216 170.777 279.587 169.412L278.175 167.995ZM269.472 175.507C267.959 176.657 266.394 177.783 264.789 178.882L265.918 180.532C267.549 179.416 269.141 178.271 270.683 177.099L269.472 175.507ZM259.955 182.041C258.328 183.058 256.672 184.05 254.995 185.016L255.994 186.749C257.69 185.771 259.366 184.767 261.014 183.737L259.955 182.041ZM249.935 187.827C248.229 188.741 246.511 189.63 244.791 190.492L245.688 192.28C247.423 191.41 249.156 190.513 250.88 189.59L249.935 187.827ZM239.583 193.025C237.814 193.86 236.052 194.666 234.308 195.443L235.122 197.27C236.879 196.487 238.653 195.675 240.436 194.834L239.583 193.025ZM228.991 197.751C227.165 198.523 225.371 199.261 223.621 199.964L224.368 201.82C226.127 201.112 227.932 200.37 229.77 199.593L228.991 197.751ZM218.236 202.08C216.337 202.809 214.515 203.491 212.79 204.126L213.48 206.003C215.213 205.366 217.044 204.68 218.953 203.947L218.236 202.08ZM207.328 206.097C206.369 206.437 205.459 206.757 204.604 207.056L205.265 208.944C206.121 208.644 207.034 208.323 207.997 207.982L207.328 206.097Z" fill="#CFC3DE"/>
<path d="M113.732 6.50656C90.5887 -0.87767 41.1863 -1.8626 21.6033 9.95256C2.02027 21.7677 0.418059 39.3918 1.13017 52.7823C2.0203 69.5204 9.14161 82.3202 21.6033 88.7201C37.6796 96.9763 117.738 91.1816 131.98 88.7201C146.222 86.2586 166.695 74.4433 169.811 55.7361C172.926 37.0288 136.876 13.8908 113.732 6.50656Z" stroke="#CFC3DE" stroke-width="2" stroke-dasharray="6 6"/>
</svg>
