<svg width="277" height="119" viewBox="0 0 277 119" fill="none" xmlns="http://www.w3.org/2000/svg">
<path d="M51.2242 39.28C50.9309 39.28 50.6176 39.2333 50.2842 39.14C49.9642 39.06 49.7176 38.9667 49.5442 38.86C48.6509 38.2867 48.2042 36.72 48.2042 34.16V33.62V33V32.52C48.2042 31.9867 48.2109 31.5133 48.2242 31.1C48.2376 30.6733 48.2642 30.2133 48.3042 29.72C48.3442 29.2 48.4042 28.78 48.4842 28.46C48.5642 28.1267 48.6976 27.7533 48.8842 27.34C49.0442 26.9533 49.2376 26.6533 49.4642 26.44C49.7042 26.2267 50.0109 26.0467 50.3842 25.9C50.7176 25.7533 51.1309 25.68 51.6242 25.68C51.8242 25.68 51.9776 25.7267 52.0842 25.82C52.1909 25.9133 52.2442 26.0333 52.2442 26.18C52.2442 26.3133 52.1976 26.4333 52.1042 26.54C52.0242 26.6467 51.9242 26.7067 51.8042 26.72H50.8642C50.5976 26.72 50.3642 26.8867 50.1642 27.22C49.9642 27.5533 49.8242 27.9867 49.7442 28.52C49.5709 29.5067 49.4842 30.3067 49.4842 30.92V31.02L49.4442 32.94C49.4176 33.5133 49.4042 34.16 49.4042 34.88C49.4042 35.3867 49.4242 35.8 49.4642 36.12C49.5309 36.6 49.6442 37 49.8042 37.32C49.9642 37.68 50.2376 37.94 50.6242 38.1C50.8242 38.18 51.0442 38.22 51.2842 38.22C51.4309 38.22 51.5776 38.1667 51.7242 38.06C51.8976 38.06 52.0376 38.1 52.1442 38.18C52.2642 38.2467 52.3242 38.3533 52.3242 38.5C52.3242 39.02 51.9576 39.28 51.2242 39.28ZM58.0702 39.18C57.7635 39.18 57.5368 39.1333 57.3902 39.04C57.2435 38.9467 57.1702 38.7733 57.1702 38.52C57.1702 38.12 57.1035 37.44 56.9702 36.48L56.8902 36.06L54.9102 35.76C54.8302 36.0667 54.7168 36.6867 54.5702 37.62C54.4902 38.2733 54.3635 38.7067 54.1902 38.92C54.0968 39.04 53.9635 39.1 53.7902 39.1C53.6302 39.1 53.4835 39.0533 53.3502 38.96C53.2168 38.8533 53.1502 38.7267 53.1502 38.58L53.1902 38.48L53.2102 38.4C54.0902 34.9733 54.7568 31.5933 55.2102 28.26C55.2102 28.2067 55.2168 28.12 55.2302 28C55.2435 27.8667 55.2568 27.68 55.2702 27.44C55.3102 26.9467 55.3502 26.5533 55.3902 26.26C55.4435 25.9667 55.5235 25.7467 55.6302 25.6H56.3102C56.4968 25.6 56.6568 25.6467 56.7902 25.74C56.9235 25.82 56.9902 25.94 56.9902 26.1C56.9902 27.1133 57.1302 28.62 57.4102 30.62C57.6768 32.6733 57.8102 34.1133 57.8102 34.94C57.8102 35.02 57.8435 35.2267 57.9102 35.56C57.9768 35.8667 58.0102 36.0667 58.0102 36.16C58.0102 36.2533 58.0768 36.6533 58.2102 37.36C58.3302 38 58.3902 38.4133 58.3902 38.6V38.62C58.3902 38.9133 58.2835 39.1 58.0702 39.18ZM56.7502 35.34C56.7102 35.14 56.6902 34.8933 56.6902 34.6C56.6902 33.4 56.5835 31.8667 56.3702 30L56.1702 27.92C55.5968 31.0533 55.2035 33.42 54.9902 35.02C55.1902 35.1533 55.7768 35.26 56.7502 35.34ZM68.1667 40.04C67.7534 40.04 67.5467 39.6267 67.5467 38.8V37.52V36.24C67.5467 35.5733 67.5001 34.7 67.4067 33.62C67.3001 32.4067 67.2467 31.5733 67.2467 31.12L67.2867 29.88C67.3134 29.52 67.3267 29.1133 67.3267 28.66C67.2734 28.8333 67.0534 29.7533 66.6667 31.42C66.2801 33.0333 65.8801 34.5267 65.4667 35.9C65.0667 37.22 64.7401 37.88 64.4867 37.88C64.2334 37.88 64.0267 37.8067 63.8667 37.66C63.7201 37.5 63.6467 37.2867 63.6467 37.02C63.6467 36.4333 63.4067 35.1867 62.9267 33.28C62.4601 31.3733 62.0334 29.8133 61.6467 28.6L61.5267 30.86C61.4201 32.7667 61.3467 34.3533 61.3067 35.62C61.2801 36.8467 61.2667 37.6867 61.2667 38.14C61.2667 38.2467 61.2734 38.3467 61.2867 38.44V38.72C61.2867 38.9467 61.2401 39.1133 61.1467 39.22C61.0534 39.34 60.8801 39.4 60.6267 39.4C60.4934 39.4 60.3667 39.3467 60.2467 39.24C60.1267 39.1467 60.0667 39.04 60.0667 38.92C60.0667 37.56 60.1667 35.52 60.3667 32.8C60.5667 30.08 60.6667 28.04 60.6667 26.68C60.5867 26.56 60.5467 26.4333 60.5467 26.3C60.5467 26.14 60.6201 26.02 60.7667 25.94C60.9267 25.8467 61.1134 25.8 61.3267 25.8C61.5001 25.8 61.8201 26.4267 62.2867 27.68C62.7534 28.9333 63.2201 30.3533 63.6867 31.94C64.1534 33.5267 64.4534 34.6733 64.5867 35.38C64.6934 35.02 64.7801 34.6867 64.8467 34.38L64.9667 33.9C65.3934 32.0333 65.8201 30.3467 66.2467 28.84C66.5001 27.92 66.7467 27.2 66.9867 26.68C67.2267 26.12 67.4467 25.84 67.6467 25.84C67.8334 25.84 68.0001 25.8933 68.1467 26C68.3067 26.0933 68.3867 26.22 68.3867 26.38C68.3867 27.34 68.4267 28.78 68.5067 30.7C68.6001 32.4867 68.6467 33.8733 68.6467 34.86L68.6267 35.92L68.5867 36.98C68.5867 37.14 68.6067 37.38 68.6467 37.7L68.7067 38.4C68.7201 38.52 68.7267 38.6133 68.7267 38.68C68.7401 38.7467 68.7467 38.7867 68.7467 38.8C68.8134 38.9733 68.8467 39.1 68.8467 39.18C68.8467 39.4067 68.7801 39.6067 68.6467 39.78C68.5134 39.9533 68.3534 40.04 68.1667 40.04ZM76.6777 39.2C76.291 39.2 76.0977 39.0533 76.0977 38.76C76.0977 38.6933 76.0977 38.5533 76.0977 38.34C76.0977 38.1267 76.111 37.9267 76.1377 37.74C76.191 37.26 76.2177 36.6933 76.2177 36.04C76.2177 35.4133 76.191 34.5667 76.1377 33.5C76.111 32.9 76.0843 31.9733 76.0577 30.72L75.9977 28.28L75.9777 27.44L75.9577 25.94C75.9577 25.7267 76.0777 25.6067 76.3177 25.58C76.5577 25.5667 76.7577 25.6333 76.9177 25.78C77.0777 25.9267 77.1577 26.1133 77.1577 26.34C77.1577 26.6733 77.1443 27.2 77.1177 27.92L77.0577 33.06C77.0443 33.2333 77.0377 33.4667 77.0377 33.76C77.051 34.0533 77.0577 34.34 77.0577 34.62V35.82V36.54C77.031 37.38 77.0643 38.08 77.1577 38.64C77.1843 38.8267 77.151 38.9667 77.0577 39.06C76.9777 39.1533 76.851 39.2 76.6777 39.2ZM71.9777 39.2C71.791 39.2 71.6243 39.1733 71.4777 39.12C71.331 39.0667 71.2643 38.9333 71.2777 38.72C71.3043 38.4133 71.3243 38.0333 71.3377 37.58C71.351 37.1267 71.3577 36.8133 71.3577 36.64C71.3577 35.88 71.3777 35.08 71.4177 34.24C71.4443 33.92 71.4577 33.4133 71.4577 32.72C71.4577 32.3333 71.451 31.8733 71.4377 31.34C71.4243 30.8067 71.411 30.4067 71.3977 30.14C71.3843 29.9133 71.371 29.6467 71.3577 29.34C71.3443 29.0333 71.3377 28.6933 71.3377 28.32C71.311 27.8667 71.2977 27.5133 71.2977 27.26L71.2777 26.74C71.2777 26.6733 71.2777 26.54 71.2777 26.34C71.2777 26.1267 71.311 25.96 71.3777 25.84C71.4577 25.72 71.591 25.66 71.7777 25.66C71.951 25.66 72.0977 25.7333 72.2177 25.88C72.3377 26.0133 72.3977 26.1733 72.3977 26.36C72.3977 26.5067 72.411 26.7533 72.4377 27.1C72.4643 27.7133 72.4777 28.2 72.4777 28.56C72.4777 29 72.4443 29.4333 72.3777 29.86C72.351 29.94 72.3377 30.0733 72.3377 30.26C72.3377 30.42 72.351 30.6467 72.3777 30.94C72.4843 30.98 72.711 31.0667 73.0577 31.2C73.4043 31.32 73.7043 31.4667 73.9577 31.64C74.211 31.8 74.411 31.9867 74.5577 32.2C75.011 32.9333 75.2377 33.5667 75.2377 34.1C75.2377 34.9267 75.1777 35.8467 75.0577 36.86C74.991 37.46 74.7977 37.9067 74.4777 38.2C74.1577 38.4933 73.691 38.7467 73.0777 38.96C72.9177 39.0133 72.7243 39.06 72.4977 39.1C72.271 39.14 72.0977 39.1733 71.9777 39.2ZM72.3777 38.12C72.5377 38.1467 72.6577 38.16 72.7377 38.16C73.0043 38.16 73.2243 38.0667 73.3977 37.88C73.8643 37.4267 74.0977 36.8867 74.0977 36.26C74.1243 35.6467 74.1377 35.0933 74.1377 34.6C74.1377 33.72 74.071 33.1533 73.9377 32.9C73.8443 32.6067 73.6577 32.36 73.3777 32.16C73.0977 31.96 72.7777 31.82 72.4177 31.74C72.3243 32.6867 72.2777 33.7467 72.2777 34.92C72.2777 35.92 72.311 36.9867 72.3777 38.12ZM80.4798 39.26C80.3065 39.26 80.1465 39.2 79.9998 39.08C79.8665 38.96 79.7932 38.8133 79.7798 38.64V38.12V37.72C79.7665 37.6 79.7598 37.46 79.7598 37.3C79.7598 37.02 79.7398 36.5933 79.6998 36.02L79.6598 34.74C79.6598 34.0867 79.6798 33.1133 79.7198 31.82C79.7732 30.66 79.7998 29.6867 79.7998 28.9C79.7998 28.7133 79.7798 28.4333 79.7398 28.06C79.6998 27.6733 79.6798 27.3933 79.6798 27.22C79.6798 26.2733 79.9598 25.8 80.5198 25.8C80.9598 25.8 81.4665 25.8867 82.0398 26.06C82.6265 26.2333 82.9198 26.44 82.9198 26.68C82.9198 26.8133 82.8598 26.94 82.7398 27.06C82.6332 27.1667 82.4998 27.2533 82.3398 27.32C81.7798 27.12 81.2732 26.9867 80.8198 26.92C80.8332 27.12 80.8398 27.4067 80.8398 27.78C80.8398 28.3133 80.8332 28.7933 80.8198 29.22C80.7798 29.86 80.7598 30.34 80.7598 30.66L80.8198 30.98L81.1398 30.96C81.2465 30.9467 81.3798 30.94 81.5398 30.94C82.1798 30.94 82.4998 31.1267 82.4998 31.5C82.4998 31.6467 82.4398 31.7733 82.3198 31.88C82.1998 31.9733 82.0465 32.02 81.8598 32.02C81.6198 32.02 81.4332 32.0067 81.2998 31.98H80.7998C80.8265 32.3267 80.8398 32.8333 80.8398 33.5C80.8398 34.1667 80.8332 34.7667 80.8198 35.3C80.7798 36.1133 80.7598 36.72 80.7598 37.12C80.7598 37.8667 80.7732 38.24 80.7998 38.24L81.4598 38.22C81.6865 38.2067 81.9598 38.2 82.2798 38.2C82.7865 38.2 83.0398 38.36 83.0398 38.68C83.0398 38.8667 82.9532 39.0067 82.7798 39.1C82.6198 39.2067 82.4198 39.26 82.1798 39.26H80.4798ZM35.8313 63.46C35.7246 63.4867 35.6446 63.5 35.5913 63.5C35.4313 63.5 35.3179 63.4 35.2513 63.2C35.1979 63.04 35.1713 62.84 35.1713 62.6L35.1913 61.22C35.1913 61.14 35.1846 61.0667 35.1713 61C35.1579 60.9333 35.1446 60.8667 35.1313 60.8H32.8313C32.9646 60.8 32.6446 60.8667 31.8713 61C31.1113 61.12 30.5179 61.2 30.0913 61.24L29.1913 61.32L28.1913 61.42C28.1913 61.54 28.1913 61.6867 28.1913 61.86C28.2046 62.0333 28.2046 62.24 28.1913 62.48V62.58C28.1913 62.7933 28.1379 62.9533 28.0313 63.06C27.9246 63.1667 27.8246 63.22 27.7313 63.22C27.6779 63.22 27.5979 63.1933 27.4913 63.14C27.2513 62.9667 27.1179 62.7267 27.0913 62.42L27.0312 60.96C27.0046 60.44 27.2179 60.18 27.6713 60.18C27.9246 60.1667 28.1246 60.1 28.2713 59.98C28.4179 59.86 28.5913 59.6733 28.7913 59.42C28.9913 59.1533 29.1446 58.86 29.2513 58.54C29.3713 58.2067 29.4846 57.8067 29.5913 57.34C29.7113 56.8333 29.7979 56.34 29.8513 55.86C29.9046 55.38 29.9713 54.6933 30.0513 53.8C30.1713 52.4 30.2313 50.9933 30.2313 49.58L30.2113 48.46C30.2113 48.2067 30.2846 48 30.4313 47.84C30.5779 47.6667 30.7779 47.58 31.0313 47.58C31.1113 47.58 31.1713 47.5867 31.2113 47.6C31.8246 47.7067 32.3246 47.7733 32.7113 47.8H32.8113C32.9846 47.8 33.0846 47.7667 33.1113 47.7C33.2313 47.54 33.3779 47.46 33.5513 47.46C33.6713 47.46 33.7779 47.4867 33.8713 47.54C34.0846 47.62 34.2246 47.82 34.2913 48.14L34.1913 51.56C34.1913 53.4133 34.1979 54.8 34.2113 55.72C34.2113 56.2 34.2246 56.9333 34.2513 57.92L34.2713 59.02C34.2713 59.1267 34.2779 59.2267 34.2913 59.32C34.3046 59.4133 34.3179 59.5067 34.3313 59.6C34.5979 59.6267 34.7979 59.64 34.9313 59.64C35.0379 59.64 35.1179 59.6333 35.1713 59.62C35.4646 59.58 35.7246 59.6533 35.9513 59.84C36.1913 60.0133 36.3113 60.24 36.3113 60.52C36.3113 60.88 36.2846 61.42 36.2313 62.14C36.2313 62.3267 36.2179 62.5933 36.1913 62.94C36.1646 63.22 36.0446 63.3933 35.8313 63.46ZM30.0713 60.28C30.8179 60.2133 31.4046 60.1533 31.8313 60.1C32.2713 60.0333 32.7046 59.9333 33.1313 59.8C33.2646 58.1867 33.3313 56.46 33.3313 54.62C33.3313 52.9133 33.2646 51.04 33.1313 49C32.7846 48.9867 32.1379 48.9533 31.1913 48.9L31.1713 49.84C31.0646 51.8933 30.9913 53.4267 30.9513 54.44C30.8979 55.96 30.6379 57.4533 30.1713 58.92C30.1446 59 30.0846 59.2 29.9913 59.52C29.9113 59.8267 29.7846 60.0933 29.6113 60.32L30.0713 60.28ZM39.6733 61.38C39.3266 61.38 39.0066 61.2667 38.7133 61.04C38.4199 60.8267 38.1799 60.5333 37.9933 60.16C37.6066 59.3467 37.3666 58.46 37.2733 57.5C37.1533 56.5933 37.0933 55.72 37.0933 54.88C37.0933 54.72 37.0999 54.5867 37.1133 54.48V54.12C37.1133 54.0533 37.1066 54.02 37.0933 54.02V53.66L37.1133 52.26C37.1266 51.8333 37.1799 51.1533 37.2733 50.22C37.3399 49.58 37.4933 48.96 37.7333 48.36C37.8266 48.0933 37.9466 47.8933 38.0933 47.76C38.2399 47.6133 38.4066 47.54 38.5933 47.54C39.1266 47.54 39.6066 47.64 40.0333 47.84C40.4599 48.0267 40.8199 48.2933 41.1133 48.64C41.3799 48.9733 41.6066 49.3867 41.7933 49.88C41.9799 50.36 42.1133 50.8733 42.1933 51.42C42.2733 51.98 42.3133 52.5733 42.3133 53.2V53.36C42.3133 53.7733 42.3199 54.1467 42.3333 54.48L42.3533 55.62C42.3533 59.46 41.4599 61.38 39.6733 61.38ZM39.5933 60.54C39.8333 60.54 40.0533 60.4467 40.2533 60.26C40.4533 60.06 40.6066 59.7933 40.7133 59.46C40.9666 58.78 41.1199 58.0467 41.1733 57.26C41.2399 56.58 41.2733 55.9933 41.2733 55.5C41.2733 54.9 41.2266 54.1133 41.1333 53.14C41.0533 52.1133 41.0133 51.3467 41.0133 50.84V50.48C40.9866 49.9733 40.8133 49.5333 40.4933 49.16C40.1866 48.7867 39.8066 48.6 39.3533 48.6C38.8999 48.6 38.5999 48.86 38.4533 49.38C38.3199 49.7933 38.2533 50.3267 38.2533 50.98C38.2533 51.2333 38.2599 51.4467 38.2733 51.62V52.16L38.2333 53.08C38.2066 53.36 38.1933 53.6667 38.1933 54C38.1933 54.72 38.2133 55.4333 38.2533 56.14C38.3066 57.14 38.4399 58.1133 38.6533 59.06C38.8666 60.0467 39.1799 60.54 39.5933 60.54ZM45.3203 61C44.8936 61.0267 44.6936 60.8133 44.7203 60.36L44.7403 58.98C44.7536 58.6867 44.7603 58.2333 44.7603 57.62V56.14C44.7603 55.4867 44.7536 54.9933 44.7403 54.66C44.727 54.2333 44.7203 53.6 44.7203 52.76V50.88V50.38C44.7203 50.02 44.707 49.72 44.6803 49.48C44.667 49.24 44.6203 48.9867 44.5403 48.72C44.5136 48.6133 44.5003 48.5333 44.5003 48.48C44.5003 48.2533 44.5803 48.0533 44.7403 47.88C44.9136 47.7067 45.127 47.6133 45.3803 47.6C45.7403 47.5867 46.087 47.5667 46.4203 47.54C46.767 47.5133 47.1003 47.4667 47.4203 47.4C47.5403 47.3467 47.6736 47.38 47.8203 47.5C47.967 47.6067 48.0536 47.7267 48.0803 47.86C48.107 47.9667 48.0803 48.0733 48.0003 48.18C47.9203 48.2733 47.8136 48.34 47.6803 48.38C47.4003 48.46 46.7936 48.5533 45.8603 48.66L45.6803 53.6C46.2936 53.6667 46.767 53.84 47.1003 54.12C47.4336 54.4 47.6603 54.8867 47.7803 55.58C47.927 56.1267 48.0003 56.7133 48.0003 57.34C48.0003 57.74 47.9603 58.1533 47.8803 58.58C47.6936 59.4467 47.247 60.0867 46.5403 60.5C46.4603 60.5533 46.3403 60.6267 46.1803 60.72C46.0336 60.8133 45.887 60.8867 45.7403 60.94C45.607 60.98 45.467 61 45.3203 61ZM45.7203 59.92C45.987 59.84 46.227 59.68 46.4403 59.44C46.6536 59.2 46.7936 58.94 46.8603 58.66C46.9803 58.14 47.0403 57.6333 47.0403 57.14C47.0403 56.62 46.9803 56.1133 46.8603 55.62C46.7803 55.3 46.6536 55.0533 46.4803 54.88C46.3203 54.6933 46.067 54.5933 45.7203 54.58V59.92ZM50.41 61.14C50.2367 60.4333 50.15 59.4533 50.15 58.2L50.19 56.42C50.2167 55.8867 50.23 55.2933 50.23 54.64C50.15 54.4533 50.11 54.2867 50.11 54.14V54.08C50.2433 53.8267 50.31 53.2533 50.31 52.36L50.33 51.44C50.3433 51.1467 50.35 50.82 50.35 50.46C50.35 49.6733 50.2967 49.0533 50.19 48.6C50.23 48.4133 50.2967 48.2533 50.39 48.12C50.4833 47.9733 50.5967 47.9 50.73 47.9H51.61C51.9833 47.9 52.31 47.9867 52.59 48.16C52.87 48.32 53.0833 48.5533 53.23 48.86C53.4967 49.4067 53.63 50.0533 53.63 50.8C53.63 51.3333 53.6233 51.7533 53.61 52.06C53.5833 52.4467 53.5167 52.8 53.41 53.12C53.37 53.2933 53.31 53.44 53.23 53.56C53.1633 53.6667 53.0633 53.8 52.93 53.96C52.7433 54.1867 52.4367 54.4 52.01 54.6C51.8367 54.6933 51.61 54.78 51.33 54.86V57L51.37 58.28L51.41 58.9C51.4633 59.6467 51.49 60.28 51.49 60.8C51.49 60.96 51.4233 61.0933 51.29 61.2C51.1567 61.32 51.0033 61.38 50.83 61.38L50.41 61.14ZM51.35 54.04C52.1367 53.92 52.53 52.7933 52.53 50.66C52.53 50.2733 52.51 49.9733 52.47 49.76C52.43 49.6 52.3767 49.4733 52.31 49.38C52.2433 49.2733 52.1433 49.1867 52.01 49.12C51.8633 49.04 51.7033 49 51.53 49C51.53 48.9867 51.4567 48.98 51.31 48.98V50.12C51.31 50.9067 51.3167 51.6067 51.33 52.22C51.33 52.9133 51.3367 53.3667 51.35 53.58V54V54.04ZM60.955 61.2C60.5683 61.2 60.375 61.0533 60.375 60.76C60.375 60.6933 60.375 60.5533 60.375 60.34C60.375 60.1267 60.3883 59.9267 60.415 59.74C60.4683 59.26 60.495 58.6933 60.495 58.04C60.495 57.4133 60.4683 56.5667 60.415 55.5C60.3883 54.9 60.3617 53.9733 60.335 52.72L60.275 50.28L60.255 49.44L60.235 47.94C60.235 47.7267 60.355 47.6067 60.595 47.58C60.835 47.5667 61.035 47.6333 61.195 47.78C61.355 47.9267 61.435 48.1133 61.435 48.34C61.435 48.6733 61.4217 49.2 61.395 49.92L61.335 55.06C61.3217 55.2333 61.315 55.4667 61.315 55.76C61.3283 56.0533 61.335 56.34 61.335 56.62V57.82V58.54C61.3083 59.38 61.3417 60.08 61.435 60.64C61.4617 60.8267 61.4283 60.9667 61.335 61.06C61.255 61.1533 61.1283 61.2 60.955 61.2ZM56.255 61.2C56.0683 61.2 55.9017 61.1733 55.755 61.12C55.6083 61.0667 55.5417 60.9333 55.555 60.72C55.5817 60.4133 55.6017 60.0333 55.615 59.58C55.6283 59.1267 55.635 58.8133 55.635 58.64C55.635 57.88 55.655 57.08 55.695 56.24C55.7217 55.92 55.735 55.4133 55.735 54.72C55.735 54.3333 55.7283 53.8733 55.715 53.34C55.7017 52.8067 55.6883 52.4067 55.675 52.14C55.6617 51.9133 55.6483 51.6467 55.635 51.34C55.6217 51.0333 55.615 50.6933 55.615 50.32C55.5883 49.8667 55.575 49.5133 55.575 49.26L55.555 48.74C55.555 48.6733 55.555 48.54 55.555 48.34C55.555 48.1267 55.5883 47.96 55.655 47.84C55.735 47.72 55.8683 47.66 56.055 47.66C56.2283 47.66 56.375 47.7333 56.495 47.88C56.615 48.0133 56.675 48.1733 56.675 48.36C56.675 48.5067 56.6883 48.7533 56.715 49.1C56.7417 49.7133 56.755 50.2 56.755 50.56C56.755 51 56.7217 51.4333 56.655 51.86C56.6283 51.94 56.615 52.0733 56.615 52.26C56.615 52.42 56.6283 52.6467 56.655 52.94C56.7617 52.98 56.9883 53.0667 57.335 53.2C57.6817 53.32 57.9817 53.4667 58.235 53.64C58.4883 53.8 58.6883 53.9867 58.835 54.2C59.2883 54.9333 59.515 55.5667 59.515 56.1C59.515 56.9267 59.455 57.8467 59.335 58.86C59.2683 59.46 59.075 59.9067 58.755 60.2C58.435 60.4933 57.9683 60.7467 57.355 60.96C57.195 61.0133 57.0017 61.06 56.775 61.1C56.5483 61.14 56.375 61.1733 56.255 61.2ZM56.655 60.12C56.815 60.1467 56.935 60.16 57.015 60.16C57.2817 60.16 57.5017 60.0667 57.675 59.88C58.1417 59.4267 58.375 58.8867 58.375 58.26C58.4017 57.6467 58.415 57.0933 58.415 56.6C58.415 55.72 58.3483 55.1533 58.215 54.9C58.1217 54.6067 57.935 54.36 57.655 54.16C57.375 53.96 57.055 53.82 56.695 53.74C56.6017 54.6867 56.555 55.7467 56.555 56.92C56.555 57.92 56.5883 58.9867 56.655 60.12ZM64.7572 61.26C64.5839 61.26 64.4239 61.2 64.2772 61.08C64.1439 60.96 64.0705 60.8133 64.0572 60.64V60.12V59.72C64.0439 59.6 64.0372 59.46 64.0372 59.3C64.0372 59.02 64.0172 58.5933 63.9772 58.02L63.9372 56.74C63.9372 56.0867 63.9572 55.1133 63.9972 53.82C64.0505 52.66 64.0772 51.6867 64.0772 50.9C64.0772 50.7133 64.0572 50.4333 64.0172 50.06C63.9772 49.6733 63.9572 49.3933 63.9572 49.22C63.9572 48.2733 64.2372 47.8 64.7972 47.8C65.2372 47.8 65.7439 47.8867 66.3172 48.06C66.9039 48.2333 67.1972 48.44 67.1972 48.68C67.1972 48.8133 67.1372 48.94 67.0172 49.06C66.9105 49.1667 66.7772 49.2533 66.6172 49.32C66.0572 49.12 65.5505 48.9867 65.0972 48.92C65.1105 49.12 65.1172 49.4067 65.1172 49.78C65.1172 50.3133 65.1105 50.7933 65.0972 51.22C65.0572 51.86 65.0372 52.34 65.0372 52.66L65.0972 52.98L65.4172 52.96C65.5239 52.9467 65.6572 52.94 65.8172 52.94C66.4572 52.94 66.7772 53.1267 66.7772 53.5C66.7772 53.6467 66.7172 53.7733 66.5972 53.88C66.4772 53.9733 66.3239 54.02 66.1372 54.02C65.8972 54.02 65.7105 54.0067 65.5772 53.98H65.0772C65.1039 54.3267 65.1172 54.8333 65.1172 55.5C65.1172 56.1667 65.1105 56.7667 65.0972 57.3C65.0572 58.1133 65.0372 58.72 65.0372 59.12C65.0372 59.8667 65.0505 60.24 65.0772 60.24L65.7372 60.22C65.9639 60.2067 66.2372 60.2 66.5572 60.2C67.0639 60.2 67.3172 60.36 67.3172 60.68C67.3172 60.8667 67.2305 61.0067 67.0572 61.1C66.8972 61.2067 66.6972 61.26 66.4572 61.26H64.7572ZM73.0331 61.44C72.9265 61.44 72.8331 61.4067 72.7531 61.34C72.6731 61.2733 72.6131 61.1867 72.5731 61.08C72.5598 61.0533 72.5531 61.0133 72.5531 60.96C72.5531 60.7867 72.6465 60.6467 72.8331 60.54C73.2065 60.38 73.4865 60.14 73.6731 59.82C73.8731 59.4867 74.0131 59.1 74.0931 58.66C74.3331 57.3533 74.4531 55.9333 74.4531 54.4C74.4531 53.8267 74.4465 53.3933 74.4331 53.1C74.3398 50.8467 74.2598 49.26 74.1931 48.34V48.26C74.1931 48.14 74.2198 48.0467 74.2731 47.98C74.3265 47.9133 74.4198 47.8667 74.5531 47.84C75.4065 47.68 76.0865 47.6 76.5931 47.6C76.8598 47.6 77.0598 47.6067 77.1931 47.62C77.4998 47.6333 77.7331 47.7267 77.8931 47.9C78.0531 48.0733 78.1331 48.3133 78.1331 48.62L78.1531 49.68C78.1798 50.6133 78.1931 51.3133 78.1931 51.78L78.1731 52.74C78.1731 54.1533 78.2265 55.94 78.3331 58.1C78.3865 59.0733 78.4331 59.8267 78.4731 60.36C78.4865 60.6 78.4465 60.7733 78.3531 60.88C78.2731 60.9867 78.1331 61.0533 77.9331 61.08C77.4931 61.1067 77.2598 60.9 77.2331 60.46C77.2731 60.0733 77.2931 59.6867 77.2931 59.3C77.2931 58.9133 77.2865 58.5933 77.2731 58.34L77.2531 56.06C77.2531 54.9533 77.2331 53.82 77.1931 52.66C77.1665 51.7 77.1265 50.7933 77.0731 49.94C77.0198 49.0867 76.9665 48.5667 76.9131 48.38C76.8331 48.3933 76.6665 48.4267 76.4131 48.48C76.1598 48.5333 75.8131 48.58 75.3731 48.62C75.3331 49.2333 75.3131 49.6733 75.3131 49.94C75.3131 50.2467 75.3331 50.5133 75.3731 50.74C75.3998 51.1 75.4265 51.6267 75.4531 52.32V52.76C75.4531 54.92 75.4331 56.38 75.3931 57.14C75.3665 57.3533 75.3531 57.52 75.3531 57.64C75.2998 58.2 75.2465 58.6267 75.1931 58.92C75.0598 59.6267 74.6531 60.3467 73.9731 61.08C73.7865 61.2933 73.4865 61.4133 73.0731 61.44H73.0331ZM86.0652 61.14C85.7452 61.14 85.4385 61.04 85.1452 60.84C84.8518 60.64 84.6118 60.3533 84.4252 59.98C84.2652 59.66 84.1518 59.32 84.0852 58.96C84.0318 58.5867 83.9852 58.1333 83.9452 57.6L83.7652 55.14H82.0452V57.1V57.9L82.2452 60.36C82.2718 60.5867 82.2385 60.7467 82.1452 60.84C82.0652 60.9333 81.8985 60.98 81.6452 60.98C81.4585 60.98 81.3252 60.9533 81.2452 60.9C81.1652 60.8467 81.1118 60.7467 81.0852 60.6C81.0585 60.3867 81.0452 60.06 81.0452 59.62L81.0252 58.1C80.9985 56.7667 80.9852 55.76 80.9852 55.08C80.9852 54.5333 80.9918 54.1267 81.0052 53.86L81.0252 52.6C81.0252 52.28 81.0118 51.72 80.9852 50.92L80.9652 49.46C80.9652 49.3 80.9785 49.06 81.0052 48.74L81.0252 48.04C81.0252 47.8667 81.0585 47.7533 81.1252 47.7C81.2052 47.6467 81.3518 47.62 81.5652 47.62C81.7785 47.62 81.9518 47.6867 82.0852 47.82C82.2318 47.94 82.2918 48.0933 82.2652 48.28C82.2252 48.5333 82.2052 48.8 82.2052 49.08C82.2052 49.36 82.2118 49.5733 82.2252 49.72L82.2452 50.38C82.2452 51.0467 82.2185 51.6867 82.1652 52.3C82.1118 52.94 82.0852 53.64 82.0852 54.4C82.2985 54.4267 82.4585 54.44 82.5652 54.44C82.8052 54.44 83.2052 54.3867 83.7652 54.28C83.8052 53.5067 83.8785 52.64 83.9852 51.68C84.0918 50.6933 84.2185 49.82 84.3652 49.06C84.4185 48.78 84.5785 48.42 84.8452 47.98C84.9118 47.8467 85.0185 47.7467 85.1652 47.68C85.3118 47.6133 85.4718 47.58 85.6452 47.58C85.8852 47.58 86.2052 47.68 86.6052 47.88C87.0185 48.08 87.3452 48.3067 87.5852 48.56C87.9985 49.0133 88.3252 49.5867 88.5652 50.28C88.8185 50.9733 88.9452 51.74 88.9452 52.58C88.9452 52.9933 88.9185 53.38 88.8652 53.74C88.8118 54.1267 88.7852 54.7133 88.7852 55.5C88.7852 56.22 88.7652 56.76 88.7252 57.12C88.6052 58.28 88.3185 59.2667 87.8652 60.08C87.6918 60.4133 87.4318 60.6733 87.0852 60.86C86.7385 61.0467 86.3985 61.14 86.0652 61.14ZM86.0652 60.34C86.3185 60.34 86.5252 60.22 86.6852 59.98C87.0452 59.2467 87.2918 58.6 87.4252 58.04C87.5718 57.48 87.6518 56.74 87.6652 55.82C87.7185 54.62 87.7452 53.62 87.7452 52.82L87.7252 51.96C87.6985 51.16 87.5718 50.4 87.3452 49.68C87.2785 49.4533 87.1518 49.2267 86.9652 49C86.7918 48.76 86.5985 48.5667 86.3852 48.42C86.1852 48.2867 86.0185 48.22 85.8852 48.22C85.7785 48.22 85.6985 48.2667 85.6452 48.36C85.5918 48.4533 85.5385 48.6 85.4852 48.8C85.4452 49 85.4052 49.16 85.3652 49.28C85.3118 49.4667 85.2585 49.7467 85.2052 50.12C85.1918 50.28 85.1585 50.4867 85.1052 50.74C84.8918 51.9667 84.7852 53.34 84.7852 54.86V55.5L84.8052 56.08C84.8185 56.2533 84.8318 56.6 84.8452 57.12C84.8718 57.6267 84.9118 58.08 84.9652 58.48C85.0052 58.84 85.1718 59.34 85.4652 59.98C85.6118 60.22 85.8118 60.34 86.0652 60.34ZM98.7023 63.46C98.5957 63.4867 98.5157 63.5 98.4623 63.5C98.3023 63.5 98.189 63.4 98.1223 63.2C98.069 63.04 98.0423 62.84 98.0423 62.6L98.0623 61.22C98.0623 61.14 98.0557 61.0667 98.0423 61C98.029 60.9333 98.0157 60.8667 98.0023 60.8H95.7023C95.8357 60.8 95.5157 60.8667 94.7423 61C93.9823 61.12 93.389 61.2 92.9623 61.24L92.0623 61.32L91.0623 61.42C91.0623 61.54 91.0623 61.6867 91.0623 61.86C91.0757 62.0333 91.0757 62.24 91.0623 62.48V62.58C91.0623 62.7933 91.009 62.9533 90.9023 63.06C90.7957 63.1667 90.6957 63.22 90.6023 63.22C90.549 63.22 90.469 63.1933 90.3623 63.14C90.1223 62.9667 89.989 62.7267 89.9623 62.42L89.9023 60.96C89.8757 60.44 90.089 60.18 90.5423 60.18C90.7957 60.1667 90.9957 60.1 91.1423 59.98C91.289 59.86 91.4623 59.6733 91.6623 59.42C91.8623 59.1533 92.0157 58.86 92.1223 58.54C92.2423 58.2067 92.3557 57.8067 92.4623 57.34C92.5823 56.8333 92.669 56.34 92.7223 55.86C92.7757 55.38 92.8423 54.6933 92.9223 53.8C93.0423 52.4 93.1023 50.9933 93.1023 49.58L93.0823 48.46C93.0823 48.2067 93.1557 48 93.3023 47.84C93.449 47.6667 93.649 47.58 93.9023 47.58C93.9823 47.58 94.0423 47.5867 94.0823 47.6C94.6957 47.7067 95.1957 47.7733 95.5823 47.8H95.6823C95.8557 47.8 95.9557 47.7667 95.9823 47.7C96.1023 47.54 96.249 47.46 96.4223 47.46C96.5423 47.46 96.649 47.4867 96.7423 47.54C96.9557 47.62 97.0957 47.82 97.1623 48.14L97.0623 51.56C97.0623 53.4133 97.069 54.8 97.0823 55.72C97.0823 56.2 97.0957 56.9333 97.1223 57.92L97.1423 59.02C97.1423 59.1267 97.149 59.2267 97.1623 59.32C97.1757 59.4133 97.189 59.5067 97.2023 59.6C97.469 59.6267 97.669 59.64 97.8023 59.64C97.909 59.64 97.989 59.6333 98.0423 59.62C98.3357 59.58 98.5957 59.6533 98.8223 59.84C99.0623 60.0133 99.1823 60.24 99.1823 60.52C99.1823 60.88 99.1557 61.42 99.1023 62.14C99.1023 62.3267 99.089 62.5933 99.0623 62.94C99.0357 63.22 98.9157 63.3933 98.7023 63.46ZM92.9423 60.28C93.689 60.2133 94.2757 60.1533 94.7023 60.1C95.1423 60.0333 95.5757 59.9333 96.0023 59.8C96.1357 58.1867 96.2023 56.46 96.2023 54.62C96.2023 52.9133 96.1357 51.04 96.0023 49C95.6557 48.9867 95.009 48.9533 94.0623 48.9L94.0423 49.84C93.9357 51.8933 93.8623 53.4267 93.8223 54.44C93.769 55.96 93.509 57.4533 93.0423 58.92C93.0157 59 92.9557 59.2 92.8623 59.52C92.7823 59.8267 92.6557 60.0933 92.4823 60.32L92.9423 60.28ZM101.04 60.96C100.866 60.9067 100.773 60.7933 100.76 60.62V60.32C100.733 59.76 100.706 58.92 100.68 57.8C100.626 56.8267 100.593 56.08 100.58 55.56C100.54 54.7467 100.493 53.5267 100.44 51.9C100.426 51.62 100.413 51.2333 100.4 50.74C100.386 50.2467 100.38 49.8733 100.38 49.62C100.366 49.4733 100.36 49.2667 100.36 49C100.36 48.6933 100.373 48.4667 100.4 48.32C100.453 47.9067 100.68 47.7133 101.08 47.74C101.453 47.74 101.653 47.9533 101.68 48.38V48.62L101.66 53.66V56.04V57.24C101.66 57.4267 101.673 57.6467 101.7 57.9C101.726 58.14 101.746 58.3133 101.76 58.42C101.826 58.0333 101.933 57.64 102.08 57.24C102.24 56.8267 102.34 56.5733 102.38 56.48C102.58 56 102.726 55.6067 102.82 55.3C103.14 54.2733 103.553 53.0133 104.06 51.52C104.166 51.2133 104.286 50.84 104.42 50.4C104.78 49.2667 105.026 48.5333 105.16 48.2C105.28 47.88 105.46 47.68 105.7 47.6C105.82 47.56 105.94 47.54 106.06 47.54C106.246 47.54 106.44 47.6 106.64 47.72V48.68C106.64 49.68 106.66 50.7133 106.7 51.78C106.713 52.0067 106.72 52.3467 106.72 52.8V53.38C106.72 53.5 106.713 53.66 106.7 53.86C106.7 54.06 106.706 54.2933 106.72 54.56L106.78 59.96C106.78 60.16 106.733 60.38 106.64 60.62C106.6 60.7267 106.533 60.8133 106.44 60.88C106.346 60.9333 106.246 60.96 106.14 60.96C105.766 60.96 105.58 60.7867 105.58 60.44C105.58 60.04 105.6 59.6533 105.64 59.28C105.666 58.7733 105.68 58.3867 105.68 58.12C105.653 55.48 105.62 53.5067 105.58 52.2C105.58 52 105.553 51.6733 105.5 51.22L105.44 50.5C105.32 50.6333 105.253 50.72 105.24 50.76L104.92 51.74C104.706 52.4333 104.54 52.9467 104.42 53.28L102.68 58.12L101.78 60.58C101.673 60.86 101.513 61 101.3 61C101.26 61 101.173 60.9867 101.04 60.96Z" fill="#8A5B8F"/>
<path d="M270.975 60.7256L271.845 60.2326L270.975 60.7256ZM245.393 118.081C245.438 118.632 245.921 119.042 246.471 118.997L255.441 118.263C255.992 118.218 256.401 117.736 256.356 117.185C256.311 116.635 255.829 116.225 255.278 116.27L247.305 116.922L246.653 108.948C246.608 108.398 246.125 107.988 245.575 108.033C245.024 108.078 244.615 108.561 244.66 109.111L245.393 118.081ZM158.217 50.247C159.224 50.0235 160.222 49.8032 161.212 49.5862L160.784 47.6326C159.792 47.85 158.792 48.0706 157.783 48.2945L158.217 50.247ZM167.153 48.3031C169.171 47.8738 171.154 47.4595 173.101 47.0604L172.699 45.1011C170.747 45.5012 168.76 45.9166 166.737 46.3469L167.153 48.3031ZM179.057 45.8665C181.085 45.4696 183.073 45.0912 185.022 44.7317L184.659 42.7649C182.703 43.1258 180.708 43.5055 178.673 43.9037L179.057 45.8665ZM190.993 43.6688C193.031 43.3202 195.022 42.9949 196.968 42.6936L196.662 40.7171C194.705 41.0202 192.703 41.3472 190.656 41.6974L190.993 43.6688ZM202.98 41.8205C205.041 41.5422 207.048 41.2945 209.002 41.0783L208.782 39.0905C206.811 39.3085 204.788 39.5582 202.712 39.8384L202.98 41.8205ZM215.011 40.5004C217.093 40.3325 219.108 40.206 221.061 40.1222L220.975 38.1241C218.996 38.209 216.955 38.3371 214.85 38.5069L215.011 40.5004ZM227.077 40.0012C229.167 40.0109 231.176 40.0786 233.107 40.2062L233.239 38.2105C231.263 38.08 229.214 38.0111 227.086 38.0012L227.077 40.0012ZM239.08 40.8287C241.133 41.1289 243.086 41.5123 244.945 41.9813L245.434 40.0421C243.504 39.5551 241.484 39.1589 239.369 38.8497L239.08 40.8287ZM250.609 43.7906C252.495 44.5345 254.269 45.3924 255.939 46.3684L256.948 44.6416C255.186 43.6117 253.32 42.7097 251.343 41.93L250.609 43.7906ZM260.778 49.7623C262.276 51.012 263.679 52.3922 264.995 53.909L266.506 52.598C265.121 51.003 263.642 49.5472 262.059 48.2266L260.778 49.7623ZM268.558 58.666C269.09 59.4863 269.605 60.3369 270.105 61.2186L271.845 60.2326C271.326 59.3177 270.79 58.433 270.236 57.578L268.558 58.666ZM270.105 61.2186C270.586 62.0672 271.027 62.899 271.431 63.7148L273.223 62.8274C272.802 61.9768 272.343 61.112 271.845 60.2326L270.105 61.2186ZM273.581 68.9142C274.203 70.8115 274.606 72.6149 274.818 74.3362L276.803 74.0915C276.574 72.2325 276.141 70.3026 275.482 68.2916L273.581 68.9142ZM274.85 79.8443C274.633 81.7038 274.186 83.4797 273.546 85.192L275.419 85.8923C276.112 84.0396 276.6 82.1067 276.837 80.0761L274.85 79.8443ZM271.076 90.171C270.117 91.7279 269.01 93.2441 267.789 94.7369L269.338 96.0028C270.602 94.456 271.764 92.8674 272.779 91.2207L271.076 90.171ZM264.002 98.9745C262.704 100.325 261.341 101.665 259.942 103.01L261.327 104.452C262.737 103.098 264.12 101.737 265.444 100.36L264.002 98.9745ZM255.766 106.972C254.374 108.289 252.975 109.624 251.598 110.985L253.004 112.407C254.365 111.062 255.752 109.739 257.141 108.424L255.766 106.972ZM247.557 115.165C246.901 115.883 246.256 116.612 245.627 117.353L247.152 118.647C247.763 117.927 248.391 117.217 249.034 116.514L247.557 115.165Z" fill="#CFC3DE"/>
<path d="M101.058 5.84817C80.5166 -0.653166 36.6683 -1.52033 19.2869 8.88215C1.90557 19.2846 0.483484 34.8015 1.11553 46.5909C1.90559 61.3277 8.22628 72.5972 19.2869 78.2318C33.5559 85.5009 104.614 80.399 117.255 78.2318C129.896 76.0647 148.067 65.6621 150.832 49.1915C153.597 32.721 121.6 12.3495 101.058 5.84817Z" stroke="#CFC3DE" stroke-width="2" stroke-dasharray="6 6"/>
</svg>
