<svg width="420" height="467" viewBox="0 0 420 467" fill="none" xmlns="http://www.w3.org/2000/svg">
<path d="M69.2242 44.8728C68.9309 44.8728 68.6176 44.8261 68.2842 44.7328C67.9642 44.6528 67.7176 44.5594 67.5442 44.4528C66.6509 43.8794 66.2042 42.3128 66.2042 39.7528V39.2128V38.5928V38.1128C66.2042 37.5794 66.2109 37.1061 66.2242 36.6928C66.2376 36.2661 66.2642 35.8061 66.3042 35.3128C66.3442 34.7928 66.4042 34.3728 66.4842 34.0528C66.5642 33.7194 66.6976 33.3461 66.8842 32.9328C67.0442 32.5461 67.2376 32.2461 67.4642 32.0328C67.7042 31.8194 68.0109 31.6394 68.3842 31.4928C68.7176 31.3461 69.1309 31.2728 69.6242 31.2728C69.8242 31.2728 69.9776 31.3194 70.0842 31.4128C70.1909 31.5061 70.2442 31.6261 70.2442 31.7728C70.2442 31.9061 70.1976 32.0261 70.1042 32.1328C70.0242 32.2394 69.9242 32.2994 69.8042 32.3128H68.8642C68.5976 32.3128 68.3642 32.4794 68.1642 32.8128C67.9642 33.1461 67.8242 33.5794 67.7442 34.1128C67.5709 35.0994 67.4842 35.8994 67.4842 36.5128V36.6128L67.4442 38.5328C67.4176 39.1061 67.4042 39.7528 67.4042 40.4728C67.4042 40.9794 67.4242 41.3928 67.4642 41.7128C67.5309 42.1928 67.6442 42.5928 67.8042 42.9128C67.9642 43.2728 68.2376 43.5328 68.6242 43.6928C68.8242 43.7728 69.0442 43.8128 69.2842 43.8128C69.4309 43.8128 69.5776 43.7594 69.7242 43.6528C69.8976 43.6528 70.0376 43.6928 70.1442 43.7728C70.2642 43.8394 70.3242 43.9461 70.3242 44.0928C70.3242 44.6128 69.9576 44.8728 69.2242 44.8728ZM76.0702 44.7728C75.7635 44.7728 75.5368 44.7261 75.3902 44.6328C75.2435 44.5394 75.1702 44.3661 75.1702 44.1128C75.1702 43.7128 75.1035 43.0328 74.9702 42.0728L74.8902 41.6528L72.9102 41.3528C72.8302 41.6594 72.7168 42.2794 72.5702 43.2128C72.4902 43.8661 72.3635 44.2994 72.1902 44.5128C72.0968 44.6328 71.9635 44.6928 71.7902 44.6928C71.6302 44.6928 71.4835 44.6461 71.3502 44.5528C71.2168 44.4461 71.1502 44.3194 71.1502 44.1728L71.1902 44.0728L71.2102 43.9928C72.0902 40.5661 72.7568 37.1861 73.2102 33.8528C73.2102 33.7994 73.2168 33.7128 73.2302 33.5928C73.2435 33.4594 73.2568 33.2728 73.2702 33.0328C73.3102 32.5394 73.3502 32.1461 73.3902 31.8528C73.4435 31.5594 73.5235 31.3394 73.6302 31.1928H74.3102C74.4968 31.1928 74.6568 31.2394 74.7902 31.3328C74.9235 31.4128 74.9902 31.5328 74.9902 31.6928C74.9902 32.7061 75.1302 34.2128 75.4102 36.2128C75.6768 38.2661 75.8102 39.7061 75.8102 40.5328C75.8102 40.6128 75.8435 40.8194 75.9102 41.1528C75.9768 41.4594 76.0102 41.6594 76.0102 41.7528C76.0102 41.8461 76.0768 42.2461 76.2102 42.9528C76.3302 43.5928 76.3902 44.0061 76.3902 44.1928V44.2128C76.3902 44.5061 76.2835 44.6928 76.0702 44.7728ZM74.7502 40.9328C74.7102 40.7328 74.6902 40.4861 74.6902 40.1928C74.6902 38.9928 74.5835 37.4594 74.3702 35.5928L74.1702 33.5128C73.5968 36.6461 73.2035 39.0128 72.9902 40.6128C73.1902 40.7461 73.7768 40.8528 74.7502 40.9328ZM86.1667 45.6328C85.7534 45.6328 85.5467 45.2194 85.5467 44.3928V43.1128V41.8328C85.5467 41.1661 85.5001 40.2928 85.4067 39.2128C85.3001 37.9994 85.2467 37.1661 85.2467 36.7128L85.2867 35.4728C85.3134 35.1128 85.3267 34.7061 85.3267 34.2528C85.2734 34.4261 85.0534 35.3461 84.6667 37.0128C84.2801 38.6261 83.8801 40.1194 83.4667 41.4928C83.0667 42.8128 82.7401 43.4728 82.4867 43.4728C82.2334 43.4728 82.0267 43.3994 81.8667 43.2528C81.7201 43.0928 81.6467 42.8794 81.6467 42.6128C81.6467 42.0261 81.4067 40.7794 80.9267 38.8728C80.4601 36.9661 80.0334 35.4061 79.6467 34.1928L79.5267 36.4528C79.4201 38.3594 79.3467 39.9461 79.3067 41.2128C79.2801 42.4394 79.2667 43.2794 79.2667 43.7328C79.2667 43.8394 79.2734 43.9394 79.2867 44.0328V44.3128C79.2867 44.5394 79.2401 44.7061 79.1467 44.8128C79.0534 44.9328 78.8801 44.9928 78.6267 44.9928C78.4934 44.9928 78.3667 44.9394 78.2467 44.8328C78.1267 44.7394 78.0667 44.6328 78.0667 44.5128C78.0667 43.1528 78.1667 41.1128 78.3667 38.3928C78.5667 35.6728 78.6667 33.6328 78.6667 32.2728C78.5867 32.1528 78.5467 32.0261 78.5467 31.8928C78.5467 31.7328 78.6201 31.6128 78.7667 31.5328C78.9267 31.4394 79.1134 31.3928 79.3267 31.3928C79.5001 31.3928 79.8201 32.0194 80.2867 33.2728C80.7534 34.5261 81.2201 35.9461 81.6867 37.5328C82.1534 39.1194 82.4534 40.2661 82.5867 40.9728C82.6934 40.6128 82.7801 40.2794 82.8467 39.9728L82.9667 39.4928C83.3934 37.6261 83.8201 35.9394 84.2467 34.4328C84.5001 33.5128 84.7467 32.7928 84.9867 32.2728C85.2267 31.7128 85.4467 31.4328 85.6467 31.4328C85.8334 31.4328 86.0001 31.4861 86.1467 31.5928C86.3067 31.6861 86.3867 31.8128 86.3867 31.9728C86.3867 32.9328 86.4267 34.3728 86.5067 36.2928C86.6001 38.0794 86.6467 39.4661 86.6467 40.4528L86.6267 41.5128L86.5867 42.5728C86.5867 42.7328 86.6067 42.9728 86.6467 43.2928L86.7067 43.9928C86.7201 44.1128 86.7267 44.2061 86.7267 44.2728C86.7401 44.3394 86.7467 44.3794 86.7467 44.3928C86.8134 44.5661 86.8467 44.6928 86.8467 44.7728C86.8467 44.9994 86.7801 45.1994 86.6467 45.3728C86.5134 45.5461 86.3534 45.6328 86.1667 45.6328ZM94.6777 44.7928C94.291 44.7928 94.0977 44.6461 94.0977 44.3528C94.0977 44.2861 94.0977 44.1461 94.0977 43.9328C94.0977 43.7194 94.111 43.5194 94.1377 43.3328C94.191 42.8528 94.2177 42.2861 94.2177 41.6328C94.2177 41.0061 94.191 40.1594 94.1377 39.0928C94.111 38.4928 94.0843 37.5661 94.0577 36.3128L93.9977 33.8728L93.9777 33.0328L93.9577 31.5328C93.9577 31.3194 94.0777 31.1994 94.3177 31.1728C94.5577 31.1594 94.7577 31.2261 94.9177 31.3728C95.0777 31.5194 95.1577 31.7061 95.1577 31.9328C95.1577 32.2661 95.1443 32.7928 95.1177 33.5128L95.0577 38.6528C95.0443 38.8261 95.0377 39.0594 95.0377 39.3528C95.051 39.6461 95.0577 39.9328 95.0577 40.2128V41.4128V42.1328C95.031 42.9728 95.0643 43.6728 95.1577 44.2328C95.1843 44.4194 95.151 44.5594 95.0577 44.6528C94.9777 44.7461 94.851 44.7928 94.6777 44.7928ZM89.9777 44.7928C89.791 44.7928 89.6243 44.7661 89.4777 44.7128C89.331 44.6594 89.2643 44.5261 89.2777 44.3128C89.3043 44.0061 89.3243 43.6261 89.3377 43.1728C89.351 42.7194 89.3577 42.4061 89.3577 42.2328C89.3577 41.4728 89.3777 40.6728 89.4177 39.8328C89.4443 39.5128 89.4577 39.0061 89.4577 38.3128C89.4577 37.9261 89.451 37.4661 89.4377 36.9328C89.4243 36.3994 89.411 35.9994 89.3977 35.7328C89.3843 35.5061 89.371 35.2394 89.3577 34.9328C89.3443 34.6261 89.3377 34.2861 89.3377 33.9128C89.311 33.4594 89.2977 33.1061 89.2977 32.8528L89.2777 32.3328C89.2777 32.2661 89.2777 32.1328 89.2777 31.9328C89.2777 31.7194 89.311 31.5528 89.3777 31.4328C89.4577 31.3128 89.591 31.2528 89.7777 31.2528C89.951 31.2528 90.0977 31.3261 90.2177 31.4728C90.3377 31.6061 90.3977 31.7661 90.3977 31.9528C90.3977 32.0994 90.411 32.3461 90.4377 32.6928C90.4643 33.3061 90.4777 33.7928 90.4777 34.1528C90.4777 34.5928 90.4443 35.0261 90.3777 35.4528C90.351 35.5328 90.3377 35.6661 90.3377 35.8528C90.3377 36.0128 90.351 36.2394 90.3777 36.5328C90.4843 36.5728 90.711 36.6594 91.0577 36.7928C91.4043 36.9128 91.7043 37.0594 91.9577 37.2328C92.211 37.3928 92.411 37.5794 92.5577 37.7928C93.011 38.5261 93.2377 39.1594 93.2377 39.6928C93.2377 40.5194 93.1777 41.4394 93.0577 42.4528C92.991 43.0528 92.7977 43.4994 92.4777 43.7928C92.1577 44.0861 91.691 44.3394 91.0777 44.5528C90.9177 44.6061 90.7243 44.6528 90.4977 44.6928C90.271 44.7328 90.0977 44.7661 89.9777 44.7928ZM90.3777 43.7128C90.5377 43.7394 90.6577 43.7528 90.7377 43.7528C91.0043 43.7528 91.2243 43.6594 91.3977 43.4728C91.8643 43.0194 92.0977 42.4794 92.0977 41.8528C92.1243 41.2394 92.1377 40.6861 92.1377 40.1928C92.1377 39.3128 92.071 38.7461 91.9377 38.4928C91.8443 38.1994 91.6577 37.9528 91.3777 37.7528C91.0977 37.5528 90.7777 37.4128 90.4177 37.3328C90.3243 38.2794 90.2777 39.3394 90.2777 40.5128C90.2777 41.5128 90.311 42.5794 90.3777 43.7128ZM98.4798 44.8528C98.3065 44.8528 98.1465 44.7928 97.9998 44.6728C97.8665 44.5528 97.7932 44.4061 97.7798 44.2328V43.7128V43.3128C97.7665 43.1928 97.7598 43.0528 97.7598 42.8928C97.7598 42.6128 97.7398 42.1861 97.6998 41.6128L97.6598 40.3328C97.6598 39.6794 97.6798 38.7061 97.7198 37.4128C97.7732 36.2528 97.7998 35.2794 97.7998 34.4928C97.7998 34.3061 97.7798 34.0261 97.7398 33.6528C97.6998 33.2661 97.6798 32.9861 97.6798 32.8128C97.6798 31.8661 97.9598 31.3928 98.5198 31.3928C98.9598 31.3928 99.4665 31.4794 100.04 31.6528C100.627 31.8261 100.92 32.0328 100.92 32.2728C100.92 32.4061 100.86 32.5328 100.74 32.6528C100.633 32.7594 100.5 32.8461 100.34 32.9128C99.7798 32.7128 99.2732 32.5794 98.8198 32.5128C98.8332 32.7128 98.8398 32.9994 98.8398 33.3728C98.8398 33.9061 98.8332 34.3861 98.8198 34.8128C98.7798 35.4528 98.7598 35.9328 98.7598 36.2528L98.8198 36.5728L99.1398 36.5528C99.2465 36.5394 99.3798 36.5328 99.5398 36.5328C100.18 36.5328 100.5 36.7194 100.5 37.0928C100.5 37.2394 100.44 37.3661 100.32 37.4728C100.2 37.5661 100.047 37.6128 99.8598 37.6128C99.6198 37.6128 99.4332 37.5994 99.2998 37.5728H98.7998C98.8265 37.9194 98.8398 38.4261 98.8398 39.0928C98.8398 39.7594 98.8332 40.3594 98.8198 40.8928C98.7798 41.7061 98.7598 42.3128 98.7598 42.7128C98.7598 43.4594 98.7732 43.8328 98.7998 43.8328L99.4598 43.8128C99.6865 43.7994 99.9598 43.7928 100.28 43.7928C100.787 43.7928 101.04 43.9528 101.04 44.2728C101.04 44.4594 100.953 44.5994 100.78 44.6928C100.62 44.7994 100.42 44.8528 100.18 44.8528H98.4798ZM43.393 66.5728C43.2196 66.5994 43.073 66.5594 42.953 66.4528C42.833 66.3328 42.773 66.1728 42.773 65.9728C42.733 65.3328 42.713 64.6994 42.713 64.0728C42.713 63.2194 42.733 62.3728 42.773 61.5328C42.7996 60.6794 42.813 60.0528 42.813 59.6528C42.6663 58.7061 42.5796 57.1794 42.553 55.0728C42.553 54.5794 42.5463 54.1794 42.533 53.8728C41.853 53.8728 41.3596 53.8594 41.053 53.8328H40.933C40.733 53.8328 40.6263 53.9394 40.613 54.1528L40.593 55.5928C40.593 56.2861 40.613 56.7061 40.653 56.8528C40.6796 57.0128 40.693 57.1194 40.693 57.1728C40.693 57.2794 40.6796 57.4394 40.653 57.6528C40.6263 57.8661 40.613 58.0261 40.613 58.1328C40.613 58.3328 40.6463 58.5061 40.713 58.6528C40.7663 58.7728 40.7863 58.9394 40.773 59.1528C40.773 59.3661 40.773 59.5261 40.773 59.6328C40.7863 60.0461 40.7796 60.6528 40.753 61.4528C40.7263 62.0928 40.713 62.5661 40.713 62.8728C40.713 63.2594 40.7263 63.6994 40.753 64.1928C40.7796 64.6728 40.7996 65.0128 40.813 65.2128L40.853 65.7728C40.8663 65.9861 40.8196 66.1594 40.713 66.2928C40.6196 66.4128 40.4796 66.4728 40.293 66.4728C40.2263 66.4728 40.1396 66.4594 40.033 66.4328C39.913 66.3928 39.833 66.3261 39.793 66.2328C39.753 66.1394 39.7263 66.0194 39.713 65.8728L39.653 64.1928L39.673 61.7728C39.6463 60.3328 39.633 59.2594 39.633 58.5528L39.613 56.9328C39.5996 56.1728 39.5663 55.3661 39.513 54.5128L39.473 53.6928V53.5728C39.473 53.4394 39.4996 53.3461 39.553 53.2928C39.6063 53.2261 39.7063 53.1728 39.853 53.1328C40.1196 53.0661 40.3596 53.0328 40.573 53.0328C40.693 53.0328 40.7796 53.0394 40.833 53.0528C40.9396 53.0528 41.0996 53.0661 41.313 53.0928C41.6063 53.1194 41.8396 53.1328 42.013 53.1328C42.2663 53.1328 42.4996 53.1061 42.713 53.0528C42.8596 53.0128 43.0463 53.0461 43.273 53.1528C43.4996 53.2461 43.6263 53.3861 43.653 53.5728C43.6796 53.7594 43.693 53.9061 43.693 54.0128C43.693 54.1194 43.6863 54.1994 43.673 54.2528C43.6196 54.4128 43.593 54.6061 43.593 54.8328C43.593 54.9528 43.5996 55.0861 43.613 55.2328C43.6263 55.3794 43.633 55.5328 43.633 55.6928C43.633 55.8261 43.6263 55.9328 43.613 56.0128C43.5996 56.1328 43.593 56.3261 43.593 56.5928C43.593 57.0328 43.633 57.6528 43.713 58.4528L43.773 58.9928C43.7863 59.1128 43.793 59.2928 43.793 59.5328C43.793 59.8128 43.7863 60.0194 43.773 60.1528C43.773 60.2594 43.7663 60.3928 43.753 60.5528C43.753 60.6994 43.7596 60.8794 43.773 61.0928C43.7596 61.3994 43.7663 61.8594 43.793 62.4728L43.813 62.9128L43.933 66.0528C43.933 66.1994 43.893 66.3194 43.813 66.4128C43.7463 66.4928 43.6063 66.5461 43.393 66.5728ZM48.6694 66.9728C48.3227 66.9728 48.0027 66.8594 47.7094 66.6328C47.416 66.4194 47.176 66.1261 46.9894 65.7528C46.6027 64.9394 46.3627 64.0528 46.2694 63.0928C46.1494 62.1861 46.0894 61.3128 46.0894 60.4728C46.0894 60.3128 46.096 60.1794 46.1094 60.0728V59.7128C46.1094 59.6461 46.1027 59.6128 46.0894 59.6128V59.2528L46.1094 57.8528C46.1227 57.4261 46.176 56.7461 46.2694 55.8128C46.336 55.1728 46.4894 54.5528 46.7294 53.9528C46.8227 53.6861 46.9427 53.4861 47.0894 53.3528C47.236 53.2061 47.4027 53.1328 47.5894 53.1328C48.1227 53.1328 48.6027 53.2328 49.0294 53.4328C49.456 53.6194 49.816 53.8861 50.1094 54.2328C50.376 54.5661 50.6027 54.9794 50.7894 55.4728C50.976 55.9528 51.1094 56.4661 51.1894 57.0128C51.2694 57.5728 51.3094 58.1661 51.3094 58.7928V58.9528C51.3094 59.3661 51.316 59.7394 51.3294 60.0728L51.3494 61.2128C51.3494 65.0528 50.456 66.9728 48.6694 66.9728ZM48.5894 66.1328C48.8294 66.1328 49.0494 66.0394 49.2494 65.8528C49.4494 65.6528 49.6027 65.3861 49.7094 65.0528C49.9627 64.3728 50.116 63.6394 50.1694 62.8528C50.236 62.1728 50.2694 61.5861 50.2694 61.0928C50.2694 60.4928 50.2227 59.7061 50.1294 58.7328C50.0494 57.7061 50.0094 56.9394 50.0094 56.4328V56.0728C49.9827 55.5661 49.8094 55.1261 49.4894 54.7528C49.1827 54.3794 48.8027 54.1928 48.3494 54.1928C47.896 54.1928 47.596 54.4528 47.4494 54.9728C47.316 55.3861 47.2494 55.9194 47.2494 56.5728C47.2494 56.8261 47.256 57.0394 47.2694 57.2128V57.7528L47.2294 58.6728C47.2027 58.9528 47.1894 59.2594 47.1894 59.5928C47.1894 60.3128 47.2094 61.0261 47.2494 61.7328C47.3027 62.7328 47.436 63.7061 47.6494 64.6528C47.8627 65.6394 48.176 66.1328 48.5894 66.1328ZM57.4164 66.5728C57.2431 66.5994 57.0964 66.5594 56.9764 66.4528C56.8564 66.3328 56.7964 66.1728 56.7964 65.9728C56.7564 65.3328 56.7364 64.6994 56.7364 64.0728C56.7364 63.2194 56.7564 62.3728 56.7964 61.5328C56.8231 60.6794 56.8364 60.0528 56.8364 59.6528C56.6897 58.7061 56.6031 57.1794 56.5764 55.0728C56.5764 54.5794 56.5697 54.1794 56.5564 53.8728C55.8764 53.8728 55.3831 53.8594 55.0764 53.8328H54.9564C54.7564 53.8328 54.6497 53.9394 54.6364 54.1528L54.6164 55.5928C54.6164 56.2861 54.6364 56.7061 54.6764 56.8528C54.7031 57.0128 54.7164 57.1194 54.7164 57.1728C54.7164 57.2794 54.7031 57.4394 54.6764 57.6528C54.6497 57.8661 54.6364 58.0261 54.6364 58.1328C54.6364 58.3328 54.6697 58.5061 54.7364 58.6528C54.7897 58.7728 54.8097 58.9394 54.7964 59.1528C54.7964 59.3661 54.7964 59.5261 54.7964 59.6328C54.8097 60.0461 54.8031 60.6528 54.7764 61.4528C54.7497 62.0928 54.7364 62.5661 54.7364 62.8728C54.7364 63.2594 54.7497 63.6994 54.7764 64.1928C54.8031 64.6728 54.8231 65.0128 54.8364 65.2128L54.8764 65.7728C54.8897 65.9861 54.8431 66.1594 54.7364 66.2928C54.6431 66.4128 54.5031 66.4728 54.3164 66.4728C54.2497 66.4728 54.1631 66.4594 54.0564 66.4328C53.9364 66.3928 53.8564 66.3261 53.8164 66.2328C53.7764 66.1394 53.7497 66.0194 53.7364 65.8728L53.6764 64.1928L53.6964 61.7728C53.6697 60.3328 53.6564 59.2594 53.6564 58.5528L53.6364 56.9328C53.6231 56.1728 53.5897 55.3661 53.5364 54.5128L53.4964 53.6928V53.5728C53.4964 53.4394 53.5231 53.3461 53.5764 53.2928C53.6297 53.2261 53.7297 53.1728 53.8764 53.1328C54.1431 53.0661 54.3831 53.0328 54.5964 53.0328C54.7164 53.0328 54.8031 53.0394 54.8564 53.0528C54.9631 53.0528 55.1231 53.0661 55.3364 53.0928C55.6297 53.1194 55.8631 53.1328 56.0364 53.1328C56.2897 53.1328 56.5231 53.1061 56.7364 53.0528C56.8831 53.0128 57.0697 53.0461 57.2964 53.1528C57.5231 53.2461 57.6497 53.3861 57.6764 53.5728C57.7031 53.7594 57.7164 53.9061 57.7164 54.0128C57.7164 54.1194 57.7097 54.1994 57.6964 54.2528C57.6431 54.4128 57.6164 54.6061 57.6164 54.8328C57.6164 54.9528 57.6231 55.0861 57.6364 55.2328C57.6497 55.3794 57.6564 55.5328 57.6564 55.6928C57.6564 55.8261 57.6497 55.9328 57.6364 56.0128C57.6231 56.1328 57.6164 56.3261 57.6164 56.5928C57.6164 57.0328 57.6564 57.6528 57.7364 58.4528L57.7964 58.9928C57.8097 59.1128 57.8164 59.2928 57.8164 59.5328C57.8164 59.8128 57.8097 60.0194 57.7964 60.1528C57.7964 60.2594 57.7897 60.3928 57.7764 60.5528C57.7764 60.6994 57.7831 60.8794 57.7964 61.0928C57.7831 61.3994 57.7897 61.8594 57.8164 62.4728L57.8364 62.9128L57.9564 66.0528C57.9564 66.1994 57.9164 66.3194 57.8364 66.4128C57.7697 66.4928 57.6297 66.5461 57.4164 66.5728ZM61.2728 66.7928C61.1528 66.7928 61.0395 66.7328 60.9328 66.6128C60.8395 66.4928 60.8195 66.3728 60.8728 66.2528C60.9128 66.1328 61.0061 65.9328 61.1528 65.6528C61.5661 64.9728 61.8395 64.0528 61.9728 62.8928C61.9861 62.8128 61.9328 62.7128 61.8128 62.5928C61.7061 62.4594 61.6395 62.3594 61.6128 62.2928L61.3328 61.8928C61.0528 61.5061 60.8195 61.1528 60.6328 60.8328C60.4595 60.4994 60.2928 60.0594 60.1328 59.5128C60.0661 59.2861 60.0195 59.0461 59.9928 58.7928C59.9661 58.5261 59.9528 58.3594 59.9528 58.2928L59.9128 57.8328C59.8995 57.6061 59.8795 57.4061 59.8528 57.2328C59.8261 57.0461 59.8061 56.8928 59.7928 56.7728C59.6728 55.9994 59.6128 55.3661 59.6128 54.8728C59.6128 54.6861 59.6195 54.5461 59.6328 54.4528C59.6461 54.2528 59.6461 54.0728 59.6328 53.9128C59.6328 53.7528 59.6328 53.6194 59.6328 53.5128C59.6461 53.2461 59.7395 53.1128 59.9128 53.1128C59.9528 53.1128 60.0261 53.1261 60.1328 53.1528C60.6261 53.2994 60.8728 53.5794 60.8728 53.9928C60.8728 54.0994 60.8595 54.2994 60.8328 54.5928L60.7728 55.4128C60.7728 55.7861 60.7795 56.0661 60.7928 56.2528C60.8995 57.3594 61.0195 58.4528 61.1528 59.5328C61.1928 59.8261 61.2861 60.0994 61.4328 60.3528C61.5928 60.5928 61.7528 60.7928 61.9128 60.9528C62.0861 61.0994 62.1861 61.1728 62.2128 61.1728C62.2928 60.9328 62.3395 60.7728 62.3528 60.6928C62.4328 59.5061 62.4795 58.6328 62.4928 58.0728C62.5061 57.6061 62.5128 56.8328 62.5128 55.7528V53.4128C62.5261 53.3061 62.5528 53.2328 62.5928 53.1928C62.6461 53.1394 62.7328 53.1128 62.8528 53.1128C63.1195 53.1128 63.3395 53.2128 63.5128 53.4128C63.6861 53.5994 63.7528 53.8261 63.7128 54.0928C63.6728 54.4128 63.6528 54.8394 63.6528 55.3728C63.6528 55.6928 63.6595 55.9128 63.6728 56.0328C63.6861 56.1528 63.6928 56.3194 63.6928 56.5328C63.6928 56.8661 63.6661 57.3394 63.6128 57.9528C63.6128 58.0994 63.5995 58.3328 63.5728 58.6528C63.5461 59.0528 63.4795 59.6661 63.3728 60.4928L63.2928 61.1528C63.2128 61.9528 63.0528 62.9394 62.8128 64.1128C62.7328 64.4861 62.6128 64.8794 62.4528 65.2928C62.2928 65.6928 62.1128 66.0661 61.9128 66.4128C61.8728 66.5061 61.7861 66.5928 61.6528 66.6728C61.5195 66.7528 61.3928 66.7928 61.2728 66.7928ZM65.1933 67.0328C65.0866 67.0328 64.9933 66.9994 64.9133 66.9328C64.8333 66.8661 64.7733 66.7794 64.7333 66.6728C64.7199 66.6461 64.7133 66.6061 64.7133 66.5528C64.7133 66.3794 64.8066 66.2394 64.9933 66.1328C65.3666 65.9728 65.6466 65.7328 65.8333 65.4128C66.0333 65.0794 66.1733 64.6928 66.2533 64.2528C66.4933 62.9461 66.6133 61.5261 66.6133 59.9928C66.6133 59.4194 66.6066 58.9861 66.5933 58.6928C66.4999 56.4394 66.4199 54.8528 66.3533 53.9328V53.8528C66.3533 53.7328 66.3799 53.6394 66.4333 53.5728C66.4866 53.5061 66.5799 53.4594 66.7133 53.4328C67.5666 53.2728 68.2466 53.1928 68.7533 53.1928C69.0199 53.1928 69.2199 53.1994 69.3533 53.2128C69.6599 53.2261 69.8933 53.3194 70.0533 53.4928C70.2133 53.6661 70.2933 53.9061 70.2933 54.2128L70.3133 55.2728C70.3399 56.2061 70.3533 56.9061 70.3533 57.3728L70.3333 58.3328C70.3333 59.7461 70.3866 61.5328 70.4933 63.6928C70.5466 64.6661 70.5933 65.4194 70.6333 65.9528C70.6466 66.1928 70.6066 66.3661 70.5133 66.4728C70.4333 66.5794 70.2933 66.6461 70.0933 66.6728C69.6533 66.6994 69.4199 66.4928 69.3933 66.0528C69.4333 65.6661 69.4533 65.2794 69.4533 64.8928C69.4533 64.5061 69.4466 64.1861 69.4333 63.9328L69.4133 61.6528C69.4133 60.5461 69.3933 59.4128 69.3533 58.2528C69.3266 57.2928 69.2866 56.3861 69.2333 55.5328C69.1799 54.6794 69.1266 54.1594 69.0733 53.9728C68.9933 53.9861 68.8266 54.0194 68.5733 54.0728C68.3199 54.1261 67.9733 54.1728 67.5333 54.2128C67.4933 54.8261 67.4733 55.2661 67.4733 55.5328C67.4733 55.8394 67.4933 56.1061 67.5333 56.3328C67.5599 56.6928 67.5866 57.2194 67.6133 57.9128V58.3528C67.6133 60.5128 67.5933 61.9728 67.5533 62.7328C67.5266 62.9461 67.5133 63.1128 67.5133 63.2328C67.4599 63.7928 67.4066 64.2194 67.3533 64.5128C67.2199 65.2194 66.8133 65.9394 66.1333 66.6728C65.9466 66.8861 65.6466 67.0061 65.2333 67.0328H65.1933ZM72.7453 66.7728C72.6253 66.7461 72.5253 66.7061 72.4453 66.6528C72.3786 66.6128 72.3386 66.5328 72.3253 66.4128C72.3386 66.3328 72.372 66.2461 72.4253 66.1528C72.4786 66.0594 72.532 66.0061 72.5853 65.9928C72.7053 65.9794 72.792 65.9394 72.8453 65.8728C72.8986 65.8061 72.9453 65.7128 72.9853 65.5928C72.9986 65.5128 73.0386 65.3128 73.1053 64.9928C73.172 64.6728 73.212 64.3661 73.2253 64.0728L73.2453 63.7328C73.2453 63.5728 73.232 63.3461 73.2053 63.0528C73.1786 62.7594 73.1653 62.5461 73.1653 62.4128C73.1653 61.6394 73.452 60.8794 74.0253 60.1328C73.252 59.4261 72.8653 58.6528 72.8653 57.8128V57.1728C72.8653 56.4794 72.9186 55.9594 73.0253 55.6128C73.1186 55.2528 73.292 54.8594 73.5453 54.4328C73.6386 54.2328 73.7653 54.0794 73.9253 53.9728C74.0853 53.8528 74.2586 53.7461 74.4453 53.6528C74.6453 53.5594 74.7986 53.4861 74.9053 53.4328C74.9853 53.3928 75.0986 53.3528 75.2453 53.3128C75.4053 53.2728 75.532 53.1994 75.6253 53.0928C75.7986 53.0261 75.972 52.9928 76.1453 52.9928C76.3986 52.9928 76.6186 53.0528 76.8053 53.1728C77.0053 53.2928 77.1053 53.4328 77.1053 53.5928C77.1053 54.1661 77.092 55.0661 77.0653 56.2928L77.0053 59.1328L76.9853 60.2528L77.0053 61.3728C77.032 61.9861 77.0853 62.8528 77.1653 63.9728L77.2453 65.2728C77.2586 65.3928 77.2786 65.5261 77.3053 65.6728C77.332 65.8194 77.3453 65.9394 77.3453 66.0328C77.3453 66.3928 77.1586 66.5728 76.7853 66.5728C76.6253 66.5728 76.4786 66.5328 76.3453 66.4528C76.2253 66.3728 76.1586 66.2594 76.1453 66.1128C76.1053 65.8061 76.0853 65.4928 76.0853 65.1728L76.0253 60.1928C75.5586 60.2728 75.212 60.3594 74.9853 60.4528C74.7586 60.5461 74.592 60.6728 74.4853 60.8328C74.392 60.9794 74.3186 61.1928 74.2653 61.4728C74.2253 61.6461 74.2053 61.9061 74.2053 62.2528C74.2053 62.4261 74.2186 62.6728 74.2453 62.9928L74.2653 63.7528C74.2653 64.3261 74.232 64.8128 74.1653 65.2128C74.0986 65.5994 73.952 65.9661 73.7253 66.3128C73.6186 66.4861 73.472 66.6128 73.2853 66.6928C73.0986 66.7728 72.9186 66.7994 72.7453 66.7728ZM74.7253 59.5928C74.7786 59.6061 74.8653 59.6128 74.9853 59.6128C75.2653 59.6128 75.6253 59.5528 76.0653 59.4328C76.0653 59.0861 76.052 58.5528 76.0253 57.8328C75.9853 57.1528 75.9653 56.4794 75.9653 55.8128C75.9653 55.2528 75.9853 54.6861 76.0253 54.1128C75.6653 54.1661 75.3453 54.2594 75.0653 54.3928C74.7853 54.5261 74.5986 54.6728 74.5053 54.8328C74.1586 55.4861 73.9786 56.1261 73.9653 56.7528C73.9653 57.4594 73.9786 57.9794 74.0053 58.3128C74.0186 58.6061 74.0853 58.8794 74.2053 59.1328C74.3253 59.3861 74.4986 59.5394 74.7253 59.5928ZM80.1873 66.7328C80.014 66.0261 79.9273 65.0461 79.9273 63.7928L79.9673 62.0128C79.994 61.4794 80.0073 60.8861 80.0073 60.2328C79.9273 60.0461 79.8873 59.8794 79.8873 59.7328V59.6728C80.0207 59.4194 80.0873 58.8461 80.0873 57.9528L80.1073 57.0328C80.1207 56.7394 80.1273 56.4128 80.1273 56.0528C80.1273 55.2661 80.074 54.6461 79.9673 54.1928C80.0073 54.0061 80.074 53.8461 80.1673 53.7128C80.2607 53.5661 80.374 53.4928 80.5073 53.4928H81.3873C81.7607 53.4928 82.0873 53.5794 82.3673 53.7528C82.6473 53.9128 82.8607 54.1461 83.0073 54.4528C83.274 54.9994 83.4073 55.6461 83.4073 56.3928C83.4073 56.9261 83.4007 57.3461 83.3873 57.6528C83.3607 58.0394 83.294 58.3928 83.1873 58.7128C83.1473 58.8861 83.0873 59.0328 83.0073 59.1528C82.9407 59.2594 82.8407 59.3928 82.7073 59.5528C82.5207 59.7794 82.214 59.9928 81.7873 60.1928C81.614 60.2861 81.3873 60.3728 81.1073 60.4528V62.5928L81.1473 63.8728L81.1873 64.4928C81.2407 65.2394 81.2673 65.8728 81.2673 66.3928C81.2673 66.5528 81.2007 66.6861 81.0673 66.7928C80.934 66.9128 80.7807 66.9728 80.6073 66.9728L80.1873 66.7328ZM81.1273 59.6328C81.914 59.5128 82.3073 58.3861 82.3073 56.2528C82.3073 55.8661 82.2873 55.5661 82.2473 55.3528C82.2073 55.1928 82.154 55.0661 82.0873 54.9728C82.0207 54.8661 81.9207 54.7794 81.7873 54.7128C81.6407 54.6328 81.4807 54.5928 81.3073 54.5928C81.3073 54.5794 81.234 54.5728 81.0873 54.5728V55.7128C81.0873 56.4994 81.094 57.1994 81.1073 57.8128C81.1073 58.5061 81.114 58.9594 81.1273 59.1728V59.5928V59.6328ZM88.8923 66.5928C88.439 66.5928 88.2123 65.4928 88.2123 63.2928L88.2323 62.1528L88.2523 61.2328V61.1728V60.9728C88.2657 60.8661 88.2723 60.7394 88.2723 60.5928C88.2723 60.5661 88.2523 60.5328 88.2123 60.4928C88.1723 60.4528 88.1523 60.4194 88.1523 60.3928V60.3728C88.0857 60.3994 87.9657 60.4128 87.7923 60.4128C87.619 60.4128 87.4057 60.3861 87.1523 60.3328C87.0723 60.3194 86.859 60.2861 86.5123 60.2328V62.5328C86.5123 62.8794 86.5323 63.4261 86.5723 64.1728C86.6123 64.9061 86.6323 65.4528 86.6323 65.8128C86.6323 66.0128 86.579 66.1861 86.4723 66.3328C86.3657 66.4794 86.2257 66.5528 86.0523 66.5528C85.799 66.5528 85.619 66.3061 85.5123 65.8128C85.4057 65.3061 85.3523 64.6461 85.3523 63.8328L85.3923 62.2128C85.4057 61.7594 85.4123 61.2794 85.4123 60.7728V60.4328V60.1528C85.4123 59.9394 85.4057 59.7994 85.3923 59.7328V59.6328L85.4523 58.4728C85.4523 57.9661 85.4323 57.2128 85.3923 56.2128C85.3523 55.2128 85.3323 54.4594 85.3323 53.9528C85.3323 53.7928 85.3857 53.6528 85.4923 53.5328C85.599 53.4128 85.7323 53.3528 85.8923 53.3528C86.319 53.3528 86.5323 53.7528 86.5323 54.5528L86.4923 57.0328C86.4657 57.7794 86.4523 58.6128 86.4523 59.5328C86.6523 59.5994 87.0123 59.6328 87.5323 59.6328H88.2723C88.299 59.5528 88.3123 59.4728 88.3123 59.3928C88.3123 58.7528 88.2723 57.8061 88.1923 56.5528C88.099 55.3794 88.0523 54.4261 88.0523 53.6928C88.0523 53.5461 88.1057 53.4261 88.2123 53.3328C88.3323 53.2261 88.4723 53.1728 88.6323 53.1728C88.7257 53.1728 88.859 53.2061 89.0323 53.2728L89.2123 53.3528C89.2123 55.2461 89.279 57.7728 89.4123 60.9328L89.5923 65.9928C89.5923 66.1794 89.519 66.3261 89.3723 66.4328C89.239 66.5394 89.079 66.5928 88.8923 66.5928ZM97.3534 66.7928C96.9668 66.7928 96.7734 66.6461 96.7734 66.3528C96.7734 66.2861 96.7734 66.1461 96.7734 65.9328C96.7734 65.7194 96.7868 65.5194 96.8134 65.3328C96.8668 64.8528 96.8934 64.2861 96.8934 63.6328C96.8934 63.0061 96.8668 62.1594 96.8134 61.0928C96.7868 60.4928 96.7601 59.5661 96.7334 58.3128L96.6734 55.8728L96.6534 55.0328L96.6334 53.5328C96.6334 53.3194 96.7534 53.1994 96.9934 53.1728C97.2334 53.1594 97.4334 53.2261 97.5934 53.3728C97.7534 53.5194 97.8334 53.7061 97.8334 53.9328C97.8334 54.2661 97.8201 54.7928 97.7934 55.5128L97.7334 60.6528C97.7201 60.8261 97.7134 61.0594 97.7134 61.3528C97.7268 61.6461 97.7334 61.9328 97.7334 62.2128V63.4128V64.1328C97.7068 64.9728 97.7401 65.6728 97.8334 66.2328C97.8601 66.4194 97.8268 66.5594 97.7334 66.6528C97.6534 66.7461 97.5268 66.7928 97.3534 66.7928ZM92.6534 66.7928C92.4668 66.7928 92.3001 66.7661 92.1534 66.7128C92.0068 66.6594 91.9401 66.5261 91.9534 66.3128C91.9801 66.0061 92.0001 65.6261 92.0134 65.1728C92.0268 64.7194 92.0334 64.4061 92.0334 64.2328C92.0334 63.4728 92.0534 62.6728 92.0934 61.8328C92.1201 61.5128 92.1334 61.0061 92.1334 60.3128C92.1334 59.9261 92.1268 59.4661 92.1134 58.9328C92.1001 58.3994 92.0868 57.9994 92.0734 57.7328C92.0601 57.5061 92.0468 57.2394 92.0334 56.9328C92.0201 56.6261 92.0134 56.2861 92.0134 55.9128C91.9868 55.4594 91.9734 55.1061 91.9734 54.8528L91.9534 54.3328C91.9534 54.2661 91.9534 54.1328 91.9534 53.9328C91.9534 53.7194 91.9868 53.5528 92.0534 53.4328C92.1334 53.3128 92.2668 53.2528 92.4534 53.2528C92.6268 53.2528 92.7734 53.3261 92.8934 53.4728C93.0134 53.6061 93.0734 53.7661 93.0734 53.9528C93.0734 54.0994 93.0868 54.3461 93.1134 54.6928C93.1401 55.3061 93.1534 55.7928 93.1534 56.1528C93.1534 56.5928 93.1201 57.0261 93.0534 57.4528C93.0268 57.5328 93.0134 57.6661 93.0134 57.8528C93.0134 58.0128 93.0268 58.2394 93.0534 58.5328C93.1601 58.5728 93.3868 58.6594 93.7334 58.7928C94.0801 58.9128 94.3801 59.0594 94.6334 59.2328C94.8868 59.3928 95.0868 59.5794 95.2334 59.7928C95.6868 60.5261 95.9134 61.1594 95.9134 61.6928C95.9134 62.5194 95.8534 63.4394 95.7334 64.4528C95.6668 65.0528 95.4734 65.4994 95.1534 65.7928C94.8334 66.0861 94.3668 66.3394 93.7534 66.5528C93.5934 66.6061 93.4001 66.6528 93.1734 66.6928C92.9468 66.7328 92.7734 66.7661 92.6534 66.7928ZM93.0534 65.7128C93.2134 65.7394 93.3334 65.7528 93.4134 65.7528C93.6801 65.7528 93.9001 65.6594 94.0734 65.4728C94.5401 65.0194 94.7734 64.4794 94.7734 63.8528C94.8001 63.2394 94.8134 62.6861 94.8134 62.1928C94.8134 61.3128 94.7468 60.7461 94.6134 60.4928C94.5201 60.1994 94.3334 59.9528 94.0534 59.7528C93.7734 59.5528 93.4534 59.4128 93.0934 59.3328C93.0001 60.2794 92.9534 61.3394 92.9534 62.5128C92.9534 63.5128 92.9868 64.5794 93.0534 65.7128ZM101.156 66.8528C100.982 66.8528 100.822 66.7928 100.676 66.6728C100.542 66.5528 100.469 66.4061 100.456 66.2328V65.7128V65.3128C100.442 65.1928 100.436 65.0528 100.436 64.8928C100.436 64.6128 100.416 64.1861 100.376 63.6128L100.336 62.3328C100.336 61.6794 100.356 60.7061 100.396 59.4128C100.449 58.2528 100.476 57.2794 100.476 56.4928C100.476 56.3061 100.456 56.0261 100.416 55.6528C100.376 55.2661 100.356 54.9861 100.356 54.8128C100.356 53.8661 100.636 53.3928 101.196 53.3928C101.636 53.3928 102.142 53.4794 102.716 53.6528C103.302 53.8261 103.596 54.0328 103.596 54.2728C103.596 54.4061 103.536 54.5328 103.416 54.6528C103.309 54.7594 103.176 54.8461 103.016 54.9128C102.456 54.7128 101.949 54.5794 101.496 54.5128C101.509 54.7128 101.516 54.9994 101.516 55.3728C101.516 55.9061 101.509 56.3861 101.496 56.8128C101.456 57.4528 101.436 57.9328 101.436 58.2528L101.496 58.5728L101.816 58.5528C101.922 58.5394 102.056 58.5328 102.216 58.5328C102.856 58.5328 103.176 58.7194 103.176 59.0928C103.176 59.2394 103.116 59.3661 102.996 59.4728C102.876 59.5661 102.722 59.6128 102.536 59.6128C102.296 59.6128 102.109 59.5994 101.976 59.5728H101.476C101.502 59.9194 101.516 60.4261 101.516 61.0928C101.516 61.7594 101.509 62.3594 101.496 62.8928C101.456 63.7061 101.436 64.3128 101.436 64.7128C101.436 65.4594 101.449 65.8328 101.476 65.8328L102.136 65.8128C102.362 65.7994 102.636 65.7928 102.956 65.7928C103.462 65.7928 103.716 65.9528 103.716 66.2728C103.716 66.4594 103.629 66.5994 103.456 66.6928C103.296 66.7994 103.096 66.8528 102.856 66.8528H101.156ZM110.692 66.2728L110.672 65.4928C110.658 65.2661 110.652 65.0128 110.652 64.7328L110.672 64.0528C110.632 63.9061 110.532 62.4461 110.372 59.6728C110.212 56.8994 110.118 55.1194 110.092 54.3328C109.318 54.3061 108.825 54.2261 108.612 54.0928C108.465 53.9861 108.392 53.8661 108.392 53.7328C108.392 53.6261 108.458 53.5328 108.592 53.4528C108.738 53.3594 108.885 53.3128 109.032 53.3128C109.405 53.3128 109.858 53.3394 110.392 53.3928C110.898 53.4594 111.352 53.4928 111.752 53.4928H111.912H112.072C112.485 53.4928 112.692 53.6528 112.692 53.9728C112.692 54.1328 112.625 54.2661 112.492 54.3728C112.358 54.4661 112.205 54.5128 112.032 54.5128C111.912 54.5128 111.738 54.4928 111.512 54.4528L111.112 54.3728L111.092 54.4728L111.072 54.5728C111.072 55.7594 111.185 57.6528 111.412 60.2528C111.625 62.6928 111.732 64.5861 111.732 65.9328C111.732 66.0928 111.658 66.2328 111.512 66.3528C111.378 66.4728 111.225 66.5328 111.052 66.5328L110.692 66.2728ZM115.609 66.7928C115.489 66.7928 115.375 66.7328 115.269 66.6128C115.175 66.4928 115.155 66.3728 115.209 66.2528C115.249 66.1328 115.342 65.9328 115.489 65.6528C115.902 64.9728 116.175 64.0528 116.309 62.8928C116.322 62.8128 116.269 62.7128 116.149 62.5928C116.042 62.4594 115.975 62.3594 115.949 62.2928L115.669 61.8928C115.389 61.5061 115.155 61.1528 114.969 60.8328C114.795 60.4994 114.629 60.0594 114.469 59.5128C114.402 59.2861 114.355 59.0461 114.329 58.7928C114.302 58.5261 114.289 58.3594 114.289 58.2928L114.249 57.8328C114.235 57.6061 114.215 57.4061 114.189 57.2328C114.162 57.0461 114.142 56.8928 114.129 56.7728C114.009 55.9994 113.949 55.3661 113.949 54.8728C113.949 54.6861 113.955 54.5461 113.969 54.4528C113.982 54.2528 113.982 54.0728 113.969 53.9128C113.969 53.7528 113.969 53.6194 113.969 53.5128C113.982 53.2461 114.075 53.1128 114.249 53.1128C114.289 53.1128 114.362 53.1261 114.469 53.1528C114.962 53.2994 115.209 53.5794 115.209 53.9928C115.209 54.0994 115.195 54.2994 115.169 54.5928L115.109 55.4128C115.109 55.7861 115.115 56.0661 115.129 56.2528C115.235 57.3594 115.355 58.4528 115.489 59.5328C115.529 59.8261 115.622 60.0994 115.769 60.3528C115.929 60.5928 116.089 60.7928 116.249 60.9528C116.422 61.0994 116.522 61.1728 116.549 61.1728C116.629 60.9328 116.675 60.7728 116.689 60.6928C116.769 59.5061 116.815 58.6328 116.829 58.0728C116.842 57.6061 116.849 56.8328 116.849 55.7528V53.4128C116.862 53.3061 116.889 53.2328 116.929 53.1928C116.982 53.1394 117.069 53.1128 117.189 53.1128C117.455 53.1128 117.675 53.2128 117.849 53.4128C118.022 53.5994 118.089 53.8261 118.049 54.0928C118.009 54.4128 117.989 54.8394 117.989 55.3728C117.989 55.6928 117.995 55.9128 118.009 56.0328C118.022 56.1528 118.029 56.3194 118.029 56.5328C118.029 56.8661 118.002 57.3394 117.949 57.9528C117.949 58.0994 117.935 58.3328 117.909 58.6528C117.882 59.0528 117.815 59.6661 117.709 60.4928L117.629 61.1528C117.549 61.9528 117.389 62.9394 117.149 64.1128C117.069 64.4861 116.949 64.8794 116.789 65.2928C116.629 65.6928 116.449 66.0661 116.249 66.4128C116.209 66.5061 116.122 66.5928 115.989 66.6728C115.855 66.7528 115.729 66.7928 115.609 66.7928ZM120.5 66.7328C120.327 66.0261 120.24 65.0461 120.24 63.7928L120.28 62.0128C120.307 61.4794 120.32 60.8861 120.32 60.2328C120.24 60.0461 120.2 59.8794 120.2 59.7328V59.6728C120.333 59.4194 120.4 58.8461 120.4 57.9528L120.42 57.0328C120.433 56.7394 120.44 56.4128 120.44 56.0528C120.44 55.2661 120.387 54.6461 120.28 54.1928C120.32 54.0061 120.387 53.8461 120.48 53.7128C120.573 53.5661 120.687 53.4928 120.82 53.4928H121.7C122.073 53.4928 122.4 53.5794 122.68 53.7528C122.96 53.9128 123.173 54.1461 123.32 54.4528C123.587 54.9994 123.72 55.6461 123.72 56.3928C123.72 56.9261 123.713 57.3461 123.7 57.6528C123.673 58.0394 123.607 58.3928 123.5 58.7128C123.46 58.8861 123.4 59.0328 123.32 59.1528C123.253 59.2594 123.153 59.3928 123.02 59.5528C122.833 59.7794 122.527 59.9928 122.1 60.1928C121.927 60.2861 121.7 60.3728 121.42 60.4528V62.5928L121.46 63.8728L121.5 64.4928C121.553 65.2394 121.58 65.8728 121.58 66.3928C121.58 66.5528 121.513 66.6861 121.38 66.7928C121.247 66.9128 121.093 66.9728 120.92 66.9728L120.5 66.7328ZM121.44 59.6328C122.227 59.5128 122.62 58.3861 122.62 56.2528C122.62 55.8661 122.6 55.5661 122.56 55.3528C122.52 55.1928 122.467 55.0661 122.4 54.9728C122.333 54.8661 122.233 54.7794 122.1 54.7128C121.953 54.6328 121.793 54.5928 121.62 54.5928C121.62 54.5794 121.547 54.5728 121.4 54.5728V55.7128C121.4 56.4994 121.407 57.1994 121.42 57.8128C121.42 58.5061 121.427 58.9594 121.44 59.1728V59.5928V59.6328ZM131.045 66.7928C130.658 66.7928 130.465 66.6461 130.465 66.3528C130.465 66.2861 130.465 66.1461 130.465 65.9328C130.465 65.7194 130.478 65.5194 130.505 65.3328C130.558 64.8528 130.585 64.2861 130.585 63.6328C130.585 63.0061 130.558 62.1594 130.505 61.0928C130.478 60.4928 130.452 59.5661 130.425 58.3128L130.365 55.8728L130.345 55.0328L130.325 53.5328C130.325 53.3194 130.445 53.1994 130.685 53.1728C130.925 53.1594 131.125 53.2261 131.285 53.3728C131.445 53.5194 131.525 53.7061 131.525 53.9328C131.525 54.2661 131.512 54.7928 131.485 55.5128L131.425 60.6528C131.412 60.8261 131.405 61.0594 131.405 61.3528C131.418 61.6461 131.425 61.9328 131.425 62.2128V63.4128V64.1328C131.398 64.9728 131.432 65.6728 131.525 66.2328C131.552 66.4194 131.518 66.5594 131.425 66.6528C131.345 66.7461 131.218 66.7928 131.045 66.7928ZM126.345 66.7928C126.158 66.7928 125.992 66.7661 125.845 66.7128C125.698 66.6594 125.632 66.5261 125.645 66.3128C125.672 66.0061 125.692 65.6261 125.705 65.1728C125.718 64.7194 125.725 64.4061 125.725 64.2328C125.725 63.4728 125.745 62.6728 125.785 61.8328C125.812 61.5128 125.825 61.0061 125.825 60.3128C125.825 59.9261 125.818 59.4661 125.805 58.9328C125.792 58.3994 125.778 57.9994 125.765 57.7328C125.752 57.5061 125.738 57.2394 125.725 56.9328C125.712 56.6261 125.705 56.2861 125.705 55.9128C125.678 55.4594 125.665 55.1061 125.665 54.8528L125.645 54.3328C125.645 54.2661 125.645 54.1328 125.645 53.9328C125.645 53.7194 125.678 53.5528 125.745 53.4328C125.825 53.3128 125.958 53.2528 126.145 53.2528C126.318 53.2528 126.465 53.3261 126.585 53.4728C126.705 53.6061 126.765 53.7661 126.765 53.9528C126.765 54.0994 126.778 54.3461 126.805 54.6928C126.832 55.3061 126.845 55.7928 126.845 56.1528C126.845 56.5928 126.812 57.0261 126.745 57.4528C126.718 57.5328 126.705 57.6661 126.705 57.8528C126.705 58.0128 126.718 58.2394 126.745 58.5328C126.852 58.5728 127.078 58.6594 127.425 58.7928C127.772 58.9128 128.072 59.0594 128.325 59.2328C128.578 59.3928 128.778 59.5794 128.925 59.7928C129.378 60.5261 129.605 61.1594 129.605 61.6928C129.605 62.5194 129.545 63.4394 129.425 64.4528C129.358 65.0528 129.165 65.4994 128.845 65.7928C128.525 66.0861 128.058 66.3394 127.445 66.5528C127.285 66.6061 127.092 66.6528 126.865 66.6928C126.638 66.7328 126.465 66.7661 126.345 66.7928ZM126.745 65.7128C126.905 65.7394 127.025 65.7528 127.105 65.7528C127.372 65.7528 127.592 65.6594 127.765 65.4728C128.232 65.0194 128.465 64.4794 128.465 63.8528C128.492 63.2394 128.505 62.6861 128.505 62.1928C128.505 61.3128 128.438 60.7461 128.305 60.4928C128.212 60.1994 128.025 59.9528 127.745 59.7528C127.465 59.5528 127.145 59.4128 126.785 59.3328C126.692 60.2794 126.645 61.3394 126.645 62.5128C126.645 63.5128 126.678 64.5794 126.745 65.7128Z" fill="#8A5B8F"/>
<path d="M418 286.593L417.001 286.629L418 286.593ZM266.045 462.297C265.881 462.824 266.176 463.384 266.704 463.548L275.3 466.214C275.827 466.378 276.388 466.083 276.551 465.555C276.715 465.028 276.42 464.467 275.892 464.304L268.251 461.934L270.621 454.293C270.785 453.766 270.49 453.205 269.962 453.042C269.435 452.878 268.875 453.173 268.711 453.701L266.045 462.297ZM221.584 72.0022C222.503 72.4222 223.422 72.8403 224.343 73.2567L225.167 71.4344C224.249 71.0191 223.332 70.6021 222.416 70.1833L221.584 72.0022ZM229.878 75.735C231.725 76.5541 233.574 77.3674 235.426 78.1762L236.227 76.3434C234.378 75.5359 232.532 74.7241 230.689 73.9068L229.878 75.735ZM240.986 80.5899C242.84 81.3907 244.696 82.1882 246.552 82.9837L247.34 81.1455C245.485 80.3504 243.631 79.5537 241.779 78.7538L240.986 80.5899ZM252.122 85.3664C253.979 86.1599 255.836 86.9525 257.691 87.7458L258.477 85.9069C256.622 85.1134 254.764 84.3205 252.908 83.5272L252.122 85.3664ZM263.255 90.1301C265.111 90.9275 266.965 91.7267 268.815 92.5289L269.611 90.694C267.758 89.8907 265.902 89.0906 264.045 88.2925L263.255 90.1301ZM274.361 94.9489C276.209 95.7609 278.053 96.5772 279.891 97.3991L280.708 95.5732C278.865 94.7494 277.017 93.9313 275.165 93.1178L274.361 94.9489ZM285.406 99.8897C287.242 100.728 289.071 101.573 290.893 102.426L291.741 100.615C289.913 99.7588 288.078 98.911 286.237 98.0704L285.406 99.8897ZM296.353 105.019C298.172 105.896 299.982 106.782 301.783 107.679L302.674 105.888C300.865 104.987 299.047 104.098 297.222 103.218L296.353 105.019ZM307.17 110.41C308.962 111.335 310.743 112.272 312.514 113.223L313.46 111.462C311.68 110.505 309.888 109.562 308.088 108.633L307.17 110.41ZM317.809 116.13C319.566 117.115 321.311 118.116 323.043 119.133L324.056 117.409C322.312 116.384 320.556 115.377 318.787 114.385L317.809 116.13ZM328.212 122.245C329.926 123.302 331.625 124.378 333.31 125.473L334.4 123.797C332.702 122.693 330.989 121.608 329.262 120.543L328.212 122.245ZM338.322 128.823C339.979 129.962 341.62 131.122 343.244 132.304L344.421 130.687C342.782 129.494 341.127 128.324 339.455 127.175L338.322 128.823ZM348.064 135.921C349.653 137.149 351.222 138.402 352.773 139.679L354.044 138.135C352.478 136.845 350.892 135.58 349.288 134.339L348.064 135.921ZM357.361 143.584C358.865 144.908 360.349 146.257 361.812 147.634L363.183 146.178C361.703 144.785 360.203 143.421 358.682 142.083L357.361 143.584ZM366.122 151.836C367.532 153.26 368.919 154.712 370.284 156.194L371.756 154.84C370.374 153.339 368.969 151.87 367.543 150.429L366.122 151.836ZM374.272 160.688C375.57 162.206 376.845 163.754 378.095 165.334L379.663 164.093C378.397 162.493 377.106 160.925 375.793 159.389L374.272 160.688ZM381.747 170.132C382.921 171.737 384.071 173.373 385.196 175.041L386.854 173.922C385.715 172.233 384.55 170.576 383.361 168.951L381.747 170.132ZM388.468 180.096C389.519 181.789 390.546 183.515 391.548 185.274L393.286 184.284C392.272 182.503 391.232 180.756 390.168 179.041L388.468 180.096ZM394.421 190.54C395.345 192.31 396.244 194.112 397.119 195.948L398.924 195.088C398.039 193.23 397.129 191.406 396.194 189.615L394.421 190.54ZM399.602 201.407C400.393 203.23 401.161 205.084 401.905 206.972L403.766 206.238C403.014 204.33 402.237 202.454 401.437 200.61L399.602 201.407ZM404.023 212.621C404.687 214.485 405.329 216.379 405.947 218.304L407.852 217.692C407.227 215.747 406.579 213.833 405.907 211.95L404.023 212.621ZM407.714 224.108C408.258 226.001 408.782 227.924 409.283 229.876L411.22 229.379C410.714 227.408 410.186 225.467 409.635 223.555L407.714 224.108ZM410.714 235.795C411.15 237.711 411.564 239.655 411.958 241.627L413.92 241.235C413.522 239.246 413.104 237.285 412.665 235.352L410.714 235.795ZM413.076 247.618C413.412 249.554 413.729 251.516 414.025 253.505L416.004 253.209C415.704 251.205 415.385 249.228 415.047 247.276L413.076 247.618ZM414.857 259.551C415.102 261.5 415.329 263.474 415.537 265.472L417.526 265.265C417.317 263.252 417.088 261.265 416.841 259.302L414.857 259.551ZM416.105 271.533C416.269 273.5 416.416 275.49 416.545 277.504L418.541 277.376C418.411 275.35 418.263 273.347 418.098 271.367L416.105 271.533ZM416.875 283.552C416.921 284.572 416.963 285.597 417.001 286.629L418.999 286.556C418.962 285.519 418.92 284.487 418.873 283.461L416.875 283.552ZM417.001 286.629C417.038 287.647 417.06 288.661 417.068 289.672L419.068 289.655C419.06 288.626 419.037 287.593 418.999 286.556L417.001 286.629ZM416.95 295.701C416.854 297.728 416.701 299.739 416.493 301.735L418.483 301.942C418.694 299.909 418.85 297.86 418.948 295.796L416.95 295.701ZM415.702 307.73C415.383 309.726 415.009 311.705 414.584 313.668L416.539 314.091C416.972 312.093 417.352 310.078 417.677 308.047L415.702 307.73ZM413.15 319.54C412.619 321.488 412.038 323.421 411.41 325.336L413.31 325.96C413.949 324.012 414.54 322.048 415.08 320.066L413.15 319.54ZM409.382 331.037C408.66 332.92 407.893 334.787 407.082 336.637L408.914 337.439C409.737 335.562 410.516 333.666 411.249 331.753L409.382 331.037ZM404.526 342.13C403.636 343.939 402.705 345.73 401.735 347.505L403.491 348.464C404.473 346.665 405.417 344.848 406.32 343.014L404.526 342.13ZM398.725 352.765C397.688 354.496 396.615 356.211 395.51 357.908L397.186 358.999C398.304 357.282 399.39 355.546 400.44 353.792L398.725 352.765ZM392.107 362.933C390.947 364.584 389.755 366.218 388.536 367.835L390.133 369.04C391.365 367.405 392.57 365.753 393.743 364.083L392.107 362.933ZM384.805 372.624C383.538 374.2 382.244 375.759 380.928 377.3L382.449 378.599C383.778 377.043 385.083 375.469 386.363 373.878L384.805 372.624ZM376.919 381.863C375.562 383.365 374.184 384.85 372.787 386.317L374.235 387.696C375.644 386.217 377.034 384.719 378.403 383.203L376.919 381.863ZM368.541 390.667C367.108 392.1 365.658 393.516 364.193 394.914L365.574 396.36C367.049 394.952 368.511 393.526 369.955 392.081L368.541 390.667ZM359.747 399.063C358.247 400.434 356.735 401.785 355.212 403.119L356.53 404.624C358.062 403.281 359.585 401.92 361.096 400.54L359.747 399.063ZM350.597 407.08C349.042 408.389 347.48 409.678 345.911 410.949L347.17 412.503C348.748 411.225 350.32 409.927 351.885 408.61L350.597 407.08ZM341.143 414.742C339.535 415.997 337.924 417.233 336.312 418.449L337.516 420.046C339.137 418.824 340.757 417.581 342.374 416.318L341.143 414.742ZM331.425 422.073C329.778 423.274 328.132 424.455 326.49 425.614L327.644 427.248C329.293 426.083 330.948 424.897 332.604 423.689L331.425 422.073ZM321.482 429.095C319.788 430.254 318.101 431.39 316.425 432.502L317.531 434.168C319.215 433.051 320.909 431.91 322.611 430.745L321.482 429.095ZM311.327 435.836C309.599 436.95 307.886 438.038 306.191 439.1L307.253 440.795C308.955 439.728 310.675 438.636 312.411 437.517L311.327 435.836ZM301.02 442.296C299.258 443.37 297.521 444.414 295.813 445.428L296.834 447.147C298.548 446.13 300.292 445.082 302.061 444.003L301.02 442.296ZM290.552 448.51C288.747 449.554 286.981 450.562 285.26 451.533L286.243 453.275C287.97 452.301 289.742 451.289 291.554 450.241L290.552 448.51ZM279.945 454.497C278.09 455.521 276.301 456.495 274.588 457.419L275.538 459.179C277.256 458.252 279.049 457.275 280.911 456.249L279.945 454.497ZM269.183 460.309C268.27 460.793 267.386 461.259 266.534 461.708L267.466 463.478C268.319 463.028 269.204 462.561 270.12 462.076L269.183 460.309Z" fill="#CFC3DE"/>
<path d="M128 6.59273C102 -0.907053 46.4998 -1.90739 24.4997 10.0927C2.49971 22.0927 0.699749 39.9926 1.49975 53.5926C2.49975 70.5926 10.5 83.5928 24.4997 90.0928C42.5603 98.4782 132.5 92.5928 148.5 90.0928C164.5 87.5928 187.5 75.5926 191 56.5926C194.5 37.5926 154 14.0925 128 6.59273Z" stroke="#CFC3DE" stroke-width="2" stroke-dasharray="6 6"/>
</svg>
