<svg width="590" height="456" viewBox="0 0 590 456" fill="none" xmlns="http://www.w3.org/2000/svg">
<path d="M464 404.597L381.995 414.782C378.278 415.245 374.548 413.998 371.854 411.391C369.158 408.787 367.787 405.1 368.123 401.363L385.327 208.954L321.653 26.59C320.415 23.0487 320.846 19.1395 322.824 15.954C324.8 12.7685 328.11 10.6481 331.828 10.1858L413.835 0L416.887 24.6245L350.125 32.9174L409.615 203.299C410.198 204.967 410.418 206.739 410.261 208.499L394.186 388.267L460.948 379.975L464 404.597Z" fill="white"/>
<path d="M132.17 445.814L50.1647 456L47.1127 431.376L113.875 423.083L54.3848 252.701C53.802 251.033 53.5819 249.261 53.7391 247.501L69.8142 67.7325L3.05201 76.0278L0 51.4033L82.0053 41.2175C85.7224 40.7552 89.4515 42.0018 92.1456 44.6088C94.8421 47.2133 96.2133 50.8998 95.8772 54.6372L78.6727 247.046L142.344 429.41C143.582 432.951 143.152 436.861 141.174 440.046C139.198 443.231 135.887 445.352 132.17 445.814Z" fill="white"/>
<path d="M368.614 208.39L304.055 23.4989C302.13 17.9824 296.621 14.5598 290.829 15.2787L247.919 20.6088C242.127 21.3277 237.619 25.9946 237.102 31.816L203.099 412.001L180.049 414.865L119.672 241.953L135.986 59.5147L179.539 54.1047L204.035 124.258L209.452 64.564L199.643 36.4684C197.718 30.9519 192.209 27.5292 186.417 28.2481L123.009 36.1222C117.217 36.8411 112.709 41.508 112.189 47.3295L94.743 242.408C94.5882 244.168 94.8058 245.94 95.3887 247.608L159.948 432.501C161.873 438.018 167.384 441.44 173.176 440.721L216.083 435.391C221.875 434.672 226.383 430.005 226.901 424.184L260.904 43.9988L283.958 41.1353L344.333 214.047L328.019 396.485L284.463 401.895L259.868 331.459L254.454 391.153L264.362 419.532C266.287 425.048 271.796 428.471 277.588 427.752L340.998 419.878C346.79 419.159 351.298 414.492 351.816 408.67L369.262 213.592C369.417 211.832 369.197 210.057 368.614 208.39Z" fill="white"/>
<path d="M511.547 292.43L515.47 274.256C515.546 273.903 515.459 273.535 515.233 273.254C515.007 272.973 514.664 272.809 514.305 272.809H510.81H506.35H502.855C502.493 272.809 502.153 272.973 501.927 273.254C501.701 273.535 501.614 273.903 501.69 274.256L502.788 279.347H502.784L505.611 292.44L501.69 310.6C501.614 310.953 501.701 311.322 501.927 311.603C502.153 311.884 502.496 312.047 502.855 312.047H506.35H510.81H514.305C514.667 312.047 515.007 311.884 515.233 311.603C515.459 311.322 515.546 310.953 515.47 310.6L511.547 292.43ZM510.808 309.663H506.348H504.331L506.827 298.098L508.827 307.361L511.16 306.857L508.01 292.272C508.006 292.239 508.001 292.207 507.994 292.177L504.328 275.198H506.345H510.805H512.822L510.324 286.775L508.6 278.785L506.267 279.29L511.065 301.521L512.822 309.661H510.808V309.663Z" fill="url(#paint0_radial_710_5686)"/>
<path d="M433.91 312.052H425.955C425.593 312.052 425.252 311.889 425.027 311.608C424.801 311.327 424.714 310.958 424.79 310.606L428.713 292.431L424.79 274.256C424.714 273.904 424.801 273.535 425.027 273.254C425.252 272.973 425.595 272.81 425.955 272.81H433.91V275.199H427.433L431.098 292.178C431.135 292.343 431.135 292.516 431.098 292.682L427.433 309.661H433.91V312.052Z" fill="url(#paint1_radial_710_5686)"/>
<path d="M448.383 312.052H440.428V309.663H446.905L443.239 292.684C443.202 292.518 443.202 292.345 443.239 292.179L446.905 275.201H440.428V272.812H448.383C448.744 272.812 449.085 272.975 449.311 273.256C449.536 273.537 449.624 273.906 449.548 274.258L445.624 292.433L449.548 310.608C449.624 310.96 449.536 311.329 449.311 311.61C449.085 311.888 448.742 312.052 448.383 312.052Z" fill="url(#paint2_radial_710_5686)"/>
<path d="M436.7 312.057L435.258 305.491C434.268 300.978 434.563 296.29 436.113 291.938C437.513 288.005 437.777 283.773 436.884 279.698L435.443 273.132L437.773 272.621L439.214 279.186C440.204 283.7 439.909 288.388 438.36 292.74C436.96 296.672 436.695 300.904 437.589 304.98L439.03 311.546L436.7 312.057Z" fill="url(#paint3_radial_710_5686)"/>
<path d="M396.82 312.027H395.765C393.711 312.027 391.793 311.11 390.502 309.511C389.212 307.912 388.72 305.841 389.155 303.832L391.423 293.331C391.554 292.719 391.554 292.097 391.423 291.481L389.155 280.981C388.722 278.972 389.212 276.903 390.502 275.302C391.791 273.703 393.709 272.786 395.765 272.786H396.82V275.175H395.765C394.437 275.175 393.196 275.77 392.36 276.804C391.524 277.838 391.206 279.179 391.487 280.478L393.755 290.979C393.96 291.928 393.96 292.889 393.755 293.836L391.487 304.337C391.206 305.636 391.524 306.977 392.36 308.011C393.196 309.046 394.437 309.64 395.765 309.64H396.82V312.027Z" fill="url(#paint4_radial_710_5686)"/>
<path d="M412.03 312.027H410.976V309.638H412.03C413.359 309.638 414.6 309.044 415.435 308.009C416.271 306.975 416.589 305.634 416.308 304.335L414.04 293.834C413.835 292.887 413.835 291.924 414.04 290.977L416.308 280.477C416.589 279.177 416.271 277.836 415.435 276.802C414.6 275.768 413.359 275.173 412.03 275.173H410.976V272.784H412.03C414.084 272.784 416.002 273.701 417.294 275.3C418.583 276.899 419.076 278.97 418.64 280.979L416.373 291.479C416.241 292.092 416.241 292.714 416.373 293.329L418.64 303.83C419.073 305.839 418.583 307.908 417.294 309.509C416.002 311.11 414.084 312.027 412.03 312.027Z" fill="url(#paint5_radial_710_5686)"/>
<path d="M401.201 246H398.813V312.057H401.201V246Z" fill="url(#paint6_radial_710_5686)"/>
<path d="M405.093 283.769H402.705V312.057H405.093V283.769Z" fill="url(#paint7_radial_710_5686)"/>
<path d="M408.981 292.612H406.594V312.056H408.981V292.612Z" fill="url(#paint8_radial_710_5686)"/>
<path d="M495.692 312.052H487.737C487.375 312.052 487.035 311.888 486.809 311.607C486.583 311.326 486.496 310.958 486.572 310.605L490.495 292.43L486.572 274.256C486.496 273.903 486.583 273.535 486.809 273.254C487.035 272.973 487.378 272.809 487.737 272.809H495.692V275.198H489.215L492.88 292.177C492.917 292.343 492.917 292.516 492.88 292.682L489.215 309.661H495.692V312.052Z" fill="url(#paint9_radial_710_5686)"/>
<path d="M463.499 312.052H455.544V309.663H462.021L458.355 292.684C458.318 292.518 458.318 292.345 458.355 292.179L462.021 275.201H455.544V272.812H463.499C463.86 272.812 464.201 272.975 464.427 273.256C464.652 273.537 464.74 273.906 464.664 274.258L460.741 292.433L464.664 310.608C464.74 310.96 464.652 311.329 464.427 311.61C464.201 311.888 463.86 312.052 463.499 312.052Z" fill="url(#paint10_radial_710_5686)"/>
<path d="M488.902 292.179L484.923 273.754C484.806 273.203 484.318 272.812 483.756 272.812H482.678H480.761H479.593C479.031 272.812 478.546 273.203 478.426 273.754L477.763 276.829L470.673 309.663H469.967H468.553H468.438L464.717 292.431L468.438 275.198H468.553H472.548H472.663L474.173 282.19L475.398 276.553L474.793 273.754C474.675 273.203 474.187 272.812 473.625 272.812H472.548H468.553H467.475C466.914 272.812 466.428 273.203 466.308 273.754L462.329 292.179C462.293 292.345 462.293 292.518 462.329 292.684L466.308 311.11C466.428 311.66 466.914 312.052 467.475 312.052H468.553H469.967H471.638C472.2 312.052 472.686 311.66 472.806 311.11L473.455 308.096L477.463 289.523L480.556 275.201H480.758H482.676H482.791L486.512 292.433L482.791 309.665H482.676H478.681H478.566L477.051 302.646L475.826 308.283L476.437 311.112C476.554 311.663 477.042 312.054 477.604 312.054H478.681H482.676H483.754C484.316 312.054 484.801 311.663 484.921 311.112L488.9 292.686C488.939 292.518 488.939 292.345 488.902 292.179Z" fill="url(#paint11_radial_710_5686)"/>
<path d="M534.651 296.296C533.985 296.296 533.444 296.835 533.444 297.503C533.444 298.169 533.983 298.71 534.651 298.71C535.319 298.71 535.857 298.171 535.857 297.503C535.857 296.837 535.319 296.296 534.651 296.296Z" fill="url(#paint12_radial_710_5686)"/>
<path d="M534.651 272.823C526.151 272.823 519.236 280.534 519.236 290.009C519.236 296.365 522.301 302.09 527.277 305.106C527.864 309.022 530.997 312.006 534.651 312.006C538.314 312.006 541.446 309.022 542.028 305.106C547.002 302.088 550.066 296.365 550.066 290.009C550.066 280.531 543.152 272.823 534.651 272.823ZM534.651 275.209C539.201 275.209 543.214 277.875 545.544 281.902C542.597 281.471 539.636 281.25 536.668 281.054C536.608 283.886 536.634 286.763 536.707 289.592L536.719 289.972L536.723 290.159C536.719 290.163 536.723 290.17 536.719 290.173C536.714 290.2 536.673 290.216 536.654 290.216L536.169 290.214L534.647 290.207L533.125 290.216L532.639 290.219C532.609 290.223 532.572 290.189 532.568 290.159C532.584 289.772 532.611 288.477 532.618 288.072C532.664 285.74 532.669 283.393 532.623 281.057C529.657 281.257 526.696 281.474 523.751 281.904C526.088 277.875 530.102 275.209 534.651 275.209ZM540.334 303.327L539.767 303.638L539.719 304.283C539.657 305.11 539.443 305.887 539.109 306.578L538.704 294.932L536.318 295.015L536.806 309.057C536.148 309.414 535.418 309.617 534.651 309.617C533.887 309.617 533.155 309.414 532.496 309.055L532.984 295.015L530.599 294.932L530.194 306.569C529.862 305.878 529.646 305.104 529.581 304.279L529.533 303.636L528.969 303.325C524.438 300.823 521.622 295.72 521.622 290.007C521.622 287.042 522.393 284.28 523.719 281.962C526.111 282.31 528.506 282.524 530.91 282.695C530.719 284.448 530.56 286.203 530.419 287.959L530.304 289.477C530.293 289.767 530.24 290.129 530.277 290.417C530.373 291.608 531.451 292.592 532.646 292.58C532.708 292.58 533.06 292.585 533.125 292.582C533.882 292.592 535.409 292.589 536.166 292.582L536.546 292.58C537.26 292.603 537.983 292.294 538.443 291.751C538.899 291.239 539.093 290.53 539.017 289.855L538.991 289.475L538.876 287.956C538.738 286.201 538.579 284.448 538.388 282.695C538.775 282.667 539.162 282.639 539.549 282.607C541.563 282.446 543.569 282.254 545.574 281.957C546.9 284.275 547.672 287.037 547.672 290.002C547.679 295.722 544.865 300.828 540.334 303.327Z" fill="url(#paint13_radial_710_5686)"/>
<path d="M562.794 312.128H554.839C554.478 312.128 554.137 311.964 553.911 311.683C553.686 311.402 553.598 311.034 553.674 310.681L557.598 292.509L553.674 274.336C553.598 273.984 553.686 273.615 553.911 273.334C554.137 273.053 554.48 272.89 554.839 272.89H562.794V275.279H556.317L559.983 292.258C560.02 292.423 560.02 292.596 559.983 292.762L556.317 309.741H562.794V312.128Z" fill="url(#paint14_radial_710_5686)"/>
<path d="M588.789 312.128H580.834V309.739H587.311L583.645 292.76C583.608 292.594 583.608 292.422 583.645 292.256L587.311 275.277H580.834V272.888H588.789C589.15 272.888 589.491 273.051 589.717 273.332C589.943 273.613 590.03 273.982 589.954 274.334L586.031 292.507L589.954 310.679C590.03 311.032 589.943 311.4 589.717 311.681C589.491 311.965 589.15 312.128 588.789 312.128Z" fill="url(#paint15_radial_710_5686)"/>
<path d="M573.011 272.812H570.623V312.08H573.011V272.812Z" fill="url(#paint16_radial_710_5686)"/>
<path d="M568.055 281.897H561.507V284.286H568.055V281.897Z" fill="url(#paint17_radial_710_5686)"/>
<path d="M568.055 288.385H561.507V290.774H568.055V288.385Z" fill="url(#paint18_radial_710_5686)"/>
<path d="M582.075 301.36H575.526V303.749H582.075V301.36Z" fill="url(#paint19_radial_710_5686)"/>
<defs>
<radialGradient id="paint0_radial_710_5686" cx="0" cy="0" r="1" gradientUnits="userSpaceOnUse" gradientTransform="translate(456.167 309.176) scale(167.752 167.849)">
<stop stop-color="#F3B800"/>
<stop offset="1" stop-color="#F48E00"/>
</radialGradient>
<radialGradient id="paint1_radial_710_5686" cx="0" cy="0" r="1" gradientUnits="userSpaceOnUse" gradientTransform="translate(456.166 309.176) scale(167.751 167.849)">
<stop stop-color="#F3B800"/>
<stop offset="1" stop-color="#F48E00"/>
</radialGradient>
<radialGradient id="paint2_radial_710_5686" cx="0" cy="0" r="1" gradientUnits="userSpaceOnUse" gradientTransform="translate(456.166 309.176) scale(167.751 167.849)">
<stop stop-color="#F3B800"/>
<stop offset="1" stop-color="#F48E00"/>
</radialGradient>
<radialGradient id="paint3_radial_710_5686" cx="0" cy="0" r="1" gradientUnits="userSpaceOnUse" gradientTransform="translate(456.166 309.176) scale(167.752 167.849)">
<stop stop-color="#F3B800"/>
<stop offset="1" stop-color="#F48E00"/>
</radialGradient>
<radialGradient id="paint4_radial_710_5686" cx="0" cy="0" r="1" gradientUnits="userSpaceOnUse" gradientTransform="translate(456.167 309.176) scale(167.752 167.849)">
<stop stop-color="#F3B800"/>
<stop offset="1" stop-color="#F48E00"/>
</radialGradient>
<radialGradient id="paint5_radial_710_5686" cx="0" cy="0" r="1" gradientUnits="userSpaceOnUse" gradientTransform="translate(456.167 309.176) scale(167.752 167.849)">
<stop stop-color="#F3B800"/>
<stop offset="1" stop-color="#F48E00"/>
</radialGradient>
<radialGradient id="paint6_radial_710_5686" cx="0" cy="0" r="1" gradientUnits="userSpaceOnUse" gradientTransform="translate(456.166 309.176) scale(167.751 167.849)">
<stop stop-color="#F3B800"/>
<stop offset="1" stop-color="#F48E00"/>
</radialGradient>
<radialGradient id="paint7_radial_710_5686" cx="0" cy="0" r="1" gradientUnits="userSpaceOnUse" gradientTransform="translate(456.167 309.176) scale(167.751 167.849)">
<stop stop-color="#F3B800"/>
<stop offset="1" stop-color="#F48E00"/>
</radialGradient>
<radialGradient id="paint8_radial_710_5686" cx="0" cy="0" r="1" gradientUnits="userSpaceOnUse" gradientTransform="translate(456.167 309.176) scale(167.753 167.849)">
<stop stop-color="#F3B800"/>
<stop offset="1" stop-color="#F48E00"/>
</radialGradient>
<radialGradient id="paint9_radial_710_5686" cx="0" cy="0" r="1" gradientUnits="userSpaceOnUse" gradientTransform="translate(456.167 309.176) scale(167.751 167.849)">
<stop stop-color="#F3B800"/>
<stop offset="1" stop-color="#F48E00"/>
</radialGradient>
<radialGradient id="paint10_radial_710_5686" cx="0" cy="0" r="1" gradientUnits="userSpaceOnUse" gradientTransform="translate(456.167 309.176) scale(167.751 167.849)">
<stop stop-color="#F3B800"/>
<stop offset="1" stop-color="#F48E00"/>
</radialGradient>
<radialGradient id="paint11_radial_710_5686" cx="0" cy="0" r="1" gradientUnits="userSpaceOnUse" gradientTransform="translate(456.167 309.176) scale(167.751 167.849)">
<stop stop-color="#F3B800"/>
<stop offset="1" stop-color="#F48E00"/>
</radialGradient>
<radialGradient id="paint12_radial_710_5686" cx="0" cy="0" r="1" gradientUnits="userSpaceOnUse" gradientTransform="translate(456.164 309.175) scale(167.755 167.849)">
<stop stop-color="#F3B800"/>
<stop offset="1" stop-color="#F48E00"/>
</radialGradient>
<radialGradient id="paint13_radial_710_5686" cx="0" cy="0" r="1" gradientUnits="userSpaceOnUse" gradientTransform="translate(456.166 309.176) scale(167.752 167.849)">
<stop stop-color="#F3B800"/>
<stop offset="1" stop-color="#F48E00"/>
</radialGradient>
<radialGradient id="paint14_radial_710_5686" cx="0" cy="0" r="1" gradientUnits="userSpaceOnUse" gradientTransform="translate(456.166 309.176) scale(167.752 167.849)">
<stop stop-color="#F3B800"/>
<stop offset="1" stop-color="#F48E00"/>
</radialGradient>
<radialGradient id="paint15_radial_710_5686" cx="0" cy="0" r="1" gradientUnits="userSpaceOnUse" gradientTransform="translate(456.166 309.176) scale(167.752 167.849)">
<stop stop-color="#F3B800"/>
<stop offset="1" stop-color="#F48E00"/>
</radialGradient>
<radialGradient id="paint16_radial_710_5686" cx="0" cy="0" r="1" gradientUnits="userSpaceOnUse" gradientTransform="translate(456.168 309.176) scale(167.749 167.849)">
<stop stop-color="#F3B800"/>
<stop offset="1" stop-color="#F48E00"/>
</radialGradient>
<radialGradient id="paint17_radial_710_5686" cx="0" cy="0" r="1" gradientUnits="userSpaceOnUse" gradientTransform="translate(456.166 309.176) scale(167.751 167.849)">
<stop stop-color="#F3B800"/>
<stop offset="1" stop-color="#F48E00"/>
</radialGradient>
<radialGradient id="paint18_radial_710_5686" cx="0" cy="0" r="1" gradientUnits="userSpaceOnUse" gradientTransform="translate(456.166 309.176) scale(167.751 167.849)">
<stop stop-color="#F3B800"/>
<stop offset="1" stop-color="#F48E00"/>
</radialGradient>
<radialGradient id="paint19_radial_710_5686" cx="0" cy="0" r="1" gradientUnits="userSpaceOnUse" gradientTransform="translate(456.165 309.176) scale(167.753 167.849)">
<stop stop-color="#F3B800"/>
<stop offset="1" stop-color="#F48E00"/>
</radialGradient>
</defs>
</svg>
