<svg width="81" height="17" viewBox="0 0 81 17" fill="none" xmlns="http://www.w3.org/2000/svg">
<path fill-rule="evenodd" clip-rule="evenodd" d="M7.86162 5.32498H4.99216L4.43253 10.7444H7.27797L7.86162 5.32498ZM8.80993 5.32498L8.22628 10.7444H11.6627L11.5901 11.5559H8.15269L7.56903 16.8574H6.62047L7.20412 11.5559H4.33618L3.77706 16.8574H2.82849L3.41189 11.5559H0L0.0723245 10.7444H3.48422L4.06787 5.32498H0.631701L0.704026 4.51268H4.14171L4.60323 0.119141H5.55154L5.08876 4.51268H7.93394L8.39546 0.119141H9.34377L8.88251 4.51268H12.3202L12.2461 5.32498H8.80993Z" fill="#F00012"/>
<path fill-rule="evenodd" clip-rule="evenodd" d="M17.0263 2.53056V14.4685H18.5342C19.3859 14.4685 19.8955 14.0394 19.8955 12.8454V4.15417C19.8955 2.96042 19.3859 2.53056 18.5342 2.53056H17.0263ZM14.353 0.143066H18.5817C21.2567 0.143066 22.5702 1.5993 22.5702 4.27386V12.7257C22.5702 15.3995 21.2567 16.857 18.5817 16.857H14.353V0.143066Z" fill="#F00012"/>
<path fill-rule="evenodd" clip-rule="evenodd" d="M24.27 0.143066H26.9448V16.857H24.27V0.143066Z" fill="#F00012"/>
<path fill-rule="evenodd" clip-rule="evenodd" d="M31.5634 7.18608H35.235V9.57357H31.5634V14.4685H36.1831V16.857H28.8882V0.143066H36.1831V2.53056H31.5634V7.18608Z" fill="#F00012"/>
<path fill-rule="evenodd" clip-rule="evenodd" d="M45.2499 0.143066V2.48288L40.1682 14.4685H45.2499V16.857H37.4209V14.5169L42.5026 2.53056H37.6637V0.143066H45.2499Z" fill="#F00012"/>
<path fill-rule="evenodd" clip-rule="evenodd" d="M49.7704 16.857V1.14609H46.293V0.143066H54.3407V1.14609H50.8889V16.857H49.7704Z" fill="#F00012"/>
<path fill-rule="evenodd" clip-rule="evenodd" d="M61.5593 7.87869V8.88171H56.9156V15.8537H62.5083V16.857H55.7979V0.143066H62.5083V1.14609H56.9156V7.87869H61.5593Z" fill="#F00012"/>
<path fill-rule="evenodd" clip-rule="evenodd" d="M71.6003 4.22541V5.61087H70.5303V4.15439C70.5303 2.3634 69.8243 1.00228 67.9532 1.00228C66.0801 1.00228 65.3763 2.36365 65.3763 4.15439V12.8456C65.3763 14.6359 66.0801 15.9726 67.9532 15.9726C69.8243 15.9726 70.5303 14.6359 70.5303 12.8456V10.8639H71.6003V12.7736C71.6003 15.1857 70.5303 17 67.9287 17C65.3262 17 64.2578 15.1857 64.2578 12.7736L64.2581 4.22541C64.2581 1.81458 65.326 0 67.9287 0C70.5303 0 71.6003 1.81458 71.6003 4.22541Z" fill="#F00012"/>
<path fill-rule="evenodd" clip-rule="evenodd" d="M74.5391 9.00067V16.857H73.4214V0.143066H74.5391V7.99839H79.8403V0.143066H80.9836V16.857H79.8403V9.00067H74.5391Z" fill="#F00012"/>
</svg>
