<svg width="170" height="200" viewBox="0 0 170 200" fill="none" xmlns="http://www.w3.org/2000/svg">
<rect width="170" height="200" rx="15" fill="white"/>
<path d="M75.5836 155.313H53.3373C52.327 155.313 51.3737 154.858 50.7406 154.071C50.1074 153.284 49.8619 152.255 50.0754 151.268L61.0456 100.425L50.0754 49.5828C49.8619 48.5964 50.1074 47.5638 50.7406 46.7804C51.3737 45.9934 52.327 45.5376 53.3373 45.5376H75.5836V52.2179H57.4707L67.7188 99.7204C67.8184 100.187 67.8184 100.668 67.7188 101.131L57.4707 148.633H75.5836V155.313Z" fill="url(#paint0_radial_1357_8113)"/>
<path d="M116.053 155.313H93.8066V148.633H111.92L101.671 101.131C101.572 100.664 101.572 100.183 101.671 99.7204L111.92 52.2179H93.8066V45.5376H116.053C117.063 45.5376 118.017 45.9934 118.65 46.7804C119.283 47.5673 119.528 48.5964 119.315 49.5828L108.345 100.425L119.315 151.268C119.528 152.255 119.283 153.287 118.65 154.071C118.017 154.858 117.06 155.313 116.053 155.313Z" fill="url(#paint1_radial_1357_8113)"/>
<path d="M83.3884 155.331L79.3618 136.964C76.5943 124.337 77.4196 111.226 81.7486 99.0439C85.6614 88.0443 86.4049 76.2007 83.9042 64.7987L79.8775 46.4315L86.3978 45L90.4245 63.3672C93.1919 75.9942 92.3667 89.1054 88.0341 101.287C84.1212 112.287 83.3778 124.131 85.8784 135.533L89.9051 153.9L83.3884 155.331Z" fill="url(#paint2_radial_1357_8113)"/>
<defs>
<radialGradient id="paint0_radial_1357_8113" cx="0" cy="0" r="1" gradientUnits="userSpaceOnUse" gradientTransform="translate(92.0839 121.661) scale(112.933 113.053)">
<stop stop-color="#85558A"/>
<stop offset="1" stop-color="#663069"/>
</radialGradient>
<radialGradient id="paint1_radial_1357_8113" cx="0" cy="0" r="1" gradientUnits="userSpaceOnUse" gradientTransform="translate(92.0837 121.661) scale(112.933 113.053)">
<stop stop-color="#85558A"/>
<stop offset="1" stop-color="#663069"/>
</radialGradient>
<radialGradient id="paint2_radial_1357_8113" cx="0" cy="0" r="1" gradientUnits="userSpaceOnUse" gradientTransform="translate(92.0843 121.661) scale(112.933 113.053)">
<stop stop-color="#85558A"/>
<stop offset="1" stop-color="#663069"/>
</radialGradient>
</defs>
</svg>
