<svg width="170" height="200" viewBox="0 0 170 200" fill="none" xmlns="http://www.w3.org/2000/svg">
<rect width="170" height="200" rx="15" fill="white"/>
<path d="M136.27 150H116.005C115.085 150 114.216 149.585 113.639 148.868C113.063 148.151 112.839 147.214 113.034 146.315L123.027 100L113.034 53.685C112.839 52.7864 113.063 51.8457 113.639 51.1321C114.216 50.4152 115.085 50 116.005 50H136.27V56.0854H119.77L129.106 99.3577C129.196 99.7827 129.196 100.221 129.106 100.642L119.77 143.915H136.27V150Z" fill="url(#paint0_radial_1357_8114)"/>
<path d="M54.2653 150H34V143.915H50.5L41.1645 100.642C41.0737 100.217 41.0737 99.7794 41.1645 99.3577L50.5 56.0854H34V50H54.2653C55.1855 50 56.054 50.4152 56.6307 51.1321C57.2075 51.849 57.4311 52.7864 57.2367 53.685L47.2434 100L57.2367 146.315C57.4311 147.214 57.2075 148.154 56.6307 148.868C56.054 149.585 55.1855 150 54.2653 150Z" fill="url(#paint1_radial_1357_8114)"/>
<path d="M118.976 99.3577L108.844 52.4004C108.542 50.9991 107.304 50 105.872 50H103.124H98.2379H95.2664C93.8342 50 92.5964 50.9991 92.295 52.4004L90.6036 60.2407L72.5482 143.915H70.7466H67.1465H66.8549L57.38 100L66.8549 56.0854H67.1465H77.3245H77.6194L81.4657 73.9036L84.5862 59.5368L83.047 52.4004C82.7457 50.9991 81.5078 50 80.0756 50H77.3277H67.1497H64.4019C62.9697 50 61.7318 50.9991 61.4305 52.4004L51.2946 99.3577C51.2039 99.7827 51.2039 100.221 51.2946 100.642L61.4272 147.6C61.7286 149.001 62.9664 150 64.3987 150H67.1465H70.7466H75.0044C76.4366 150 77.6745 149.001 77.9758 147.6L79.6316 139.922L89.8453 92.5879L97.7226 56.0854H98.2411H103.128H103.422L112.897 100L103.422 143.915H103.128H92.9496H92.6547L88.7954 126.025L85.6749 140.392L87.2303 147.6C87.5317 149.001 88.7695 150 90.2018 150H92.9496H103.128H105.875C107.308 150 108.545 149.001 108.847 147.6L118.979 100.642C119.067 100.221 119.067 99.7827 118.976 99.3577Z" fill="url(#paint2_radial_1357_8114)"/>
<defs>
<radialGradient id="paint0_radial_1357_8114" cx="0" cy="0" r="1" gradientUnits="userSpaceOnUse" gradientTransform="translate(69.0309 108.476) scale(224.266 224.503)">
<stop stop-color="#0EA39F"/>
<stop offset="1" stop-color="#008F8B"/>
</radialGradient>
<radialGradient id="paint1_radial_1357_8114" cx="0" cy="0" r="1" gradientUnits="userSpaceOnUse" gradientTransform="translate(69.03 108.476) scale(224.265 224.503)">
<stop stop-color="#0EA39F"/>
<stop offset="1" stop-color="#008F8B"/>
</radialGradient>
<radialGradient id="paint2_radial_1357_8114" cx="0" cy="0" r="1" gradientUnits="userSpaceOnUse" gradientTransform="translate(69.0308 108.476) scale(224.265 224.503)">
<stop stop-color="#0EA39F"/>
<stop offset="1" stop-color="#008F8B"/>
</radialGradient>
</defs>
</svg>
