<svg width="63" height="64" viewBox="0 0 63 64" fill="none" xmlns="http://www.w3.org/2000/svg">
<g clip-path="url(#clip0_482_3679)">
<path d="M1.02 23.46L1 47.46C1 50.78 3.68 53.46 7 53.46H47V23.46H1.02Z" fill="white"/>
<path fill-rule="evenodd" clip-rule="evenodd" d="M0.020833 22.46H48V54.46H21V52.46H46V24.46H2.01917L2 47.46C2 47.4601 2 47.4598 2 47.46C2.00021 50.2275 4.23241 52.46 7 52.46H15V54.46H7C3.12772 54.46 0 51.3322 0 47.46L0.020833 22.46Z" fill="#B0CDE3"/>
<path d="M1 47.46C1 44.38 3.69 41.46 7 41.46V17.46C3.69 17.46 1 20.38 1 23.46V47.46Z" fill="white"/>
<path fill-rule="evenodd" clip-rule="evenodd" d="M0 23.46C0 19.8525 3.11325 16.46 7 16.46H8V42.46H7C4.26675 42.46 2 44.9075 2 47.46H0V23.46ZM2 42.6512C3.04819 41.5562 4.43857 40.7735 6 40.5356V18.5702C3.73527 19.0737 2 21.2267 2 23.46V42.6512Z" fill="#B0CDE3"/>
<path d="M25.3 1.11002C18.51 1.98002 13.5 8.31002 14 15.31C14.7 24.96 25.85 28.3 26.27 40.62C26.28 41.02 26.59 41.34 26.98 41.34C27.37 41.34 27.68 41.02 27.69 40.62C28.13 27.9 40 24.75 40 14.35C40 6.41002 33.24 0.0900181 25.3 1.11002Z" fill="#F39314"/>
<path fill-rule="evenodd" clip-rule="evenodd" d="M25.1729 0.118112C33.7457 -0.982979 41 5.84304 41 14.35C41 19.7115 38.046 23.2929 35.1918 26.7533C35.0551 26.919 34.9185 27.0845 34.7826 27.25C31.7736 30.911 28.8982 34.6517 28.6896 40.6509C28.6641 41.549 27.9514 42.34 26.98 42.34C26.0086 42.34 25.2958 41.5488 25.2705 40.6506C25.0714 34.8409 22.368 31.147 19.4658 27.5967C19.2444 27.3258 19.0208 27.0549 18.7966 26.7832C16.1222 23.5428 13.351 20.1851 13.0027 15.3824L13.0026 15.3813C12.4667 7.8793 17.8301 1.05913 25.1726 0.118153M39 14.35C39 6.97708 32.7345 1.16316 25.4275 2.10185L25.4271 2.10189C19.19 2.90105 14.5336 8.74048 14.9975 15.2382C15.298 19.3783 17.6627 22.2538 20.4046 25.588C20.606 25.8329 20.8095 26.0803 21.0143 26.3309C23.5178 29.3935 26.1141 32.8329 26.9807 37.7768C27.8829 32.6433 30.6488 29.1298 33.2375 25.9801C33.3359 25.8603 33.434 25.7411 33.5316 25.6226C36.4787 22.0419 39 18.9784 39 14.35Z" fill="#F39314"/>
<path fill-rule="evenodd" clip-rule="evenodd" d="M51 13.46H44V11.46H51C54.8623 11.46 58 14.5977 58 18.46V34.46H56V18.46C56 15.7022 53.7577 13.46 51 13.46Z" fill="#B0CDE3"/>
<path fill-rule="evenodd" clip-rule="evenodd" d="M51.2928 30.1671L52.7071 28.7529L57 33.0458L61.2928 28.7529L62.7071 30.1671L57 35.8742L51.2928 30.1671Z" fill="#B0CDE3"/>
<path fill-rule="evenodd" clip-rule="evenodd" d="M58 49.46V63.46H46V61.46H56V49.46H58Z" fill="#B0CDE3"/>
<path fill-rule="evenodd" clip-rule="evenodd" d="M17 56.46V39.46H19V56.46C19 59.2177 21.2423 61.46 24 61.46H40V63.46H24C20.1377 63.46 17 60.3222 17 56.46Z" fill="#B0CDE3"/>
<path fill-rule="evenodd" clip-rule="evenodd" d="M18 38.0459L23.7071 43.753L22.2928 45.1672L18 40.8743L13.7071 45.1672L12.2928 43.753L18 38.0459Z" fill="#B0CDE3"/>
<path fill-rule="evenodd" clip-rule="evenodd" d="M56 39.46V37.46H58V39.46H56Z" fill="#B0CDE3"/>
<path fill-rule="evenodd" clip-rule="evenodd" d="M56 43.46V41.46H58V43.46H56Z" fill="#B0CDE3"/>
<path fill-rule="evenodd" clip-rule="evenodd" d="M56 47.46V45.46H58V47.46H56Z" fill="#B0CDE3"/>
<path d="M31 14.52C31 16.76 29.21 18.57 27 18.57C24.79 18.57 23 16.76 23 14.52C23 12.28 24.79 10.47 27 10.47C29.21 10.46 31 12.28 31 14.52Z" fill="#E9F1F7"/>
<path fill-rule="evenodd" clip-rule="evenodd" d="M30 14.52C30 12.8167 28.6433 11.4626 27.0045 11.47L27 11.47C25.3536 11.47 24 12.8209 24 14.52C24 16.2191 25.3536 17.57 27 17.57C28.6464 17.57 30 16.2191 30 14.52ZM26.9977 9.47001C29.7779 9.45868 32 11.744 32 14.52C32 17.3009 29.7736 19.57 27 19.57C24.2264 19.57 22 17.3009 22 14.52C22 11.7398 24.2252 9.47125 26.9977 9.47001Z" fill="white"/>
<path fill-rule="evenodd" clip-rule="evenodd" d="M42 61.46H44V63.46H42V61.46Z" fill="#B0CDE3"/>
</g>
<defs>
<clipPath id="clip0_482_3679">
<rect width="62.71" height="63.46" fill="white"/>
</clipPath>
</defs>
</svg>
