<svg width="40" height="41" viewBox="0 0 40 41" fill="none" xmlns="http://www.w3.org/2000/svg">
<path d="M0.000978546 17.2777C0.682879 16.6589 1.35598 16.0312 2.04766 15.4242C3.1434 14.4617 4.25283 13.5159 5.35346 12.5583C5.62642 12.3213 5.9209 12.1823 6.27995 12.3204C6.84151 12.5367 6.955 13.2153 6.48148 13.6578C5.90133 14.1993 5.2928 14.7114 4.69602 15.2352C3.83704 15.9891 2.97708 16.7431 2.08386 17.5254C3.07883 18.2509 4.04151 18.9539 5.00517 19.656C8.44501 22.1606 11.8868 24.6632 15.3208 27.1756C15.5761 27.3627 15.7454 27.392 16.0164 27.1874C17.1072 26.3649 18.2196 25.5709 19.3261 24.769C19.9043 24.3499 20.097 24.3509 20.685 24.7778C21.7905 25.5807 22.8941 26.3855 23.9996 27.1894C24.1043 27.2657 24.2119 27.3362 24.3293 27.4175C25.9915 26.2083 27.6194 24.9726 29.3041 23.8221C29.9537 23.3786 30.2609 22.9165 30.169 22.1194C30.0927 21.4507 30.1484 20.7663 30.1553 20.0887C30.1602 19.5767 30.4684 19.2408 30.9223 19.2349C31.3909 19.2281 31.7089 19.5708 31.7138 20.1044C31.7196 20.7232 31.7148 21.343 31.7148 22.0401C33.8172 20.5098 35.8531 19.0283 37.935 17.5136C37.8088 17.3932 37.7051 17.2884 37.5955 17.1905C36.8774 16.5492 36.1593 15.9069 35.4354 15.2724C35.3659 15.2107 35.2534 15.2 35.1624 15.1608C34.7153 14.9708 34.2712 14.7701 33.8182 14.5939C33.6841 14.542 33.4943 14.4979 33.3779 14.5518C31.205 15.5613 28.8247 14.4862 28.2524 12.1608C27.9032 10.741 28.3366 9.49754 29.4763 8.56639C30.6014 7.64797 31.8674 7.50404 33.2087 8.06116C33.3515 8.12089 33.4875 8.2002 33.6225 8.27853C34.1782 8.59772 34.5108 9.007 34.4649 9.72078C34.4032 10.6676 34.4414 11.6222 34.4541 12.573C34.4609 13.0958 34.8268 13.5139 35.3052 13.5952C35.7025 13.6627 36.1486 13.3974 36.3354 12.9803C36.357 12.9333 36.3863 12.8843 36.3902 12.8354C36.5203 10.9936 36.401 9.22143 34.8816 7.88981C33.4425 6.6287 31.7891 6.2958 30.0183 7.00566C28.2524 7.71357 27.2398 9.07456 27.097 10.9917C26.8955 13.696 28.8639 15.8658 31.6111 16.0244C32.1912 16.0577 32.4984 16.3191 32.5092 16.7871C32.5199 17.2561 32.1981 17.5851 31.6981 17.5881C30.2081 17.5959 28.8834 17.1063 27.7525 16.1536C24.0172 13.0087 25.0611 7.12414 29.6417 5.44592C33.2625 4.11822 37.2923 6.47596 37.8861 10.2955C38.0514 11.3608 38.1532 12.4525 37.8029 13.5022C37.6679 13.9056 37.3705 14.2541 37.121 14.6722C37.7863 15.2568 38.4985 15.8805 39.2098 16.5051C39.3468 16.6256 39.4808 16.7499 39.6227 16.8635C39.8966 17.0838 40.0003 17.3599 40.0003 17.7153C39.9934 24.8297 39.9954 31.944 39.9944 39.0573C39.9944 39.7515 39.7205 40.0257 39.0259 40.0257C26.3456 40.0267 13.6644 40.0247 0.984207 40.0335C0.522432 40.0335 0.216212 39.8641 0 39.4793C0.000978337 32.0791 0.000978546 24.6779 0.000978546 17.2777ZM3.24514 38.4327C14.4481 38.4327 25.562 38.4327 36.7385 38.4327C36.6016 38.3289 36.5203 38.2652 36.4372 38.2045C31.073 34.2988 25.7078 30.395 20.3494 26.4814C20.0882 26.2905 19.9219 26.2797 19.6538 26.4756C16.0633 29.1035 12.463 31.7188 8.86569 34.337C7.01468 35.6842 5.16562 37.0335 3.24514 38.4327ZM1.58588 19.1204C1.58588 25.3388 1.58588 31.4779 1.58588 37.6817C5.85143 34.5759 10.073 31.5024 14.3317 28.4015C10.0788 25.3036 5.85633 22.2301 1.58588 19.1204ZM38.4173 19.1155C34.1342 22.235 29.9127 25.3085 25.6657 28.4005C29.9352 31.5083 34.1557 34.5808 38.4173 37.6836C38.4173 31.4701 38.4173 25.33 38.4173 19.1155ZM32.8878 11.3716C32.8878 10.9036 32.8751 10.4355 32.8927 9.9685C32.9015 9.73938 32.8203 9.61797 32.6178 9.51908C31.7783 9.11176 30.7589 9.3399 30.1641 10.085C29.5781 10.8184 29.581 11.8651 30.1709 12.6023C30.7599 13.3386 31.7999 13.5776 32.6227 13.1379C32.7469 13.0713 32.8653 12.8785 32.876 12.7355C32.9083 12.2832 32.8878 11.8269 32.8878 11.3716Z" fill="#2AA7A4"/>
<path d="M20.2331 0C21.2946 0.898837 22.36 1.79474 23.4176 2.69945C24.347 3.49548 25.2666 4.30228 26.1922 5.10418C26.4915 5.36365 26.7263 5.65053 26.5845 6.08135C26.4573 6.46712 26.1481 6.6463 25.6188 6.6463C20.5295 6.64728 15.4402 6.64728 10.3509 6.64728C10.1973 6.64728 10.0437 6.64728 9.84414 6.64728C9.84414 6.8294 9.84414 6.98116 9.84414 7.13293C9.84414 10.3631 9.84414 13.5942 9.84414 16.8243C9.84414 16.9673 9.85295 17.1132 9.83044 17.2532C9.77174 17.6282 9.44009 17.9004 9.06245 17.9004C8.68481 17.9004 8.35511 17.6272 8.29543 17.2522C8.27489 17.1249 8.28271 16.9927 8.28271 16.8625C8.28174 13.2799 8.28174 9.69824 8.28271 6.11562C8.28271 5.34309 8.54002 5.08362 9.30703 5.08362C13.9404 5.08264 18.5748 5.08362 23.2082 5.08362C23.3471 5.08362 23.4861 5.08362 23.7492 5.08362C22.4529 3.9586 21.2418 2.90898 20.0003 1.83194C19.3086 2.42529 18.6296 3.00689 17.9516 3.58947C17.392 4.07023 16.9371 4.11135 16.5927 3.71284C16.2532 3.31924 16.3706 2.86492 16.9293 2.38613C17.7002 1.72522 18.4662 1.05941 19.2391 0.400462C19.4064 0.25751 19.5894 0.135119 19.7655 0.00293726C19.921 -1.19442e-07 20.0766 0 20.2331 0Z" fill="#F39314"/>
<path d="M16.2042 14.541C14.9559 14.541 13.7075 14.5419 12.4592 14.54C11.88 14.539 11.4945 14.211 11.5092 13.741C11.5239 13.2779 11.8898 12.9783 12.4552 12.9783C14.952 12.9763 17.4487 12.9763 19.9454 12.9783C20.5441 12.9783 20.8954 13.2808 20.8846 13.7763C20.8738 14.257 20.5314 14.538 19.9493 14.539C18.7009 14.5419 17.4526 14.541 16.2042 14.541Z" fill="#F39314"/>
<path d="M16.1389 10.6313C14.8758 10.6313 13.6138 10.6353 12.3507 10.6294C11.8939 10.6274 11.6004 10.3758 11.527 9.95673C11.4663 9.61404 11.6767 9.24784 12.024 9.12545C12.1433 9.08335 12.2783 9.0716 12.4065 9.0716C14.9062 9.06866 17.4048 9.06768 19.9045 9.07062C20.4387 9.0716 20.7821 9.38982 20.7772 9.85882C20.7723 10.3249 20.4298 10.6294 19.8888 10.6304C18.6385 10.6343 17.3882 10.6323 16.1389 10.6313Z" fill="#F39314"/>
<path d="M14.4488 18.3762C13.6954 18.3762 12.9421 18.3948 12.1908 18.3683C11.8063 18.3546 11.5284 18.0188 11.5069 17.6448C11.4883 17.3197 11.7221 16.9887 12.0567 16.8791C12.1546 16.8468 12.2583 16.8184 12.36 16.8184C13.7365 16.8145 15.114 16.8076 16.4905 16.8203C16.9963 16.8252 17.3339 17.1591 17.3407 17.6007C17.3476 18.058 17.0394 18.3762 16.514 18.3918C15.8263 18.4124 15.1375 18.3967 14.4488 18.3967C14.4488 18.3899 14.4488 18.383 14.4488 18.3762Z" fill="#F39314"/>
<path d="M24.5293 16.8184C24.7759 16.8184 25.0234 16.8017 25.268 16.8223C25.7336 16.8605 26.0731 17.2081 26.0692 17.6193C26.0663 18.0344 25.7346 18.3703 25.2572 18.3908C24.7534 18.4124 24.2466 18.4124 23.7427 18.3869C23.2682 18.3634 22.9767 18.054 22.9698 17.6281C22.963 17.213 23.2594 16.8771 23.7144 16.8291C23.9834 16.8007 24.2573 16.8242 24.5303 16.8242C24.5293 16.8213 24.5293 16.8194 24.5293 16.8184Z" fill="#F39314"/>
<path d="M20.2886 18.386C19.8552 18.384 19.5196 18.056 19.5128 17.6261C19.5059 17.1934 19.8718 16.8174 20.2964 16.8203C20.7005 16.8233 21.0732 17.1904 21.083 17.5958C21.0948 18.0256 20.7298 18.3879 20.2886 18.386Z" fill="#F39314"/>
<path d="M9.07277 21.0452C8.62861 21.0501 8.27836 20.7035 8.28325 20.2639C8.28815 19.8546 8.64622 19.4904 9.05125 19.4825C9.46704 19.4747 9.84566 19.8566 9.84077 20.2815C9.83783 20.7055 9.5003 21.0403 9.07277 21.0452Z" fill="#F39314"/>
</svg>
