<svg width="40" height="50" viewBox="0 0 40 50" fill="none" xmlns="http://www.w3.org/2000/svg">
<path opacity="0.4" fill-rule="evenodd" clip-rule="evenodd" d="M1.3125 50V39.467L19.0459 24.7954C19.0466 24.7949 19.0473 24.7943 19.048 24.7937C20.1739 23.852 21.1384 22.9783 21.9447 22.1723C22.7157 21.3813 23.282 20.5932 23.6639 19.8112L23.668 19.8028L23.6723 19.7945C24.0516 19.053 24.25 18.2115 24.25 17.25C24.25 16.2106 24.0233 15.3928 23.6208 14.7487L23.6131 14.7364L23.6057 14.7239C23.2038 14.0372 22.6486 13.5133 21.9195 13.1402L21.911 13.1359C21.203 12.765 20.3468 12.5625 19.3125 12.5625C18.2858 12.5625 17.4209 12.7723 16.6904 13.163L16.6828 13.1671C15.9894 13.5303 15.4425 14.063 15.0339 14.792C14.6543 15.5055 14.4375 16.4348 14.4375 17.625V18.625H0.4375V17.625C0.4375 14.2022 1.20204 11.1999 2.7749 8.66089L2.77825 8.65547C4.36541 6.12944 6.59861 4.19373 9.44461 2.84735C12.2919 1.47948 15.5904 0.8125 19.3125 0.8125C23.1453 0.8125 26.5164 1.42254 29.399 2.67679C32.2751 3.92823 34.5362 5.71636 36.1352 8.05643C37.7629 10.387 38.5625 13.1114 38.5625 16.1875C38.5625 18.1219 38.157 20.0345 37.3594 21.9188C36.5708 23.8099 35.1702 25.8517 33.2146 28.0412C31.2503 30.2403 28.4679 32.8181 24.8871 35.7708C24.8868 35.771 24.8865 35.7713 24.8862 35.7715L22.2721 37.9375H39.0625V50H1.3125ZM19.875 38.9375V38.625L24.25 35C27.8125 32.0625 30.5521 29.5208 32.4688 27.375C34.3854 25.2292 35.7083 23.2812 36.4375 21.5312C37.1875 19.7604 37.5625 17.9792 37.5625 16.1875C37.5625 13.2917 36.8125 10.7708 35.3125 8.625C33.8333 6.45833 31.7292 4.78125 29 3.59375C26.2708 2.40625 23.0417 1.8125 19.3125 1.8125C15.7083 1.8125 12.5625 2.45833 9.875 3.75C7.1875 5.02083 5.10417 6.83333 3.625 9.1875C2.31747 11.2982 1.5961 13.7774 1.46089 16.625C1.4453 16.9534 1.4375 17.2868 1.4375 17.625H13.4375C13.4375 16.3125 13.6771 15.2083 14.1562 14.3125C14.6562 13.4167 15.3438 12.7396 16.2188 12.2812C17.1146 11.8021 18.1458 11.5625 19.3125 11.5625C20.4792 11.5625 21.5 11.7917 22.375 12.25C23.2708 12.7083 23.9688 13.3646 24.4688 14.2188C24.9896 15.0521 25.25 16.0625 25.25 17.25C25.25 18.3542 25.0208 19.3542 24.5625 20.25C24.125 21.1458 23.4896 22.0208 22.6562 22.875C21.8229 23.7083 20.8333 24.6042 19.6875 25.5625L2.3125 39.9375V49H38.0625V38.9375H19.875Z" fill="#6D3D70"/>
</svg>
