<svg width="82" height="79" viewBox="0 0 82 79" fill="none" xmlns="http://www.w3.org/2000/svg">
<path d="M6.35043 50.4109C7.04099 50.4109 7.59343 50.9633 7.59343 51.6539C7.59343 52.3445 7.04099 52.8969 6.35043 52.8969C5.65987 52.8969 5.10742 52.3445 5.10742 51.6539C5.10742 50.9633 5.65987 50.4109 6.35043 50.4109Z" fill="white"/>
<path d="M10.6356 4.28125C11.3261 4.28125 11.8786 4.8337 11.8786 5.52426C11.8786 6.21482 11.3261 6.76727 10.6356 6.76727C9.94503 6.76727 9.39258 6.21482 9.39258 5.52426C9.39258 4.8337 9.94503 4.28125 10.6356 4.28125Z" fill="white"/>
<path d="M21.1317 16.5735C21.8222 16.5735 22.3747 17.1259 22.3747 17.8165C22.3747 18.5071 21.8222 19.0595 21.1317 19.0595C20.4411 19.0595 19.8887 18.5071 19.8887 17.8165C19.8887 17.1259 20.4411 16.5735 21.1317 16.5735Z" fill="white"/>
<path d="M41.159 17.4023C41.8496 17.4023 42.402 17.9548 42.402 18.6453C42.402 19.3359 41.8496 19.8884 41.159 19.8884C40.4685 19.8884 39.916 19.3359 39.916 18.6453C39.916 17.9548 40.4685 17.4023 41.159 17.4023Z" fill="white"/>
<path d="M24.5848 46.9578C25.2754 46.9578 25.8278 47.5102 25.8278 48.2008C25.8278 48.8913 25.2754 49.4438 24.5848 49.4438C23.8942 49.4438 23.3418 48.8913 23.3418 48.2008C23.3418 47.5102 23.8942 46.9578 24.5848 46.9578Z" fill="white"/>
<path d="M45.4383 66.9839C46.1289 66.9839 46.6813 67.5363 46.6813 68.2269C46.6813 68.9174 46.1289 69.4699 45.4383 69.4699C44.7478 69.4699 44.1953 68.9174 44.1953 68.2269C44.1953 67.5363 44.7478 66.9839 45.4383 66.9839Z" fill="white"/>
<path d="M77.7586 27.7605C78.4492 27.7605 79.0016 28.3129 79.0016 29.0035C79.0016 29.6941 78.4492 30.2465 77.7586 30.2465C77.0681 30.2465 76.5156 29.6941 76.5156 29.0035C76.5156 28.3129 77.0681 27.7605 77.7586 27.7605Z" fill="white"/>
<path d="M80.7955 77.3427H78.0332C78.4476 76.6521 78.7238 75.9615 78.7238 74.9947C78.7238 72.0944 75.8234 70.2989 73.1993 71.4038C72.6469 68.6416 70.0227 66.4318 67.1224 66.4318C65.3269 66.4318 63.8077 67.1224 62.5647 68.3654V60.2168C64.3601 61.1836 66.4318 61.736 68.6416 61.736C75.8234 61.736 81.7622 55.9353 81.7622 48.6154C81.7622 44.1958 79.4143 39.9143 75.6853 37.5664C75.5472 35.0804 74.3042 32.7325 72.2325 31.2133C72.2325 24.0315 66.4318 18.0926 59.1119 18.0926C52.2063 18.0926 46.5437 23.3409 45.9913 30.3846C44.1958 32.4563 43.3671 35.0804 43.3671 37.5664C39.6381 39.9143 37.2902 44.0577 37.2902 48.6154C37.2902 55.7972 43.0909 61.736 50.4108 61.736C52.4825 61.736 54.5542 61.1836 56.4878 60.2168V70.9895C54.0018 69.0559 50.2727 70.1608 49.3059 73.3374C47.3724 72.785 45.4388 74.1661 45.4388 76.0996C45.4388 76.514 45.5769 77.0664 45.715 77.3427H24.1696V73.0612C24.1696 72.6468 23.7552 72.2325 23.3409 72.2325H18.0927V24.1696C18.0927 23.7552 17.6783 23.3409 17.264 23.3409H14.6399V11.0489C14.6399 6.76747 18.0927 3.31467 22.3741 3.31467C26.6556 3.31467 30.1084 6.76747 30.1084 11.0489V18.7832H29.2797C28.8654 18.7832 28.451 19.1975 28.451 19.6119V22.6503C24.9983 23.7552 22.3741 27.0699 22.3741 30.937C22.3741 35.6329 26.2413 39.7762 31.2133 39.7762C36.0472 39.7762 40.0525 35.9091 40.0525 30.937C40.0525 27.0699 37.5664 23.7552 33.9755 22.6503V19.6119C33.9755 19.1975 33.5612 18.7832 33.1469 18.7832H32.3182V11.0489C32.3182 5.80068 28.0367 1.3811 22.6503 1.3811C17.4021 1.3811 12.9825 5.80068 12.9825 11.187V23.479H10.3584C9.94406 23.479 9.52972 23.8933 9.52972 24.3077V72.2325H4.28147C3.86713 72.2325 3.4528 72.6468 3.4528 73.0612V77.3427H0.828672C0.414336 77.3427 0 77.757 0 78.1713C0 78.5857 0.414336 79 0.828672 79C4.83392 79 76.9283 79 80.9336 79C81.3479 79 81.7622 78.5857 81.7622 78.1713C81.7622 77.757 81.3479 77.3427 80.7955 77.3427ZM38.1189 31.2133C38.1189 35.0804 35.0804 38.1189 31.2133 38.1189C27.3462 38.1189 24.3077 35.0804 24.3077 31.2133C24.3077 27.3461 27.3462 24.3077 31.2133 24.3077C35.0804 24.1696 38.1189 27.3461 38.1189 31.2133ZM30.2465 22.5122V20.7168H32.042V22.5122C31.4895 22.5122 30.9371 22.5122 30.2465 22.5122ZM67.1224 68.2273C69.7465 68.2273 71.8182 70.437 71.6801 72.9231C71.6801 73.3374 71.8182 73.6136 72.2325 73.7517C72.5087 73.8898 72.9231 73.7517 73.1993 73.4755C73.6136 73.0612 74.1661 72.6468 74.8566 72.6468C76.0996 72.6468 77.0664 73.6136 77.0664 74.8566C77.0664 76.0996 76.0996 77.0664 74.8566 77.0664C74.7185 77.0664 74.5804 77.0664 74.4423 77.2045H62.4266V72.2325C62.5647 70.0227 64.7745 68.2273 67.1224 68.2273ZM39.0857 48.6154C39.0857 44.6101 41.2955 40.8811 44.7483 38.8094C45.0245 38.6713 45.1626 38.3951 45.1626 37.9808C45.0245 35.4947 45.8531 33.1468 47.5105 31.3514C47.6486 31.2133 47.7867 30.937 47.7867 30.7989C48.0629 24.722 52.8969 19.8881 59.1119 19.8881C65.465 19.8881 70.7133 25.1364 70.4371 31.6276C70.4371 31.9038 70.5752 32.1801 70.8514 32.3182C72.785 33.5612 73.8899 35.6329 73.8899 37.9808C73.8899 38.257 74.028 38.5332 74.3042 38.6713C77.757 40.6049 79.9668 44.3339 79.9668 48.4773C79.9668 54.6923 74.9948 59.8024 68.6416 59.8024C65.465 59.8024 62.4266 58.4213 60.0787 55.9353C59.8024 55.521 59.1119 55.521 58.8357 55.9353C56.9021 58.2832 53.7255 59.6643 50.549 59.6643C44.0577 59.9405 39.0857 54.8304 39.0857 48.6154ZM48.3392 77.2045C47.6486 77.2045 47.0962 76.6521 47.0962 75.9615C47.0962 75.271 47.6486 74.7185 48.3392 74.7185C48.7535 74.7185 49.0297 74.8566 49.3059 75.1329C49.5822 75.4091 49.9965 75.5472 50.2727 75.4091C50.549 75.271 50.8252 74.9947 50.8252 74.5804C50.6871 72.9231 52.0682 71.6801 53.5874 71.6801C55.1066 71.6801 56.2115 72.785 56.3497 74.3042V77.3427H48.7535C48.6154 77.2045 48.4773 77.2045 48.3392 77.2045ZM16.4353 58.1451H11.1871V37.2902H16.4353V58.1451ZM16.4353 35.6329H11.1871V33.0087H16.4353V35.6329ZM11.1871 59.9405H16.4353V62.5647H11.1871V59.9405ZM16.4353 25.1363V31.0752H11.1871V24.9982H16.4353V25.1363ZM11.1871 64.3601H16.4353V72.0944H11.1871V64.3601ZM5.11014 77.3427V73.8899C10.4965 73.8899 17.1259 73.8899 22.5122 73.8899V77.3427H5.11014ZM58.1451 77.3427V58.9738C58.5594 58.6975 58.9738 58.2832 59.3881 57.8689C59.8024 58.2832 60.2168 58.6975 60.6311 58.9738V77.2045H58.1451V77.3427Z" fill="white"/>
<path d="M30.2461 26.7934C30.2461 27.2078 30.6604 27.6221 31.0748 27.6221C33.0083 27.6221 34.5276 29.1413 34.5276 31.0749C34.5276 31.4892 34.9419 31.9036 35.3562 31.9036C35.7706 31.9036 36.1849 31.4892 36.1849 31.0749C36.1849 28.1746 33.837 25.8267 30.9367 25.8267C30.7985 25.9648 30.2461 26.3791 30.2461 26.7934Z" fill="white"/>
<path d="M49.5837 45.9912C47.6501 45.9912 46.1309 47.5104 46.1309 49.444C46.1309 49.8583 46.5452 50.2727 46.9595 50.2727C47.3739 50.2727 47.7882 49.8583 47.7882 49.444C47.7882 48.4772 48.6169 47.6486 49.5837 47.6486C50.5504 47.6486 51.3791 48.4772 51.3791 49.444C51.3791 49.8583 51.7934 50.2727 52.2078 50.2727C52.6221 50.2727 53.0365 49.8583 53.0365 49.444C53.0365 47.6486 51.3791 45.9912 49.5837 45.9912Z" fill="white"/>
<path d="M61.5979 51.2395C61.5979 50.8252 61.1835 50.4108 60.7692 50.4108C59.8024 50.4108 58.9737 49.5822 58.9737 48.6154C58.9737 47.6486 59.8024 46.8199 60.7692 46.8199C61.1835 46.8199 61.5979 46.4056 61.5979 45.9913C61.5979 45.5769 61.1835 45.1626 60.7692 45.1626C58.8356 45.1626 57.3164 46.6818 57.3164 48.6154C57.3164 50.549 58.8356 52.0682 60.7692 52.0682C61.1835 52.0682 61.5979 51.792 61.5979 51.2395Z" fill="white"/>
<path d="M69.8834 43.3668C69.469 43.3668 69.0547 43.7812 69.0547 44.1955C69.0547 44.6099 69.469 45.0242 69.8834 45.0242C71.5407 45.0242 72.9218 43.6431 72.9218 41.9857C72.9218 40.3284 71.5407 38.9473 69.8834 38.9473C69.469 38.9473 69.0547 39.3616 69.0547 39.7759C69.0547 40.1903 69.469 40.6046 69.8834 40.6046C70.5739 40.6046 71.1264 41.1571 71.1264 41.8476C71.1264 42.5382 70.712 43.3668 69.8834 43.3668Z" fill="white"/>
<path d="M54.2767 39.0858C54.6911 39.0858 55.1054 38.6715 55.1054 38.2571C55.1054 37.8428 54.6911 37.4285 54.2767 37.4285C52.6194 37.4285 51.2383 38.8096 51.2383 40.4669C51.2383 42.1243 52.6194 43.5054 54.2767 43.5054C54.6911 43.5054 55.1054 43.0911 55.1054 42.6767C55.1054 42.2624 54.6911 41.848 54.2767 41.848C53.5862 41.848 53.0337 41.2956 53.0337 40.605C53.0337 39.6383 53.5862 39.0858 54.2767 39.0858Z" fill="white"/>
<path d="M62.0123 33.8376C61.5979 33.8376 61.1836 34.2519 61.1836 34.6662C61.1836 35.0806 61.5979 35.4949 62.0123 35.4949C63.6696 35.4949 65.0507 34.1138 65.0507 32.4564C65.0507 30.7991 63.6696 29.418 62.0123 29.418C61.5979 29.418 61.1836 29.8323 61.1836 30.2466C61.1836 30.661 61.5979 31.0753 62.0123 31.0753C62.7028 31.0753 63.2553 31.6278 63.2553 32.3183C63.3934 33.2851 62.7028 33.8376 62.0123 33.8376Z" fill="white"/>
<path d="M53.8624 25.1362C52.4813 25.1362 51.2383 26.2411 51.2383 27.7604C51.2383 28.1747 51.6526 28.589 52.067 28.589C52.4813 28.589 52.8956 28.1747 52.8956 27.7604C52.8956 27.346 53.31 26.9317 53.7243 26.9317C54.1386 26.9317 54.553 27.346 54.553 27.7604C54.553 28.1747 54.9673 28.589 55.3816 28.589C55.796 28.589 56.2103 28.1747 56.2103 27.7604C56.4865 26.2411 55.2435 25.1362 53.8624 25.1362Z" fill="white"/>
<path d="M61.1835 13.8112H75.9615C78.1713 13.8112 79.9668 12.0157 79.9668 9.80595C79.9668 8.97727 79.6905 8.1486 79.1381 7.45805C79.6905 6.62937 80.1049 5.66259 80.1049 4.69581C80.1049 2.07168 78.0332 0 75.4091 0C73.7517 0 72.3706 0.828672 71.5419 2.20979C67.951 0.138112 63.2552 2.07168 62.1503 6.07693C59.6643 5.52448 57.3164 7.45804 57.3164 9.94406C57.3164 12.0157 59.1119 13.8112 61.1835 13.8112ZM75.4091 1.65734C77.757 1.65734 79.1381 4.28147 77.757 6.21504C76.6521 5.66259 75.4091 5.66259 74.3042 6.07693C74.0279 4.97203 73.4755 3.86713 72.7849 3.03846C73.3374 2.3479 74.3042 1.65734 75.4091 1.65734ZM62.2884 7.87238C62.8409 8.1486 63.5314 7.87238 63.5314 7.18182C63.6696 4.83392 65.6031 2.90035 68.0891 2.90035C70.7133 2.90035 72.7849 4.97203 72.6468 7.73427C72.6468 8.1486 72.7849 8.42483 73.1993 8.56294C73.4755 8.70105 73.8898 8.56294 74.1661 8.28671C74.5804 7.87238 75.1328 7.45805 75.8234 7.45805C77.0664 7.45805 78.0332 8.42483 78.0332 9.66783C78.0332 10.9108 77.0664 11.8776 75.8234 11.8776H61.1835C59.9405 11.8776 58.9737 10.9108 58.9737 9.66783C58.9737 8.1486 60.9073 7.04371 62.2884 7.87238Z" fill="white"/>
<path d="M38.1177 8.56286H46.9569C47.3712 8.56286 47.7856 8.14853 47.7856 7.73419C47.7856 7.31985 47.3712 6.90552 46.9569 6.90552H38.1177C37.7034 6.90552 37.2891 7.31985 37.2891 7.73419C37.2891 8.14853 37.7034 8.56286 38.1177 8.56286Z" fill="white"/>
<path d="M42.5377 5.10966H56.487C56.9013 5.10966 57.3156 4.69533 57.3156 4.28099C57.3156 3.86665 56.9013 3.31421 56.487 3.31421H42.5377C42.1233 3.31421 41.709 3.72854 41.709 4.14288C41.709 4.55721 41.9852 5.10966 42.5377 5.10966Z" fill="white"/>
</svg>
