<svg width="15" height="16" viewBox="0 0 15 16" fill="none" xmlns="http://www.w3.org/2000/svg">
<path d="M15 8C15 12.1421 11.6421 15.5 7.5 15.5C3.35786 15.5 0 12.1421 0 8C0 3.85786 3.35786 0.5 7.5 0.5C11.6421 0.5 15 3.85786 15 8Z" fill="#F2994A"/>
<path fill-rule="evenodd" clip-rule="evenodd" d="M2.29289 5.79289C2.68342 5.40237 3.31658 5.40237 3.70711 5.79289L7.5 9.58579L11.2929 5.79289C11.6834 5.40237 12.3166 5.40237 12.7071 5.79289C13.0976 6.18342 13.0976 6.81658 12.7071 7.20711L8.20711 11.7071C8.01957 11.8946 7.76522 12 7.5 12C7.23478 12 6.98043 11.8946 6.79289 11.7071L2.29289 7.20711C1.90237 6.81658 1.90237 6.18342 2.29289 5.79289Z" fill="white"/>
</svg>
