<svg viewBox="0 0 20 20" xmlns="http://www.w3.org/2000/svg">
<path fill-rule="evenodd" clip-rule="evenodd" d="M10 1.75C5.44365 1.75 1.75 5.44365 1.75 10C1.75 14.5563 5.44365 18.25 10 18.25C14.5563 18.25 18.25 14.5563 18.25 10C18.25 5.44365 14.5563 1.75 10 1.75ZM0.25 10C0.25 4.61522 4.61522 0.25 10 0.25C15.3848 0.25 19.75 4.61522 19.75 10C19.75 15.3848 15.3848 19.75 10 19.75C4.61522 19.75 0.25 15.3848 0.25 10ZM10.4697 5.46967C10.7626 5.17678 11.2374 5.17678 11.5303 5.46967L15.5303 9.46967C15.8232 9.76256 15.8232 10.2374 15.5303 10.5303L11.5303 14.5303C11.2374 14.8232 10.7626 14.8232 10.4697 14.5303C10.1768 14.2374 10.1768 13.7626 10.4697 13.4697L13.1893 10.75L5 10.75C4.58579 10.75 4.25 10.4142 4.25 10C4.25 9.58579 4.58579 9.25 5 9.25L13.1893 9.25L10.4697 6.53033C10.1768 6.23744 10.1768 5.76256 10.4697 5.46967Z" />
</svg>
