<svg viewBox="0 0 19 19" xmlns="http://www.w3.org/2000/svg">
<path fill-rule="evenodd" clip-rule="evenodd" d="M11.2545 0.917256C11.3002 0.505576 11.671 0.208917 12.0827 0.254652C13.8074 0.446249 15.3375 1.27852 16.5299 2.4694C17.7237 3.66177 18.5516 5.19372 18.7452 6.91632C18.7914 7.32794 18.4953 7.69912 18.0836 7.74537C17.672 7.79163 17.3008 7.49544 17.2546 7.08381C17.104 5.74378 16.4566 4.51622 15.4699 3.53073C14.4817 2.54375 13.2555 1.89416 11.9171 1.74548C11.5054 1.69975 11.2087 1.32894 11.2545 0.917256ZM5.23277 2.00602C5.03778 1.83866 4.7882 1.74759 4.53054 1.75012L4.52317 1.75019V1.75015H1.80846C1.20975 1.75089 0.699931 2.30521 0.753933 2.90162C0.755987 2.9243 0.757006 2.94707 0.756989 2.96984C0.750249 11.5231 7.41614 18.2497 16.0257 18.243C16.0484 18.243 16.0711 18.244 16.0937 18.246C16.6975 18.3005 17.2518 17.7852 17.2493 17.1895L17.2493 17.1865V14.4767L17.2496 14.4581C17.256 14.1995 17.167 13.9473 16.9991 13.7495C16.8953 13.6272 16.6781 13.4656 16.3277 13.2976C15.9897 13.1355 15.5798 12.9922 15.1484 12.8801C14.2499 12.6466 13.4182 12.5884 13.0412 12.6686C12.8111 12.7176 12.5685 12.8685 12.2752 13.1446C12.1317 13.2798 11.9909 13.4303 11.8395 13.5954C11.8188 13.618 11.7977 13.6411 11.7762 13.6645C11.648 13.8048 11.5088 13.957 11.3702 14.0953C11.1316 14.3334 10.7634 14.3831 10.4702 14.2167C8.08712 12.8643 6.11375 10.8949 4.75847 8.51618C4.59108 8.22239 4.64098 7.85291 4.88032 7.61405C5.01888 7.47576 5.17138 7.33685 5.3119 7.20884C5.33537 7.18746 5.35852 7.16638 5.3812 7.14566C5.54659 6.99459 5.69739 6.85409 5.83287 6.71081C6.1097 6.41801 6.26045 6.1762 6.3093 5.94761C6.38936 5.57296 6.33153 4.74713 6.09904 3.85289C5.98747 3.42371 5.84484 3.01564 5.68355 2.67851C5.51645 2.32922 5.35536 2.11124 5.23277 2.00602ZM4.51981 0.250154C5.13918 0.245036 5.73966 0.464343 6.20971 0.86779C6.56053 1.1689 6.83062 1.60045 7.03668 2.03116C7.24855 2.47403 7.42105 2.97643 7.55079 3.47547C7.80093 4.43766 7.93044 5.53922 7.77618 6.26107C7.64209 6.88857 7.26989 7.37427 6.92282 7.74134C6.74635 7.92799 6.55996 8.10052 6.39282 8.25319C6.38326 8.26193 6.37378 8.27058 6.36438 8.27915C7.46534 10.0317 8.94987 11.5131 10.7064 12.6117C10.7155 12.6017 10.7247 12.5917 10.734 12.5816C10.887 12.4148 11.0598 12.2288 11.2469 12.0526C11.6148 11.7061 12.1011 11.3351 12.7289 11.2015C13.4522 11.0475 14.5588 11.1771 15.5257 11.4283C16.027 11.5586 16.5317 11.7319 16.9762 11.945C17.4083 12.1522 17.8417 12.4243 18.1426 12.7787C18.5465 13.2545 18.7624 13.8615 18.7493 14.4853V17.185M10.7638 4.35644C10.8431 3.9499 11.237 3.68463 11.6435 3.76394C12.4864 3.92841 13.3676 4.30715 14.0302 4.96973C14.6928 5.63232 15.0715 6.51351 15.236 7.35644C15.3153 7.76299 15.05 8.15687 14.6435 8.23618C14.237 8.3155 13.8431 8.05023 13.7638 7.64369C13.6406 7.01231 13.3691 6.42996 12.9696 6.0304C12.57 5.63083 11.9876 5.35937 11.3563 5.23619C10.9497 5.15687 10.6844 4.76299 10.7638 4.35644Z"/>
</svg>
