<svg width="45" height="45" viewBox="0 0 45 45" fill="none" xmlns="http://www.w3.org/2000/svg">
<path d="M45 22.5C45 34.9264 34.9264 45 22.5 45C10.0736 45 0 34.9264 0 22.5C0 10.0736 10.0736 0 22.5 0C34.9264 0 45 10.0736 45 22.5Z" fill="#864CB2"/>
<path d="M18.0286 32.2798C18.0286 31.9673 18.014 31.6532 18.0335 31.3407C18.0497 31.088 17.9588 30.9736 17.7299 30.8951C16.3012 30.4033 15.1875 29.4881 14.4293 28.1119C13.9016 27.1541 13.5915 26.1143 13.4503 25.0249C13.1353 22.5833 13.1418 20.1451 13.6354 17.7273C13.8805 16.5253 14.3497 15.4206 15.1274 14.4815C15.6908 13.7985 16.41 13.3495 17.1828 12.9926C18.4848 12.3916 19.8648 12.1252 21.2741 11.9869C22.3001 11.8862 23.3278 11.9016 24.3523 11.9477C26.0667 12.0262 27.7341 12.337 29.3186 13.0814C30.8577 13.8036 31.8432 15.0262 32.3903 16.6738C32.7832 17.8554 32.9651 19.0779 33.0446 20.3226C33.1534 22.0352 33.0527 23.7341 32.8124 25.4262C32.6274 26.7306 32.1923 27.9395 31.3919 28.9776C30.7019 29.8723 29.8252 30.4836 28.7958 30.8541C27.3006 31.3936 25.7566 31.6429 24.1802 31.7283C23.357 31.7727 22.5404 31.7334 21.7222 31.6993C21.5777 31.6924 21.4851 31.742 21.3974 31.8512C20.8942 32.471 20.3876 33.0891 19.8778 33.7038C19.6944 33.9258 19.5028 34.1426 19.2544 34.2877C18.7836 34.5626 18.2998 34.368 18.1244 33.8319C17.9588 33.3247 18.0481 32.7971 18.0286 32.2798ZM18.7982 33.5348C18.8615 33.4852 18.8842 33.4733 18.9021 33.4528C19.7479 32.4659 20.6035 31.4893 21.4332 30.4887C21.6962 30.1728 21.9592 30.0209 22.3797 30.0396C24.2305 30.1216 26.0537 29.9133 27.838 29.3669C28.6059 29.1313 29.2943 28.7591 29.8657 28.1632C30.6726 27.3197 31.0948 26.2713 31.2782 25.1171C31.525 23.5599 31.6175 21.9925 31.5088 20.4131C31.4325 19.3101 31.2733 18.2259 30.8983 17.1878C30.5541 16.2333 30.046 15.4069 29.1774 14.8862C28.4338 14.4405 27.6367 14.1451 26.8038 13.9522C25.151 13.5663 23.4788 13.5083 21.7985 13.6022C20.6393 13.6671 19.5077 13.8805 18.4118 14.2937C16.8418 14.8862 15.8044 16.0062 15.3125 17.6881C15.056 18.564 14.9163 19.4587 14.8774 20.3721C14.8108 21.9379 14.7572 23.5019 15.0625 25.0505C15.4651 27.0943 16.4733 28.631 18.4102 29.3447C18.73 29.4625 18.8095 29.6247 18.8047 29.956C18.7868 31.1307 18.7982 32.3071 18.7982 33.5348Z" fill="white"/>
<path d="M26.1472 27.8984C25.98 27.9035 25.8274 27.8506 25.6764 27.7857C23.9863 27.0601 22.4618 26.0578 21.163 24.7072C19.619 23.1039 18.4517 21.2428 17.739 19.0727C17.5133 18.388 17.6546 17.845 18.1773 17.3977C18.4144 17.1945 18.6579 16.9964 18.9112 16.8137C19.3755 16.4757 19.8431 16.5235 20.2214 16.9657C20.6987 17.5223 21.1354 18.1165 21.491 18.7705C21.5673 18.9088 21.6257 19.0607 21.6744 19.2127C21.7832 19.5456 21.7394 19.8496 21.4763 20.0937C21.301 20.2576 21.1208 20.4164 20.9438 20.5769C20.7263 20.7767 20.6613 21.0243 20.723 21.3214C20.9325 22.3288 21.525 23.0664 22.2443 23.7135C22.6729 24.0994 23.1437 24.4101 23.6941 24.5757C23.9798 24.6628 24.2087 24.5877 24.3906 24.3469C24.4977 24.2052 24.6016 24.0618 24.7088 23.9218C24.9961 23.5427 25.4118 23.4198 25.8209 23.6349C26.6002 24.0481 27.2772 24.6184 27.9169 25.2348C28.123 25.4346 28.2302 25.7197 28.123 26.0168C27.8406 26.8091 27.36 27.4289 26.6229 27.8028C26.4768 27.8779 26.3128 27.9069 26.1472 27.8984Z" fill="white"/>
<path d="M27.9006 21.7534C27.8535 21.9121 27.9818 22.1717 27.7594 22.1922C27.5126 22.2144 27.6003 21.936 27.5889 21.7943C27.5353 21.0618 27.4444 20.3396 27.1424 19.6703C26.394 18.0124 25.139 17.1143 23.4018 16.9606C23.3125 16.952 23.2216 16.9572 23.1323 16.9469C23.0235 16.9333 22.8985 16.9145 22.9099 16.7591C22.9196 16.6259 23.0317 16.614 23.1339 16.6071C23.3872 16.5901 23.6389 16.631 23.8873 16.6737C26.0417 17.0528 27.6327 18.8524 27.8389 21.1387C27.8584 21.347 27.8811 21.5536 27.9006 21.7534Z" fill="white"/>
<path d="M26.6425 21.2958C26.6425 21.3145 26.6441 21.3333 26.6425 21.3521C26.6311 21.4802 26.6652 21.656 26.4915 21.6646C26.3129 21.6731 26.3243 21.4955 26.321 21.3692C26.3129 21.0465 26.2885 20.7255 26.1911 20.4164C25.8177 19.2366 25.0433 18.5485 23.8825 18.3334C23.7493 18.3095 23.6146 18.2907 23.4831 18.2668C23.3857 18.248 23.3061 18.1951 23.3224 18.079C23.3386 17.9611 23.4311 17.9407 23.5286 17.9492C24.9361 18.0585 26.1473 18.9002 26.5304 20.483C26.5938 20.7477 26.6165 21.0226 26.6587 21.2941C26.6538 21.2941 26.6473 21.2958 26.6425 21.2958Z" fill="white"/>
<path d="M23.9491 19.3408C24.7609 19.3783 25.4135 20.1125 25.3989 20.9645C25.3973 21.0687 25.4005 21.1933 25.2739 21.2138C25.1148 21.2411 25.1164 21.0943 25.0937 20.9884C25.0547 20.8126 25.0401 20.6299 24.9833 20.4626C24.842 20.0442 24.5433 19.8052 24.1374 19.7079C24.0676 19.6908 23.9929 19.6891 23.9247 19.6703C23.8176 19.6396 23.6617 19.6413 23.6942 19.462C23.7169 19.3135 23.8533 19.3459 23.9491 19.3408Z" fill="white"/>
</svg>
