<svg viewBox="0 0 73 53" xmlns="http://www.w3.org/2000/svg">
<path fill-rule="evenodd" clip-rule="evenodd" d="M26.5 2C12.969 2 2 12.969 2 26.5C2 40.031 12.969 51 26.5 51C40.031 51 51 40.031 51 26.5C51 12.969 40.031 2 26.5 2ZM26.5 0C11.8645 0 0 11.8645 0 26.5C0 41.1355 11.8645 53 26.5 53C41.1355 53 53 41.1355 53 26.5C53 11.8645 41.1355 0 26.5 0Z" />
<path fill-rule="evenodd" clip-rule="evenodd" d="M31.1569 33.0711L24.7929 26.7072C24.4024 26.3166 24.4024 25.6835 24.7929 25.2929L31.1569 18.929C31.5474 18.5385 32.1805 18.5385 32.5711 18.929C32.9616 19.3195 32.9616 19.9527 32.5711 20.3432L27.9142 25.0001L72.5 25.0001V27.0001L27.9142 27.0001L32.5711 31.6569C32.9616 32.0474 32.9616 32.6806 32.5711 33.0711C32.1805 33.4616 31.5474 33.4616 31.1569 33.0711Z" />
</svg>
