<svg viewBox="0 0 18 20" xmlns="http://www.w3.org/2000/svg">
<path fill-rule="evenodd" clip-rule="evenodd" d="M9 1.75C4.99594 1.75 1.75 4.99594 1.75 9C1.75 12.8862 4.84584 16.203 9 18.1734C13.1542 16.203 16.25 12.8862 16.25 9C16.25 4.99594 13.0041 1.75 9 1.75ZM0.25 9C0.25 4.16751 4.16751 0.25 9 0.25C13.8325 0.25 17.75 4.16751 17.75 9C17.75 13.8545 13.837 17.6337 9.30929 19.6833C9.1127 19.7722 8.8873 19.7722 8.69071 19.6833C4.163 17.6337 0.25 13.8545 0.25 9ZM9 6.75C7.75736 6.75 6.75 7.75736 6.75 9C6.75 10.2426 7.75736 11.25 9 11.25C10.2426 11.25 11.25 10.2426 11.25 9C11.25 7.75736 10.2426 6.75 9 6.75ZM5.25 9C5.25 6.92893 6.92893 5.25 9 5.25C11.0711 5.25 12.75 6.92893 12.75 9C12.75 11.0711 11.0711 12.75 9 12.75C6.92893 12.75 5.25 11.0711 5.25 9Z" />
</svg>
