<svg viewBox="0 0 19 19" xmlns="http://www.w3.org/2000/svg">
<path fill-rule="evenodd" clip-rule="evenodd" d="M1 6.25C1 4.04086 2.79086 2.25 5 2.25H14C16.2091 2.25 18 4.04086 18 6.25V14.5C18 16.7091 16.2091 18.5 14 18.5H5C2.79086 18.5 1 16.7091 1 14.5V6.25ZM5 4.25C3.89543 4.25 3 5.14543 3 6.25V14.5C3 15.6046 3.89543 16.5 5 16.5H14C15.1046 16.5 16 15.6046 16 14.5V6.25C16 5.14543 15.1046 4.25 14 4.25H5Z" />
<path fill-rule="evenodd" clip-rule="evenodd" d="M5.75 0.75C6.30228 0.75 6.75 1.19772 6.75 1.75V3.25C6.75 3.80228 6.30228 4.25 5.75 4.25C5.19772 4.25 4.75 3.80228 4.75 3.25V1.75C4.75 1.19772 5.19772 0.75 5.75 0.75Z" />
<path fill-rule="evenodd" clip-rule="evenodd" d="M13.25 0.75C13.8023 0.75 14.25 1.19772 14.25 1.75V3.25C14.25 3.80228 13.8023 4.25 13.25 4.25C12.6977 4.25 12.25 3.80228 12.25 3.25V1.75C12.25 1.19772 12.6977 0.75 13.25 0.75Z" />
<path fill-rule="evenodd" clip-rule="evenodd" d="M1 7C1 6.44772 1.44772 6 2 6H17C17.5523 6 18 6.44772 18 7C18 7.55228 17.5523 8 17 8H2C1.44772 8 1 7.55228 1 7Z" />
<path fill-rule="evenodd" clip-rule="evenodd" d="M4.375 10.75C4.375 10.1977 4.82272 9.75 5.375 9.75H6.125C6.67728 9.75 7.125 10.1977 7.125 10.75C7.125 11.3023 6.67728 11.75 6.125 11.75H5.375C4.82272 11.75 4.375 11.3023 4.375 10.75Z" />
<path fill-rule="evenodd" clip-rule="evenodd" d="M8.125 10.75C8.125 10.1977 8.57272 9.75 9.125 9.75H9.875C10.4273 9.75 10.875 10.1977 10.875 10.75C10.875 11.3023 10.4273 11.75 9.875 11.75H9.125C8.57272 11.75 8.125 11.3023 8.125 10.75Z" />
<path fill-rule="evenodd" clip-rule="evenodd" d="M11.875 10.75C11.875 10.1977 12.3227 9.75 12.875 9.75H13.625C14.1773 9.75 14.625 10.1977 14.625 10.75C14.625 11.3023 14.1773 11.75 13.625 11.75H12.875C12.3227 11.75 11.875 11.3023 11.875 10.75Z" />
<path fill-rule="evenodd" clip-rule="evenodd" d="M4.375 13.75C4.375 13.1977 4.82272 12.75 5.375 12.75H6.125C6.67728 12.75 7.125 13.1977 7.125 13.75C7.125 14.3023 6.67728 14.75 6.125 14.75H5.375C4.82272 14.75 4.375 14.3023 4.375 13.75Z" />
<path fill-rule="evenodd" clip-rule="evenodd" d="M8.125 13.75C8.125 13.1977 8.57272 12.75 9.125 12.75H9.875C10.4273 12.75 10.875 13.1977 10.875 13.75C10.875 14.3023 10.4273 14.75 9.875 14.75H9.125C8.57272 14.75 8.125 14.3023 8.125 13.75Z"/>
<path fill-rule="evenodd" clip-rule="evenodd" d="M11.875 13.75C11.875 13.1977 12.3227 12.75 12.875 12.75H13.625C14.1773 12.75 14.625 13.1977 14.625 13.75C14.625 14.3023 14.1773 14.75 13.625 14.75H12.875C12.3227 14.75 11.875 14.3023 11.875 13.75Z"/>
</svg>
