<svg width="62" height="62" viewBox="0 0 62 62" fill="none" xmlns="http://www.w3.org/2000/svg">
<g id="solar:presentation-graph-broken">
<g id="Group">
<path id="Vector" d="M5.16663 5.16663H56.8333M23.25 27.125L26.5902 23.7847C27.4505 22.9245 27.8819 22.493 28.4166 22.493C28.9514 22.493 29.3828 22.9245 30.243 23.7847L31.7569 25.2985C32.6171 26.1588 33.0485 26.5902 33.5833 26.5902C34.118 26.5902 34.5495 26.1588 35.4097 25.2985L38.75 21.9583M31 54.25V43.9166M31 54.25L25.8333 56.8333M31 54.25L36.1666 56.8333" stroke="#F39314" stroke-width="3" stroke-linecap="round"/>
<path id="Vector_2" d="M10.3333 5.16663V27.125C10.3333 35.0403 10.3333 38.998 12.9269 41.4573C15.5206 43.9166 19.6953 43.9166 28.0472 43.9166H33.9527C42.302 43.9166 46.4793 43.9166 49.0729 41.4573C51.6666 38.998 51.6666 35.0403 51.6666 27.125V25.8333M51.6666 5.16663V15.5" stroke="#2AA7A4" stroke-width="3" stroke-linecap="round"/>
</g>
</g>
</svg>
