<svg width="36" height="45" viewBox="0 0 36 45" fill="none" xmlns="http://www.w3.org/2000/svg">
<path d="M3.76789 44.77C3.32957 44.6256 2.87084 44.5262 2.45838 44.3273C0.903859 43.5766 0 42.3818 0 40.5904C0.00272246 30.5119 -0.00408253 20.4334 0.00544609 10.3549C0.00816855 7.85911 2.0119 5.89055 4.51384 5.87556C5.82062 5.86875 7.12877 5.8742 8.4968 5.8742C8.4968 5.32791 8.49544 4.80886 8.4968 4.29118C8.49952 3.63862 8.75408 3.29123 9.41019 3.25172C10.3957 3.19041 11.3867 3.19859 12.3749 3.20404C12.6663 3.2054 12.8065 3.11276 12.929 2.84711C13.8532 0.843124 15.8502 -0.275347 18.2854 0.0584234C20.1081 0.307729 21.4326 1.25046 22.1785 2.96563C22.2275 3.0787 22.4358 3.18224 22.5719 3.18497C23.4159 3.2054 24.2599 3.19041 25.1038 3.19859C25.3502 3.20131 25.6007 3.2163 25.8402 3.26398C26.3725 3.3716 26.6298 3.69992 26.6352 4.24758C26.6406 4.74211 26.6393 5.23799 26.642 5.73252C26.642 5.75976 26.6556 5.78701 26.6801 5.87284C26.8176 5.87284 26.9728 5.87284 27.1266 5.87284C28.2768 5.87284 29.4257 5.86875 30.576 5.8742C33.1541 5.8851 35.1293 7.85775 35.1293 10.4421C35.1334 20.462 35.1116 30.4819 35.1456 40.5032C35.1538 42.7756 33.4795 44.2973 31.6473 44.6787C31.5506 44.6992 31.4594 44.7387 31.3641 44.77C22.1676 44.77 12.9671 44.77 3.76789 44.77ZM8.4968 8.05665C6.99945 8.05665 5.56063 8.05529 4.12317 8.05937C4.05238 8.05937 3.9816 8.08662 3.91218 8.10569C2.79461 8.41222 2.13577 9.31408 2.13577 10.5483C2.13441 20.5097 2.13577 30.4724 2.13577 40.4337C2.13577 40.5059 2.13577 40.5795 2.13713 40.6517C2.15211 41.3887 2.50194 41.9159 3.13083 42.2797C3.64265 42.5767 4.1994 42.6203 4.77248 42.6203C13.3006 42.6175 21.8273 42.6189 30.3554 42.6175C30.5732 42.6175 30.7924 42.6135 31.0088 42.5944C32.2353 42.4908 32.9976 41.668 32.9976 40.4392C32.999 30.4628 32.999 20.4865 32.9976 10.5102C32.9976 9.03752 32.0121 8.04847 30.5379 8.03621C29.4611 8.02668 28.3844 8.03485 27.3076 8.03485C27.0953 8.03485 26.8843 8.03485 26.6393 8.03485C26.6393 8.86723 26.6406 9.63559 26.6393 10.4053C26.6366 11.2704 26.1928 11.7377 25.3339 11.739C20.1394 11.7431 14.9436 11.7431 9.74777 11.739C8.92151 11.7377 8.50225 11.2935 8.49817 10.4557C8.49408 9.67101 8.4968 8.8863 8.4968 8.05665ZM24.4504 5.34834C23.537 5.34834 22.6522 5.34834 21.7674 5.34834C20.8935 5.34834 20.5913 5.11402 20.349 4.25303C19.9556 2.85528 18.706 1.94389 17.2904 2.02154C16.0612 2.08965 14.9735 3.03102 14.6019 4.35112C14.3937 5.0895 14.0533 5.34834 13.2843 5.34834C12.6445 5.34834 12.0033 5.34834 11.3636 5.34834C11.1376 5.34834 10.9103 5.34834 10.6816 5.34834C10.6816 6.78968 10.6816 8.16836 10.6816 9.57564C15.2771 9.57564 19.8522 9.57564 24.4504 9.57564C24.4504 8.17244 24.4504 6.79377 24.4504 5.34834Z" fill="#2AA7A4"/>
<path d="M22.6322 17.5902C24.6114 17.5902 26.5906 17.5888 28.5699 17.5902C29.324 17.5902 29.7936 17.9935 29.8045 18.6406C29.8154 19.3108 29.343 19.7495 28.5753 19.7495C24.6019 19.7536 20.6298 19.7536 16.6564 19.7495C15.9295 19.7481 15.434 19.2972 15.4326 18.6664C15.4313 18.0248 15.9172 17.5916 16.6509 17.5902C18.6451 17.5888 20.6393 17.5902 22.6322 17.5902Z" fill="#F39314"/>
<path d="M22.6363 34.6358C24.6305 34.6358 26.6233 34.633 28.6175 34.6371C29.3471 34.6385 29.814 35.0799 29.8045 35.7379C29.7977 36.197 29.5227 36.5852 29.0844 36.7228C28.9211 36.7746 28.7427 36.8005 28.5712 36.8005C24.6128 36.8046 20.6543 36.8046 16.6959 36.8018C16.0534 36.8018 15.611 36.5062 15.4789 36.0131C15.2788 35.2706 15.7906 34.6398 16.6128 34.6371C18.6206 34.6317 20.6284 34.6358 22.6363 34.6358Z" fill="#F39314"/>
<path d="M22.5887 28.2531C20.5659 28.2531 18.5431 28.2572 16.5217 28.2504C15.9622 28.2491 15.5593 27.9098 15.464 27.4017C15.366 26.8799 15.6233 26.3622 16.1051 26.2042C16.3474 26.1252 16.6197 26.1143 16.8783 26.1143C20.7047 26.1088 24.5325 26.1102 28.3589 26.1116C28.5468 26.1116 28.7387 26.1184 28.9238 26.1456C29.418 26.2206 29.7664 26.6006 29.8005 27.0843C29.8372 27.6115 29.5636 28.057 29.0858 28.2C28.9089 28.2518 28.7129 28.2531 28.5264 28.2531C26.5471 28.2572 24.5679 28.2559 22.59 28.2559C22.5887 28.2545 22.5887 28.2531 22.5887 28.2531Z" fill="#F39314"/>
<path d="M8.60962 35.4995C9.68908 34.4723 10.7753 33.4423 11.8562 32.407C12.2237 32.0555 12.6321 31.8947 13.1235 32.11C13.8476 32.4274 14.0491 33.2843 13.4842 33.8347C12.0971 35.1848 10.6882 36.513 9.27118 37.8318C8.80156 38.2691 8.25434 38.2282 7.79561 37.7677C7.09593 37.0675 6.40443 36.3591 5.71837 35.6452C5.22697 35.133 5.20246 34.4368 5.64214 34.0077C6.06957 33.5908 6.73112 33.6467 7.23206 34.148C7.45802 34.3742 7.67173 34.614 7.89906 34.8387C8.11686 35.0526 8.34554 35.2542 8.60962 35.4995Z" fill="#F39314"/>
<path d="M8.59149 18.4703C9.69272 17.4213 10.7776 16.39 11.8612 15.3546C12.2151 15.0168 12.6071 14.8547 13.089 15.0508C13.8404 15.3587 14.0582 16.2292 13.4797 16.7919C12.0912 18.1419 10.6823 19.4689 9.2653 20.7876C8.80928 21.2126 8.26343 21.1813 7.82239 20.7426C7.10094 20.0233 6.38629 19.2972 5.6839 18.5588C5.217 18.067 5.21427 17.3709 5.64851 16.954C6.07185 16.548 6.72116 16.5957 7.20712 17.0752C7.43444 17.3 7.64815 17.5398 7.87412 17.7673C8.09872 17.9935 8.32877 18.2142 8.59149 18.4703Z" fill="#F39314"/>
<path d="M8.64131 26.948C9.62957 26.0053 10.6478 25.0326 11.6687 24.0626C11.8266 23.9127 11.9831 23.7534 12.1655 23.6416C12.6216 23.3624 13.2137 23.4972 13.569 23.9359C13.9066 24.3528 13.9106 24.8923 13.5104 25.2805C12.1111 26.636 10.6995 27.9793 9.27564 29.3103C8.83733 29.7203 8.24656 29.6931 7.82457 29.2735C7.09359 28.5447 6.3735 27.8036 5.6643 27.0543C5.22054 26.5856 5.22462 25.8868 5.64116 25.4821C6.07131 25.0653 6.69884 25.1116 7.19568 25.5884C7.65714 26.0298 8.12541 26.4644 8.64131 26.948Z" fill="#F39314"/>
</svg>
