<svg width="40" height="41" viewBox="0 0 40 41" fill="none" xmlns="http://www.w3.org/2000/svg">
<path d="M1.87469 40.0335C1.71033 39.9649 1.54108 39.9042 1.38162 39.8259C0.466898 39.3726 0.00220093 38.6334 0.00122262 37.6092C0.000244309 34.2078 0.000244846 30.8065 0.000244846 27.4051C0.000244846 19.0906 -0.000734001 10.776 0.00122262 2.46252C0.00122262 1.2269 0.69778 0.323192 1.86099 0.0510021C2.04785 0.00694262 2.24742 0.00204713 2.44113 0.00204713C11.8535 8.89297e-05 21.2658 -0.000891125 30.6781 0.00106707C32.1133 0.00106707 33.1151 0.996811 33.117 2.42336C33.1209 5.1991 33.119 7.97485 33.117 10.7506C33.117 11.2372 32.8725 11.5466 32.4498 11.6239C32.1299 11.6827 31.7572 11.4869 31.631 11.1599C31.5723 11.0081 31.5605 10.8299 31.5605 10.6644C31.5557 9.1527 31.5576 7.64097 31.5576 6.12925C31.5576 4.96901 31.5586 3.80976 31.5576 2.64953C31.5566 1.84863 31.2759 1.56371 30.4815 1.56273C27.0055 1.56175 23.5296 1.56273 20.0537 1.56273C14.2738 1.56273 8.49296 1.56273 2.7131 1.56273C1.81305 1.56273 1.56163 1.81827 1.56163 2.73079C1.56163 14.2509 1.56163 25.7709 1.56163 37.291C1.56163 38.2251 1.80718 38.4699 2.74147 38.4699C11.9591 38.4699 21.1758 38.4699 30.3934 38.4699C31.3052 38.4699 31.5586 38.2192 31.5586 37.3155C31.5586 35.5433 31.5547 33.7712 31.5615 31.999C31.5635 31.3675 32.0947 30.9797 32.6328 31.2089C32.9478 31.343 33.119 31.5927 33.119 31.9422C33.119 33.9229 33.1307 35.9036 33.1082 37.8843C33.0984 38.7538 32.44 39.5753 31.5958 39.8827C31.4764 39.9258 31.3629 39.9826 31.2465 40.0335C21.4546 40.0335 11.6646 40.0335 1.87469 40.0335Z" fill="#2AA7A4"/>
<path d="M39.9938 13.5263C39.582 14.3742 39.2171 15.2495 38.7494 16.0661C35.8106 21.1995 32.8522 26.3212 29.8879 31.4389C29.7304 31.7111 29.4975 31.9628 29.2451 32.1527C27.7278 33.2943 26.1928 34.4134 24.6666 35.5443C24.3428 35.7842 24.0082 35.9281 23.6257 35.701C23.3264 35.5237 23.2148 35.2398 23.252 34.9001C23.4575 33.0261 23.6844 31.154 23.8635 29.2771C23.9163 28.7219 24.1256 28.2588 24.3947 27.7938C27.5037 22.4136 30.6099 17.0315 33.7101 11.6465C34.2414 10.7242 34.9516 10.0564 36.0209 9.83024C37.8406 9.44545 39.5497 10.5744 39.9224 12.4092C39.9351 12.4709 39.9694 12.5286 39.9938 12.5884C39.9938 12.9007 39.9938 13.214 39.9938 13.5263ZM28.7599 30.2454C31.4004 25.6662 34.0095 21.1418 36.6363 16.588C35.6531 16.0201 34.6806 15.4571 33.6769 14.8775C31.0433 19.442 28.4302 23.9733 25.7986 28.5359C26.7964 29.1116 27.7581 29.6678 28.7599 30.2454ZM37.4356 15.2202C37.7369 14.6768 38.0362 14.2029 38.271 13.6987C38.633 12.9193 38.318 12.0029 37.5803 11.5672C36.8593 11.1412 35.8908 11.2881 35.4026 11.9559C35.0534 12.4327 34.7814 12.9663 34.4586 13.4999C35.4643 14.0815 36.4279 14.6386 37.4356 15.2202ZM25.014 33.3198C25.9228 32.6491 26.7485 32.0391 27.6035 31.4076C26.8444 30.97 26.14 30.5636 25.373 30.1211C25.2527 31.1922 25.1392 32.2036 25.014 33.3198Z" fill="#F39314"/>
<path d="M9.37305 11.3899C9.37794 7.42261 12.6064 4.21508 16.5852 4.22193C20.5512 4.22879 23.7523 7.45786 23.7444 11.4408C23.7366 15.4111 20.5131 18.6147 16.5333 18.6078C12.5702 18.601 9.36816 15.3739 9.37305 11.3899ZM18.8314 12.7861C19.2628 13.0759 19.6786 13.3383 20.0758 13.6262C20.472 13.9131 20.8486 14.2254 21.2165 14.5123C22.862 12.4003 22.3914 8.8707 20.0807 7.0437C17.6398 5.11291 14.1501 5.48008 12.219 7.85048C10.3338 10.1621 10.7985 13.2806 12.0859 14.6777C12.6523 13.8563 13.4105 13.259 14.2969 12.8253C13.7578 11.8227 13.704 11.5867 13.751 10.449C13.797 9.33283 14.5581 8.31065 15.6176 7.94545C16.7329 7.56066 17.9284 7.91314 18.6993 8.75712C19.4966 9.62852 19.661 11.6602 18.8314 12.7861ZM13.2002 15.8664C14.9905 17.3986 18.173 17.3977 19.9183 15.8634C19.1464 14.5955 18.0037 13.9277 16.5382 13.9356C15.0903 13.9424 13.9594 14.6072 13.2002 15.8664ZM17.809 10.824C17.809 10.8005 17.811 10.7349 17.809 10.6703C17.7836 9.89777 17.2729 9.3671 16.5558 9.36808C15.8407 9.36906 15.3378 9.89973 15.3094 10.6781C15.2909 11.1833 15.328 11.6758 15.7487 12.0312C16.1361 12.3582 16.5803 12.4473 17.0528 12.2329C17.6378 11.9676 17.8266 11.4712 17.809 10.824Z" fill="#F39314"/>
<path d="M15.2317 22.675C13.4365 22.675 11.6403 22.6847 9.84612 22.6632C9.59763 22.6603 9.27576 22.5643 9.12413 22.392C8.97444 22.2216 8.89422 21.8594 8.97347 21.6547C9.05956 21.4325 9.35207 21.2758 9.58002 21.1299C9.67394 21.0702 9.83438 21.1123 9.96449 21.1123C13.4776 21.1123 16.9897 21.1123 20.5029 21.1123C20.5938 21.1123 20.6848 21.1094 20.7758 21.1143C21.2415 21.1387 21.5682 21.4736 21.5575 21.9132C21.5477 22.3352 21.2258 22.6642 20.7748 22.6701C19.9423 22.6818 19.1097 22.674 18.2772 22.674C17.2617 22.675 16.2462 22.675 15.2317 22.675Z" fill="#2AA7A4"/>
<path d="M15.2165 27.0537C13.3949 27.0537 11.5733 27.0556 9.75268 27.0517C9.31244 27.0507 8.99645 26.805 8.92014 26.431C8.84481 26.0638 9.04341 25.6859 9.40342 25.5508C9.52082 25.5067 9.65681 25.493 9.78497 25.493C13.4145 25.4901 17.045 25.4891 20.6745 25.492C21.2146 25.492 21.556 25.8014 21.558 26.2684C21.5599 26.7355 21.2165 27.0507 20.6824 27.0517C18.8588 27.0556 17.0382 27.0537 15.2165 27.0537Z" fill="#2AA7A4"/>
<path d="M15.2309 31.432C13.4357 31.432 11.6395 31.4418 9.84532 31.4203C9.59683 31.4173 9.27496 31.3204 9.12332 31.1481C8.97364 30.9777 8.8944 30.6145 8.97364 30.4108C9.05973 30.1886 9.35225 30.0329 9.58117 29.888C9.67509 29.8283 9.83553 29.8704 9.96565 29.8704C13.4788 29.8704 16.9909 29.8704 20.504 29.8704C20.595 29.8704 20.686 29.8674 20.777 29.8723C21.227 29.8968 21.5488 30.2121 21.5576 30.6341C21.5665 31.0747 21.2417 31.4222 20.774 31.4291C19.9151 31.4418 19.0571 31.433 18.1981 31.434C17.2081 31.432 16.219 31.432 15.2309 31.432Z" fill="#2AA7A4"/>
<path d="M18.638 35.8106C17.9747 35.8106 17.3114 35.8145 16.6491 35.8096C16.1179 35.8047 15.7755 35.4865 15.7813 35.0185C15.7872 34.5661 16.1237 34.2528 16.6325 34.2509C17.9845 34.245 19.3365 34.246 20.6885 34.2509C21.2197 34.2528 21.5622 34.573 21.5563 35.042C21.5504 35.5071 21.207 35.8076 20.666 35.8106C19.99 35.8145 19.314 35.8106 18.638 35.8106Z" fill="#2AA7A4"/>
<path d="M7.12291 21.8919C7.12389 22.3178 6.79224 22.6624 6.37059 22.6732C5.946 22.6839 5.56055 22.3148 5.55957 21.8948C5.55859 21.4767 5.94307 21.1037 6.36668 21.1135C6.78833 21.1223 7.12193 21.4659 7.12291 21.8919Z" fill="#F39314"/>
<path d="M7.12313 26.2576C7.12998 26.7002 6.78268 27.0546 6.34538 27.0517C5.93644 27.0487 5.57153 26.6933 5.55979 26.287C5.54903 25.8718 5.93057 25.49 6.35418 25.492C6.77485 25.4939 7.11628 25.8337 7.12313 26.2576Z" fill="#F39314"/>
<path d="M7.12317 30.6353C7.131 31.0788 6.78468 31.4332 6.3464 31.4303C5.93648 31.4284 5.57157 31.0739 5.55983 30.6666C5.5481 30.2515 5.92866 29.8696 6.35324 29.8706C6.7749 29.8726 7.11535 30.2113 7.12317 30.6353Z" fill="#F39314"/>
</svg>
