<svg width="45" height="45" viewBox="0 0 45 45" fill="none" xmlns="http://www.w3.org/2000/svg">
<path d="M45 22.5C45 34.9264 34.9264 45 22.5 45C10.0736 45 0 34.9264 0 22.5C0 10.0736 10.0736 0 22.5 0C34.9264 0 45 10.0736 45 22.5Z" fill="#3ADC49"/>
<path d="M23.1708 34.4119C21.2014 34.4119 19.268 33.8903 17.5593 32.9011L13.1709 34.4119L14.0701 29.7716C12.6583 27.8381 11.9119 25.5629 11.9119 23.1619C11.9119 16.9568 16.9568 11.9119 23.1618 11.9119C29.3669 11.9119 34.4118 16.9568 34.4118 23.1619C34.4298 29.3579 29.3848 34.4119 23.1708 34.4119ZM17.7662 31.0576L18.1079 31.2734C19.6367 32.2356 21.3903 32.7392 23.1798 32.7392C28.4586 32.7392 32.7571 28.4406 32.7571 23.1619C32.7571 17.8831 28.4586 13.5845 23.1798 13.5845C17.8921 13.5755 13.5935 17.8741 13.5935 23.1529C13.5935 25.3022 14.295 27.3345 15.6259 29.0432L15.8597 29.3399L15.3651 31.8759L17.7662 31.0576Z" fill="white"/>
<path d="M17.4963 18.8363C17.4963 18.8363 18.1528 17.6852 18.6924 17.6133C19.2319 17.5503 19.9244 17.5503 20.1132 17.901C20.3021 18.2518 21.1384 20.3021 21.1384 20.3021C21.1384 20.3021 21.2823 20.6528 21.0575 20.9946C20.8326 21.3273 20.338 21.8219 20.338 21.8219C20.338 21.8219 20.0593 22.1726 20.338 22.5503C20.6168 22.928 21.0395 23.6115 21.9208 24.4928C22.8021 25.3741 24.4927 26.0036 24.4927 26.0036C24.4927 26.0036 24.7355 26.0395 24.8884 25.8867C25.0413 25.7338 25.8776 24.6906 25.8776 24.6906C25.8776 24.6906 26.1474 24.3489 26.588 24.5467C27.0287 24.7536 28.9621 25.7158 28.9621 25.7158C28.9621 25.7158 29.1869 25.7967 29.1869 26.1385C29.1869 26.4802 29.052 27.3165 28.7643 27.5953C28.4855 27.8741 27.6582 28.7464 26.4172 28.7464C25.1762 28.7464 22.2265 27.7392 20.6528 26.1654C19.079 24.5917 17.6852 23 17.3524 21.5521C17.0467 20.0863 17.0916 19.4298 17.4963 18.8363Z" fill="white"/>
</svg>
