<svg width="60" height="63" viewBox="0 0 60 63" fill="none" xmlns="http://www.w3.org/2000/svg">
<path fill-rule="evenodd" clip-rule="evenodd" d="M34.1697 0.304268C33.7757 0.704893 33.7934 1.14698 34.2311 1.8407C35.6632 4.11071 36.7761 8.69859 36.7761 12.3334C36.7761 13.0671 36.8154 13.2189 37.073 13.4809C37.4658 13.8805 38.0218 13.8805 38.4146 13.4809C38.6718 13.2194 38.7116 13.0668 38.7113 12.3427C38.7101 9.95472 38.1685 6.5622 37.4287 4.30868C36.9285 2.78517 36.0149 0.859804 35.5541 0.358037C35.1343 -0.0989422 34.5869 -0.120229 34.1697 0.304268ZM24.7227 1.1257C24.4726 1.25342 24.1948 1.7131 24.1948 1.99905C24.1948 2.07571 24.4353 2.64072 24.7294 3.25433C26.7116 7.39249 28.0624 14.8588 28.0653 21.6939C28.0659 22.9399 28.0843 23.041 28.3629 23.3243C28.7557 23.7239 29.3117 23.7239 29.7045 23.3243C29.9834 23.0408 30.0014 22.941 30.0003 21.6939C29.9952 15.8322 29.0361 9.35649 27.5167 4.92389C27.0423 3.53979 26.0926 1.45607 25.8386 1.2416C25.6001 1.04031 25.0098 0.979032 24.7227 1.1257ZM30.2985 4.24162C29.6984 4.85191 30.1236 5.90823 30.9693 5.90823C31.4666 5.90823 31.9371 5.42972 31.9371 4.92389C31.9371 4.41807 31.4666 3.93955 30.9693 3.93955C30.7337 3.93955 30.4857 4.05115 30.2985 4.24162ZM53.9733 4.25971C53.743 4.42385 53.6079 4.43418 53.167 4.32123C51.8345 3.98003 50.8395 4.32295 50.3465 5.29351C50.0629 5.85225 50.0439 6.49982 50.2802 7.55626C50.3567 7.89746 50.3453 7.90902 50.0099 7.83126C49.8173 7.78672 49.3604 7.71929 48.9944 7.68164C47.3511 7.51209 46.3313 8.93618 46.8186 10.7203C46.9112 11.0595 46.897 11.2686 46.7582 11.6064C46.5451 12.1252 46.6533 12.545 47.0781 12.8477C47.487 13.1389 47.8813 13.0884 48.2681 12.695C48.7762 12.1782 48.9376 11.4423 48.7527 10.4857C48.6703 10.0593 48.6362 9.67677 48.6769 9.63531C48.7176 9.59396 48.9618 9.62436 49.2194 9.70286C51.2235 10.3135 52.6979 8.80637 52.1303 6.7272C52.0593 6.46709 52.0296 6.22519 52.0646 6.18975C52.0994 6.15432 52.4708 6.19381 52.89 6.2776C53.4869 6.39696 53.7674 6.39794 54.1852 6.28216C55.2818 5.97824 55.7468 5.01322 55.109 4.36467C54.766 4.01559 54.3677 3.9788 53.9733 4.25971ZM42.8798 5.22596C42.2796 5.83625 42.7049 6.89257 43.5506 6.89257C44.0479 6.89257 44.5184 6.41406 44.5184 5.90823C44.5184 5.4024 44.0479 4.92389 43.5506 4.92389C43.3149 4.92389 43.0669 5.03549 42.8798 5.22596ZM20.1421 5.93382C19.7564 6.15887 19.6057 6.42981 19.6016 6.90635C19.599 7.21506 19.483 7.49708 19.2219 7.82917C18.7395 8.44303 18.6168 8.77905 18.6112 9.5007C18.6031 10.564 19.2901 11.3014 20.5432 11.5748C20.887 11.6498 21.1951 11.7554 21.228 11.8096C21.2609 11.8637 21.1184 12.1222 20.9113 12.3841C20.4269 12.9962 20.2026 13.5391 20.2026 14.0988C20.2026 15.1091 21.0035 15.9848 22.1578 16.2365C22.5714 16.3268 22.8794 16.4893 23.1075 16.7376C23.482 17.1453 23.7952 17.1943 24.307 16.9251C25.4506 16.3236 24.4293 14.5965 22.7707 14.3268C22.4864 14.2806 22.2228 14.1917 22.1849 14.1293C22.1469 14.0669 22.3119 13.7599 22.5516 13.4472C23.7888 11.832 23.175 10.133 21.2037 9.71676C20.8527 9.64269 20.5656 9.5242 20.5656 9.45345C20.5656 9.3827 20.7677 9.0447 21.0149 8.7024C21.3966 8.17332 21.4714 7.96378 21.5125 7.30624C21.5581 6.57844 21.5392 6.5104 21.1935 6.15887C20.8035 5.7623 20.5348 5.70472 20.1421 5.93382ZM56.4289 8.17898C55.8287 8.78927 56.2539 9.84559 57.0997 9.84559C57.597 9.84559 58.0675 9.36707 58.0675 8.86125C58.0675 8.35542 57.597 7.87691 57.0997 7.87691C56.864 7.87691 56.616 7.98851 56.4289 8.17898ZM56.6158 13.9232C56.0502 13.9824 54.9614 14.1438 54.1963 14.2821C48.815 15.2542 44.7423 17.1545 41.8265 20.0539C40.8058 21.0689 40.6469 21.2816 40.647 21.6324C40.6473 22.1731 41.1047 22.642 41.6319 22.642C41.9511 22.642 42.1463 22.51 42.6959 21.9229C44.9884 19.4743 48.0334 17.8219 52.2672 16.7294C53.9679 16.2905 56.3413 15.9129 58.1226 15.7978C59.2801 15.7229 59.4832 15.6763 59.7255 15.4299C60.0987 15.0503 60.0905 14.4759 59.706 14.085C59.4412 13.8155 59.3139 13.7847 58.5266 13.7993C58.0412 13.8083 57.1813 13.864 56.6158 13.9232ZM33.8727 14.9281C33.2789 15.1184 32.2663 16.185 32.0842 16.8118C31.7491 17.9654 31.9854 18.8851 32.8403 19.7547C34.0785 21.014 35.787 20.9872 36.9332 19.6904C38.0581 18.4178 38.0228 16.8883 36.8407 15.6859C35.9894 14.8202 34.9986 14.5672 33.8727 14.9281ZM35.5113 17.038C36.1114 17.6483 35.6862 18.7046 34.8405 18.7046C34.3431 18.7046 33.8727 18.2261 33.8727 17.7203C33.8727 17.2145 34.3431 16.736 34.8405 16.736C35.0761 16.736 35.3241 16.8476 35.5113 17.038ZM57.3967 18.0224C56.7965 18.6327 57.2217 19.689 58.0675 19.689C58.5648 19.689 59.0352 19.2105 59.0352 18.7046C59.0352 18.1988 58.5648 17.7203 58.0675 17.7203C57.8318 17.7203 57.5838 17.8319 57.3967 18.0224ZM15.2738 19.0127C14.5303 19.3976 14.2182 19.7968 14.0136 20.6247C13.9317 20.9559 10.7451 30.3672 6.93241 41.5385C3.11955 52.7097 0 61.9727 0 62.1228C0 62.4789 0.517647 62.9999 0.871617 63C1.02429 63.0001 2.18358 62.6154 3.44776 62.1451C21.4909 55.4334 39.8688 48.6579 40.3476 48.5412C41.7452 48.2003 42.3536 47.5444 42.5251 46.193C43.0988 41.6737 34.3815 29.9948 25.2231 23.0127C21.6834 20.3142 18.8756 18.8897 16.8154 18.7473C16.003 18.6911 15.8416 18.7189 15.2738 19.0127ZM18.0038 20.9889C20.9917 22.0044 25.2441 25.1279 29.8023 29.6554C35.0016 34.8196 39.0628 40.4318 40.2776 44.1311C40.7457 45.5565 40.7629 46.1833 40.3415 46.4642C40.0812 46.6376 39.9375 46.6478 39.3738 46.5326C37.2066 46.0899 33.9161 44.0768 30.1347 40.8798C27.2542 38.4446 22.7258 33.6102 20.3699 30.4552C17.7752 26.9803 15.8652 23.2673 15.8289 21.6271C15.8058 20.5878 16.3519 20.4276 18.0038 20.9889ZM52.8051 22.3543C52.1972 22.6803 51.9117 23.0207 51.6504 23.7308C51.513 24.1043 51.37 24.4604 51.3325 24.5221C51.2951 24.5836 51.0037 24.356 50.6849 24.016C49.8584 23.1348 49.0283 22.9283 48.0776 23.3674C47.4749 23.6459 47.1353 24.0668 46.8782 24.8543C46.7482 25.2522 46.5429 25.5614 46.2659 25.7764C45.9172 26.0469 45.8491 26.1776 45.8491 26.5766C45.8491 26.9454 45.9214 27.1115 46.1679 27.3086C46.5651 27.6266 46.8214 27.6291 47.4151 27.321C47.9955 27.0198 48.2814 26.657 48.6337 25.7742L48.9084 25.0856L49.4656 25.6423C50.3453 26.5213 51.201 26.776 52.0548 26.4131C52.5715 26.1935 53.1874 25.4657 53.3444 24.8891C53.5738 24.0462 53.6386 24.0231 54.189 24.5886C54.8418 25.2592 55.3212 25.4992 56.0305 25.51C56.4826 25.5169 56.6792 25.4544 56.9161 25.2278C57.5151 24.6555 57.1338 23.6263 56.3226 23.6263C56.0796 23.6263 55.844 23.474 55.4837 23.0842C55.2081 22.7861 54.8084 22.4539 54.5955 22.3459C54.1059 22.0979 53.276 22.1018 52.8051 22.3543ZM16.8708 28.8051C21.4752 35.9549 29.5064 43.8414 35.4532 47.0525C36.2014 47.4566 36.636 47.7558 36.5301 47.7943C36.4325 47.8297 35.9049 48.0245 35.3578 48.2271L34.363 48.5953L33.8239 47.9223C33.5274 47.552 33.1095 46.931 32.895 46.5424C32.3489 45.5521 32.0823 45.2818 31.6516 45.2818C31.1319 45.2818 30.7274 45.7095 30.7274 46.2587C30.7274 46.721 31.3591 47.9524 32.0541 48.8448L32.4156 49.3091L30.9 49.8727L29.3843 50.4364L28.9368 49.9351C27.4976 48.3227 25.8671 45.8495 24.7641 43.6057C24.1597 42.3763 22.985 39.4267 22.985 39.1384C22.985 39.071 22.8745 38.7153 22.7393 38.3479C22.378 37.3656 21.6606 37.1374 21.0453 37.8091C20.7181 38.1662 20.7422 38.4367 21.2416 40.0075C22.4029 43.6616 24.3334 47.3089 26.6666 50.2576C27.0384 50.7274 27.301 51.1486 27.2506 51.1937C27.2 51.2388 26.2903 51.5953 25.229 51.986L23.2993 52.6962L22.5957 51.9113C18.4955 47.3368 15.8109 42.3307 14.3274 36.4925C13.8865 34.7574 13.6959 34.4541 13.0463 34.4541C12.6273 34.4541 12.0974 34.9359 12.0974 35.317C12.0974 35.4593 12.2589 36.2232 12.4562 37.0143C13.8847 42.7405 16.6615 48.0687 20.5272 52.5014C20.9506 52.9871 21.2547 53.4111 21.2028 53.4437C21.0595 53.5339 13.4273 56.3556 13.3268 56.3556C13.1854 56.3556 11.8213 54.0663 11.1274 52.6643C10.7756 51.9538 10.1697 50.5175 9.78086 49.4727C9.39205 48.428 9.00566 47.5277 8.92218 47.4722C8.38591 47.1154 7.5651 47.3762 7.4238 47.9484C7.22287 48.7628 9.02138 53.1587 10.6872 55.9249C11.054 56.534 11.3172 57.0678 11.2721 57.1111C11.1653 57.2136 6.48734 58.9395 6.31617 58.9395C6.24419 58.9395 6.03212 58.7201 5.84485 58.4519C5.65758 58.1836 5.35467 57.9 5.17163 57.8216C4.34466 57.4675 3.51102 58.5312 4.04875 59.2543C4.34683 59.6551 4.2659 59.7565 3.3967 60.0716L2.55932 60.3751L3.3361 58.0885C3.76325 56.8309 6.49279 48.8429 9.4016 40.3373L14.6903 24.8727L15.3682 26.1984C15.7409 26.9274 16.4171 28.1004 16.8708 28.8051ZM39.0086 28.8501C38.4085 29.4604 38.8337 30.5167 39.6794 30.5167C40.1768 30.5167 40.6472 30.0382 40.6472 29.5324C40.6472 29.0265 40.1768 28.548 39.6794 28.548C39.4438 28.548 39.1958 28.6596 39.0086 28.8501ZM56.2528 29.6686C49.3493 30.2832 43.4954 32.3743 40.375 35.3403C39.5643 36.1109 39.4586 36.5785 39.9764 37.105C40.4539 37.5907 40.8836 37.5083 41.6987 36.7748C44.9165 33.8787 50.2725 32.1112 57.4337 31.5822C59.4042 31.4367 59.5672 31.406 59.7773 31.1421C60.0941 30.7441 60.0645 30.1989 59.706 29.8344C59.4352 29.5588 59.3214 29.5338 58.4056 29.5493C57.8537 29.5586 56.8849 29.6122 56.2528 29.6686ZM52.2607 36.5836C51.667 36.7739 50.6543 37.8404 50.4722 38.4672C50.1371 39.6208 50.3734 40.5406 51.2283 41.4101C52.4665 42.6695 54.175 42.6426 55.3212 41.3459C56.4462 40.0733 56.4108 38.5437 55.2287 37.3414C54.3774 36.4756 53.3866 36.2227 52.2607 36.5836ZM53.8993 38.6935C54.0866 38.8838 54.1963 39.1361 54.1963 39.3758C54.1963 39.6154 54.0866 39.8677 53.8993 40.058C53.7122 40.2485 53.4642 40.3601 53.2285 40.3601C52.9928 40.3601 52.7448 40.2485 52.5577 40.058C52.3704 39.8677 52.2607 39.6154 52.2607 39.3758C52.2607 39.1361 52.3704 38.8838 52.5577 38.6935C52.7448 38.503 52.9928 38.3914 53.2285 38.3914C53.4642 38.3914 53.7122 38.503 53.8993 38.6935Z" fill="white"/>
</svg>
