<svg width="34" height="34" viewBox="0 0 34 34" fill="none" xmlns="http://www.w3.org/2000/svg">
<circle cx="17" cy="17" r="17" fill="#46494D"/>
<path d="M22.0274 17.3664C22.3612 17.5325 22.6845 17.7246 22.9948 17.9389C23.5549 18.3259 24.0625 18.773 24.5224 19.2747C25.1354 19.9436 25.6383 20.6875 26.0338 21.5046C26.2838 22.0212 26.4817 22.5574 26.6383 23.1093C26.6504 23.1517 26.6463 23.1677 26.5957 23.1677C25.5378 23.1664 24.4798 23.1662 23.4218 23.1681C23.3657 23.1683 23.3559 23.1389 23.3426 23.0981C23.1107 22.3864 22.7782 21.7264 22.3232 21.1311C21.6326 20.2277 20.7633 19.5721 19.6714 19.2283C19.3653 19.1318 19.0518 19.0706 18.7337 19.0312C18.696 19.0266 18.6846 19.0384 18.6878 19.0737C18.6895 19.0916 18.6881 19.1098 18.6881 19.128C18.6881 20.4453 18.6881 21.7626 18.6881 23.0799C18.6881 23.1666 18.6881 23.1664 18.6002 23.1666C18.1775 23.1685 17.755 23.1614 17.3335 23.1278C15.7352 23.0003 14.2278 22.5782 12.8558 21.7264C12.2095 21.3252 11.6273 20.8447 11.1081 20.288C10.0994 19.2069 9.40364 17.9424 8.9248 16.5514C8.66666 15.8015 8.48042 15.0333 8.35128 14.2508C8.26379 13.7199 8.20125 13.1866 8.16124 12.6501C8.13682 12.3229 8.12597 11.9952 8.10982 11.6676C8.1067 11.6046 8.11851 11.5838 8.18755 11.584C9.19583 11.5866 10.2041 11.5862 11.2122 11.5847C11.2649 11.5845 11.2843 11.5923 11.2854 11.6526C11.2938 12.123 11.3246 12.5921 11.3764 13.06C11.4697 13.9034 11.6353 14.7309 11.9064 15.5358C12.1421 16.2361 12.4526 16.9 12.871 17.5108C13.3579 18.2218 13.9537 18.8177 14.7127 19.2382C14.9854 19.3893 15.2718 19.5086 15.5733 19.5907C15.6332 19.607 15.6463 19.5956 15.6461 19.5359C15.6443 19.0493 15.6451 18.5626 15.6451 18.076C15.6451 15.9439 15.6451 13.8118 15.6452 11.6797C15.6452 11.5688 15.6345 11.5863 15.7384 11.5862C16.6948 11.5856 17.6509 11.5866 18.6073 11.5844C18.6714 11.5843 18.6896 11.5981 18.6895 11.6651C18.6873 13.1385 18.6878 14.612 18.6878 16.0854C18.6878 16.1711 18.6876 16.1687 18.7744 16.1555C19.4251 16.056 19.9867 15.7596 20.4997 15.3627C21.2882 14.7526 21.8864 13.9834 22.3563 13.1094C22.609 12.6394 22.8097 12.148 22.9528 11.6336C22.9627 11.598 22.9775 11.5848 23.0169 11.5849C23.9822 11.5863 24.9475 11.586 25.9129 11.5862C25.926 11.5862 25.9393 11.5886 25.9682 11.5915C25.4627 14.0734 24.1004 15.9586 22.0274 17.3664Z" fill="#FEFEFF"/>
</svg>
