<svg viewBox="0 0 17 13" xmlns="http://www.w3.org/2000/svg">
<path fill-rule="evenodd" clip-rule="evenodd" d="M6.82771 12.015C7.11606 11.7177 7.10876 11.2428 6.8114 10.9545L2.6008 6.87149L15.5214 6.87149C15.9356 6.87149 16.2714 6.5357 16.2714 6.12149C16.2714 5.70728 15.9356 5.37149 15.5214 5.37149L2.6008 5.37149L6.81139 1.28849C7.10876 1.00013 7.11606 0.525317 6.82771 0.227953C6.53936 -0.0694117 6.06454 -0.0767159 5.76718 0.211637L0.227891 5.58307C0.0822195 5.72432 4.93287e-07 5.91858 5.35152e-07 6.12149C5.77018e-07 6.32441 0.0822195 6.51866 0.227891 6.65992L5.76718 12.0313C6.06454 12.3197 6.53936 12.3124 6.82771 12.015Z" />
</svg>
