<svg width="30" height="30" viewBox="0 0 30 30" fill="none" xmlns="http://www.w3.org/2000/svg">
<path d="M5 13.125C5 7.25698 9.75697 2.5 15.625 2.5C21.493 2.5 26.25 7.25697 26.25 13.125V15.625C26.25 21.493 21.493 26.25 15.625 26.25C9.75697 26.25 5 21.493 5 15.625V13.125Z" fill="#2AA7A4"/>
<path d="M15.4708 28.1375C13.6208 28.1375 11.7583 27.4375 10.3083 26.05C6.6208 22.5 2.5458 16.8375 4.0833 10.1C5.4708 3.9875 10.8083 1.25 15.4708 1.25C15.4708 1.25 15.4708 1.25 15.4833 1.25C20.1458 1.25 25.4833 3.9875 26.8708 10.1125C28.3958 16.85 24.3208 22.5 20.6333 26.05C19.1833 27.4375 17.3208 28.1375 15.4708 28.1375ZM15.4708 3.125C11.8333 3.125 7.1583 5.0625 5.9208 10.5125C4.5708 16.4 8.2708 21.475 11.6208 24.6875C13.7833 26.775 17.1708 26.775 19.3333 24.6875C22.6708 21.475 26.3708 16.4 25.0458 10.5125C23.7958 5.0625 19.1083 3.125 15.4708 3.125Z" fill="#2AA7A4"/>
</svg>
