<?xml version="1.0" encoding="utf-8"?>
<!-- Generator: Adobe Illustrator 23.1.1, SVG Export Plug-In . SVG Version: 6.00 Build 0)  -->
<svg version="1.1" xmlns="http://www.w3.org/2000/svg" xmlns:xlink="http://www.w3.org/1999/xlink" x="0px" y="0px"
	 viewBox="0 0 1920 1080" style="enable-background:new 0 0 1920 1080;" xml:space="preserve">
<style type="text/css">
	.st0{fill:#8F8F8F;}
	.st1{clip-path:url(#SVGID_2_);}
	.st2{clip-path:url(#SVGID_4_);}
	.st3{clip-path:url(#SVGID_8_);}
	.st4{clip-path:url(#SVGID_10_);}
	.st5{clip-path:url(#SVGID_14_);}
	.st6{clip-path:url(#SVGID_16_);}
	.st7{clip-path:url(#SVGID_20_);}
	.st8{clip-path:url(#SVGID_22_);}
	.st9{fill:#333F48;}
	.st10{fill:#21A038;}
	.st11{fill:#FFFFFF;}
	.st12{clip-path:url(#SVGID_26_);}
	.st13{clip-path:url(#SVGID_28_);}
	.st14{clip-path:url(#SVGID_32_);}
	.st15{clip-path:url(#SVGID_34_);}
	.st16{clip-path:url(#SVGID_38_);}
	.st17{clip-path:url(#SVGID_40_);}
	.st18{fill:#A0E720;}
	.st19{fill:#FAED00;}
	.st20{fill:#00FFC9;}
	.st21{fill:#00ACF1;}
	.st22{fill:#0087CD;}
	.st23{clip-path:url(#SVGID_44_);}
	.st24{clip-path:url(#SVGID_46_);}
	.st25{opacity:0.2;}
	.st26{clip-path:url(#SVGID_76_);}
	.st27{clip-path:url(#SVGID_78_);}
	.st28{clip-path:url(#SVGID_80_);}
	.st29{clip-path:url(#SVGID_84_);}
	.st30{clip-path:url(#SVGID_86_);}
	.st31{clip-path:url(#SVGID_90_);}
	.st32{clip-path:url(#SVGID_92_);}
	.st33{clip-path:url(#SVGID_96_);}
	.st34{clip-path:url(#SVGID_98_);}
	.st35{clip-path:url(#SVGID_102_);}
	.st36{clip-path:url(#SVGID_104_);}
	.st37{clip-path:url(#SVGID_108_);}
	.st38{clip-path:url(#SVGID_110_);}
	.st39{clip-path:url(#SVGID_114_);}
	.st40{clip-path:url(#SVGID_116_);}
	.st41{clip-path:url(#SVGID_120_);}
	.st42{clip-path:url(#SVGID_122_);}
	.st43{clip-path:url(#SVGID_126_);}
	.st44{clip-path:url(#SVGID_128_);}
	.st45{fill:#0FA8E0;}
	.st46{fill:#A3CD39;}
	.st47{fill:#F2E913;}
	.st48{fill:#0C8ACB;}
	.st49{clip-path:url(#SVGID_132_);}
	.st50{clip-path:url(#SVGID_134_);}
	.st51{clip-path:url(#SVGID_138_);}
	.st52{clip-path:url(#SVGID_140_);}
	.st53{fill:#0291EB;}
	.st54{fill:#0099F9;}
	.st55{fill:url(#SVGID_143_);}
	.st56{fill:url(#SVGID_144_);}
	.st57{fill:url(#SVGID_145_);}
	.st58{fill:url(#SVGID_146_);}
	.st59{fill:url(#SVGID_147_);}
	.st60{fill:url(#SVGID_148_);}
	.st61{fill:none;}
	.st62{fill:url(#SVGID_149_);}
	.st63{fill:url(#SVGID_150_);}
	.st64{fill:url(#SVGID_151_);}
	.st65{fill:url(#SVGID_152_);}
	.st66{fill:url(#SVGID_153_);}
	.st67{fill:url(#SVGID_154_);}
	.st68{fill:url(#SVGID_155_);}
	.st69{fill:url(#SVGID_156_);}
	.st70{fill:url(#SVGID_157_);}
	.st71{fill:url(#SVGID_158_);}
	.st72{fill:url(#SVGID_159_);}
	.st73{fill:url(#SVGID_160_);}
	.st74{clip-path:url(#SVGID_162_);}
	.st75{clip-path:url(#SVGID_164_);}
	.st76{fill:url(#SVGID_165_);}
	.st77{fill:url(#SVGID_166_);}
	.st78{fill:url(#SVGID_167_);}
	.st79{fill:url(#SVGID_168_);}
	.st80{fill:url(#SVGID_169_);}
	.st81{fill:url(#SVGID_170_);}
	.st82{fill:url(#SVGID_171_);}
	.st83{fill:url(#SVGID_172_);}
	.st84{fill:url(#SVGID_173_);}
	.st85{fill:url(#SVGID_174_);}
	.st86{fill:url(#SVGID_175_);}
	.st87{fill:url(#SVGID_176_);}
	.st88{fill:url(#SVGID_177_);}
	.st89{fill:url(#SVGID_178_);}
	.st90{fill:url(#SVGID_179_);}
	.st91{fill:url(#SVGID_180_);}
	.st92{fill:url(#SVGID_181_);}
	.st93{fill:url(#SVGID_182_);}
	.st94{fill:url(#SVGID_183_);}
	.st95{fill:url(#SVGID_184_);}
	.st96{fill:url(#SVGID_185_);}
	.st97{fill:url(#SVGID_186_);}
	.st98{fill:url(#SVGID_187_);}
	.st99{fill:url(#SVGID_188_);}
	.st100{fill:none;stroke:#231F20;stroke-width:0.5;stroke-miterlimit:10;}
	.st101{fill:#12A9E1;}
	.st102{fill:#A4CD39;}
	.st103{fill:#F2EA15;}
	.st104{fill:#0B8BCC;}
	.st105{fill:none;stroke:#FF00FF;stroke-width:0.5;stroke-miterlimit:10;}
	.st106{fill:#FF00FF;}
	.st107{clip-path:url(#SVGID_190_);}
	.st108{clip-path:url(#SVGID_192_);}
</style>
<g id="Layer_2">
</g>
<g id="Layer_1">
	<g>
		<g>
			<g>
				<polygon class="st10" points="1284.49,476.32 1325.57,446.04 1188.07,446.04 1188.07,627.89 1325.57,627.89 1325.57,597.61 
					1227.31,597.61 1227.31,551.06 1311.12,551.06 1311.12,520.78 1227.31,520.78 1227.31,476.32 				"/>
				<g>
					<path class="st10" d="M1084.29,516.93h-47.75v-40.61h76.23l41.08-30.28H997.3v181.85h81.93c45.95,0,72.31-20.82,72.31-57.13
						C1151.54,536.05,1127.65,516.93,1084.29,516.93z M1077.46,597.61h-40.92v-50.41h40.92c24.91,0,36.51,8.43,36.51,25.2
						C1113.96,589.54,1101.68,597.61,1077.46,597.61z"/>
				</g>
				<path class="st10" d="M1436.96,446.04h-74.86v181.85h39.24v-51.51h35.62c47.77,0,77.45-25.12,77.45-65.26
					C1514.41,470.98,1484.74,446.04,1436.96,446.04z M1436.12,546.1h-34.78v-69.78h34.78c25.14,0,38.99,12.39,38.99,34.89
					S1461.27,546.1,1436.12,546.1z"/>
				<g>
					<path class="st10" d="M929.94,588.52c-10.06,5.55-21.78,8.49-33.87,8.49c-35.38,0-61.05-25.25-61.05-60.04
						c0-34.79,25.68-60.04,61.05-60.04c13.38,0,25.38,3.76,35.69,11.17l28.14-20.74h0l-1.86-1.63
						c-16.43-14.44-38.39-22.07-63.49-22.07c-27.23,0-51.95,9.18-69.59,25.86c-17.75,16.77-27.52,40.37-27.52,66.45
						c0,26.2,9.74,50.15,27.42,67.43c17.74,17.34,42.4,26.89,69.44,26.89c28.29,0,52.99-9.86,69.73-27.81
						c-12.92-9.52-25.39-18.71-25.39-18.71L929.94,588.52z"/>
				</g>
			</g>
		</g>
		<g>
			<g>
				<g>
					<path class="st10" d="M674.98,444.58c7.14,9.22,13.24,19.29,18.11,30.04L555.4,576.09l-57.52-36.06v-43.38l57.52,36.06
						L674.98,444.58z"/>
				</g>
			</g>
			<g>
				<polygon class="st61" points="555.4,536.96 555.4,536.96 555.4,536.96 				"/>
				<linearGradient id="SVGID_2_" gradientUnits="userSpaceOnUse" x1="455.6154" y1="639.4459" x2="417.473" y2="529.1921">
					<stop  offset="0.1444" style="stop-color:#F2E913"/>
					<stop  offset="0.3037" style="stop-color:#E7E518"/>
					<stop  offset="0.5823" style="stop-color:#CADB26"/>
					<stop  offset="0.891" style="stop-color:#A3CD39"/>
				</linearGradient>
				<path style="fill:url(#SVGID_2_);" d="M439.2,536.96c0-1.95,0.05-3.88,0.15-5.81l-34.86-1.74c-0.12,2.5-0.19,5.02-0.19,7.55
					c0,41.73,16.91,79.51,44.26,106.85l24.72-24.72C452.23,598.05,439.2,569,439.2,536.96z"/>
				<linearGradient id="SVGID_4_" gradientUnits="userSpaceOnUse" x1="458.5219" y1="436.2925" x2="556.7606" y2="398.8557">
					<stop  offset="0.0592" style="stop-color:#0FA8E0"/>
					<stop  offset="0.5385" style="stop-color:#0099F9"/>
					<stop  offset="0.9234" style="stop-color:#0291EB"/>
				</linearGradient>
				<path style="fill:url(#SVGID_4_);" d="M555.4,420.76c1.95,0,3.88,0.07,5.81,0.16l1.74-34.88c-2.5-0.12-5.02-0.19-7.55-0.19
					c-41.73,0-79.51,16.91-106.85,44.26l24.72,24.72C494.31,433.79,523.37,420.76,555.4,420.76z"/>
				<linearGradient id="SVGID_6_" gradientUnits="userSpaceOnUse" x1="545.5503" y1="667.0138" x2="656.6413" y2="641.9059">
					<stop  offset="0.1226" style="stop-color:#A3CD39"/>
					<stop  offset="0.2846" style="stop-color:#86C339"/>
					<stop  offset="0.8693" style="stop-color:#21A038"/>
				</linearGradient>
				<path style="fill:url(#SVGID_6_);" d="M555.4,653.17c-1.95,0-3.88-0.05-5.81-0.15l-1.74,34.86c2.5,0.12,5.02,0.19,7.55,0.19
					c41.73,0,79.51-16.91,106.85-44.26l-24.72-24.72C616.49,640.13,587.44,653.17,555.4,653.17z"/>
			</g>
			<g>
				<polygon class="st61" points="555.4,536.96 555.4,536.96 555.4,536.96 555.4,536.96 				"/>
				<linearGradient id="SVGID_8_" gradientUnits="userSpaceOnUse" x1="548.0974" y1="397.5528" x2="643.078" y2="426.8585">
					<stop  offset="0.0566" style="stop-color:#0291EB"/>
					<stop  offset="0.79" style="stop-color:#0C8ACB"/>
				</linearGradient>
				<path style="fill:url(#SVGID_8_);" d="M620.91,441.04l29.39-21.66c-25.94-20.96-58.95-33.53-94.9-33.53l0,0v34.91
					C579.69,420.76,602.25,428.25,620.91,441.04z"/>
				<path class="st10" d="M706.51,536.96c0-9.24-0.83-18.29-2.42-27.07l-32.53,23.97c0.03,1.03,0.04,2.06,0.04,3.1
					c0,34.12-14.78,64.85-38.28,86.13l23.45,25.92C687.32,621.37,706.51,581.41,706.51,536.96z"/>
				<linearGradient id="SVGID_10_" gradientUnits="userSpaceOnUse" x1="452.1037" y1="634.0971" x2="555.4907" y2="672.7261">
					<stop  offset="0.1324" style="stop-color:#F2E913"/>
					<stop  offset="0.2977" style="stop-color:#EBE716"/>
					<stop  offset="0.5306" style="stop-color:#D9E01F"/>
					<stop  offset="0.8023" style="stop-color:#BBD62D"/>
					<stop  offset="0.9829" style="stop-color:#A3CD39"/>
				</linearGradient>
				<path style="fill:url(#SVGID_10_);" d="M555.4,653.17c-34.12,0-64.85-14.78-86.13-38.28l-25.92,23.45
					c27.65,30.54,67.61,49.73,112.05,49.73L555.4,653.17C555.4,653.17,555.4,653.17,555.4,653.17z"/>
				<linearGradient id="SVGID_12_" gradientUnits="userSpaceOnUse" x1="417.2942" y1="541.1944" x2="458.7943" y2="433.2369">
					<stop  offset="0.0698" style="stop-color:#A3CD39"/>
					<stop  offset="0.2599" style="stop-color:#81C55F"/>
					<stop  offset="0.9216" style="stop-color:#0FA8E0"/>
				</linearGradient>
				<path style="fill:url(#SVGID_12_);" d="M477.48,450.83l-23.45-25.92c-30.54,27.65-49.73,67.61-49.73,112.05h34.91
					C439.2,502.84,453.98,472.11,477.48,450.83z"/>
			</g>
		</g>
	</g>
</g>
<g id="Layer_3">
</g>
</svg>
