<svg width="255" height="148" viewBox="0 0 255 148" fill="none" xmlns="http://www.w3.org/2000/svg">
<path d="M63.8364 68.4528C63.6715 68.4781 63.532 68.4401 63.4179 68.3387C63.3038 68.2245 63.2467 68.0724 63.2467 67.8821C63.2087 67.2735 63.1897 66.6711 63.1897 66.0751C63.1897 65.2636 63.2087 64.4584 63.2467 63.6595C63.2721 62.8479 63.2848 62.2519 63.2848 61.8715C63.1453 60.9711 63.0629 59.5192 63.0375 57.5157C63.0375 57.0465 63.0311 56.666 63.0185 56.3744C62.3718 56.3744 61.9026 56.3617 61.6109 56.3363H61.4968C61.3066 56.3363 61.2051 56.4378 61.1924 56.6407L61.1734 58.0102C61.1734 58.6696 61.1924 59.069 61.2305 59.2085C61.2558 59.3607 61.2685 59.4621 61.2685 59.5129C61.2685 59.6143 61.2558 59.7665 61.2305 59.9694C61.2051 60.1723 61.1924 60.3244 61.1924 60.4259C61.1924 60.6161 61.2241 60.7809 61.2875 60.9204C61.3383 61.0346 61.3573 61.1931 61.3446 61.396C61.3446 61.5988 61.3446 61.751 61.3446 61.8525C61.3573 62.2456 61.351 62.8225 61.3256 63.5834C61.3002 64.1921 61.2875 64.6422 61.2875 64.9339C61.2875 65.3016 61.3002 65.7201 61.3256 66.1893C61.351 66.6458 61.37 66.9691 61.3827 67.1593L61.4207 67.6919C61.4334 67.8948 61.389 68.0597 61.2875 68.1865C61.1988 68.3006 61.0656 68.3577 60.8881 68.3577C60.8247 68.3577 60.7423 68.345 60.6408 68.3196C60.5267 68.2816 60.4506 68.2182 60.4126 68.1294C60.3745 68.0407 60.3492 67.9265 60.3365 67.787L60.2794 66.1893L60.2985 63.8877C60.2731 62.5182 60.2604 61.4974 60.2604 60.8253L60.2414 59.2846C60.2287 58.5618 60.197 57.7946 60.1463 56.9831L60.1082 56.2032V56.0891C60.1082 55.9623 60.1336 55.8735 60.1843 55.8228C60.235 55.7594 60.3302 55.7086 60.4696 55.6706C60.7233 55.6072 60.9515 55.5755 61.1544 55.5755C61.2685 55.5755 61.351 55.5818 61.4017 55.5945C61.5031 55.5945 61.6553 55.6072 61.8582 55.6326C62.1372 55.6579 62.3591 55.6706 62.5239 55.6706C62.7649 55.6706 62.9868 55.6452 63.1897 55.5945C63.3291 55.5565 63.5067 55.5882 63.7222 55.6896C63.9378 55.7784 64.0583 55.9115 64.0836 56.0891C64.109 56.2666 64.1217 56.4061 64.1217 56.5075C64.1217 56.609 64.1154 56.6851 64.1027 56.7358C64.0519 56.888 64.0266 57.0718 64.0266 57.2874C64.0266 57.4015 64.0329 57.5283 64.0456 57.6678C64.0583 57.8073 64.0646 57.9531 64.0646 58.1053C64.0646 58.2321 64.0583 58.3336 64.0456 58.4096C64.0329 58.5238 64.0266 58.7076 64.0266 58.9613C64.0266 59.3797 64.0646 59.9694 64.1407 60.7302L64.1978 61.2438C64.2105 61.3579 64.2168 61.5291 64.2168 61.7574C64.2168 62.0237 64.2105 62.2202 64.1978 62.347C64.1978 62.4485 64.1914 62.5753 64.1788 62.7274C64.1788 62.8669 64.1851 63.0381 64.1978 63.241C64.1851 63.5327 64.1914 63.9701 64.2168 64.5535L64.2358 64.9719L64.3499 67.9582C64.3499 68.0977 64.3119 68.2118 64.2358 68.3006C64.1724 68.3767 64.0393 68.4274 63.8364 68.4528ZM68.8545 68.8332C68.5248 68.8332 68.2205 68.7254 67.9415 68.5098C67.6625 68.307 67.4343 68.028 67.2568 67.6729C66.889 66.8994 66.6608 66.0561 66.572 65.1431C66.4579 64.2808 66.4008 63.4502 66.4008 62.6513C66.4008 62.4992 66.4071 62.3724 66.4198 62.2709V61.9285C66.4198 61.8651 66.4135 61.8334 66.4008 61.8334V61.4911L66.4198 60.1596C66.4325 59.7538 66.4832 59.1071 66.572 58.2194C66.6354 57.6108 66.7812 57.0211 67.0095 56.4505C67.0982 56.1969 67.2124 56.0066 67.3519 55.8798C67.4913 55.7403 67.6499 55.6706 67.8274 55.6706C68.3346 55.6706 68.7911 55.7657 69.1969 55.9559C69.6027 56.1335 69.9451 56.3871 70.224 56.7168C70.4777 57.0338 70.6932 57.4269 70.8708 57.8961C71.0483 58.3526 71.1751 58.8408 71.2512 59.3607C71.3273 59.8933 71.3653 60.4576 71.3653 61.0536V61.2057C71.3653 61.5988 71.3717 61.9539 71.3843 62.2709L71.4034 63.3551C71.4034 67.0072 70.5537 68.8332 68.8545 68.8332ZM68.7784 68.0343C69.0067 68.0343 69.2159 67.9456 69.4061 67.768C69.5963 67.5778 69.7422 67.3242 69.8436 67.0072C70.0846 66.3605 70.2304 65.663 70.2811 64.9149C70.3445 64.2681 70.3762 63.7102 70.3762 63.241C70.3762 62.6704 70.3318 61.9222 70.2431 60.9965C70.167 60.0201 70.1289 59.291 70.1289 58.8091V58.4667C70.1036 57.9848 69.9387 57.5664 69.6344 57.2113C69.3427 56.8563 68.9813 56.6787 68.5502 56.6787C68.119 56.6787 67.8337 56.926 67.6942 57.4205C67.5674 57.8136 67.504 58.3209 67.504 58.9422C67.504 59.1832 67.5104 59.3861 67.5231 59.5509V60.0645L67.485 60.9394C67.4596 61.2057 67.447 61.4974 67.447 61.8144C67.447 62.4992 67.466 63.1776 67.504 63.8497C67.5548 64.8007 67.6816 65.7264 67.8845 66.6268C68.0873 67.5651 68.3853 68.0343 68.7784 68.0343ZM80.1165 70.8114C80.0151 70.8368 79.939 70.8494 79.8882 70.8494C79.7361 70.8494 79.6283 70.7543 79.5649 70.5641C79.5142 70.412 79.4888 70.2217 79.4888 69.9935L79.5078 68.681C79.5078 68.6049 79.5015 68.5352 79.4888 68.4718C79.4761 68.4084 79.4634 68.345 79.4508 68.2816H77.2633C77.3901 68.2816 77.0858 68.345 76.3503 68.4718C75.6275 68.5859 75.0632 68.662 74.6574 68.7001L73.8015 68.7761L72.8504 68.8712C72.8504 68.9854 72.8504 69.1249 72.8504 69.2897C72.8631 69.4546 72.8631 69.6511 72.8504 69.8794V69.9745C72.8504 70.1774 72.7997 70.3295 72.6983 70.431C72.5968 70.5324 72.5017 70.5831 72.413 70.5831C72.3622 70.5831 72.2862 70.5578 72.1847 70.5071C71.9565 70.3422 71.8296 70.114 71.8043 69.8223L71.7472 68.4338C71.7219 67.9392 71.9247 67.6919 72.3559 67.6919C72.5968 67.6793 72.787 67.6159 72.9265 67.5017C73.066 67.3876 73.2309 67.2101 73.4211 66.9691C73.6113 66.7155 73.7571 66.4365 73.8586 66.1322C73.9727 65.8152 74.0805 65.4348 74.1819 64.9909C74.296 64.5091 74.3785 64.0399 74.4292 63.5834C74.4799 63.1269 74.5433 62.4738 74.6194 61.6242C74.7335 60.2927 74.7906 58.9549 74.7906 57.6108L74.7716 56.5456C74.7716 56.3046 74.8413 56.1081 74.9808 55.9559C75.1203 55.7911 75.3105 55.7086 75.5514 55.7086C75.6275 55.7086 75.6846 55.715 75.7226 55.7277C76.3059 55.8291 76.7815 55.8925 77.1492 55.9179H77.2443C77.4092 55.9179 77.5043 55.8862 77.5296 55.8228C77.6438 55.6706 77.7832 55.5945 77.9481 55.5945C78.0622 55.5945 78.1637 55.6199 78.2524 55.6706C78.4553 55.7467 78.5885 55.9369 78.6519 56.2412L78.5568 59.4938C78.5568 61.2565 78.5631 62.5753 78.5758 63.4502C78.5758 63.9067 78.5885 64.6042 78.6138 65.5426L78.6329 66.5887C78.6329 66.6902 78.6392 66.7853 78.6519 66.874C78.6646 66.9628 78.6772 67.0516 78.6899 67.1403C78.9435 67.1657 79.1337 67.1784 79.2606 67.1784C79.362 67.1784 79.4381 67.172 79.4888 67.1593C79.7678 67.1213 80.0151 67.191 80.2306 67.3686C80.4589 67.5334 80.573 67.749 80.573 68.0153C80.573 68.3577 80.5476 68.8712 80.4969 69.556C80.4969 69.7335 80.4842 69.9871 80.4589 70.3168C80.4335 70.5831 80.3194 70.748 80.1165 70.8114ZM74.6384 67.787C75.3485 67.7236 75.9065 67.6666 76.3123 67.6159C76.7307 67.5524 77.1429 67.4573 77.5487 67.3305C77.6755 65.7962 77.7389 64.154 77.7389 62.4041C77.7389 60.7809 77.6755 58.9993 77.5487 57.0591C77.219 57.0465 76.6039 57.0148 75.7036 56.964L75.6846 57.858C75.5831 59.8109 75.5134 61.2691 75.4754 62.2329C75.4246 63.6785 75.1774 65.0987 74.7335 66.4936C74.7082 66.5697 74.6511 66.7599 74.5623 67.0642C74.4863 67.3559 74.3658 67.6095 74.2009 67.8251L74.6384 67.787ZM88.9398 70.8114C88.8383 70.8368 88.7622 70.8494 88.7115 70.8494C88.5593 70.8494 88.4516 70.7543 88.3882 70.5641C88.3374 70.412 88.3121 70.2217 88.3121 69.9935L88.3311 68.681C88.3311 68.6049 88.3247 68.5352 88.3121 68.4718C88.2994 68.4084 88.2867 68.345 88.274 68.2816H86.0866C86.2134 68.2816 85.9091 68.345 85.1736 68.4718C84.4508 68.5859 83.8865 68.662 83.4807 68.7001L82.6248 68.7761L81.6737 68.8712C81.6737 68.9854 81.6737 69.1249 81.6737 69.2897C81.6864 69.4546 81.6864 69.6511 81.6737 69.8794V69.9745C81.6737 70.1774 81.623 70.3295 81.5215 70.431C81.4201 70.5324 81.325 70.5831 81.2362 70.5831C81.1855 70.5831 81.1094 70.5578 81.008 70.5071C80.7797 70.3422 80.6529 70.114 80.6275 69.8223L80.5705 68.4338C80.5451 67.9392 80.748 67.6919 81.1792 67.6919C81.4201 67.6793 81.6103 67.6159 81.7498 67.5017C81.8893 67.3876 82.0541 67.2101 82.2443 66.9691C82.4345 66.7155 82.5804 66.4365 82.6818 66.1322C82.796 65.8152 82.9037 65.4348 83.0052 64.9909C83.1193 64.5091 83.2017 64.0399 83.2525 63.5834C83.3032 63.1269 83.3666 62.4738 83.4427 61.6242C83.5568 60.2927 83.6139 58.9549 83.6139 57.6108L83.5948 56.5456C83.5948 56.3046 83.6646 56.1081 83.8041 55.9559C83.9436 55.7911 84.1338 55.7086 84.3747 55.7086C84.4508 55.7086 84.5078 55.715 84.5459 55.7277C85.1292 55.8291 85.6047 55.8925 85.9725 55.9179H86.0676C86.2324 55.9179 86.3275 55.8862 86.3529 55.8228C86.467 55.6706 86.6065 55.5945 86.7714 55.5945C86.8855 55.5945 86.9869 55.6199 87.0757 55.6706C87.2786 55.7467 87.4117 55.9369 87.4751 56.2412L87.38 59.4938C87.38 61.2565 87.3864 62.5753 87.3991 63.4502C87.3991 63.9067 87.4117 64.6042 87.4371 65.5426L87.4561 66.5887C87.4561 66.6902 87.4625 66.7853 87.4751 66.874C87.4878 66.9628 87.5005 67.0516 87.5132 67.1403C87.7668 67.1657 87.957 67.1784 88.0838 67.1784C88.1853 67.1784 88.2613 67.172 88.3121 67.1593C88.591 67.1213 88.8383 67.191 89.0539 67.3686C89.2821 67.5334 89.3963 67.749 89.3963 68.0153C89.3963 68.3577 89.3709 68.8712 89.3202 69.556C89.3202 69.7335 89.3075 69.9871 89.2821 70.3168C89.2568 70.5831 89.1427 70.748 88.9398 70.8114ZM83.4617 67.787C84.1718 67.7236 84.7298 67.6666 85.1355 67.6159C85.554 67.5524 85.9661 67.4573 86.3719 67.3305C86.4987 65.7962 86.5621 64.154 86.5621 62.4041C86.5621 60.7809 86.4987 58.9993 86.3719 57.0591C86.0422 57.0465 85.4272 57.0148 84.5269 56.964L84.5078 57.858C84.4064 59.8109 84.3367 61.2691 84.2986 62.2329C84.2479 63.6785 84.0006 65.0987 83.5568 66.4936C83.5314 66.5697 83.4744 66.7599 83.3856 67.0642C83.3095 67.3559 83.1891 67.6095 83.0242 67.8251L83.4617 67.787ZM91.429 68.7191C91.2642 68.7191 91.112 68.662 90.9725 68.5479C90.8457 68.4338 90.7759 68.2943 90.7633 68.1294V67.6349V67.2545C90.7506 67.1403 90.7442 67.0072 90.7442 66.855C90.7442 66.5887 90.7252 66.1829 90.6872 65.6377L90.6491 64.4203C90.6491 63.799 90.6682 62.8733 90.7062 61.6432C90.7569 60.54 90.7823 59.6143 90.7823 58.8661C90.7823 58.6886 90.7633 58.4223 90.7252 58.0673C90.6872 57.6995 90.6682 57.4332 90.6682 57.2684C90.6682 56.368 90.9345 55.9179 91.467 55.9179C91.8855 55.9179 92.3674 56.0003 92.9126 56.1652C93.4706 56.33 93.7496 56.5266 93.7496 56.7548C93.7496 56.8816 93.6925 57.0021 93.5784 57.1162C93.4769 57.2177 93.3501 57.3001 93.198 57.3635C92.6654 57.1733 92.1835 57.0465 91.7524 56.9831C91.765 57.1733 91.7714 57.4459 91.7714 57.801C91.7714 58.3082 91.765 58.7647 91.7524 59.1705C91.7143 59.7792 91.6953 60.2357 91.6953 60.54L91.7524 60.8443L92.0567 60.8253C92.1581 60.8126 92.285 60.8063 92.4371 60.8063C93.0458 60.8063 93.3501 60.9838 93.3501 61.3389C93.3501 61.4784 93.2931 61.5988 93.1789 61.7003C93.0648 61.7891 92.919 61.8334 92.7415 61.8334C92.5132 61.8334 92.3357 61.8208 92.2089 61.7954H91.7333C91.7587 62.1251 91.7714 62.607 91.7714 63.241C91.7714 63.875 91.765 64.4457 91.7524 64.9529C91.7143 65.7264 91.6953 66.3034 91.6953 66.6838C91.6953 67.3939 91.708 67.749 91.7333 67.749L92.361 67.73C92.5766 67.7173 92.8366 67.711 93.1409 67.711C93.6228 67.711 93.8637 67.8631 93.8637 68.1675C93.8637 68.345 93.7813 68.4781 93.6164 68.5669C93.4643 68.6684 93.274 68.7191 93.0458 68.7191H91.429ZM96.3779 68.6049C96.2131 67.9329 96.1306 67.0008 96.1306 65.8088L96.1687 64.116C96.194 63.6087 96.2067 63.0444 96.2067 62.4231C96.1306 62.2456 96.0926 62.0871 96.0926 61.9476V61.8905C96.2194 61.6496 96.2828 61.1043 96.2828 60.2547L96.3018 59.3797C96.3145 59.1007 96.3208 58.7901 96.3208 58.4477C96.3208 57.6995 96.2701 57.1099 96.1687 56.6787C96.2067 56.5012 96.2701 56.349 96.3589 56.2222C96.4476 56.0827 96.5554 56.013 96.6822 56.013H97.5192C97.8742 56.013 98.1849 56.0954 98.4512 56.2603C98.7175 56.4124 98.9204 56.6343 99.0599 56.926C99.3135 57.4459 99.4403 58.0609 99.4403 58.771C99.4403 59.2783 99.434 59.6777 99.4213 59.9694C99.3959 60.3371 99.3325 60.6732 99.2311 60.9775C99.193 61.1423 99.136 61.2818 99.0599 61.396C98.9965 61.4974 98.9014 61.6242 98.7746 61.7764C98.597 61.9919 98.3054 62.1948 97.8996 62.3851C97.7347 62.4738 97.5192 62.5562 97.2529 62.6323V64.6676L97.2909 65.8849L97.329 66.4746C97.3797 67.1847 97.405 67.787 97.405 68.2816C97.405 68.4338 97.3416 68.5606 97.2148 68.662C97.088 68.7761 96.9422 68.8332 96.7773 68.8332L96.3779 68.6049ZM97.2719 61.8525C98.0201 61.7383 98.3941 60.6668 98.3941 58.6379C98.3941 58.2702 98.3751 57.9848 98.3371 57.7819C98.299 57.6298 98.2483 57.5093 98.1849 57.4205C98.1215 57.3191 98.0264 57.2367 97.8996 57.1733C97.7601 57.0972 97.6079 57.0591 97.4431 57.0591C97.4431 57.0465 97.3733 57.0401 97.2339 57.0401V58.1243C97.2339 58.8725 97.2402 59.5382 97.2529 60.1215C97.2529 60.7809 97.2592 61.2121 97.2719 61.415V61.8144V61.8525ZM101.747 68.7571C101.227 68.7571 100.884 68.5035 100.719 67.9963C100.656 67.8314 100.624 67.6349 100.624 67.4066C100.624 67.2291 100.643 67.0262 100.681 66.7979C100.719 66.5697 100.745 66.4175 100.758 66.3414C100.77 66.24 100.815 66.1576 100.891 66.0942C100.979 66.0308 101.081 65.9927 101.195 65.98C101.309 65.98 101.417 66.0181 101.518 66.0942C101.62 66.1702 101.69 66.259 101.728 66.3605C101.753 66.4873 101.766 66.817 101.766 67.3496C101.829 67.3876 101.892 67.4003 101.956 67.3876C101.994 67.2862 102.038 67.1657 102.089 67.0262C102.152 66.874 102.197 66.7472 102.222 66.6458C102.476 65.4791 102.653 64.5978 102.755 64.0018C102.831 63.6087 102.945 63.2664 103.097 62.9747C103.262 62.683 103.503 62.4231 103.82 62.1948C103.604 61.9159 103.439 61.5354 103.325 61.0536C103.211 60.559 103.154 60.0708 103.154 59.589V58.6189C103.154 58.175 103.148 57.8453 103.135 57.6298C103.135 57.4776 103.084 57.2811 102.983 57.0401C102.894 56.7992 102.805 56.6787 102.717 56.6787C102.603 56.7041 102.495 56.7738 102.393 56.888C102.33 57.0401 102.292 57.2303 102.279 57.4586C102.267 57.6742 102.26 57.8073 102.26 57.858C102.222 58.2131 102.032 58.3716 101.69 58.3336C101.563 58.3209 101.449 58.2575 101.347 58.1433C101.246 58.0165 101.195 57.8771 101.195 57.7249C101.195 57.4586 101.277 57.1796 101.442 56.888C101.607 56.5963 101.804 56.3554 102.032 56.1652C102.273 55.9749 102.501 55.8798 102.717 55.8798C102.882 55.8798 103.053 55.9369 103.23 56.051C103.42 56.1525 103.579 56.2856 103.706 56.4505C103.947 56.7928 104.067 57.3381 104.067 58.0863C104.067 58.3019 104.054 58.6252 104.029 59.0564L104.01 59.4368C104.01 59.8933 104.042 60.3625 104.105 60.8443C104.181 61.3135 104.302 61.6749 104.467 61.9285C104.479 61.9412 104.511 61.9476 104.562 61.9476C104.625 61.9476 104.676 61.9539 104.714 61.9666V61.8715C104.714 60.8824 104.701 59.627 104.676 58.1053C104.676 57.9531 104.689 57.7249 104.714 57.4205L104.733 56.7738C104.733 56.5836 104.727 56.4378 104.714 56.3363C104.701 56.2983 104.695 56.2476 104.695 56.1842C104.695 55.8925 104.853 55.715 105.17 55.6516C105.272 55.6262 105.392 55.6706 105.532 55.7847C105.684 55.8862 105.785 56.013 105.836 56.1652C105.874 56.2793 105.893 56.4061 105.893 56.5456C105.893 56.6343 105.887 56.6977 105.874 56.7358C105.697 57.5981 105.608 58.4096 105.608 59.1705V62.0617C105.785 62.1251 105.938 62.1695 106.064 62.1948C106.343 62.2329 106.508 62.0554 106.559 61.6622C106.597 61.4974 106.641 61.1804 106.692 60.7112C106.705 60.6351 106.711 60.5654 106.711 60.502C106.711 60.4386 106.717 60.3752 106.73 60.3118L106.825 59.5129C106.863 59.069 106.92 58.6316 106.996 58.2004C107.149 57.4269 107.459 56.7928 107.928 56.2983C108.119 56.1081 108.347 56.013 108.613 56.013C108.816 56.013 109.006 56.07 109.184 56.1842C109.374 56.2856 109.514 56.4314 109.602 56.6217C109.716 56.8753 109.793 57.1352 109.831 57.4015C109.881 57.6551 109.919 57.9848 109.945 58.3906C109.957 58.5428 109.919 58.6506 109.831 58.714C109.742 58.7647 109.596 58.8281 109.393 58.9042C109.216 58.8535 109.076 58.7584 108.975 58.6189C108.886 58.4794 108.854 58.3019 108.88 58.0863C108.918 57.7312 108.81 57.3952 108.556 57.0782C108.353 57.2557 108.201 57.4522 108.1 57.6678C107.998 57.8707 107.922 58.1433 107.871 58.4857C107.821 58.8281 107.776 59.0627 107.738 59.1895C107.637 59.6714 107.586 60.0391 107.586 60.2927C107.586 60.5463 107.548 60.8634 107.472 61.2438C107.396 61.6242 107.307 61.9349 107.206 62.1758C107.168 62.2519 107.149 62.3216 107.149 62.3851C107.149 62.4992 107.199 62.607 107.301 62.7084C107.478 62.8986 107.611 63.2093 107.7 63.6404C107.738 63.8433 107.757 64.0969 107.757 64.4013L107.738 65.1431C107.713 65.5235 107.7 65.8088 107.7 65.9991C107.7 66.2273 107.745 66.4429 107.833 66.6458C107.935 66.836 108.081 67.0706 108.271 67.3496C108.322 67.4256 108.398 67.4637 108.499 67.4637C108.639 67.4637 108.759 67.3939 108.86 67.2545C109 66.9374 109.089 66.6711 109.127 66.4556C109.165 66.24 109.19 66.1005 109.203 66.0371C109.241 65.7201 109.393 65.5616 109.659 65.5616C109.748 65.5616 109.818 65.5679 109.869 65.5806L110.116 65.6757C110.167 65.8659 110.192 66.0751 110.192 66.3034C110.192 66.874 109.983 67.4637 109.564 68.0724C109.463 68.2245 109.317 68.345 109.127 68.4338C108.949 68.5225 108.746 68.5669 108.518 68.5669C108.277 68.5669 108.068 68.5162 107.89 68.4147C107.713 68.3006 107.573 68.1548 107.472 67.9773C107.307 67.6476 107.18 67.3432 107.092 67.0642C107.003 66.7853 106.958 66.4936 106.958 66.1893C106.958 65.8088 106.946 65.3904 106.92 64.9339C106.895 64.4774 106.876 64.1604 106.863 63.9828L106.825 63.4693C106.825 63.2664 106.749 63.1269 106.597 63.0508C106.457 62.962 106.286 62.8986 106.083 62.8606C105.881 62.8099 105.722 62.7718 105.608 62.7465C105.583 63.1776 105.57 63.4946 105.57 63.6975C105.57 63.9384 105.557 64.2872 105.532 64.7437C105.506 65.4284 105.5 65.9357 105.513 66.2654C105.525 66.4302 105.551 66.6141 105.589 66.817C105.627 67.0199 105.652 67.1593 105.665 67.2354C105.716 67.413 105.747 67.5461 105.76 67.6349C105.785 67.7363 105.798 67.8187 105.798 67.8821C105.798 68.0597 105.747 68.2055 105.646 68.3196C105.544 68.4211 105.392 68.4781 105.189 68.4908C105.025 68.5035 104.917 68.4718 104.866 68.3957C104.815 68.307 104.784 68.1675 104.771 67.9773L104.79 67.0833C104.79 66.7028 104.777 66.1195 104.752 65.3333C104.727 64.8261 104.714 64.4393 104.714 64.173V62.6323C104.574 62.6196 104.46 62.6513 104.372 62.7274C104.295 62.8035 104.219 62.905 104.143 63.0318C103.953 63.3234 103.814 63.6341 103.725 63.9638C103.636 64.2935 103.547 64.7183 103.459 65.2382L103.382 65.6757C103.23 66.5887 103.015 67.3749 102.736 68.0343C102.647 68.2626 102.514 68.4401 102.336 68.5669C102.159 68.6937 101.962 68.7571 101.747 68.7571ZM112.431 68.4338C112.267 68.383 112.178 68.2753 112.165 68.1104V67.8251C112.14 67.2925 112.114 66.4936 112.089 65.4284C112.038 64.5027 112.007 63.7926 111.994 63.2981C111.956 62.5245 111.912 61.3643 111.861 59.8172C111.848 59.5509 111.835 59.1832 111.823 58.714C111.81 58.2448 111.804 57.8897 111.804 57.6488C111.791 57.5093 111.785 57.3128 111.785 57.0591C111.785 56.7675 111.797 56.5519 111.823 56.4124C111.873 56.0193 112.089 55.8355 112.469 55.8608C112.825 55.8608 113.015 56.0637 113.04 56.4695V56.6977L113.021 61.4911V63.7546V64.8958C113.021 65.0734 113.034 65.2826 113.059 65.5235C113.084 65.7518 113.103 65.9166 113.116 66.0181C113.18 65.6503 113.281 65.2763 113.421 64.8958C113.573 64.5027 113.668 64.2618 113.706 64.173C113.896 63.7165 114.036 63.3424 114.124 63.0508C114.429 62.0744 114.822 60.876 115.304 59.4558C115.405 59.1641 115.519 58.8091 115.646 58.3906C115.988 57.3128 116.223 56.6153 116.35 56.2983C116.464 55.994 116.635 55.8038 116.863 55.7277C116.977 55.6896 117.092 55.6706 117.206 55.6706C117.383 55.6706 117.567 55.7277 117.757 55.8418V56.7548C117.757 57.7059 117.776 58.6886 117.814 59.7031C117.827 59.9186 117.833 60.242 117.833 60.6732V61.2248C117.833 61.3389 117.827 61.4911 117.814 61.6813C117.814 61.8715 117.821 62.0934 117.833 62.347L117.89 67.4827C117.89 67.6729 117.846 67.8821 117.757 68.1104C117.719 68.2118 117.656 68.2943 117.567 68.3577C117.478 68.4084 117.383 68.4338 117.282 68.4338C116.927 68.4338 116.749 68.2689 116.749 67.9392C116.749 67.5588 116.768 67.191 116.806 66.836C116.832 66.3541 116.844 65.9864 116.844 65.7328C116.819 63.222 116.787 61.3452 116.749 60.1025C116.749 59.9123 116.724 59.6016 116.673 59.1705L116.616 58.4857C116.502 58.6125 116.439 58.695 116.426 58.733L116.122 59.665C115.919 60.3244 115.76 60.8126 115.646 61.1297L113.991 65.7328L113.135 68.0724C113.034 68.3387 112.882 68.4718 112.679 68.4718C112.641 68.4718 112.558 68.4591 112.431 68.4338ZM63.5404 89.4718C63.1093 89.4718 62.8937 88.4256 62.8937 86.3333L62.9127 85.2491L62.9318 84.3741V84.3171V84.1269C62.9444 84.0254 62.9508 83.905 62.9508 83.7655C62.9508 83.7401 62.9318 83.7084 62.8937 83.6704C62.8557 83.6323 62.8367 83.6006 62.8367 83.5753V83.5562C62.7732 83.5816 62.6591 83.5943 62.4943 83.5943C62.3294 83.5943 62.1265 83.5689 61.8856 83.5182C61.8095 83.5055 61.6066 83.4738 61.2769 83.4231V85.6105C61.2769 85.9402 61.2959 86.4601 61.334 87.1702C61.372 87.8677 61.3911 88.3876 61.3911 88.73C61.3911 88.9202 61.3403 89.085 61.2389 89.2245C61.1374 89.364 61.0043 89.4338 60.8394 89.4338C60.5985 89.4338 60.4273 89.1992 60.3259 88.73C60.2244 88.2481 60.1737 87.6204 60.1737 86.8469L60.2117 85.3062C60.2244 84.875 60.2308 84.4185 60.2308 83.9367V83.6133V83.347C60.2308 83.1441 60.2244 83.011 60.2117 82.9476V82.8525L60.2688 81.7492C60.2688 81.2674 60.2498 80.5509 60.2117 79.5999C60.1737 78.6488 60.1547 77.9323 60.1547 77.4505C60.1547 77.2983 60.2054 77.1652 60.3068 77.051C60.4083 76.9369 60.5351 76.8798 60.6873 76.8798C61.0931 76.8798 61.2959 77.2603 61.2959 78.0211L61.2579 80.3797C61.2325 81.0898 61.2199 81.8824 61.2199 82.7574C61.4101 82.8208 61.7525 82.8525 62.247 82.8525H62.9508C62.9761 82.7764 62.9888 82.7003 62.9888 82.6242C62.9888 82.0155 62.9508 81.1152 62.8747 79.9232C62.7859 78.8073 62.7415 77.9006 62.7415 77.2032C62.7415 77.0637 62.7923 76.9496 62.8937 76.8608C63.0078 76.7594 63.141 76.7086 63.2932 76.7086C63.3819 76.7086 63.5087 76.7403 63.6736 76.8038L63.8448 76.8798C63.8448 78.6805 63.9082 81.0835 64.035 84.0888L64.2062 88.9012C64.2062 89.0787 64.1364 89.2182 63.9969 89.3196C63.8701 89.4211 63.718 89.4718 63.5404 89.4718ZM70.2369 89.643C69.9452 89.643 69.7297 89.5986 69.5902 89.5098C69.4507 89.4211 69.381 89.2562 69.381 89.0153C69.381 88.6349 69.3175 87.9882 69.1907 87.0751L69.1147 86.6757L67.2316 86.3904C67.1555 86.682 67.0477 87.2717 66.9082 88.1593C66.8321 88.7807 66.7117 89.1928 66.5468 89.3957C66.458 89.5098 66.3312 89.5669 66.1664 89.5669C66.0142 89.5669 65.8747 89.5225 65.7479 89.4338C65.6211 89.3323 65.5577 89.2118 65.5577 89.0724L65.5958 88.9773L65.6148 88.9012C66.4517 85.6422 67.0857 82.4277 67.5169 79.2575C67.5169 79.2068 67.5232 79.1243 67.5359 79.0102C67.5486 78.8834 67.5613 78.7059 67.5739 78.4776C67.612 78.0084 67.65 77.6343 67.6881 77.3554C67.7388 77.0764 67.8149 76.8672 67.9163 76.7277H68.563C68.7406 76.7277 68.8927 76.772 69.0195 76.8608C69.1464 76.9369 69.2098 77.051 69.2098 77.2032C69.2098 78.1669 69.3429 79.5999 69.6092 81.502C69.8628 83.4548 69.9896 84.8243 69.9896 85.6105C69.9896 85.6866 70.0213 85.8832 70.0847 86.2002C70.1481 86.4918 70.1798 86.682 70.1798 86.7708C70.1798 86.8596 70.2432 87.24 70.37 87.9121C70.4842 88.5207 70.5412 88.9138 70.5412 89.0914V89.1104C70.5412 89.3894 70.4398 89.5669 70.2369 89.643ZM68.9815 85.9909C68.9435 85.8007 68.9244 85.5661 68.9244 85.2872C68.9244 84.1459 68.823 82.6876 68.6201 80.9123L68.4299 78.9341C67.8846 81.9141 67.5105 84.1649 67.3077 85.6866C67.4979 85.8134 68.0558 85.9149 68.9815 85.9909ZM74.0949 89.624C73.7525 89.624 73.3721 89.5796 72.9536 89.4908C72.8015 89.4528 72.7 89.3767 72.6493 89.2626C72.6113 89.1484 72.5922 89.009 72.5922 88.8441C72.5542 88.0579 72.5225 86.8723 72.4971 85.2872V84.0888C72.4971 83.2899 72.4845 82.6876 72.4591 82.2818C72.4464 82.1297 72.3703 81.0011 72.2308 78.8961L72.1357 77.3554C72.1357 77.2032 72.1611 77.1017 72.2118 77.051C72.2625 76.9876 72.3513 76.9559 72.4781 76.9559C72.9219 76.9559 73.1692 77.1398 73.2199 77.5075C73.3214 78.1542 73.3911 78.7502 73.4292 79.2955C73.4799 80.2846 73.5053 81.0328 73.5053 81.54L73.4862 83.0807C73.4609 83.7908 73.4482 84.3107 73.4482 84.6404C73.4482 85.5535 73.4926 86.6567 73.5813 87.9501L73.6194 88.6919C73.6194 88.73 73.6321 88.7807 73.6574 88.8441C73.6955 88.8441 73.9237 88.8504 74.3422 88.8631C74.7607 88.8631 74.9699 88.8251 74.9699 88.749C74.9826 88.5715 74.9826 88.413 74.9699 88.2735C74.9699 88.134 74.9699 88.0135 74.9699 87.9121C74.9572 87.7853 74.9509 87.6014 74.9509 87.3605C74.9509 86.0924 74.9445 85.1413 74.9318 84.5073L74.8748 82.3579C74.8241 80.7601 74.7987 79.5745 74.7987 78.801C74.7987 78.2557 74.8177 77.7294 74.8558 77.2222C74.8684 77.0574 74.9065 76.9496 74.9699 76.8989C75.046 76.8355 75.1728 76.8164 75.3503 76.8418C75.6039 76.8798 75.7624 76.9432 75.8258 77.032C75.9019 77.1208 75.9336 77.2856 75.9209 77.5266C75.8449 78.2747 75.8068 79.2068 75.8068 80.3227L75.8258 82.0155C75.8385 82.3833 75.8449 82.9349 75.8449 83.6704C75.8195 84.9131 75.8068 85.8324 75.8068 86.4284C75.8322 87.0117 75.8575 87.4619 75.8829 87.7789L75.94 88.73H77.6519V88.0072L77.6709 84.9638C77.6709 84.2917 77.6645 83.7845 77.6519 83.4421C77.6392 82.8968 77.6202 82.2628 77.5948 81.54C77.5694 80.8045 77.5504 80.2466 77.5377 79.8661L77.4807 78.0401C77.4807 77.6217 77.487 77.3046 77.4997 77.0891C77.5124 76.9623 77.5441 76.8798 77.5948 76.8418C77.6455 76.7911 77.747 76.7657 77.8991 76.7657C78.1401 76.7784 78.3113 76.8418 78.4127 76.9559C78.5141 77.07 78.5585 77.2476 78.5458 77.4885L78.5649 79.9422L78.5839 80.4178C78.6093 80.8489 78.6219 81.1659 78.6219 81.3688C78.6219 81.6478 78.6156 81.8887 78.6029 82.0916C78.5902 82.2945 78.5776 82.4594 78.5649 82.5862C78.5141 83.1441 78.4888 83.5626 78.4888 83.8416L78.5078 84.3361C78.5332 84.5644 78.5458 84.7355 78.5458 84.8497C78.5585 85.0526 78.5585 85.2364 78.5458 85.4013C78.5458 85.5535 78.5458 85.6803 78.5458 85.7817V86.7137C78.5458 86.98 78.5522 87.2146 78.5649 87.4175C78.5776 87.6204 78.5902 87.7916 78.6029 87.9311L78.641 88.3496C78.641 88.4003 78.6536 88.4637 78.679 88.5398C78.717 88.6159 78.7424 88.6729 78.7551 88.711C78.8058 88.8378 78.8312 88.9329 78.8312 88.9963C78.8312 89.1992 78.7107 89.3323 78.4698 89.3957C78.2162 89.4591 77.8991 89.4908 77.5187 89.4908L75.1791 89.5289C75.0016 89.5289 74.8241 89.5479 74.6465 89.5859C74.3929 89.6113 74.209 89.624 74.0949 89.624ZM88.2722 89.4528C88.1073 89.4781 87.9678 89.4401 87.8537 89.3387C87.7396 89.2245 87.6825 89.0724 87.6825 88.8821C87.6445 88.2735 87.6254 87.6711 87.6254 87.0751C87.6254 86.2636 87.6445 85.4584 87.6825 84.6595C87.7079 83.8479 87.7206 83.2519 87.7206 82.8715C87.5811 81.9711 87.4986 80.5192 87.4733 78.5157C87.4733 78.0465 87.4669 77.666 87.4543 77.3744C86.8075 77.3744 86.3384 77.3617 86.0467 77.3363H85.9326C85.7424 77.3363 85.6409 77.4378 85.6282 77.6407L85.6092 79.0102C85.6092 79.6696 85.6282 80.069 85.6663 80.2085C85.6916 80.3607 85.7043 80.4621 85.7043 80.5129C85.7043 80.6143 85.6916 80.7665 85.6663 80.9694C85.6409 81.1723 85.6282 81.3244 85.6282 81.4259C85.6282 81.6161 85.6599 81.7809 85.7233 81.9204C85.7741 82.0346 85.7931 82.1931 85.7804 82.396C85.7804 82.5988 85.7804 82.751 85.7804 82.8525C85.7931 83.2456 85.7867 83.8225 85.7614 84.5834C85.736 85.1921 85.7233 85.6422 85.7233 85.9339C85.7233 86.3016 85.736 86.7201 85.7614 87.1893C85.7867 87.6458 85.8058 87.9691 85.8184 88.1593L85.8565 88.6919C85.8692 88.8948 85.8248 89.0597 85.7233 89.1865C85.6346 89.3006 85.5014 89.3577 85.3239 89.3577C85.2605 89.3577 85.1781 89.345 85.0766 89.3196C84.9625 89.2816 84.8864 89.2182 84.8484 89.1294C84.8103 89.0407 84.785 88.9265 84.7723 88.787L84.7152 87.1893L84.7342 84.8877C84.7089 83.5182 84.6962 82.4974 84.6962 81.8253L84.6772 80.2846C84.6645 79.5618 84.6328 78.7946 84.5821 77.9831L84.544 77.2032V77.0891C84.544 76.9623 84.5694 76.8735 84.6201 76.8228C84.6708 76.7594 84.7659 76.7086 84.9054 76.6706C85.159 76.6072 85.3873 76.5755 85.5902 76.5755C85.7043 76.5755 85.7867 76.5818 85.8375 76.5945C85.9389 76.5945 86.0911 76.6072 86.294 76.6326C86.5729 76.6579 86.7949 76.6706 86.9597 76.6706C87.2006 76.6706 87.4226 76.6452 87.6254 76.5945C87.7649 76.5565 87.9425 76.5882 88.158 76.6896C88.3736 76.7784 88.4941 76.9115 88.5194 77.0891C88.5448 77.2666 88.5575 77.4061 88.5575 77.5075C88.5575 77.609 88.5511 77.6851 88.5385 77.7358C88.4877 77.888 88.4624 78.0718 88.4624 78.2874C88.4624 78.4015 88.4687 78.5283 88.4814 78.6678C88.4941 78.8073 88.5004 78.9531 88.5004 79.1053C88.5004 79.2321 88.4941 79.3336 88.4814 79.4096C88.4687 79.5238 88.4624 79.7076 88.4624 79.9613C88.4624 80.3797 88.5004 80.9694 88.5765 81.7302L88.6336 82.2438C88.6462 82.3579 88.6526 82.5291 88.6526 82.7574C88.6526 83.0237 88.6462 83.2202 88.6336 83.347C88.6336 83.4485 88.6272 83.5753 88.6145 83.7274C88.6145 83.8669 88.6209 84.0381 88.6336 84.241C88.6209 84.5327 88.6272 84.9701 88.6526 85.5535L88.6716 85.9719L88.7857 88.9582C88.7857 89.0977 88.7477 89.2118 88.6716 89.3006C88.6082 89.3767 88.4751 89.4274 88.2722 89.4528ZM91.4833 89.6049C91.3185 88.9329 91.236 88.0008 91.236 86.8088L91.2741 85.116C91.2994 84.6087 91.3121 84.0444 91.3121 83.4231C91.236 83.2456 91.198 83.0871 91.198 82.9476V82.8905C91.3248 82.6496 91.3882 82.1043 91.3882 81.2547L91.4072 80.3797C91.4199 80.1007 91.4263 79.7901 91.4263 79.4477C91.4263 78.6995 91.3755 78.1099 91.2741 77.6787C91.3121 77.5012 91.3755 77.349 91.4643 77.2222C91.5531 77.0827 91.6608 77.013 91.7877 77.013H92.6246C92.9796 77.013 93.2903 77.0954 93.5566 77.2603C93.8229 77.4124 94.0258 77.6343 94.1653 77.926C94.4189 78.4459 94.5457 79.0609 94.5457 79.771C94.5457 80.2783 94.5394 80.6777 94.5267 80.9694C94.5013 81.3371 94.4379 81.6732 94.3365 81.9775C94.2984 82.1423 94.2414 82.2818 94.1653 82.396C94.1019 82.4974 94.0068 82.6242 93.88 82.7764C93.7024 82.9919 93.4108 83.1948 93.005 83.3851C92.8402 83.4738 92.6246 83.5562 92.3583 83.6323V85.6676L92.3963 86.8849L92.4344 87.4746C92.4851 88.1847 92.5105 88.787 92.5105 89.2816C92.5105 89.4338 92.4471 89.5606 92.3202 89.662C92.1934 89.7761 92.0476 89.8332 91.8828 89.8332L91.4833 89.6049ZM92.3773 82.8525C93.1255 82.7383 93.4996 81.6668 93.4996 79.6379C93.4996 79.2702 93.4805 78.9848 93.4425 78.7819C93.4044 78.6298 93.3537 78.5093 93.2903 78.4205C93.2269 78.3191 93.1318 78.2367 93.005 78.1733C92.8655 78.0972 92.7133 78.0591 92.5485 78.0591C92.5485 78.0465 92.4788 78.0401 92.3393 78.0401V79.1243C92.3393 79.8725 92.3456 80.5382 92.3583 81.1215C92.3583 81.7809 92.3646 82.2121 92.3773 82.415V82.8144V82.8525ZM98.64 89.8332C98.3103 89.8332 98.006 89.7254 97.727 89.5098C97.448 89.307 97.2198 89.028 97.0422 88.6729C96.6745 87.8994 96.4462 87.0561 96.3575 86.1431C96.2433 85.2808 96.1863 84.4502 96.1863 83.6513C96.1863 83.4992 96.1926 83.3724 96.2053 83.2709V82.9285C96.2053 82.8651 96.199 82.8334 96.1863 82.8334V82.4911L96.2053 81.1596C96.218 80.7538 96.2687 80.1071 96.3575 79.2194C96.4209 78.6108 96.5667 78.0211 96.795 77.4505C96.8837 77.1969 96.9979 77.0066 97.1373 76.8798C97.2768 76.7403 97.4353 76.6706 97.6129 76.6706C98.1201 76.6706 98.5766 76.7657 98.9824 76.9559C99.3882 77.1335 99.7305 77.3871 100.01 77.7168C100.263 78.0338 100.479 78.4269 100.656 78.8961C100.834 79.3526 100.961 79.8408 101.037 80.3607C101.113 80.8933 101.151 81.4576 101.151 82.0536V82.2057C101.151 82.5988 101.157 82.9539 101.17 83.2709L101.189 84.3551C101.189 88.0072 100.339 89.8332 98.64 89.8332ZM98.5639 89.0343C98.7922 89.0343 99.0014 88.9456 99.1916 88.768C99.3818 88.5778 99.5277 88.3242 99.6291 88.0072C99.87 87.3605 100.016 86.663 100.067 85.9149C100.13 85.2681 100.162 84.7102 100.162 84.241C100.162 83.6704 100.117 82.9222 100.029 81.9965C99.9525 81.0201 99.9144 80.291 99.9144 79.8091V79.4667C99.8891 78.9848 99.7242 78.5664 99.4199 78.2113C99.1282 77.8563 98.7668 77.6787 98.3357 77.6787C97.9045 77.6787 97.6192 77.926 97.4797 78.4205C97.3529 78.8136 97.2895 79.3209 97.2895 79.9422C97.2895 80.1832 97.2958 80.3861 97.3085 80.5509V81.0645L97.2705 81.9394C97.2451 82.2057 97.2324 82.4974 97.2324 82.8144C97.2324 83.4992 97.2515 84.1776 97.2895 84.8497C97.3402 85.8007 97.467 86.7264 97.6699 87.6268C97.8728 88.5651 98.1708 89.0343 98.5639 89.0343ZM104.144 89.7191C103.979 89.7191 103.827 89.662 103.687 89.5479C103.56 89.4338 103.491 89.2943 103.478 89.1294V88.6349V88.2545C103.465 88.1403 103.459 88.0072 103.459 87.855C103.459 87.5887 103.44 87.1829 103.402 86.6377L103.364 85.4203C103.364 84.799 103.383 83.8733 103.421 82.6432C103.472 81.54 103.497 80.6143 103.497 79.8661C103.497 79.6886 103.478 79.4223 103.44 79.0673C103.402 78.6995 103.383 78.4332 103.383 78.2684C103.383 77.368 103.649 76.9179 104.182 76.9179C104.6 76.9179 105.082 77.0003 105.627 77.1652C106.185 77.33 106.464 77.5266 106.464 77.7548C106.464 77.8816 106.407 78.0021 106.293 78.1162C106.192 78.2177 106.065 78.3001 105.913 78.3635C105.38 78.1733 104.898 78.0465 104.467 77.9831C104.48 78.1733 104.486 78.4459 104.486 78.801C104.486 79.3082 104.48 79.7647 104.467 80.1705C104.429 80.7792 104.41 81.2357 104.41 81.54L104.467 81.8443L104.771 81.8253C104.873 81.8126 105 81.8063 105.152 81.8063C105.761 81.8063 106.065 81.9838 106.065 82.3389C106.065 82.4784 106.008 82.5988 105.894 82.7003C105.78 82.7891 105.634 82.8334 105.456 82.8334C105.228 82.8334 105.05 82.8208 104.924 82.7954H104.448C104.473 83.1251 104.486 83.607 104.486 84.241C104.486 84.875 104.48 85.4457 104.467 85.9529C104.429 86.7264 104.41 87.3034 104.41 87.6838C104.41 88.3939 104.423 88.749 104.448 88.749L105.076 88.73C105.291 88.7173 105.551 88.711 105.856 88.711C106.338 88.711 106.578 88.8631 106.578 89.1675C106.578 89.345 106.496 89.4781 106.331 89.5669C106.179 89.6684 105.989 89.7191 105.761 89.7191H104.144ZM109.454 89.5098C109.403 89.4972 109.321 89.4845 109.207 89.4718C109.093 89.4591 108.998 89.4274 108.921 89.3767C108.731 89.2499 108.655 89.0343 108.693 88.73L108.712 88.3115C108.763 87.6268 108.788 87.1132 108.788 86.7708C108.788 84.7799 108.769 82.7764 108.731 80.7601C108.731 79.7203 108.7 78.6171 108.636 77.4505C108.624 77.2476 108.668 77.0764 108.769 76.9369C108.883 76.7974 109.023 76.7277 109.188 76.7277C109.34 76.7277 109.492 76.7974 109.644 76.9369C109.809 77.0764 109.885 77.2412 109.873 77.4314C109.784 77.8119 109.739 78.5727 109.739 79.714V81.2357C109.739 81.5146 109.752 81.9585 109.777 82.5671C109.815 82.5164 109.936 82.2818 110.139 81.8634C110.164 81.8126 110.209 81.7366 110.272 81.6351C110.335 81.521 110.38 81.4069 110.405 81.2927C110.824 80.0247 111.166 79.0482 111.432 78.3635C111.546 77.9957 111.699 77.6851 111.889 77.4314C112.079 77.1652 112.339 76.9813 112.669 76.8798C112.783 76.8418 112.935 76.8545 113.125 76.9179C113.328 76.9813 113.461 77.0574 113.525 77.1461C113.601 77.2349 113.639 77.3427 113.639 77.4695C113.639 77.5963 113.594 77.7104 113.506 77.8119C113.429 77.9133 113.328 77.9767 113.201 78.0021C112.884 78.0528 112.637 78.1669 112.459 78.3445C112.282 78.522 112.149 78.7122 112.06 78.9151C111.984 79.1053 111.889 79.397 111.775 79.7901L111.014 81.6541C110.976 81.7429 110.919 81.8951 110.843 82.1106C110.779 82.3262 110.716 82.4911 110.652 82.6052C110.627 82.6432 110.589 82.6813 110.538 82.7193C110.488 82.7574 110.443 82.7954 110.405 82.8334C110.494 82.77 110.608 82.7891 110.748 82.8905C110.9 82.9919 111.052 83.1314 111.204 83.309C111.305 83.5119 111.375 83.7338 111.413 83.9747C111.464 84.2156 111.496 84.3551 111.508 84.3932C111.534 84.5961 111.559 84.7482 111.584 84.8497C111.737 85.2555 111.844 85.6295 111.908 85.9719C111.971 86.3016 112.016 86.6947 112.041 87.1512C112.079 87.6077 112.206 88.0072 112.421 88.3496C112.485 88.3622 112.555 88.3749 112.631 88.3876C112.719 88.4003 112.814 88.413 112.916 88.4256C113.119 88.4383 113.252 88.5651 113.315 88.8061C113.328 88.8314 113.334 88.8758 113.334 88.9392C113.334 89.0787 113.271 89.2118 113.144 89.3387C112.954 89.5289 112.713 89.624 112.421 89.624C112.206 89.624 111.997 89.5669 111.794 89.4528C111.603 89.3387 111.464 89.1865 111.375 88.9963C111.299 88.8695 111.236 88.6983 111.185 88.4827C111.096 87.9374 111.02 87.3858 110.957 86.8279C110.906 86.0543 110.849 85.471 110.786 85.0779C110.735 84.6721 110.614 84.2854 110.424 83.9176C110.373 83.8289 110.323 83.7655 110.272 83.7274C110.221 83.6767 110.152 83.6513 110.063 83.6513C109.987 83.6513 109.892 83.6704 109.777 83.7084C109.752 84.6214 109.739 85.5091 109.739 86.3714C109.739 86.9166 109.765 87.7472 109.815 88.8631C109.828 89.0026 109.803 89.1167 109.739 89.2055C109.689 89.2816 109.594 89.383 109.454 89.5098ZM116.334 89.1675L116.315 88.4256C116.302 88.2101 116.296 87.9691 116.296 87.7028L116.315 87.0561C116.277 86.9166 116.181 85.5281 116.029 82.8905C115.877 80.2529 115.788 78.56 115.763 77.8119C115.028 77.7865 114.558 77.7104 114.355 77.5836C114.216 77.4822 114.146 77.368 114.146 77.2412C114.146 77.1398 114.21 77.051 114.336 76.9749C114.476 76.8862 114.615 76.8418 114.755 76.8418C115.11 76.8418 115.541 76.8672 116.048 76.9179C116.53 76.9813 116.961 77.013 117.342 77.013H117.494H117.646C118.039 77.013 118.236 77.1652 118.236 77.4695C118.236 77.6217 118.172 77.7485 118.046 77.8499C117.919 77.9387 117.773 77.9831 117.608 77.9831C117.494 77.9831 117.329 77.964 117.113 77.926L116.733 77.8499L116.714 77.945L116.695 78.0401C116.695 79.1687 116.803 80.9694 117.018 83.4421C117.221 85.7627 117.323 87.5634 117.323 88.8441C117.323 88.9963 117.253 89.1294 117.113 89.2435C116.987 89.3577 116.841 89.4147 116.676 89.4147L116.334 89.1675Z" fill="#8A5B8F"/>
<path d="M116.915 22.3347C91.1802 22.5922 40.3406 36.8165 23.5686 53.7497C6.79663 70.6829 10.0382 87.4826 14.4761 99.6556C20.0234 114.872 30.8579 124.535 45.3859 126.639C64.128 129.354 144.468 99.4634 158.364 92.8222C172.26 86.181 189.943 68.975 187.951 50.7093C185.958 32.4436 142.649 22.0772 116.915 22.3347Z" stroke="#CFC3DE" stroke-width="1.90211" stroke-dasharray="5.71 5.71"/>
<path d="M248.924 147.186C249.436 147.394 250.019 147.148 250.227 146.636L253.611 138.296C253.819 137.785 253.572 137.201 253.06 136.994C252.549 136.786 251.966 137.033 251.758 137.544L248.75 144.957L241.337 141.949C240.825 141.741 240.242 141.988 240.034 142.499C239.826 143.011 240.073 143.594 240.585 143.802L248.924 147.186ZM250.221 145.871C249.853 145 249.449 144.05 249.009 143.031L247.173 143.825C247.61 144.837 248.012 145.782 248.379 146.649L250.221 145.871ZM246.472 137.34C245.655 135.565 244.76 133.68 243.788 131.716L241.995 132.603C242.958 134.549 243.845 136.417 244.655 138.177L246.472 137.34ZM240.934 126.168C239.98 124.384 238.968 122.561 237.898 120.719L236.168 121.724C237.226 123.544 238.226 125.346 239.171 127.112L240.934 126.168ZM234.659 115.384C233.557 113.647 232.403 111.908 231.198 110.183L229.558 111.329C230.746 113.028 231.883 114.742 232.971 116.455L234.659 115.384ZM227.489 105.148C226.212 103.505 224.885 101.89 223.508 100.316L222.003 101.633C223.353 103.175 224.655 104.761 225.91 106.375L227.489 105.148ZM219.227 95.737C217.742 94.2549 216.205 92.8289 214.616 91.4741L213.319 92.996C214.865 94.3145 216.363 95.7046 217.814 97.1526L219.227 95.737ZM209.651 87.6089C207.929 86.3934 206.152 85.2663 204.32 84.2436L203.345 85.9899C205.112 86.9762 206.83 88.0652 208.498 89.2429L209.651 87.6089ZM198.633 81.4944C196.689 80.6971 194.69 80.0202 192.634 79.4795L192.126 81.4137C194.092 81.9311 196.008 82.5795 197.874 83.3448L198.633 81.4944ZM186.409 78.2947C185.368 78.1708 184.313 78.0821 183.246 78.0304L183.149 80.028C184.17 80.0775 185.177 80.1623 186.173 80.2807L186.409 78.2947Z" fill="#CFC3DE"/>
</svg>
