<svg width="419" height="467" viewBox="0 0 419 467" fill="none" xmlns="http://www.w3.org/2000/svg">
<path d="M58.184 44.5728C58.0107 44.5994 57.864 44.5594 57.744 44.4528C57.624 44.3328 57.564 44.1728 57.564 43.9728C57.524 43.3328 57.504 42.6994 57.504 42.0728C57.504 41.2194 57.524 40.3728 57.564 39.5328C57.5907 38.6794 57.604 38.0528 57.604 37.6528C57.4573 36.7061 57.3707 35.1794 57.344 33.0728C57.344 32.5794 57.3373 32.1794 57.324 31.8728C56.644 31.8728 56.1507 31.8594 55.844 31.8328H55.724C55.524 31.8328 55.4173 31.9394 55.404 32.1528L55.384 33.5928C55.384 34.2861 55.404 34.7061 55.444 34.8528C55.4707 35.0128 55.484 35.1194 55.484 35.1728C55.484 35.2794 55.4707 35.4394 55.444 35.6528C55.4173 35.8661 55.404 36.0261 55.404 36.1328C55.404 36.3328 55.4373 36.5061 55.504 36.6528C55.5573 36.7728 55.5773 36.9394 55.564 37.1528C55.564 37.3661 55.564 37.5261 55.564 37.6328C55.5773 38.0461 55.5707 38.6528 55.544 39.4528C55.5173 40.0928 55.504 40.5661 55.504 40.8728C55.504 41.2594 55.5173 41.6994 55.544 42.1928C55.5707 42.6728 55.5907 43.0128 55.604 43.2128L55.644 43.7728C55.6573 43.9861 55.6107 44.1594 55.504 44.2928C55.4107 44.4128 55.2707 44.4728 55.084 44.4728C55.0173 44.4728 54.9307 44.4594 54.824 44.4328C54.704 44.3928 54.624 44.3261 54.584 44.2328C54.544 44.1394 54.5173 44.0194 54.504 43.8728L54.444 42.1928L54.464 39.7728C54.4373 38.3328 54.424 37.2594 54.424 36.5528L54.404 34.9328C54.3907 34.1728 54.3573 33.3661 54.304 32.5128L54.264 31.6928V31.5728C54.264 31.4394 54.2907 31.3461 54.344 31.2928C54.3973 31.2261 54.4973 31.1728 54.644 31.1328C54.9107 31.0661 55.1507 31.0328 55.364 31.0328C55.484 31.0328 55.5707 31.0394 55.624 31.0528C55.7307 31.0528 55.8907 31.0661 56.104 31.0928C56.3973 31.1194 56.6307 31.1328 56.804 31.1328C57.0573 31.1328 57.2907 31.1061 57.504 31.0528C57.6507 31.0128 57.8373 31.0461 58.064 31.1528C58.2907 31.2461 58.4173 31.3861 58.444 31.5728C58.4707 31.7594 58.484 31.9061 58.484 32.0128C58.484 32.1194 58.4773 32.1994 58.464 32.2528C58.4107 32.4128 58.384 32.6061 58.384 32.8328C58.384 32.9528 58.3907 33.0861 58.404 33.2328C58.4173 33.3794 58.424 33.5328 58.424 33.6928C58.424 33.8261 58.4173 33.9328 58.404 34.0128C58.3907 34.1328 58.384 34.3261 58.384 34.5928C58.384 35.0328 58.424 35.6528 58.504 36.4528L58.564 36.9928C58.5773 37.1128 58.584 37.2928 58.584 37.5328C58.584 37.8128 58.5773 38.0194 58.564 38.1528C58.564 38.2594 58.5573 38.3928 58.544 38.5528C58.544 38.6994 58.5507 38.8794 58.564 39.0928C58.5507 39.3994 58.5573 39.8594 58.584 40.4728L58.604 40.9128L58.724 44.0528C58.724 44.1994 58.684 44.3194 58.604 44.4128C58.5373 44.4928 58.3973 44.5461 58.184 44.5728ZM63.4604 44.9728C63.1137 44.9728 62.7937 44.8594 62.5004 44.6328C62.2071 44.4194 61.9671 44.1261 61.7804 43.7528C61.3937 42.9394 61.1537 42.0528 61.0604 41.0928C60.9404 40.1861 60.8804 39.3128 60.8804 38.4728C60.8804 38.3128 60.8871 38.1794 60.9004 38.0728V37.7128C60.9004 37.6461 60.8937 37.6128 60.8804 37.6128V37.2528L60.9004 35.8528C60.9137 35.4261 60.9671 34.7461 61.0604 33.8128C61.1271 33.1728 61.2804 32.5528 61.5204 31.9528C61.6137 31.6861 61.7337 31.4861 61.8804 31.3528C62.0271 31.2061 62.1937 31.1328 62.3804 31.1328C62.9137 31.1328 63.3937 31.2328 63.8204 31.4328C64.2471 31.6194 64.6071 31.8861 64.9004 32.2328C65.1671 32.5661 65.3937 32.9794 65.5804 33.4728C65.7671 33.9528 65.9004 34.4661 65.9804 35.0128C66.0604 35.5728 66.1004 36.1661 66.1004 36.7928V36.9528C66.1004 37.3661 66.1071 37.7394 66.1204 38.0728L66.1404 39.2128C66.1404 43.0528 65.2471 44.9728 63.4604 44.9728ZM63.3804 44.1328C63.6204 44.1328 63.8404 44.0394 64.0404 43.8528C64.2404 43.6528 64.3937 43.3861 64.5004 43.0528C64.7537 42.3728 64.9071 41.6394 64.9604 40.8528C65.0271 40.1728 65.0604 39.5861 65.0604 39.0928C65.0604 38.4928 65.0137 37.7061 64.9204 36.7328C64.8404 35.7061 64.8004 34.9394 64.8004 34.4328V34.0728C64.7737 33.5661 64.6004 33.1261 64.2804 32.7528C63.9737 32.3794 63.5937 32.1928 63.1404 32.1928C62.6871 32.1928 62.3871 32.4528 62.2404 32.9728C62.1071 33.3861 62.0404 33.9194 62.0404 34.5728C62.0404 34.8261 62.0471 35.0394 62.0604 35.2128V35.7528L62.0204 36.6728C61.9937 36.9528 61.9804 37.2594 61.9804 37.5928C61.9804 38.3128 62.0004 39.0261 62.0404 39.7328C62.0937 40.7328 62.2271 41.7061 62.4404 42.6528C62.6537 43.6394 62.9671 44.1328 63.3804 44.1328ZM75.302 47.0528C75.1953 47.0794 75.1153 47.0928 75.062 47.0928C74.902 47.0928 74.7886 46.9928 74.722 46.7928C74.6686 46.6328 74.642 46.4328 74.642 46.1928L74.662 44.8128C74.662 44.7328 74.6553 44.6594 74.642 44.5928C74.6286 44.5261 74.6153 44.4594 74.602 44.3928H72.302C72.4353 44.3928 72.1153 44.4594 71.342 44.5928C70.582 44.7128 69.9886 44.7928 69.562 44.8328L68.662 44.9128L67.662 45.0128C67.662 45.1328 67.662 45.2794 67.662 45.4528C67.6753 45.6261 67.6753 45.8328 67.662 46.0728V46.1728C67.662 46.3861 67.6086 46.5461 67.502 46.6528C67.3953 46.7594 67.2953 46.8128 67.202 46.8128C67.1486 46.8128 67.0686 46.7861 66.962 46.7328C66.722 46.5594 66.5886 46.3194 66.562 46.0128L66.502 44.5528C66.4753 44.0328 66.6886 43.7728 67.142 43.7728C67.3953 43.7594 67.5953 43.6928 67.742 43.5728C67.8886 43.4528 68.062 43.2661 68.262 43.0128C68.462 42.7461 68.6153 42.4528 68.722 42.1328C68.842 41.7994 68.9553 41.3994 69.062 40.9328C69.182 40.4261 69.2686 39.9328 69.322 39.4528C69.3753 38.9728 69.442 38.2861 69.522 37.3928C69.642 35.9928 69.702 34.5861 69.702 33.1728L69.682 32.0528C69.682 31.7994 69.7553 31.5928 69.902 31.4328C70.0486 31.2594 70.2486 31.1728 70.502 31.1728C70.582 31.1728 70.642 31.1794 70.682 31.1928C71.2953 31.2994 71.7953 31.3661 72.182 31.3928H72.282C72.4553 31.3928 72.5553 31.3594 72.582 31.2928C72.702 31.1328 72.8486 31.0528 73.022 31.0528C73.142 31.0528 73.2486 31.0794 73.342 31.1328C73.5553 31.2128 73.6953 31.4128 73.762 31.7328L73.662 35.1528C73.662 37.0061 73.6686 38.3928 73.682 39.3128C73.682 39.7928 73.6953 40.5261 73.722 41.5128L73.742 42.6128C73.742 42.7194 73.7486 42.8194 73.762 42.9128C73.7753 43.0061 73.7886 43.0994 73.802 43.1928C74.0686 43.2194 74.2686 43.2328 74.402 43.2328C74.5086 43.2328 74.5886 43.2261 74.642 43.2128C74.9353 43.1728 75.1953 43.2461 75.422 43.4328C75.662 43.6061 75.782 43.8328 75.782 44.1128C75.782 44.4728 75.7553 45.0128 75.702 45.7328C75.702 45.9194 75.6886 46.1861 75.662 46.5328C75.6353 46.8128 75.5153 46.9861 75.302 47.0528ZM69.542 43.8728C70.2886 43.8061 70.8753 43.7461 71.302 43.6928C71.742 43.6261 72.1753 43.5261 72.602 43.3928C72.7353 41.7794 72.802 40.0528 72.802 38.2128C72.802 36.5061 72.7353 34.6328 72.602 32.5928C72.2553 32.5794 71.6086 32.5461 70.662 32.4928L70.642 33.4328C70.5353 35.4861 70.462 37.0194 70.422 38.0328C70.3686 39.5528 70.1086 41.0461 69.642 42.5128C69.6153 42.5928 69.5553 42.7928 69.462 43.1128C69.382 43.4194 69.2553 43.6861 69.082 43.9128L69.542 43.8728ZM84.5793 47.0528C84.4726 47.0794 84.3926 47.0928 84.3393 47.0928C84.1793 47.0928 84.066 46.9928 83.9993 46.7928C83.946 46.6328 83.9193 46.4328 83.9193 46.1928L83.9393 44.8128C83.9393 44.7328 83.9326 44.6594 83.9193 44.5928C83.906 44.5261 83.8926 44.4594 83.8793 44.3928H81.5793C81.7126 44.3928 81.3926 44.4594 80.6193 44.5928C79.8593 44.7128 79.266 44.7928 78.8393 44.8328L77.9393 44.9128L76.9393 45.0128C76.9393 45.1328 76.9393 45.2794 76.9393 45.4528C76.9526 45.6261 76.9526 45.8328 76.9393 46.0728V46.1728C76.9393 46.3861 76.886 46.5461 76.7793 46.6528C76.6726 46.7594 76.5726 46.8128 76.4793 46.8128C76.426 46.8128 76.346 46.7861 76.2393 46.7328C75.9993 46.5594 75.866 46.3194 75.8393 46.0128L75.7793 44.5528C75.7526 44.0328 75.966 43.7728 76.4193 43.7728C76.6726 43.7594 76.8726 43.6928 77.0193 43.5728C77.166 43.4528 77.3393 43.2661 77.5393 43.0128C77.7393 42.7461 77.8926 42.4528 77.9993 42.1328C78.1193 41.7994 78.2326 41.3994 78.3393 40.9328C78.4593 40.4261 78.546 39.9328 78.5993 39.4528C78.6526 38.9728 78.7193 38.2861 78.7993 37.3928C78.9193 35.9928 78.9793 34.5861 78.9793 33.1728L78.9593 32.0528C78.9593 31.7994 79.0326 31.5928 79.1793 31.4328C79.326 31.2594 79.526 31.1728 79.7793 31.1728C79.8593 31.1728 79.9193 31.1794 79.9593 31.1928C80.5726 31.2994 81.0726 31.3661 81.4593 31.3928H81.5593C81.7326 31.3928 81.8326 31.3594 81.8593 31.2928C81.9793 31.1328 82.126 31.0528 82.2993 31.0528C82.4193 31.0528 82.526 31.0794 82.6193 31.1328C82.8326 31.2128 82.9726 31.4128 83.0393 31.7328L82.9393 35.1528C82.9393 37.0061 82.946 38.3928 82.9593 39.3128C82.9593 39.7928 82.9726 40.5261 82.9993 41.5128L83.0193 42.6128C83.0193 42.7194 83.026 42.8194 83.0393 42.9128C83.0526 43.0061 83.066 43.0994 83.0793 43.1928C83.346 43.2194 83.546 43.2328 83.6793 43.2328C83.786 43.2328 83.866 43.2261 83.9193 43.2128C84.2126 43.1728 84.4726 43.2461 84.6993 43.4328C84.9393 43.6061 85.0593 43.8328 85.0593 44.1128C85.0593 44.4728 85.0326 45.0128 84.9793 45.7328C84.9793 45.9194 84.966 46.1861 84.9393 46.5328C84.9126 46.8128 84.7926 46.9861 84.5793 47.0528ZM78.8193 43.8728C79.566 43.8061 80.1526 43.7461 80.5793 43.6928C81.0193 43.6261 81.4526 43.5261 81.8793 43.3928C82.0126 41.7794 82.0793 40.0528 82.0793 38.2128C82.0793 36.5061 82.0126 34.6328 81.8793 32.5928C81.5326 32.5794 80.886 32.5461 79.9393 32.4928L79.9193 33.4328C79.8126 35.4861 79.7393 37.0194 79.6993 38.0328C79.646 39.5528 79.386 41.0461 78.9193 42.5128C78.8926 42.5928 78.8326 42.7928 78.7393 43.1128C78.6593 43.4194 78.5326 43.6861 78.3593 43.9128L78.8193 43.8728ZM87.1966 44.8528C87.0233 44.8528 86.8633 44.7928 86.7166 44.6728C86.5833 44.5528 86.51 44.4061 86.4966 44.2328V43.7128V43.3128C86.4833 43.1928 86.4766 43.0528 86.4766 42.8928C86.4766 42.6128 86.4566 42.1861 86.4166 41.6128L86.3766 40.3328C86.3766 39.6794 86.3966 38.7061 86.4366 37.4128C86.49 36.2528 86.5166 35.2794 86.5166 34.4928C86.5166 34.3061 86.4966 34.0261 86.4566 33.6528C86.4166 33.2661 86.3966 32.9861 86.3966 32.8128C86.3966 31.8661 86.6766 31.3928 87.2366 31.3928C87.6766 31.3928 88.1833 31.4794 88.7566 31.6528C89.3433 31.8261 89.6366 32.0328 89.6366 32.2728C89.6366 32.4061 89.5766 32.5328 89.4566 32.6528C89.35 32.7594 89.2166 32.8461 89.0566 32.9128C88.4966 32.7128 87.99 32.5794 87.5366 32.5128C87.55 32.7128 87.5566 32.9994 87.5566 33.3728C87.5566 33.9061 87.55 34.3861 87.5366 34.8128C87.4966 35.4528 87.4766 35.9328 87.4766 36.2528L87.5366 36.5728L87.8566 36.5528C87.9633 36.5394 88.0966 36.5328 88.2566 36.5328C88.8966 36.5328 89.2166 36.7194 89.2166 37.0928C89.2166 37.2394 89.1566 37.3661 89.0366 37.4728C88.9166 37.5661 88.7633 37.6128 88.5766 37.6128C88.3366 37.6128 88.15 37.5994 88.0166 37.5728H87.5166C87.5433 37.9194 87.5566 38.4261 87.5566 39.0928C87.5566 39.7594 87.55 40.3594 87.5366 40.8928C87.4966 41.7061 87.4766 42.3128 87.4766 42.7128C87.4766 43.4594 87.49 43.8328 87.5166 43.8328L88.1766 43.8128C88.4033 43.7994 88.6766 43.7928 88.9966 43.7928C89.5033 43.7928 89.7566 43.9528 89.7566 44.2728C89.7566 44.4594 89.67 44.5994 89.4966 44.6928C89.3366 44.7994 89.1366 44.8528 88.8966 44.8528H87.1966ZM92.4002 44.7328C92.2269 44.0261 92.1402 43.0461 92.1402 41.7928L92.1802 40.0128C92.2069 39.4794 92.2202 38.8861 92.2202 38.2328C92.1402 38.0461 92.1002 37.8794 92.1002 37.7328V37.6728C92.2336 37.4194 92.3002 36.8461 92.3002 35.9528L92.3202 35.0328C92.3336 34.7394 92.3402 34.4128 92.3402 34.0528C92.3402 33.2661 92.2869 32.6461 92.1802 32.1928C92.2202 32.0061 92.2869 31.8461 92.3802 31.7128C92.4736 31.5661 92.5869 31.4928 92.7202 31.4928H93.6002C93.9736 31.4928 94.3002 31.5794 94.5802 31.7528C94.8602 31.9128 95.0736 32.1461 95.2202 32.4528C95.4869 32.9994 95.6202 33.6461 95.6202 34.3928C95.6202 34.9261 95.6136 35.3461 95.6002 35.6528C95.5736 36.0394 95.5069 36.3928 95.4002 36.7128C95.3602 36.8861 95.3002 37.0328 95.2202 37.1528C95.1536 37.2594 95.0536 37.3928 94.9202 37.5528C94.7336 37.7794 94.4269 37.9928 94.0002 38.1928C93.8269 38.2861 93.6002 38.3728 93.3202 38.4528V40.5928L93.3602 41.8728L93.4002 42.4928C93.4536 43.2394 93.4802 43.8728 93.4802 44.3928C93.4802 44.5528 93.4136 44.6861 93.2802 44.7928C93.1469 44.9128 92.9936 44.9728 92.8202 44.9728L92.4002 44.7328ZM93.3402 37.6328C94.1269 37.5128 94.5202 36.3861 94.5202 34.2528C94.5202 33.8661 94.5002 33.5661 94.4602 33.3528C94.4202 33.1928 94.3669 33.0661 94.3002 32.9728C94.2336 32.8661 94.1336 32.7794 94.0002 32.7128C93.8536 32.6328 93.6936 32.5928 93.5202 32.5928C93.5202 32.5794 93.4469 32.5728 93.3002 32.5728V33.7128C93.3002 34.4994 93.3069 35.1994 93.3202 35.8128C93.3202 36.5061 93.3269 36.9594 93.3402 37.1728V37.5928V37.6328ZM98.0452 44.8928C97.4986 44.8928 97.1386 44.6261 96.9652 44.0928C96.8986 43.9194 96.8652 43.7128 96.8652 43.4728C96.8652 43.2861 96.8852 43.0728 96.9252 42.8328C96.9652 42.5928 96.9919 42.4328 97.0052 42.3528C97.0186 42.2461 97.0652 42.1594 97.1452 42.0928C97.2386 42.0261 97.3452 41.9861 97.4652 41.9728C97.5852 41.9728 97.6986 42.0128 97.8052 42.0928C97.9119 42.1728 97.9852 42.2661 98.0252 42.3728C98.0519 42.5061 98.0652 42.8528 98.0652 43.4128C98.1319 43.4528 98.1986 43.4661 98.2652 43.4528C98.3052 43.3461 98.3519 43.2194 98.4052 43.0728C98.4719 42.9128 98.5186 42.7794 98.5452 42.6728C98.8119 41.4461 98.9986 40.5194 99.1052 39.8928C99.1852 39.4794 99.3052 39.1194 99.4652 38.8128C99.6386 38.5061 99.8919 38.2328 100.225 37.9928C99.9986 37.6994 99.8252 37.2994 99.7052 36.7928C99.5852 36.2728 99.5252 35.7594 99.5252 35.2528V34.2328C99.5252 33.7661 99.5186 33.4194 99.5052 33.1928C99.5052 33.0328 99.4519 32.8261 99.3452 32.5728C99.2519 32.3194 99.1586 32.1928 99.0652 32.1928C98.9452 32.2194 98.8319 32.2928 98.7252 32.4128C98.6586 32.5728 98.6186 32.7728 98.6052 33.0128C98.5919 33.2394 98.5852 33.3794 98.5852 33.4328C98.5452 33.8061 98.3452 33.9728 97.9852 33.9328C97.8519 33.9194 97.7319 33.8528 97.6252 33.7328C97.5186 33.5994 97.4652 33.4528 97.4652 33.2928C97.4652 33.0128 97.5519 32.7194 97.7252 32.4128C97.8986 32.1061 98.1052 31.8528 98.3452 31.6528C98.5986 31.4528 98.8386 31.3528 99.0652 31.3528C99.2386 31.3528 99.4186 31.4128 99.6052 31.5328C99.8052 31.6394 99.9719 31.7794 100.105 31.9528C100.359 32.3128 100.485 32.8861 100.485 33.6728C100.485 33.8994 100.472 34.2394 100.445 34.6928L100.425 35.0928C100.425 35.5728 100.459 36.0661 100.525 36.5728C100.605 37.0661 100.732 37.4461 100.905 37.7128C100.919 37.7261 100.952 37.7328 101.005 37.7328C101.072 37.7328 101.125 37.7394 101.165 37.7528V37.6528C101.165 36.6128 101.152 35.2928 101.125 33.6928C101.125 33.5328 101.139 33.2928 101.165 32.9728L101.185 32.2928C101.185 32.0928 101.179 31.9394 101.165 31.8328C101.152 31.7928 101.145 31.7394 101.145 31.6728C101.145 31.3661 101.312 31.1794 101.645 31.1128C101.752 31.0861 101.879 31.1328 102.025 31.2528C102.185 31.3594 102.292 31.4928 102.345 31.6528C102.385 31.7728 102.405 31.9061 102.405 32.0528C102.405 32.1461 102.399 32.2128 102.385 32.2528C102.199 33.1594 102.105 34.0128 102.105 34.8128V37.8528C102.292 37.9194 102.452 37.9661 102.585 37.9928C102.879 38.0328 103.052 37.8461 103.105 37.4328C103.145 37.2594 103.192 36.9261 103.245 36.4328C103.259 36.3528 103.265 36.2794 103.265 36.2128C103.265 36.1461 103.272 36.0794 103.285 36.0128L103.385 35.1728C103.425 34.7061 103.485 34.2461 103.565 33.7928C103.725 32.9794 104.052 32.3128 104.545 31.7928C104.745 31.5928 104.985 31.4928 105.265 31.4928C105.479 31.4928 105.679 31.5528 105.865 31.6728C106.065 31.7794 106.212 31.9328 106.305 32.1328C106.425 32.3994 106.505 32.6728 106.545 32.9528C106.599 33.2194 106.639 33.5661 106.665 33.9928C106.679 34.1528 106.639 34.2661 106.545 34.3328C106.452 34.3861 106.299 34.4528 106.085 34.5328C105.899 34.4794 105.752 34.3794 105.645 34.2328C105.552 34.0861 105.519 33.8994 105.545 33.6728C105.585 33.2994 105.472 32.9461 105.205 32.6128C104.992 32.7994 104.832 33.0061 104.725 33.2328C104.619 33.4461 104.539 33.7328 104.485 34.0928C104.432 34.4528 104.385 34.6994 104.345 34.8328C104.239 35.3394 104.185 35.7261 104.185 35.9928C104.185 36.2594 104.145 36.5928 104.065 36.9928C103.985 37.3928 103.892 37.7194 103.785 37.9728C103.745 38.0528 103.725 38.1261 103.725 38.1928C103.725 38.3128 103.779 38.4261 103.885 38.5328C104.072 38.7328 104.212 39.0594 104.305 39.5128C104.345 39.7261 104.365 39.9928 104.365 40.3128L104.345 41.0928C104.319 41.4928 104.305 41.7928 104.305 41.9928C104.305 42.2328 104.352 42.4594 104.445 42.6728C104.552 42.8728 104.705 43.1194 104.905 43.4128C104.959 43.4928 105.039 43.5328 105.145 43.5328C105.292 43.5328 105.419 43.4594 105.525 43.3128C105.672 42.9794 105.765 42.6994 105.805 42.4728C105.845 42.2461 105.872 42.0994 105.885 42.0328C105.925 41.6994 106.085 41.5328 106.365 41.5328C106.459 41.5328 106.532 41.5394 106.585 41.5528L106.845 41.6528C106.899 41.8528 106.925 42.0728 106.925 42.3128C106.925 42.9128 106.705 43.5328 106.265 44.1728C106.159 44.3328 106.005 44.4594 105.805 44.5528C105.619 44.6461 105.405 44.6928 105.165 44.6928C104.912 44.6928 104.692 44.6394 104.505 44.5328C104.319 44.4128 104.172 44.2594 104.065 44.0728C103.892 43.7261 103.759 43.4061 103.665 43.1128C103.572 42.8194 103.525 42.5128 103.525 42.1928C103.525 41.7928 103.512 41.3528 103.485 40.8728C103.459 40.3928 103.439 40.0594 103.425 39.8728L103.385 39.3328C103.385 39.1194 103.305 38.9728 103.145 38.8928C102.999 38.7994 102.819 38.7328 102.605 38.6928C102.392 38.6394 102.225 38.5994 102.105 38.5728C102.079 39.0261 102.065 39.3594 102.065 39.5728C102.065 39.8261 102.052 40.1928 102.025 40.6728C101.999 41.3928 101.992 41.9261 102.005 42.2728C102.019 42.4461 102.045 42.6394 102.085 42.8528C102.125 43.0661 102.152 43.2128 102.165 43.2928C102.219 43.4794 102.252 43.6194 102.265 43.7128C102.292 43.8194 102.305 43.9061 102.305 43.9728C102.305 44.1594 102.252 44.3128 102.145 44.4328C102.039 44.5394 101.879 44.5994 101.665 44.6128C101.492 44.6261 101.379 44.5928 101.325 44.5128C101.272 44.4194 101.239 44.2728 101.225 44.0728L101.245 43.1328C101.245 42.7328 101.232 42.1194 101.205 41.2928C101.179 40.7594 101.165 40.3528 101.165 40.0728V38.4528C101.019 38.4394 100.899 38.4728 100.805 38.5528C100.725 38.6328 100.645 38.7394 100.565 38.8728C100.365 39.1794 100.219 39.5061 100.125 39.8528C100.032 40.1994 99.9386 40.6461 99.8452 41.1928L99.7652 41.6528C99.6052 42.6128 99.3786 43.4394 99.0852 44.1328C98.9919 44.3728 98.8519 44.5594 98.6652 44.6928C98.4786 44.8261 98.2719 44.8928 98.0452 44.8928ZM109.28 44.5528C109.107 44.4994 109.013 44.3861 109 44.2128V43.9128C108.973 43.3528 108.947 42.5128 108.92 41.3928C108.867 40.4194 108.833 39.6728 108.82 39.1528C108.78 38.3394 108.733 37.1194 108.68 35.4928C108.667 35.2128 108.653 34.8261 108.64 34.3328C108.627 33.8394 108.62 33.4661 108.62 33.2128C108.607 33.0661 108.6 32.8594 108.6 32.5928C108.6 32.2861 108.613 32.0594 108.64 31.9128C108.693 31.4994 108.92 31.3061 109.32 31.3328C109.693 31.3328 109.893 31.5461 109.92 31.9728V32.2128L109.9 37.2528V39.6328V40.8328C109.9 41.0194 109.913 41.2394 109.94 41.4928C109.967 41.7328 109.987 41.9061 110 42.0128C110.067 41.6261 110.173 41.2328 110.32 40.8328C110.48 40.4194 110.58 40.1661 110.62 40.0728C110.82 39.5928 110.967 39.1994 111.06 38.8928C111.38 37.8661 111.793 36.6061 112.3 35.1128C112.407 34.8061 112.527 34.4328 112.66 33.9928C113.02 32.8594 113.267 32.1261 113.4 31.7928C113.52 31.4728 113.7 31.2728 113.94 31.1928C114.06 31.1528 114.18 31.1328 114.3 31.1328C114.487 31.1328 114.68 31.1928 114.88 31.3128V32.2728C114.88 33.2728 114.9 34.3061 114.94 35.3728C114.953 35.5994 114.96 35.9394 114.96 36.3928V36.9728C114.96 37.0928 114.953 37.2528 114.94 37.4528C114.94 37.6528 114.947 37.8861 114.96 38.1528L115.02 43.5528C115.02 43.7528 114.973 43.9728 114.88 44.2128C114.84 44.3194 114.773 44.4061 114.68 44.4728C114.587 44.5261 114.487 44.5528 114.38 44.5528C114.007 44.5528 113.82 44.3794 113.82 44.0328C113.82 43.6328 113.84 43.2461 113.88 42.8728C113.907 42.3661 113.92 41.9794 113.92 41.7128C113.893 39.0728 113.86 37.0994 113.82 35.7928C113.82 35.5928 113.793 35.2661 113.74 34.8128L113.68 34.0928C113.56 34.2261 113.493 34.3128 113.48 34.3528L113.16 35.3328C112.947 36.0261 112.78 36.5394 112.66 36.8728L110.92 41.7128L110.02 44.1728C109.913 44.4528 109.753 44.5928 109.54 44.5928C109.5 44.5928 109.413 44.5794 109.28 44.5528ZM57.8728 66.5928C57.4195 66.5928 57.1928 65.4928 57.1928 63.2928L57.2128 62.1528L57.2328 61.2328V61.1728V60.9728C57.2461 60.8661 57.2528 60.7394 57.2528 60.5928C57.2528 60.5661 57.2328 60.5328 57.1928 60.4928C57.1528 60.4528 57.1328 60.4194 57.1328 60.3928V60.3728C57.0661 60.3994 56.9461 60.4128 56.7728 60.4128C56.5995 60.4128 56.3861 60.3861 56.1328 60.3328C56.0528 60.3194 55.8395 60.2861 55.4928 60.2328V62.5328C55.4928 62.8794 55.5128 63.4261 55.5528 64.1728C55.5928 64.9061 55.6128 65.4528 55.6128 65.8128C55.6128 66.0128 55.5595 66.1861 55.4528 66.3328C55.3461 66.4794 55.2061 66.5528 55.0328 66.5528C54.7795 66.5528 54.5995 66.3061 54.4928 65.8128C54.3861 65.3061 54.3328 64.6461 54.3328 63.8328L54.3728 62.2128C54.3861 61.7594 54.3928 61.2794 54.3928 60.7728V60.4328V60.1528C54.3928 59.9394 54.3861 59.7994 54.3728 59.7328V59.6328L54.4328 58.4728C54.4328 57.9661 54.4128 57.2128 54.3728 56.2128C54.3328 55.2128 54.3128 54.4594 54.3128 53.9528C54.3128 53.7928 54.3661 53.6528 54.4728 53.5328C54.5795 53.4128 54.7128 53.3528 54.8728 53.3528C55.2995 53.3528 55.5128 53.7528 55.5128 54.5528L55.4728 57.0328C55.4461 57.7794 55.4328 58.6128 55.4328 59.5328C55.6328 59.5994 55.9928 59.6328 56.5128 59.6328H57.2528C57.2795 59.5528 57.2928 59.4728 57.2928 59.3928C57.2928 58.7528 57.2528 57.8061 57.1728 56.5528C57.0795 55.3794 57.0328 54.4261 57.0328 53.6928C57.0328 53.5461 57.0861 53.4261 57.1928 53.3328C57.3128 53.2261 57.4528 53.1728 57.6128 53.1728C57.7061 53.1728 57.8395 53.2061 58.0128 53.2728L58.1928 53.3528C58.1928 55.2461 58.2595 57.7728 58.3928 60.9328L58.5728 65.9928C58.5728 66.1794 58.4995 66.3261 58.3528 66.4328C58.2195 66.5394 58.0595 66.5928 57.8728 66.5928ZM64.9139 66.7728C64.6072 66.7728 64.3806 66.7261 64.2339 66.6328C64.0872 66.5394 64.0139 66.3661 64.0139 66.1128C64.0139 65.7128 63.9472 65.0328 63.8139 64.0728L63.7339 63.6528L61.7539 63.3528C61.6739 63.6594 61.5606 64.2794 61.4139 65.2128C61.3339 65.8661 61.2072 66.2994 61.0339 66.5128C60.9406 66.6328 60.8072 66.6928 60.6339 66.6928C60.4739 66.6928 60.3272 66.6461 60.1939 66.5528C60.0606 66.4461 59.9939 66.3194 59.9939 66.1728L60.0339 66.0728L60.0539 65.9928C60.9339 62.5661 61.6006 59.1861 62.0539 55.8528C62.0539 55.7994 62.0606 55.7128 62.0739 55.5928C62.0872 55.4594 62.1006 55.2728 62.1139 55.0328C62.1539 54.5394 62.1939 54.1461 62.2339 53.8528C62.2872 53.5594 62.3672 53.3394 62.4739 53.1928H63.1539C63.3406 53.1928 63.5006 53.2394 63.6339 53.3328C63.7672 53.4128 63.8339 53.5328 63.8339 53.6928C63.8339 54.7061 63.9739 56.2128 64.2539 58.2128C64.5206 60.2661 64.6539 61.7061 64.6539 62.5328C64.6539 62.6128 64.6872 62.8194 64.7539 63.1528C64.8206 63.4594 64.8539 63.6594 64.8539 63.7528C64.8539 63.8461 64.9206 64.2461 65.0539 64.9528C65.1739 65.5928 65.2339 66.0061 65.2339 66.1928V66.2128C65.2339 66.5061 65.1272 66.6928 64.9139 66.7728ZM63.5939 62.9328C63.5539 62.7328 63.5339 62.4861 63.5339 62.1928C63.5339 60.9928 63.4272 59.4594 63.2139 57.5928L63.0139 55.5128C62.4406 58.6461 62.0472 61.0128 61.8339 62.6128C62.0339 62.7461 62.6206 62.8528 63.5939 62.9328ZM68.9705 66.7528C68.6105 66.7528 68.2105 66.7061 67.7705 66.6128C67.6105 66.5728 67.5038 66.4928 67.4505 66.3728C67.4105 66.2528 67.3905 66.1061 67.3905 65.9328C67.3505 65.1061 67.3171 63.8594 67.2905 62.1928V60.9328C67.2905 60.0928 67.2771 59.4594 67.2505 59.0328C67.2371 58.8728 67.1571 57.6861 67.0105 55.4728L66.9105 53.8528C66.9105 53.6928 66.9371 53.5861 66.9905 53.5328C67.0438 53.4661 67.1371 53.4328 67.2705 53.4328C67.7371 53.4328 67.9971 53.6261 68.0505 54.0128C68.1571 54.6928 68.2305 55.3194 68.2705 55.8928C68.3238 56.9328 68.3505 57.7194 68.3505 58.2528L68.3305 59.8728C68.3038 60.6194 68.2905 61.1661 68.2905 61.5128C68.2905 62.4728 68.3371 63.6328 68.4305 64.9928L68.4705 65.7728C68.4705 65.8128 68.4838 65.8661 68.5105 65.9328C68.5505 65.9328 68.7905 65.9394 69.2305 65.9528C69.6705 65.9528 69.8905 65.9128 69.8905 65.8328C69.9038 65.6461 69.9038 65.4794 69.8905 65.3328C69.8905 65.1861 69.8905 65.0594 69.8905 64.9528C69.8771 64.8194 69.8705 64.6261 69.8705 64.3728C69.8705 63.0394 69.8638 62.0394 69.8505 61.3728L69.7905 59.1128C69.7371 57.4328 69.7105 56.1861 69.7105 55.3728C69.7105 54.7994 69.7305 54.2461 69.7705 53.7128C69.7838 53.5394 69.8238 53.4261 69.8905 53.3728C69.9705 53.3061 70.1038 53.2861 70.2905 53.3128C70.5571 53.3528 70.7238 53.4194 70.7905 53.5128C70.8705 53.6061 70.9038 53.7794 70.8905 54.0328C70.8105 54.8194 70.7705 55.7994 70.7705 56.9728L70.7905 58.7528C70.8038 59.1394 70.8105 59.7194 70.8105 60.4928C70.7838 61.7994 70.7705 62.7661 70.7705 63.3928C70.7971 64.0061 70.8238 64.4794 70.8505 64.8128L70.9105 65.8128H72.7105V65.0528L72.7305 61.8528C72.7305 61.1461 72.7238 60.6128 72.7105 60.2528C72.6971 59.6794 72.6771 59.0128 72.6505 58.2528C72.6238 57.4794 72.6038 56.8928 72.5905 56.4928L72.5305 54.5728C72.5305 54.1328 72.5371 53.7994 72.5505 53.5728C72.5638 53.4394 72.5971 53.3528 72.6505 53.3128C72.7038 53.2594 72.8105 53.2328 72.9705 53.2328C73.2238 53.2461 73.4038 53.3128 73.5105 53.4328C73.6171 53.5528 73.6638 53.7394 73.6505 53.9928L73.6705 56.5728L73.6905 57.0728C73.7171 57.5261 73.7305 57.8594 73.7305 58.0728C73.7305 58.3661 73.7238 58.6194 73.7105 58.8328C73.6971 59.0461 73.6838 59.2194 73.6705 59.3528C73.6171 59.9394 73.5905 60.3794 73.5905 60.6728L73.6105 61.1928C73.6371 61.4328 73.6505 61.6128 73.6505 61.7328C73.6638 61.9461 73.6638 62.1394 73.6505 62.3128C73.6505 62.4728 73.6505 62.6061 73.6505 62.7128V63.6928C73.6505 63.9728 73.6571 64.2194 73.6705 64.4328C73.6838 64.6461 73.6971 64.8261 73.7105 64.9728L73.7505 65.4128C73.7505 65.4661 73.7638 65.5328 73.7905 65.6128C73.8305 65.6928 73.8571 65.7528 73.8705 65.7928C73.9238 65.9261 73.9505 66.0261 73.9505 66.0928C73.9505 66.3061 73.8238 66.4461 73.5705 66.5128C73.3038 66.5794 72.9705 66.6128 72.5705 66.6128L70.1105 66.6528C69.9238 66.6528 69.7371 66.6728 69.5505 66.7128C69.2838 66.7394 69.0905 66.7528 68.9705 66.7528ZM83.8773 66.5728C83.704 66.5994 83.5573 66.5594 83.4373 66.4528C83.3173 66.3328 83.2573 66.1728 83.2573 65.9728C83.2173 65.3328 83.1973 64.6994 83.1973 64.0728C83.1973 63.2194 83.2173 62.3728 83.2573 61.5328C83.284 60.6794 83.2973 60.0528 83.2973 59.6528C83.1507 58.7061 83.064 57.1794 83.0373 55.0728C83.0373 54.5794 83.0307 54.1794 83.0173 53.8728C82.3373 53.8728 81.844 53.8594 81.5373 53.8328H81.4173C81.2173 53.8328 81.1107 53.9394 81.0973 54.1528L81.0773 55.5928C81.0773 56.2861 81.0973 56.7061 81.1373 56.8528C81.164 57.0128 81.1773 57.1194 81.1773 57.1728C81.1773 57.2794 81.164 57.4394 81.1373 57.6528C81.1107 57.8661 81.0973 58.0261 81.0973 58.1328C81.0973 58.3328 81.1307 58.5061 81.1973 58.6528C81.2507 58.7728 81.2707 58.9394 81.2573 59.1528C81.2573 59.3661 81.2573 59.5261 81.2573 59.6328C81.2707 60.0461 81.264 60.6528 81.2373 61.4528C81.2107 62.0928 81.1973 62.5661 81.1973 62.8728C81.1973 63.2594 81.2107 63.6994 81.2373 64.1928C81.264 64.6728 81.284 65.0128 81.2973 65.2128L81.3373 65.7728C81.3507 65.9861 81.304 66.1594 81.1973 66.2928C81.104 66.4128 80.964 66.4728 80.7773 66.4728C80.7107 66.4728 80.624 66.4594 80.5173 66.4328C80.3973 66.3928 80.3173 66.3261 80.2773 66.2328C80.2373 66.1394 80.2107 66.0194 80.1973 65.8728L80.1373 64.1928L80.1573 61.7728C80.1307 60.3328 80.1173 59.2594 80.1173 58.5528L80.0973 56.9328C80.084 56.1728 80.0507 55.3661 79.9973 54.5128L79.9573 53.6928V53.5728C79.9573 53.4394 79.984 53.3461 80.0373 53.2928C80.0907 53.2261 80.1907 53.1728 80.3373 53.1328C80.604 53.0661 80.844 53.0328 81.0573 53.0328C81.1773 53.0328 81.264 53.0394 81.3173 53.0528C81.424 53.0528 81.584 53.0661 81.7973 53.0928C82.0907 53.1194 82.324 53.1328 82.4973 53.1328C82.7507 53.1328 82.984 53.1061 83.1973 53.0528C83.344 53.0128 83.5307 53.0461 83.7573 53.1528C83.984 53.2461 84.1107 53.3861 84.1373 53.5728C84.164 53.7594 84.1773 53.9061 84.1773 54.0128C84.1773 54.1194 84.1707 54.1994 84.1573 54.2528C84.104 54.4128 84.0773 54.6061 84.0773 54.8328C84.0773 54.9528 84.084 55.0861 84.0973 55.2328C84.1107 55.3794 84.1173 55.5328 84.1173 55.6928C84.1173 55.8261 84.1107 55.9328 84.0973 56.0128C84.084 56.1328 84.0773 56.3261 84.0773 56.5928C84.0773 57.0328 84.1173 57.6528 84.1973 58.4528L84.2573 58.9928C84.2707 59.1128 84.2773 59.2928 84.2773 59.5328C84.2773 59.8128 84.2707 60.0194 84.2573 60.1528C84.2573 60.2594 84.2507 60.3928 84.2373 60.5528C84.2373 60.6994 84.244 60.8794 84.2573 61.0928C84.244 61.3994 84.2507 61.8594 84.2773 62.4728L84.2973 62.9128L84.4173 66.0528C84.4173 66.1994 84.3773 66.3194 84.2973 66.4128C84.2307 66.4928 84.0907 66.5461 83.8773 66.5728ZM87.2538 66.7328C87.0804 66.0261 86.9938 65.0461 86.9938 63.7928L87.0338 62.0128C87.0604 61.4794 87.0738 60.8861 87.0738 60.2328C86.9938 60.0461 86.9538 59.8794 86.9538 59.7328V59.6728C87.0871 59.4194 87.1538 58.8461 87.1538 57.9528L87.1738 57.0328C87.1871 56.7394 87.1938 56.4128 87.1938 56.0528C87.1938 55.2661 87.1404 54.6461 87.0338 54.1928C87.0738 54.0061 87.1404 53.8461 87.2338 53.7128C87.3271 53.5661 87.4404 53.4928 87.5738 53.4928H88.4538C88.8271 53.4928 89.1538 53.5794 89.4338 53.7528C89.7138 53.9128 89.9271 54.1461 90.0738 54.4528C90.3404 54.9994 90.4738 55.6461 90.4738 56.3928C90.4738 56.9261 90.4671 57.3461 90.4538 57.6528C90.4271 58.0394 90.3604 58.3928 90.2538 58.7128C90.2138 58.8861 90.1538 59.0328 90.0738 59.1528C90.0071 59.2594 89.9071 59.3928 89.7738 59.5528C89.5871 59.7794 89.2804 59.9928 88.8538 60.1928C88.6804 60.2861 88.4538 60.3728 88.1738 60.4528V62.5928L88.2138 63.8728L88.2538 64.4928C88.3071 65.2394 88.3338 65.8728 88.3338 66.3928C88.3338 66.5528 88.2671 66.6861 88.1338 66.7928C88.0004 66.9128 87.8471 66.9728 87.6738 66.9728L87.2538 66.7328ZM88.1938 59.6328C88.9804 59.5128 89.3738 58.3861 89.3738 56.2528C89.3738 55.8661 89.3538 55.5661 89.3138 55.3528C89.2738 55.1928 89.2204 55.0661 89.1538 54.9728C89.0871 54.8661 88.9871 54.7794 88.8538 54.7128C88.7071 54.6328 88.5471 54.5928 88.3738 54.5928C88.3738 54.5794 88.3004 54.5728 88.1538 54.5728V55.7128C88.1538 56.4994 88.1604 57.1994 88.1738 57.8128C88.1738 58.5061 88.1804 58.9594 88.1938 59.1728V59.5928V59.6328ZM94.7788 66.9728C94.4321 66.9728 94.1121 66.8594 93.8188 66.6328C93.5254 66.4194 93.2854 66.1261 93.0988 65.7528C92.7121 64.9394 92.4721 64.0528 92.3788 63.0928C92.2588 62.1861 92.1988 61.3128 92.1988 60.4728C92.1988 60.3128 92.2054 60.1794 92.2188 60.0728V59.7128C92.2188 59.6461 92.2121 59.6128 92.1988 59.6128V59.2528L92.2188 57.8528C92.2321 57.4261 92.2854 56.7461 92.3788 55.8128C92.4454 55.1728 92.5988 54.5528 92.8388 53.9528C92.9321 53.6861 93.0521 53.4861 93.1988 53.3528C93.3454 53.2061 93.5121 53.1328 93.6988 53.1328C94.2321 53.1328 94.7121 53.2328 95.1388 53.4328C95.5654 53.6194 95.9254 53.8861 96.2188 54.2328C96.4854 54.5661 96.7121 54.9794 96.8988 55.4728C97.0854 55.9528 97.2188 56.4661 97.2988 57.0128C97.3788 57.5728 97.4188 58.1661 97.4188 58.7928V58.9528C97.4188 59.3661 97.4254 59.7394 97.4388 60.0728L97.4588 61.2128C97.4588 65.0528 96.5654 66.9728 94.7788 66.9728ZM94.6988 66.1328C94.9388 66.1328 95.1588 66.0394 95.3588 65.8528C95.5588 65.6528 95.7121 65.3861 95.8188 65.0528C96.0721 64.3728 96.2254 63.6394 96.2788 62.8528C96.3454 62.1728 96.3788 61.5861 96.3788 61.0928C96.3788 60.4928 96.3321 59.7061 96.2388 58.7328C96.1588 57.7061 96.1188 56.9394 96.1188 56.4328V56.0728C96.0921 55.5661 95.9188 55.1261 95.5988 54.7528C95.2921 54.3794 94.9121 54.1928 94.4588 54.1928C94.0054 54.1928 93.7054 54.4528 93.5588 54.9728C93.4254 55.3861 93.3588 55.9194 93.3588 56.5728C93.3588 56.8261 93.3654 57.0394 93.3788 57.2128V57.7528L93.3388 58.6728C93.3121 58.9528 93.2988 59.2594 93.2988 59.5928C93.2988 60.3128 93.3188 61.0261 93.3588 61.7328C93.4121 62.7328 93.5454 63.7061 93.7588 64.6528C93.9721 65.6394 94.2854 66.1328 94.6988 66.1328ZM100.566 66.8528C100.392 66.8528 100.232 66.7928 100.086 66.6728C99.9524 66.5528 99.8791 66.4061 99.8658 66.2328V65.7128V65.3128C99.8524 65.1928 99.8458 65.0528 99.8458 64.8928C99.8458 64.6128 99.8258 64.1861 99.7858 63.6128L99.7458 62.3328C99.7458 61.6794 99.7658 60.7061 99.8058 59.4128C99.8591 58.2528 99.8858 57.2794 99.8858 56.4928C99.8858 56.3061 99.8658 56.0261 99.8258 55.6528C99.7858 55.2661 99.7658 54.9861 99.7658 54.8128C99.7658 53.8661 100.046 53.3928 100.606 53.3928C101.046 53.3928 101.552 53.4794 102.126 53.6528C102.712 53.8261 103.006 54.0328 103.006 54.2728C103.006 54.4061 102.946 54.5328 102.826 54.6528C102.719 54.7594 102.586 54.8461 102.426 54.9128C101.866 54.7128 101.359 54.5794 100.906 54.5128C100.919 54.7128 100.926 54.9994 100.926 55.3728C100.926 55.9061 100.919 56.3861 100.906 56.8128C100.866 57.4528 100.846 57.9328 100.846 58.2528L100.906 58.5728L101.226 58.5528C101.332 58.5394 101.466 58.5328 101.626 58.5328C102.266 58.5328 102.586 58.7194 102.586 59.0928C102.586 59.2394 102.526 59.3661 102.406 59.4728C102.286 59.5661 102.132 59.6128 101.946 59.6128C101.706 59.6128 101.519 59.5994 101.386 59.5728H100.886C100.912 59.9194 100.926 60.4261 100.926 61.0928C100.926 61.7594 100.919 62.3594 100.906 62.8928C100.866 63.7061 100.846 64.3128 100.846 64.7128C100.846 65.4594 100.859 65.8328 100.886 65.8328L101.546 65.8128C101.772 65.7994 102.046 65.7928 102.366 65.7928C102.872 65.7928 103.126 65.9528 103.126 66.2728C103.126 66.4594 103.039 66.5994 102.866 66.6928C102.706 66.7994 102.506 66.8528 102.266 66.8528H100.566ZM106.149 66.6328C106.096 66.6194 106.009 66.6061 105.889 66.5928C105.769 66.5794 105.669 66.5461 105.589 66.4928C105.389 66.3594 105.309 66.1328 105.349 65.8128L105.369 65.3728C105.423 64.6528 105.449 64.1128 105.449 63.7528C105.449 61.6594 105.429 59.5528 105.389 57.4328C105.389 56.3394 105.356 55.1794 105.289 53.9528C105.276 53.7394 105.323 53.5594 105.429 53.4128C105.549 53.2661 105.696 53.1928 105.869 53.1928C106.029 53.1928 106.189 53.2661 106.349 53.4128C106.523 53.5594 106.603 53.7328 106.589 53.9328C106.496 54.3328 106.449 55.1328 106.449 56.3328V57.9328C106.449 58.2261 106.463 58.6928 106.489 59.3328C106.529 59.2794 106.656 59.0328 106.869 58.5928C106.896 58.5394 106.943 58.4594 107.009 58.3528C107.076 58.2328 107.123 58.1128 107.149 57.9928C107.589 56.6594 107.949 55.6328 108.229 54.9128C108.349 54.5261 108.509 54.1994 108.709 53.9328C108.909 53.6528 109.183 53.4594 109.529 53.3528C109.649 53.3128 109.809 53.3261 110.009 53.3928C110.223 53.4594 110.363 53.5394 110.429 53.6328C110.509 53.7261 110.549 53.8394 110.549 53.9728C110.549 54.1061 110.503 54.2261 110.409 54.3328C110.329 54.4394 110.223 54.5061 110.089 54.5328C109.756 54.5861 109.496 54.7061 109.309 54.8928C109.123 55.0794 108.983 55.2794 108.889 55.4928C108.809 55.6928 108.709 55.9994 108.589 56.4128L107.789 58.3728C107.749 58.4661 107.689 58.6261 107.609 58.8528C107.543 59.0794 107.476 59.2528 107.409 59.3728C107.383 59.4128 107.343 59.4528 107.289 59.4928C107.236 59.5328 107.189 59.5728 107.149 59.6128C107.243 59.5461 107.363 59.5661 107.509 59.6728C107.669 59.7794 107.829 59.9261 107.989 60.1128C108.096 60.3261 108.169 60.5594 108.209 60.8128C108.263 61.0661 108.296 61.2128 108.309 61.2528C108.336 61.4661 108.363 61.6261 108.389 61.7328C108.549 62.1594 108.663 62.5528 108.729 62.9128C108.796 63.2594 108.843 63.6728 108.869 64.1528C108.909 64.6328 109.043 65.0528 109.269 65.4128C109.336 65.4261 109.409 65.4394 109.489 65.4528C109.583 65.4661 109.683 65.4794 109.789 65.4928C110.003 65.5061 110.143 65.6394 110.209 65.8928C110.223 65.9194 110.229 65.9661 110.229 66.0328C110.229 66.1794 110.163 66.3194 110.029 66.4528C109.829 66.6528 109.576 66.7528 109.269 66.7528C109.043 66.7528 108.823 66.6928 108.609 66.5728C108.409 66.4528 108.263 66.2928 108.169 66.0928C108.089 65.9594 108.023 65.7794 107.969 65.5528C107.876 64.9794 107.796 64.3994 107.729 63.8128C107.676 62.9994 107.616 62.3861 107.549 61.9728C107.496 61.5461 107.369 61.1394 107.169 60.7528C107.116 60.6594 107.063 60.5928 107.009 60.5528C106.956 60.4994 106.883 60.4728 106.789 60.4728C106.709 60.4728 106.609 60.4928 106.489 60.5328C106.463 61.4928 106.449 62.4261 106.449 63.3328C106.449 63.9061 106.476 64.7794 106.529 65.9528C106.543 66.0994 106.516 66.2194 106.449 66.3128C106.396 66.3928 106.296 66.4994 106.149 66.6328ZM113.383 66.2728L113.363 65.4928C113.35 65.2661 113.343 65.0128 113.343 64.7328L113.363 64.0528C113.323 63.9061 113.223 62.4461 113.063 59.6728C112.903 56.8994 112.81 55.1194 112.783 54.3328C112.01 54.3061 111.516 54.2261 111.303 54.0928C111.156 53.9861 111.083 53.8661 111.083 53.7328C111.083 53.6261 111.15 53.5328 111.283 53.4528C111.43 53.3594 111.576 53.3128 111.723 53.3128C112.096 53.3128 112.55 53.3394 113.083 53.3928C113.59 53.4594 114.043 53.4928 114.443 53.4928H114.603H114.763C115.176 53.4928 115.383 53.6528 115.383 53.9728C115.383 54.1328 115.316 54.2661 115.183 54.3728C115.05 54.4661 114.896 54.5128 114.723 54.5128C114.603 54.5128 114.43 54.4928 114.203 54.4528L113.803 54.3728L113.783 54.4728L113.763 54.5728C113.763 55.7594 113.876 57.6528 114.103 60.2528C114.316 62.6928 114.423 64.5861 114.423 65.9328C114.423 66.0928 114.35 66.2328 114.203 66.3528C114.07 66.4728 113.916 66.5328 113.743 66.5328L113.383 66.2728Z" fill="#8A5B8F"/>
<path d="M417.646 286.593L416.647 286.629L417.646 286.593ZM265.691 462.297C265.528 462.824 265.823 463.384 266.35 463.548L274.946 466.214C275.474 466.378 276.034 466.083 276.198 465.555C276.361 465.028 276.066 464.467 275.539 464.304L267.898 461.934L270.268 454.293C270.431 453.766 270.136 453.205 269.609 453.042C269.081 452.878 268.521 453.173 268.358 453.701L265.691 462.297ZM221.231 72.0022C222.149 72.4222 223.069 72.8403 223.99 73.2567L224.814 71.4344C223.895 71.0191 222.978 70.6021 222.062 70.1833L221.231 72.0022ZM229.525 75.735C231.371 76.5541 233.221 77.3674 235.073 78.1762L235.873 76.3434C234.024 75.5359 232.178 74.7241 230.336 73.9068L229.525 75.735ZM240.632 80.5899C242.487 81.3907 244.342 82.1882 246.198 82.9837L246.986 81.1455C245.131 80.3504 243.278 79.5537 241.425 78.7538L240.632 80.5899ZM251.768 85.3664C253.626 86.1599 255.482 86.9525 257.338 87.7458L258.124 85.9069C256.268 85.1134 254.411 84.3205 252.554 83.5272L251.768 85.3664ZM262.902 90.1301C264.758 90.9275 266.611 91.7267 268.461 92.5289L269.257 90.694C267.404 89.8907 265.549 89.0906 263.692 88.2925L262.902 90.1301ZM274.007 94.9489C275.855 95.7609 277.699 96.5772 279.538 97.3991L280.354 95.5732C278.511 94.7494 276.663 93.9313 274.812 93.1178L274.007 94.9489ZM285.052 99.8897C286.888 100.728 288.717 101.573 290.54 102.426L291.388 100.615C289.559 99.7588 287.724 98.911 285.883 98.0704L285.052 99.8897ZM296 105.019C297.818 105.896 299.628 106.782 301.429 107.679L302.321 105.888C300.512 104.987 298.694 104.098 296.868 103.218L296 105.019ZM306.816 110.41C308.608 111.335 310.39 112.272 312.16 113.223L313.107 111.462C311.326 110.505 309.535 109.562 307.734 108.633L306.816 110.41ZM317.455 116.13C319.213 117.115 320.957 118.116 322.689 119.133L323.702 117.409C321.959 116.384 320.202 115.377 318.434 114.385L317.455 116.13ZM327.858 122.245C329.572 123.302 331.272 124.378 332.956 125.473L334.046 123.797C332.348 122.693 330.635 121.608 328.909 120.543L327.858 122.245ZM337.969 128.823C339.626 129.962 341.267 131.122 342.89 132.304L344.068 130.687C342.429 129.494 340.773 128.324 339.101 127.175L337.969 128.823ZM347.711 135.921C349.299 137.149 350.869 138.402 352.419 139.679L353.691 138.135C352.124 136.845 350.538 135.58 348.935 134.339L347.711 135.921ZM357.007 143.584C358.511 144.908 359.995 146.257 361.458 147.634L362.829 146.178C361.35 144.785 359.849 143.421 358.328 142.083L357.007 143.584ZM365.768 151.836C367.178 153.26 368.566 154.712 369.931 156.194L371.402 154.84C370.02 153.339 368.616 151.87 367.19 150.429L365.768 151.836ZM373.919 160.688C375.216 162.206 376.491 163.754 377.742 165.334L379.31 164.093C378.043 162.493 376.753 160.925 375.439 159.389L373.919 160.688ZM381.394 170.132C382.567 171.737 383.717 173.373 384.843 175.041L386.501 173.922C385.361 172.233 384.196 170.576 383.008 168.951L381.394 170.132ZM388.115 180.096C389.166 181.789 390.193 183.515 391.195 185.274L392.933 184.284C391.918 182.503 390.878 180.756 389.814 179.041L388.115 180.096ZM394.068 190.54C394.991 192.31 395.891 194.112 396.765 195.948L398.571 195.088C397.686 193.23 396.776 191.406 395.841 189.615L394.068 190.54ZM399.249 201.407C400.04 203.23 400.808 205.084 401.551 206.972L403.412 206.238C402.66 204.33 401.884 202.454 401.083 200.61L399.249 201.407ZM403.67 212.621C404.334 214.485 404.976 216.379 405.594 218.304L407.498 217.692C406.873 215.747 406.225 213.833 405.554 211.95L403.67 212.621ZM407.36 224.108C407.905 226.001 408.428 227.924 408.93 229.876L410.867 229.379C410.361 227.408 409.832 225.467 409.282 223.555L407.36 224.108ZM410.361 235.795C410.796 237.711 411.211 239.655 411.605 241.627L413.566 241.235C413.169 239.246 412.75 237.285 412.311 235.352L410.361 235.795ZM412.723 247.618C413.059 249.554 413.375 251.516 413.672 253.505L415.65 253.209C415.351 251.205 415.032 249.228 414.693 247.276L412.723 247.618ZM414.503 259.551C414.748 261.5 414.975 263.474 415.184 265.472L417.173 265.265C416.963 263.252 416.734 261.265 416.487 259.302L414.503 259.551ZM415.752 271.533C415.916 273.5 416.062 275.49 416.191 277.504L418.187 277.376C418.057 275.35 417.91 273.347 417.745 271.367L415.752 271.533ZM416.521 283.552C416.568 284.572 416.61 285.597 416.647 286.629L418.646 286.556C418.608 285.519 418.566 284.487 418.519 283.461L416.521 283.552ZM416.647 286.629C416.684 287.647 416.707 288.661 416.715 289.672L418.715 289.655C418.706 288.626 418.683 287.593 418.646 286.556L416.647 286.629ZM416.597 295.701C416.5 297.728 416.347 299.739 416.14 301.735L418.129 301.942C418.34 299.909 418.496 297.86 418.594 295.796L416.597 295.701ZM415.349 307.73C415.029 309.726 414.656 311.705 414.231 313.668L416.186 314.091C416.618 312.093 416.998 310.078 417.324 308.047L415.349 307.73ZM412.796 319.54C412.266 321.488 411.685 323.421 411.056 325.336L412.957 325.96C413.596 324.012 414.186 322.048 414.726 320.066L412.796 319.54ZM409.029 331.037C408.307 332.92 407.539 334.787 406.729 336.637L408.56 337.439C409.383 335.562 410.163 333.666 410.896 331.753L409.029 331.037ZM404.173 342.13C403.282 343.939 402.351 345.73 401.382 347.505L403.137 348.464C404.12 346.665 405.064 344.848 405.967 343.014L404.173 342.13ZM398.371 352.765C397.334 354.496 396.262 356.211 395.156 357.908L396.832 358.999C397.951 357.282 399.037 355.546 400.087 353.792L398.371 352.765ZM391.754 362.933C390.593 364.584 389.402 366.218 388.183 367.835L389.779 369.04C391.012 367.405 392.216 365.753 393.39 364.083L391.754 362.933ZM384.452 372.624C383.184 374.2 381.891 375.759 380.574 377.3L382.095 378.599C383.424 377.043 384.73 375.469 386.01 373.878L384.452 372.624ZM376.565 381.863C375.208 383.365 373.83 384.85 372.433 386.317L373.882 387.696C375.29 386.217 376.68 384.719 378.049 383.203L376.565 381.863ZM368.188 390.667C366.754 392.1 365.304 393.516 363.84 394.914L365.221 396.36C366.696 394.952 368.157 393.526 369.602 392.081L368.188 390.667ZM359.394 399.063C357.894 400.434 356.381 401.785 354.858 403.119L356.176 404.624C357.709 403.281 359.232 401.92 360.743 400.54L359.394 399.063ZM350.244 407.08C348.689 408.389 347.126 409.678 345.558 410.949L346.817 412.503C348.395 411.225 349.967 409.927 351.531 408.61L350.244 407.08ZM340.789 414.742C339.182 415.997 337.57 417.233 335.958 418.449L337.163 420.046C338.783 418.824 340.404 417.581 342.021 416.318L340.789 414.742ZM331.072 422.073C329.424 423.274 327.778 424.455 326.137 425.614L327.29 427.248C328.94 426.083 330.594 424.897 332.25 423.689L331.072 422.073ZM321.128 429.095C319.434 430.254 317.748 431.39 316.072 432.502L317.178 434.168C318.861 433.051 320.556 431.91 322.258 430.745L321.128 429.095ZM310.974 435.836C309.246 436.95 307.533 438.038 305.838 439.1L306.9 440.795C308.602 439.728 310.322 438.636 312.057 437.517L310.974 435.836ZM300.666 442.296C298.905 443.37 297.168 444.414 295.459 445.428L296.48 447.147C298.195 446.13 299.939 445.082 301.707 444.003L300.666 442.296ZM290.199 448.51C288.393 449.554 286.627 450.562 284.907 451.533L285.89 453.275C287.616 452.301 289.388 451.289 291.2 450.241L290.199 448.51ZM279.592 454.497C277.736 455.521 275.947 456.495 274.234 457.419L275.184 459.179C276.902 458.252 278.696 457.275 280.558 456.249L279.592 454.497ZM268.829 460.309C267.916 460.793 267.033 461.259 266.181 461.708L267.112 463.478C267.966 463.028 268.851 462.561 269.766 462.076L268.829 460.309Z" fill="#CFC3DE"/>
<path d="M127.646 6.59273C101.646 -0.907053 46.1463 -1.90739 24.1462 10.0927C2.1462 22.0927 0.346233 39.9926 1.14623 53.5926C2.14623 70.5926 10.1465 83.5928 24.1462 90.0928C42.2068 98.4782 132.146 92.5928 148.146 90.0928C164.146 87.5928 187.146 75.5926 190.646 56.5926C194.146 37.5926 153.647 14.0925 127.646 6.59273Z" stroke="#CFC3DE" stroke-width="2" stroke-dasharray="6 6"/>
</svg>
